<svg xmlns="http://www.w3.org/2000/svg" xmlns:svg="http://www.w3.org/2000/svg" id="svg4359" width="22" height="22" version="1.1"><metadata id="metadata4364"/><g id="layer1" transform="translate(0,-26)"><rect id="rect4147-8" width="2" height="2" x="-3" y="25" fill="#e74c3c" fill-opacity="1" fill-rule="nonzero" stroke="none" stroke-dasharray="none" stroke-dashoffset="0" stroke-linecap="butt" stroke-linejoin="miter" stroke-miterlimit="4" stroke-opacity="1" stroke-width="1" clip-rule="nonzero" color="#000" color-interpolation="sRGB" color-interpolation-filters="linearRGB" color-rendering="auto" display="inline" enable-background="accumulate" image-rendering="auto" opacity="1" overflow="visible" shape-rendering="auto" text-rendering="auto" visibility="visible" style="isolation:auto;mix-blend-mode:normal;solid-color:#000;solid-opacity:1"/><path id="path4176" fill="#e74c3c" fill-opacity="1" fill-rule="evenodd" stroke="none" stroke-linecap="butt" stroke-linejoin="miter" stroke-opacity="1" stroke-width="1" d="m 12.099609,29 c -0.748146,0 -3.2973254,1.85095 -4.8535152,3.978516 L 6,34 l 0,2 0,2 0,2 1.2460938,1.021484 C 8.8022836,43.14905 11.351463,45 12.099609,45 l 0,-16 z M 5,34 c -1,0 -2,1 -2,1 l 0,4 c 0,0 1,1 2,1 l 0,-6 z m 9,2 0,2 5,0 0,-2 -5,0 z"/></g></svg>