<svg xmlns="http://www.w3.org/2000/svg" xmlns:svg="http://www.w3.org/2000/svg" id="svg4359" width="22" height="22" version="1.1" viewBox="0 0 22 22"><metadata id="metadata4364"/><g id="layer1" transform="translate(0,-26)"><rect id="rect4147-8" width="2" height="2" x="-3" y="25" fill="#304050" fill-opacity="1" fill-rule="nonzero" stroke="none" stroke-dasharray="none" stroke-dashoffset="0" stroke-linecap="butt" stroke-linejoin="miter" stroke-miterlimit="4" stroke-opacity="1" stroke-width="1" clip-rule="nonzero" color="#000" color-interpolation="sRGB" color-interpolation-filters="linearRGB" color-rendering="auto" display="inline" enable-background="accumulate" image-rendering="auto" opacity="1" overflow="visible" shape-rendering="auto" text-rendering="auto" visibility="visible" style="isolation:auto;mix-blend-mode:normal;solid-color:#000;solid-opacity:1"/><path id="path4155" fill="#304050" fill-opacity="1" stroke="none" stroke-dasharray="none" stroke-dashoffset="0" stroke-linecap="butt" stroke-linejoin="miter" stroke-miterlimit="4" stroke-opacity="1" stroke-width="4.756" d="M 11 3 A 4 4 0 0 0 7 7 A 4 4 0 0 0 11 11 A 4 4 0 0 0 15 7 A 4 4 0 0 0 11 3 z M 5 13 C 3.892 13 3 13.892 3 15 L 3 16 L 3 17 L 3 19 L 6 19 L 6 16 L 7 16 L 7 19 L 15 19 L 15 16 L 16 16 L 16 19 L 19 19 L 19 17 L 19 16 L 19 15 C 19 13.892 18.108 13 17 13 L 5 13 z" opacity="1" transform="translate(0,26)"/></g></svg>