<svg xmlns="http://www.w3.org/2000/svg" xmlns:svg="http://www.w3.org/2000/svg" id="svg4359" width="22" height="22" version="1.1"><defs id="defs4361"><clipPath id="clipPath6"><rect id="rect8" width="3.825" height="6.375" x="26.85" y="220.75" fill="#bebebe" color="#bebebe"/></clipPath><clipPath id="clipPath10"><rect id="rect12" width="2.898" height="5.216" x="26.966" y="221.33" fill="#bebebe" color="#bebebe"/></clipPath><clipPath id="clipPath14"><rect id="rect16" width="1.876" height="4.874" x="26.999" y="221.5" fill="#bebebe" color="#bebebe"/></clipPath><clipPath id="clipPath3025"><rect id="rect3027" width="1.876" height="4.874" x="26.999" y="221.5" fill="#bebebe" color="#bebebe"/></clipPath><clipPath id="clipPath3021"><rect id="rect3023" width="2.898" height="5.216" x="26.966" y="221.33" fill="#bebebe" color="#bebebe"/></clipPath><clipPath id="clipPath3017"><rect id="rect3019" width="3.825" height="6.375" x="26.85" y="220.75" fill="#bebebe" color="#bebebe"/></clipPath></defs><metadata id="metadata4364"/><g id="layer1" transform="translate(0,-26)"><rect id="rect4147-8" width="2" height="2" x="-3" y="25" fill="#304050" fill-opacity="1" fill-rule="nonzero" stroke="none" stroke-dasharray="none" stroke-dashoffset="0" stroke-linecap="butt" stroke-linejoin="miter" stroke-miterlimit="4" stroke-opacity="1" stroke-width="1" clip-rule="nonzero" color="#000" color-interpolation="sRGB" color-interpolation-filters="linearRGB" color-rendering="auto" display="inline" enable-background="accumulate" image-rendering="auto" opacity="1" overflow="visible" shape-rendering="auto" text-rendering="auto" visibility="visible" style="isolation:auto;mix-blend-mode:normal;solid-color:#000;solid-opacity:1"/><path id="rect4152" fill="#304050" fill-opacity="1" stroke="none" stroke-dasharray="none" stroke-linecap="round" stroke-linejoin="miter" stroke-miterlimit="4" stroke-opacity="1" stroke-width="1" d="m 3,6 0,3 -1,0 -1,0 0,4.1 1,0 1,0 0,2.9 18,0 0,-10 z m 2,2 14,0 0,6 -14,0 z" opacity="1" transform="translate(0,26)"/><rect id="rect4212" width="6" height="4" x="6" y="35" fill="#304050" fill-opacity="1" stroke="none" stroke-dasharray="none" stroke-linecap="round" stroke-linejoin="miter" stroke-miterlimit="4" stroke-opacity="1" stroke-width="1" opacity="1"/></g></svg>