<svg xmlns="http://www.w3.org/2000/svg" xmlns:svg="http://www.w3.org/2000/svg" id="svg2" width="22" height="22" version="1.1" viewBox="0 0 22 22"><metadata id="metadata20"/><rect id="rect4147-8" width="2" height="2" x="-3" y="-1" fill="#304050" fill-opacity="1" fill-rule="nonzero" stroke="none" stroke-dasharray="none" stroke-dashoffset="0" stroke-linecap="butt" stroke-linejoin="miter" stroke-miterlimit="4" stroke-opacity="1" stroke-width="1" clip-rule="nonzero" color="#000" color-interpolation="sRGB" color-interpolation-filters="linearRGB" color-rendering="auto" display="inline" enable-background="accumulate" image-rendering="auto" opacity="1" overflow="visible" shape-rendering="auto" text-rendering="auto" visibility="visible" style="isolation:auto;mix-blend-mode:normal;solid-color:#000;solid-opacity:1"/><path id="path336" fill="#304050" fill-opacity="1" stroke-width=".261" d="M 11 3 C 10.713138 3 10.426761 3.1910179 10.208984 3.5722656 L 2.1855469 17.613281 C 1.7497343 18.375777 2.1059757 19 2.9765625 19 L 19.023438 19 C 19.893504 19.000263 20.249486 18.376039 19.814453 17.613281 L 11.791016 3.5722656 C 11.573759 3.1910179 11.286862 3 11 3 z M 10 7.2949219 L 12 7.2949219 L 12 14 L 10 14 L 10 7.2949219 z M 11 15 A 1 1 0 0 1 12 16 A 1 1 0 0 1 11 17 A 1 1 0 0 1 10 16 A 1 1 0 0 1 11 15 z"/></svg>