<svg xmlns="http://www.w3.org/2000/svg" xmlns:svg="http://www.w3.org/2000/svg" id="svg2" width="22" height="22" version="1.1" viewBox="0 0 22 22"><metadata id="metadata20"/><path id="polygon8" fill="#6bb9f0" fill-opacity="1" d="m 7.4589844,3 -5.0605469,3.3046875 3.5,2.8007815 L 11,5.9550781 7.4589844,3 Z M 11,5.9550781 l 5.101562,3.1503909 3.5,-2.8007815 L 14.541016,3 11,5.9550781 Z M 16.101562,9.105469 11,12.255859 l 3.541016,2.955079 5.060546,-3.302735 -3.5,-2.802734 z M 11,12.255859 5.8984375,9.105469 l -3.5,2.802734 5.0605469,3.302735 L 11,12.255859 Z m 0.0098,0.636719 -3.5507816,2.945313 -1.5195313,-0.990235 0,1.111328 L 11.009766,19 l 5.072265,-3.041016 0,-1.111328 -1.519531,0.990235 -3.552734,-2.945313 z"/></svg>