<svg xmlns="http://www.w3.org/2000/svg" xmlns:svg="http://www.w3.org/2000/svg" id="svg4359" width="22" height="22" version="1.1" viewBox="0 0 22 22"><defs id="defs4361"><clipPath id="clipPath6"><rect id="rect8" width="3.825" height="6.375" x="26.85" y="220.75" fill="#bebebe" color="#bebebe"/></clipPath><clipPath id="clipPath10"><rect id="rect12" width="2.898" height="5.216" x="26.966" y="221.33" fill="#bebebe" color="#bebebe"/></clipPath><clipPath id="clipPath14"><rect id="rect16" width="1.876" height="4.874" x="26.999" y="221.5" fill="#bebebe" color="#bebebe"/></clipPath><clipPath id="clipPath3025"><rect id="rect3027" width="1.876" height="4.874" x="26.999" y="221.5" fill="#bebebe" color="#bebebe"/></clipPath><clipPath id="clipPath3021"><rect id="rect3023" width="2.898" height="5.216" x="26.966" y="221.33" fill="#bebebe" color="#bebebe"/></clipPath><clipPath id="clipPath3017"><rect id="rect3019" width="3.825" height="6.375" x="26.85" y="220.75" fill="#bebebe" color="#bebebe"/></clipPath><clipPath id="clipPath6-0"><rect id="rect8-6" width="3.825" height="6.375" x="26.85" y="220.75" fill="#bebebe" color="#bebebe"/></clipPath><clipPath id="clipPath10-7"><rect id="rect12-6" width="2.898" height="5.216" x="26.966" y="221.33" fill="#bebebe" color="#bebebe"/></clipPath><clipPath id="clipPath14-7"><rect id="rect16-9" width="1.876" height="4.874" x="26.999" y="221.5" fill="#bebebe" color="#bebebe"/></clipPath><clipPath id="clipPath3025-1"><rect id="rect3027-5" width="1.876" height="4.874" x="26.999" y="221.5" fill="#bebebe" color="#bebebe"/></clipPath><clipPath id="clipPath3021-4"><rect id="rect3023-8" width="2.898" height="5.216" x="26.966" y="221.33" fill="#bebebe" color="#bebebe"/></clipPath><clipPath id="clipPath3017-5"><rect id="rect3019-1" width="3.825" height="6.375" x="26.85" y="220.75" fill="#bebebe" color="#bebebe"/></clipPath></defs><metadata id="metadata4364"/><g id="layer1" transform="translate(0,-26)"><rect id="rect4147-8" width="2" height="2" x="-3" y="25" fill="#304050" fill-opacity="1" fill-rule="nonzero" stroke="none" stroke-dasharray="none" stroke-dashoffset="0" stroke-linecap="butt" stroke-linejoin="miter" stroke-miterlimit="4" stroke-opacity="1" stroke-width="1" clip-rule="nonzero" color="#000" color-interpolation="sRGB" color-interpolation-filters="linearRGB" color-rendering="auto" display="inline" enable-background="accumulate" image-rendering="auto" opacity="1" overflow="visible" shape-rendering="auto" text-rendering="auto" visibility="visible" style="isolation:auto;mix-blend-mode:normal;solid-color:#000;solid-opacity:1"/><path id="rect4154" fill="#304050" fill-opacity="1" stroke="none" stroke-dasharray="none" stroke-dashoffset="0" stroke-linecap="butt" stroke-linejoin="miter" stroke-miterlimit="4" stroke-opacity="1" stroke-width="3.567" d="M 10 3 L 10 5 L 12 5 L 12 3 L 10 3 z M 8 4 L 8 5 L 9 5 L 9 4 L 8 4 z M 13 4 L 13 5 L 14 5 L 14 4 L 13 4 z M 7 6 C 6.446 6 6 6.446 6 7 L 6 15 C 6 15.554 6.446 16 7 16 L 15 16 C 15.554 16 16 15.554 16 15 L 16 7 C 16 6.446 15.554 6 15 6 L 7 6 z M 7 7 L 15 7 L 15 15 L 7 15 L 7 7 z M 4 8 L 4 9 L 5 9 L 5 8 L 4 8 z M 17 8 L 17 9 L 18 9 L 18 8 L 17 8 z M 3 10 L 3 12 L 5 12 L 5 10 L 3 10 z M 17 10 L 17 12 L 19 12 L 19 10 L 17 10 z M 4 13 L 4 14 L 5 14 L 5 13 L 4 13 z M 17 13 L 17 14 L 18 14 L 18 13 L 17 13 z M 8 17 L 8 18 L 9 18 L 9 17 L 8 17 z M 10 17 L 10 19 L 12 19 L 12 17 L 10 17 z M 13 17 L 13 18 L 14 18 L 14 17 L 13 17 z" opacity="1" transform="translate(0,26)"/><path id="rect4164-2" fill="#3fc380" fill-opacity="1" fill-rule="nonzero" stroke="none" stroke-dasharray="none" stroke-dashoffset="0" stroke-linecap="butt" stroke-linejoin="miter" stroke-miterlimit="4" stroke-opacity="1" stroke-width="1" d="M 11,34 10.455079,35 9.0000005,38.000958 11,38.000958 11,39 11,40 11.544922,39 13,36.000958 l -2,0 L 11,35 Z" clip-rule="nonzero" color="#000" color-interpolation="sRGB" color-interpolation-filters="linearRGB" color-rendering="auto" display="inline" enable-background="accumulate" image-rendering="auto" opacity="1" overflow="visible" shape-rendering="auto" text-decoration="none" text-rendering="auto" visibility="visible" style="text-decoration-line:none;text-decoration-style:solid;text-decoration-color:#000;isolation:auto;mix-blend-mode:normal;solid-color:#000;solid-opacity:1"/></g></svg>