<svg xmlns="http://www.w3.org/2000/svg" xmlns:svg="http://www.w3.org/2000/svg" id="svg2" width="22" height="22" version="1.1" viewBox="0 0 22 22"><metadata id="metadata20"/><rect id="rect4147-8" width="2" height="2" x="-3" y="-1" fill="#304050" fill-opacity="1" fill-rule="nonzero" stroke="none" stroke-dasharray="none" stroke-dashoffset="0" stroke-linecap="butt" stroke-linejoin="miter" stroke-miterlimit="4" stroke-opacity="1" stroke-width="1" clip-rule="nonzero" color="#000" color-interpolation="sRGB" color-interpolation-filters="linearRGB" color-rendering="auto" display="inline" enable-background="accumulate" image-rendering="auto" opacity="1" overflow="visible" shape-rendering="auto" text-rendering="auto" visibility="visible" style="isolation:auto;mix-blend-mode:normal;solid-color:#000;solid-opacity:1"/><path id="rect4148" fill="#304050" fill-opacity="1" stroke="none" stroke-dasharray="none" stroke-linecap="round" stroke-linejoin="miter" stroke-miterlimit="4" stroke-opacity=".299" stroke-width="1" d="m 11,3 c -0.554,0 -1,0.446 -1,1 l 0,1.0996094 C 7.7126387,5.5606036 6,7.5728315 6,10 l 0,4 c -1.108,0 -2,0.892 -2,2 l 0,1 6,0 0,1 c 0,0.554 0.446,1 1,1 0.554,0 1,-0.446 1,-1 l 0,-1 6,0 0,-1 c 0,-1.108 -0.892,-2 -2,-2 l 0,-4 C 16,7.5728315 14.287361,5.5606036 12,5.0996094 L 12,4 C 12,3.446 11.554,3 11,3 Z" opacity="1"/></svg>