<svg xmlns="http://www.w3.org/2000/svg" xmlns:svg="http://www.w3.org/2000/svg" id="svg2" width="22" height="22" version="1.1" viewBox="0 0 22 22"><metadata id="metadata20"/><path id="rect4194" fill="#304050" fill-opacity="1" stroke="none" stroke-dasharray="none" stroke-linecap="round" stroke-linejoin="miter" stroke-miterlimit="4" stroke-opacity=".299" stroke-width="1" d="M 1 3 L 1 11 L 3 11 L 3 5 L 15 5 L 15 4 L 15 3 L 1 3 z M 18 3 L 18 4 L 19 4 L 19 3 L 18 3 z M 19 4 L 19 6 L 18 6 L 18 4 L 16 4 L 16 9 L 17 9 L 17 10 L 18 10 L 18 11 L 18 15 L 18 16 C 18 16.554 17.554 17 17 17 L 16 17 L 15 17 L 15 18 L 17 18 C 18.108 18 19 17.108 19 16 L 19 10 L 20 10 L 20 9 L 21 9 L 21 4 L 19 4 z M 8 14 L 8 16 L 8.6660156 16 L 8 18 C 6 18 6 19 6 19 L 9 19 L 11.46875 19 L 14 19 C 14 19 14 18 12 18 L 11.333984 16 L 17 16 L 17 15 L 17 14 L 8 14 z" opacity="1"/><rect id="rect4147-8" width="2" height="2" x="-3" y="-1" fill="#304050" fill-opacity="1" fill-rule="nonzero" stroke="none" stroke-dasharray="none" stroke-dashoffset="0" stroke-linecap="butt" stroke-linejoin="miter" stroke-miterlimit="4" stroke-opacity="1" stroke-width="1" clip-rule="nonzero" color="#000" color-interpolation="sRGB" color-interpolation-filters="linearRGB" color-rendering="auto" display="inline" enable-background="accumulate" image-rendering="auto" opacity="1" overflow="visible" shape-rendering="auto" text-rendering="auto" visibility="visible" style="isolation:auto;mix-blend-mode:normal;solid-color:#000;solid-opacity:1"/><path id="rect4148" fill="#24b8e3" fill-opacity="1" stroke="none" stroke-dasharray="none" stroke-dashoffset="0" stroke-linecap="butt" stroke-linejoin="miter" stroke-miterlimit="4" stroke-opacity="1" stroke-width="3.567" d="m 2,12 0,4 -2,0 3,3 3,-3 -2,0 0,-4 z" opacity="1"/><path id="path4156" fill="#304050" fill-opacity="1" stroke="none" stroke-dasharray="none" stroke-dashoffset="0" stroke-linecap="butt" stroke-linejoin="miter" stroke-miterlimit="4" stroke-opacity="1" stroke-width="3.567" d="m 6,14 0,-4 -2,0 3,-3 3,3 -2,0 0,4 z" opacity=".5"/></svg>