<svg xmlns="http://www.w3.org/2000/svg" xmlns:svg="http://www.w3.org/2000/svg" id="svg2" width="22" height="22" version="1.1" viewBox="0 0 22 22"><metadata id="metadata20"/><path id="rect4194" fill="#304050" fill-opacity="1" stroke="none" stroke-dasharray="none" stroke-linecap="round" stroke-linejoin="miter" stroke-miterlimit="4" stroke-opacity=".299" stroke-width="1" d="M 1,3 1,16 8.6660156,16 8,18 c -2,0 -2,1 -2,1 l 3,0 2.46875,0 L 14,19 c 0,0 0,-1 -2,-1 L 11.333984,16 17,16 17,15 17,14 3,14 3,5 15,5 15,4 15,3 1,3 Z m 17,0 0,1 1,0 0,-1 -1,0 z m 1,1 0,2 -1,0 0,-2 -2,0 0,5 1,0 0,1 1,0 0,1 0,4 0,1 c 0,0.554 -0.446,1 -1,1 l -1,0 -1,0 0,1 2,0 c 1.108,0 2,-0.892 2,-2 l 0,-6 1,0 0,-1 1,0 0,-5 -2,0 z" opacity="1"/><rect id="rect4147-8" width="2" height="2" x="-3" y="-1" fill="#304050" fill-opacity="1" fill-rule="nonzero" stroke="none" stroke-dasharray="none" stroke-dashoffset="0" stroke-linecap="butt" stroke-linejoin="miter" stroke-miterlimit="4" stroke-opacity="1" stroke-width="1" clip-rule="nonzero" color="#000" color-interpolation="sRGB" color-interpolation-filters="linearRGB" color-rendering="auto" display="inline" enable-background="accumulate" image-rendering="auto" opacity="1" overflow="visible" shape-rendering="auto" text-rendering="auto" visibility="visible" style="isolation:auto;mix-blend-mode:normal;solid-color:#000;solid-opacity:1"/></svg>