<svg xmlns="http://www.w3.org/2000/svg" xmlns:svg="http://www.w3.org/2000/svg" id="svg2" width="22" height="22" version="1.1" viewBox="0 0 22 22"><metadata id="metadata20"/><rect id="rect4147-8" width="2" height="2" x="-3" y="-1" fill="#304050" fill-opacity="1" fill-rule="nonzero" stroke="none" stroke-dasharray="none" stroke-dashoffset="0" stroke-linecap="butt" stroke-linejoin="miter" stroke-miterlimit="4" stroke-opacity="1" stroke-width="1" clip-rule="nonzero" color="#000" color-interpolation="sRGB" color-interpolation-filters="linearRGB" color-rendering="auto" display="inline" enable-background="accumulate" image-rendering="auto" opacity="1" overflow="visible" shape-rendering="auto" text-rendering="auto" visibility="visible" style="isolation:auto;mix-blend-mode:normal;solid-color:#000;solid-opacity:1"/><path id="circle4172" fill="#304050" fill-opacity="1" stroke="none" stroke-dasharray="none" stroke-linecap="round" stroke-linejoin="miter" stroke-miterlimit="4" stroke-opacity=".299" stroke-width="14.23" d="M 11,3 A 15,13.499998 0 0 0 0.7324219,6.6796875 L 2.0019531,8.203125 A 13,11.499998 0 0 1 11,5 13,11.499998 0 0 1 19.990234,8.2128906 l 1.28125,-1.5390625 A 15,13.499998 0 0 0 11,3 Z" opacity=".06"/><path id="path4177" fill="#304050" fill-opacity="1" stroke="none" stroke-dasharray="none" stroke-linecap="round" stroke-linejoin="miter" stroke-miterlimit="4" stroke-opacity=".299" stroke-width="11.897" d="M 11,7 A 11,9.4999982 0 0 0 3.2832031,9.740234 l 1.2773438,1.53125 A 9,7.4999983 0 0 1 11,9 9,7.4999983 0 0 1 17.445312,11.265625 L 18.71875,9.736328 A 11,9.4999982 0 0 0 11,7 Z" opacity=".12"/><path id="path4190" fill="#304050" fill-opacity="1" stroke="none" stroke-dasharray="none" stroke-linecap="round" stroke-linejoin="miter" stroke-miterlimit="4" stroke-opacity=".299" stroke-width="8.985" d="m 11,11 a 7,5.4999982 0 0 0 -5.1679688,1.798828 l 1.265625,1.519531 A 5,3.4999984 0 0 1 11,13 a 5,3.4999984 0 0 1 3.904297,1.314453 l 1.263672,-1.515625 A 7,5.4999982 0 0 0 11,11 Z" opacity=".25"/><path id="path4210" fill="#304050" fill-opacity="1" stroke="none" stroke-dasharray="none" stroke-linecap="round" stroke-linejoin="miter" stroke-miterlimit="4" stroke-opacity=".299" stroke-width="5.261" d="M 11,15 A 3,1.999999 0 0 0 8.4550781,15.945312 L 11,19 13.544922,15.945312 A 3,1.999999 0 0 0 11,15 Z" opacity=".5"/><path id="path4216" fill="#304050" fill-opacity="1" fill-rule="evenodd" stroke="#000" stroke-linecap="butt" stroke-linejoin="miter" stroke-opacity="1" stroke-width="1" d="M 11,19 Z"/></svg>