<svg xmlns="http://www.w3.org/2000/svg" xmlns:svg="http://www.w3.org/2000/svg" id="svg2" width="22" height="22" version="1.1" viewBox="0 0 22 22"><metadata id="metadata20"/><rect id="rect4147-8" width="2" height="2" x="-3" y="-1" fill="#e74c3c" fill-opacity="1" fill-rule="nonzero" stroke="none" stroke-dasharray="none" stroke-dashoffset="0" stroke-linecap="butt" stroke-linejoin="miter" stroke-miterlimit="4" stroke-opacity="1" stroke-width="1" clip-rule="nonzero" color="#000" color-interpolation="sRGB" color-interpolation-filters="linearRGB" color-rendering="auto" display="inline" enable-background="accumulate" image-rendering="auto" opacity="1" overflow="visible" shape-rendering="auto" text-rendering="auto" visibility="visible" style="isolation:auto;mix-blend-mode:normal;solid-color:#000;solid-opacity:1"/><path id="path4148" fill="#e74c3c" fill-opacity="1" stroke="none" stroke-dasharray="none" stroke-dashoffset="0" stroke-linecap="butt" stroke-linejoin="miter" stroke-miterlimit="4" stroke-opacity="1" stroke-width="3.567" d="M 11 3 A 8 8 0 0 0 3 11 A 8 8 0 0 0 11 19 L 11 17 A 6 6 0 0 1 5 11 A 6 6 0 0 1 11 5 A 6 6 0 0 1 17 11 L 19 11 A 8 8 0 0 0 11 3 z M 11 7 C 10.446 7 10 7.446 10 8 L 10 14 C 10 14.554 10.446 15 11 15 C 11.554 15 12 14.554 12 14 L 12 8 C 12 7.446 11.554 7 11 7 z M 16 11 L 13 16 L 15 16 L 15 19 L 18 14 L 16 14 L 16 11 z" opacity="1"/></svg>