<svg xmlns="http://www.w3.org/2000/svg" xmlns:svg="http://www.w3.org/2000/svg" id="svg2" width="16" height="16" version="1.1" viewBox="0 0 16 16"><metadata id="metadata7"/><g id="layer1" transform="translate(0,-1036.3622)"><path id="rect4146" fill="#304050" fill-opacity="1" stroke="none" stroke-dasharray="none" stroke-linecap="round" stroke-linejoin="round" stroke-miterlimit="4" stroke-opacity="1" stroke-width="2" d="M 3 2 L 3 14 L 13 14 L 13 2 L 3 2 z M 4 3 L 12 3 L 12 13 L 4 13 L 4 3 z M 5 4 L 5 5 L 11 5 L 11 4 L 5 4 z M 5 6 L 5 7 L 8 7 L 8 6 L 5 6 z M 5 8 L 5 9 L 10 9 L 10 8 L 5 8 z M 5 10 L 5 11 L 7 11 L 7 10 L 5 10 z M 9 11 L 9 12 L 11 12 L 11 11 L 9 11 z" opacity="1" transform="translate(0,1036.3622)"/></g></svg>