<svg xmlns="http://www.w3.org/2000/svg" xmlns:svg="http://www.w3.org/2000/svg" xmlns:xlink="http://www.w3.org/1999/xlink" id="svg2" width="32" height="32" version="1.1" viewBox="0 0 32 32"><defs id="defs4"><linearGradient id="Shadow"><stop id="stop4158" offset="0" stop-color="#000" stop-opacity="1"/><stop id="stop4160" offset="1" stop-color="#000" stop-opacity="0"/></linearGradient><radialGradient id="radialGradient4227" cx="16" cy="1039.362" r="2" fx="16" fy="1039.362" gradientUnits="userSpaceOnUse" xlink:href="#Shadow"/><radialGradient id="radialGradient4169" cx="16" cy="1040.362" r="12" fx="16" fy="1040.362" gradientTransform="translate(0,-4.513e-5)" gradientUnits="userSpaceOnUse" xlink:href="#linearGradient4163"/><linearGradient id="linearGradient4163"><stop id="stop4166" offset="0" stop-color="#000" stop-opacity="1"/><stop id="stop4170" offset=".667" stop-color="#000" stop-opacity="1"/><stop id="stop4168" offset="1" stop-color="#000" stop-opacity="0"/></linearGradient></defs><metadata id="metadata7"/><g id="layer1" transform="translate(0,-1020.3622)"><circle id="path4153" cx="16" cy="1040.362" r="12" fill="url(#radialGradient4169)" fill-opacity="1" stroke="none" stroke-dasharray="none" stroke-linecap="round" stroke-linejoin="round" stroke-miterlimit="4" stroke-opacity="1" stroke-width="2" opacity="1"/><circle id="circle4164" cx="16" cy="1038.362" r="12" fill="#9e9e9e" fill-opacity="1" stroke="none" stroke-dasharray="none" stroke-linecap="round" stroke-linejoin="round" stroke-miterlimit="4" stroke-opacity="1" stroke-width="2" opacity="1"/><rect id="rect4217" width="4" height="4" x="743.547" y="708.919" fill="#9e9e9e" fill-opacity="1" stroke="none" stroke-dasharray="none" stroke-linecap="round" stroke-linejoin="round" stroke-miterlimit="4" stroke-opacity="1" stroke-width="2" opacity="1" ry="1" transform="matrix(0.70710678,0.70710678,-0.70710678,0.70710678,0,0)"/><rect id="rect4247" width="4" height="4" x="14" y="1024.362" fill="#9e9e9e" fill-opacity="1" stroke="none" stroke-dasharray="none" stroke-linecap="round" stroke-linejoin="round" stroke-miterlimit="4" stroke-opacity="1" stroke-width="2" opacity="1" ry="1"/><circle id="circle4168" cx="16" cy="-1038.362" r="11" fill="#e0e0e0" fill-opacity="1" stroke="none" stroke-dasharray="none" stroke-linecap="round" stroke-linejoin="round" stroke-miterlimit="4" stroke-opacity="1" stroke-width="2" opacity="1" transform="scale(1,-1)"/><circle id="circle4170" cx="16" cy="1038.362" r="9" fill="#bdbdbd" fill-opacity="1" stroke="none" stroke-dasharray="none" stroke-linecap="round" stroke-linejoin="round" stroke-miterlimit="4" stroke-opacity="1" stroke-width="2" opacity="1"/><circle id="circle4172" cx="16" cy="1038.362" r="8" fill="#f5f5f5" fill-opacity="1" stroke="none" stroke-dasharray="none" stroke-linecap="round" stroke-linejoin="round" stroke-miterlimit="4" stroke-opacity="1" stroke-width="2" opacity="1"/><path id="path4178" fill="#ec407a" fill-opacity="1" fill-rule="evenodd" stroke="none" stroke-dasharray="none" stroke-dashoffset="0" stroke-linecap="round" stroke-linejoin="round" stroke-miterlimit="4" stroke-opacity="1" stroke-width="2" d="M 15.984375,1037.3477 A 1.0001,1.0001 0 0 0 15,1038.3613 l 0,5 a 1.0001,1.0001 0 1 0 2,0 l 0,-5 a 1.0001,1.0001 0 0 0 -1.015625,-1.0136 z" baseline-shift="baseline" clip-rule="nonzero" color="#000" color-interpolation="sRGB" color-interpolation-filters="linearRGB" color-rendering="auto" direction="ltr" display="inline" enable-background="accumulate" font-family="sans-serif" font-size="medium" font-stretch="normal" font-style="normal" font-variant="normal" font-weight="normal" image-rendering="auto" letter-spacing="normal" opacity="1" overflow="visible" shape-rendering="auto" text-anchor="start" text-decoration="none" text-rendering="auto" visibility="visible" word-spacing="normal" writing-mode="lr-tb" style="line-height:normal;text-indent:0;text-align:start;text-decoration-line:none;text-decoration-style:solid;text-decoration-color:#000;text-transform:none;block-progression:tb;white-space:normal;isolation:auto;mix-blend-mode:normal;solid-color:#000;solid-opacity:1"/><path id="path4180" fill="#424242" fill-opacity="1" fill-rule="evenodd" stroke="none" stroke-dasharray="none" stroke-dashoffset="0" stroke-linecap="round" stroke-linejoin="round" stroke-miterlimit="4" stroke-opacity="1" stroke-width="2" d="m 19.96875,1032.3516 a 1.0001,1.0001 0 0 0 -0.75,0.3867 l -4,5 a 1.0001,1.0001 0 1 0 1.5625,1.248 l 4,-5 a 1.0001,1.0001 0 0 0 -0.8125,-1.6347 z" baseline-shift="baseline" clip-rule="nonzero" color="#000" color-interpolation="sRGB" color-interpolation-filters="linearRGB" color-rendering="auto" direction="ltr" display="inline" enable-background="accumulate" font-family="sans-serif" font-size="medium" font-stretch="normal" font-style="normal" font-variant="normal" font-weight="normal" image-rendering="auto" letter-spacing="normal" opacity="1" overflow="visible" shape-rendering="auto" text-anchor="start" text-decoration="none" text-rendering="auto" visibility="visible" word-spacing="normal" writing-mode="lr-tb" style="line-height:normal;text-indent:0;text-align:start;text-decoration-line:none;text-decoration-style:solid;text-decoration-color:#000;text-transform:none;block-progression:tb;white-space:normal;isolation:auto;mix-blend-mode:normal;solid-color:#000;solid-opacity:1"/><circle id="circle4223" cx="16" cy="1039.362" r="2" fill="url(#radialGradient4227)" fill-opacity="1" stroke="none" stroke-dasharray="none" stroke-linecap="round" stroke-linejoin="round" stroke-miterlimit="4" stroke-opacity="1" stroke-width="2" opacity="1"/><circle id="path4174" cx="16" cy="1038.362" r="2" fill="#e91e63" fill-opacity="1" stroke="none" stroke-dasharray="none" stroke-linecap="round" stroke-linejoin="round" stroke-miterlimit="4" stroke-opacity="1" stroke-width="2" opacity="1"/><rect id="rect4219" width="6" height="2" x="742.547" y="707.919" fill="#9e9e9e" fill-opacity="1" stroke="none" stroke-dasharray="none" stroke-linecap="round" stroke-linejoin="round" stroke-miterlimit="4" stroke-opacity="1" stroke-width="2" opacity="1" ry="1" transform="matrix(0.70710678,0.70710678,-0.70710678,0.70710678,0,0)"/><rect id="rect4215" width="2" height="2" x="744.547" y="708.919" fill="#eee" fill-opacity="1" stroke="none" stroke-dasharray="none" stroke-linecap="round" stroke-linejoin="round" stroke-miterlimit="4" stroke-opacity="1" stroke-width="2" opacity="1" ry="0" transform="matrix(0.70710678,0.70710678,-0.70710678,0.70710678,0,0)"/><circle id="circle4221" cx="16" cy="1038.362" r="1" fill="#ec407a" fill-opacity="1" stroke="none" stroke-dasharray="none" stroke-linecap="round" stroke-linejoin="round" stroke-miterlimit="4" stroke-opacity="1" stroke-width="2" opacity="1"/><rect id="rect4239" width="2" height="1" x="15" y="1025.362" fill="#eee" fill-opacity="1" stroke="none" stroke-dasharray="none" stroke-linecap="round" stroke-linejoin="round" stroke-miterlimit="4" stroke-opacity="1" stroke-width="2" opacity="1" ry="0"/><path id="path4257" fill="#9e9e9e" fill-opacity="1" stroke="none" stroke-dasharray="none" stroke-linecap="round" stroke-linejoin="round" stroke-miterlimit="4" stroke-opacity="1" stroke-width="2" d="M 16 2 A 3 2.5 0 0 0 13 4.5 A 3 2.5 0 0 0 16 7 A 3 2.5 0 0 0 19 4.5 A 3 2.5 0 0 0 16 2 z M 16 3 A 2 1.5 0 0 1 18 4.5 A 2 1.5 0 0 1 16 6 A 2 1.5 0 0 1 14 4.5 A 2 1.5 0 0 1 16 3 z" opacity="1" transform="translate(0,1020.3622)"/></g></svg>