<svg xmlns="http://www.w3.org/2000/svg" xmlns:svg="http://www.w3.org/2000/svg" xmlns:xlink="http://www.w3.org/1999/xlink" id="svg2" width="32" height="32" version="1.1" viewBox="0 0 32 32"><defs id="defs4"><linearGradient id="Shadow"><stop id="stop4181" offset="0" stop-color="#000" stop-opacity="1"/><stop id="stop4183" offset="1" stop-color="#000" stop-opacity="0"/></linearGradient><radialGradient id="radialGradient4576" cx="28" cy="28.5" r="1.5" fx="28" fy="28.5" gradientTransform="matrix(3.1111458e-7,2.6666673,-1.9999997,2.3333583e-7,85.99998,973.69551)" gradientUnits="userSpaceOnUse" xlink:href="#Shadow"/><radialGradient id="radialGradient4578" cx=".56" cy="31.147" r="1.5" fx=".56" fy="31.147" gradientTransform="matrix(-1.9999998,2.4329792e-6,-3.2319946e-6,-2.6666666,4.119531,1131.421)" gradientUnits="userSpaceOnUse" xlink:href="#Shadow"/><linearGradient id="linearGradient4580" x1="16" x2="16" y1="28" y2="32" gradientTransform="translate(0,1020.3622)" gradientUnits="userSpaceOnUse" xlink:href="#Shadow"/></defs><metadata id="metadata7"/><g id="layer1" transform="translate(0,-1020.3622)"><path id="path4574" fill="url(#linearGradient4580)" fill-opacity="1" stroke="none" stroke-dasharray="none" stroke-linecap="round" stroke-linejoin="round" stroke-miterlimit="4" stroke-opacity=".528" stroke-width="2" d="m 3,1048.3622 0,4 26,0 0,-4 z" opacity="1"/><path id="path4572" fill="url(#radialGradient4578)" fill-opacity="1" stroke="none" stroke-dasharray="none" stroke-linecap="round" stroke-linejoin="round" stroke-miterlimit="4" stroke-opacity=".528" stroke-width="2" d="m 3,1048.3622 -3,0 0,1 c 0,1.662 1.33799,3 3,3 l 0,-4 z" opacity="1"/><path id="path4570" fill="url(#radialGradient4576)" fill-opacity="1" stroke="none" stroke-dasharray="none" stroke-linecap="round" stroke-linejoin="round" stroke-miterlimit="4" stroke-opacity=".528" stroke-width="2" d="m 29,1048.3622 0,4 c 1.66201,0 3,-1.338 3,-3 l 0,-1 -3,0 z" opacity="1"/><rect id="rect4163" width="32" height="13" x="0" y="1037.362" fill="#bdbdbd" fill-opacity="1" stroke="none" stroke-dasharray="none" stroke-linecap="round" stroke-linejoin="round" stroke-miterlimit="4" stroke-opacity=".528" stroke-width="2" opacity="1" ry="2"/><rect id="rect4164" width="30" height="11" x="1" y="1038.362" fill="#eee" fill-opacity="1" stroke="none" stroke-dasharray="none" stroke-linecap="round" stroke-linejoin="round" stroke-miterlimit="4" stroke-opacity="1" stroke-width="2" opacity="1" ry="1"/><path id="rect4182" fill="#9e9e9e" fill-opacity="1" stroke="none" stroke-dasharray="none" stroke-linecap="round" stroke-linejoin="round" stroke-miterlimit="4" stroke-opacity="1" stroke-width="2" d="m 3,1039.3622 0,8 1,0 0,-3 4,0 0,3 1,0 0,-8 -1,0 0,4 -4,0 0,-4 -1,0 z m 13.5,2 a 0.49999997,0.5 0 0 0 -0.5,0.5 0.49999997,0.5 0 0 0 0.5,0.5 0.49999997,0.5 0 0 0 0.5,-0.5 0.49999997,0.5 0 0 0 -0.5,-0.5 z m -4,1 a 2.4999999,2.5 0 0 0 -2.5,2.5 2.4999999,2.5 0 0 0 2.5,2.5 2.4999999,2.5 0 0 0 1.5,-0.5039 l 0,0.5039 1,0 0,-5 -1,0 0,0.502 a 2.4999999,2.5 0 0 0 -1.5,-0.502 z m 0,1 a 1.4999999,1.5 0 0 1 1.5,1.5 1.4999999,1.5 0 0 1 -1.5,1.5 1.4999999,1.5 0 0 1 -1.5,-1.5 1.4999999,1.5 0 0 1 1.5,-1.5 z m 3.5,0 0,4 1,0 0,-4 -1,0 z" opacity="1"/><path id="path4201" fill="#ef5350" fill-opacity="1" fill-rule="evenodd" stroke="none" stroke-linecap="butt" stroke-linejoin="miter" stroke-opacity="1" stroke-width="1" d="m 3,1047.3622 -1,1 2,0 -1,-1 z m 1,1 2,0 -1,-1 -1,1 z m 2,0 2,0 -1,-1 -1,1 z m 2,0 2,0 -1,-1 -1,1 z m 2,0 2,0 -1,-1 -1,1 z m 2,0 2,0 -1,-1 -1,1 z m 2,0 2,0 -1,-1 -1,1 z m 2,0 2,0 -1,-1 -1,1 z"/><path id="path4223" fill="#757575" fill-opacity="1" fill-rule="evenodd" stroke="none" stroke-dasharray="none" stroke-dashoffset="0" stroke-linecap="butt" stroke-linejoin="round" stroke-miterlimit="4" stroke-opacity="1" stroke-width="1" d="m 23.500243,1040.3622 c -0.132602,0 -0.259763,0.053 -0.353516,0.1465 l -3,3 c -0.195163,0.1953 -0.195163,0.5117 0,0.707 l 3,3 c 0.09375,0.094 0.220914,0.1465 0.353516,0.1465 l 5.999757,0 c 0.276131,0 0.499972,-0.2239 0.5,-0.5 l 0,-6 c -2.8e-5,-0.2761 -0.223869,-0.5 -0.5,-0.5 z" baseline-shift="baseline" clip-rule="nonzero" color="#000" color-interpolation="sRGB" color-interpolation-filters="linearRGB" color-rendering="auto" direction="ltr" display="inline" enable-background="accumulate" font-family="sans-serif" font-size="medium" font-stretch="normal" font-style="normal" font-variant="normal" font-weight="normal" image-rendering="auto" letter-spacing="normal" opacity="1" overflow="visible" shape-rendering="auto" text-anchor="start" text-decoration="none" text-rendering="auto" visibility="visible" word-spacing="normal" writing-mode="lr-tb" style="line-height:normal;text-indent:0;text-align:start;text-decoration-line:none;text-decoration-style:solid;text-decoration-color:#000;text-transform:none;block-progression:tb;white-space:normal;isolation:auto;mix-blend-mode:normal;solid-color:#000;solid-opacity:1"/><path id="rect4233" fill="#fff" fill-opacity="1" stroke="none" stroke-dasharray="none" stroke-linecap="round" stroke-linejoin="round" stroke-miterlimit="4" stroke-opacity="1" stroke-width="2" d="M 25.707031,1041.8622 25,1042.5692 l 1.292969,1.293 -1.292969,1.2929 0.707031,0.7071 1.292969,-1.293 1.292969,1.293 L 29,1045.1551 27.707031,1043.8622 29,1042.5692 28.292969,1041.8622 27,1043.1551 l -1.292969,-1.2929 z" opacity="1"/></g></svg>