<svg xmlns="http://www.w3.org/2000/svg" xmlns:svg="http://www.w3.org/2000/svg" xmlns:xlink="http://www.w3.org/1999/xlink" id="svg7384" width="16" height="16" version="1.1"><title id="title9167">Gnome Symbolic Icon Theme</title><defs id="defs11"><linearGradient id="linearGradient4114"><stop id="stop4116" offset="0" stop-color="#bebebe" stop-opacity=".496"/><stop id="stop4122" offset=".086" stop-color="#c8c8c8" stop-opacity=".748"/><stop id="stop4124" offset=".924" stop-color="#cdcdcd" stop-opacity=".661"/><stop id="stop4118" offset="1" stop-color="#d3d3d3" stop-opacity=".322"/></linearGradient><linearGradient id="linearGradient4037-5"><stop id="stop4039-0" offset="0" stop-color="#bebebe" stop-opacity=".737"/><stop id="stop4041-0" offset="1" stop-color="#d3d3d3" stop-opacity="1"/></linearGradient><linearGradient id="linearGradient4060" x1="9.167" x2="8.437" y1="9.333" y2="6.667" gradientTransform="matrix(0.85714286,0,0,0.75,1.1428572,2)" gradientUnits="userSpaceOnUse" xlink:href="#linearGradient4037-5"/><linearGradient id="linearGradient4120" x1="8" x2="8" y1="11" y2="5" gradientUnits="userSpaceOnUse" xlink:href="#linearGradient4114"/></defs><metadata id="metadata90"/><path id="rect5505-21" fill="#bebebe" fill-opacity="1" fill-rule="nonzero" stroke="none" stroke-width="1" d="M 0.375 1 C 0.16886 1 0 1.1448782 0 1.34375 L 0 14.65625 C 0 14.855122 0.16886 15 0.375 15 L 15.625 15 C 15.83114 15 16 14.855122 16 14.65625 L 16 1.34375 C 16 1.1448782 15.83114 1 15.625 1 L 0.375 1 z M 1.125 1.71875 L 1.875 1.71875 C 2.08114 1.71875 2.21875 1.8636287 2.21875 2.0625 L 2.21875 3.15625 C 2.21875 3.3551222 2.08114 3.5 1.875 3.5 L 1.125 3.5 C 0.918861 3.5 0.75 3.3551222 0.75 3.15625 L 0.75 2.0625 C 0.75 1.8636287 0.918861 1.71875 1.125 1.71875 z M 3.71875 1.71875 L 4.46875 1.71875 C 4.67489 1.71875 4.84375 1.8636287 4.84375 2.0625 L 4.84375 3.15625 C 4.84375 3.3551222 4.67489 3.5 4.46875 3.5 L 3.71875 3.5 C 3.512611 3.5 3.34375 3.3551222 3.34375 3.15625 L 3.34375 2.0625 C 3.34375 1.8636287 3.512611 1.71875 3.71875 1.71875 z M 6.3125 1.71875 L 7.0625 1.71875 C 7.26864 1.71875 7.4375 1.8636287 7.4375 2.0625 L 7.4375 3.15625 C 7.4375 3.3551222 7.26864 3.5 7.0625 3.5 L 6.3125 3.5 C 6.106361 3.5 5.96875 3.3551222 5.96875 3.15625 L 5.96875 2.0625 C 5.96875 1.8636287 6.106361 1.71875 6.3125 1.71875 z M 8.9375 1.71875 L 9.6875 1.71875 C 9.893639 1.71875 10.03125 1.8636287 10.03125 2.0625 L 10.03125 3.15625 C 10.03125 3.3551222 9.893639 3.5 9.6875 3.5 L 8.9375 3.5 C 8.73136 3.5 8.5625 3.3551222 8.5625 3.15625 L 8.5625 2.0625 C 8.5625 1.8636287 8.73136 1.71875 8.9375 1.71875 z M 11.53125 1.71875 L 12.28125 1.71875 C 12.487389 1.71875 12.65625 1.8636287 12.65625 2.0625 L 12.65625 3.15625 C 12.65625 3.3551222 12.487389 3.5 12.28125 3.5 L 11.53125 3.5 C 11.32511 3.5 11.15625 3.3551222 11.15625 3.15625 L 11.15625 2.0625 C 11.15625 1.8636287 11.32511 1.71875 11.53125 1.71875 z M 14.125 1.71875 L 14.875 1.71875 C 15.081139 1.71875 15.25 1.8636287 15.25 2.0625 L 15.25 3.15625 C 15.25 3.3551222 15.081139 3.5 14.875 3.5 L 14.125 3.5 C 13.91886 3.5 13.78125 3.3551222 13.78125 3.15625 L 13.78125 2.0625 C 13.78125 1.8636287 13.91886 1.71875 14.125 1.71875 z M 1 4 L 15 4 L 15 12 L 1 12 L 1 4 z M 0.96875 12.5 C 1.0132965 12.481883 1.0734652 12.5 1.125 12.5 L 1.875 12.5 C 2.08114 12.5 2.21875 12.644878 2.21875 12.84375 L 2.21875 13.9375 C 2.21875 14.136371 2.08114 14.28125 1.875 14.28125 L 1.125 14.28125 C 0.918861 14.28125 0.75 14.136371 0.75 13.9375 L 0.75 12.84375 C 0.75 12.694596 0.83511055 12.554351 0.96875 12.5 z M 3.5625 12.5 C 3.6070465 12.481883 3.6672152 12.5 3.71875 12.5 L 4.46875 12.5 C 4.67489 12.5 4.84375 12.644878 4.84375 12.84375 L 4.84375 13.9375 C 4.84375 14.136371 4.67489 14.28125 4.46875 14.28125 L 3.71875 14.28125 C 3.512611 14.28125 3.34375 14.136371 3.34375 13.9375 L 3.34375 12.84375 C 3.34375 12.694596 3.4288605 12.554351 3.5625 12.5 z M 6.1875 12.5 C 6.2320465 12.481883 6.2609652 12.5 6.3125 12.5 L 7.0625 12.5 C 7.26864 12.5 7.4375 12.644878 7.4375 12.84375 L 7.4375 13.9375 C 7.4375 14.136371 7.26864 14.28125 7.0625 14.28125 L 6.3125 14.28125 C 6.106361 14.28125 5.96875 14.136371 5.96875 13.9375 L 5.96875 12.84375 C 5.96875 12.694596 6.0538605 12.554351 6.1875 12.5 z M 8.78125 12.5 C 8.8257965 12.481883 8.885965 12.5 8.9375 12.5 L 9.6875 12.5 C 9.893639 12.5 10.03125 12.644878 10.03125 12.84375 L 10.03125 13.9375 C 10.03125 14.136371 9.893639 14.28125 9.6875 14.28125 L 8.9375 14.28125 C 8.73136 14.28125 8.5625 14.136371 8.5625 13.9375 L 8.5625 12.84375 C 8.5625 12.694596 8.6476104 12.554351 8.78125 12.5 z M 11.375 12.5 C 11.419547 12.481883 11.479715 12.5 11.53125 12.5 L 12.28125 12.5 C 12.487389 12.5 12.65625 12.644878 12.65625 12.84375 L 12.65625 13.9375 C 12.65625 14.136371 12.487389 14.28125 12.28125 14.28125 L 11.53125 14.28125 C 11.32511 14.28125 11.15625 14.136371 11.15625 13.9375 L 11.15625 12.84375 C 11.15625 12.694596 11.24136 12.554351 11.375 12.5 z M 14 12.5 C 14.044547 12.481883 14.073465 12.5 14.125 12.5 L 14.875 12.5 C 15.081139 12.5 15.25 12.644878 15.25 12.84375 L 15.25 13.9375 C 15.25 14.136371 15.081139 14.28125 14.875 14.28125 L 14.125 14.28125 C 13.91886 14.28125 13.78125 14.136371 13.78125 13.9375 L 13.78125 12.84375 C 13.78125 12.694596 13.86636 12.554351 14 12.5 z" color="#bebebe" display="inline" enable-background="accumulate" overflow="visible" visibility="visible" style="marker:none"/><path id="rect4016" fill="url(#linearGradient4120)" fill-opacity="1" fill-rule="nonzero" stroke="none" stroke-width="1" d="M 1 4 L 1 12 L 15 12 L 15 4 L 1 4 z M 2 5 L 14 5 L 14 11 L 2 11 L 2 5 z" color="#bebebe" display="inline" enable-background="accumulate" overflow="visible" visibility="visible" style="marker:none"/><rect id="rect4016-3" width="12" height="6" x="2" y="5" fill="url(#linearGradient4060)" fill-opacity="1" fill-rule="nonzero" stroke="none" stroke-width="1" color="#bebebe" display="inline" enable-background="accumulate" overflow="visible" visibility="visible" style="marker:none"/></svg>