<svg xmlns="http://www.w3.org/2000/svg" xmlns:svg="http://www.w3.org/2000/svg" id="svg7384" width="16" height="16" version="1.1"><title id="title9167">Gnome Symbolic Icon Theme</title><metadata id="metadata90"/><path id="path4031" fill="#bebebe" fill-opacity="1" fill-rule="nonzero" stroke="none" stroke-width="1" d="M 12.375,2.0082226e-8 C 10.017897,0.37983517 6.8505507,0.7864515 4.5,1.1875 3.9553666,1.4532299 4.0001739,2.0597888 4,2.59375 L 4,10 c -0.4815543,-0.019282 -0.9822585,0.121889 -1.46875,0.40625 -1.2695902,0.742094 -1.88553027,2.273377 -1.34375,3.4375 0.5417803,1.164123 2.0116598,1.492094 3.28125,0.75 C 5.4502409,14.020054 6.0397431,12.986545 6,12 L 6,4.46875 C 6.2855763,4.4476 10.61103,3.6174533 11,3.5625 L 11,9 c -0.481554,-0.019282 -0.982259,0.1218886 -1.46875,0.40625 -1.2695902,0.742094 -1.8855303,2.273377 -1.34375,3.4375 0.5417803,1.164123 2.01166,1.492094 3.28125,0.75 C 12.450241,13.020054 13.039743,11.986545 13,11 L 13,0.65625002 C 12.95514,0.33049137 12.74142,-0.02351408 12.375,2.0082226e-8 z" color="#bebebe" style="marker:none" display="inline" enable-background="accumulate" opacity="1" overflow="visible" visibility="visible"/></svg>