<svg xmlns="http://www.w3.org/2000/svg" xmlns:svg="http://www.w3.org/2000/svg" xmlns:xlink="http://www.w3.org/1999/xlink" id="svg7384" width="16" height="16" version="1.1"><title id="title9167">Gnome Symbolic Icon Theme</title><defs id="defs11"><linearGradient id="linearGradient4125"><stop id="stop4127" offset="0" stop-color="#bebebe" stop-opacity=".729"/><stop id="stop4129" offset=".086" stop-color="#c8c8c8" stop-opacity="1"/><stop id="stop4131" offset=".924" stop-color="#cdcdcd" stop-opacity=".878"/><stop id="stop4133" offset="1" stop-color="#d3d3d3" stop-opacity=".749"/></linearGradient><linearGradient id="linearGradient4116"><stop id="stop4119" offset="0" stop-color="#bebebe" stop-opacity=".617"/><stop id="stop4121" offset="1" stop-color="#bebebe" stop-opacity=".165"/></linearGradient><linearGradient id="linearGradient3932"><stop id="stop3934" offset="0" stop-color="#bebebe" stop-opacity="1"/><stop id="stop3936" offset="1" stop-color="#bebebe" stop-opacity=".748"/></linearGradient><linearGradient id="linearGradient3938" x1="12.57" x2="12.57" y1="13" y2="1" gradientUnits="userSpaceOnUse" xlink:href="#linearGradient3932"/><linearGradient id="linearGradient4032" x1="8" x2="8" y1="11.333" y2="4.667" gradientTransform="matrix(0.64285714,0,0,1.5,4.3571429,-5.0000004)" gradientUnits="userSpaceOnUse" xlink:href="#linearGradient4125"/><linearGradient id="linearGradient4114-1"><stop id="stop4116-38" offset="0" stop-color="#bebebe" stop-opacity=".4"/><stop id="stop4122-7" offset=".086" stop-color="#c8c8c8" stop-opacity=".417"/><stop id="stop4124-4" offset=".924" stop-color="#cdcdcd" stop-opacity=".417"/><stop id="stop4118-9" offset="1" stop-color="#d3d3d3" stop-opacity="0"/></linearGradient><linearGradient id="linearGradient4052" x1="8" x2="8" y1="11.333" y2="4.667" gradientTransform="matrix(0.64285714,0,0,1.5,1.3571429,-3.0000004)" gradientUnits="userSpaceOnUse" xlink:href="#linearGradient4114-1"/><linearGradient id="linearGradient4123" x1="6" x2="6" y1="14" y2="4" gradientUnits="userSpaceOnUse" xlink:href="#linearGradient4116"/></defs><metadata id="metadata90"/><path id="rect3077-0" fill="#bebebe" fill-opacity="1" fill-rule="nonzero" stroke="none" stroke-width="1" d="M 4.5,0 C 4.223,0 4,0.223 4,0.5 L 4,2 5,2 5,1 l 9,0 0,12 -2,0 0,1 2.5,0 c 0.277,0 0.5,-0.223 0.5,-0.5 l 0,-13 C 15,0.223 14.777,0 14.5,0 z" color="#bebebe" display="inline" enable-background="accumulate" overflow="visible" visibility="visible" style="marker:none"/><path id="rect3077-5-6" fill="url(#linearGradient3938)" fill-opacity="1" fill-rule="nonzero" stroke="none" stroke-width="1" d="M 11.5 2 C 11.777 2 12 2.223 12 2.5 L 12 12 L 13 12 L 13 2 L 11.5 2 z" color="#bebebe" display="inline" enable-background="accumulate" overflow="visible" visibility="visible" style="marker:none"/><path id="rect3077" fill="#bebebe" fill-opacity="1" fill-rule="nonzero" stroke="none" stroke-width="1" d="M 1.5 2 C 1.223 2 1 2.223 1 2.5 L 1 15.5 C 1 15.777 1.223 16 1.5 16 L 11.5 16 C 11.777 16 12 15.777 12 15.5 L 12 2.5 C 12 2.223 11.777 2 11.5 2 L 1.5 2 z M 2 3 L 11 3 L 11 15 L 2 15 L 2 3 z" color="#bebebe" display="inline" enable-background="accumulate" overflow="visible" visibility="visible" style="marker:none"/><path id="rect3077-5" fill="url(#linearGradient4123)" fill-opacity="1" fill-rule="nonzero" stroke="none" stroke-width="1" d="M 3 4 L 3 14 L 10 14 L 10 4 L 3 4 z" color="#bebebe" display="inline" enable-background="accumulate" overflow="visible" visibility="visible" style="marker:none"/><path id="rect4016" fill="url(#linearGradient4032)" fill-opacity="1" fill-rule="nonzero" stroke="none" stroke-width="1" d="m 5,1 0,1 1,0 5.5,0 1.5,0 0,10 -1,0 0,1 2,0 0,-12 z" color="#bebebe" display="inline" enable-background="accumulate" overflow="visible" visibility="visible" style="marker:none"/><path id="rect4016-3" fill="url(#linearGradient4052)" fill-opacity="1" fill-rule="nonzero" stroke="none" stroke-width="1" d="m 2,3 0,12 9,0 0,-12 z m 1,1 7,0 0,10 -7,0 z" color="#bebebe" display="inline" enable-background="accumulate" overflow="visible" visibility="visible" style="marker:none"/></svg>