<svg xmlns="http://www.w3.org/2000/svg" xmlns:xlink="http://www.w3.org/1999/xlink" id="svg2" width="24" height="24" version="1.1" viewBox="0 0 19.2 19.2"><defs id="defs11"><linearGradient id="linearGradient2840" x1="17.923" x2="18.191" y1="18.346" y2="7.589" gradientTransform="matrix(.74287 0 0 .74287 .75545 30.621)" gradientUnits="userSpaceOnUse"><stop id="stop3864" offset="0" stop-color="#606060"/><stop id="stop3866" offset="1" stop-color="#606060" stop-opacity="0"/></linearGradient></defs><g id="surface0" transform="translate(.32036 -29.018)"><path id="path5" fill="none" stroke="#606060" stroke-linecap="round" stroke-linejoin="round" stroke-miterlimit="10" stroke-width="1.6" d="m4.4796 33.018 2.4-2.4v10.034c0-1.4259 1.3741-2.8342 2.8-2.8342s2.8 1.4085 2.8 2.8344-1.3741 2.7656-2.8 2.7656-2.8-1.3397-2.8-2.7656"/><path id="path2819" fill="none" stroke="#606060" stroke-linecap="round" stroke-width="1.6" d="m13.082 44.573c-1.6385 1.4248-4.2061 1.6552-6.0718 0.54459s-2.8875-3.4776-2.4161-5.5972" opacity=".24"/><path id="path3802" fill="none" stroke="#606060" stroke-linecap="round" stroke-width="1.6" d="m9.2569 35.466c2.1645-0.17248 4.3667 1.1681 5.2074 3.17 0.84073 2.0019 0.256 4.5126-1.3825 5.9374" opacity=".42"/><path id="path3891" fill="none" stroke="url(#linearGradient2840)" stroke-linecap="round" stroke-width="1.6" d="m9.2569 35.466c2.1645-0.17248 4.3667 1.1681 5.2074 3.17 0.84073 2.0019 0.256 4.5126-1.3825 5.9374"/></g></svg>