<svg xmlns="http://www.w3.org/2000/svg" xmlns:svg="http://www.w3.org/2000/svg" xmlns:xlink="http://www.w3.org/1999/xlink" id="svg4117" width="128" height="128" version="1.1"><defs id="defs4119"><linearGradient id="linearGradient4019"><stop id="stop4021" offset="0" stop-color="#000" stop-opacity="1"/><stop id="stop4023" offset="1" stop-color="#000" stop-opacity="0"/></linearGradient><linearGradient id="linearGradient3924"><stop id="stop3926" offset="0" stop-color="#fff" stop-opacity="1"/><stop id="stop3928" offset=".063" stop-color="#fff" stop-opacity=".235"/><stop id="stop3930" offset=".951" stop-color="#fff" stop-opacity=".157"/><stop id="stop3932" offset="1" stop-color="#fff" stop-opacity=".392"/></linearGradient><radialGradient id="radialGradient2873-966-168" cx="4.993" cy="43.5" r="2.5" fx="4.993" fy="43.5" gradientTransform="matrix(2.003784,0,0,1.4,27.98813,-17.4)" gradientUnits="userSpaceOnUse" xlink:href="#linearGradient3688-166-749"/><linearGradient id="linearGradient3688-166-749"><stop id="stop2883" offset="0" stop-color="#181818" stop-opacity="1"/><stop id="stop2885" offset="1" stop-color="#181818" stop-opacity="0"/></linearGradient><radialGradient id="radialGradient2875-742-326" cx="4.993" cy="43.5" r="2.5" fx="4.993" fy="43.5" gradientTransform="matrix(2.003784,0,0,1.4,-20.01187,-104.4)" gradientUnits="userSpaceOnUse" xlink:href="#linearGradient3688-464-309"/><linearGradient id="linearGradient3688-464-309"><stop id="stop2889" offset="0" stop-color="#181818" stop-opacity="1"/><stop id="stop2891" offset="1" stop-color="#181818" stop-opacity="0"/></linearGradient><linearGradient id="linearGradient2877-634-617" x1="25.058" x2="25.058" y1="47.028" y2="39.999" gradientUnits="userSpaceOnUse" xlink:href="#linearGradient3702-501-757"/><linearGradient id="linearGradient3702-501-757"><stop id="stop2895" offset="0" stop-color="#181818" stop-opacity="0"/><stop id="stop2897" offset=".5" stop-color="#181818" stop-opacity="1"/><stop id="stop2899" offset="1" stop-color="#181818" stop-opacity="0"/></linearGradient><filter id="filter3831" color-interpolation-filters="sRGB"><feGaussianBlur id="feGaussianBlur3833" stdDeviation=".637"/></filter><clipPath id="clipPath3823"><path id="path3825" fill="#fff" fill-opacity="1" stroke="none" d="M 108.8125,58 C 107.25437,58 106,59.254375 106,60.8125 l 0,24.375 C 106,86.745625 107.25437,88 108.8125,88 l 24.375,0 C 134.74562,88 136,86.745625 136,85.1875 l 0,-24.375 C 136,59.254375 134.74562,58 133.1875,58 l -24.375,0 z m 7.1875,4.5 10,0 0,8.75 5,0 -10,13.75 -10,-13.75 5,0 0,-8.75 z"/></clipPath><linearGradient id="linearGradient3812" x1="65.263" x2="65.263" y1="64.205" y2="50.069" gradientTransform="matrix(0.625,0,0,0.625,78.5,32.25)" gradientUnits="userSpaceOnUse" xlink:href="#linearGradient5010"/><filter id="filter3806" color-interpolation-filters="sRGB"><feGaussianBlur id="feGaussianBlur3808" stdDeviation="1.2"/></filter><linearGradient id="linearGradient3788" x1="70" x2="70" y1="54" y2="75.095" gradientTransform="translate(0,4)" gradientUnits="userSpaceOnUse" xlink:href="#linearGradient3737"/><linearGradient id="linearGradient3773" x1="56" x2="88" y1="72" y2="72" gradientTransform="matrix(0.9375,0,0,0.9375,-140.5,3.5)" gradientUnits="userSpaceOnUse" xlink:href="#linearGradient3778"/><linearGradient id="linearGradient3832" x1="65.263" x2="65.263" y1="64.205" y2="50.069" gradientTransform="matrix(0.625,0,0,0.625,28.5,31.25)" gradientUnits="userSpaceOnUse" xlink:href="#linearGradient3737"/><filter id="filter3174" color-interpolation-filters="sRGB"><feGaussianBlur id="feGaussianBlur3176" stdDeviation="1.71"/></filter><linearGradient id="linearGradient3737"><stop id="stop3739" offset="0" stop-color="#fff" stop-opacity="1"/><stop id="stop3741" offset="1" stop-color="#fff" stop-opacity="0"/></linearGradient><linearGradient id="ButtonShadow" x1="45.448" x2="45.448" y1="92.54" y2="7.017" gradientTransform="scale(1.0058652,0.994169)" gradientUnits="userSpaceOnUse"><stop id="stop3750" offset="0" stop-color="#000" stop-opacity="1"/><stop id="stop3752" offset="1" stop-color="#000" stop-opacity=".588"/></linearGradient><linearGradient id="linearGradient5010"><stop id="stop5012" offset="0" stop-color="#000" stop-opacity="1"/><stop id="stop5014" offset="1" stop-color="#000" stop-opacity="0"/></linearGradient><linearGradient id="linearGradient3778"><stop id="stop3780" offset="0" stop-color="#499119" stop-opacity="1"/><stop id="stop3782" offset="1" stop-color="#8fd625" stop-opacity="1"/></linearGradient><linearGradient id="linearGradient3104"><stop id="stop3106" offset="0" stop-color="#c3c3c3" stop-opacity="1"/><stop id="stop3108" offset="1" stop-color="#dbdbdb" stop-opacity="1"/></linearGradient><linearGradient id="linearGradient3600"><stop id="stop3602" offset="0" stop-color="#f4f4f4" stop-opacity="1"/><stop id="stop3604" offset="1" stop-color="#eee" stop-opacity="1"/></linearGradient><linearGradient id="linearGradient3104-5"><stop id="stop3106-9" offset="0" stop-color="#aaa" stop-opacity="1"/><stop id="stop3108-8" offset="1" stop-color="#c8c8c8" stop-opacity="1"/></linearGradient><linearGradient id="linearGradient3084" x1="24" x2="24" y1="5" y2="43" gradientTransform="translate(2.4e-6,0.9674489)" gradientUnits="userSpaceOnUse" xlink:href="#linearGradient3924"/><radialGradient id="radialGradient3093" cx="7.496" cy="8.45" r="20" fx="7.496" fy="8.45" gradientTransform="matrix(0,1.9392804,-2.0515274,-5.2784231e-8,41.335037,-8.4862548)" gradientUnits="userSpaceOnUse" xlink:href="#linearGradient3600"/><linearGradient id="linearGradient3095" x1="24" x2="24" y1="44" y2="3.899" gradientTransform="translate(-6e-7,0.9674389)" gradientUnits="userSpaceOnUse" xlink:href="#linearGradient3104"/><linearGradient id="linearGradient3098" x1="20" x2="20" y1="43" y2="3" gradientUnits="userSpaceOnUse" xlink:href="#linearGradient3104-5"/><linearGradient id="linearGradient4037" x1="25.811" x2="25.811" y1="11.244" y2="20.313" gradientUnits="userSpaceOnUse" xlink:href="#linearGradient4019"/><linearGradient id="linearGradient4041" x1="15.666" x2="15.666" y1="19.528" y2="31.617" gradientUnits="userSpaceOnUse" xlink:href="#linearGradient4019"/><linearGradient id="linearGradient4044" x1="25.065" x2="25.065" y1="30.795" y2="39.562" gradientUnits="userSpaceOnUse" xlink:href="#linearGradient4019"/><radialGradient id="radialGradient3863" cx="4.993" cy="43.5" r="2.5" fx="4.993" fy="43.5" gradientTransform="matrix(2.003784,0,0,1.4,27.98813,-17.4)" gradientUnits="userSpaceOnUse" xlink:href="#linearGradient3688-166-749"/><radialGradient id="radialGradient3865" cx="4.993" cy="43.5" r="2.5" fx="4.993" fy="43.5" gradientTransform="matrix(2.003784,0,0,1.4,-20.01187,-104.4)" gradientUnits="userSpaceOnUse" xlink:href="#linearGradient3688-464-309"/><linearGradient id="linearGradient3867" x1="25.058" x2="25.058" y1="47.028" y2="39.999" gradientUnits="userSpaceOnUse" xlink:href="#linearGradient3702-501-757"/><linearGradient id="linearGradient3869" x1="20" x2="20" y1="43" y2="3" gradientUnits="userSpaceOnUse" xlink:href="#linearGradient3104-5"/><radialGradient id="radialGradient3871" cx="7.496" cy="8.45" r="20" fx="7.496" fy="8.45" gradientTransform="matrix(0,1.9392804,-2.0515274,-5.2784231e-8,41.335037,-8.4862548)" gradientUnits="userSpaceOnUse" xlink:href="#linearGradient3600"/><linearGradient id="linearGradient3873" x1="24" x2="24" y1="44" y2="3.899" gradientTransform="translate(-6e-7,0.9674389)" gradientUnits="userSpaceOnUse" xlink:href="#linearGradient3104"/><linearGradient id="linearGradient3875" x1="24" x2="24" y1="5" y2="43" gradientTransform="translate(2.4e-6,0.9674489)" gradientUnits="userSpaceOnUse" xlink:href="#linearGradient3924"/><linearGradient id="linearGradient3877" x1="25.811" x2="25.811" y1="11.244" y2="20.313" gradientUnits="userSpaceOnUse" xlink:href="#linearGradient4019"/><linearGradient id="linearGradient3879" x1="15.666" x2="15.666" y1="19.528" y2="31.617" gradientUnits="userSpaceOnUse" xlink:href="#linearGradient4019"/><linearGradient id="linearGradient3881" x1="25.065" x2="25.065" y1="30.795" y2="39.562" gradientUnits="userSpaceOnUse" xlink:href="#linearGradient4019"/><linearGradient id="linearGradient3085" x1="25.065" x2="25.065" y1="30.795" y2="39.562" gradientTransform="scale(2.6666667,2.6666667)" gradientUnits="userSpaceOnUse" xlink:href="#linearGradient4019"/><linearGradient id="linearGradient3088" x1="15.666" x2="15.666" y1="19.528" y2="31.617" gradientTransform="scale(2.6666667,2.6666667)" gradientUnits="userSpaceOnUse" xlink:href="#linearGradient4019"/><linearGradient id="linearGradient3091" x1="25.811" x2="25.811" y1="11.244" y2="20.313" gradientTransform="scale(2.6666667,2.6666667)" gradientUnits="userSpaceOnUse" xlink:href="#linearGradient4019"/><linearGradient id="linearGradient3102" x1="24" x2="24" y1="5" y2="43" gradientTransform="matrix(2.6666667,0,0,2.6666667,6.4000001e-6,2.5798638)" gradientUnits="userSpaceOnUse" xlink:href="#linearGradient3924"/><radialGradient id="radialGradient3105" cx="7.496" cy="8.45" r="20" fx="7.496" fy="8.45" gradientTransform="matrix(0,5.1714145,-5.4707398,-1.4075795e-7,110.22677,-22.630013)" gradientUnits="userSpaceOnUse" xlink:href="#linearGradient3600"/><linearGradient id="linearGradient3107" x1="24" x2="24" y1="44" y2="3.899" gradientTransform="matrix(2.6666667,0,0,2.6666667,-1.6e-6,2.5798371)" gradientUnits="userSpaceOnUse" xlink:href="#linearGradient3104"/><linearGradient id="linearGradient3110" x1="20" x2="20" y1="43" y2="3" gradientTransform="scale(2.6666667,2.6666667)" gradientUnits="userSpaceOnUse" xlink:href="#linearGradient3104-5"/></defs><metadata id="metadata4122"/><g id="layer2" display="none" transform="translate(-135.85714,48.94959)"><path id="rect3745" fill="url(#ButtonShadow)" fill-opacity="1" fill-rule="nonzero" stroke="none" d="M 11,7 48,5 85,7 c 3.324,0 6,2.676 6,6 l 0,73 c 0,3.324 -2.676,6 -6,6 L 11,92 C 7.676,92 5,89.324 5,86 L 5,13 C 5,9.676 7.676,7 11,7 z" filter="url(#filter3174)" opacity=".9"/></g><g id="layer4" display="none" transform="translate(-135.85714,48.94959)"><rect id="rect3790" width="30" height="30" x="-86" y="56" fill="#000" fill-opacity="1" stroke="none" filter="url(#filter3806)" opacity=".6" rx="2.813" ry="2.813" transform="matrix(0,-1,1,0,0,4)"/><rect id="rect2993" width="30" height="30" x="-88" y="56" fill="url(#linearGradient3773)" fill-opacity="1" stroke="none" rx="2.813" ry="2.813" transform="matrix(0,-1,1,0,0,0)"/><path id="rect3775" fill="url(#linearGradient3788)" fill-opacity="1" stroke="none" d="M 58.8125,58 C 57.254375,58 56,59.254375 56,60.8125 l 0,24.375 c 0,0.873066 0.410816,1.641163 1.03125,2.15625 C 57.02841,87.289908 57,87.242129 57,87.1875 l 0,-24.375 C 57,61.254375 58.17075,60 59.625,60 l 22.75,0 C 83.82925,60 85,61.254375 85,62.8125 l 0,24.375 c 0,0.05463 -0.02841,0.102408 -0.03125,0.15625 C 85.589184,86.828663 86,86.060566 86,85.1875 l 0,-24.375 C 86,59.254375 84.745625,58 83.1875,58 l -24.375,0 z" opacity=".5"/><path id="path3810" fill="url(#linearGradient3812)" fill-opacity="1" fill-rule="nonzero" stroke="none" d="m 116,63.5 0,8.75 -5,0 10,13.75 10,-13.75 -5,0 0,-8.75 -10,0 z" clip-path="url(#clipPath3823)" display="inline" filter="url(#filter3831)" opacity=".6" transform="translate(-50,0)"/><path id="path4278" fill="url(#linearGradient3832)" fill-opacity="1" fill-rule="nonzero" stroke="none" d="m 66,62.5 0,8.75 -5,0 10,13.75 10,-13.75 -5,0 0,-8.75 -10,0 z" display="inline"/></g><rect id="rect3071" width="128" height="128" x="0" y="0" fill="none" stroke="none" rx="7.126" ry="7.09"/><g id="g2036" display="inline" transform="matrix(2.9333334,0,0,1.1851864,-6.4000059,66.962854)"><g id="g3712" opacity=".4" transform="matrix(1.052632,0,0,1.285713,-1.263158,-13.42854)"><rect id="rect2801" width="5" height="7" x="38" y="40" fill="url(#radialGradient3863)" fill-opacity="1" stroke="none"/><rect id="rect3696" width="5" height="7" x="-10" y="-47" fill="url(#radialGradient3865)" fill-opacity="1" stroke="none" transform="scale(-1,-1)"/><rect id="rect3700" width="28" height="7" x="10" y="40" fill="url(#linearGradient3867)" fill-opacity="1" stroke="none"/></g></g><path id="path4564-0" fill="url(#linearGradient3110)" fill-opacity="1" fill-rule="nonzero" stroke="none" stroke-width="1" d="m 61.250001,21.833334 a 7.8291278,7.8291278 0 0 0 -3.75,1.083333 l -29.416667,17 a 7.8291278,7.8291278 0 0 0 -3.75,5.416667 7.8291278,7.8291278 0 0 0 -0.08333,0 7.8291278,7.8291278 0 0 0 -2.583333,5.833333 L 21.5,85.083334 a 7.8291278,7.8291278 0 0 0 2.666667,5.833334 7.8291278,7.8291278 0 0 0 0,0.08333 A 7.8291278,7.8291278 0 0 0 28,96.583335 L 57.333334,113.41667 A 7.8291278,7.8291278 0 0 0 63.750001,114 a 7.8291278,7.8291278 0 0 0 0.08333,0 7.8291278,7.8291278 0 0 0 6.666667,-0.5 L 99.833335,96.583335 a 7.8291278,7.8291278 0 0 0 3.749995,-5.333334 7.8291278,7.8291278 0 0 0 2.91667,-6 l 0,-33.916667 A 7.8291278,7.8291278 0 0 0 103.83333,45.500001 7.8291278,7.8291278 0 0 0 100,39.916667 L 70.583334,23 a 7.8291278,7.8291278 0 0 0 -6.416667,-0.666666 7.8291278,7.8291278 0 0 0 -2.916666,-0.5 z" color="#000" display="inline" enable-background="accumulate" opacity=".05" overflow="visible" visibility="visible" style="marker:none"/><rect stroke-linejoin="round" style="marker:none" id="rect5505-21" width="104" height="104" x="12" y="14.58" fill="url(#radialGradient3105)" fill-opacity="1" fill-rule="nonzero" stroke="url(#linearGradient3107)" stroke-dasharray="none" stroke-dashoffset="0" stroke-linecap="round" stroke-miterlimit="4" stroke-opacity="1" stroke-width="2.667" color="#000" display="inline" enable-background="accumulate" overflow="visible" rx="5.333" ry="5.333" visibility="visible"/><rect id="rect6741-2" width="98.667" height="98.667" x="14.667" y="17.247" fill="none" stroke="url(#linearGradient3102)" stroke-dasharray="none" stroke-dashoffset="0" stroke-linecap="round" stroke-linejoin="round" stroke-miterlimit="4" stroke-opacity="1" stroke-width="2.667" rx="2.667" ry="2.667"/><path id="path3974-3" fill="#fff" fill-opacity="1" stroke="none" d="m 32.007942,49.321963 13.594869,7.547006 15.730523,-8.869315 0.07192,-15.650235 z m -2.643984,38.455955 13.133435,-8 0.199893,-17.63472 -13.212064,-8.310365 -0.12128,33.94508 z m 31.920597,21.545242 0.04877,-15.990172 -15.8158,-8.701976 -13.565409,7.831992 z M 95.94442,92.467454 82.34955,84.920452 66.666668,93.332988 66.547121,109.44 z m 2.722248,-38.487403 -13.102808,8 -0.199894,17.634721 13.302702,8.31036 z M 66.681412,32.379798 66.666745,47.927654 82.21515,56.744163 96.078799,49.352339 z m -18.657587,47.725011 5e-6,-18.475211 15.999997,-9.237605 16.000003,9.237605 -5e-6,18.475208 -16,9.237603 -16,-9.2376 z" opacity=".8"/><path id="path3942" fill="#f8c300" fill-opacity="1" fill-rule="nonzero" stroke="none" stroke-width="1" d="m 48.023825,77.438489 5e-6,-18.475211 15.999997,-9.237605 16.000003,9.237605 -5e-6,18.475208 -16,9.237603 -16,-9.2376 z" color="#000" display="inline" enable-background="accumulate" overflow="visible" visibility="visible" style="marker:none"/><path id="path3944" fill="#8fb635" fill-opacity="1" stroke="none" d="m 66.681412,29.713478 -0.01474,15.547856 15.548405,8.816509 13.863648,-7.391824 z"/><path id="path3966" fill="#d18c3b" fill-opacity="1" stroke="none" d="m 98.666668,51.313731 -13.102808,8 -0.199894,17.634721 13.302702,8.31036 z"/><path id="path3968" fill="#a02c35" fill-opacity="1" stroke="none" d="M 95.94442,89.801134 82.34955,82.254132 66.666668,90.666668 66.547121,106.77368 z"/><path id="path3970" fill="#bb3a84" fill-opacity="1" stroke="none" d="m 61.284555,106.65684 0.04878,-15.990172 -15.8158,-8.701976 -13.565408,7.831992 z"/><path id="path3972" fill="#3941bf" fill-opacity="1" stroke="none" d="m 29.363958,85.111598 13.133435,-8 0.199893,-17.63472 -13.212064,-8.310365 -0.12128,33.94508 z"/><path id="path3974" fill="#3895bd" fill-opacity="1" stroke="none" d="m 32.007942,46.655643 13.594869,7.547006 15.730523,-8.869315 0.07192,-15.650235 z"/><path id="path3974-7-6" fill="none" stroke="url(#linearGradient3091)" stroke-opacity="1" stroke-width="2.667" d="m 68.028188,31.842187 0.24864,12.651008 14.083056,8.270376 10.94525,-6.236197 z m -33.326185,14.723654 11.080414,6.110173 14.203885,-8.061096 0.07192,-12.596966 z" opacity=".1"/><path id="path3974-7-6-3" fill="none" stroke="url(#linearGradient3088)" stroke-opacity="1" stroke-width="2.667" d="M 30.789968,82.78899 41.621739,76.248156 41.742566,59.916683 30.869235,53.555915 z M 97.442337,53.341683 86.610566,59.882518 86.48974,76.21399 97.363071,82.574758 z m -48.109003,23.324987 5e-6,-17.333336 14.666662,-8.666667 14.666667,8.666667 -6e-6,17.333336 -14.666664,8.666664 -14.666664,-8.666664 z" opacity=".1"/><path id="path3974-7-6-38" fill="none" stroke="url(#linearGradient3085)" stroke-opacity="1" stroke-width="2.667" d="M 93.530303,89.564833 82.449889,83.45466 68.246004,91.515756 68.174084,104.11272 z M 60.204118,104.28849 59.955478,91.637478 45.872422,83.367102 34.927171,89.6033 z" opacity=".1"/></svg>