<svg xmlns="http://www.w3.org/2000/svg" xmlns:svg="http://www.w3.org/2000/svg" xmlns:xlink="http://www.w3.org/1999/xlink" id="svg4207" width="128" height="128" version="1.1"><defs id="defs4209"><linearGradient id="linearGradient3212-5" x1="19.875" x2="19.875" y1="44.52" y2="5.25" gradientTransform="matrix(2.6410259,0,0,2.6410259,0.6153933,-63.025638)" gradientUnits="userSpaceOnUse" xlink:href="#linearGradient3707-319-631-407-1-846-4-2"/><linearGradient id="linearGradient3707-319-631-407-1-846-4-2"><stop id="stop3788-5-54" offset="0" stop-color="#365a7c" stop-opacity="1"/><stop id="stop3790-9-7" offset="1" stop-color="#5ea1ca" stop-opacity="1"/></linearGradient><linearGradient id="linearGradient3215-4" x1="19.875" x2="19.875" y1="44.52" y2="5.25" gradientTransform="matrix(2.6410259,0,0,2.6410259,0.6153933,-63.025638)" gradientUnits="userSpaceOnUse" xlink:href="#linearGradient3707-319-631-407-1-846-4-8-4"/><linearGradient id="linearGradient3707-319-631-407-1-846-4-8-4"><stop id="stop3788-5-5-3" offset="0" stop-color="#365a7c" stop-opacity="1"/><stop id="stop3790-9-0-0" offset="1" stop-color="#5ea1ca" stop-opacity="1"/></linearGradient><linearGradient id="linearGradient3221" x1="16.626" x2="20.055" y1="15.298" y2="24.628" gradientTransform="matrix(2.2144204,0,0,3.4699564,10.750311,-67.821123)" gradientUnits="userSpaceOnUse" xlink:href="#linearGradient8265-821-176-38-919-66-249-7-7"/><linearGradient id="linearGradient8265-821-176-38-919-66-249-7-7"><stop id="stop2687-1-9" offset="0" stop-color="#fff" stop-opacity="1"/><stop id="stop2689-5-4" offset="1" stop-color="#fff" stop-opacity="0"/></linearGradient><linearGradient id="linearGradient3224" x1="24" x2="24" y1="5" y2="43" gradientTransform="matrix(2.7297298,0,0,2.7297298,-1.5135112,-62.513486)" gradientUnits="userSpaceOnUse" xlink:href="#linearGradient3924"/><linearGradient id="linearGradient3924"><stop id="stop3926" offset="0" stop-color="#fff" stop-opacity="1"/><stop id="stop3928" offset=".063" stop-color="#fff" stop-opacity=".235"/><stop id="stop3930" offset=".951" stop-color="#fff" stop-opacity=".157"/><stop id="stop3932" offset="1" stop-color="#fff" stop-opacity=".392"/></linearGradient><linearGradient id="linearGradient3353" x1="19.875" x2="19.875" y1="44.52" y2="5.25" gradientTransform="matrix(2.6410259,0,0,2.6410259,0.6153933,-63.025638)" gradientUnits="userSpaceOnUse" xlink:href="#linearGradient3707-319-631-407-1-846-4-8-4-9"/><linearGradient id="linearGradient3707-319-631-407-1-846-4-8-4-9"><stop id="stop3788-5-5-3-5" offset="0" stop-color="#365a7c" stop-opacity="1"/><stop id="stop3790-9-0-0-0" offset="1" stop-color="#5ea1ca" stop-opacity="1"/></linearGradient><radialGradient id="radialGradient3227" cx="7.496" cy="8.45" r="20" fx="7.496" fy="8.45" gradientTransform="matrix(5.1311087e-8,6.1720513,-6.5292943,-1.1371274e-7,119.17132,-93.225249)" gradientUnits="userSpaceOnUse" xlink:href="#linearGradient2867-449-88-871-390-598-476-591-434-148-57-177"/><linearGradient id="linearGradient2867-449-88-871-390-598-476-591-434-148-57-177"><stop id="stop3750" offset="0" stop-color="#90dbec" stop-opacity="1"/><stop id="stop3752" offset=".262" stop-color="#55c1ec" stop-opacity="1"/><stop id="stop3754" offset=".705" stop-color="#3689e6" stop-opacity="1"/><stop id="stop3756" offset="1" stop-color="#2b63a0" stop-opacity="1"/></linearGradient><linearGradient id="linearGradient3229" x1="24" x2="24" y1="44" y2="3.899" gradientTransform="matrix(2.641026,0,0,2.641026,0.6153902,-60.384616)" gradientUnits="userSpaceOnUse" xlink:href="#linearGradient3707-319-631-407-324"/><linearGradient id="linearGradient3707-319-631-407-324"><stop id="stop3760" offset="0" stop-color="#185f9a" stop-opacity="1"/><stop id="stop3762" offset="1" stop-color="#599ec9" stop-opacity="1"/></linearGradient><radialGradient id="radialGradient3190" cx="4.993" cy="43.5" r="2.5" fx="4.993" fy="43.5" gradientTransform="matrix(2.003784,0,0,1.4,27.98813,-17.4)" gradientUnits="userSpaceOnUse" xlink:href="#linearGradient3688-166-749"/><linearGradient id="linearGradient3688-166-749"><stop id="stop2883" offset="0" stop-color="#181818" stop-opacity="1"/><stop id="stop2885" offset="1" stop-color="#181818" stop-opacity="0"/></linearGradient><radialGradient id="radialGradient3192" cx="4.993" cy="43.5" r="2.5" fx="4.993" fy="43.5" gradientTransform="matrix(2.003784,0,0,1.4,-20.01187,-104.4)" gradientUnits="userSpaceOnUse" xlink:href="#linearGradient3688-464-309"/><linearGradient id="linearGradient3688-464-309"><stop id="stop2889" offset="0" stop-color="#181818" stop-opacity="1"/><stop id="stop2891" offset="1" stop-color="#181818" stop-opacity="0"/></linearGradient><linearGradient id="linearGradient3194" x1="25.058" x2="25.058" y1="47.028" y2="39.999" gradientUnits="userSpaceOnUse" xlink:href="#linearGradient3702-501-757"/><linearGradient id="linearGradient3702-501-757"><stop id="stop2895" offset="0" stop-color="#181818" stop-opacity="0"/><stop id="stop2897" offset=".5" stop-color="#181818" stop-opacity="1"/><stop id="stop2899" offset="1" stop-color="#181818" stop-opacity="0"/></linearGradient></defs><metadata id="metadata4212"/><g id="layer1" transform="translate(0,64)"><g id="g2036" display="inline" transform="matrix(2.9499988,0,0,1.2222234,-6.8000012,1.555537)"><g id="g3712" opacity=".4" transform="matrix(1.052632,0,0,1.285713,-1.263158,-13.42854)"><rect id="rect2801" width="5" height="7" x="38" y="40" fill="url(#radialGradient3190)" fill-opacity="1" stroke="none"/><rect id="rect3696" width="5" height="7" x="-10" y="-47" fill="url(#radialGradient3192)" fill-opacity="1" stroke="none" transform="scale(-1,-1)"/><rect id="rect3700" width="28" height="7" x="10" y="40" fill="url(#linearGradient3194)" fill-opacity="1" stroke="none"/></g></g><rect stroke-linejoin="round" style="marker:none" id="rect5505-21" width="103" height="103" x="12.5" y="-48.5" fill="url(#radialGradient3227)" fill-opacity="1" fill-rule="nonzero" stroke="url(#linearGradient3229)" stroke-dasharray="none" stroke-dashoffset="0" stroke-linecap="round" stroke-miterlimit="4" stroke-opacity="1" stroke-width="1" color="#000" display="inline" enable-background="accumulate" overflow="visible" rx="6" ry="6" visibility="visible"/><path id="path3107-6-4" fill="url(#linearGradient3353)" fill-opacity="1" fill-rule="nonzero" stroke="none" stroke-width="1" d="M 50.6875,38.03125 A 2.9776489,2.9776489 0 0 0 48.03125,41 l 0,20.03125 -10.03125,0 a 2.9776489,2.9776489 0 0 0 -2.25,4.90625 l 26,30 a 2.9776489,2.9776489 0 0 0 4.5,0 l 26,-30 A 2.9776489,2.9776489 0 0 0 90,61.03125 l -10.03125,0 0,-20.03125 A 2.9776489,2.9776489 0 0 0 77,38.03125 l -26,0 a 2.9776489,2.9776489 0 0 0 -0.3125,0 z" color="#000" display="inline" enable-background="accumulate" opacity=".05" overflow="visible" transform="translate(-9.9997601e-8,-64)" visibility="visible" style="marker:none"/><rect id="rect6741-7" width="101" height="101" x="13.5" y="-47.5" fill="none" stroke="url(#linearGradient3224)" stroke-dasharray="none" stroke-dashoffset="0" stroke-linecap="round" stroke-linejoin="round" stroke-miterlimit="4" stroke-opacity="1" stroke-width="1" opacity=".5" rx="5" ry="5"/><path id="path3107-6" fill="url(#linearGradient3215-4)" fill-opacity="1" fill-rule="nonzero" stroke="none" stroke-width="1" d="M 51,38.96875 A 2.0237426,2.0237426 0 0 0 48.96875,41 l 0,20.96875 -10.96875,0 a 2.0237426,2.0237426 0 0 0 -1.53125,3.34375 l 26,30 a 2.0237426,2.0237426 0 0 0 3.0625,0 l 26,-30 A 2.0237426,2.0237426 0 0 0 90,61.96875 l -10.96875,0 0,-20.96875 A 2.0237426,2.0237426 0 0 0 77,38.96875 l -26,0 z" color="#000" display="inline" enable-background="accumulate" opacity=".1" overflow="visible" transform="translate(-9.9997601e-8,-64)" visibility="visible" style="marker:none"/><path id="path3107" fill="url(#linearGradient3212-5)" fill-opacity="1" fill-rule="nonzero" stroke="none" stroke-width="1" d="M 50.90625,40 A 1.000224,1.000224 0 0 0 50,41 l 0,22 -12,0 a 1.000224,1.000224 0 0 0 -0.75,1.65625 l 26,30 a 1.000224,1.000224 0 0 0 1.5,0 l 26,-30 A 1.000224,1.000224 0 0 0 90,63 l -12,0 0,-22 a 1.000224,1.000224 0 0 0 -1,-1 l -26,0 a 1.000224,1.000224 0 0 0 -0.09375,0 z" color="#000" display="inline" enable-background="accumulate" opacity=".25" overflow="visible" transform="translate(-9.9997601e-8,-64)" visibility="visible" style="marker:none"/><path id="path3288-2" fill="#f7f7f7" fill-opacity="1" fill-rule="nonzero" stroke="#fff" stroke-dasharray="none" stroke-dashoffset="0" stroke-linecap="butt" stroke-linejoin="miter" stroke-miterlimit="4" stroke-opacity="1" stroke-width=".985" d="m 88.5,0.499998 -24.5,29 -24.5,-29 12,0 0,-23 25,0 0,23 12,0 z" color="#000" display="inline" enable-background="accumulate" overflow="visible" visibility="visible" style="marker:none"/></g></svg>