<svg xmlns="http://www.w3.org/2000/svg" xmlns:xlink="http://www.w3.org/1999/xlink" id="svg3572" width="48" height="48" version="1.0"><defs id="defs3574"><linearGradient id="linearGradient3555" x1="46" x2="18.031" y1="51.791" y2="1.105" gradientUnits="userSpaceOnUse" xlink:href="#SVGID_1_"/><linearGradient id="SVGID_1_" x1="41.83" x2="6.17" y1="48.541" y2="-.54" gradientUnits="userSpaceOnUse"><stop id="stop248" offset="0" stop-color="#9b9b9b"/><stop id="stop250" offset="1" stop-color="#ececec"/></linearGradient><linearGradient id="linearGradient3543" x1="21.951" x2="14.241" y1="51.673" y2="34.986" gradientUnits="userSpaceOnUse" xlink:href="#SVGID_1_"/><linearGradient id="linearGradient3516" x1="43" x2="10.194" y1="33.34" y2="-6.058" gradientUnits="userSpaceOnUse" xlink:href="#linearGradient3510"/><linearGradient id="linearGradient3553" x1="2" x2="30.892" y1="2" y2="31.367" gradientTransform="matrix(.97727 0 0 .96970 .54545 .56060)" gradientUnits="userSpaceOnUse" xlink:href="#linearGradient3510"/><linearGradient id="linearGradient3510"><stop id="stop3512" offset="0" stop-color="#fff"/><stop id="stop3514" offset="1" stop-color="#fff" stop-opacity="0"/></linearGradient><linearGradient id="linearGradient3570" x1="11" x2="12.285" y1="38" y2="46" gradientUnits="userSpaceOnUse" xlink:href="#linearGradient3510"/></defs><g id="layer1"><path id="rect2704" fill="#000" fill-rule="nonzero" marker-end="none" marker-mid="none" marker-start="none" d="m4 0c-2.216-7.4015e-17 -4 1.784-4 4v29c2.4869e-14 2.216 1.784 4 4 4h11.5c-0.61 0.531-1.068 1.227-1.281 2.031h-1.219c-2.165 0-3.9688 1.804-3.9688 3.969v1c0 2.165 1.8038 3.969 3.9688 3.969h5 12 5c2.165 0 3.969-1.804 3.969-3.969v-1c0-2.165-1.804-3.969-3.969-3.969h-1.219c-0.213-0.804-0.671-1.5-1.281-2.031h11.5c2.216 0 4-1.784 4-4v-29c0-2.216-1.784-4-4-4h-40zm0 2h40c1.108 0 2 0.892 2 2v29c0 1.108-0.892 2-2 2h-40c-1.108 0-2-0.892-2-2v-29c0-1.108 0.892-2 2-2z" enable-background="accumulate" opacity=".3"/><path id="path3541" fill="url(#linearGradient3555)" fill-rule="nonzero" marker-end="none" marker-mid="none" marker-start="none" d="m4 2c-1.108 0-2 0.892-2 2v29c0 1.108 0.892 2 2 2h40c1.108 0 2-0.892 2-2v-29c0-1.108-0.892-2-2-2h-40zm3 4h34c0.554 0 1 0.446 1 1v23c0 0.554-0.446 1-1 1h-34c-0.554 0-1-0.446-1-1v-23c0-0.554 0.446-1 1-1z" enable-background="accumulate"/><path id="rect3478" fill="url(#linearGradient3543)" fill-rule="nonzero" marker-end="none" marker-mid="none" marker-start="none" d="m18 38c-1.108 0-2 0.892-2 2v1h-3c-1.108 0-2 0.892-2 2v1c0 1.108 0.892 2 2 2h5 12 5c1.108 0 2-0.892 2-2v-1c0-1.108-0.892-2-2-2h-3v-1c0-1.108-0.892-2-2-2h-12z" enable-background="accumulate"/><rect id="rect3508" width="37" height="26" x="5.5" y="5.5" fill="none" stroke="url(#linearGradient3516)" stroke-dasharray="none" stroke-dashoffset="0" stroke-linecap="butt" stroke-linejoin="miter" stroke-miterlimit="4" stroke-width="1" marker-end="none" marker-mid="none" marker-start="none" enable-background="accumulate" opacity=".4" rx="1.447" ry="1.447"/><rect id="rect3545" width="43" height="32" x="2.5" y="2.5" fill="none" stroke="url(#linearGradient3553)" stroke-dasharray="none" stroke-dashoffset="0" stroke-linecap="butt" stroke-linejoin="miter" stroke-miterlimit="4" stroke-width="1" marker-end="none" marker-mid="none" marker-start="none" enable-background="accumulate" opacity=".4" rx="1.523" ry="1.523"/><path id="path3568" fill="none" stroke="url(#linearGradient3570)" stroke-dasharray="none" stroke-dashoffset="0" stroke-linecap="butt" stroke-linejoin="miter" stroke-miterlimit="4" stroke-width="1" marker-end="none" marker-mid="none" marker-start="none" d="m18 38.5c-0.834 0-1.5 0.666-1.5 1.5v1c-0.006 0.274-0.226 0.494-0.5 0.5h-3c-0.834 0-1.5 0.666-1.5 1.5v1c0 0.834 0.666 1.5 1.5 1.5h5 12 5c0.834 0 1.5-0.666 1.5-1.5v-1c0-0.834-0.666-1.5-1.5-1.5h-3c-0.274-0.006-0.494-0.226-0.5-0.5v-1c0-0.834-0.666-1.5-1.5-1.5h-12z" enable-background="accumulate" opacity=".4"/><rect id="rect3599" width="35" height="24" x="6.5" y="6.5" fill="none" stroke="#000" stroke-dasharray="none" stroke-dashoffset="0" stroke-linecap="butt" stroke-linejoin="miter" stroke-miterlimit="4" stroke-width="1" marker-end="none" marker-mid="none" marker-start="none" enable-background="accumulate" opacity=".3" rx=".508" ry=".508"/></g></svg>