<svg xmlns="http://www.w3.org/2000/svg" xmlns:xlink="http://www.w3.org/1999/xlink" id="svg2" width="48" height="48" x="0" y="0" enable-background="new 0 0 48 48" version="1.1" viewBox="0 0 48 48" xml:space="preserve"><metadata id="metadata327"/><defs id="defs325"><linearGradient id="linearGradient2743" x1="24.002" x2="24.002" y1="35.918" y2="12.084" gradientUnits="userSpaceOnUse"><stop id="stop265" offset="0" stop-color="#1F1F1F"/><stop id="stop267" offset="1" stop-color="#000"/></linearGradient><linearGradient id="linearGradient2752" x1="9.001" x2="9.001" y1=".86" y2="16.859" gradientUnits="userSpaceOnUse"><stop id="stop312" offset="0" stop-color="#FF6363"/><stop id="stop314" offset="1" stop-color="#c00"/></linearGradient><linearGradient id="linearGradient2788" x1="31.916" x2="31.916" y1="33.673" y2="30.661" gradientUnits="userSpaceOnUse"><stop id="stop303" offset=".472" stop-color="#fff"/><stop id="stop305" offset="1" stop-color="#737373"/></linearGradient><linearGradient id="linearGradient2791" x1="16.032" x2="16.032" y1="33.567" y2="30.769" gradientUnits="userSpaceOnUse"><stop id="stop297" offset=".472" stop-color="#fff"/><stop id="stop299" offset="1" stop-color="#737373"/></linearGradient><linearGradient id="linearGradient2794" x1="19.208" x2="19.208" y1="33.567" y2="30.769" gradientUnits="userSpaceOnUse"><stop id="stop291" offset=".472" stop-color="#fff"/><stop id="stop293" offset="1" stop-color="#737373"/></linearGradient><linearGradient id="linearGradient2797" x1="25.56" x2="25.56" y1="33.673" y2="30.661" gradientUnits="userSpaceOnUse"><stop id="stop285" offset=".472" stop-color="#fff"/><stop id="stop287" offset="1" stop-color="#737373"/></linearGradient><linearGradient id="linearGradient2800" x1="28.738" x2="28.738" y1="33.673" y2="30.661" gradientUnits="userSpaceOnUse"><stop id="stop279" offset=".472" stop-color="#fff"/><stop id="stop281" offset="1" stop-color="#737373"/></linearGradient><linearGradient id="linearGradient2803" x1="22.385" x2="22.385" y1="33.567" y2="30.769" gradientUnits="userSpaceOnUse"><stop id="stop273" offset=".472" stop-color="#fff"/><stop id="stop275" offset="1" stop-color="#737373"/></linearGradient><linearGradient id="linearGradient2813" x1="41.832" x2="6.173" y1="48.541" y2="-.54" gradientUnits="userSpaceOnUse"><stop id="stop248" offset="0" stop-color="#9B9B9B"/><stop id="stop250" offset="1" stop-color="#ECECEC"/></linearGradient></defs><g id="g240" opacity=".3"><path id="path242" d="m45.003 0h-42c-1.655 0-3 1.345-3 3v42c0 1.655 1.345 3 3 3h42c1.652 0 2.997-1.345 2.997-3v-42c0-1.654-1.345-3-2.997-3zm0.999 45.001c0 0.553-0.447 1-1 1h-42c-0.552 0-1-0.447-1-1v-42.001c0-0.552 0.448-1 1-1h42c0.553 0 1 0.448 1 1v42.001z"/></g><path id="path252" fill="url(#linearGradient2813)" d="m46.002 45.001c0 0.553-0.447 1-1 1h-42c-0.552 0-1-0.447-1-1v-42.001c0-0.552 0.448-1 1-1h42c0.553 0 1 0.448 1 1v42.001z" opacity=".3"/><g id="g257" opacity=".4"><path id="path259" fill="#fff" d="m45.002 2h-42c-0.552 0-1 0.448-1 1v42.001c0 0.553 0.448 1 1 1h42c0.553 0 1-0.447 1-1v-42.001c0-0.552-0.447-1-1-1zm0 43.002h-42l0.001-42.002h41.999v42.002z"/></g><path id="path3499_3_" fill="#fff" d="m21.03 13.083v1.986h-5.958v3.973h-3.974v17.876h27.808v-17.876h-3.971v-3.973h-5.961v-1.986h-7.944z" nodetypes="ccccccccccccc" opacity=".4"/><path id="path3499_2_" fill="url(#linearGradient2743)" d="m20.03 12.083v1.986h-5.958v3.973h-3.974v17.876h27.808v-17.876h-3.971v-3.973h-5.961v-1.986h-7.944z" nodetypes="ccccccccccccc"/><rect id="rect3503_4_" width="1.541" height="2.799" x="21.615" y="30.769" fill="url(#linearGradient2803)"/><rect id="rect3505_2_" width="1.657" height="3.012" x="27.91" y="30.661" fill="url(#linearGradient2800)"/><rect id="rect3507_2_" width="1.655" height="3.012" x="24.733" y="30.661" fill="url(#linearGradient2797)"/><rect id="rect3509_2_" width="1.54" height="2.799" x="18.438" y="30.769" fill="url(#linearGradient2794)"/><rect id="rect3503_1_" width="1.541" height="2.799" x="15.261" y="30.769" fill="url(#linearGradient2791)"/><rect id="rect3512_2_" width="1.654" height="3.012" x="31.089" y="30.661" fill="url(#linearGradient2788)"/><path id="path309" d="m13.932 18.002c-0.372 0-0.722-0.144-0.979-0.405l-3.244-3.242c-0.195-0.195-0.45-0.292-0.707-0.292-0.255 0-0.512 0.097-0.707 0.292l-3.242 3.24c-0.253 0.255-0.621 0.407-0.985 0.407s-0.711-0.142-0.978-0.399l-2.681-2.685c-0.259-0.252-0.409-0.616-0.409-0.986 0-0.36 0.154-0.726 0.409-0.98l3.24-3.242c0.391-0.39 0.391-1.023 0-1.414l-3.238-3.24c-0.536-0.541-0.54-1.426-0.006-1.968l2.678-2.674c0.266-0.268 0.615-0.414 0.985-0.414 0.376 0 0.726 0.148 0.989 0.416l3.238 3.235c0.195 0.195 0.452 0.294 0.707 0.294 0.257 0 0.512-0.099 0.707-0.294l3.24-3.237c0.252-0.261 0.614-0.411 0.982-0.411 0.366 0 0.726 0.15 0.987 0.411l2.672 2.672c0.261 0.252 0.411 0.617 0.411 0.984 0 0.362-0.154 0.728-0.409 0.983l-3.24 3.242c-0.391 0.391-0.391 1.024 0 1.414l3.238 3.24c0.265 0.263 0.411 0.612 0.411 0.982 0 0.378-0.142 0.719-0.409 0.985l-2.672 2.676c-0.267 0.268-0.608 0.41-0.988 0.41z"/><path id="path316" fill="url(#linearGradient2752)" d="m12.233 8.86l4.652-4.653c0.073-0.073 0.115-0.175 0.115-0.278s-0.042-0.205-0.115-0.279l-2.675-2.674c-0.073-0.074-0.175-0.115-0.278-0.115-0.104 0-0.206 0.041-0.278 0.115l-4.653 4.652-4.653-4.652c-0.153-0.154-0.402-0.154-0.557 0l-2.674 2.673c-0.154 0.154-0.154 0.404 0 0.558l4.653 4.653-4.653 4.652c-0.073 0.073-0.115 0.175-0.115 0.278s0.042 0.205 0.115 0.278l2.675 2.675c0.073 0.073 0.175 0.115 0.278 0.115 0.104 0 0.206-0.042 0.278-0.115l4.653-4.652 4.653 4.652c0.074 0.074 0.173 0.115 0.278 0.115s0.204-0.041 0.278-0.115l2.675-2.675c0.074-0.074 0.115-0.173 0.115-0.278s-0.041-0.204-0.115-0.278l-4.652-4.652z"/><g id="g320" opacity=".4"><path id="path322" fill="#fff" d="m6.457 9.235l-4.652-4.653c-0.154-0.153-0.154-0.403 0-0.558l2.674-2.674c0.044-0.044 0.098-0.072 0.153-0.091l-0.284-0.283c-0.153-0.154-0.402-0.154-0.557 0l-2.674 2.674c-0.154 0.154-0.154 0.404 0 0.557l4.653 4.653-4.653 4.653c-0.073 0.073-0.115 0.175-0.115 0.278s0.042 0.205 0.115 0.278l2.675 2.675c0.073 0.073 0.175 0.115 0.278 0.115 0.043 0 0.084-0.011 0.125-0.025l-2.39-2.39c-0.073-0.073-0.115-0.175-0.115-0.278s0.042-0.205 0.115-0.278l4.652-4.653zm7.754-8.259c-0.073-0.074-0.175-0.115-0.278-0.115-0.104 0-0.206 0.042-0.278 0.115l-4.498 4.496 0.531 0.531 4.653-4.652c0.042-0.043 0.096-0.071 0.153-0.091l-0.283-0.284zm-4.679 11.647l4.122 4.121c0.074 0.074 0.173 0.115 0.278 0.115 0.043 0 0.085-0.011 0.125-0.024l-4.369-4.368-0.156 0.156z"/></g></svg>