<svg xmlns="http://www.w3.org/2000/svg" xmlns:xlink="http://www.w3.org/1999/xlink" id="svg3425" width="48" height="48" version="1.0"><defs id="defs3427"><linearGradient id="linearGradient2525" x1="1.993" x2="46.349" y1="28.49" y2="2.563" gradientTransform="matrix(-.0014859 -.99937 .77554 -.0019148 24.225 48.006)" gradientUnits="userSpaceOnUse" xlink:href="#SVGID_1_"/><linearGradient id="SVGID_1_" x1="2.585" x2="46.006" y1="15.188" y2="15.271" gradientTransform="matrix(-.0019160 -1 1 -.0019160 8.819 39.254)" gradientUnits="userSpaceOnUse"><stop id="stop248" offset="0" stop-color="#9b9b9b"/><stop id="stop250" offset="1" stop-color="#ececec"/></linearGradient><linearGradient id="linearGradient3391" x1="1.993" x2="46.349" y1="28.49" y2="2.563" gradientTransform="matrix(-.0014446 -.99676 0.754 -.0019098 1.3855 48.001)" gradientUnits="userSpaceOnUse" xlink:href="#SVGID_1_"/><linearGradient id="linearGradient3359" x1="12" x2="12" y1="30" y2="5.988" gradientUnits="userSpaceOnUse"><stop id="stop3355" offset="0" stop-color="#fff"/><stop id="stop3357" offset="1" stop-color="#fff" stop-opacity="0"/></linearGradient><linearGradient id="linearGradient3402" x1="5.277" x2="5.277" y1="38.827" y2="33.382" gradientUnits="userSpaceOnUse" xlink:href="#linearGradient3396"/><linearGradient id="linearGradient3396"><stop id="stop3398" offset="0" stop-color="#fff"/><stop id="stop3400" offset="1" stop-color="#fff" stop-opacity="0"/></linearGradient><linearGradient id="linearGradient3423" x1="5.277" x2="5.277" y1="38.827" y2="33.382" gradientTransform="translate(0 4.0788)" gradientUnits="userSpaceOnUse" xlink:href="#linearGradient3396"/><linearGradient id="linearGradient3991" x1="12.185" x2="7.179" y1="16.441" y2="16.432" gradientTransform="matrix(-3.8089 .0019020 -.0072978 -.99273 68.525 -2.2461)" gradientUnits="userSpaceOnUse"><stop id="stop265" offset="0" stop-color="#a9a9a9"/><stop id="stop267" offset="1" stop-color="#7e7e7e"/></linearGradient><linearGradient id="linearGradient3993" x1="38.307" x2="12.151" y1="15.233" y2="15.183" gradientTransform="matrix(.11489 0 0 .98252 -14.394 2.7442)" gradientUnits="userSpaceOnUse"><stop id="stop274" offset="0" stop-color="#bebebe"/><stop id="stop276" offset="1" stop-color="#8c8c8c"/></linearGradient></defs><g id="layer1"><g id="Layer_2" transform="matrix(-.0015065 -.99944 .78629 -.0019149 24.062 48.008)"><g id="g238" opacity=".3"><g id="g240"><path id="path242" d="m38.274 4.975h-31.423c-0.541 0-0.979 0.438-0.979 0.979v18.733c0 0.54 0.439 0.979 0.979 0.979h31.424c0.54 0 0.979-0.439 0.979-0.979v-18.733c0-0.541-0.44-0.979-0.98-0.979zm-1.018 18.692h-29.386v-16.694h29.386v16.694zm7.833-15.237v-4.473c0-2.183-1.777-3.957-3.959-3.957h-37.173c-2.183 0-3.957 1.774-3.957 3.957v22.538c0 2.183 1.774 3.957 3.957 3.957h37.173c2.183 0 3.959-1.774 3.959-3.957v-4.519c1.609-0.039 2.909-1.357 2.909-2.977v-7.591c0-1.618-1.3-2.939-2.909-2.978zm0.91 10.569c0 0.541-0.438 0.979-0.979 0.979h-1.93v6.518c0 1.082-0.877 1.958-1.959 1.958h-37.173c-1.082 0-1.958-0.876-1.958-1.958v-22.538c0-1.082 0.877-1.959 1.958-1.959h37.173c1.082 0 1.959 0.877 1.959 1.959v6.471h1.93c0.541 0 0.979 0.438 0.979 0.979v7.591z"/></g></g></g><path id="path252" fill="url(#linearGradient2525)" d="m39.651 2.9765l0.003 1.9288 5.055-0.0125c0.839-0.0021 1.52 0.8727 1.521 1.954l0.056 37.149c0.001 1.082-0.677 1.959-1.516 1.961l-17.478 0.043c-0.839 0.002-1.521-0.873-1.522-1.953l-0.056-37.15c-0.001-1.0808 0.678-1.959 1.517-1.961l5.018-0.0124-0.003-1.9288c0-0.5407 0.339-0.9792 0.758-0.9803l5.886-0.0145c0.421-0.001 0.76 0.4359 0.761 0.9765zm-10.867 5.7892c-0.419 0.0011-0.758 0.4406-0.757 0.9803l0.046 31.404c0.001 0.541 0.341 0.978 0.761 0.977l14.528-0.036c0.419-0.001 0.759-0.441 0.758-0.981l-0.047-31.404c-0.001-0.5393-0.342-0.9772-0.76-0.9762l-14.529 0.0359z"/><g id="Layer_7" transform="matrix(-.0014859 -.99944 .77554 -.0019149 24.225 48.006)"><g id="g255" opacity=".15"><g id="g257"><path id="path259" fill="#fff" d="m38.274 3.975h-31.424c-1.091 0-1.979 0.887-1.979 1.978v18.735c0 1.091 0.889 1.979 1.979 1.979h31.424c1.091 0 1.979-0.889 1.979-1.979v-18.735c0.001-1.091-0.888-1.978-1.979-1.978zm0.98 20.712c0 0.54-0.439 0.979-0.979 0.979h-31.424c-0.541 0-0.979-0.439-0.979-0.979v-18.733c0-0.541 0.439-0.979 0.979-0.979h31.424c0.54 0 0.979 0.438 0.979 0.979v18.733zm5.766-14.258h-1.93v-6.471c0-1.082-0.877-1.959-1.959-1.959h-37.173c-1.082 0-1.958 0.877-1.958 1.959v22.537c0 1.082 0.877 1.958 1.958 1.958h37.173c1.082 0 1.959-0.876 1.959-1.958v-6.518h1.93c0.541 0 0.979-0.438 0.979-0.979v-7.59c0-0.541-0.438-0.979-0.979-0.979zm-0.021 8.57l-1.909-0.021c-0.553 0-1 0.447-1 1v6.517c0 0.527-0.432 0.959-0.959 0.959h-37.174c-0.528 0-0.957-0.432-0.957-0.959v-22.537c0-0.527 0.429-0.958 0.957-0.958h37.174c0.527 0 0.959 0.431 0.959 0.959v6.471c0 0.553 0.447 1 1 1h1.931l-0.022 7.569z"/></g></g><g id="g3341" opacity=".3"><g id="g3343"><path id="path3345" fill="#fff" d="m44.904 19.919c0.099-0.374 0.131-0.814 0.095-0.92l0.022-7.569h-1.931c-0.553 0-1-0.447-1-1v-6.471c0-0.528-0.432-0.959-0.959-0.959h-37.174c-0.6325 0.1059-1.2064-0.0211-1.8975 0.3176 0.407-0.7901 0.8165-1.3186 1.8985-1.3186h37.173c1.082 0 1.959 0.877 1.959 1.959v6.471h1.93c0.541 0 0.979 0.438 0.979 0.979v7.59c0 0.541-0.33 0.939-1.095 0.921zm-2.798 0.287l1-0.001-0.016 6.29c-0.114 0.768-0.407 1.758-1.466 1.882 0.41-0.941 0.466-1.882 0.466-1.882l0.016-6.289zm-5.831 5.456c0.717 0.024 1.201 0.056 1.994-0.011-0.407 0.623-1.136 0.604-1.994 0.605l-29.424 0.003c-0.8572-0.057-1.465-0.377-1.6395-1.57l-0.0038-16.735c0.0317-1.0331-0.0066-1.8297 0.7006-2.2381-0.081 0.669-0.0635 1.5778-0.0401 2.2381l0.0038 16.733c0 0.54 0.438 0.979 0.979 0.979l29.424-0.004z"/></g></g></g><path id="path2463" d="m20.406 2.9062l-16.968 0.0313c-1.717 0.0042-3.4413 1.788-3.438 3.9687l0.0625 37.156c0.003289 2.182 1.721 3.942 3.4375 3.938l16.969-0.031c1.716-0.004 3.534-1.787 3.531-3.969l-0.062-37.156c-0.004-2.182-1.815-3.9419-3.532-3.9378zm0 2c0.851-0.002 1.561 0.8562 1.563 1.9376l0.031 37.156c0.002 1.081-0.68 1.967-1.531 1.969l-16.969 0.031c-0.8508 0.002-1.5296-0.857-1.5312-1.938l-0.0626-37.156c-0.0016-1.0811 0.6805-1.9664 1.5313-1.9685l16.968-0.0313zm-15.406 2.0938c-0.554 0-1 0.446-1 1v20c0 0.554 0.446 1 1 1h14c0.554 0 1-0.446 1-1v-20c0-0.554-0.446-1-1-1h-14zm1.5 2h11c0.277 0 0.5 0.223 0.5 0.5v17c0 0.277-0.223 0.5-0.5 0.5h-11c-0.277 0-0.5-0.223-0.5-0.5v-17c0-0.277 0.223-0.5 0.5-0.5z" opacity=".3"/><path id="path2465" fill="url(#linearGradient3391)" d="m20.469 5l-17 0.0312c-0.8161 0.0021-1.4706 0.8903-1.469 1.9688l0.0625 37.062c0.0016 1.078 0.6529 1.94 1.4687 1.938l17-0.031c0.816-0.002 1.471-0.891 1.469-1.969l-0.062-37.062c-0.002-1.079-0.653-1.9401-1.469-1.938zm-15.469 2h14c0.554 0 1 0.446 1 1v20c0 0.554-0.446 1-1 1h-14c-0.554 0-1-0.446-1-1v-20c0-0.554 0.446-1 1-1zm0.5 27.906c0.828 0 1.5 0.672 1.5 1.5s-0.672 1.5-1.5 1.5-1.5-0.672-1.5-1.5 0.672-1.5 1.5-1.5zm4.3438 0c0.8282 0 1.5002 0.672 1.5002 1.5s-0.672 1.5-1.5002 1.5c-0.828 0-1.5-0.672-1.5-1.5s0.672-1.5 1.5-1.5zm4.3122 0c0.828 0 1.5 0.672 1.5 1.5s-0.672 1.5-1.5 1.5-1.5-0.672-1.5-1.5 0.672-1.5 1.5-1.5zm4.344 0c0.828 0 1.5 0.672 1.5 1.5s-0.672 1.5-1.5 1.5-1.5-0.672-1.5-1.5 0.672-1.5 1.5-1.5zm-13 4.094c0.828 0 1.5 0.672 1.5 1.5s-0.672 1.5-1.5 1.5-1.5-0.672-1.5-1.5 0.672-1.5 1.5-1.5zm4.3438 0c0.8282 0 1.5002 0.672 1.5002 1.5s-0.672 1.5-1.5002 1.5c-0.828 0-1.5-0.672-1.5-1.5s0.672-1.5 1.5-1.5zm4.3122 0c0.828 0 1.5 0.672 1.5 1.5s-0.672 1.5-1.5 1.5-1.5-0.672-1.5-1.5 0.672-1.5 1.5-1.5zm4.344 0c0.828 0 1.5 0.672 1.5 1.5s-0.672 1.5-1.5 1.5-1.5-0.672-1.5-1.5 0.672-1.5 1.5-1.5z"/><g id="g2467" transform="matrix(-.0014446 -.99676 0.754 -.0019098 .55218 48.001)"><g id="g2469" opacity=".15"><g id="g2471"><path id="path2473" fill="#fff" d="m43.09 3.958c0-1.082-0.877-1.959-1.959-1.959h-37.173c-1.082 0-1.958 0.877-1.958 1.959v22.537c0 1.082 0.877 1.958 1.958 1.958h37.173c1.082 0 1.959-0.876 1.959-1.958v-22.537zm-1 22.537c0 0.527-0.432 0.959-0.959 0.959h-37.174c-0.528 0-0.957-0.432-0.957-0.959v-22.537c0-0.527 0.429-0.958 0.957-0.958h37.174c0.527 0 0.959 0.431 0.959 0.959v22.536z"/></g></g><g id="g2475" opacity=".3"><g id="g2477"><path id="path2479" fill="#fff" d="m42.09 3.959c0-0.528-0.432-0.959-0.959-0.959h-37.174c-0.6325 0.1059-1.2064-0.0211-1.8975 0.3176 0.407-0.7901 0.8165-1.3186 1.8985-1.3186h37.173c1.082 0 1.959 0.877 1.959 1.959l-1 0.001zm1 22.536c-0.114 0.768-0.407 1.758-1.466 1.882 0.41-0.941 0.466-1.882 0.466-1.882h1z"/></g></g></g><rect id="rect3350" width="17" height="23" x="3.5" y="6.5" fill="none" stroke="url(#linearGradient3359)" stroke-dasharray="none" stroke-dashoffset="0" stroke-linecap="butt" stroke-linejoin="miter" stroke-miterlimit="4" stroke-width="1" marker-end="none" marker-mid="none" marker-start="none" enable-background="accumulate" opacity=".4" rx="1.359" ry="1.359"/><path id="path3394" fill="none" stroke="url(#linearGradient3402)" stroke-dashoffset="0" stroke-linecap="butt" stroke-linejoin="miter" stroke-miterlimit="4" stroke-width="1.089" marker-end="none" marker-mid="none" marker-start="none" d="m7.5 36.5c0 1.104-0.896 2-2 2s-2-0.896-2-2 0.896-2 2-2 2 0.896 2 2zm4.326 0c0 1.104-0.896 2-1.9995 2-1.104 0-2-0.896-2-2s0.896-2 2-2c1.1035 0 1.9995 0.896 1.9995 2zm4.33 0c0 1.104-0.896 2-2 2s-2-0.896-2-2 0.896-2 2-2 2 0.896 2 2zm4.328 0c0 1.104-0.896 2-2 2s-2-0.896-2-2 0.896-2 2-2 2 0.896 2 2z" enable-background="accumulate" opacity=".4"/><path id="path3421" fill="none" stroke="url(#linearGradient3423)" stroke-dashoffset="0" stroke-linecap="butt" stroke-linejoin="miter" stroke-miterlimit="4" stroke-width="1.089" marker-end="none" marker-mid="none" marker-start="none" d="m7.5 40.579c0 1.104-0.896 2-2 2s-2-0.896-2-2 0.896-2 2-2 2 0.896 2 2zm4.326 0c0 1.104-0.896 2-1.9995 2-1.104 0-2-0.896-2-2s0.896-2 2-2c1.1035 0 1.9995 0.896 1.9995 2zm4.33 0c0 1.104-0.896 2-2 2s-2-0.896-2-2 0.896-2 2-2 2 0.896 2 2zm4.328 0c0 1.104-0.896 2-2 2s-2-0.896-2-2 0.896-2 2-2 2 0.896 2 2z" enable-background="accumulate" opacity=".4"/><g id="g2731" transform="matrix(0 1 .77387 0 49.362 .37517)"><path id="path2653" fill="url(#linearGradient3991)" d="m41.015-8.2304l-19.022 0.0095 0.011-18.03h18.997l0.014 18.021z"/><rect id="rect2663" width="11.984" height="18.011" x="-22" y="8.21" fill="url(#linearGradient3993)" opacity=".3" transform="matrix(-.99999 .0041030 -.00089470 -1 0 0)"/></g><path id="polygon271" fill="#fff" d="m29.156 22.352v18.648h0.844v-17.429l12.844 0.031v-1.219l-13.688-0.031z" opacity=".25"/></g></svg>