<svg xmlns="http://www.w3.org/2000/svg" xmlns:xlink="http://www.w3.org/1999/xlink" id="svg2" width="47.999" height="48" x="0" y="0" enable-background="new 0 0 47.999 47.131" version="1.0" viewBox="0 0 47.999 47.131" xml:space="preserve"><metadata id="metadata312"/><defs id="defs310"><linearGradient id="linearGradient2774" x1="24" x2="24" y1="45.131" y2="4" gradientUnits="userSpaceOnUse"><stop id="stop279" offset="0" stop-color="#9B9B9B"/><stop id="stop281" offset="1" stop-color="#ECECEC"/></linearGradient></defs><g id="Layer_2" opacity=".3"><g id="g238"><g id="g240"><path id="path242" d="m44.088 2.002h-5.74c-2.158 0-3.912 1.753-3.912 3.912v5.169c-0.548-0.292-1.164-0.474-1.827-0.474h-5.739c-2.157 0-3.913 1.756-3.913 3.914v5.169c-0.547-0.292-1.163-0.474-1.826-0.474h-5.739c-2.158 0-3.912 1.756-3.912 3.914v5.169c-0.548-0.292-1.164-0.474-1.828-0.474h-5.739c-2.158 0-3.912 1.753-3.912 3.911v11.479c0 2.158 1.753 3.914 3.912 3.914h5.739c1.138 0 2.154-0.496 2.87-1.273 0.715 0.777 1.731 1.273 2.869 1.273h5.739c1.138 0 2.154-0.496 2.869-1.273 0.716 0.777 1.732 1.273 2.87 1.273h5.739c1.138 0 2.154-0.496 2.869-1.273 0.716 0.777 1.731 1.273 2.87 1.273h5.74c2.157 0 3.911-1.754 3.911-3.912v-37.305c0.001-2.159-1.753-3.912-3.91-3.912zm-32.523 41.216c0 1.057-0.857 1.913-1.913 1.913h-5.739c-1.057 0-1.913-0.857-1.913-1.913v-11.479c0-1.057 0.856-1.913 1.913-1.913h5.739c1.056 0 1.913 0.856 1.913 1.913v11.479zm11.478 0c0 1.057-0.856 1.913-1.913 1.913h-5.739c-1.056 0-1.913-0.856-1.913-1.913v-20.087c0-1.057 0.857-1.913 1.913-1.913h5.739c1.057 0 1.913 0.856 1.913 1.913v20.087zm11.478 0c0 1.057-0.856 1.913-1.913 1.913h-5.739c-1.056 0-1.913-0.856-1.913-1.913v-28.696c0-1.057 0.857-1.913 1.913-1.913h5.739c1.057 0 1.913 0.856 1.913 1.913v28.696zm11.479 0c0 1.057-0.856 1.913-1.913 1.913h-5.739c-1.057 0-1.913-0.856-1.913-1.913v-37.305c0-1.056 0.856-1.913 1.913-1.913h5.739c1.057 0 1.913 0.857 1.913 1.913v37.305z"/></g></g></g><g id="g2825"><path id="path2799" fill="url(#linearGradient2774)" d="m21.13 21.218h-5.739c-1.056 0-1.913 0.856-1.913 1.913v20.087c0 1.057 0.857 1.913 1.913 1.913h5.739c1.057 0 1.913-0.856 1.913-1.913v-20.087c0-1.057-0.856-1.913-1.913-1.913z"/><path id="path2815" fill="#fff" d="m21.13 21.218h-5.739c-1.056 0-1.913 0.856-1.913 1.913v20.087c0 0.432 0.148 0.825 0.389 1.145-0.087-0.219-0.139-0.457-0.139-0.707v-20.088c0-1.057 0.857-1.913 1.913-1.913h5.739c0.625 0 1.175 0.304 1.524 0.769-0.281-0.706-0.967-1.206-1.774-1.206z" opacity=".4"/></g><g id="g2817" opacity=".3"><path id="path283" fill="url(#linearGradient2774)" d="m44.087 4h-5.739c-1.057 0-1.913 0.857-1.913 1.913v37.305c0 1.057 0.856 1.913 1.913 1.913h5.739c1.057 0 1.913-0.856 1.913-1.913v-37.305c0-1.056-0.856-1.913-1.913-1.913z"/><path id="path2813" fill="#fff" d="m44.087 4h-5.739c-1.057 0-1.913 0.857-1.913 1.913v37.305c0 0.432 0.147 0.825 0.389 1.145-0.087-0.219-0.139-0.457-0.139-0.707v-37.305c0-1.056 0.856-1.913 1.913-1.913h5.739c0.625 0 1.175 0.305 1.524 0.769-0.281-0.707-0.967-1.207-1.774-1.207z" opacity=".4"/></g><g id="g2829"><path id="path2801" fill="url(#linearGradient2774)" d="m9.652 29.826h-5.739c-1.057 0-1.913 0.857-1.913 1.913v11.479c0 1.057 0.856 1.913 1.913 1.913h5.739c1.056 0 1.913-0.856 1.913-1.913v-11.479c0-1.056-0.857-1.913-1.913-1.913z"/><path id="path2811" fill="#fff" d="m9.652 29.826h-5.739c-1.057 0-1.913 0.857-1.913 1.913v11.479c0 0.432 0.148 0.825 0.389 1.145-0.087-0.219-0.139-0.457-0.139-0.707v-11.479c0-1.057 0.856-1.913 1.913-1.913h5.739c0.625 0 1.175 0.305 1.524 0.769-0.281-0.707-0.968-1.207-1.774-1.207z" opacity=".4"/></g><g id="g2821" opacity=".3"><path id="path2797" fill="url(#linearGradient2774)" d="m32.608 12.609h-5.739c-1.056 0-1.913 0.856-1.913 1.913v28.696c0 1.057 0.857 1.913 1.913 1.913h5.739c1.057 0 1.913-0.856 1.913-1.913v-28.696c0-1.057-0.856-1.913-1.913-1.913z"/><path id="path290" fill="#fff" d="m32.608 12.609h-5.739c-1.056 0-1.913 0.856-1.913 1.913v28.696c0 0.431 0.148 0.824 0.389 1.145-0.087-0.219-0.139-0.457-0.139-0.707v-28.697c0-1.057 0.857-1.913 1.913-1.913h5.739c0.625 0 1.175 0.304 1.524 0.768-0.28-0.705-0.967-1.205-1.774-1.205z" opacity=".4"/></g><g id="Layer_6_copy_2" opacity=".3"><g id="g293"><g id="g295"><path id="path297" d="m10.628 8.766c0.133-0.267 0.208-0.569 0.208-0.888v-1.989c0-0.249-0.045-0.487-0.129-0.709 0.249-0.333 0.395-0.744 0.395-1.192v-1.988c0-1.106-0.894-2-2-2h-7.102c-1.106 0-2 0.894-2 2v10.207c0 1.105 0.894 1.999 2 1.999h7.253c1.105 0 2-0.894 2-1.999v-1.989c-0.001-0.572-0.241-1.088-0.625-1.452zm-1.376 3.44h-7.252v-10.206h7.103v1.989h-4.472v1.9h4.204v1.989h-4.204v2.338h4.621v1.99z"/></g></g></g><g id="Layer_12"><g id="g300"><linearGradient id="SVGID_5_" x1="5.626" x2="5.626" y1="12.206" y2="2" gradientUnits="userSpaceOnUse"><stop id="stop303" offset="0" stop-color="#9B9B9B"/><stop id="stop305" offset="1" stop-color="#ECECEC"/></linearGradient><path id="path307" fill="url(#SVGID_5_)" d="m2 2h7.103v1.989h-4.472v1.9h4.204v1.989h-4.204v2.338h4.621v1.989h-7.252v-10.205z"/></g></g></svg>