<svg xmlns="http://www.w3.org/2000/svg" id="svg2" width="47.999" height="48" x="0" y="0" enable-background="new 0 0 47.999 31.998" version="1.0" viewBox="0 0 47.999 31.998" xml:space="preserve"><metadata id="metadata291"/><g id="Layer_2" opacity=".3"><g id="g238"><g id="g240"><path id="path242" d="m44.999 0h-41.999c-1.655 0-3 1.345-3 3v25.998c0 1.654 1.345 3 3 3h41.999c1.655 0 3-1.346 3-3v-25.998c0-1.655-1.345-3-3-3zm1.001 28.999c0 0.553-0.447 1-1 1h-42c-0.552 0-1-0.447-1-1v-26c0-0.552 0.448-1 1-1h42c0.553 0 1 0.448 1 1v26z"/></g></g></g><g id="Layer_3"><g id="g245"><linearGradient id="SVGID_1_" x1="38.025" x2="9.975" y1="35.303" y2="-3.304" gradientUnits="userSpaceOnUse"><stop id="stop248" offset="0" stop-color="#878787"/><stop id="stop250" offset=".253" stop-color="#8F8F8F"/><stop id="stop252" offset=".349" stop-color="#A1A1A1"/><stop id="stop254" offset=".609" stop-color="#CDCDCD"/><stop id="stop256" offset=".81" stop-color="#E8E8E8"/><stop id="stop258" offset=".929" stop-color="#F2F2F2"/></linearGradient><path id="path260" fill="url(#SVGID_1_)" d="m46 28.999c0 0.553-0.447 1-1 1h-42c-0.552 0-1-0.447-1-1v-26c0-0.552 0.448-1 1-1h42c0.553 0 1 0.448 1 1v26z"/></g></g><g id="Layer_4"><g id="g264" opacity=".4"><g id="g266"><path id="path268" fill="#fff" d="m2.625 29.749v-26c0-0.552 0.448-1 1-1h42c0.12 0 0.231 0.03 0.338 0.068-0.088-0.462-0.475-0.818-0.963-0.818h-42c-0.552 0-1 0.448-1 1v26c0 0.433 0.278 0.792 0.662 0.932-0.013-0.061-0.037-0.118-0.037-0.182z"/></g></g></g><g id="Layer_4_copy"><g id="g271" opacity=".2"><g id="g273"><path id="path275" fill="#fff" d="m45 1.999h-42c-0.552 0-1 0.448-1 1v26c0 0.553 0.448 1 1 1h42c0.553 0 1-0.447 1-1v-26c0-0.552-0.448-1-1-1zm0.18 26.306c0 0.521-0.423 0.944-0.944 0.944h-40.667c-0.521 0-0.944-0.423-0.944-0.944v-24.612c0-0.521 0.423-0.944 0.944-0.944h40.667c0.521 0 0.944 0.423 0.944 0.944v24.612z"/></g></g></g><g id="Layer_1"><rect id="rect5272" width="20" height="1" x="5.5" y="15.874" fill="#2a2a2a" enable-background="new" opacity=".618"/><rect id="rect5274" width="25" height="1" x="5.5" y="19.874" fill="#2a2a2a" enable-background="new" opacity=".618"/><rect id="rect5276" width="17" height="1" x="5.5" y="23.874" fill="#2a2a2a" enable-background="new" opacity=".618"/><g id="g281"><rect id="rect5270" width="7" height="8" x="35" y="5.874" fill="#2a2a2a" enable-background="new" opacity=".618"/><path id="rect3197" fill="#fff" d="m42 5.874v8.017h-7v0.983h8v-9h-1z" enable-background="new" opacity=".33"/></g><rect id="rect3186" width="20" height="1" x="5.5" y="16.874" fill="#fff" enable-background="new" opacity=".19"/><rect id="rect3188" width="25" height="1" x="5.5" y="20.874" fill="#fff" enable-background="new" opacity=".19"/><rect id="rect3190" width="17" height="1" x="5.5" y="24.874" fill="#fff" enable-background="new" opacity=".19"/></g></svg>