<svg xmlns="http://www.w3.org/2000/svg" xmlns:svg="http://www.w3.org/2000/svg" xmlns:xlink="http://www.w3.org/1999/xlink" id="svg4097" width="48" height="48" version="1.1"><defs id="defs4099"><linearGradient id="linearGradient4054" x1="77.922" x2="77.922" y1="33.151" y2="13.328" gradientTransform="matrix(1.0746673,0,0,1.3620658,-50.74054,-18.153535)" gradientUnits="userSpaceOnUse" xlink:href="#linearGradient4056"/><linearGradient id="linearGradient4056"><stop id="stop4058" offset="0" stop-color="#fff" stop-opacity="1"/><stop id="stop4060" offset=".37" stop-color="#fff" stop-opacity=".235"/><stop id="stop4062" offset=".593" stop-color="#fff" stop-opacity=".157"/><stop id="stop4064" offset="1" stop-color="#fff" stop-opacity=".392"/></linearGradient><linearGradient id="linearGradient3079-7-1-3" x1="73.851" x2="73.851" y1="6.72" y2="34.619" gradientTransform="matrix(1.0746673,0,0,1.3620658,-50.74054,-18.153535)" gradientUnits="userSpaceOnUse" xlink:href="#linearGradient3967-8"/><linearGradient id="linearGradient3967-8"><stop id="stop3969-8" offset="0" stop-color="#fff" stop-opacity="1"/><stop id="stop3971-4" offset=".553" stop-color="#fff" stop-opacity=".235"/><stop id="stop3973-0" offset=".816" stop-color="#fff" stop-opacity=".157"/><stop id="stop3975-0" offset="1" stop-color="#fff" stop-opacity=".392"/></linearGradient><linearGradient id="linearGradient5578-678-854-806-6-9"><stop id="stop2504-4-1" offset="0" stop-color="#dadada" stop-opacity="1"/><stop id="stop2506-3-9" offset="1" stop-color="#717171" stop-opacity="1"/></linearGradient><linearGradient id="linearGradient4095" x1="24.638" x2="24.638" y1="7.495" y2="39.117" gradientTransform="matrix(1.4297879,0,0,1.3899564,-10.404266,-8.4248417)" gradientUnits="userSpaceOnUse" xlink:href="#linearGradient5578-678-854-806-6-9"/></defs><metadata id="metadata4102"/><g id="layer1" transform="translate(0,16)"><path id="path3890" fill="url(#linearGradient4095)" fill-opacity="1" fill-rule="nonzero" stroke="none" stroke-width="1.005" d="m 28,6.96875 c -4.47649,0 -8.335946,2.4929158 -10.40625,6.125 -1.222083,-0.678727 -2.596547,-1.125 -4.09375,-1.125 -4.704655,0 -8.53125,3.826595 -8.53125,8.53125 0,0.636877 0.1170966,1.228364 0.25,1.8125 -3.1678158,2.271284 -5.25,5.982698 -5.25,10.1875 0,6.932397 5.5988534,12.53125 12.53125,12.53125 l 23,0 c 6.932397,0 12.53125,-5.598853 12.53125,-12.53125 0,-5.383285 -3.399604,-9.942695 -8.15625,-11.71875 C 39.960788,20.193575 40.03125,19.60695 40.03125,19 40.03125,12.362348 34.637652,6.96875 28,6.96875 z m -9.96875,10.0625 11.9375,0 0,10.46875 A 0.52994883,0.52994883 0 0 0 30.5,28.03125 l 3.90625,0 L 24,41.15625 l -10.40625,-13.125 3.90625,0 A 0.52994883,0.52994883 0 0 0 18.03125,27.5 l 0,-10.46875 z" color="#000" display="block" enable-background="accumulate" overflow="visible" transform="translate(0,-16)" visibility="visible" style="marker:none"/><path id="path4052" fill="none" stroke="url(#linearGradient3079-7-1-3)" stroke-dasharray="none" stroke-dashoffset="0" stroke-linecap="round" stroke-linejoin="miter" stroke-miterlimit="4" stroke-opacity="1" stroke-width="1" d="m 28,-8.5 c -4.451995,0 -8.30761,2.549508 -10.21875,6.25 C 16.542581,-3.037105 15.076275,-3.5 13.5,-3.5 c -4.418278,0 -8,3.581722 -8,8 0,0.702506 0.1111857,1.382076 0.28125,2.03125 C 2.5902344,8.683516 0.5,12.345 0.5,16.5 c 0,6.648 5.352,12 12,12 l 23,0 c 6.648,0 12,-5.352 12,-12 C 47.5,11.191243 44.072844,6.715491 39.3125,5.125 39.441675,4.434986 39.5,3.7275 39.5,3 39.5,-3.351275 34.351275,-8.5 28,-8.5 z" color="#000" display="inline" enable-background="accumulate" opacity=".4" overflow="visible" visibility="visible" style="marker:none"/><path id="rect4519" fill="none" stroke="url(#linearGradient4054)" stroke-dasharray="none" stroke-dashoffset="0" stroke-linecap="round" stroke-linejoin="miter" stroke-miterlimit="4" stroke-opacity="1" stroke-width="1" d="m 17.5,0.5 13,0 0,11 5,0 L 24,26 12.5,11.5 l 5,0 0,-11 z" color="#000" display="inline" enable-background="accumulate" opacity=".4" overflow="visible" visibility="visible" style="marker:none"/></g></svg>