<svg xmlns="http://www.w3.org/2000/svg" xmlns:xlink="http://www.w3.org/1999/xlink" id="svg2" width="48" height="48" x="0" y="0" enable-background="new 0 0 45.661 48" version="1.0" viewBox="0 0 45.661 48" xml:space="preserve"><metadata id="metadata266"/><defs id="defs264"><linearGradient id="SVGID_1_" x1="68.698" x2="39.71" y1="49.096" y2="-1.113" gradientTransform="translate(-31.328)" gradientUnits="userSpaceOnUse"><stop id="stop248" offset="0" stop-color="#9B9B9B"/><stop id="stop250" offset="1" stop-color="#ECECEC"/></linearGradient><linearGradient id="linearGradient2547" x1="68.698" x2="39.71" y1="49.096" y2="-1.113" gradientTransform="translate(-4.3281)" gradientUnits="userSpaceOnUse" xlink:href="#SVGID_1_"/><linearGradient id="linearGradient2549" x1="68.698" x2="39.71" y1="49.096" y2="-1.113" gradientTransform="translate(-26.328)" gradientUnits="userSpaceOnUse" xlink:href="#SVGID_1_"/></defs><path id="path242" d="m16.028 0.002h-7.721c-1.823 0-3.307 1.345-3.307 2.998v42c0 1.652 1.484 2.998 3.307 2.998h7.722c1.823 0 3.307-1.346 3.307-2.998v-42c-0.001-1.653-1.484-2.998-3.308-2.998zm1.103 44.998c0 0.553-0.493 1-1.103 1h-7.72c-0.609 0-1.103-0.447-1.103-1v-42c0-0.552 0.493-1 1.103-1h7.721c0.609 0 1.103 0.448 1.103 1v42h-0.001z" opacity=".3"/><path id="path2527" fill="url(#linearGradient2549)" d="m7.205 45v-42c0-0.552 0.493-1 1.103-1h7.721c0.609 0 1.103 0.448 1.103 1v42c0 0.553-0.493 1-1.103 1h-7.721c-0.61 0-1.103-0.447-1.103-1z"/><path id="path258" fill="#fff" d="m7.205 45v-42c0-0.552 0.493-1 1.103-1h7.721c0.609 0 1.103 0.448 1.103 1h-7.722c-0.609 0-1.102 0.449-1.102 1v42c-0.61 0-1.103-0.447-1.103-1z" opacity=".4"/><g id="Layer_5" transform="translate(5)"><rect id="rect3406_2_" width="1.103" height="42" x="11.028" y="3" fill="#8c8c8c" enable-background="new" opacity=".3"/></g><path id="path2537" d="m38.028 0.002h-7.721c-1.823 0-3.307 1.345-3.307 2.998v42c0 1.652 1.484 2.998 3.307 2.998h7.722c1.823 0 3.307-1.346 3.307-2.998v-42c-0.001-1.653-1.484-2.998-3.308-2.998zm1.103 44.998c0 0.553-0.493 1-1.103 1h-7.72c-0.609 0-1.103-0.447-1.103-1v-42c0-0.552 0.493-1 1.103-1h7.721c0.609 0 1.103 0.448 1.103 1v42h-0.001z" opacity=".3"/><path id="path2539" fill="url(#linearGradient2547)" d="m29.205 45v-42c0-0.552 0.493-1 1.103-1h7.721c0.609 0 1.103 0.448 1.103 1v42c0 0.553-0.493 1-1.103 1h-7.721c-0.61 0-1.103-0.447-1.103-1z"/><path id="path2541" fill="#fff" d="m29.205 45v-42c0-0.552 0.493-1 1.103-1h7.721c0.609 0 1.103 0.448 1.103 1h-7.722c-0.609 0-1.102 0.449-1.102 1v42c-0.61 0-1.103-0.447-1.103-1z" opacity=".4"/><g id="g2543" transform="translate(27)"><rect id="rect2545" width="1.103" height="42" x="11.028" y="3" fill="#8c8c8c" enable-background="new" opacity=".3"/></g></svg>