<svg xmlns="http://www.w3.org/2000/svg" xmlns:svg="http://www.w3.org/2000/svg" id="svg4359" width="24" height="24" version="1.1"><metadata id="metadata4364"/><g id="layer1" transform="translate(1,-25)"><rect id="rect4147-8" width="2" height="2" x="-3" y="25" fill="#304050" fill-opacity="1" fill-rule="nonzero" stroke="none" stroke-dasharray="none" stroke-dashoffset="0" stroke-linecap="butt" stroke-linejoin="miter" stroke-miterlimit="4" stroke-opacity="1" stroke-width="1" clip-rule="nonzero" color="#000" color-interpolation="sRGB" color-interpolation-filters="linearRGB" color-rendering="auto" display="inline" enable-background="accumulate" image-rendering="auto" opacity="1" overflow="visible" shape-rendering="auto" text-rendering="auto" visibility="visible" style="isolation:auto;mix-blend-mode:normal;solid-color:#000;solid-opacity:1"/><path id="path4152" fill="#304050" fill-opacity="1" stroke="none" stroke-dasharray="none" stroke-linecap="round" stroke-linejoin="miter" stroke-miterlimit="4" stroke-opacity=".299" stroke-width=".1" d="m 16.654156,31.345703 -0.707031,0.707031 A 7,7 0 0 1 17.999859,37 7,7 0 0 1 15.947125,41.947266 l 0.707031,0.707031 A 8,8 0 0 0 18.999859,37 8,8 0 0 0 16.654156,31.345703 Z" opacity=".25"/><path id="path4157" fill="#304050" fill-opacity="1" stroke="none" stroke-dasharray="none" stroke-linecap="round" stroke-linejoin="miter" stroke-miterlimit="4" stroke-opacity=".299" stroke-width=".1" d="m 15.240093,32.759766 -0.707031,0.707031 A 5,5 0 0 1 15.999859,37 5,5 0 0 1 14.533062,40.533203 l 0.707031,0.707031 A 6,6 0 0 0 16.999859,37 6,6 0 0 0 15.240093,32.759766 Z" opacity=".5"/><path id="path4162" fill="#304050" fill-opacity="1" stroke="none" stroke-dasharray="none" stroke-linecap="round" stroke-linejoin="miter" stroke-miterlimit="4" stroke-opacity=".299" stroke-width=".1" d="M 13.826031,34.173828 13.119,34.880859 A 3,3 0 0 1 13.999859,37 3,3 0 0 1 13.119,39.119141 l 0.707031,0.707031 A 4,4 0 0 0 14.999859,37 4,4 0 0 0 13.826031,34.173828 Z" opacity="1"/><path id="path4176" fill="#304050" fill-opacity="1" fill-rule="evenodd" stroke="none" stroke-linecap="butt" stroke-linejoin="miter" stroke-opacity="1" stroke-width="1" d="m 12.099609,29 c -0.748146,0 -3.2973254,1.85095 -4.8535152,3.978516 L 6,34 l 0,2 0,2 0,2 1.2460938,1.021484 C 8.8022836,43.14905 11.351463,45 12.099609,45 Z M 5,34 c -1,0 -2,1 -2,1 l 0,4 c 0,0 1,1 2,1 z"/></g></svg>