<svg xmlns="http://www.w3.org/2000/svg" xmlns:svg="http://www.w3.org/2000/svg" id="svg4359" width="24" height="24" version="1.1" viewBox="0 0 24 24"><metadata id="metadata4364"/><g id="layer1" transform="translate(1,-25)"><rect id="rect4147-8" width="2" height="2" x="-3" y="25" fill="#304050" fill-opacity="1" fill-rule="nonzero" stroke="none" stroke-dasharray="none" stroke-dashoffset="0" stroke-linecap="butt" stroke-linejoin="miter" stroke-miterlimit="4" stroke-opacity="1" stroke-width="1" clip-rule="nonzero" color="#000" color-interpolation="sRGB" color-interpolation-filters="linearRGB" color-rendering="auto" display="inline" enable-background="accumulate" image-rendering="auto" opacity="1" overflow="visible" shape-rendering="auto" text-rendering="auto" visibility="visible" style="isolation:auto;mix-blend-mode:normal;solid-color:#000;solid-opacity:1"/><path id="path4155" fill="#304050" fill-opacity="1" stroke="none" stroke-dasharray="none" stroke-dashoffset="0" stroke-linecap="butt" stroke-linejoin="miter" stroke-miterlimit="4" stroke-opacity="1" stroke-width="4.756" d="M 11,3 A 4,4 0 0 0 7,7 4,4 0 0 0 11,11 4,4 0 0 0 15,7 4,4 0 0 0 11,3 Z M 5,13 c -1.108,0 -2,0.892 -2,2 l 0,1 0,1 0,2 3,0 0,-3 1,0 0,3 8,0 0,-3 1,0 0,3 3,0 0,-2 0,-1 0,-1 c 0,-1.108 -0.892,-2 -2,-2 L 5,13 Z" opacity="1" transform="translate(0,26)"/></g></svg>