<svg xmlns="http://www.w3.org/2000/svg" xmlns:svg="http://www.w3.org/2000/svg" id="svg2" width="24" height="24" version="1.1" viewBox="0 0 24 24"><metadata id="metadata20"/><rect id="rect4147-8" width="2" height="2" x="-2" y="0" fill="#304050" fill-opacity="1" fill-rule="nonzero" stroke="none" stroke-dasharray="none" stroke-dashoffset="0" stroke-linecap="butt" stroke-linejoin="miter" stroke-miterlimit="4" stroke-opacity="1" stroke-width="1" clip-rule="nonzero" color="#000" color-interpolation="sRGB" color-interpolation-filters="linearRGB" color-rendering="auto" display="inline" enable-background="accumulate" image-rendering="auto" opacity="1" overflow="visible" shape-rendering="auto" text-rendering="auto" visibility="visible" style="isolation:auto;mix-blend-mode:normal;solid-color:#000;solid-opacity:1"/><path id="path336" fill="#304050" fill-opacity="1" stroke-width=".261" d="M 12,4 C 11.713138,4 11.426761,4.1910179 11.208984,4.5722656 L 3.1855469,18.613281 C 2.7497343,19.375777 3.1059757,20 3.9765625,20 l 16.0468755,0 c 0.870066,2.63e-4 1.226048,-0.623961 0.791015,-1.386719 L 12.791016,4.5722656 C 12.573759,4.1910179 12.286862,4 12,4 Z m -1,4.2949219 2,0 L 13,15 11,15 11,8.2949219 Z M 12,16 a 1,1 0 0 1 1,1 1,1 0 0 1 -1,1 1,1 0 0 1 -1,-1 1,1 0 0 1 1,-1 z"/></svg>