<svg xmlns="http://www.w3.org/2000/svg" xmlns:svg="http://www.w3.org/2000/svg" id="svg2" width="24" height="24" version="1.1" viewBox="0 0 24 24"><metadata id="metadata20"/><path id="polygon8" fill="#304050" fill-opacity="1" d="m 8.4589844,4 -5.0605469,3.3046875 3.5,2.8007815 L 12,6.9550781 8.4589844,4 Z M 12,6.9550781 l 5.101562,3.1503909 3.5,-2.8007815 L 15.541016,4 12,6.9550781 Z M 17.101562,10.105469 12,13.255859 l 3.541016,2.955079 5.060546,-3.302735 -3.5,-2.802734 z M 12,13.255859 l -5.1015625,-3.15039 -3.5,2.802734 5.0605469,3.302735 L 12,13.255859 Z m 0.0098,0.636719 -3.5507816,2.945313 -1.5195313,-0.990235 0,1.111328 L 12.009766,20 l 5.072265,-3.041016 0,-1.111328 -1.519531,0.990235 -3.552734,-2.945313 z"/><rect id="rect4147-8" width="2" height="2" x="-2" y="0" fill="#304050" fill-opacity="1" fill-rule="nonzero" stroke="none" stroke-dasharray="none" stroke-dashoffset="0" stroke-linecap="butt" stroke-linejoin="miter" stroke-miterlimit="4" stroke-opacity="1" stroke-width="1" clip-rule="nonzero" color="#000" color-interpolation="sRGB" color-interpolation-filters="linearRGB" color-rendering="auto" display="inline" enable-background="accumulate" image-rendering="auto" opacity="1" overflow="visible" shape-rendering="auto" text-rendering="auto" visibility="visible" style="isolation:auto;mix-blend-mode:normal;solid-color:#000;solid-opacity:1"/></svg>