<svg xmlns="http://www.w3.org/2000/svg" xmlns:svg="http://www.w3.org/2000/svg" id="svg2" width="24" height="24" version="1.1" viewBox="0 0 24 24"><metadata id="metadata20"/><rect id="rect4147-8" width="2" height="2" x="-2" y="0" fill="#304050" fill-opacity="1" fill-rule="nonzero" stroke="none" stroke-dasharray="none" stroke-dashoffset="0" stroke-linecap="butt" stroke-linejoin="miter" stroke-miterlimit="4" stroke-opacity="1" stroke-width="1" clip-rule="nonzero" color="#000" color-interpolation="sRGB" color-interpolation-filters="linearRGB" color-rendering="auto" display="inline" enable-background="accumulate" image-rendering="auto" opacity="1" overflow="visible" shape-rendering="auto" text-rendering="auto" visibility="visible" style="isolation:auto;mix-blend-mode:normal;solid-color:#000;solid-opacity:1"/><path id="rect4148" fill="#304050" fill-opacity="1" stroke="none" stroke-dasharray="none" stroke-linecap="round" stroke-linejoin="miter" stroke-miterlimit="4" stroke-opacity=".299" stroke-width="1" d="M 12 4 C 11.446 4 11 4.446 11 5 L 11 6.0996094 C 8.7126387 6.5606036 7 8.5728315 7 11 L 7 15 C 5.892 15 5 15.892 5 17 L 5 18 L 11 18 L 11 19 C 11 19.554 11.446 20 12 20 C 12.554 20 13 19.554 13 19 L 13 18 L 19 18 L 19 17 C 19 15.892 18.108 15 17 15 L 17 11 C 17 8.5728315 15.287361 6.5606036 13 6.0996094 L 13 5 C 13 4.446 12.554 4 12 4 z" opacity="1"/><circle id="path4148" cx="17" cy="7" r="3" fill="#f62459" fill-opacity="1" stroke="none" stroke-dasharray="none" stroke-linecap="round" stroke-linejoin="miter" stroke-miterlimit="4" stroke-opacity=".299" stroke-width="1.5" opacity="1"/><rect id="rect4147-8-9" width="2" height="2" x="-2" y="3" fill="#f62459" fill-opacity="1" fill-rule="nonzero" stroke="none" stroke-dasharray="none" stroke-dashoffset="0" stroke-linecap="butt" stroke-linejoin="miter" stroke-miterlimit="4" stroke-opacity="1" stroke-width="1" clip-rule="nonzero" color="#000" color-interpolation="sRGB" color-interpolation-filters="linearRGB" color-rendering="auto" display="inline" enable-background="accumulate" image-rendering="auto" opacity="1" overflow="visible" shape-rendering="auto" text-rendering="auto" visibility="visible" style="isolation:auto;mix-blend-mode:normal;solid-color:#000;solid-opacity:1"/><path id="path4169" fill="#fff" fill-opacity="1" stroke="none" stroke-dasharray="none" stroke-linecap="round" stroke-linejoin="miter" stroke-miterlimit="4" stroke-opacity=".299" stroke-width="1" d="m 17,5 0.657164,1.0954915 1.244949,0.2864746 -0.838799,0.9635254 0.112256,1.2725425 -1.17557,-0.5 -1.175571,0.5 0.112257,-1.2725425 -0.838799,-0.9635255 1.244949,-0.2864745 z" opacity="1" transform="matrix(1.0514622,0,0,1.1055728,-0.77697085,-0.527864)"/></svg>