<svg xmlns="http://www.w3.org/2000/svg" xmlns:svg="http://www.w3.org/2000/svg" id="svg2" width="24" height="24" version="1.1" viewBox="0 0 24 24"><metadata id="metadata20"/><path id="rect4194" fill="#304050" fill-opacity="1" stroke="none" stroke-dasharray="none" stroke-linecap="round" stroke-linejoin="miter" stroke-miterlimit="4" stroke-opacity=".299" stroke-width="1" d="M 2 4 L 2 17 L 9.6660156 17 L 9 19 C 7 19 7 20 7 20 L 10 20 L 12.46875 20 L 15 20 C 15 20 15 19 13 19 L 12.333984 17 L 18 17 L 18 16 L 18 15 L 4 15 L 4 6 L 16 6 L 16 5 L 16 4 L 2 4 z M 19 4 L 19 5 L 20 5 L 20 4 L 19 4 z M 20 5 L 20 7 L 19 7 L 19 5 L 17 5 L 17 10 L 18 10 L 18 11 L 19 11 L 19 12 L 19 16 L 19 17 C 19 17.554 18.554 18 18 18 L 17 18 L 16 18 L 16 19 L 18 19 C 19.108 19 20 18.108 20 17 L 20 11 L 21 11 L 21 10 L 22 10 L 22 5 L 20 5 z" opacity="1"/><rect id="rect4147-8" width="2" height="2" x="-2" y="0" fill="#304050" fill-opacity="1" fill-rule="nonzero" stroke="none" stroke-dasharray="none" stroke-dashoffset="0" stroke-linecap="butt" stroke-linejoin="miter" stroke-miterlimit="4" stroke-opacity="1" stroke-width="1" clip-rule="nonzero" color="#000" color-interpolation="sRGB" color-interpolation-filters="linearRGB" color-rendering="auto" display="inline" enable-background="accumulate" image-rendering="auto" opacity="1" overflow="visible" shape-rendering="auto" text-rendering="auto" visibility="visible" style="isolation:auto;mix-blend-mode:normal;solid-color:#000;solid-opacity:1"/></svg>