<svg xmlns="http://www.w3.org/2000/svg" xmlns:svg="http://www.w3.org/2000/svg" id="svg2" width="24" height="24" version="1.1" viewBox="0 0 24 24"><metadata id="metadata20"/><rect id="rect4147-8" width="2" height="2" x="-2" y="0" fill="#304050" fill-opacity="1" fill-rule="nonzero" stroke="none" stroke-dasharray="none" stroke-dashoffset="0" stroke-linecap="butt" stroke-linejoin="miter" stroke-miterlimit="4" stroke-opacity="1" stroke-width="1" clip-rule="nonzero" color="#000" color-interpolation="sRGB" color-interpolation-filters="linearRGB" color-rendering="auto" display="inline" enable-background="accumulate" image-rendering="auto" opacity="1" overflow="visible" shape-rendering="auto" text-rendering="auto" visibility="visible" style="isolation:auto;mix-blend-mode:normal;solid-color:#000;solid-opacity:1"/><path id="circle4172" fill="#304050" fill-opacity="1" stroke="none" stroke-dasharray="none" stroke-linecap="round" stroke-linejoin="miter" stroke-miterlimit="4" stroke-opacity=".299" stroke-width="14.23" d="M 12 4 A 15 13.499998 0 0 0 1.7324219 7.6796875 L 3.0019531 9.203125 A 13 11.499998 0 0 1 12 6 A 13 11.499998 0 0 1 20.990234 9.2128906 L 22.271484 7.6738281 A 15 13.499998 0 0 0 12 4 z" opacity=".12"/><path id="path4177" fill="#304050" fill-opacity="1" stroke="none" stroke-dasharray="none" stroke-linecap="round" stroke-linejoin="miter" stroke-miterlimit="4" stroke-opacity=".299" stroke-width="11.897" d="M 12 8 A 11 9.4999982 0 0 0 4.2832031 10.740234 L 5.5605469 12.271484 A 9 7.4999983 0 0 1 12 10 A 9 7.4999983 0 0 1 18.445312 12.265625 L 19.71875 10.736328 A 11 9.4999982 0 0 0 12 8 z" opacity=".25"/><path id="path4190" fill="#304050" fill-opacity="1" stroke="none" stroke-dasharray="none" stroke-linecap="round" stroke-linejoin="miter" stroke-miterlimit="4" stroke-opacity=".299" stroke-width="8.985" d="M 12 12 A 7 5.4999982 0 0 0 6.8320312 13.798828 L 8.0976562 15.318359 A 5 3.4999984 0 0 1 12 14 A 5 3.4999984 0 0 1 15.904297 15.314453 L 17.167969 13.798828 A 7 5.4999982 0 0 0 12 12 z" opacity=".5"/><path id="path4210" fill="#304050" fill-opacity="1" stroke="none" stroke-dasharray="none" stroke-linecap="round" stroke-linejoin="miter" stroke-miterlimit="4" stroke-opacity=".299" stroke-width="5.261" d="M 12 16 A 3 1.999999 0 0 0 9.4550781 16.945312 L 12 20 L 14.544922 16.945312 A 3 1.999999 0 0 0 12 16 z" opacity="1"/><path id="path4216" fill="#304050" fill-opacity="1" fill-rule="evenodd" stroke="#000" stroke-linecap="butt" stroke-linejoin="miter" stroke-opacity="1" stroke-width="1" d="M 12,20 Z"/></svg>