<svg xmlns="http://www.w3.org/2000/svg" xmlns:svg="http://www.w3.org/2000/svg" xmlns:xlink="http://www.w3.org/1999/xlink" id="svg2" width="64" height="64" version="1.1" viewBox="0 0 64 64"><defs id="defs4"><linearGradient id="Shadow"><stop id="stop4186" offset="0" stop-color="#000" stop-opacity="1"/><stop id="stop4188" offset="1" stop-color="#000" stop-opacity="0"/></linearGradient><radialGradient id="radialGradient4259-4" cx="4" cy="42.5" r="1.5" fx="4" fy="42.5" gradientTransform="matrix(-2.0000003,-2.935184e-6,3.9135795e-6,-2.6666677,22.99984,1228.853)" gradientUnits="userSpaceOnUse" xlink:href="#Shadow"/><linearGradient id="linearGradient4257-1" x1="24" x2="24" y1="42" y2="46" gradientTransform="translate(9.999995,1073.5196)" gradientUnits="userSpaceOnUse" xlink:href="#Shadow"/><radialGradient id="radialGradient4255-6" cx="44" cy="42.5" r="1.5" fx="44" fy="42.5" gradientTransform="matrix(-5.6193702e-6,2.666668,-2.0000002,-4.214526e-6,134.00027,998.1864)" gradientUnits="userSpaceOnUse" xlink:href="#Shadow"/></defs><metadata id="metadata7"/><g id="layer1" transform="translate(0,-1058.5196)"><rect id="rect4271" width="22" height="2" x="20" y="1071.52" fill="#9e9e9e" fill-opacity="1" stroke="none" stroke-dasharray="none" stroke-linecap="round" stroke-linejoin="round" stroke-miterlimit="4" stroke-opacity="1" stroke-width="2" opacity="1"/><path id="path4265" fill="#fbc02d" fill-opacity="1" stroke="none" stroke-dasharray="none" stroke-linecap="round" stroke-linejoin="round" stroke-miterlimit="4" stroke-opacity="1" stroke-width="2" d="m 31,1070.5196 c -0.55397,0 -1.027665,0.4467 -1,1 l 0,2 10,0 0,-2 c 0,-0.554 -0.44603,-1 -1,-1 z" opacity="1"/><path id="path4255" fill="#fbc02d" fill-opacity="1" stroke="none" stroke-dasharray="none" stroke-linecap="round" stroke-linejoin="round" stroke-miterlimit="4" stroke-opacity="1" stroke-width="2" d="m 23,1070.5196 c -0.55397,0 -1,0.446 -1,1 l 0,2 7,0 0,-2 c 0,-0.554 -0.44603,-1 -1,-1 z" opacity="1"/><rect id="rect4287" width="7" height="1" x="22" y="-1072.52" fill="#fdd835" fill-opacity="1" stroke="none" stroke-dasharray="none" stroke-linecap="round" stroke-linejoin="round" stroke-miterlimit="4" stroke-opacity="1" stroke-width="2" opacity="1" transform="scale(1,-1)"/><path id="path4249-5" fill="url(#radialGradient4255-6)" fill-opacity="1" stroke="none" stroke-dasharray="none" stroke-linecap="butt" stroke-linejoin="round" stroke-miterlimit="4" stroke-opacity="1" stroke-width="2" d="m 48.999995,1115.5196 0,4 1,0 c 1.108,0 2,-0.892 2,-2 l 0,-2 -3,0 z" opacity=".7"/><path id="path4251-7" fill="url(#linearGradient4257-1)" fill-opacity="1" stroke="none" stroke-dasharray="none" stroke-linecap="butt" stroke-linejoin="round" stroke-miterlimit="4" stroke-opacity="1" stroke-width="2" d="m 14.999995,1115.5196 0,4 34,0 0,-4 z" opacity=".7"/><path id="path4253-6" fill="url(#radialGradient4259-4)" fill-opacity="1" stroke="none" stroke-dasharray="none" stroke-linecap="butt" stroke-linejoin="round" stroke-miterlimit="4" stroke-opacity="1" stroke-width="2" d="m 12,1115.5196 0,2 c 0,1.108 0.892,2 2,2 l 1,0 0,-4 -3,0 z" opacity=".7"/><path id="rect4160" fill="#bdbdbd" fill-opacity="1" stroke="none" stroke-dasharray="none" stroke-linecap="round" stroke-linejoin="round" stroke-miterlimit="4" stroke-opacity="1" stroke-width="2" d="M 14 11 C 12.89203 11 12 11.89203 12 13 L 12 57 C 12 58.10797 12.89203 59 14 59 L 50 59 C 51.10797 59 52 58.10797 52 57 L 52 13 C 52 11.89203 51.10797 11 50 11 L 44 11 L 43 11 C 41.89203 11 41 11.892 41 13 L 41 14 L 42 14 L 42 15 L 20 15 L 20 14 L 21 14 L 21 13 C 21 11.892 20.10797 11 19 11 L 18 11 L 14 11 z" opacity="1" transform="translate(0,1058.5196)"/><path id="rect4162" fill="#e0e0e0" fill-opacity="1" stroke="none" stroke-dasharray="none" stroke-linecap="round" stroke-linejoin="round" stroke-miterlimit="4" stroke-opacity="1" stroke-width="2" d="M 14 12 C 13.44603 12 13 12.44603 13 13 L 13 57 C 13 57.55397 13.44603 58 14 58 L 50 58 C 50.55397 58 51 57.55397 51 57 L 51 13 C 51 12.44603 50.55397 12 50 12 L 44 12 L 43 12 C 42.44603 12 42 12.446 42 13 L 42 15 L 20 15 L 20 13 C 20 12.446 19.55397 12 19 12 L 18 12 L 14 12 z" opacity="1" transform="translate(0,1058.5196)"/><path id="path4166" fill="#bdbdbd" fill-opacity="1" stroke="none" stroke-dasharray="none" stroke-linecap="round" stroke-linejoin="round" stroke-miterlimit="4" stroke-opacity="1" stroke-width="2" d="M 12 13 L 12 16 L 15.5 16 A 1.5 1.5 0 0 0 17 14.5 A 1.5 1.5 0 0 0 15.5 13 L 12 13 z M 48.5 13 A 1.5 1.5 0 0 0 47 14.5 A 1.5 1.5 0 0 0 48.5 16 L 52 16 L 52 13 L 48.5 13 z M 12 54 L 12 57 L 15.5 57 A 1.5 1.5 0 0 0 17 55.5 A 1.5 1.5 0 0 0 15.5 54 L 12 54 z M 48.5 54 A 1.5 1.5 0 0 0 47 55.5 A 1.5 1.5 0 0 0 48.5 57 L 52 57 L 52 54 L 48.5 54 z" opacity="1" transform="translate(0,1058.5196)"/><circle id="circle4168" cx="15.5" cy="1073.02" r=".5" fill="#757575" fill-opacity="1" stroke="none" stroke-dasharray="none" stroke-linecap="round" stroke-linejoin="round" stroke-miterlimit="4" stroke-opacity="1" stroke-width="2" opacity="1"/><circle id="circle4172" cx="48.5" cy="1073.02" r=".5" fill="#757575" fill-opacity="1" stroke="none" stroke-dasharray="none" stroke-linecap="round" stroke-linejoin="round" stroke-miterlimit="4" stroke-opacity="1" stroke-width="2" opacity="1"/><circle id="circle4176" cx="15.5" cy="1114.019" r=".5" fill="#757575" fill-opacity="1" stroke="none" stroke-dasharray="none" stroke-linecap="round" stroke-linejoin="round" stroke-miterlimit="4" stroke-opacity="1" stroke-width="2" opacity="1"/><circle id="circle4180" cx="48.5" cy="1114.019" r=".5" fill="#757575" fill-opacity="1" stroke="none" stroke-dasharray="none" stroke-linecap="round" stroke-linejoin="round" stroke-miterlimit="4" stroke-opacity="1" stroke-width="2" opacity="1"/><path id="path4206" fill="#bdbdbd" fill-opacity="1" stroke="none" stroke-dasharray="none" stroke-linecap="round" stroke-linejoin="round" stroke-miterlimit="4" stroke-opacity="1" stroke-width="2" d="M 47 30 L 17 30 L 17 53 C 17 53.55397 17.44603 54 18 54 L 46 54 C 46.55397 54 47 53.55397 47 53 L 47 30 z" opacity="1" transform="translate(0,1058.5196)"/><path id="rect4191" fill="#42a5f5" fill-opacity="1" stroke="none" stroke-dasharray="none" stroke-linecap="round" stroke-linejoin="round" stroke-miterlimit="4" stroke-opacity="1" stroke-width="2" d="M 18 16 C 17.44603 16 17 16.44603 17 17 L 17 30 L 47 30 L 47 17 C 47 16.44603 46.55397 16 46 16 L 18 16 z" opacity="1" transform="translate(0,1058.5196)"/><rect id="rect4195" width="28" height="12" x="18" y="1075.52" fill="#64b5f6" fill-opacity="1" stroke="none" stroke-dasharray="none" stroke-linecap="round" stroke-linejoin="round" stroke-miterlimit="4" stroke-opacity="1" stroke-width="2" opacity="1" ry="0"/><rect id="rect4201" width="28" height="22" x="18" y="1089.52" fill="#fafafa" fill-opacity="1" stroke="none" stroke-dasharray="none" stroke-linecap="round" stroke-linejoin="round" stroke-miterlimit="4" stroke-opacity="1" stroke-width="2" opacity="1" ry="0"/><rect id="rect4267" width="10" height="1" x="30" y="-1072.52" fill="#fdd835" fill-opacity="1" stroke="none" stroke-dasharray="none" stroke-linecap="round" stroke-linejoin="round" stroke-miterlimit="4" stroke-opacity="1" stroke-width="2" opacity="1" transform="scale(1,-1)"/><rect id="rect4291" width="22" height="1" x="20" y="1072.52" fill="#bdbdbd" fill-opacity="1" stroke="none" stroke-dasharray="none" stroke-linecap="round" stroke-linejoin="round" stroke-miterlimit="4" stroke-opacity="1" stroke-width="2" opacity="1"/><rect id="rect4347" width="19" height="1" x="19" y="1076.52" fill="#bbdefb" fill-opacity="1" stroke="none" stroke-dasharray="none" stroke-linecap="round" stroke-linejoin="round" stroke-miterlimit="4" stroke-opacity="1" stroke-width="2" opacity="1"/><rect id="rect4349" width="12" height="1" x="19" y="1078.52" fill="#bbdefb" fill-opacity="1" stroke="none" stroke-dasharray="none" stroke-linecap="round" stroke-linejoin="round" stroke-miterlimit="4" stroke-opacity="1" stroke-width="2" opacity="1"/><rect id="rect4351" width="6" height="1" x="19" y="1080.52" fill="#bbdefb" fill-opacity="1" stroke="none" stroke-dasharray="none" stroke-linecap="round" stroke-linejoin="round" stroke-miterlimit="4" stroke-opacity="1" stroke-width="2" opacity="1"/><rect id="rect4353" width="9" height="1" x="27" y="1080.52" fill="#bbdefb" fill-opacity="1" stroke="none" stroke-dasharray="none" stroke-linecap="round" stroke-linejoin="round" stroke-miterlimit="4" stroke-opacity="1" stroke-width="2" opacity="1"/><rect id="rect4355" width="6" height="1" x="19" y="-1084.52" fill="#bbdefb" fill-opacity="1" stroke="none" stroke-dasharray="none" stroke-linecap="round" stroke-linejoin="round" stroke-miterlimit="4" stroke-opacity="1" stroke-width="2" opacity="1" transform="scale(1,-1)"/><path id="rect4357" fill="#e3f2fd" fill-opacity="1" stroke="none" stroke-dasharray="none" stroke-linecap="round" stroke-linejoin="round" stroke-miterlimit="4" stroke-opacity="1" stroke-width="2" d="M 41 24 L 41 25 L 43 25 L 43 24 L 41 24 z M 43 25 L 43 26 L 44 26 L 44 25 L 43 25 z M 43 26 L 42 26 L 41 26 L 41 27 L 42 27 L 42 28 L 43 28 L 44 28 L 44 27 L 43 27 L 43 26 z M 41 27 L 40 27 L 40 28 L 41 28 L 41 27 z M 41 26 L 41 25 L 40 25 L 40 26 L 41 26 z" opacity="1" transform="translate(0,1058.5196)"/><path id="path4371" fill="#424242" fill-opacity="1" fill-rule="evenodd" stroke="none" stroke-linecap="butt" stroke-linejoin="miter" stroke-opacity="1" stroke-width="1" d="m 43,1110.5196 -2,-3 -2,3 z"/><rect id="rect4192" width="1" height="5" x="19" y="1105.52" fill="#424242" fill-opacity="1" stroke="none" stroke-dasharray="none" stroke-linecap="round" stroke-linejoin="round" stroke-miterlimit="4" stroke-opacity="1" stroke-width="2" opacity="1"/><rect id="rect4194" width="2" height="5" x="21" y="1105.52" fill="#424242" fill-opacity="1" stroke="none" stroke-dasharray="none" stroke-linecap="round" stroke-linejoin="round" stroke-miterlimit="4" stroke-opacity="1" stroke-width="2" opacity="1"/><rect id="rect4196" width="2" height="5" x="24" y="1105.52" fill="#424242" fill-opacity="1" stroke="none" stroke-dasharray="none" stroke-linecap="round" stroke-linejoin="round" stroke-miterlimit="4" stroke-opacity="1" stroke-width="2" opacity="1"/><rect id="rect4198" width="1" height="5" x="27" y="1105.52" fill="#424242" fill-opacity="1" stroke="none" stroke-dasharray="none" stroke-linecap="round" stroke-linejoin="round" stroke-miterlimit="4" stroke-opacity="1" stroke-width="2" opacity="1"/><rect id="rect4203" width="1" height="5" x="29" y="1105.52" fill="#424242" fill-opacity="1" stroke="none" stroke-dasharray="none" stroke-linecap="round" stroke-linejoin="round" stroke-miterlimit="4" stroke-opacity="1" stroke-width="2" opacity="1"/><rect id="rect4397" width="13" height="6" x="32" y="1094.519" fill="#fdd835" fill-opacity="1" stroke="none" stroke-dasharray="none" stroke-linecap="round" stroke-linejoin="round" stroke-miterlimit="4" stroke-opacity="1" stroke-width="2" opacity="1" ry="1"/><rect id="rect4399" width="9" height="1" x="33" y="1095.519" fill="#424242" fill-opacity="1" stroke="none" stroke-dasharray="none" stroke-linecap="round" stroke-linejoin="round" stroke-miterlimit="4" stroke-opacity="1" stroke-width="2" opacity="1" ry="0"/><rect id="rect4401" width="5" height="1" x="33" y="1097.519" fill="#424242" fill-opacity="1" stroke="none" stroke-dasharray="none" stroke-linecap="round" stroke-linejoin="round" stroke-miterlimit="4" stroke-opacity="1" stroke-width="2" opacity="1"/><rect id="rect4405" width="1" height="1" x="39" y="1097.519" fill="#424242" fill-opacity="1" stroke="none" stroke-dasharray="none" stroke-linecap="round" stroke-linejoin="round" stroke-miterlimit="4" stroke-opacity="1" stroke-width="2" opacity="1"/><rect id="rect4436" width="2" height="2" x="42" y="1097.519" fill="#424242" fill-opacity="1" stroke="none" stroke-dasharray="none" stroke-linecap="round" stroke-linejoin="round" stroke-miterlimit="4" stroke-opacity="1" stroke-width="2" opacity="1" ry="0"/><rect id="rect4225" width="10" height="1" x="20" y="1091.519" fill="#424242" fill-opacity="1" stroke="none" stroke-dasharray="none" stroke-linecap="round" stroke-linejoin="round" stroke-miterlimit="4" stroke-opacity="1" stroke-width="2" opacity="1" ry="0"/><rect id="rect4229" width="3" height="1" x="20" y="1093.519" fill="#424242" fill-opacity="1" stroke="none" stroke-dasharray="none" stroke-linecap="round" stroke-linejoin="round" stroke-miterlimit="4" stroke-opacity="1" stroke-width="2" opacity="1"/><rect id="rect4231" width="7" height="1" x="20" y="1095.519" fill="#424242" fill-opacity="1" stroke="none" stroke-dasharray="none" stroke-linecap="round" stroke-linejoin="round" stroke-miterlimit="4" stroke-opacity="1" stroke-width="2" opacity="1"/><rect id="rect4233" width="4" height="1" x="20" y="1097.519" fill="#424242" fill-opacity="1" stroke="none" stroke-dasharray="none" stroke-linecap="round" stroke-linejoin="round" stroke-miterlimit="4" stroke-opacity="1" stroke-width="2" opacity="1"/><rect id="rect4235" width="7" height="1" x="32" y="1105.52" fill="#424242" fill-opacity="1" stroke="none" stroke-dasharray="none" stroke-linecap="round" stroke-linejoin="round" stroke-miterlimit="4" stroke-opacity="1" stroke-width="2" opacity="1"/><rect id="rect4237" width="3" height="1" x="33" y="1107.52" fill="#424242" fill-opacity="1" stroke="none" stroke-dasharray="none" stroke-linecap="round" stroke-linejoin="round" stroke-miterlimit="4" stroke-opacity="1" stroke-width="2" opacity="1"/></g></svg>