<svg xmlns="http://www.w3.org/2000/svg" xmlns:svg="http://www.w3.org/2000/svg" xmlns:xlink="http://www.w3.org/1999/xlink" id="svg2" width="64" height="64" version="1.1" viewBox="0 0 64 64"><defs id="defs4"><linearGradient id="Shadow"><stop id="stop4186" offset="0" stop-color="#000" stop-opacity="1"/><stop id="stop4188" offset="1" stop-color="#000" stop-opacity="0"/></linearGradient><radialGradient id="radialGradient4259-4" cx="4" cy="42.5" r="1.5" fx="4" fy="42.5" gradientTransform="matrix(-2.0000003,-2.935184e-6,3.9135795e-6,-2.6666677,26.99984,1228.853)" gradientUnits="userSpaceOnUse" xlink:href="#Shadow"/><linearGradient id="linearGradient4257-1" x1="24" x2="24" y1="42" y2="46" gradientTransform="translate(9.999995,1073.5196)" gradientUnits="userSpaceOnUse" xlink:href="#Shadow"/><radialGradient id="radialGradient4255-6" cx="44" cy="42.5" r="1.5" fx="44" fy="42.5" gradientTransform="matrix(-5.6193702e-6,2.666668,-2.0000002,-4.214526e-6,130.00027,998.1864)" gradientUnits="userSpaceOnUse" xlink:href="#Shadow"/><linearGradient id="linearGradient4184" x1="30" x2="30" y1="1077.52" y2="1079.52" gradientUnits="userSpaceOnUse" xlink:href="#Shadow"/></defs><metadata id="metadata7"/><g id="layer1" transform="translate(0,-1058.5196)"><path id="path4249-5" fill="url(#radialGradient4255-6)" fill-opacity="1" stroke="none" stroke-dasharray="none" stroke-linecap="butt" stroke-linejoin="round" stroke-miterlimit="4" stroke-opacity="1" stroke-width="2" d="m 45,1115.5196 0,4 1,0 c 1.108,0 2,-0.892 2,-2 l 0,-2 -3,0 z" opacity=".7"/><path id="path4251-7" fill="url(#linearGradient4257-1)" fill-opacity="1" stroke="none" stroke-dasharray="none" stroke-linecap="butt" stroke-linejoin="round" stroke-miterlimit="4" stroke-opacity="1" stroke-width="2" d="m 19,1115.5196 0,4 26,0 0,-4 z" opacity=".7"/><path id="path4253-6" fill="url(#radialGradient4259-4)" fill-opacity="1" stroke="none" stroke-dasharray="none" stroke-linecap="butt" stroke-linejoin="round" stroke-miterlimit="4" stroke-opacity="1" stroke-width="2" d="m 16,1115.5196 0,2 c 0,1.108 0.892,2 2,2 l 1,0 0,-4 -3,0 z" opacity=".7"/><rect id="rect4159" width="32" height="53" x="16" y="1064.52" fill="#263238" fill-opacity="1" stroke="none" stroke-dasharray="none" stroke-linecap="round" stroke-linejoin="miter" stroke-miterlimit="4" stroke-opacity=".299" stroke-width="1" opacity="1" ry="3"/><rect id="rect4355" width="6" height="1" x="29" y="1067.52" fill="#263238" fill-opacity="1" stroke="none" stroke-dasharray="none" stroke-linecap="round" stroke-linejoin="miter" stroke-miterlimit="4" stroke-opacity=".299" stroke-width="1" opacity="1" ry="0"/><rect id="rect4215" width="30" height="51" x="17" y="1065.52" fill="#37474f" fill-opacity="1" stroke="none" stroke-dasharray="none" stroke-linecap="round" stroke-linejoin="round" stroke-miterlimit="4" stroke-opacity="1" stroke-width="2" opacity="1" ry="2"/><rect id="rect4204" width="28" height="42" x="18" y="1070.52" fill="#37474f" fill-opacity="1" stroke="none" stroke-dasharray="none" stroke-linecap="round" stroke-linejoin="round" stroke-miterlimit="4" stroke-opacity="1" stroke-width="2" opacity="1" ry="0"/><rect id="rect4369" width="26" height="40" x="19" y="1071.52" fill="#81d4fa" fill-opacity="1" stroke="none" stroke-dasharray="none" stroke-linecap="round" stroke-linejoin="round" stroke-miterlimit="4" stroke-opacity="1" stroke-width="2" opacity="1"/><rect id="rect4209" width="4" height="2" x="30" y="1113.52" fill="#263238" fill-opacity="1" stroke="none" stroke-dasharray="none" stroke-linecap="round" stroke-linejoin="miter" stroke-miterlimit="4" stroke-opacity=".299" stroke-width="1" opacity="1" ry="1"/><circle id="path4211" cx="40" cy="1068.52" r="1" fill="#263238" fill-opacity="1" stroke="none" stroke-dasharray="none" stroke-linecap="round" stroke-linejoin="round" stroke-miterlimit="4" stroke-opacity="1" stroke-width="2" opacity="1"/><rect id="rect4213" width="2" height="1" x="22" y="1068.52" fill="#263238" fill-opacity="1" stroke="none" stroke-dasharray="none" stroke-linecap="round" stroke-linejoin="round" stroke-miterlimit="4" stroke-opacity="1" stroke-width="2" opacity="1"/><rect id="rect4217" width="6" height="2" x="29" y="1067.52" fill="#263238" fill-opacity="1" stroke="none" stroke-dasharray="none" stroke-linecap="round" stroke-linejoin="round" stroke-miterlimit="4" stroke-opacity="1" stroke-width="2" opacity="1" ry="1"/><path id="path4349" fill="#4db6ac" fill-opacity="1" fill-rule="evenodd" stroke="none" stroke-linecap="butt" stroke-linejoin="miter" stroke-opacity="1" stroke-width="1" d="m 34,1084.5196 -7,1 -5,7 -3,2 0,13 26,0 0,-6 -3,-3 -2,-7 -6,-7 z"/><path id="path4351" fill="#009688" fill-opacity="1" fill-rule="evenodd" stroke="none" stroke-linecap="butt" stroke-linejoin="miter" stroke-opacity="1" stroke-width="1" d="m 19,1102.2696 0,7.25 9,0 -3,-4 -5,-3 -1,-0.25 z"/><path id="path4353" fill="#80cbc4" fill-opacity="1" fill-rule="evenodd" stroke="none" stroke-linecap="butt" stroke-linejoin="miter" stroke-opacity="1" stroke-width="1" d="m 34,1084.5196 -2,1 -1,3 2,1 1,2 0,3 2,2 3,0 2,4 1,0 2,1 1,0 -3,-3 -2,-7 -6,-7 z"/><path id="path4355" fill="#26a69a" fill-opacity="1" fill-rule="evenodd" stroke="none" stroke-linecap="butt" stroke-linejoin="miter" stroke-opacity="1" stroke-width="1" d="m 25,1100.5196 -2,1 -1,1 -1,1 0.923828,0.4609 -2.923828,3.2891 0,2.25 26,0 0,-9 -4,3 -2,3 -4,1 -2,-2 -4,-2 -4,-3 z"/><path id="path4357" fill="#00897b" fill-opacity="1" fill-rule="evenodd" stroke="none" stroke-linecap="butt" stroke-linejoin="miter" stroke-opacity="1" stroke-width="1" d="m 24,1104.5196 -5,0.834 0,6.166 17,0 -3,-1 -3,-3 -6,-3 z"/><path id="path4359" fill="#009688" fill-opacity="1" fill-rule="evenodd" stroke="none" stroke-linecap="butt" stroke-linejoin="miter" stroke-opacity="1" stroke-width="1" d="m 39,1102.5196 -3,2 c 0,0 -2,3 -3,4 -1,1 -4,2 -4,2 l 0.5,1 15.5,0 0,-8 c 0,0 -2,-1 -3,-1 l -3,0 z"/><path id="path4361" fill="#00695c" fill-opacity="1" fill-rule="evenodd" stroke="none" stroke-linecap="butt" stroke-linejoin="miter" stroke-opacity="1" stroke-width="1" d="m 31,1097.5196 -3,5 -6,4 -3,3 0,2 26,0 0,-5 -2,-1 -6,-7 -6,-1 z"/><path id="path4363" fill="#26a69a" fill-opacity="1" fill-rule="evenodd" stroke="none" stroke-linecap="butt" stroke-linejoin="miter" stroke-opacity="1" stroke-width="1" d="m 19,1102.2696 0,2.25 2,0 0.539062,-1.0762 L 20,1102.5196 l -1,-0.25 z"/><path id="path4365" fill="#00796b" fill-opacity="1" fill-rule="evenodd" stroke="none" stroke-linecap="butt" stroke-linejoin="miter" stroke-opacity="1" stroke-width="1" d="m 37,1098.5196 -2,3 1,2 2,2 0,1 1,2 2,1 2,1 0.666016,1 1.333984,0 0,-5 -2,-1 -6,-7 z"/><rect id="rect4176" width="24" height="2" x="20" y="1077.52" fill="url(#linearGradient4184)" fill-opacity="1" stroke="none" stroke-dasharray="none" stroke-linecap="round" stroke-linejoin="round" stroke-miterlimit="4" stroke-opacity="1" stroke-width="2" opacity="1"/><rect id="rect4244" width="24" height="4" x="20" y="1074.52" fill="#fff" fill-opacity="1" stroke="none" stroke-dasharray="none" stroke-linecap="round" stroke-linejoin="miter" stroke-miterlimit="4" stroke-opacity=".299" stroke-width="1" opacity="1"/><circle id="path4246" cx="42" cy="1076.519" r="1" fill="#666" fill-opacity="1" stroke="none" stroke-dasharray="none" stroke-linecap="round" stroke-linejoin="miter" stroke-miterlimit="4" stroke-opacity=".299" stroke-width="1" opacity="1"/><ellipse id="path4248" cx="32" cy="1109.519" fill="#fff" fill-opacity="1" stroke="none" stroke-dasharray="none" stroke-linecap="round" stroke-linejoin="miter" stroke-miterlimit="4" stroke-opacity=".299" stroke-width="1" opacity="1" rx="1" ry="1"/><path id="path4252" fill="#fff" fill-opacity="1" fill-rule="evenodd" stroke="none" stroke-linecap="butt" stroke-linejoin="miter" stroke-opacity="1" stroke-width="1" d="m 26,1110.5196 -2,-1 2,-1 z"/><rect id="rect4254" width="2" height="2" x="38" y="1108.519" fill="#fff" fill-opacity="1" stroke="none" stroke-dasharray="none" stroke-linecap="round" stroke-linejoin="miter" stroke-miterlimit="4" stroke-opacity=".299" stroke-width="1" opacity="1"/></g></svg>