<svg xmlns="http://www.w3.org/2000/svg" xmlns:svg="http://www.w3.org/2000/svg" xmlns:xlink="http://www.w3.org/1999/xlink" id="svg2" width="32" height="32" version="1.1" viewBox="0 0 32 32"><defs id="defs4"><linearGradient id="Shadow"><stop id="stop4170" offset="0" stop-color="#000" stop-opacity="1"/><stop id="stop4174" offset=".692" stop-color="#000" stop-opacity="1"/><stop id="stop4172" offset="1" stop-color="#000" stop-opacity="0"/></linearGradient><radialGradient id="radialGradient4166" cx="16" cy="1039.362" r="13" fx="16" fy="1039.362" gradientUnits="userSpaceOnUse" xlink:href="#Shadow"/></defs><metadata id="metadata7"/><g id="layer1" transform="translate(0,-1020.3622)"><circle id="path4162" cx="16" cy="1039.362" r="13" fill="url(#radialGradient4166)" fill-opacity="1" stroke="none" stroke-dasharray="none" stroke-linecap="round" stroke-linejoin="round" stroke-miterlimit="4" stroke-opacity="1" stroke-width="2" opacity="1"/><circle id="circle4176" cx="16" cy="1037.362" r="13" fill="#ffb74d" fill-opacity="1" stroke="none" stroke-dasharray="none" stroke-linecap="round" stroke-linejoin="round" stroke-miterlimit="4" stroke-opacity="1" stroke-width="2" opacity="1"/><circle id="circle4182" cx="16" cy="1037.362" r="12" fill="#ffcc80" fill-opacity="1" stroke="none" stroke-dasharray="none" stroke-linecap="round" stroke-linejoin="round" stroke-miterlimit="4" stroke-opacity="1" stroke-width="2" opacity="1"/><path id="path4236" fill="#424242" fill-opacity="1" stroke="none" stroke-dasharray="none" stroke-linecap="round" stroke-linejoin="round" stroke-miterlimit="4" stroke-opacity="1" stroke-width="1" d="m 11.5,1030.3622 a 3.5,3.5 0 0 0 -3.5,3.5 l 0,2.5 1,0 0,-2.5 a 2.5,2.5 0 0 1 2.5,-2.5 2.5,2.5 0 0 1 2.5,2.5 l 0,2.5 1,0 0,-2.5 a 3.5,3.5 0 0 0 -3.5,-3.5 z" opacity="1"/><path id="path4268" fill="#424242" fill-opacity="1" stroke="none" stroke-dasharray="none" stroke-linecap="round" stroke-linejoin="round" stroke-miterlimit="4" stroke-opacity="1" stroke-width="1" d="m 20.5,1030.3622 a 3.5,3.5 0 0 0 -3.5,3.5 l 0,2.5 1,0 0,-2.5 a 2.5,2.5 0 0 1 2.5,-2.5 2.5,2.5 0 0 1 2.5,2.5 l 0,2.5 1,0 0,-2.5 a 3.5,3.5 0 0 0 -3.5,-3.5 z" opacity="1"/><path id="path4278" fill="#424242" fill-opacity="1" stroke="none" stroke-dasharray="none" stroke-linecap="round" stroke-linejoin="round" stroke-miterlimit="4" stroke-opacity="1" stroke-width="1" d="m 10.015625,1041.6142 a 6,3.5 0 0 0 -0.01563,0.248 6,3.5 0 0 0 6,3.5 6,3.5 0 0 0 6,-3.5 6,3.5 0 0 0 -0.02148,-0.248 l -0.986328,0.125 a 5,2.5 0 0 1 0.0078,0.123 5,2.5 0 0 1 -5,2.5 5,2.5 0 0 1 -5,-2.5 5,2.5 0 0 1 0.01172,-0.123 l -0.996094,-0.125 z" opacity="1"/></g></svg>