<svg xmlns="http://www.w3.org/2000/svg" xmlns:svg="http://www.w3.org/2000/svg" id="svg4359" width="22" height="22" version="1.1"><metadata id="metadata4364"/><g id="layer1" transform="translate(0,-26)"><rect id="rect4147" width="2" height="2" x="-2" y="26" fill="#304050" fill-opacity="1" fill-rule="nonzero" stroke="none" stroke-dasharray="none" stroke-dashoffset="0" stroke-linecap="butt" stroke-linejoin="miter" stroke-miterlimit="4" stroke-opacity="1" stroke-width="1" clip-rule="nonzero" color="#000" color-interpolation="sRGB" color-interpolation-filters="linearRGB" color-rendering="auto" display="inline" enable-background="accumulate" image-rendering="auto" opacity="1" overflow="visible" shape-rendering="auto" text-rendering="auto" visibility="visible" style="isolation:auto;mix-blend-mode:normal;solid-color:#000;solid-opacity:1"/><path id="rect4173-7" fill="#304050" fill-opacity="1" stroke="none" stroke-opacity="1" d="m 15,39 0,2 -2,0 0,2 2,0 0,2 2,0 0,-2 2,0 0,-2 -2,0 0,-2 -2,0 z" opacity="1"/><path id="rect4158" fill="#304050" fill-opacity="1" stroke="none" stroke-dasharray="none" stroke-linecap="round" stroke-linejoin="miter" stroke-miterlimit="4" stroke-opacity=".299" stroke-width=".1" d="M 6 3 L 6 5 L 6 19 L 6.0058594 19 L 6.8378906 18.498047 L 8 17.800781 L 8 17.794922 L 11 15.984375 L 11 13.650391 L 8 15.460938 L 8 5 L 14 5 L 14 11 L 16 11 L 16 5 L 16 3 L 6 3 z" opacity="1" transform="translate(0,26)"/></g></svg>