<svg xmlns="http://www.w3.org/2000/svg" xmlns:svg="http://www.w3.org/2000/svg" id="svg4359" width="22" height="22" version="1.1"><metadata id="metadata4364"/><g id="layer1" transform="translate(0,-26)"><path id="path4152" fill="#eee" fill-opacity="1" stroke="none" stroke-dasharray="none" stroke-linecap="round" stroke-linejoin="miter" stroke-miterlimit="4" stroke-opacity=".299" stroke-width=".1" d="M 11 3 C 11 3 5 9.686292 5 13 C 5 16.313708 7.6862915 19 11 19 C 14.313708 19 17 16.313708 17 13 C 17 9.686292 11 3 11 3 z M 6.2109375 11.568359 A 6 6 0 0 0 12 16 A 6 6 0 0 0 15.683594 14.732422 A 5 5 0 0 1 11 18 A 5 5 0 0 1 6 13 A 5 5 0 0 1 6.2109375 11.568359 z" opacity="1" transform="translate(0,26)"/><rect id="rect4147" width="2" height="2" x="-2" y="26" fill="#eee" fill-opacity="1" fill-rule="nonzero" stroke="none" stroke-dasharray="none" stroke-dashoffset="0" stroke-linecap="butt" stroke-linejoin="miter" stroke-miterlimit="4" stroke-opacity="1" stroke-width="1" clip-rule="nonzero" color="#000" color-interpolation="sRGB" color-interpolation-filters="linearRGB" color-rendering="auto" display="inline" enable-background="accumulate" image-rendering="auto" opacity="1" overflow="visible" shape-rendering="auto" text-rendering="auto" visibility="visible" style="isolation:auto;mix-blend-mode:normal;solid-color:#000;solid-opacity:1"/></g></svg>