<svg xmlns="http://www.w3.org/2000/svg" xmlns:svg="http://www.w3.org/2000/svg" id="svg4359" width="22" height="22" version="1.1"><metadata id="metadata4364"/><g id="layer1" transform="translate(0,-26)"><rect id="rect4147" width="2" height="2" x="-2" y="26" fill="#304050" fill-opacity="1" fill-rule="nonzero" stroke="none" stroke-dasharray="none" stroke-dashoffset="0" stroke-linecap="butt" stroke-linejoin="miter" stroke-miterlimit="4" stroke-opacity="1" stroke-width="1" clip-rule="nonzero" color="#000" color-interpolation="sRGB" color-interpolation-filters="linearRGB" color-rendering="auto" display="inline" enable-background="accumulate" image-rendering="auto" opacity="1" overflow="visible" shape-rendering="auto" text-rendering="auto" visibility="visible" style="isolation:auto;mix-blend-mode:normal;solid-color:#000;solid-opacity:1"/><path id="rect4166" fill="#304050" fill-opacity="1" stroke="none" stroke-dasharray="none" stroke-linecap="round" stroke-linejoin="miter" stroke-miterlimit="4" stroke-opacity=".299" stroke-width=".1" d="M 5 3 L 5 5 L 5 9 L 3 9 L 3 15 L 3 17 L 5 17 L 7 17 L 7 19 L 15 19 L 15 17 L 17 17 L 19 17 L 19 9 L 17 9 L 17 5 L 17 3 L 15 3 L 7 3 L 5 3 z M 7 5 L 15 5 L 15 9 L 7 9 L 7 5 z M 5 11 L 16 11 L 17 11 L 17 15 L 15 15 L 15 14 L 15 12 L 7 12 L 7 14 L 7 15 L 5 15 L 5 11 z M 9 14 L 13 14 L 13 17 L 9 17 L 9 14 z" opacity="1" transform="translate(0,26)"/></g></svg>