<svg xmlns="http://www.w3.org/2000/svg" xmlns:svg="http://www.w3.org/2000/svg" id="svg4359" width="22" height="22" version="1.1"><metadata id="metadata4364"/><g id="layer1" transform="translate(0,-26)"><rect id="rect4147" width="2" height="2" x="-2" y="26" fill="#304050" fill-opacity="1" fill-rule="nonzero" stroke="none" stroke-dasharray="none" stroke-dashoffset="0" stroke-linecap="butt" stroke-linejoin="miter" stroke-miterlimit="4" stroke-opacity="1" stroke-width="1" clip-rule="nonzero" color="#000" color-interpolation="sRGB" color-interpolation-filters="linearRGB" color-rendering="auto" display="inline" enable-background="accumulate" image-rendering="auto" opacity="1" overflow="visible" shape-rendering="auto" text-rendering="auto" visibility="visible" style="isolation:auto;mix-blend-mode:normal;solid-color:#000;solid-opacity:1"/><path color="#000" style="isolation:auto;mix-blend-mode:normal;solid-color:#000;solid-opacity:1" id="rect4150" fill="#304050" fill-opacity="1" fill-rule="nonzero" stroke="none" stroke-dasharray="none" stroke-dashoffset="0" stroke-linecap="butt" stroke-linejoin="miter" stroke-miterlimit="4" stroke-opacity="1" stroke-width="1" d="M 9 3 L 5 7 L 5 8 L 5 9 L 5 19 L 11 19 L 11 18 L 12 18 L 12 17 L 11 17 L 7 17 L 7 9 L 7 8 L 10 8 L 10 5 L 11 5 L 15 5 L 15 11 L 15 12 L 16 12 L 16 11 L 17 11 L 17 3 L 11 3 L 10 3 L 9 3 z M 16 12 L 16 13 L 17 13 L 17 12 L 16 12 z M 16 13 L 15 13 L 15 14 L 16 14 L 16 13 z M 16 14 L 16 15 L 17 15 L 17 14 L 16 14 z M 16 15 L 15 15 L 15 16 L 16 16 L 16 15 z M 16 16 L 16 17 L 17 17 L 17 16 L 16 16 z M 16 17 L 15 17 L 15 18 L 16 18 L 16 17 z M 16 18 L 16 19 L 17 19 L 17 18 L 16 18 z M 15 18 L 14 18 L 14 19 L 15 19 L 15 18 z M 14 18 L 14 17 L 13 17 L 13 18 L 14 18 z M 13 18 L 12 18 L 12 19 L 13 19 L 13 18 z" clip-rule="nonzero" color-interpolation="sRGB" color-interpolation-filters="linearRGB" color-rendering="auto" display="inline" enable-background="accumulate" image-rendering="auto" opacity="1" overflow="visible" shape-rendering="auto" text-rendering="auto" transform="translate(0,26)" visibility="visible"/></g></svg>