<svg xmlns="http://www.w3.org/2000/svg" xmlns:svg="http://www.w3.org/2000/svg" id="svg4359" width="22" height="22" version="1.1"><metadata id="metadata4364"/><g id="layer1" transform="translate(0,-26)"><rect id="rect4147" width="2" height="2" x="-2" y="26" fill="#304050" fill-opacity="1" fill-rule="nonzero" stroke="none" stroke-dasharray="none" stroke-dashoffset="0" stroke-linecap="butt" stroke-linejoin="miter" stroke-miterlimit="4" stroke-opacity="1" stroke-width="1" clip-rule="nonzero" color="#000" color-interpolation="sRGB" color-interpolation-filters="linearRGB" color-rendering="auto" display="inline" enable-background="accumulate" image-rendering="auto" opacity="1" overflow="visible" shape-rendering="auto" text-rendering="auto" visibility="visible" style="isolation:auto;mix-blend-mode:normal;solid-color:#000;solid-opacity:1"/><path id="rect4151" fill="#304050" fill-opacity="1" stroke="none" stroke-dasharray="none" stroke-linecap="round" stroke-linejoin="miter" stroke-miterlimit="4" stroke-opacity=".299" stroke-width=".1" d="M 3 3 L 3 5 L 3 8 L 5 8 L 5 5 L 8 5 L 8 3 L 5 3 L 3 3 z M 14 3 L 14 5 L 17 5 L 17 8 L 19 8 L 19 5 L 19 3 L 17 3 L 14 3 z M 8 8 L 8 14 L 14 14 L 14 8 L 8 8 z M 3 14 L 3 17 L 3 19 L 5 19 L 8 19 L 8 17 L 5 17 L 5 14 L 3 14 z M 17 14 L 17 17 L 14 17 L 14 19 L 17 19 L 19 19 L 19 17 L 19 14 L 17 14 z" opacity="1" transform="translate(0,26)"/></g></svg>