<svg xmlns="http://www.w3.org/2000/svg" xmlns:svg="http://www.w3.org/2000/svg" id="svg4359" width="22" height="22" version="1.1"><metadata id="metadata4364"/><g id="layer1" transform="translate(0,-26)"><rect id="rect4147" width="2" height="2" x="-2" y="26" fill="#304050" fill-opacity="1" fill-rule="nonzero" stroke="none" stroke-dasharray="none" stroke-dashoffset="0" stroke-linecap="butt" stroke-linejoin="miter" stroke-miterlimit="4" stroke-opacity="1" stroke-width="1" clip-rule="nonzero" color="#000" color-interpolation="sRGB" color-interpolation-filters="linearRGB" color-rendering="auto" display="inline" enable-background="accumulate" image-rendering="auto" opacity="1" overflow="visible" shape-rendering="auto" text-rendering="auto" visibility="visible" style="isolation:auto;mix-blend-mode:normal;solid-color:#000;solid-opacity:1"/><path id="rect4151" fill="#304050" fill-opacity="1" stroke="none" stroke-dasharray="none" stroke-linecap="round" stroke-linejoin="miter" stroke-miterlimit="4" stroke-opacity=".299" stroke-width=".1" d="M 3 3 L 3 5 L 19 5 L 19 3 L 3 3 z M 3 7 L 3 9 L 19 9 L 19 7 L 3 7 z M 3 11 L 3 13 L 19 13 L 19 11 L 3 11 z M 9 15 L 9 19 L 13 19 L 13 15 L 9 15 z M 4 17 A 1 1 0 0 0 3 18 A 1 1 0 0 0 4 19 A 1 1 0 0 0 5 18 A 1 1 0 0 0 4 17 z M 18 17 A 1 1 0 0 0 17 18 A 1 1 0 0 0 18 19 A 1 1 0 0 0 19 18 A 1 1 0 0 0 18 17 z" opacity="1" transform="translate(0,26)"/></g></svg>