<svg xmlns="http://www.w3.org/2000/svg" xmlns:svg="http://www.w3.org/2000/svg" id="svg4359" width="22" height="22" version="1.1"><metadata id="metadata4364"/><g id="layer1" transform="translate(0,-26)"><path id="rect4272" fill="#304050" fill-opacity="1" stroke="none" stroke-dasharray="none" stroke-linecap="round" stroke-linejoin="round" stroke-miterlimit="4" stroke-opacity=".528" stroke-width="2" d="M 11 3 A 8 8 0 0 0 7.1289062 4 L 5 4 L 4 4 L 4 5 L 4 7.1464844 A 8 8 0 0 0 3 11 A 8 8 0 0 0 4 14.871094 L 4 17 L 4 18 L 5 18 L 7.1464844 18 A 8 8 0 0 0 11 19 A 8 8 0 0 0 14.871094 18 L 17 18 L 18 18 L 18 17 L 18 14.853516 A 8 8 0 0 0 19 11 A 8 8 0 0 0 18 7.1289062 L 18 5 L 18 4 L 17 4 L 14.853516 4 A 8 8 0 0 0 11 3 z M 11 5 A 6 6 0 0 1 14.472656 6.1132812 L 12.291016 8.2949219 A 3 3 0 0 0 11 8 A 3 3 0 0 0 9.7089844 8.2949219 L 7.5292969 6.1152344 A 6 6 0 0 1 11 5 z M 6.1132812 7.5273438 L 8.2949219 9.7089844 A 3 3 0 0 0 8 11 A 3 3 0 0 0 8.2949219 12.291016 L 6.1152344 14.470703 A 6 6 0 0 1 5 11 A 6 6 0 0 1 6.1132812 7.5273438 z M 15.884766 7.5292969 A 6 6 0 0 1 17 11 A 6 6 0 0 1 15.886719 14.472656 L 13.705078 12.291016 A 3 3 0 0 0 14 11 A 3 3 0 0 0 13.705078 9.7089844 L 15.884766 7.5292969 z M 11 10 A 1 1 0 0 1 12 11 A 1 1 0 0 1 11 12 A 1 1 0 0 1 10 11 A 1 1 0 0 1 11 10 z M 9.7089844 13.705078 A 3 3 0 0 0 11 14 A 3 3 0 0 0 12.291016 13.705078 L 14.470703 15.884766 A 6 6 0 0 1 11 17 A 6 6 0 0 1 7.5273438 15.886719 L 9.7089844 13.705078 z" opacity="1" transform="translate(0,26)"/><rect id="rect4163" width="2" height="2" x="-2" y="26" fill="#304050" fill-opacity="1" fill-rule="nonzero" stroke="none" stroke-dasharray="none" stroke-dashoffset="0" stroke-linecap="butt" stroke-linejoin="miter" stroke-miterlimit="4" stroke-opacity="1" stroke-width="1" clip-rule="nonzero" color="#000" color-interpolation="sRGB" color-interpolation-filters="linearRGB" color-rendering="auto" display="inline" enable-background="accumulate" image-rendering="auto" opacity="1" overflow="visible" shape-rendering="auto" text-rendering="auto" visibility="visible" style="isolation:auto;mix-blend-mode:normal;solid-color:#000;solid-opacity:1"/></g></svg>