<svg xmlns="http://www.w3.org/2000/svg" xmlns:svg="http://www.w3.org/2000/svg" id="svg4359" width="22" height="22" version="1.1"><metadata id="metadata4364"/><g id="layer1" transform="translate(0,-26)"><rect id="rect4147" width="2" height="2" x="-2" y="26" fill="#304050" fill-opacity="1" fill-rule="nonzero" stroke="none" stroke-dasharray="none" stroke-dashoffset="0" stroke-linecap="butt" stroke-linejoin="miter" stroke-miterlimit="4" stroke-opacity="1" stroke-width="1" clip-rule="nonzero" color="#000" color-interpolation="sRGB" color-interpolation-filters="linearRGB" color-rendering="auto" display="inline" enable-background="accumulate" image-rendering="auto" opacity="1" overflow="visible" shape-rendering="auto" text-rendering="auto" visibility="visible" style="isolation:auto;mix-blend-mode:normal;solid-color:#000;solid-opacity:1"/><path id="path4154" fill="#304050" fill-opacity="1" fill-rule="evenodd" stroke="none" stroke-linecap="butt" stroke-linejoin="miter" stroke-opacity="1" stroke-width="1" d="M 11 3 L 9 11 L 11 19 L 12 11 L 11 3 z M 12 11 L 13 14 L 13 11 L 13 8 L 12 11 z M 13 11 L 14 12 L 14 11 L 14 10 L 13 11 z M 14 11 L 15 12 L 16 11 L 15 10 L 14 11 z M 16 11 L 17 15 L 17 12 L 19 11 L 17 10 L 17 7 L 16 11 z M 9 11 L 8 7 L 8 11 L 8 15 L 9 11 z M 8 11 L 7 4 L 6 10 L 3 11 L 6 12 L 7 18 L 8 11 z" transform="translate(0,26)"/></g></svg>