<svg xmlns="http://www.w3.org/2000/svg" xmlns:svg="http://www.w3.org/2000/svg" id="svg4359" width="22" height="22" version="1.1"><metadata id="metadata4364"/><g id="layer1" transform="translate(0,-26)"><rect id="rect4147" width="2" height="2" x="-2" y="26" fill="#304050" fill-opacity="1" fill-rule="nonzero" stroke="none" stroke-dasharray="none" stroke-dashoffset="0" stroke-linecap="butt" stroke-linejoin="miter" stroke-miterlimit="4" stroke-opacity="1" stroke-width="1" clip-rule="nonzero" color="#000" color-interpolation="sRGB" color-interpolation-filters="linearRGB" color-rendering="auto" display="inline" enable-background="accumulate" image-rendering="auto" opacity="1" overflow="visible" shape-rendering="auto" text-rendering="auto" visibility="visible" style="isolation:auto;mix-blend-mode:normal;solid-color:#000;solid-opacity:1"/><path id="path4158" fill="#304050" fill-opacity="1" stroke="none" stroke-dasharray="none" stroke-linecap="round" stroke-linejoin="miter" stroke-miterlimit="4" stroke-opacity=".299" stroke-width=".1" d="M 7 3 L 3 13 L 5 13 L 6.1992188 10 L 9.8007812 10 L 11 13 L 13 13 L 9 3 L 7 3 z M 8 5.5 L 9.4003906 9 L 6.5996094 9 L 8 5.5 z M 15 17 C 14.447715 17 14 17.447715 14 18 C 14 18.552285 14.447715 19 15 19 C 15.552285 19 16 18.552285 16 18 C 16 17.447715 15.552285 17 15 17 z M 18 17 C 17.447715 17 17 17.447715 17 18 C 17 18.552285 17.447715 19 18 19 C 18.552285 19 19 18.552285 19 18 C 19 17.447715 18.552285 17 18 17 z" opacity="1" transform="translate(0,26)"/></g></svg>