<svg xmlns="http://www.w3.org/2000/svg" xmlns:svg="http://www.w3.org/2000/svg" id="svg4359" width="22" height="22" version="1.1"><metadata id="metadata4364"/><g id="layer1" transform="translate(0,-26)"><rect id="rect4147" width="2" height="2" x="-2" y="26" fill="#304050" fill-opacity="1" fill-rule="nonzero" stroke="none" stroke-dasharray="none" stroke-dashoffset="0" stroke-linecap="butt" stroke-linejoin="miter" stroke-miterlimit="4" stroke-opacity="1" stroke-width="1" clip-rule="nonzero" color="#000" color-interpolation="sRGB" color-interpolation-filters="linearRGB" color-rendering="auto" display="inline" enable-background="accumulate" image-rendering="auto" opacity="1" overflow="visible" shape-rendering="auto" text-rendering="auto" visibility="visible" style="isolation:auto;mix-blend-mode:normal;solid-color:#000;solid-opacity:1"/><path id="path4152" fill="#304050" fill-opacity="1" stroke="none" stroke-dasharray="none" stroke-linecap="round" stroke-linejoin="miter" stroke-miterlimit="4" stroke-opacity=".299" stroke-width=".1" d="M 12.099609 3 C 11.351463 3 8.8022836 4.8509499 7.2460938 6.9785156 L 6 8 L 6 10 L 12.099609 10 L 12.099609 3 z M 16.654297 5.3457031 L 15.947266 6.0527344 A 7 7 0 0 1 17.917969 10 L 18.927734 10 A 8 8 0 0 0 16.654297 5.3457031 z M 15.240234 6.7597656 L 14.533203 7.4667969 A 5 5 0 0 1 15.894531 10 L 16.908203 10 A 6 6 0 0 0 15.240234 6.7597656 z M 5 8 C 4 8 3 9 3 9 L 3 10 L 5 10 L 5 8 z M 13.826172 8.1738281 L 13.119141 8.8808594 A 3 3 0 0 1 13.822266 10 L 14.867188 10 A 4 4 0 0 0 13.826172 8.1738281 z M 3 12 L 3 13 C 3 13 4 14 5 14 L 5 12 L 3 12 z M 6 12 L 6 14 L 7.2460938 15.021484 C 8.8022836 17.14905 11.351463 19 12.099609 19 L 12.099609 12 L 6 12 z M 13.824219 12 A 3 3 0 0 1 13.119141 13.119141 L 13.826172 13.826172 A 4 4 0 0 0 14.867188 12 L 13.824219 12 z M 15.896484 12 A 5 5 0 0 1 14.533203 14.533203 L 15.240234 15.240234 A 6 6 0 0 0 16.910156 12 L 15.896484 12 z M 17.919922 12 A 7 7 0 0 1 15.947266 15.947266 L 16.654297 16.654297 A 8 8 0 0 0 18.925781 12 L 17.919922 12 z" opacity="1" transform="translate(0,26)"/></g></svg>