<svg xmlns="http://www.w3.org/2000/svg" xmlns:svg="http://www.w3.org/2000/svg" id="svg4359" width="22" height="22" version="1.1"><metadata id="metadata4364"/><g id="layer1" transform="translate(0,-26)"><rect id="rect4147" width="2" height="2" x="-2" y="26" fill="#e74c3c" fill-opacity="1" fill-rule="nonzero" stroke="none" stroke-dasharray="none" stroke-dashoffset="0" stroke-linecap="butt" stroke-linejoin="miter" stroke-miterlimit="4" stroke-opacity="1" stroke-width="1" clip-rule="nonzero" color="#000" color-interpolation="sRGB" color-interpolation-filters="linearRGB" color-rendering="auto" display="inline" enable-background="accumulate" image-rendering="auto" opacity="1" overflow="visible" shape-rendering="auto" text-rendering="auto" visibility="visible" style="isolation:auto;mix-blend-mode:normal;solid-color:#000;solid-opacity:1"/><path id="path4152" fill="#e74c3c" fill-opacity="1" stroke="none" stroke-dasharray="none" stroke-linecap="round" stroke-linejoin="miter" stroke-miterlimit="4" stroke-opacity=".299" stroke-width=".1" d="m 26.654297,31.345703 -0.707031,0.707031 A 7,7 0 0 1 28,37 7,7 0 0 1 25.947266,41.947266 l 0.707031,0.707031 A 8,8 0 0 0 29,37 8,8 0 0 0 26.654297,31.345703 Z" opacity="1"/><path id="path4157" fill="#e74c3c" fill-opacity="1" stroke="none" stroke-dasharray="none" stroke-linecap="round" stroke-linejoin="miter" stroke-miterlimit="4" stroke-opacity=".299" stroke-width=".1" d="m 25.240234,32.759766 -0.707031,0.707031 A 5,5 0 0 1 26,37 5,5 0 0 1 24.533203,40.533203 l 0.707031,0.707031 A 6,6 0 0 0 27,37 6,6 0 0 0 25.240234,32.759766 Z" opacity="1"/><path id="path4162" fill="#e74c3c" fill-opacity="1" stroke="none" stroke-dasharray="none" stroke-linecap="round" stroke-linejoin="miter" stroke-miterlimit="4" stroke-opacity=".299" stroke-width=".1" d="m 23.826172,34.173828 -0.707031,0.707031 A 3,3 0 0 1 24,37 3,3 0 0 1 23.119141,39.119141 l 0.707031,0.707031 A 4,4 0 0 0 25,37 4,4 0 0 0 23.826172,34.173828 Z" opacity="1"/><path id="path4176" fill="#e74c3c" fill-opacity="1" fill-rule="evenodd" stroke="none" stroke-linecap="butt" stroke-linejoin="miter" stroke-opacity="1" stroke-width="1" d="M 12.099609 3 C 11.351463 3 8.8022836 4.8509499 7.2460938 6.9785156 L 6 8 L 6 10 L 6 12 L 6 14 L 7.2460938 15.021484 C 8.8022836 17.14905 11.351463 19 12.099609 19 L 12.099609 3 z M 5 8 C 4 8 3 9 3 9 L 3 13 C 3 13 4 14 5 14 L 5 8 z M 14 10 L 14 12 L 19 12 L 19 10 L 14 10 z" transform="translate(0,26)"/></g></svg>