<svg xmlns="http://www.w3.org/2000/svg" xmlns:svg="http://www.w3.org/2000/svg" id="svg4359" width="22" height="22" version="1.1"><metadata id="metadata4364"/><g id="layer1" transform="translate(0,-26)"><rect id="rect4147" width="2" height="2" x="-2" y="26" fill="#304050" fill-opacity="1" fill-rule="nonzero" stroke="none" stroke-dasharray="none" stroke-dashoffset="0" stroke-linecap="butt" stroke-linejoin="miter" stroke-miterlimit="4" stroke-opacity="1" stroke-width="1" clip-rule="nonzero" color="#000" color-interpolation="sRGB" color-interpolation-filters="linearRGB" color-rendering="auto" display="inline" enable-background="accumulate" image-rendering="auto" opacity="1" overflow="visible" shape-rendering="auto" text-rendering="auto" visibility="visible" style="isolation:auto;mix-blend-mode:normal;solid-color:#000;solid-opacity:1"/><path id="rect4152" fill="#304050" fill-opacity="1" stroke="none" stroke-dasharray="none" stroke-linecap="round" stroke-linejoin="miter" stroke-miterlimit="4" stroke-opacity=".299" stroke-width=".1" d="M 3 5 L 3 15 L 3 17 L 5 17 L 11 17 L 11 15 L 5 15 L 5 6.5546875 L 11 12 L 17 6.5546875 L 17 11 L 19 11 L 19 5 L 5 5 L 3 5 z M 16 11 C 14.892 11 14 11.892 14 13 L 14 15 L 13 15 L 13 16 L 13 17 L 13 18 L 13 19 L 14 19 L 15 19 L 16 19 L 16 18 L 15 18 L 15 17 L 16 17 L 16 16 L 15 16 L 15 15 L 15 13 C 15 12.446 15.446 12 16 12 C 16.554 12 17 12.446 17 13 L 17 15 L 16 15 L 16 16 L 17 16 L 17 17 L 18 17 L 18 16 L 19 16 L 19 15 L 18 15 L 18 13 C 18 11.892 17.108 11 16 11 z M 18 17 L 18 18 L 17 18 L 17 19 L 18 19 L 19 19 L 19 18 L 19 17 L 18 17 z M 17 18 L 17 17 L 16 17 L 16 18 L 17 18 z" opacity="1" transform="translate(0,26)"/></g></svg>