<svg xmlns="http://www.w3.org/2000/svg" xmlns:svg="http://www.w3.org/2000/svg" id="svg4359" width="22" height="22" version="1.1"><metadata id="metadata4364"/><g id="layer1" transform="translate(0,-26)"><rect id="rect4147" width="2" height="2" x="-2" y="26" fill="#304050" fill-opacity="1" fill-rule="nonzero" stroke="none" stroke-dasharray="none" stroke-dashoffset="0" stroke-linecap="butt" stroke-linejoin="miter" stroke-miterlimit="4" stroke-opacity="1" stroke-width="1" clip-rule="nonzero" color="#000" color-interpolation="sRGB" color-interpolation-filters="linearRGB" color-rendering="auto" display="inline" enable-background="accumulate" image-rendering="auto" opacity="1" overflow="visible" shape-rendering="auto" text-rendering="auto" visibility="visible" style="isolation:auto;mix-blend-mode:normal;solid-color:#000;solid-opacity:1"/><path id="path4154" fill="#304050" fill-opacity="1" stroke="none" stroke-dasharray="none" stroke-linecap="round" stroke-linejoin="miter" stroke-miterlimit="4" stroke-opacity=".299" stroke-width=".1" d="m 3,5 0,10 0,2 2,0 6,0 0,-1 0,-1 L 5,15 5,6.5546875 11,12 17,6.5546875 17,11 19,11 19,5 5,5 Z" opacity="1" transform="translate(0,26)"/><path id="rect4152" fill="#304050" fill-opacity="1" stroke="none" stroke-dasharray="none" stroke-linecap="round" stroke-linejoin="miter" stroke-miterlimit="4" stroke-opacity=".299" stroke-width=".1" d="M 16.447266 12 C 15.680408 12 14.911825 12.293254 14.324219 12.880859 C 13.149008 14.056071 13.149008 15.949788 14.324219 17.125 L 15.201172 18 L 14 18 L 14 19 L 17 19 L 17 18 L 17 16 L 16 16 L 16 17.384766 L 15.033203 16.416016 C 14.249729 15.632542 14.249729 14.371365 15.033203 13.587891 C 15.816677 12.804417 17.077854 12.804417 17.861328 13.587891 L 18.136719 13.863281 L 18.84375 13.15625 L 18.568359 12.880859 C 17.980753 12.293254 17.214123 12 16.447266 12 z" opacity="1" transform="translate(0,26)"/></g></svg>