<svg xmlns="http://www.w3.org/2000/svg" xmlns:svg="http://www.w3.org/2000/svg" id="svg4359" width="22" height="22" version="1.1" viewBox="0 0 22 22"><metadata id="metadata4364"/><g id="layer1" transform="translate(0,-26)"><rect id="rect4147" width="2" height="2" x="-2" y="26" fill="#304050" fill-opacity="1" fill-rule="nonzero" stroke="none" stroke-dasharray="none" stroke-dashoffset="0" stroke-linecap="butt" stroke-linejoin="miter" stroke-miterlimit="4" stroke-opacity="1" stroke-width="1" clip-rule="nonzero" color="#000" color-interpolation="sRGB" color-interpolation-filters="linearRGB" color-rendering="auto" display="inline" enable-background="accumulate" image-rendering="auto" opacity="1" overflow="visible" shape-rendering="auto" text-rendering="auto" visibility="visible" style="isolation:auto;mix-blend-mode:normal;solid-color:#000;solid-opacity:1"/><path id="rect4152" fill="#304050" fill-opacity="1" stroke="none" stroke-dasharray="none" stroke-dashoffset="0" stroke-linecap="butt" stroke-linejoin="miter" stroke-miterlimit="4" stroke-opacity="1" stroke-width="3.567" d="M 11,3 C 7.676,3 5,5.676 5,9 l 0,4 c 0,3.324 2.676,6 6,6 3.324,0 6,-2.676 6,-6 l 0,-2 -2,0 0,2 c 0,2.216 -1.784,4 -4,4 C 8.784,17 7,15.216 7,13 L 7,9 c 0,-2.216 1.784,-4 4,-4 0.554,0 1,0.446 1,1 l 0,7 c 0,0.554 -0.446,1 -1,1 -0.554,0 -1,-0.446 -1,-1 l 0,-3 -2,0 0,3 c 0,1.662 1.338,3 3,3 1.662,0 3,-1.338 3,-3 L 14,6 C 14,4.338 12.662,3 11,3 Z" opacity="1" transform="translate(0,26)"/></g></svg>