<svg xmlns="http://www.w3.org/2000/svg" xmlns:svg="http://www.w3.org/2000/svg" id="svg4359" width="22" height="22" version="1.1"><metadata id="metadata4364"/><g id="layer1" transform="translate(0,-26)"><rect id="rect4147" width="2" height="2" x="-2" y="26" fill="#304050" fill-opacity="1" fill-rule="nonzero" stroke="none" stroke-dasharray="none" stroke-dashoffset="0" stroke-linecap="butt" stroke-linejoin="miter" stroke-miterlimit="4" stroke-opacity="1" stroke-width="1" clip-rule="nonzero" color="#000" color-interpolation="sRGB" color-interpolation-filters="linearRGB" color-rendering="auto" display="inline" enable-background="accumulate" image-rendering="auto" opacity="1" overflow="visible" shape-rendering="auto" text-rendering="auto" visibility="visible" style="isolation:auto;mix-blend-mode:normal;solid-color:#000;solid-opacity:1"/><path id="path4154" fill="#304050" fill-opacity="1" stroke="none" stroke-dasharray="none" stroke-linecap="round" stroke-linejoin="miter" stroke-miterlimit="4" stroke-opacity=".299" stroke-width=".1" d="M 3 5 L 3 15 L 3 17 L 5 17 L 11 17 L 11 16 L 11 15 L 5 15 L 5 6.5546875 L 11 12 L 17 6.5546875 L 17 11 L 19 11 L 19 5 L 5 5 L 3 5 z M 11 16 L 14 19 L 15.363281 17.363281 L 17 19 L 22 13 L 21 12 L 17 17 L 16.273438 16.273438 L 19 13 L 18 12 L 15.333984 15.333984 L 15 15 L 14 16 L 14.445312 16.445312 L 14 17 L 12 15 L 11 16 z" opacity="1" transform="translate(0,26)"/></g></svg>