<svg xmlns="http://www.w3.org/2000/svg" xmlns:svg="http://www.w3.org/2000/svg" id="svg4359" width="22" height="22" version="1.1"><metadata id="metadata4364"/><g id="layer1" transform="translate(0,-26)"><rect id="rect4147" width="2" height="2" x="-2" y="26" fill="#304050" fill-opacity="1" fill-rule="nonzero" stroke="none" stroke-dasharray="none" stroke-dashoffset="0" stroke-linecap="butt" stroke-linejoin="miter" stroke-miterlimit="4" stroke-opacity="1" stroke-width="1" clip-rule="nonzero" color="#000" color-interpolation="sRGB" color-interpolation-filters="linearRGB" color-rendering="auto" display="inline" enable-background="accumulate" image-rendering="auto" opacity="1" overflow="visible" shape-rendering="auto" text-rendering="auto" visibility="visible" style="isolation:auto;mix-blend-mode:normal;solid-color:#000;solid-opacity:1"/><path id="path4162" fill="#304050" fill-opacity="1" stroke="none" stroke-dasharray="none" stroke-linecap="round" stroke-linejoin="miter" stroke-miterlimit="4" stroke-opacity=".299" stroke-width=".1" d="M 11 3 A 8 8.0000114 0 0 0 3 11 A 8 8.0000114 0 0 0 11 19 A 8 8.0000114 0 0 0 19 11 A 8 8.0000114 0 0 0 11 3 z M 11 5 A 6.0000029 6.0000114 0 0 1 17 11 A 6.0000029 6.0000114 0 0 1 11 17 A 6.0000029 6.0000114 0 0 1 5 11 A 6.0000029 6.0000114 0 0 1 11 5 z M 8 7 L 8 15 L 10 15 L 10 7 L 8 7 z M 12 7 L 12 15 L 14 15 L 14 7 L 12 7 z" opacity="1" transform="translate(0,26)"/></g></svg>