<svg xmlns="http://www.w3.org/2000/svg" xmlns:svg="http://www.w3.org/2000/svg" id="svg4359" width="22" height="22" version="1.1"><metadata id="metadata4364"/><g id="layer1" transform="translate(0,-26)"><rect id="rect4147" width="2" height="2" x="-2" y="26" fill="#304050" fill-opacity="1" fill-rule="nonzero" stroke="none" stroke-dasharray="none" stroke-dashoffset="0" stroke-linecap="butt" stroke-linejoin="miter" stroke-miterlimit="4" stroke-opacity="1" stroke-width="1" clip-rule="nonzero" color="#000" color-interpolation="sRGB" color-interpolation-filters="linearRGB" color-rendering="auto" display="inline" enable-background="accumulate" image-rendering="auto" opacity="1" overflow="visible" shape-rendering="auto" text-rendering="auto" visibility="visible" style="isolation:auto;mix-blend-mode:normal;solid-color:#000;solid-opacity:1"/><path id="path4162" fill="#304050" fill-opacity="1" stroke="none" stroke-dasharray="none" stroke-linecap="round" stroke-linejoin="miter" stroke-miterlimit="4" stroke-opacity=".299" stroke-width=".1" d="M 11 3 C 6.5817265 3 3.0000063 6.5817202 3 11 C 3.0000063 15.41828 6.5817265 19 11 19 C 15.418274 19 18.999994 15.41828 19 11 C 18.999994 6.5817202 15.418274 3 11 3 z M 11 5 C 14.313705 5.0000016 16.999994 7.6862908 17 11 C 16.999994 14.313709 14.313705 16.999998 11 17 C 7.6862955 16.999998 5.0000063 14.313709 5 11 C 5.0000063 7.6862908 7.6862955 5.0000016 11 5 z M 8 8 L 8 14 L 14 14 L 14 8 L 8 8 z" opacity="1" transform="translate(0,26)"/></g></svg>