<svg xmlns="http://www.w3.org/2000/svg" xmlns:svg="http://www.w3.org/2000/svg" id="svg4359" width="22" height="22" version="1.1"><metadata id="metadata4364"/><g id="layer1" transform="translate(0,-26)"><rect id="rect4147" width="2" height="2" x="-2" y="26" fill="#304050" fill-opacity="1" fill-rule="nonzero" stroke="none" stroke-dasharray="none" stroke-dashoffset="0" stroke-linecap="butt" stroke-linejoin="miter" stroke-miterlimit="4" stroke-opacity="1" stroke-width="1" clip-rule="nonzero" color="#000" color-interpolation="sRGB" color-interpolation-filters="linearRGB" color-rendering="auto" display="inline" enable-background="accumulate" image-rendering="auto" opacity="1" overflow="visible" shape-rendering="auto" text-rendering="auto" visibility="visible" style="isolation:auto;mix-blend-mode:normal;solid-color:#000;solid-opacity:1"/><path id="path4151" fill="#304050" fill-opacity="1" stroke="none" stroke-dasharray="none" stroke-linecap="round" stroke-linejoin="miter" stroke-miterlimit="4" stroke-opacity=".299" stroke-width=".1" d="M 11 3 A 8 8 0 0 0 3 11 A 8 8 0 0 0 11 19 L 11 17 A 6 6 0 0 1 5 11 A 6 6 0 0 1 11 5 A 6 6 0 0 1 17 11 L 19 11 A 8 8 0 0 0 11 3 z M 11 8 A 3 3 0 0 0 8 11 A 3 3 0 0 0 11 14 L 11 12 A 1 1 0 0 1 10 11 A 1 1 0 0 1 11 10 A 1 1 0 0 1 12 11 L 14 11 A 3 3 0 0 0 11 8 z M 15 12 C 13.338 12 12 13.338 12 15 L 12 16 L 12 19 L 13 19 L 14 19 L 14 16 L 13 16 L 13 15 C 13 13.892 13.892 13 15 13 L 16 13 C 17.108 13 18 13.892 18 15 L 18 16 L 17 16 L 17 19 L 18 19 L 19 19 L 19 16 L 19 15 C 19 13.338 17.662 12 16 12 L 15 12 z" opacity="1" transform="translate(0,26)"/></g></svg>