<svg xmlns="http://www.w3.org/2000/svg" xmlns:svg="http://www.w3.org/2000/svg" id="svg4359" width="22" height="22" version="1.1"><metadata id="metadata4364"/><g id="layer1" transform="translate(0,-26)"><rect id="rect4147" width="2" height="2" x="-2" y="26" fill="#304050" fill-opacity="1" fill-rule="nonzero" stroke="none" stroke-dasharray="none" stroke-dashoffset="0" stroke-linecap="butt" stroke-linejoin="miter" stroke-miterlimit="4" stroke-opacity="1" stroke-width="1" clip-rule="nonzero" color="#000" color-interpolation="sRGB" color-interpolation-filters="linearRGB" color-rendering="auto" display="inline" enable-background="accumulate" image-rendering="auto" opacity="1" overflow="visible" shape-rendering="auto" text-rendering="auto" visibility="visible" style="isolation:auto;mix-blend-mode:normal;solid-color:#000;solid-opacity:1"/><path id="rect4158" fill="#304050" fill-opacity="1" stroke="none" stroke-dasharray="none" stroke-linecap="round" stroke-linejoin="miter" stroke-miterlimit="4" stroke-opacity=".299" stroke-width=".1" d="M 16 3 L 16 4 L 15 4 L 12.773438 4 L 5.8457031 16 L 3 16 L 3 18 L 5 18 L 7 18 L 13.927734 6 L 16 6 L 16 7 L 19 5 L 16 3 z M 3 4 L 3 6 L 5.8457031 6 L 6.75 7.5664062 L 8.4824219 6.5664062 L 7 4 L 3 4 z M 12.482422 13.494141 L 10.75 14.494141 L 12.773438 18 L 15 18 L 16 18 L 16 19 L 19 17 L 16 15 L 16 16 L 13.929688 16 L 12.482422 13.494141 z" opacity="1" transform="translate(0,26)"/></g></svg>