<svg xmlns="http://www.w3.org/2000/svg" xmlns:svg="http://www.w3.org/2000/svg" id="svg4359" width="22" height="22" version="1.1"><metadata id="metadata4364"/><g id="layer1" transform="translate(0,-26)"><rect id="rect4147" width="2" height="2" x="-2" y="26" fill="#304050" fill-opacity="1" fill-rule="nonzero" stroke="none" stroke-dasharray="none" stroke-dashoffset="0" stroke-linecap="butt" stroke-linejoin="miter" stroke-miterlimit="4" stroke-opacity="1" stroke-width="1" clip-rule="nonzero" color="#000" color-interpolation="sRGB" color-interpolation-filters="linearRGB" color-rendering="auto" display="inline" enable-background="accumulate" image-rendering="auto" opacity="1" overflow="visible" shape-rendering="auto" text-rendering="auto" visibility="visible" style="isolation:auto;mix-blend-mode:normal;solid-color:#000;solid-opacity:1"/><path id="path4151" fill="#304050" fill-opacity="1" stroke="none" stroke-dasharray="none" stroke-linecap="round" stroke-linejoin="miter" stroke-miterlimit="4" stroke-opacity=".299" stroke-width=".1" d="M 11 3 C 6.581722 3 3 6.581722 3 11 C 3 15.418278 6.581722 19 11 19 L 11 17 C 7.6862915 17 5 14.313708 5 11 C 5 10.792893 5.010766 10.588421 5.03125 10.386719 C 5.33851 7.3611821 7.8933983 5 11 5 C 14.313708 5 17 7.6862915 17 11 L 19 11 C 19 6.581722 15.418278 3 11 3 z M 11 8 C 9.5502526 8 8.3402857 9.0274824 8.0605469 10.394531 C 8.0205842 10.589824 8 10.792893 8 11 C 8 12.656854 9.3431458 14 11 14 L 11 12 C 10.447715 12 10 11.552285 10 11 C 10 10.861929 10.027522 10.730966 10.078125 10.611328 C 10.229933 10.252413 10.585786 10 11 10 C 11.552285 10 12 10.447715 12 11 L 14 11 C 14 9.3431458 12.656854 8 11 8 z M 15.005859 12 C 15.032847 12.1477 13 14.927725 14.025391 15.953125 C 14.797972 16.725725 14.884995 17 13.5 17 C 13.344281 17 13.192614 16.982078 13.044922 16.955078 C 13.257976 18.120978 14.270724 19 15.5 19 C 16.884995 19 18 18 18 16.5 C 18 14.7849 16.842858 14.9991 17 13 C 17 13 16.000955 17.0543 15.005859 12 z" opacity="1" transform="translate(0,26)"/></g></svg>