<svg xmlns="http://www.w3.org/2000/svg" xmlns:svg="http://www.w3.org/2000/svg" id="svg4359" width="22" height="22" version="1.1"><metadata id="metadata4364"/><g id="layer1" transform="translate(0,-26)"><rect id="rect4147" width="2" height="2" x="-2" y="26" fill="#304050" fill-opacity="1" fill-rule="nonzero" stroke="none" stroke-dasharray="none" stroke-dashoffset="0" stroke-linecap="butt" stroke-linejoin="miter" stroke-miterlimit="4" stroke-opacity="1" stroke-width="1" clip-rule="nonzero" color="#000" color-interpolation="sRGB" color-interpolation-filters="linearRGB" color-rendering="auto" display="inline" enable-background="accumulate" image-rendering="auto" opacity="1" overflow="visible" shape-rendering="auto" text-rendering="auto" visibility="visible" style="isolation:auto;mix-blend-mode:normal;solid-color:#000;solid-opacity:1"/><path id="rect4150" fill="#304050" fill-opacity="1" stroke="none" stroke-dasharray="none" stroke-linecap="round" stroke-linejoin="miter" stroke-miterlimit="4" stroke-opacity=".299" stroke-width=".1" d="M 4 3 L 4 6 L 3 6 L 3 8 L 4 8 L 4 19 L 6 19 L 6 8 L 7 8 L 7 6 L 6 6 L 6 3 L 4 3 z M 10 3 L 10 14 L 9 14 L 9 16 L 10 16 L 10 19 L 12 19 L 12 16 L 13 16 L 13 14 L 12 14 L 12 3 L 10 3 z M 16 3 L 16 10 L 15 10 L 15 12 L 16 12 L 16 19 L 18 19 L 18 12 L 19 12 L 19 10 L 18 10 L 18 3 L 16 3 z" opacity="1" transform="translate(0,26)"/></g></svg>