<svg xmlns="http://www.w3.org/2000/svg" xmlns:svg="http://www.w3.org/2000/svg" id="svg4359" width="22" height="22" version="1.1"><metadata id="metadata4364"/><g id="layer1" transform="translate(0,-26)"><rect id="rect4147" width="2" height="2" x="-2" y="26" fill="#304050" fill-opacity="1" fill-rule="nonzero" stroke="none" stroke-dasharray="none" stroke-dashoffset="0" stroke-linecap="butt" stroke-linejoin="miter" stroke-miterlimit="4" stroke-opacity="1" stroke-width="1" clip-rule="nonzero" color="#000" color-interpolation="sRGB" color-interpolation-filters="linearRGB" color-rendering="auto" display="inline" enable-background="accumulate" image-rendering="auto" opacity="1" overflow="visible" shape-rendering="auto" text-rendering="auto" visibility="visible" style="isolation:auto;mix-blend-mode:normal;solid-color:#000;solid-opacity:1"/><path id="rect4174" fill="#304050" fill-opacity="1" stroke="none" stroke-dasharray="none" stroke-linecap="round" stroke-linejoin="miter" stroke-miterlimit="4" stroke-opacity=".299" stroke-width=".1" d="M 3 3 L 3 13 L 5 13 L 6 13 L 8 13 L 9 13 L 9 14 L 9 16 L 9 19 L 19 19 L 19 9 L 16 9 L 14 9 L 13 9 L 13 8 L 13 6 L 13 5 L 13 3 L 3 3 z M 5 5 L 11 5 L 11 6 L 11 8 L 11 11 L 8 11 L 6 11 L 5 11 L 5 5 z M 14 6 L 14 8 L 16 8 L 16 6 L 14 6 z M 13 11 L 14 11 L 16 11 L 17 11 L 17 17 L 11 17 L 11 16 L 11 14 L 11 13 L 13 13 L 13 11 z M 6 14 L 6 16 L 8 16 L 8 14 L 6 14 z" opacity="1" transform="translate(0,26)"/></g></svg>