<svg xmlns="http://www.w3.org/2000/svg" xmlns:svg="http://www.w3.org/2000/svg" id="svg4359" width="22" height="22" version="1.1"><metadata id="metadata4364"/><g id="layer1" transform="translate(0,-26)"><rect id="rect4147" width="2" height="2" x="-2" y="26" fill="#304050" fill-opacity="1" fill-rule="nonzero" stroke="none" stroke-dasharray="none" stroke-dashoffset="0" stroke-linecap="butt" stroke-linejoin="miter" stroke-miterlimit="4" stroke-opacity="1" stroke-width="1" clip-rule="nonzero" color="#000" color-interpolation="sRGB" color-interpolation-filters="linearRGB" color-rendering="auto" display="inline" enable-background="accumulate" image-rendering="auto" opacity="1" overflow="visible" shape-rendering="auto" text-rendering="auto" visibility="visible" style="isolation:auto;mix-blend-mode:normal;solid-color:#000;solid-opacity:1"/><rect id="rect4147-4" width="2" height="2" x="-2" y="29" fill="#87d37c" fill-opacity="1" fill-rule="nonzero" stroke="none" stroke-dasharray="none" stroke-dashoffset="0" stroke-linecap="butt" stroke-linejoin="miter" stroke-miterlimit="4" stroke-opacity="1" stroke-width="1" clip-rule="nonzero" color="#000" color-interpolation="sRGB" color-interpolation-filters="linearRGB" color-rendering="auto" display="inline" enable-background="accumulate" image-rendering="auto" opacity="1" overflow="visible" shape-rendering="auto" text-rendering="auto" visibility="visible" style="isolation:auto;mix-blend-mode:normal;solid-color:#000;solid-opacity:1"/><rect id="rect4196" width="14" height="2" x="4" y="43" fill="#87d37c" fill-opacity="1" stroke="none" stroke-dasharray="none" stroke-linecap="round" stroke-linejoin="miter" stroke-miterlimit="4" stroke-opacity=".299" stroke-width=".1" opacity="1"/><path id="rect4198" fill="#304050" fill-opacity="1" stroke="none" stroke-dasharray="none" stroke-linecap="round" stroke-linejoin="miter" stroke-miterlimit="4" stroke-opacity=".299" stroke-width=".1" d="M 8 3 L 8 12 C 8 13.662 9.338 15 11 15 C 12.662 15 14 13.662 14 12 C 14 10.338 12.662 9 11 9 C 10.647083 9 10.31399 9.0706875 10 9.1816406 L 10 3 L 8 3 z M 3 9 C 1.338 9 0 10.338 0 12 C 0 13.662 1.338 15 3 15 C 3.3529174 15 3.68601 14.929312 4 14.818359 L 4 15 L 6 15 L 6 12 C 6 10.338 4.662 9 3 9 z M 19 9 C 17.338 9 16 10.338 16 12 C 16 13.662 17.338 15 19 15 C 19.831 15 20.580797 14.665297 21.123047 14.123047 L 19.707031 12.707031 C 19.526281 12.887781 19.277 13 19 13 C 18.446 13 18 12.554 18 12 C 18 11.446 18.446 11 19 11 C 19.277 11 19.526281 11.112219 19.707031 11.292969 L 21.123047 9.8769531 C 20.580797 9.3347031 19.831 9 19 9 z M 3 11 C 3.554 11 4 11.446 4 12 C 4 12.554 3.554 13 3 13 C 2.446 13 2 12.554 2 12 C 2 11.446 2.446 11 3 11 z M 11 11 C 11.554 11 12 11.446 12 12 C 12 12.554 11.554 13 11 13 C 10.446 13 10 12.554 10 12 C 10 11.446 10.446 11 11 11 z" opacity="1" transform="translate(0,26)"/></g></svg>