<svg xmlns="http://www.w3.org/2000/svg" xmlns:svg="http://www.w3.org/2000/svg" id="svg4359" width="22" height="22" version="1.1"><metadata id="metadata4364"/><g id="layer1" transform="translate(0,-26)"><rect id="rect4147" width="2" height="2" x="-2" y="26" fill="#304050" fill-opacity="1" fill-rule="nonzero" stroke="none" stroke-dasharray="none" stroke-dashoffset="0" stroke-linecap="butt" stroke-linejoin="miter" stroke-miterlimit="4" stroke-opacity="1" stroke-width="1" clip-rule="nonzero" color="#000" color-interpolation="sRGB" color-interpolation-filters="linearRGB" color-rendering="auto" display="inline" enable-background="accumulate" image-rendering="auto" opacity="1" overflow="visible" shape-rendering="auto" text-rendering="auto" visibility="visible" style="isolation:auto;mix-blend-mode:normal;solid-color:#000;solid-opacity:1"/><path id="rect4154" fill="#304050" fill-opacity="1" stroke="none" stroke-dasharray="none" stroke-linecap="round" stroke-linejoin="miter" stroke-miterlimit="4" stroke-opacity=".299" stroke-width=".1" d="M 14 2.9003906 L 14 4 L 10 4 L 10 6 L 10 10 L 8 10 L 8 8 L 2 8 L 2 14 L 8 14 L 8 12 L 10 12 L 10 16 L 10 18 L 14 18 L 14 19 L 20 19 L 20 13 L 14 13 L 14 16 L 12 16 L 12 12 L 12 10 L 12 6 L 14 6 L 14 8.9003906 L 20 8.9003906 L 20 2.9003906 L 14 2.9003906 z M 16 4.9003906 L 18 4.9003906 L 18 6.9003906 L 16 6.9003906 L 16 4.9003906 z M 4 10 L 6 10 L 6 12 L 4 12 L 4 10 z" opacity="1" transform="translate(0,26)"/></g></svg>