<svg xmlns="http://www.w3.org/2000/svg" xmlns:svg="http://www.w3.org/2000/svg" id="svg4359" width="22" height="22" version="1.1"><metadata id="metadata4364"/><g id="layer1" transform="translate(0,-26)"><rect id="rect4147" width="2" height="2" x="-2" y="26" fill="#304050" fill-opacity="1" fill-rule="nonzero" stroke="none" stroke-dasharray="none" stroke-dashoffset="0" stroke-linecap="butt" stroke-linejoin="miter" stroke-miterlimit="4" stroke-opacity="1" stroke-width="1" clip-rule="nonzero" color="#000" color-interpolation="sRGB" color-interpolation-filters="linearRGB" color-rendering="auto" display="inline" enable-background="accumulate" image-rendering="auto" opacity="1" overflow="visible" shape-rendering="auto" text-rendering="auto" visibility="visible" style="isolation:auto;mix-blend-mode:normal;solid-color:#000;solid-opacity:1"/><path id="rect4152" fill="#304050" fill-opacity="1" stroke="none" stroke-dasharray="none" stroke-linecap="round" stroke-linejoin="miter" stroke-miterlimit="4" stroke-opacity=".299" stroke-width=".1" d="M 5.5 3 C 4.115 3 3 4.115 3 5.5 C 3 6.885 4.115 8 5.5 8 C 6.885 8 8 6.885 8 5.5 C 8 4.115 6.885 3 5.5 3 z M 10 3 L 10 5 L 19 5 L 19 3 L 10 3 z M 10 6 L 10 8 L 14 8 L 14 6 L 10 6 z M 5.5 11 C 4.115 11 3 12.115 3 13.5 C 3 14.885 4.115 16 5.5 16 C 6.885 16 8 14.885 8 13.5 C 8 12.115 6.885 11 5.5 11 z M 10 11 L 10 13 L 14 13 L 14 11 L 10 11 z M 16 13 L 16 17 L 15 17 L 17 19 L 19 17 L 18 17 L 18 13 L 16 13 z M 10 14 L 10 16 L 12 16 L 12 14 L 10 14 z" opacity="1" transform="translate(0,26)"/></g></svg>