<svg xmlns="http://www.w3.org/2000/svg" xmlns:svg="http://www.w3.org/2000/svg" id="svg4359" width="22" height="22" version="1.1"><metadata id="metadata4364"/><g id="layer1" transform="translate(0,-26)"><rect id="rect4147" width="2" height="2" x="-2" y="26" fill="#304050" fill-opacity="1" fill-rule="nonzero" stroke="none" stroke-dasharray="none" stroke-dashoffset="0" stroke-linecap="butt" stroke-linejoin="miter" stroke-miterlimit="4" stroke-opacity="1" stroke-width="1" clip-rule="nonzero" color="#000" color-interpolation="sRGB" color-interpolation-filters="linearRGB" color-rendering="auto" display="inline" enable-background="accumulate" image-rendering="auto" opacity="1" overflow="visible" shape-rendering="auto" text-rendering="auto" visibility="visible" style="isolation:auto;mix-blend-mode:normal;solid-color:#000;solid-opacity:1"/><path id="rect4152" fill="#304050" fill-opacity="1" stroke="none" stroke-dasharray="none" stroke-linecap="round" stroke-linejoin="miter" stroke-miterlimit="4" stroke-opacity=".299" stroke-width=".1" d="M 7 3 L 7 7 L 3 7 L 3 9 L 7 9 L 7 13 L 3 13 L 3 15 L 7 15 L 7 19 L 9 19 L 9 15 L 13 15 L 13 19 L 15 19 L 15 15 L 19 15 L 19 13 L 15 13 L 15 9 L 19 9 L 19 7 L 15 7 L 15 3 L 13 3 L 13 7 L 9 7 L 9 3 L 7 3 z M 9 9 L 13 9 L 13 13 L 9 13 L 9 9 z" opacity="1" transform="translate(0,26)"/></g></svg>