<svg xmlns="http://www.w3.org/2000/svg" xmlns:svg="http://www.w3.org/2000/svg" xmlns:xlink="http://www.w3.org/1999/xlink" id="svg2" width="32" height="32" version="1.1" viewBox="0 0 32 32"><defs id="defs4"><linearGradient id="linearGradient4259"><stop id="stop4261" offset="0" stop-color="#000" stop-opacity=".196"/><stop id="stop4265" offset=".8" stop-color="#000" stop-opacity=".498"/><stop id="stop4263" offset="1" stop-color="#000" stop-opacity="0"/></linearGradient><linearGradient id="Shadow"><stop id="stop4181" offset="0" stop-color="#000" stop-opacity="1"/><stop id="stop4183" offset="1" stop-color="#000" stop-opacity="0"/></linearGradient><radialGradient id="radialGradient4576" cx="28" cy="28.5" r="1.5" fx="28" fy="28.5" gradientTransform="matrix(3.1111458e-7,2.6666673,-1.9999997,2.3333583e-7,80.99998,973.69551)" gradientUnits="userSpaceOnUse" xlink:href="#Shadow"/><radialGradient id="radialGradient4578" cx=".56" cy="31.147" r="1.5" fx=".56" fy="31.147" gradientTransform="matrix(-1.9999998,2.4329792e-6,-3.2319946e-6,-2.6666666,9.119531,1131.421)" gradientUnits="userSpaceOnUse" xlink:href="#Shadow"/><linearGradient id="linearGradient4580" x1="16" x2="16" y1="28" y2="32" gradientTransform="translate(0,1020.3622)" gradientUnits="userSpaceOnUse" xlink:href="#Shadow"/><linearGradient id="linearGradient4254" x1="24" x2="24" y1="42" y2="46" gradientTransform="translate(9,1073.5196)" gradientUnits="userSpaceOnUse" xlink:href="#Shadow"/><linearGradient id="linearGradient4257" x1="16" x2="16" y1="1033.462" y2="1043.462" gradientTransform="translate(0,-1020.4622)" gradientUnits="userSpaceOnUse" xlink:href="#linearGradient4259"/></defs><metadata id="metadata7"/><g id="layer1" transform="translate(0,-1020.3622)"><path id="path4574" fill="url(#linearGradient4580)" fill-opacity="1" stroke="none" stroke-dasharray="none" stroke-linecap="round" stroke-linejoin="round" stroke-miterlimit="4" stroke-opacity=".528" stroke-width="2" d="m 8,1048.3622 0,4 16,0 0,-4 z" opacity="1"/><path id="path4572" fill="url(#radialGradient4578)" fill-opacity="1" stroke="none" stroke-dasharray="none" stroke-linecap="round" stroke-linejoin="round" stroke-miterlimit="4" stroke-opacity=".528" stroke-width="2" d="m 8,1048.3622 -3,0 0,1 c 0,1.662 1.33799,3 3,3 l 0,-4 z" opacity="1"/><path id="path4570" fill="url(#radialGradient4576)" fill-opacity="1" stroke="none" stroke-dasharray="none" stroke-linecap="round" stroke-linejoin="round" stroke-miterlimit="4" stroke-opacity=".528" stroke-width="2" d="m 24,1048.3622 0,4 c 1.66201,0 3,-1.338 3,-3 l 0,-1 -3,0 z" opacity="1"/><rect id="rect4582" width="22" height="26" x="5" y="1024.362" fill="#e0e0e0" fill-opacity="1" stroke="none" stroke-dasharray="none" stroke-linecap="round" stroke-linejoin="round" stroke-miterlimit="4" stroke-opacity=".528" stroke-width="2" opacity="1" ry="2.167"/><rect id="rect4168" width="20" height="24" x="6" y="1025.362" fill="#f5f5f5" fill-opacity="1" stroke="none" stroke-dasharray="none" stroke-linecap="round" stroke-linejoin="round" stroke-miterlimit="4" stroke-opacity=".528" stroke-width="2" opacity="1" ry="1"/><path id="path4270" fill="url(#linearGradient4257)" fill-opacity="1" stroke="none" stroke-dasharray="none" stroke-linecap="round" stroke-linejoin="round" stroke-miterlimit="4" stroke-opacity=".528" stroke-width="2" d="M 17 20 L 15 20 L 15 21 L 14 21 L 14 23 L 18 23 L 18 21 L 17 21 L 17 20 z" opacity="1" transform="translate(0,1020.3622)"/><path id="path4255" fill="url(#linearGradient4257)" fill-opacity="1" stroke="none" stroke-dasharray="none" stroke-linecap="round" stroke-linejoin="round" stroke-miterlimit="4" stroke-opacity=".528" stroke-width="2" d="M 11 13 L 11 15 L 11 17 L 12 17 L 13 15 L 15 15 L 15 20 L 17 20 L 17 15 L 19 15 L 20 17 L 21 17 L 21 15 L 21 13 L 11 13 z" opacity=".5" transform="translate(0,1020.3622)"/><path id="rect4240" fill="#9e9e9e" fill-opacity="1" stroke="none" stroke-dasharray="none" stroke-linecap="round" stroke-linejoin="round" stroke-miterlimit="4" stroke-opacity=".528" stroke-width="2" d="M 11 12 L 11 14 L 11 16 L 12 16 L 13 14 L 15 14 L 15 20 L 14 20 L 14 22 L 18 22 L 18 20 L 17 20 L 17 14 L 19 14 L 20 16 L 21 16 L 21 14 L 21 12 L 11 12 z" opacity="1" transform="translate(0,1020.3622)"/><rect id="rect4304" width="5" height="5" x="-7" y="1020.362" fill="#f5f5f5" fill-opacity="1" fill-rule="nonzero" stroke="none" stroke-dasharray="none" stroke-dashoffset="0" stroke-linecap="butt" stroke-linejoin="miter" stroke-miterlimit="4" stroke-opacity="1" stroke-width="1" clip-rule="nonzero" color="#000" color-interpolation="sRGB" color-interpolation-filters="linearRGB" color-rendering="auto" display="inline" enable-background="accumulate" image-rendering="auto" opacity="1" overflow="visible" shape-rendering="auto" text-rendering="auto" visibility="visible" style="isolation:auto;mix-blend-mode:normal;solid-color:#000;solid-opacity:1"/><rect id="rect4306" width="5" height="5" x="-7" y="1028.362" fill="#e0e0e0" fill-opacity="1" fill-rule="nonzero" stroke="none" stroke-dasharray="none" stroke-dashoffset="0" stroke-linecap="butt" stroke-linejoin="miter" stroke-miterlimit="4" stroke-opacity="1" stroke-width="1" clip-rule="nonzero" color="#000" color-interpolation="sRGB" color-interpolation-filters="linearRGB" color-rendering="auto" display="inline" enable-background="accumulate" image-rendering="auto" opacity="1" overflow="visible" shape-rendering="auto" text-rendering="auto" visibility="visible" style="isolation:auto;mix-blend-mode:normal;solid-color:#000;solid-opacity:1"/><rect id="rect4163" width="5" height="5" x="-7" y="1036.362" fill="#9e9e9e" fill-opacity="1" fill-rule="nonzero" stroke="none" stroke-dasharray="none" stroke-dashoffset="0" stroke-linecap="butt" stroke-linejoin="miter" stroke-miterlimit="4" stroke-opacity="1" stroke-width="1" clip-rule="nonzero" color="#000" color-interpolation="sRGB" color-interpolation-filters="linearRGB" color-rendering="auto" display="inline" enable-background="accumulate" image-rendering="auto" opacity="1" overflow="visible" shape-rendering="auto" text-rendering="auto" visibility="visible" style="isolation:auto;mix-blend-mode:normal;solid-color:#000;solid-opacity:1"/></g></svg>