<svg xmlns="http://www.w3.org/2000/svg" xmlns:svg="http://www.w3.org/2000/svg" xmlns:xlink="http://www.w3.org/1999/xlink" id="svg2" width="32" height="32" version="1.1" viewBox="0 0 32 32"><defs id="defs4"><style id="current-color-scheme" type="text/css"/><style id="current-color-scheme-10" type="text/css"/><style id="current-color-scheme-1" type="text/css"/><style id="current-color-scheme-4" type="text/css"/><linearGradient id="Shadow"><stop id="stop4260" offset="0" stop-color="#000" stop-opacity="1"/><stop id="stop4262" offset=".308" stop-color="#000" stop-opacity=".309"/><stop id="stop4282" offset=".538" stop-color="#000" stop-opacity=".094"/><stop id="stop4284" offset=".692" stop-color="#000" stop-opacity=".133"/><stop id="stop4264" offset=".846" stop-color="#000" stop-opacity=".118"/><stop id="stop4266" offset="1" stop-color="#000" stop-opacity="0"/></linearGradient><style id="current-color-scheme-10-5" type="text/css"/><style id="current-color-scheme-1-1" type="text/css"/><linearGradient id="linearGradient4301" x1="12" x2="4" y1="1031.362" y2="1035.981" gradientTransform="translate(0,-1020.3622)" gradientUnits="userSpaceOnUse" xlink:href="#Shadow"/><linearGradient id="linearGradient4312" x1="3.973" x2="28.027" y1="1039.362" y2="1039.362" gradientTransform="translate(0,-1020.3622)" gradientUnits="userSpaceOnUse" xlink:href="#Shadow"/><radialGradient id="radialGradient4328" cx="6.799" cy="25.36" r="6.014" fx="6.799" fy="25.36" gradientTransform="matrix(-1.3302942,2.0923983e-7,-2.3791341e-7,-1.4965809,22.044445,60.953901)" gradientUnits="userSpaceOnUse" xlink:href="#Shadow"/><radialGradient id="radialGradient4360" cx="6.799" cy="25.36" r="6.014" fx="6.799" fy="25.36" gradientTransform="matrix(1.3302942,2.0923983e-7,2.3791341e-7,-1.4965809,9.9281386,1081.3161)" gradientUnits="userSpaceOnUse" xlink:href="#Shadow"/><linearGradient id="linearGradient4362" x1="12" x2="4" y1="1031.362" y2="1035.981" gradientTransform="matrix(-1,0,0,1,31.972584,0)" gradientUnits="userSpaceOnUse" xlink:href="#Shadow"/></defs><metadata id="metadata7"/><g id="layer1" transform="translate(0,-1020.3622)"><path id="path4356" fill="url(#radialGradient4360)" fill-opacity="1" fill-rule="evenodd" stroke="none" stroke-linecap="butt" stroke-linejoin="miter" stroke-opacity="1" stroke-width="1" d="m 15.972584,1037.3622 10.966796,0 -0.04687,0.7383 a 11,11 0 0 1 0.08008,1.2617 11,11 0 0 1 -0.08203,1.2246 l 0.107422,1.6777 c 0.959565,0.554 1.286427,1.7729 0.732422,2.7325 l -1,1.7304 c -0.554005,0.9596 -1.772857,1.2865 -2.732422,0.7325 l -1.501953,0.7421 a 11,11 0 0 1 -2.164062,1.254 l -1.359375,0.9062 c 0,1.108 -0.89199,2 -2,2 l -1,0 0,-15 z"/><path id="path4358" fill="url(#linearGradient4362)" fill-opacity="1" fill-rule="evenodd" stroke="none" stroke-linecap="butt" stroke-linejoin="miter" stroke-opacity="1" stroke-width="1" d="m 16.972584,1026.3622 c 1.10801,0 2,0.892 2,2 l 1.400391,0.9336 a 11,11 0 0 1 2.126952,1.2285 l 1.498047,0.7402 c 0.959565,-0.554 2.178417,-0.2271 2.732422,0.7325 l 1,1.7304 c 0.554005,0.9596 0.227143,2.1785 -0.732422,2.7325 l -0.05859,0.9023 -10.966796,0 0,-11 1,0 z"/><path id="path4318" fill="url(#radialGradient4328)" fill-opacity="1" fill-rule="evenodd" stroke="none" stroke-linecap="butt" stroke-linejoin="miter" stroke-opacity="1" stroke-width="1" d="M 16 17 L 5.0332031 17 L 5.0800781 17.738281 A 11 11 0 0 0 5 19 A 11 11 0 0 0 5.0820312 20.224609 L 4.9746094 21.902344 C 4.0150449 22.456344 3.6881827 23.675166 4.2421875 24.634766 L 5.2421875 26.365234 C 5.7961923 27.324834 7.0150449 27.651656 7.9746094 27.097656 L 9.4765625 27.839844 A 11 11 0 0 0 11.640625 29.09375 L 13 30 C 13 31.108 13.89199 32 15 32 L 16 32 L 16 17 z" transform="translate(0,1020.3622)"/><path id="path4306" fill="url(#linearGradient4301)" fill-opacity="1" fill-rule="evenodd" stroke="none" stroke-linecap="butt" stroke-linejoin="miter" stroke-opacity="1" stroke-width="1" d="M 15 6 C 13.89199 6 13 6.892 13 8 L 11.599609 8.9335938 A 11 11 0 0 0 9.4726562 10.162109 L 7.9746094 10.902344 C 7.0150449 10.348344 5.7961923 10.675166 5.2421875 11.634766 L 4.2421875 13.365234 C 3.6881827 14.324834 4.0150449 15.543656 4.9746094 16.097656 L 5.0332031 17 L 16 17 L 16 6 L 15 6 z" transform="translate(0,1020.3622)"/><path id="path4172" fill="url(#linearGradient4312)" fill-opacity="1" fill-rule="evenodd" stroke="none" stroke-linecap="butt" stroke-linejoin="miter" stroke-opacity="1" stroke-width="1" d="M 16 6 L 16 17 L 26.966797 17 L 27.025391 16.097656 C 27.984955 15.543656 28.311818 14.324834 27.757812 13.365234 L 26.757812 11.634766 C 26.203809 10.675166 24.984955 10.348344 24.025391 10.902344 L 22.523438 10.160156 A 11 11 0 0 0 20.359375 8.90625 L 19 8 C 19 6.892 18.10801 6 17 6 L 16 6 z" transform="translate(0,1020.3622)"/><path id="path4329" fill="#455a64" fill-opacity="1" fill-rule="evenodd" stroke="none" stroke-linecap="butt" stroke-linejoin="miter" stroke-opacity="1" stroke-width="1" d="m 4.9737206,1040.2641 0.2320508,-3.5981 4.9999996,8.6603 1,1.7321 -3.2320504,-1.5981 z"/><path id="path4333" fill="#455a64" fill-opacity="1" fill-rule="evenodd" stroke="none" stroke-linecap="butt" stroke-linejoin="miter" stroke-opacity="1" stroke-width="1" d="m 4.9737206,1034.4603 0.2320508,3.5981 4.9999996,-8.6603 1,-1.7321 -3.2320504,1.5981 z"/><path id="path4335" fill="#455a64" fill-opacity="1" fill-rule="evenodd" stroke="none" stroke-linecap="butt" stroke-linejoin="miter" stroke-opacity="1" stroke-width="1" d="m 24.026279,1045.4603 -3.23205,1.5981 5,-8.6603 1,-1.7321 0.23205,3.5981 z"/><path id="path4327" fill="#455a64" fill-opacity="1" fill-rule="evenodd" stroke="none" stroke-linecap="butt" stroke-linejoin="miter" stroke-opacity="1" stroke-width="1" d="m 13,1048.3622 -3,-2 10,0 2,0 -3,2 z"/><path id="path4325" fill="#455a64" fill-opacity="1" fill-rule="evenodd" stroke="none" stroke-linecap="butt" stroke-linejoin="miter" stroke-opacity="1" stroke-width="1" d="m 13,1026.3622 -3,2 10,0 2,0 -3,-2 z"/><rect id="rect4311" width="6" height="26" x="903.382" y="491.825" fill="#455a64" fill-opacity="1" stroke="none" stroke-dasharray="none" stroke-linecap="round" stroke-linejoin="round" stroke-miterlimit="4" stroke-opacity="1" stroke-width="2" opacity="1" ry="2" transform="matrix(0.5,0.8660254,-0.8660254,0.5,0,0)"/><rect id="rect4313" width="6" height="26" x="-893.382" y="-545.537" fill="#455a64" fill-opacity="1" stroke="none" stroke-dasharray="none" stroke-linecap="round" stroke-linejoin="round" stroke-miterlimit="4" stroke-opacity="1" stroke-width="2" opacity="1" ry="2" transform="matrix(0.5,-0.8660254,-0.8660254,-0.5,0,0)"/><rect id="rect4309" width="6" height="26" x="13" y="1024.362" fill="#455a64" fill-opacity="1" stroke="none" stroke-dasharray="none" stroke-linecap="round" stroke-linejoin="round" stroke-miterlimit="4" stroke-opacity="1" stroke-width="2" opacity="1" ry="2"/><circle id="circle4305" cx="16" cy="1037.362" r="11" fill="#455a64" fill-opacity="1" stroke="none" stroke-dasharray="none" stroke-linecap="round" stroke-linejoin="round" stroke-miterlimit="4" stroke-opacity="1" stroke-width="2" opacity="1"/><circle id="circle4317" cx="16" cy="1037.362" r="10" fill="#546e7a" fill-opacity="1" stroke="none" stroke-dasharray="none" stroke-linecap="round" stroke-linejoin="round" stroke-miterlimit="4" stroke-opacity="1" stroke-width="2" opacity="1"/><rect id="rect4304" width="5" height="5" x="-7" y="1020.362" fill="#78909c" fill-opacity="1" fill-rule="nonzero" stroke="none" stroke-dasharray="none" stroke-dashoffset="0" stroke-linecap="butt" stroke-linejoin="miter" stroke-miterlimit="4" stroke-opacity="1" stroke-width="1" clip-rule="nonzero" color="#000" color-interpolation="sRGB" color-interpolation-filters="linearRGB" color-rendering="auto" display="inline" enable-background="accumulate" image-rendering="auto" opacity="1" overflow="visible" shape-rendering="auto" text-rendering="auto" visibility="visible" style="isolation:auto;mix-blend-mode:normal;solid-color:#000;solid-opacity:1"/><rect id="rect4306" width="5" height="5" x="-7" y="1028.362" fill="#546e7a" fill-opacity="1" fill-rule="nonzero" stroke="none" stroke-dasharray="none" stroke-dashoffset="0" stroke-linecap="butt" stroke-linejoin="miter" stroke-miterlimit="4" stroke-opacity="1" stroke-width="1" clip-rule="nonzero" color="#000" color-interpolation="sRGB" color-interpolation-filters="linearRGB" color-rendering="auto" display="inline" enable-background="accumulate" image-rendering="auto" opacity="1" overflow="visible" shape-rendering="auto" text-rendering="auto" visibility="visible" style="isolation:auto;mix-blend-mode:normal;solid-color:#000;solid-opacity:1"/><rect id="rect4156" width="5" height="5" x="-7" y="1036.362" fill="#455a64" fill-opacity="1" fill-rule="nonzero" stroke="none" stroke-dasharray="none" stroke-dashoffset="0" stroke-linecap="butt" stroke-linejoin="miter" stroke-miterlimit="4" stroke-opacity="1" stroke-width="1" clip-rule="nonzero" color="#000" color-interpolation="sRGB" color-interpolation-filters="linearRGB" color-rendering="auto" display="inline" enable-background="accumulate" image-rendering="auto" opacity="1" overflow="visible" shape-rendering="auto" text-rendering="auto" visibility="visible" style="isolation:auto;mix-blend-mode:normal;solid-color:#000;solid-opacity:1"/><rect id="rect4509" width="5" height="5" x="-15" y="1020.362" fill="#4dd0e1" fill-opacity="1" fill-rule="nonzero" stroke="none" stroke-dasharray="none" stroke-dashoffset="0" stroke-linecap="butt" stroke-linejoin="miter" stroke-miterlimit="4" stroke-opacity="1" stroke-width="1" clip-rule="nonzero" color="#000" color-interpolation="sRGB" color-interpolation-filters="linearRGB" color-rendering="auto" display="inline" enable-background="accumulate" image-rendering="auto" opacity="1" overflow="visible" shape-rendering="auto" text-rendering="auto" visibility="visible" style="isolation:auto;mix-blend-mode:normal;solid-color:#000;solid-opacity:1"/><rect id="rect4520" width="5" height="5" x="-7" y="1044.362" fill="#37474f" fill-opacity="1" fill-rule="nonzero" stroke="none" stroke-dasharray="none" stroke-dashoffset="0" stroke-linecap="butt" stroke-linejoin="miter" stroke-miterlimit="4" stroke-opacity="1" stroke-width="1" clip-rule="nonzero" color="#000" color-interpolation="sRGB" color-interpolation-filters="linearRGB" color-rendering="auto" display="inline" enable-background="accumulate" image-rendering="auto" opacity="1" overflow="visible" shape-rendering="auto" text-rendering="auto" visibility="visible" style="isolation:auto;mix-blend-mode:normal;solid-color:#000;solid-opacity:1"/><rect id="rect4319" width="4" height="24" x="14" y="1025.362" fill="#546e7a" fill-opacity="1" stroke="none" stroke-dasharray="none" stroke-linecap="round" stroke-linejoin="round" stroke-miterlimit="4" stroke-opacity="1" stroke-width="2" opacity="1" ry="1"/><rect id="rect4321" width="4" height="24" x="904.382" y="492.825" fill="#546e7a" fill-opacity="1" stroke="none" stroke-dasharray="none" stroke-linecap="round" stroke-linejoin="round" stroke-miterlimit="4" stroke-opacity="1" stroke-width="2" opacity="1" ry="1" transform="matrix(0.5,0.8660254,-0.8660254,0.5,0,0)"/><rect id="rect4323" width="4" height="24" x="-892.382" y="-544.538" fill="#546e7a" fill-opacity="1" stroke="none" stroke-dasharray="none" stroke-linecap="round" stroke-linejoin="round" stroke-miterlimit="4" stroke-opacity="1" stroke-width="2" opacity="1" ry="1" transform="matrix(0.5,-0.8660254,-0.8660254,-0.5,0,0)"/><circle id="circle4303" cx="16" cy="1037.362" r="7" fill="#78909c" fill-opacity="1" stroke="none" stroke-dasharray="none" stroke-linecap="round" stroke-linejoin="round" stroke-miterlimit="4" stroke-opacity="1" stroke-width="2" opacity="1"/><circle id="circle4301" cx="16" cy="1037.362" r="5" fill="#455a64" fill-opacity="1" stroke="none" stroke-dasharray="none" stroke-linecap="round" stroke-linejoin="round" stroke-miterlimit="4" stroke-opacity="1" stroke-width="2" opacity="1"/><circle id="circle4299" cx="16" cy="1037.362" r="3" fill="#37474f" fill-opacity="1" stroke="none" stroke-dasharray="none" stroke-linecap="round" stroke-linejoin="round" stroke-miterlimit="4" stroke-opacity="1" stroke-width="2" opacity="1"/><circle id="path4297" cx="16" cy="1037.362" r="2" fill="#4dd0e1" fill-opacity="1" stroke="none" stroke-dasharray="none" stroke-linecap="round" stroke-linejoin="round" stroke-miterlimit="4" stroke-opacity="1" stroke-width="2" opacity="1"/><path id="path4337" fill="#546e7a" fill-opacity="1" fill-rule="evenodd" stroke="none" stroke-linecap="butt" stroke-linejoin="miter" stroke-opacity="1" stroke-width="1" d="m 14,1026.3622 -2,2 8,0 -2,-2 z"/><path id="path4339" fill="#546e7a" fill-opacity="1" fill-rule="evenodd" stroke="none" stroke-linecap="butt" stroke-linejoin="miter" stroke-opacity="1" stroke-width="1" d="m 14,1048.3622 -2,-2 8,0 -2,2 z"/><path id="path4341" fill="#546e7a" fill-opacity="1" fill-rule="evenodd" stroke="none" stroke-linecap="butt" stroke-linejoin="miter" stroke-opacity="1" stroke-width="1" d="m 24.526279,1030.1301 -2.73205,-0.732 4,6.9282 0.73205,-2.732 z"/><path id="path4343" fill="#546e7a" fill-opacity="1" fill-rule="evenodd" stroke="none" stroke-linecap="butt" stroke-linejoin="miter" stroke-opacity="1" stroke-width="1" d="m 5.4737206,1041.1301 0.7320508,-2.732 3.9999996,6.9282 -2.7320504,-0.732 z"/><path id="path4345" fill="#546e7a" fill-opacity="1" fill-rule="evenodd" stroke="none" stroke-linecap="butt" stroke-linejoin="miter" stroke-opacity="1" stroke-width="1" d="m 24.526279,1044.5943 -2.73205,0.732 4,-6.9282 0.73205,2.732 z"/><path id="path4347" fill="#546e7a" fill-opacity="1" fill-rule="evenodd" stroke="none" stroke-linecap="butt" stroke-linejoin="miter" stroke-opacity="1" stroke-width="1" d="m 5.4737206,1033.5943 0.7320508,2.732 3.9999996,-6.9282 -2.7320504,0.732 z"/></g></svg>