<svg xmlns="http://www.w3.org/2000/svg" xmlns:svg="http://www.w3.org/2000/svg" xmlns:xlink="http://www.w3.org/1999/xlink" id="svg5453" width="48" height="48" version="1.1" viewBox="0 0 48 48"><defs id="defs5455"><linearGradient id="linearGradient4345"><stop id="stop4347" offset="0" stop-color="#000" stop-opacity=".196"/><stop id="stop4351" offset=".25" stop-color="#000" stop-opacity=".196"/><stop id="stop4353" offset=".75" stop-color="#000" stop-opacity=".247"/><stop id="stop4349" offset="1" stop-color="#000" stop-opacity="0"/></linearGradient><radialGradient id="radialGradient4200" cx="44" cy="42.5" r="1.5" fx="44" fy="42.5" gradientTransform="matrix(-5.6193702e-6,2.6666672,-2.0000002,-4.2145248e-6,521.57173,415.46482)" gradientUnits="userSpaceOnUse" xlink:href="#Shadow"/><linearGradient id="Shadow"><stop id="stop4186" offset="0" stop-color="#000" stop-opacity="1"/><stop id="stop4188" offset="1" stop-color="#000" stop-opacity="0"/></linearGradient><linearGradient id="linearGradient4190" x1="24" x2="24" y1="42" y2="46" gradientTransform="translate(392.57146,490.79802)" gradientUnits="userSpaceOnUse" xlink:href="#Shadow"/><radialGradient id="radialGradient4208" cx="4" cy="42.5" r="1.5" fx="4" fy="42.5" gradientTransform="matrix(-2.0000003,-2.9351832e-6,3.9135795e-6,-2.6666669,404.5713,646.13135)" gradientUnits="userSpaceOnUse" xlink:href="#Shadow"/><linearGradient id="linearGradient4343" x1="416.571" x2="416.571" y1="512.798" y2="528.798" gradientTransform="translate(-392.57144,-491.798)" gradientUnits="userSpaceOnUse" xlink:href="#linearGradient4345"/><linearGradient id="linearGradient4192" x1="422.571" x2="422.571" y1="524.798" y2="527.798" gradientUnits="userSpaceOnUse" xlink:href="#Shadow"/><linearGradient id="linearGradient4194" x1="416.571" x2="416.571" y1="525.798" y2="528.798" gradientUnits="userSpaceOnUse" xlink:href="#Shadow"/><linearGradient id="linearGradient4196" x1="411.571" x2="411.571" y1="524.798" y2="527.798" gradientUnits="userSpaceOnUse" xlink:href="#Shadow"/></defs><metadata id="metadata5458"/><g id="layer1" transform="translate(-392.57144,-491.798)"><path id="rect4161" fill="#0288d1" fill-opacity="1" stroke="none" stroke-dasharray="none" stroke-linecap="round" stroke-linejoin="round" stroke-miterlimit="4" stroke-opacity=".528" stroke-width="2" d="m 407.57146,499.79799 0,2.99998 0,10 0,4.00003 32,0 0,-5.00003 0,-9 c 0,-1.66197 -1.33803,-3.00753 -3,-2.99998 l -22,0 -4,0 z" opacity="1"/><rect id="rect4157-54" width="5" height="5" x="385.571" y="-514.798" fill="#039be5" fill-opacity="1" fill-rule="nonzero" stroke="none" stroke-dasharray="none" stroke-dashoffset="0" stroke-linecap="butt" stroke-linejoin="miter" stroke-miterlimit="4" stroke-opacity="1" stroke-width="1" clip-rule="nonzero" color="#000" color-interpolation="sRGB" color-interpolation-filters="linearRGB" color-rendering="auto" display="inline" enable-background="accumulate" image-rendering="auto" opacity="1" overflow="visible" shape-rendering="auto" text-rendering="auto" transform="scale(1,-1)" visibility="visible" style="isolation:auto;mix-blend-mode:normal;solid-color:#000;solid-opacity:1"/><rect id="rect4157-5" width="5" height="5" x="385.571" y="-506.798" fill="#03a9f4" fill-opacity="1" fill-rule="nonzero" stroke="none" stroke-dasharray="none" stroke-dashoffset="0" stroke-linecap="butt" stroke-linejoin="miter" stroke-miterlimit="4" stroke-opacity="1" stroke-width="1" clip-rule="nonzero" color="#000" color-interpolation="sRGB" color-interpolation-filters="linearRGB" color-rendering="auto" display="inline" enable-background="accumulate" image-rendering="auto" opacity="1" overflow="visible" shape-rendering="auto" text-rendering="auto" transform="scale(1,-1)" visibility="visible" style="isolation:auto;mix-blend-mode:normal;solid-color:#000;solid-opacity:1"/><rect id="rect4157-8" width="5" height="5" x="385.571" y="517.799" fill="#0288d1" fill-opacity="1" fill-rule="nonzero" stroke="none" stroke-dasharray="none" stroke-dashoffset="0" stroke-linecap="butt" stroke-linejoin="miter" stroke-miterlimit="4" stroke-opacity="1" stroke-width="1" clip-rule="nonzero" color="#000" color-interpolation="sRGB" color-interpolation-filters="linearRGB" color-rendering="auto" display="inline" enable-background="accumulate" image-rendering="auto" opacity="1" overflow="visible" shape-rendering="auto" text-rendering="auto" visibility="visible" style="isolation:auto;mix-blend-mode:normal;solid-color:#000;solid-opacity:1"/><path id="path4174" fill="url(#radialGradient4200)" fill-opacity="1" stroke="none" stroke-dasharray="none" stroke-linecap="butt" stroke-linejoin="round" stroke-miterlimit="4" stroke-opacity="1" stroke-width="2" d="m 436.57146,532.798 0,4 1,0 c 1.108,0 2,-0.892 2,-2 l 0,-2 -3,0 z" opacity=".7"/><path id="path4169" fill="url(#linearGradient4190)" fill-opacity="1" stroke="none" stroke-dasharray="none" stroke-linecap="butt" stroke-linejoin="round" stroke-miterlimit="4" stroke-opacity="1" stroke-width="2" d="m 396.57146,532.798 0,4 40,0 0,-4 -40,0 z" opacity=".7"/><path id="rect4157" fill="url(#radialGradient4208)" fill-opacity="1" stroke="none" stroke-dasharray="none" stroke-linecap="butt" stroke-linejoin="round" stroke-miterlimit="4" stroke-opacity="1" stroke-width="2" d="m 393.57146,532.798 0,2 c 0,1.108 0.892,2 2,2 l 1,0 0,-4 -3,0 z" opacity=".7"/><path id="rect4188" fill="#e8e5dc" fill-opacity="1" stroke="none" stroke-dasharray="none" stroke-linecap="butt" stroke-linejoin="round" stroke-miterlimit="4" stroke-opacity="1" stroke-width="2" d="m 413.57146,501.798 22,0 c 1.108,0 2,0.892 2,2 l 0,3 c 0,1.108 -0.892,2 -2,2 l -22,0 c -1.108,0 -2,-0.892 -2,-2 l 0,-3 c 0,-1.108 0.892,-2 2,-2 z" opacity="1"/><path id="rect4190" fill="#fffbec" fill-opacity="1" stroke="none" stroke-dasharray="none" stroke-linecap="butt" stroke-linejoin="round" stroke-miterlimit="4" stroke-opacity="1" stroke-width="2" d="m 413.57146,502.798 22,0 c 0.554,0 1,0.446 1,1 l 0,4 c 0,0.554 -0.446,1 -1,1 l -22,0 c -0.554,0 -1,-0.446 -1,-1 l 0,-4 c 0,-0.554 0.446,-1 1,-1 z" opacity="1"/><rect id="rect4200" width="5" height="5" x="377.571" y="493.798" fill="#fffbec" fill-opacity="1" fill-rule="nonzero" stroke="none" stroke-dasharray="none" stroke-dashoffset="0" stroke-linecap="butt" stroke-linejoin="miter" stroke-miterlimit="4" stroke-opacity="1" stroke-width="1" clip-rule="nonzero" color="#000" color-interpolation="sRGB" color-interpolation-filters="linearRGB" color-rendering="auto" display="inline" enable-background="accumulate" image-rendering="auto" opacity="1" overflow="visible" shape-rendering="auto" text-rendering="auto" visibility="visible" style="isolation:auto;mix-blend-mode:normal;solid-color:#000;solid-opacity:1"/><rect id="rect4202" width="5" height="5" x="377.571" y="501.798" fill="#e8e5dc" fill-opacity="1" fill-rule="nonzero" stroke="none" stroke-dasharray="none" stroke-dashoffset="0" stroke-linecap="butt" stroke-linejoin="miter" stroke-miterlimit="4" stroke-opacity="1" stroke-width="1" clip-rule="nonzero" color="#000" color-interpolation="sRGB" color-interpolation-filters="linearRGB" color-rendering="auto" display="inline" enable-background="accumulate" image-rendering="auto" opacity="1" overflow="visible" shape-rendering="auto" text-rendering="auto" visibility="visible" style="isolation:auto;mix-blend-mode:normal;solid-color:#000;solid-opacity:1"/><path id="path4221" fill="#039be5" fill-opacity="1" stroke="none" stroke-dasharray="none" stroke-linecap="round" stroke-linejoin="round" stroke-miterlimit="4" stroke-opacity=".528" stroke-width="2" d="m 396.57146,496.79803 c -1.66199,1e-5 -3,1.33797 -3,2.99991 l 0,32.00015 c 0,1.66194 1.33801,2.99991 3,2.99991 l 15,0 6,0 19,0 c 1.66199,0 3,-1.33797 3,-2.99991 l 0,-24.00017 c 0,-1.66194 -1.33801,-2.99998 -3,-2.99991 l -19,0 -2,-7.00003 c -0.15219,-0.53267 -0.446,-1.00029 -1,-0.99998 l -2,0 -1,0 z" opacity="1"/><path id="path4183" fill="#03a9f4" fill-opacity="1" stroke="none" stroke-dasharray="none" stroke-linecap="round" stroke-linejoin="round" stroke-miterlimit="4" stroke-opacity=".528" stroke-width="2" d="m 396.57146,497.79913 c -1.10799,0 -2,0.89198 -2,1.99993 l 0,31.999 c 0,1.10796 0.89201,1.99994 2,1.99994 l 15,0 5,0 20,0 c 1.108,0 2,-0.89198 2,-1.99994 l 0,-23.99927 c 0,-1.10795 -0.89201,-2.00547 -2,-1.99994 l -20,0 -2,-6.99975 c -0.15219,-0.53267 -0.44669,-1.02764 -1,-0.99997 l -2,0 z" opacity="1"/><rect id="rect4250" width="5" height="5" x="385.571" y="493.798" fill="#b3e5fc" fill-opacity="1" fill-rule="nonzero" stroke="none" stroke-dasharray="none" stroke-dashoffset="0" stroke-linecap="butt" stroke-linejoin="miter" stroke-miterlimit="4" stroke-opacity="1" stroke-width="1" clip-rule="nonzero" color="#000" color-interpolation="sRGB" color-interpolation-filters="linearRGB" color-rendering="auto" display="inline" enable-background="accumulate" image-rendering="auto" opacity="1" overflow="visible" shape-rendering="auto" text-rendering="auto" visibility="visible" style="isolation:auto;mix-blend-mode:normal;solid-color:#000;solid-opacity:1"/><path id="path4341" fill="url(#linearGradient4343)" fill-opacity="1" stroke="none" d="M 16 21 L 16 25 L 23 25 L 23 33 L 21 33 L 21 34 L 16 34 L 16 35 L 23 35 A 1 1 0 0 1 24 34 A 1 1 0 0 1 25 35 L 32 35 L 32 34 L 27 34 L 27 33 L 25 33 L 25 25 L 32 25 L 32 21 L 16 21 z M 30 22 A 1 1 0 0 1 31 23 A 1 1 0 0 1 30 24 A 1 1 0 0 1 29 23 A 1 1 0 0 1 30 22 z" opacity="1" transform="translate(392.57144,491.798)"/><path id="rect4241" fill="#b3e5fc" fill-opacity="1" stroke="none" d="M 16 20 L 16 24 L 23 24 L 23 32 L 21 32 L 21 33 L 16 33 L 16 35 L 21 35 L 21 36 L 23 36 L 25 36 L 27 36 L 27 35 L 32 35 L 32 33 L 27 33 L 27 32 L 25 32 L 25 24 L 32 24 L 32 20 L 16 20 z M 30 21 A 1 1 0 0 1 31 22 A 1 1 0 0 1 30 23 A 1 1 0 0 1 29 22 A 1 1 0 0 1 30 21 z M 24 33 A 1 1 0 0 1 25 34 A 1 1 0 0 1 24 35 A 1 1 0 0 1 23 34 A 1 1 0 0 1 24 33 z" opacity="1" transform="translate(392.57144,491.798)"/><rect id="rect4182" width="5" height="1" x="408.571" y="526.798" fill="url(#linearGradient4196)" fill-opacity="1" stroke="none" stroke-dasharray="none" stroke-linecap="round" stroke-linejoin="round" stroke-miterlimit="4" stroke-opacity=".528" stroke-width="2" opacity="1"/><rect id="rect4184" width="6" height="1" x="413.571" y="527.798" fill="url(#linearGradient4194)" fill-opacity="1" stroke="none" stroke-dasharray="none" stroke-linecap="round" stroke-linejoin="round" stroke-miterlimit="4" stroke-opacity=".528" stroke-width="2" opacity="1"/><rect id="rect4186" width="5" height="1" x="419.571" y="526.798" fill="url(#linearGradient4192)" fill-opacity="1" stroke="none" stroke-dasharray="none" stroke-linecap="round" stroke-linejoin="round" stroke-miterlimit="4" stroke-opacity=".528" stroke-width="2" opacity="1"/></g></svg>