<svg xmlns="http://www.w3.org/2000/svg" xmlns:svg="http://www.w3.org/2000/svg" xmlns:xlink="http://www.w3.org/1999/xlink" id="svg5453" width="48" height="48" version="1.1" viewBox="0 0 48 48"><defs id="defs5455"><linearGradient id="Shadow"><stop id="stop4186" offset="0" stop-color="#000" stop-opacity="1"/><stop id="stop4188" offset="1" stop-color="#000" stop-opacity="0"/></linearGradient><linearGradient id="linearGradient4190" x1="24" x2="24" y1="42" y2="46" gradientTransform="translate(392.57144,490.798)" gradientUnits="userSpaceOnUse" xlink:href="#Shadow"/><radialGradient id="radialGradient4200" cx="44" cy="42.5" r="1.5" fx="44" fy="42.5" gradientTransform="matrix(-5.6193702e-6,2.666668,-2.0000002,-4.214526e-6,521.57171,415.46478)" gradientUnits="userSpaceOnUse" xlink:href="#Shadow"/><radialGradient id="radialGradient4208" cx="4" cy="42.5" r="1.5" fx="4" fy="42.5" gradientTransform="matrix(-2.0000003,-2.935184e-6,3.9135795e-6,-2.6666677,404.57128,646.13139)" gradientUnits="userSpaceOnUse" xlink:href="#Shadow"/></defs><metadata id="metadata5458"/><g id="layer1" transform="translate(-392.57144,-491.798)"><rect id="rect4157-54" width="5" height="5" x="385.571" y="-504.798" fill="#039be5" fill-opacity="1" fill-rule="nonzero" stroke="none" stroke-dasharray="none" stroke-dashoffset="0" stroke-linecap="butt" stroke-linejoin="miter" stroke-miterlimit="4" stroke-opacity="1" stroke-width="1" clip-rule="nonzero" color="#000" color-interpolation="sRGB" color-interpolation-filters="linearRGB" color-rendering="auto" display="inline" enable-background="accumulate" image-rendering="auto" opacity="1" overflow="visible" shape-rendering="auto" text-rendering="auto" transform="scale(1,-1)" visibility="visible" style="isolation:auto;mix-blend-mode:normal;solid-color:#000;solid-opacity:1"/><rect id="rect4157-5" width="5" height="5" x="385.571" y="-496.798" fill="#03a9f4" fill-opacity="1" fill-rule="nonzero" stroke="none" stroke-dasharray="none" stroke-dashoffset="0" stroke-linecap="butt" stroke-linejoin="miter" stroke-miterlimit="4" stroke-opacity="1" stroke-width="1" clip-rule="nonzero" color="#000" color-interpolation="sRGB" color-interpolation-filters="linearRGB" color-rendering="auto" display="inline" enable-background="accumulate" image-rendering="auto" opacity="1" overflow="visible" shape-rendering="auto" text-rendering="auto" transform="scale(1,-1)" visibility="visible" style="isolation:auto;mix-blend-mode:normal;solid-color:#000;solid-opacity:1"/><rect id="rect4157-8" width="5" height="5" x="385.571" y="507.798" fill="#0288d1" fill-opacity="1" fill-rule="nonzero" stroke="none" stroke-dasharray="none" stroke-dashoffset="0" stroke-linecap="butt" stroke-linejoin="miter" stroke-miterlimit="4" stroke-opacity="1" stroke-width="1" clip-rule="nonzero" color="#000" color-interpolation="sRGB" color-interpolation-filters="linearRGB" color-rendering="auto" display="inline" enable-background="accumulate" image-rendering="auto" opacity="1" overflow="visible" shape-rendering="auto" text-rendering="auto" visibility="visible" style="isolation:auto;mix-blend-mode:normal;solid-color:#000;solid-opacity:1"/><path id="path4174" fill="url(#radialGradient4200)" fill-opacity="1" stroke="none" stroke-dasharray="none" stroke-linecap="butt" stroke-linejoin="round" stroke-miterlimit="4" stroke-opacity="1" stroke-width="2" d="m 436.57144,532.798 0,4 1,0 c 1.108,0 2,-0.892 2,-2 l 0,-2 -3,0 z" opacity=".7"/><path id="path4169" fill="url(#linearGradient4190)" fill-opacity="1" stroke="none" stroke-dasharray="none" stroke-linecap="butt" stroke-linejoin="round" stroke-miterlimit="4" stroke-opacity="1" stroke-width="2" d="m 396.57144,532.798 0,4 40,0 0,-4 -40,0 z" opacity=".7"/><path id="rect4157" fill="url(#radialGradient4208)" fill-opacity="1" stroke="none" stroke-dasharray="none" stroke-linecap="butt" stroke-linejoin="round" stroke-miterlimit="4" stroke-opacity="1" stroke-width="2" d="m 393.57144,532.798 0,2 c 0,1.108 0.892,2 2,2 l 1,0 0,-4 -3,0 z" opacity=".7"/><rect id="rect4200" width="5" height="5" x="377.571" y="491.798" fill="#fffbec" fill-opacity="1" fill-rule="nonzero" stroke="none" stroke-dasharray="none" stroke-dashoffset="0" stroke-linecap="butt" stroke-linejoin="miter" stroke-miterlimit="4" stroke-opacity="1" stroke-width="1" clip-rule="nonzero" color="#000" color-interpolation="sRGB" color-interpolation-filters="linearRGB" color-rendering="auto" display="inline" enable-background="accumulate" image-rendering="auto" opacity="1" overflow="visible" shape-rendering="auto" text-rendering="auto" visibility="visible" style="isolation:auto;mix-blend-mode:normal;solid-color:#000;solid-opacity:1"/><rect id="rect4202" width="5" height="5" x="377.571" y="499.798" fill="#e8e5dc" fill-opacity="1" fill-rule="nonzero" stroke="none" stroke-dasharray="none" stroke-dashoffset="0" stroke-linecap="butt" stroke-linejoin="miter" stroke-miterlimit="4" stroke-opacity="1" stroke-width="1" clip-rule="nonzero" color="#000" color-interpolation="sRGB" color-interpolation-filters="linearRGB" color-rendering="auto" display="inline" enable-background="accumulate" image-rendering="auto" opacity="1" overflow="visible" shape-rendering="auto" text-rendering="auto" visibility="visible" style="isolation:auto;mix-blend-mode:normal;solid-color:#000;solid-opacity:1"/><path id="rect4161" fill="#0288d1" fill-opacity="1" stroke="none" stroke-dasharray="none" stroke-linecap="round" stroke-linejoin="round" stroke-miterlimit="4" stroke-opacity=".528" stroke-width="2" d="m 407.57145,499.798 0,3 0,10 0,4.00003 32,0 0,-5.00003 0,-9 c 0,-1.66199 -1.33803,-3.00755 -3,-3 l -22,0 -4,0 z" opacity="1"/><path id="rect4188" fill="#e8e5dc" fill-opacity="1" stroke="none" stroke-dasharray="none" stroke-linecap="butt" stroke-linejoin="round" stroke-miterlimit="4" stroke-opacity="1" stroke-width="2" d="m 413.57145,501.79803 22,0 c 1.108,0 2,0.892 2,2 l 0,3 c 0,1.108 -0.892,2 -2,2 l -22,0 c -1.108,0 -2,-0.892 -2,-2 l 0,-3 c 0,-1.108 0.892,-2 2,-2 z" opacity="1"/><path id="rect4190" fill="#fffbec" fill-opacity="1" stroke="none" stroke-dasharray="none" stroke-linecap="butt" stroke-linejoin="round" stroke-miterlimit="4" stroke-opacity="1" stroke-width="2" d="m 413.57145,502.79803 22,0 c 0.554,0 1,0.446 1,1 l 0,4 c 0,0.554 -0.446,1 -1,1 l -22,0 c -0.554,0 -1,-0.446 -1,-1 l 0,-4 c 0,-0.554 0.446,-1 1,-1 z" opacity="1"/><path id="path4221" fill="#039be5" fill-opacity="1" stroke="none" stroke-dasharray="none" stroke-linecap="round" stroke-linejoin="round" stroke-miterlimit="4" stroke-opacity=".528" stroke-width="2" d="m 396.57145,496.79804 c -1.66199,10e-6 -3,1.33797 -3,2.99991 l 0,32.00017 c 0,1.66194 1.33801,2.99991 3,2.99991 l 15,0 6,0 19,0 c 1.66199,0 3,-1.33797 3,-2.99991 l 0,-24.00017 c 0,-1.66194 -1.33801,-2.99998 -3,-2.99991 l -19,0 -2,-7.00005 c -0.15219,-0.53267 -0.446,-1.00029 -1,-0.99998 l -2,0 -1,0 z" opacity="1"/><path id="path4183" fill="#03a9f4" fill-opacity="1" stroke="none" stroke-dasharray="none" stroke-linecap="round" stroke-linejoin="round" stroke-miterlimit="4" stroke-opacity=".528" stroke-width="2" d="m 396.57145,497.79914 c -1.10799,0 -2,0.89198 -2,1.99993 l 0,31.99902 c 0,1.10796 0.89201,1.99994 2,1.99994 l 15,0 5,0 20,0 c 1.108,0 2,-0.89198 2,-1.99994 l 0,-23.99927 c 0,-1.10795 -0.89201,-2.00547 -2,-1.99994 l -20,0 -2,-6.99977 c -0.15219,-0.53267 -0.44669,-1.02764 -1,-0.99997 l -2,0 z" opacity="1"/></g></svg>