<svg xmlns="http://www.w3.org/2000/svg" xmlns:svg="http://www.w3.org/2000/svg" xmlns:xlink="http://www.w3.org/1999/xlink" id="svg5453" width="48" height="48" version="1.1" viewBox="0 0 48 48"><defs id="defs5455"><linearGradient id="linearGradient4315"><stop id="stop4317" offset="0" stop-color="#000" stop-opacity=".196"/><stop id="stop4319" offset="1" stop-color="#000" stop-opacity="0"/></linearGradient><radialGradient id="radialGradient4200" cx="44" cy="42.5" r="1.5" fx="44" fy="42.5" gradientTransform="matrix(-5.6193736e-6,2.6666648,-2.0000014,-4.2145212e-6,521.57182,415.46493)" gradientUnits="userSpaceOnUse" xlink:href="#Shadow"/><linearGradient id="Shadow"><stop id="stop4186" offset="0" stop-color="#000" stop-opacity="1"/><stop id="stop4188" offset="1" stop-color="#000" stop-opacity="0"/></linearGradient><linearGradient id="linearGradient4190" x1="24" x2="24" y1="42" y2="46" gradientTransform="translate(392.57147,490.79807)" gradientUnits="userSpaceOnUse" xlink:href="#Shadow"/><radialGradient id="radialGradient4208" cx="4" cy="42.5" r="1.5" fx="4" fy="42.5" gradientTransform="matrix(-2.0000015,-2.9351808e-6,3.9135817e-6,-2.6666645,404.57133,646.13124)" gradientUnits="userSpaceOnUse" xlink:href="#Shadow"/><linearGradient id="linearGradient4273" x1="416.571" x2="416.571" y1="525.798" y2="528.798" gradientTransform="translate(-2.1263e-4,4.5495e-4)" gradientUnits="userSpaceOnUse" xlink:href="#Shadow"/><linearGradient id="linearGradient4313" x1="24" x2="24" y1="20" y2="37" gradientUnits="userSpaceOnUse" xlink:href="#linearGradient4315"/></defs><metadata id="metadata5458"/><g id="layer1" transform="translate(-392.57144,-491.798)"><path id="rect4161" fill="#0288d1" fill-opacity="1" stroke="none" stroke-dasharray="none" stroke-linecap="round" stroke-linejoin="round" stroke-miterlimit="4" stroke-opacity=".528" stroke-width="2" d="m 407.57149,499.79804 0,2.99994 0,10 0,4.00003 32.00001,0 0,-5.00003 0,-9 c 0,-1.66193 -1.33803,-3.00749 -3,-2.99994 l -22.00001,0 -4,0 z" opacity="1"/><rect id="rect4157-54" width="5" height="5" x="385.572" y="-514.799" fill="#039be5" fill-opacity="1" fill-rule="nonzero" stroke="none" stroke-dasharray="none" stroke-dashoffset="0" stroke-linecap="butt" stroke-linejoin="miter" stroke-miterlimit="4" stroke-opacity="1" stroke-width="1" clip-rule="nonzero" color="#000" color-interpolation="sRGB" color-interpolation-filters="linearRGB" color-rendering="auto" display="inline" enable-background="accumulate" image-rendering="auto" opacity="1" overflow="visible" shape-rendering="auto" text-rendering="auto" transform="scale(1,-1)" visibility="visible" style="isolation:auto;mix-blend-mode:normal;solid-color:#000;solid-opacity:1"/><rect id="rect4157-5" width="5" height="5" x="385.572" y="-506.798" fill="#03a9f4" fill-opacity="1" fill-rule="nonzero" stroke="none" stroke-dasharray="none" stroke-dashoffset="0" stroke-linecap="butt" stroke-linejoin="miter" stroke-miterlimit="4" stroke-opacity="1" stroke-width="1" clip-rule="nonzero" color="#000" color-interpolation="sRGB" color-interpolation-filters="linearRGB" color-rendering="auto" display="inline" enable-background="accumulate" image-rendering="auto" opacity="1" overflow="visible" shape-rendering="auto" text-rendering="auto" transform="scale(1,-1)" visibility="visible" style="isolation:auto;mix-blend-mode:normal;solid-color:#000;solid-opacity:1"/><rect id="rect4157-8" width="5" height="5" x="385.572" y="517.799" fill="#0288d1" fill-opacity="1" fill-rule="nonzero" stroke="none" stroke-dasharray="none" stroke-dashoffset="0" stroke-linecap="butt" stroke-linejoin="miter" stroke-miterlimit="4" stroke-opacity="1" stroke-width="1" clip-rule="nonzero" color="#000" color-interpolation="sRGB" color-interpolation-filters="linearRGB" color-rendering="auto" display="inline" enable-background="accumulate" image-rendering="auto" opacity="1" overflow="visible" shape-rendering="auto" text-rendering="auto" visibility="visible" style="isolation:auto;mix-blend-mode:normal;solid-color:#000;solid-opacity:1"/><path id="path4174" fill="url(#radialGradient4200)" fill-opacity="1" stroke="none" stroke-dasharray="none" stroke-linecap="butt" stroke-linejoin="round" stroke-miterlimit="4" stroke-opacity="1" stroke-width="2" d="m 436.5715,532.798 0,4 1,0 c 1.108,0 2,-0.892 2,-2 l 0,-2 -3,0 z" opacity=".7"/><path id="path4169" fill="url(#linearGradient4190)" fill-opacity="1" stroke="none" stroke-dasharray="none" stroke-linecap="butt" stroke-linejoin="round" stroke-miterlimit="4" stroke-opacity="1" stroke-width="2" d="m 396.57147,532.798 0,4 40.00003,0 0,-4 -40.00003,0 z" opacity=".7"/><path id="rect4157" fill="url(#radialGradient4208)" fill-opacity="1" stroke="none" stroke-dasharray="none" stroke-linecap="butt" stroke-linejoin="round" stroke-miterlimit="4" stroke-opacity="1" stroke-width="2" d="m 393.57147,532.798 0,2 c 0,1.108 0.892,2 2,2 l 1,0 0,-4 -3,0 z" opacity=".7"/><path id="rect4188" fill="#e8e5dc" fill-opacity="1" stroke="none" stroke-dasharray="none" stroke-linecap="butt" stroke-linejoin="round" stroke-miterlimit="4" stroke-opacity="1" stroke-width="2" d="m 413.57149,501.79801 22.00001,0 c 1.108,0 2,0.892 2,2 l 0,3 c 0,1.108 -0.892,2 -2,2 l -22.00001,0 c -1.108,0 -2,-0.892 -2,-2 l 0,-3 c 0,-1.108 0.892,-2 2,-2 z" opacity="1"/><path id="rect4190" fill="#fffbec" fill-opacity="1" stroke="none" stroke-dasharray="none" stroke-linecap="butt" stroke-linejoin="round" stroke-miterlimit="4" stroke-opacity="1" stroke-width="2" d="m 413.57149,502.79801 22.00001,0 c 0.554,0 1,0.446 1,1 l 0,4 c 0,0.554 -0.446,1 -1,1 l -22.00001,0 c -0.554,0 -1,-0.446 -1,-1 l 0,-4 c 0,-0.554 0.446,-1 1,-1 z" opacity="1"/><rect id="rect4200" width="5" height="5" x="377.571" y="493.798" fill="#fffbec" fill-opacity="1" fill-rule="nonzero" stroke="none" stroke-dasharray="none" stroke-dashoffset="0" stroke-linecap="butt" stroke-linejoin="miter" stroke-miterlimit="4" stroke-opacity="1" stroke-width="1" clip-rule="nonzero" color="#000" color-interpolation="sRGB" color-interpolation-filters="linearRGB" color-rendering="auto" display="inline" enable-background="accumulate" image-rendering="auto" opacity="1" overflow="visible" shape-rendering="auto" text-rendering="auto" visibility="visible" style="isolation:auto;mix-blend-mode:normal;solid-color:#000;solid-opacity:1"/><rect id="rect4202" width="5" height="5" x="377.571" y="501.798" fill="#e8e5dc" fill-opacity="1" fill-rule="nonzero" stroke="none" stroke-dasharray="none" stroke-dashoffset="0" stroke-linecap="butt" stroke-linejoin="miter" stroke-miterlimit="4" stroke-opacity="1" stroke-width="1" clip-rule="nonzero" color="#000" color-interpolation="sRGB" color-interpolation-filters="linearRGB" color-rendering="auto" display="inline" enable-background="accumulate" image-rendering="auto" opacity="1" overflow="visible" shape-rendering="auto" text-rendering="auto" visibility="visible" style="isolation:auto;mix-blend-mode:normal;solid-color:#000;solid-opacity:1"/><path id="path4221" fill="#039be5" fill-opacity="1" stroke="none" stroke-dasharray="none" stroke-linecap="round" stroke-linejoin="round" stroke-miterlimit="4" stroke-opacity=".528" stroke-width="2" d="m 396.57147,496.79808 c -1.66199,10e-6 -3,1.33797 -3,2.99991 l 0,32.0001 c 0,1.66194 1.33801,2.99991 3,2.99991 l 15.00002,0 6,0 19.00001,0 c 1.66199,0 3,-1.33797 3,-2.99991 l 0,-24.00016 c 0,-1.66194 -1.33801,-2.99998 -3,-2.99991 l -19.00001,0 -2,-6.99999 c -0.15219,-0.53267 -0.446,-1.00029 -1,-0.99998 l -2,0 -1,0 z" opacity="1"/><path id="path4183" fill="#03a9f4" fill-opacity="1" stroke="none" stroke-dasharray="none" stroke-linecap="round" stroke-linejoin="round" stroke-miterlimit="4" stroke-opacity=".528" stroke-width="2" d="m 396.57147,497.79918 c -1.10799,0 -2,0.89198 -2,1.99993 l 0,31.99895 c 0,1.10796 0.89201,1.99994 2,1.99994 l 15.00002,0 5,0 20.00001,0 c 1.108,0 2,-0.89198 2,-1.99994 l 0,-23.99926 c 0,-1.10795 -0.89201,-2.00547 -2,-1.99994 l -20.00001,0 -2,-6.99971 c -0.15219,-0.53267 -0.44669,-1.02764 -1,-0.99997 l -2,0 z" opacity="1"/><rect id="rect4250" width="5" height="5" x="385.572" y="493.798" fill="#b3e5fc" fill-opacity="1" fill-rule="nonzero" stroke="none" stroke-dasharray="none" stroke-dashoffset="0" stroke-linecap="butt" stroke-linejoin="miter" stroke-miterlimit="4" stroke-opacity="1" stroke-width="1" clip-rule="nonzero" color="#000" color-interpolation="sRGB" color-interpolation-filters="linearRGB" color-rendering="auto" display="inline" enable-background="accumulate" image-rendering="auto" opacity="1" overflow="visible" shape-rendering="auto" text-rendering="auto" visibility="visible" style="isolation:auto;mix-blend-mode:normal;solid-color:#000;solid-opacity:1"/><rect id="rect4271" width="14" height="1" x="409.571" y="527.798" fill="url(#linearGradient4273)" fill-opacity="1" stroke="none" stroke-dasharray="none" stroke-linecap="round" stroke-linejoin="round" stroke-miterlimit="4" stroke-opacity=".528" stroke-width="2" opacity="1"/><path id="path4308" fill="url(#linearGradient4313)" fill-opacity="1" stroke="none" d="M 23.996094 21 L 19 25.996094 L 19 27 L 20.824219 27 L 21 27 L 21 30 L 21 32 L 27 32 L 27 30 L 27 27 L 28 27 L 29 27 L 29 25.996094 L 24.003906 21 L 23.996094 21 z M 24 23.824219 L 26.175781 26 L 26 26 L 25 26 L 25 30 L 23 30 L 23 26 L 22 26 L 21.824219 26 L 24 23.824219 z M 17 29 L 17 35 L 19 35 L 19 31 L 20 31 L 20 29 L 19 29 L 17 29 z M 28 29 L 28 31 L 29 31 L 29 35 L 31 35 L 31 29 L 29 29 L 28 29 z" opacity="1" transform="translate(392.57144,491.798)"/><path id="rect4240" fill="#b3e5fc" fill-opacity="1" stroke="none" d="M 23.996094 20 L 19 24.996094 L 19 26 L 20.824219 26 L 21 26 L 21 29 L 21 31 L 27 31 L 27 29 L 27 26 L 28 26 L 29 26 L 29 24.996094 L 24.003906 20 L 24 20 L 23.996094 20 z M 24 22.824219 L 26.175781 25 L 26 25 L 25 25 L 25 29 L 23 29 L 23 25 L 22 25 L 21.824219 25 L 24 22.824219 z M 17 28 L 17 34 L 17 36 L 19 36 L 31 36 L 31 34 L 31 28 L 29 28 L 28 28 L 28 30 L 29 30 L 29 34 L 19 34 L 19 30 L 20 30 L 20 28 L 19 28 L 17 28 z" opacity="1" transform="translate(392.57144,491.798)"/></g></svg>