<svg xmlns="http://www.w3.org/2000/svg" xmlns:svg="http://www.w3.org/2000/svg" xmlns:xlink="http://www.w3.org/1999/xlink" id="svg5453" width="48" height="48" version="1.1" viewBox="0 0 48 48"><defs id="defs5455"><linearGradient id="linearGradient4218"><stop id="stop4220" offset="0" stop-color="#000" stop-opacity=".31"/><stop id="stop4222" offset="1" stop-color="#000" stop-opacity="0"/></linearGradient><radialGradient id="radialGradient4259" cx="4" cy="42.5" r="1.5" fx="4" fy="42.5" gradientTransform="matrix(-2.0000003,-2.935184e-6,3.9135795e-6,-2.6666677,414.57128,646.1314)" gradientUnits="userSpaceOnUse" xlink:href="#Shadow"/><linearGradient id="Shadow"><stop id="stop4186" offset="0" stop-color="#000" stop-opacity="1"/><stop id="stop4188" offset="1" stop-color="#000" stop-opacity="0"/></linearGradient><linearGradient id="linearGradient4257" x1="24" x2="24" y1="42" y2="46" gradientTransform="translate(393.57144,490.798)" gradientUnits="userSpaceOnUse" xlink:href="#Shadow"/><radialGradient id="radialGradient4255" cx="44" cy="42.5" r="1.5" fx="44" fy="42.5" gradientTransform="matrix(-5.6193702e-6,2.666668,-2.0000002,-4.214526e-6,511.57171,415.4648)" gradientUnits="userSpaceOnUse" xlink:href="#Shadow"/><radialGradient id="radialGradient4275" cx="408.571" cy="532.998" r="1" fx="408.571" fy="532.998" gradientTransform="matrix(2.0000036,-6.669693e-8,6.6700326e-8,2.0000094,-400.5729,-538.20283)" gradientUnits="userSpaceOnUse" xlink:href="#linearGradient4218"/><radialGradient id="radialGradient4228" cx="408.571" cy="532.998" r="1" fx="408.571" fy="532.998" gradientTransform="matrix(2.0000036,-6.669693e-8,6.6700326e-8,2.0000094,-406.5729,-538.20283)" gradientUnits="userSpaceOnUse" xlink:href="#linearGradient4218"/><radialGradient id="radialGradient4234" cx="408.571" cy="532.998" r="1" fx="408.571" fy="532.998" gradientTransform="matrix(2.0000036,-6.669693e-8,6.6700326e-8,2.0000094,-394.5729,-538.20283)" gradientUnits="userSpaceOnUse" xlink:href="#linearGradient4218"/></defs><metadata id="metadata5458"/><g id="layer1" transform="translate(-392.57144,-491.798)"><path id="rect4254" fill="#bdbdbd" fill-opacity="1" stroke="none" stroke-dasharray="none" stroke-linecap="round" stroke-linejoin="round" stroke-miterlimit="4" stroke-opacity=".528" stroke-width="2" d="M 20 6 C 18.338007 6 17 7.338007 17 9 L 17 11 C 17 11.352916 17.070687 11.68601 17.181641 12 L 20 12 L 20 9 L 27 9 L 27 12 L 29.818359 12 C 29.929313 11.68601 30 11.352916 30 11 L 30 9 C 30 7.338007 28.661993 6 27 6 L 20 6 z" opacity="1" transform="translate(392.57144,491.798)"/><path id="rect4256" fill="#e0e0e0" fill-opacity="1" stroke="none" stroke-dasharray="none" stroke-linecap="round" stroke-linejoin="round" stroke-miterlimit="4" stroke-opacity=".528" stroke-width="2" d="M 20 7 C 18.892007 7 18 7.8920069 18 9 L 18 11 L 18 12 L 18.275391 12 L 28.724609 12 L 29 12 L 29 11 L 29 9 C 29 7.8920069 28.107993 7 27 7 L 20 7 z M 20 9 L 27 9 L 27 11 L 20 11 L 20 9 z" opacity="1" transform="translate(392.57144,491.798)"/><path id="rect4260" fill="#bdbdbd" fill-opacity="1" stroke="none" stroke-dasharray="none" stroke-linecap="round" stroke-linejoin="round" stroke-miterlimit="4" stroke-opacity=".528" stroke-width="2" d="M 20 8 C 19.446007 8 19 8.446007 19 9 L 19 12 L 20 12 L 20 9 L 27 9 L 27 12 L 28 12 L 28 9 C 28 8.446007 27.553993 8 27 8 L 20 8 z" opacity="1" transform="translate(392.57144,491.798)"/><path id="path4249" fill="url(#radialGradient4255)" fill-opacity="1" stroke="none" stroke-dasharray="none" stroke-linecap="butt" stroke-linejoin="round" stroke-miterlimit="4" stroke-opacity="1" stroke-width="2" d="m 426.57144,532.798 0,4 1,0 c 1.108,0 2,-0.892 2,-2 l 0,-2 -3,0 z" opacity=".7"/><path id="path4251" fill="url(#linearGradient4257)" fill-opacity="1" stroke="none" stroke-dasharray="none" stroke-linecap="butt" stroke-linejoin="round" stroke-miterlimit="4" stroke-opacity="1" stroke-width="2" d="m 406.57144,532.798 0,4 20,0 0,-4 z" opacity=".7"/><path id="path4253" fill="url(#radialGradient4259)" fill-opacity="1" stroke="none" stroke-dasharray="none" stroke-linecap="butt" stroke-linejoin="round" stroke-miterlimit="4" stroke-opacity="1" stroke-width="2" d="m 403.57144,532.798 0,2 c 0,1.108 0.892,2 2,2 l 1,0 0,-4 -3,0 z" opacity=".7"/><rect id="rect4187" width="26" height="31" x="403.571" y="503.798" fill="#bdbdbd" fill-opacity="1" stroke="none" stroke-dasharray="none" stroke-linecap="round" stroke-linejoin="round" stroke-miterlimit="4" stroke-opacity=".528" stroke-width="2" opacity="1" ry="3"/><rect id="rect4157" width="5" height="5" x="385.571" y="-504.798" fill="#bdbdbd" fill-opacity="1" fill-rule="nonzero" stroke="none" stroke-dasharray="none" stroke-dashoffset="0" stroke-linecap="butt" stroke-linejoin="miter" stroke-miterlimit="4" stroke-opacity="1" stroke-width="1" clip-rule="nonzero" color="#000" color-interpolation="sRGB" color-interpolation-filters="linearRGB" color-rendering="auto" display="inline" enable-background="accumulate" image-rendering="auto" opacity="1" overflow="visible" shape-rendering="auto" text-rendering="auto" transform="scale(1,-1)" visibility="visible" style="isolation:auto;mix-blend-mode:normal;solid-color:#000;solid-opacity:1"/><rect id="rect4157-5" width="5" height="5" x="385.571" y="-496.798" fill="#e0e0e0" fill-opacity="1" fill-rule="nonzero" stroke="none" stroke-dasharray="none" stroke-dashoffset="0" stroke-linecap="butt" stroke-linejoin="miter" stroke-miterlimit="4" stroke-opacity="1" stroke-width="1" clip-rule="nonzero" color="#000" color-interpolation="sRGB" color-interpolation-filters="linearRGB" color-rendering="auto" display="inline" enable-background="accumulate" image-rendering="auto" opacity="1" overflow="visible" shape-rendering="auto" text-rendering="auto" transform="scale(1,-1)" visibility="visible" style="isolation:auto;mix-blend-mode:normal;solid-color:#000;solid-opacity:1"/><rect id="rect4157-8" width="5" height="5" x="385.571" y="507.798" fill="#9e9e9e" fill-opacity="1" fill-rule="nonzero" stroke="none" stroke-dasharray="none" stroke-dashoffset="0" stroke-linecap="butt" stroke-linejoin="miter" stroke-miterlimit="4" stroke-opacity="1" stroke-width="1" clip-rule="nonzero" color="#000" color-interpolation="sRGB" color-interpolation-filters="linearRGB" color-rendering="auto" display="inline" enable-background="accumulate" image-rendering="auto" opacity="1" overflow="visible" shape-rendering="auto" text-rendering="auto" visibility="visible" style="isolation:auto;mix-blend-mode:normal;solid-color:#000;solid-opacity:1"/><rect id="rect4199" width="24" height="28" x="404.571" y="505.798" fill="#e0e0e0" fill-opacity="1" stroke="none" stroke-dasharray="none" stroke-linecap="round" stroke-linejoin="round" stroke-miterlimit="4" stroke-opacity=".528" stroke-width="2" opacity="1" ry="2"/><rect id="rect4273" width="2" height="4" x="415.571" y="525.798" fill="url(#radialGradient4275)" fill-opacity="1" stroke="none" stroke-dasharray="none" stroke-linecap="butt" stroke-linejoin="round" stroke-miterlimit="4" stroke-opacity="1" stroke-width="2" opacity="1" ry="1"/><rect id="rect4201" width="2" height="15" x="415.571" y="513.798" fill="#9e9e9e" fill-opacity="1" stroke="none" stroke-dasharray="none" stroke-linecap="round" stroke-linejoin="round" stroke-miterlimit="4" stroke-opacity=".528" stroke-width="2" opacity="1" ry=".938"/><rect id="rect4224" width="2" height="4" x="409.571" y="525.798" fill="url(#radialGradient4228)" fill-opacity="1" stroke="none" stroke-dasharray="none" stroke-linecap="butt" stroke-linejoin="round" stroke-miterlimit="4" stroke-opacity="1" stroke-width="2" opacity="1" ry="1"/><rect id="rect4226" width="2" height="15" x="409.571" y="513.798" fill="#9e9e9e" fill-opacity="1" stroke="none" stroke-dasharray="none" stroke-linecap="round" stroke-linejoin="round" stroke-miterlimit="4" stroke-opacity=".528" stroke-width="2" opacity="1" ry=".938"/><rect id="rect4230" width="2" height="4" x="421.571" y="525.798" fill="url(#radialGradient4234)" fill-opacity="1" stroke="none" stroke-dasharray="none" stroke-linecap="butt" stroke-linejoin="round" stroke-miterlimit="4" stroke-opacity="1" stroke-width="2" opacity="1" ry="1"/><rect id="rect4232" width="2" height="15" x="421.571" y="513.798" fill="#9e9e9e" fill-opacity="1" stroke="none" stroke-dasharray="none" stroke-linecap="round" stroke-linejoin="round" stroke-miterlimit="4" stroke-opacity=".528" stroke-width="2" opacity="1" ry=".938"/><path id="rect4236" fill="#bdbdbd" fill-opacity="1" stroke="none" stroke-dasharray="none" stroke-linecap="round" stroke-linejoin="round" stroke-miterlimit="4" stroke-opacity=".528" stroke-width="2" d="M 11 11 C 9.89201 11 9 11.89201 9 13 L 9 15 L 9 17 L 11 17 L 37 17 L 39 17 L 39 15 L 39 13 C 39 11.89201 38.10799 11 37 11 L 29 11 L 29 12 L 29 13 L 28 13 L 19 13 L 18 13 L 18 12 L 18 11 L 11 11 z M 19 11 L 19 12 L 28 12 L 28 11 L 19 11 z" opacity="1" transform="translate(392.57144,491.798)"/><path id="rect4241" fill="#e0e0e0" fill-opacity="1" stroke="none" stroke-dasharray="none" stroke-linecap="round" stroke-linejoin="round" stroke-miterlimit="4" stroke-opacity=".528" stroke-width="2" d="m 403.57144,503.798 c -0.55399,0 -1,0.44601 -1,1 l 0,1 0,2 28,0 0,-2 0,-1 c 0,-0.55399 -0.44601,-1 -1,-1 l -26,0 z" opacity="1"/></g></svg>