<svg xmlns="http://www.w3.org/2000/svg" xmlns:svg="http://www.w3.org/2000/svg" id="svg4359" width="16" height="16" version="1.1" viewBox="0 0 16 16"><defs id="defs4361"><linearGradient id="linearGradient4103"><stop id="stop4105" offset="0" stop-color="#bdecfb" stop-opacity="1"/><stop id="stop4107" offset="1" stop-color="#f5feff" stop-opacity="1"/></linearGradient><linearGradient id="linearGradient4314"><stop id="stop4316" offset="0" stop-color="#ff4b00" stop-opacity="1"/><stop id="stop4318" offset="1" stop-color="#f50" stop-opacity="1"/></linearGradient><linearGradient id="linearGradient5020-1"><stop id="stop5022-6" offset="0" stop-color="#0da8db" stop-opacity="1"/><stop id="stop5024-0" offset="1" stop-color="#1fe1fb" stop-opacity="1"/></linearGradient></defs><metadata id="metadata4364"/><g id="layer1" transform="translate(-3,-29)"><path id="rect4160" fill="#34495d" fill-opacity="1" stroke="none" stroke-dasharray="none" stroke-dashoffset="0" stroke-linecap="square" stroke-linejoin="miter" stroke-miterlimit="4" stroke-opacity="1" stroke-width=".1" d="m 15,31 0,6 1,0 0,6 -10,0 0,-6 1,0 0,-6 8,0 z m -1,1 -1,0 -4,0 -1,0 0,2 0,3 6,0 0,-3 0,-2 z m -1,1 0,2 -1,0 0,-2 1,0 z m -3,0 0,2 -1,0 0,-2 1,0 z m 5,5 -1,0 -7,0 0,4 8,0 0,-4 z m -1,2 0,1 -6,0 0,-1 6,0 z" opacity="1"/></g></svg>