<svg xmlns="http://www.w3.org/2000/svg" xmlns:svg="http://www.w3.org/2000/svg" id="svg4359" width="16" height="16" version="1.1" viewBox="0 0 16 16"><defs id="defs4361"><linearGradient id="linearGradient4103"><stop id="stop4105" offset="0" stop-color="#bdecfb" stop-opacity="1"/><stop id="stop4107" offset="1" stop-color="#f5feff" stop-opacity="1"/></linearGradient><linearGradient id="linearGradient4314"><stop id="stop4316" offset="0" stop-color="#ff4b00" stop-opacity="1"/><stop id="stop4318" offset="1" stop-color="#f50" stop-opacity="1"/></linearGradient><linearGradient id="linearGradient5020-1"><stop id="stop5022-6" offset="0" stop-color="#0da8db" stop-opacity="1"/><stop id="stop5024-0" offset="1" stop-color="#1fe1fb" stop-opacity="1"/></linearGradient></defs><metadata id="metadata4364"/><g id="layer1" transform="translate(-3,-29)"><path color="#000" style="isolation:auto;mix-blend-mode:normal;solid-color:#000;solid-opacity:1" id="rect4155" fill="#34495d" fill-opacity="1" fill-rule="nonzero" stroke="none" stroke-dasharray="none" stroke-dashoffset="0" stroke-linecap="butt" stroke-linejoin="miter" stroke-miterlimit="4" stroke-opacity="1" stroke-width="1" d="M 2 2 L 2 14 L 14 14 L 14 2 L 2 2 z M 3 3 L 13 3 L 13 13 L 12 13 L 12 12 L 11 12 L 11 13 L 9 13 L 9 12 L 6 12 L 6 13 L 3 13 L 3 3 z M 4 4 L 4 5 L 12 5 L 12 4 L 4 4 z M 4 6 L 4 7 L 9 7 L 9 6 L 4 6 z" clip-rule="nonzero" color-interpolation="sRGB" color-interpolation-filters="linearRGB" color-rendering="auto" display="inline" enable-background="accumulate" image-rendering="auto" opacity="1" overflow="visible" shape-rendering="auto" text-rendering="auto" transform="translate(3,29)" visibility="visible"/></g></svg>