<svg xmlns="http://www.w3.org/2000/svg" xmlns:svg="http://www.w3.org/2000/svg" id="svg4359" width="24" height="24" version="1.1"><metadata id="metadata4364"/><g id="layer1" transform="translate(1,-25)"><rect id="rect4147" width="2" height="2" x="-3" y="25" fill="#e74c3c" fill-opacity="1" fill-rule="nonzero" stroke="none" stroke-dasharray="none" stroke-dashoffset="0" stroke-linecap="butt" stroke-linejoin="miter" stroke-miterlimit="4" stroke-opacity="1" stroke-width="1" clip-rule="nonzero" color="#000" color-interpolation="sRGB" color-interpolation-filters="linearRGB" color-rendering="auto" display="inline" enable-background="accumulate" image-rendering="auto" opacity="1" overflow="visible" shape-rendering="auto" text-rendering="auto" visibility="visible" style="isolation:auto;mix-blend-mode:normal;solid-color:#000;solid-opacity:1"/><path id="path4128-0-9" fill="#e74c3c" fill-opacity="1" d="m 19.236554,40.911729 c 0.194294,-0.193408 1.748808,-3.914403 1.763293,-4.222202 0.0172,-0.36644 -1.416071,-1.370678 -3.169203,-2.220114 -3.971926,-1.924708 -9.2952466,-1.961638 -13.3854583,-0.09295 -1.184896,0.541353 -3.2634367,1.8126 -3.4403106,2.103882 -0.051888,0.08571 0.3164044,1.128091 0.8189328,2.31735 l -7.081e-4,7.1e-4 c 0.5025299,1.189265 0.9311701,2.179343 0.9524841,2.200716 0.021245,0.0213 1.1893207,-0.346452 2.5957567,-0.817492 l 2.5569572,-0.856395 0.0105,-1.631671 0.010493,-1.630235 0.8703902,-0.159484 c 0.9804532,-0.180027 3.689079,-0.163555 4.601702,0.02857 l 0.600594,0.126908 0.0052,1.627413 0.0045,1.626689 2.553852,0.847112 c 1.404698,0.465834 2.59762,0.804073 2.650946,0.751194 z"/></g></svg>