<svg xmlns="http://www.w3.org/2000/svg" xmlns:svg="http://www.w3.org/2000/svg" id="svg4359" width="24" height="24" version="1.1"><metadata id="metadata4364"/><g id="layer1" transform="translate(1,-25)"><rect id="rect4147" width="2" height="2" x="-3" y="25" fill="#87d37c" fill-opacity="1" fill-rule="nonzero" stroke="none" stroke-dasharray="none" stroke-dashoffset="0" stroke-linecap="butt" stroke-linejoin="miter" stroke-miterlimit="4" stroke-opacity="1" stroke-width="1" clip-rule="nonzero" color="#000" color-interpolation="sRGB" color-interpolation-filters="linearRGB" color-rendering="auto" display="inline" enable-background="accumulate" image-rendering="auto" opacity="1" overflow="visible" shape-rendering="auto" text-rendering="auto" visibility="visible" style="isolation:auto;mix-blend-mode:normal;solid-color:#000;solid-opacity:1"/><path id="path4128-0-9" fill="#87d37c" fill-opacity="1" d="m 7.3163613,28.999999 c -0.273357,-10e-4 -3.990852,1.521397 -4.217799,1.727891 -0.270154,0.245865 0.03471,1.964893 0.674404,3.800761 1.449154,4.15952 5.181626,7.943998 9.3852147,9.516112 1.217749,0.455418 3.580364,1.027867 3.910335,0.947656 0.09698,-0.02371 0.570893,-1.017681 1.053443,-2.209841 l 0.001,0 c 0.482553,-1.192165 0.877029,-2.191915 0.877029,-2.222012 0,-0.03 -1.083644,-0.595771 -2.408302,-1.257112 l -2.408299,-1.202327 -1.15627,1.141443 -1.155254,1.140438 -0.726822,-0.502238 C 10.326045,39.315288 8.4252463,37.391293 7.9161763,36.611667 l -0.334687,-0.513399 1.142152,-1.149565 1.142153,-1.148545 -1.20667,-2.39957 c -0.66378,-1.319766 -1.267876,-2.40017 -1.342759,-2.400589 z"/></g></svg>