<svg xmlns="http://www.w3.org/2000/svg" xmlns:svg="http://www.w3.org/2000/svg" id="svg4359" width="24" height="24" version="1.1"><metadata id="metadata4364"/><g id="layer1" transform="translate(1,-25)"><rect id="rect4146" width="2" height="2" x="-3" y="25" fill="#304050" fill-opacity="1" fill-rule="nonzero" stroke="none" stroke-dasharray="none" stroke-dashoffset="0" stroke-linecap="butt" stroke-linejoin="miter" stroke-miterlimit="4" stroke-opacity="1" stroke-width="1" clip-rule="nonzero" color="#000" color-interpolation="sRGB" color-interpolation-filters="linearRGB" color-rendering="auto" display="inline" enable-background="accumulate" image-rendering="auto" opacity="1" overflow="visible" shape-rendering="auto" text-rendering="auto" visibility="visible" style="isolation:auto;mix-blend-mode:normal;solid-color:#000;solid-opacity:1"/><path color="#000" style="isolation:auto;mix-blend-mode:normal;solid-color:#000;solid-opacity:1" id="rect4147" fill="#304050" fill-opacity="1" fill-rule="nonzero" stroke="none" stroke-dasharray="none" stroke-dashoffset="0" stroke-linecap="butt" stroke-linejoin="miter" stroke-miterlimit="4" stroke-opacity="1" stroke-width="1" d="M 8.5,3 C 5.453,3 3,5.453 3,8.5 3,11.547 5.453,14 8.5,14 c 1.1583188,0 2.230727,-0.356031 3.115234,-0.962891 L 17.578125,19 18.992188,17.585938 13.03125,11.623047 C 13.641505,10.736992 14,9.6618532 14,8.5 14,5.453 11.547,3 8.5,3 Z m 0,2 C 10.439,5 12,6.561 12,8.5 12,10.439 10.439,12 8.5,12 6.561,12 5,10.439 5,8.5 5,6.561 6.561,5 8.5,5 Z m -4,11 C 3.669,16 3,16.669 3,17.5 3,18.331 3.669,19 4.5,19 5.331,19 6,18.331 6,17.5 6,16.669 5.331,16 4.5,16 Z m 5,0 C 8.669,16 8,16.669 8,17.5 8,18.331 8.669,19 9.5,19 10.331,19 11,18.331 11,17.5 11,16.669 10.331,16 9.5,16 Z" clip-rule="nonzero" color-interpolation="sRGB" color-interpolation-filters="linearRGB" color-rendering="auto" display="inline" enable-background="accumulate" image-rendering="auto" opacity="1" overflow="visible" shape-rendering="auto" text-rendering="auto" transform="translate(0,26)" visibility="visible"/></g></svg>