<svg xmlns="http://www.w3.org/2000/svg" xmlns:svg="http://www.w3.org/2000/svg" id="svg4359" width="24" height="24" version="1.1"><metadata id="metadata4364"/><g id="layer1" transform="translate(1,-25)"><path id="rect4272" fill="#304050" fill-opacity="1" stroke="none" stroke-dasharray="none" stroke-linecap="round" stroke-linejoin="round" stroke-miterlimit="4" stroke-opacity=".528" stroke-width="2" d="M 11,3 A 8,8 0 0 0 7.1289062,4 L 5,4 4,4 4,5 4,7.1464844 A 8,8 0 0 0 3,11 8,8 0 0 0 4,14.871094 L 4,17 l 0,1 1,0 2.1464844,0 A 8,8 0 0 0 11,19 8,8 0 0 0 14.871094,18 L 17,18 l 1,0 0,-1 0,-2.146484 A 8,8 0 0 0 19,11 8,8 0 0 0 18,7.1289062 L 18,5 18,4 17,4 14.853516,4 A 8,8 0 0 0 11,3 Z m 0,2 a 6,6 0 0 1 3.472656,1.1132812 l -2.18164,2.1816407 A 3,3 0 0 0 11,8 3,3 0 0 0 9.7089844,8.2949219 L 7.5292969,6.1152344 A 6,6 0 0 1 11,5 Z M 6.1132812,7.5273438 8.2949219,9.7089844 A 3,3 0 0 0 8,11 3,3 0 0 0 8.2949219,12.291016 L 6.1152344,14.470703 A 6,6 0 0 1 5,11 6,6 0 0 1 6.1132812,7.5273438 Z m 9.7714848,0.00195 A 6,6 0 0 1 17,11 6,6 0 0 1 15.886719,14.472656 l -2.181641,-2.18164 A 3,3 0 0 0 14,11 3,3 0 0 0 13.705078,9.7089844 L 15.884766,7.5292969 Z M 11,10 a 1,1 0 0 1 1,1 1,1 0 0 1 -1,1 1,1 0 0 1 -1,-1 1,1 0 0 1 1,-1 z M 9.7089844,13.705078 A 3,3 0 0 0 11,14 3,3 0 0 0 12.291016,13.705078 l 2.179687,2.179688 A 6,6 0 0 1 11,17 6,6 0 0 1 7.5273438,15.886719 l 2.1816406,-2.181641 z" opacity="1" transform="translate(0,26)"/><rect id="rect4163" width="2" height="2" x="-3" y="25" fill="#304050" fill-opacity="1" fill-rule="nonzero" stroke="none" stroke-dasharray="none" stroke-dashoffset="0" stroke-linecap="butt" stroke-linejoin="miter" stroke-miterlimit="4" stroke-opacity="1" stroke-width="1" clip-rule="nonzero" color="#000" color-interpolation="sRGB" color-interpolation-filters="linearRGB" color-rendering="auto" display="inline" enable-background="accumulate" image-rendering="auto" opacity="1" overflow="visible" shape-rendering="auto" text-rendering="auto" visibility="visible" style="isolation:auto;mix-blend-mode:normal;solid-color:#000;solid-opacity:1"/></g></svg>