<svg xmlns="http://www.w3.org/2000/svg" xmlns:svg="http://www.w3.org/2000/svg" id="svg4359" width="24" height="24" version="1.1"><metadata id="metadata4364"/><g id="layer1" transform="translate(1,-25)"><rect id="rect4147" width="2" height="2" x="-3" y="25" fill="#304050" fill-opacity="1" fill-rule="nonzero" stroke="none" stroke-dasharray="none" stroke-dashoffset="0" stroke-linecap="butt" stroke-linejoin="miter" stroke-miterlimit="4" stroke-opacity="1" stroke-width="1" clip-rule="nonzero" color="#000" color-interpolation="sRGB" color-interpolation-filters="linearRGB" color-rendering="auto" display="inline" enable-background="accumulate" image-rendering="auto" opacity="1" overflow="visible" shape-rendering="auto" text-rendering="auto" visibility="visible" style="isolation:auto;mix-blend-mode:normal;solid-color:#000;solid-opacity:1"/><path id="path4154" fill="#304050" fill-opacity="1" fill-rule="evenodd" stroke="none" stroke-linecap="butt" stroke-linejoin="miter" stroke-opacity="1" stroke-width="1" d="m 11,3 -2,8 2,8 1,-8 -1,-8 z m 1,8 1,3 0,-3 0,-3 -1,3 z m 1,0 1,1 0,-1 0,-1 -1,1 z m 1,0 1,1 1,-1 -1,-1 -1,1 z m 2,0 1,4 0,-3 2,-1 -2,-1 0,-3 -1,4 z m -7,0 -1,-4 0,4 0,4 1,-4 z m -1,0 -1,-7 -1,6 -3,1 3,1 1,6 1,-7 z" transform="translate(0,26)"/></g></svg>