<svg xmlns="http://www.w3.org/2000/svg" xmlns:svg="http://www.w3.org/2000/svg" id="svg4359" width="24" height="24" version="1.1"><metadata id="metadata4364"/><g id="layer1" transform="translate(1,-25)"><rect id="rect4147" width="2" height="2" x="-3" y="25" fill="#304050" fill-opacity="1" fill-rule="nonzero" stroke="none" stroke-dasharray="none" stroke-dashoffset="0" stroke-linecap="butt" stroke-linejoin="miter" stroke-miterlimit="4" stroke-opacity="1" stroke-width="1" clip-rule="nonzero" color="#000" color-interpolation="sRGB" color-interpolation-filters="linearRGB" color-rendering="auto" display="inline" enable-background="accumulate" image-rendering="auto" opacity="1" overflow="visible" shape-rendering="auto" text-rendering="auto" visibility="visible" style="isolation:auto;mix-blend-mode:normal;solid-color:#000;solid-opacity:1"/><path id="path4152" fill="#304050" fill-opacity="1" stroke="none" stroke-dasharray="none" stroke-linecap="round" stroke-linejoin="miter" stroke-miterlimit="4" stroke-opacity=".299" stroke-width=".1" d="M 12.099609,3 C 11.351463,3 8.8022836,4.8509499 7.2460938,6.9785156 L 6,8 l 0,2 6.099609,0 0,-7 z m 4.554688,2.3457031 -0.707031,0.7070313 A 7,7 0 0 1 17.917969,10 l 1.009765,0 A 8,8 0 0 0 16.654297,5.3457031 Z M 15.240234,6.7597656 14.533203,7.4667969 A 5,5 0 0 1 15.894531,10 l 1.013672,0 A 6,6 0 0 0 15.240234,6.7597656 Z M 5,8 C 4,8 3,9 3,9 l 0,1 2,0 0,-2 z m 8.826172,0.1738281 -0.707031,0.7070313 A 3,3 0 0 1 13.822266,10 l 1.044922,0 A 4,4 0 0 0 13.826172,8.1738281 Z M 3,12 3,13 c 0,0 1,1 2,1 l 0,-2 -2,0 z m 3,0 0,2 1.2460938,1.021484 C 8.8022836,17.14905 11.351463,19 12.099609,19 l 0,-7 L 6,12 Z m 7.824219,0 a 3,3 0 0 1 -0.705078,1.119141 l 0.707031,0.707031 A 4,4 0 0 0 14.867188,12 l -1.042969,0 z m 2.072265,0 a 5,5 0 0 1 -1.363281,2.533203 l 0.707031,0.707031 A 6,6 0 0 0 16.910156,12 l -1.013672,0 z m 2.023438,0 a 7,7 0 0 1 -1.972656,3.947266 l 0.707031,0.707031 A 8,8 0 0 0 18.925781,12 l -1.005859,0 z" opacity="1" transform="translate(0,26)"/></g></svg>