<svg xmlns="http://www.w3.org/2000/svg" xmlns:svg="http://www.w3.org/2000/svg" id="svg4359" width="24" height="24" version="1.1"><metadata id="metadata4364"/><g id="layer1" transform="translate(1,-25)"><rect id="rect4147" width="2" height="2" x="-3" y="25" fill="#304050" fill-opacity="1" fill-rule="nonzero" stroke="none" stroke-dasharray="none" stroke-dashoffset="0" stroke-linecap="butt" stroke-linejoin="miter" stroke-miterlimit="4" stroke-opacity="1" stroke-width="1" clip-rule="nonzero" color="#000" color-interpolation="sRGB" color-interpolation-filters="linearRGB" color-rendering="auto" display="inline" enable-background="accumulate" image-rendering="auto" opacity="1" overflow="visible" shape-rendering="auto" text-rendering="auto" visibility="visible" style="isolation:auto;mix-blend-mode:normal;solid-color:#000;solid-opacity:1"/><path id="path4168" fill="#304050" fill-opacity="1" stroke="none" stroke-dasharray="none" stroke-linecap="round" stroke-linejoin="miter" stroke-miterlimit="4" stroke-opacity=".299" stroke-width=".1" d="M 14.464844,3 5.8046875,18 7.5351562,19 16.195312,4 14.464844,3 Z M 11,6 a 9,9 0 0 0 -8.0546875,5.009766 9,9 0 0 0 3.734375,3.880859 L 8.2460938,12.185547 A 3,3 0 0 1 8,11 3,3 0 0 1 10.65625,8.0234375 L 11.802734,6.0429688 A 9,9 0 0 0 11,6 Z m 4.337891,1.1191406 -1.574219,2.71875 A 3,3 0 0 1 14,11 3,3 0 0 1 12.826172,13.378906 2,4 0 0 0 12.410156,12.173828 L 10.21875,15.958984 A 9,9 0 0 0 11,16 9,9 0 0 0 19.054688,10.990234 9,9 0 0 0 15.337891,7.1191406 Z" opacity="1" transform="translate(0,26)"/></g></svg>