<svg xmlns="http://www.w3.org/2000/svg" xmlns:svg="http://www.w3.org/2000/svg" id="svg4359" width="24" height="24" version="1.1"><metadata id="metadata4364"/><g id="layer1" transform="translate(1,-25)"><rect id="rect4147" width="2" height="2" x="-3" y="25" fill="#304050" fill-opacity="1" fill-rule="nonzero" stroke="none" stroke-dasharray="none" stroke-dashoffset="0" stroke-linecap="butt" stroke-linejoin="miter" stroke-miterlimit="4" stroke-opacity="1" stroke-width="1" clip-rule="nonzero" color="#000" color-interpolation="sRGB" color-interpolation-filters="linearRGB" color-rendering="auto" display="inline" enable-background="accumulate" image-rendering="auto" opacity="1" overflow="visible" shape-rendering="auto" text-rendering="auto" visibility="visible" style="isolation:auto;mix-blend-mode:normal;solid-color:#000;solid-opacity:1"/><path id="path4154" fill="#304050" fill-opacity="1" stroke="none" stroke-dasharray="none" stroke-linecap="round" stroke-linejoin="miter" stroke-miterlimit="4" stroke-opacity=".299" stroke-width=".1" d="m 3,5 0,10 0,2 2,0 6,0 0,-1 0,-1 L 5,15 5,6.5546875 11,12 17,6.5546875 17,11 19,11 19,5 5,5 Z" opacity="1" transform="translate(0,26)"/><path id="rect4152" fill="#304050" fill-opacity="1" stroke="none" stroke-dasharray="none" stroke-linecap="round" stroke-linejoin="miter" stroke-miterlimit="4" stroke-opacity=".299" stroke-width=".1" d="m 16.447266,12 c -0.766858,0 -1.535441,0.293254 -2.123047,0.880859 -1.175211,1.175212 -1.175211,3.068929 0,4.244141 L 15.201172,18 14,18 l 0,1 3,0 0,-1 0,-2 -1,0 0,1.384766 -0.966797,-0.96875 c -0.783474,-0.783474 -0.783474,-2.044651 0,-2.828125 0.783474,-0.783474 2.044651,-0.783474 2.828125,0 l 0.275391,0.27539 0.707031,-0.707031 -0.275391,-0.275391 C 17.980753,12.293254 17.214123,12 16.447266,12 Z" opacity="1" transform="translate(0,26)"/></g></svg>