<svg xmlns="http://www.w3.org/2000/svg" xmlns:svg="http://www.w3.org/2000/svg" id="svg4359" width="24" height="24" version="1.1"><metadata id="metadata4364"/><g id="layer1" transform="translate(1,-25)"><rect id="rect4147" width="2" height="2" x="-3" y="25" fill="#304050" fill-opacity="1" fill-rule="nonzero" stroke="none" stroke-dasharray="none" stroke-dashoffset="0" stroke-linecap="butt" stroke-linejoin="miter" stroke-miterlimit="4" stroke-opacity="1" stroke-width="1" clip-rule="nonzero" color="#000" color-interpolation="sRGB" color-interpolation-filters="linearRGB" color-rendering="auto" display="inline" enable-background="accumulate" image-rendering="auto" opacity="1" overflow="visible" shape-rendering="auto" text-rendering="auto" visibility="visible" style="isolation:auto;mix-blend-mode:normal;solid-color:#000;solid-opacity:1"/><path id="rect4158" fill="#304050" fill-opacity="1" stroke="none" stroke-dasharray="none" stroke-linecap="round" stroke-linejoin="miter" stroke-miterlimit="4" stroke-opacity=".299" stroke-width=".1" d="M 16,3 16,4 15,4 12.773438,4 5.8457031,16 3,16 3,18 5,18 7,18 13.927734,6 16,6 16,7 19,5 16,3 Z M 3,4 3,6 5.8457031,6 6.75,7.5664062 l 1.7324219,-1 L 7,4 3,4 Z m 9.482422,9.494141 -1.732422,1 L 12.773438,18 15,18 l 1,0 0,1 3,-2 -3,-2 0,1 -2.070312,0 -1.447266,-2.505859 z" opacity="1" transform="translate(0,26)"/></g></svg>