<svg xmlns="http://www.w3.org/2000/svg" xmlns:svg="http://www.w3.org/2000/svg" id="svg4359" width="24" height="24" version="1.1"><metadata id="metadata4364"/><g id="layer1" transform="translate(1,-25)"><rect id="rect4147" width="2" height="2" x="-3" y="25" fill="#304050" fill-opacity="1" fill-rule="nonzero" stroke="none" stroke-dasharray="none" stroke-dashoffset="0" stroke-linecap="butt" stroke-linejoin="miter" stroke-miterlimit="4" stroke-opacity="1" stroke-width="1" clip-rule="nonzero" color="#000" color-interpolation="sRGB" color-interpolation-filters="linearRGB" color-rendering="auto" display="inline" enable-background="accumulate" image-rendering="auto" opacity="1" overflow="visible" shape-rendering="auto" text-rendering="auto" visibility="visible" style="isolation:auto;mix-blend-mode:normal;solid-color:#000;solid-opacity:1"/><path id="path4151" fill="#304050" fill-opacity="1" stroke="none" stroke-dasharray="none" stroke-linecap="round" stroke-linejoin="miter" stroke-miterlimit="4" stroke-opacity=".299" stroke-width=".1" d="m 11,3 a 8,8 0 0 0 -8,8 8,8 0 0 0 8,8 l 0,-2 a 6,6 0 0 1 -6,-6 6,6 0 0 1 6,-6 6,6 0 0 1 6,6 l 2,0 A 8,8 0 0 0 11,3 Z m 0,5 a 3,3 0 0 0 -3,3 3,3 0 0 0 3,3 l 0,-2 a 1,1 0 0 1 -1,-1 1,1 0 0 1 1,-1 1,1 0 0 1 1,1 l 2,0 A 3,3 0 0 0 11,8 Z m 4,4 c -1.662,0 -3,1.338 -3,3 l 0,1 0,3 1,0 1,0 0,-3 -1,0 0,-1 c 0,-1.108 0.892,-2 2,-2 l 1,0 c 1.108,0 2,0.892 2,2 l 0,1 -1,0 0,3 1,0 1,0 0,-3 0,-1 c 0,-1.662 -1.338,-3 -3,-3 l -1,0 z" opacity="1" transform="translate(0,26)"/></g></svg>