<svg xmlns="http://www.w3.org/2000/svg" xmlns:svg="http://www.w3.org/2000/svg" id="svg4359" width="24" height="24" version="1.1"><metadata id="metadata4364"/><g id="layer1" transform="translate(1,-25)"><rect id="rect4147" width="2" height="2" x="-3" y="25" fill="#304050" fill-opacity="1" fill-rule="nonzero" stroke="none" stroke-dasharray="none" stroke-dashoffset="0" stroke-linecap="butt" stroke-linejoin="miter" stroke-miterlimit="4" stroke-opacity="1" stroke-width="1" clip-rule="nonzero" color="#000" color-interpolation="sRGB" color-interpolation-filters="linearRGB" color-rendering="auto" display="inline" enable-background="accumulate" image-rendering="auto" opacity="1" overflow="visible" shape-rendering="auto" text-rendering="auto" visibility="visible" style="isolation:auto;mix-blend-mode:normal;solid-color:#000;solid-opacity:1"/><path id="path4151" fill="#304050" fill-opacity="1" stroke="none" stroke-dasharray="none" stroke-linecap="round" stroke-linejoin="miter" stroke-miterlimit="4" stroke-opacity=".299" stroke-width=".1" d="m 11,3 c -4.418278,0 -8,3.581722 -8,8 0,4.418278 3.581722,8 8,8 l 0,-2 C 7.6862915,17 5,14.313708 5,11 5,10.792893 5.010766,10.588421 5.03125,10.386719 5.33851,7.3611818 7.8933983,5 11,5 c 3.313708,0 6,2.6862915 6,6 l 2,0 C 19,6.581722 15.418278,3 11,3 Z m 0,5 C 9.5502526,8 8.3402857,9.0274826 8.0605469,10.394531 8.0205842,10.589824 8,10.792893 8,11 c 0,1.656854 1.3431458,3 3,3 l 0,-2 c -0.552285,0 -1,-0.447715 -1,-1 0,-0.138071 0.02751,-0.269034 0.07813,-0.388672 C 10.229928,10.252413 10.585786,10 11,10 c 0.552285,0 1,0.447715 1,1 l 2,0 C 14,9.3431458 12.656854,8 11,8 Z m 4,4 -2,2 0,1 0,4 5,0 0,-7 -3,0 z m 0,1 2,0 0,5 -3,0 0,-3 1,0 0,-2 z" opacity="1" transform="translate(0,26)"/></g></svg>