<svg xmlns="http://www.w3.org/2000/svg" xmlns:svg="http://www.w3.org/2000/svg" id="svg4359" width="24" height="24" version="1.1"><metadata id="metadata4364"/><g id="layer1" transform="translate(1,-25)"><rect id="rect4147" width="2" height="2" x="-3" y="25" fill="#304050" fill-opacity="1" fill-rule="nonzero" stroke="none" stroke-dasharray="none" stroke-dashoffset="0" stroke-linecap="butt" stroke-linejoin="miter" stroke-miterlimit="4" stroke-opacity="1" stroke-width="1" clip-rule="nonzero" color="#000" color-interpolation="sRGB" color-interpolation-filters="linearRGB" color-rendering="auto" display="inline" enable-background="accumulate" image-rendering="auto" opacity="1" overflow="visible" shape-rendering="auto" text-rendering="auto" visibility="visible" style="isolation:auto;mix-blend-mode:normal;solid-color:#000;solid-opacity:1"/><path id="path4162" fill="#304050" fill-opacity="1" stroke="none" stroke-dasharray="none" stroke-linecap="round" stroke-linejoin="miter" stroke-miterlimit="4" stroke-opacity=".299" stroke-width=".1" d="m 11,3 c -4.4182735,0 -7.9999937,3.5817202 -8,8 6.3e-6,4.41828 3.5817265,8 8,8 4.418274,0 7.999994,-3.58172 8,-8 -6e-6,-4.4182798 -3.581726,-8 -8,-8 z m 0,2 c 3.313705,1.6e-6 5.999994,2.6862908 6,6 -6e-6,3.313709 -2.686295,5.999998 -6,6 -3.3137045,-2e-6 -5.9999937,-2.686291 -6,-6 6.3e-6,-3.3137092 2.6862955,-5.9999984 6,-6 z M 9,7 9,15 14,11 9,7 Z" opacity="1" transform="translate(0,26)"/></g></svg>