<svg xmlns="http://www.w3.org/2000/svg" xmlns:svg="http://www.w3.org/2000/svg" id="svg4359" width="24" height="24" version="1.1"><metadata id="metadata4364"/><g id="layer1" transform="translate(1,-25)"><rect id="rect4147" width="2" height="2" x="-3" y="25" fill="#e74c3c" fill-opacity="1" fill-rule="nonzero" stroke="none" stroke-dasharray="none" stroke-dashoffset="0" stroke-linecap="butt" stroke-linejoin="miter" stroke-miterlimit="4" stroke-opacity="1" stroke-width="1" clip-rule="nonzero" color="#000" color-interpolation="sRGB" color-interpolation-filters="linearRGB" color-rendering="auto" display="inline" enable-background="accumulate" image-rendering="auto" opacity="1" overflow="visible" shape-rendering="auto" text-rendering="auto" visibility="visible" style="isolation:auto;mix-blend-mode:normal;solid-color:#000;solid-opacity:1"/><path id="path4152" fill="#e74c3c" fill-opacity="1" stroke="none" stroke-dasharray="none" stroke-linecap="round" stroke-linejoin="miter" stroke-miterlimit="4" stroke-opacity=".299" stroke-width=".1" d="m 11,3 a 8,8.0000114 0 0 0 -8,8 8,8.0000114 0 0 0 8,8 8,8.0000114 0 0 0 8,-8 8,8.0000114 0 0 0 -8,-8 z m 0,2 a 6.0000029,6.0000114 0 0 1 3.472656,1.1132812 L 6.1152344,14.470703 A 6.0000029,6.0000114 0 0 1 5,11 6.0000029,6.0000114 0 0 1 11,5 Z m 4.884766,2.5292969 A 6.0000029,6.0000114 0 0 1 17,11 6.0000029,6.0000114 0 0 1 11,17 6.0000029,6.0000114 0 0 1 7.5273438,15.886719 L 15.884766,7.5292969 Z" opacity="1" transform="translate(0,26)"/></g></svg>