<svg xmlns="http://www.w3.org/2000/svg" xmlns:svg="http://www.w3.org/2000/svg" id="svg4359" width="24" height="24" version="1.1"><metadata id="metadata4364"/><g id="layer1" transform="translate(1,-25)"><rect id="rect4147" width="2" height="2" x="-3" y="25" fill="#304050" fill-opacity="1" fill-rule="nonzero" stroke="none" stroke-dasharray="none" stroke-dashoffset="0" stroke-linecap="butt" stroke-linejoin="miter" stroke-miterlimit="4" stroke-opacity="1" stroke-width="1" clip-rule="nonzero" color="#000" color-interpolation="sRGB" color-interpolation-filters="linearRGB" color-rendering="auto" display="inline" enable-background="accumulate" image-rendering="auto" opacity="1" overflow="visible" shape-rendering="auto" text-rendering="auto" visibility="visible" style="isolation:auto;mix-blend-mode:normal;solid-color:#000;solid-opacity:1"/><rect id="rect4147-4" width="2" height="2" x="-3" y="28" fill="#87d37c" fill-opacity="1" fill-rule="nonzero" stroke="none" stroke-dasharray="none" stroke-dashoffset="0" stroke-linecap="butt" stroke-linejoin="miter" stroke-miterlimit="4" stroke-opacity="1" stroke-width="1" clip-rule="nonzero" color="#000" color-interpolation="sRGB" color-interpolation-filters="linearRGB" color-rendering="auto" display="inline" enable-background="accumulate" image-rendering="auto" opacity="1" overflow="visible" shape-rendering="auto" text-rendering="auto" visibility="visible" style="isolation:auto;mix-blend-mode:normal;solid-color:#000;solid-opacity:1"/><rect id="rect4196" width="14" height="2" x="4" y="43" fill="#87d37c" fill-opacity="1" stroke="none" stroke-dasharray="none" stroke-linecap="round" stroke-linejoin="miter" stroke-miterlimit="4" stroke-opacity=".299" stroke-width=".1" opacity="1"/><path id="rect4198" fill="#304050" fill-opacity="1" stroke="none" stroke-dasharray="none" stroke-linecap="round" stroke-linejoin="miter" stroke-miterlimit="4" stroke-opacity=".299" stroke-width=".1" d="m 8,3 0,9 c 0,1.662 1.338,3 3,3 1.662,0 3,-1.338 3,-3 0,-1.662 -1.338,-3 -3,-3 -0.352917,0 -0.68601,0.070688 -1,0.1816406 L 10,3 8,3 Z M 3,9 c -1.662,0 -3,1.338 -3,3 0,1.662 1.338,3 3,3 0.3529174,0 0.68601,-0.07069 1,-0.181641 L 4,15 6,15 6,12 C 6,10.338 4.662,9 3,9 Z m 16,0 c -1.662,0 -3,1.338 -3,3 0,1.662 1.338,3 3,3 0.831,0 1.580797,-0.334703 2.123047,-0.876953 L 19.707031,12.707031 C 19.526281,12.887781 19.277,13 19,13 c -0.554,0 -1,-0.446 -1,-1 0,-0.554 0.446,-1 1,-1 0.277,0 0.526281,0.112219 0.707031,0.292969 L 21.123047,9.8769531 C 20.580797,9.3347031 19.831,9 19,9 Z M 3,11 c 0.554,0 1,0.446 1,1 0,0.554 -0.446,1 -1,1 -0.554,0 -1,-0.446 -1,-1 0,-0.554 0.446,-1 1,-1 z m 8,0 c 0.554,0 1,0.446 1,1 0,0.554 -0.446,1 -1,1 -0.554,0 -1,-0.446 -1,-1 0,-0.554 0.446,-1 1,-1 z" opacity="1" transform="translate(0,26)"/></g></svg>