<svg xmlns="http://www.w3.org/2000/svg" xmlns:svg="http://www.w3.org/2000/svg" id="svg4359" width="24" height="24" version="1.1"><metadata id="metadata4364"/><g id="layer1" transform="translate(1,-25)"><rect id="rect4147" width="2" height="2" x="-3" y="25" fill="#304050" fill-opacity="1" fill-rule="nonzero" stroke="none" stroke-dasharray="none" stroke-dashoffset="0" stroke-linecap="butt" stroke-linejoin="miter" stroke-miterlimit="4" stroke-opacity="1" stroke-width="1" clip-rule="nonzero" color="#000" color-interpolation="sRGB" color-interpolation-filters="linearRGB" color-rendering="auto" display="inline" enable-background="accumulate" image-rendering="auto" opacity="1" overflow="visible" shape-rendering="auto" text-rendering="auto" visibility="visible" style="isolation:auto;mix-blend-mode:normal;solid-color:#000;solid-opacity:1"/><path id="path4151" fill="#304050" fill-opacity="1" stroke="none" stroke-dasharray="none" stroke-linecap="round" stroke-linejoin="miter" stroke-miterlimit="4" stroke-opacity=".299" stroke-width=".1" d="m 11,3 c -4.418278,0 -8,3.581722 -8,8 0,4.418278 3.581722,8 8,8 l 0,-2 C 7.6862915,17 5,14.313708 5,11 5,10.792893 5.010766,10.588421 5.03125,10.386719 5.33851,7.3611815 7.8933983,5 11,5 c 3.313708,0 6,2.6862915 6,6 l 2,0 C 19,6.581722 15.418278,3 11,3 Z m 0,5 C 9.5502526,8 8.3402857,9.0274829 8.0605469,10.394531 8.0205842,10.589824 8,10.792893 8,11 c 0,1.656854 1.3431458,3 3,3 l 0,-2 c -0.552285,0 -1,-0.447715 -1,-1 0,-0.138071 0.0275,-0.269034 0.07813,-0.388672 C 10.229923,10.252413 10.585786,10 11,10 c 0.552285,0 1,0.447715 1,1 l 2,0 C 14,9.3431458 12.656854,8 11,8 Z" opacity="1" transform="translate(0,26)"/><path id="path4152" fill="#e74c3c" fill-opacity="1" stroke="none" stroke-dasharray="none" stroke-linecap="round" stroke-linejoin="miter" stroke-miterlimit="4" stroke-opacity=".299" stroke-width=".1" d="M 15.5,12 A 3.5,3.5 0 0 0 12,15.5 3.5,3.5 0 0 0 15.5,19 3.5,3.5 0 0 0 19,15.5 3.5,3.5 0 0 0 15.5,12 Z m 0,1 a 2.5,2.5 0 0 1 1.376953,0.416016 l -3.460937,3.460937 A 2.5,2.5 0 0 1 13,15.5 2.5,2.5 0 0 1 15.5,13 Z m 2.083984,1.123047 A 2.5,2.5 0 0 1 18,15.5 2.5,2.5 0 0 1 15.5,18 2.5,2.5 0 0 1 14.123047,17.583984 l 3.460937,-3.460937 z" opacity="1" transform="translate(0,26)"/><rect id="rect4147-8" width="2" height="2" x="-3" y="28" fill="#e74c3c" fill-opacity="1" fill-rule="nonzero" stroke="none" stroke-dasharray="none" stroke-dashoffset="0" stroke-linecap="butt" stroke-linejoin="miter" stroke-miterlimit="4" stroke-opacity="1" stroke-width="1" clip-rule="nonzero" color="#000" color-interpolation="sRGB" color-interpolation-filters="linearRGB" color-rendering="auto" display="inline" enable-background="accumulate" image-rendering="auto" opacity="1" overflow="visible" shape-rendering="auto" text-rendering="auto" visibility="visible" style="isolation:auto;mix-blend-mode:normal;solid-color:#000;solid-opacity:1"/></g></svg>