<svg xmlns="http://www.w3.org/2000/svg" xmlns:svg="http://www.w3.org/2000/svg" id="svg4359" width="24" height="24" version="1.1"><metadata id="metadata4364"/><g id="layer1" transform="translate(1,-25)"><path id="rect4181" fill="#304050" fill-opacity="1" stroke="none" stroke-dasharray="none" stroke-linecap="round" stroke-linejoin="miter" stroke-miterlimit="4" stroke-opacity=".299" stroke-width=".1" d="M 11,3 C 8.23,3 6,5.23 6,8 L 16,8 C 16,5.23 13.77,3 11,3 Z" opacity="1" transform="translate(0,26)"/><rect id="rect4147" width="2" height="2" x="-3" y="25" fill="#304050" fill-opacity="1" fill-rule="nonzero" stroke="none" stroke-dasharray="none" stroke-dashoffset="0" stroke-linecap="butt" stroke-linejoin="miter" stroke-miterlimit="4" stroke-opacity="1" stroke-width="1" clip-rule="nonzero" color="#000" color-interpolation="sRGB" color-interpolation-filters="linearRGB" color-rendering="auto" display="inline" enable-background="accumulate" image-rendering="auto" opacity="1" overflow="visible" shape-rendering="auto" text-rendering="auto" visibility="visible" style="isolation:auto;mix-blend-mode:normal;solid-color:#000;solid-opacity:1"/><rect id="rect4147-8" width="2" height="2" x="-3" y="28" fill="#e74c3c" fill-opacity="1" fill-rule="nonzero" stroke="none" stroke-dasharray="none" stroke-dashoffset="0" stroke-linecap="butt" stroke-linejoin="miter" stroke-miterlimit="4" stroke-opacity="1" stroke-width="1" clip-rule="nonzero" color="#000" color-interpolation="sRGB" color-interpolation-filters="linearRGB" color-rendering="auto" display="inline" enable-background="accumulate" image-rendering="auto" opacity="1" overflow="visible" shape-rendering="auto" text-rendering="auto" visibility="visible" style="isolation:auto;mix-blend-mode:normal;solid-color:#000;solid-opacity:1"/><path id="rect4195" fill="#304050" fill-opacity="1" stroke="none" stroke-dasharray="none" stroke-linecap="round" stroke-linejoin="miter" stroke-miterlimit="4" stroke-opacity=".299" stroke-width=".1" d="m 3,9 c -0.554,0 -1,0.446 -1,1 0,0.554 0.446,1 1,1 l 16,0 c 0.554,0 1,-0.446 1,-1 0,-0.554 -0.446,-1 -1,-1 z m 1,4 c -0.554,0 -1,0.446 -1,1 0,0.554 0.446,1 1,1 L 8.1933594,15 4.5,17.132812 C 4.0202219,17.409813 3.8577656,18.020222 4.1347656,18.5 4.4117656,18.979778 5.0202219,19.142234 5.5,18.865234 l 4.3300781,-2.5 C 9.8983734,16.325804 9.9448488,16.266379 10,16.214844 L 10,13 Z m 8,0 0,3.214844 c 0.05515,0.05154 0.101627,0.11096 0.169922,0.15039 l 4.330078,2.5 c 0.479778,0.277 1.088234,0.114544 1.365234,-0.365234 0.277,-0.479778 0.114544,-1.090187 -0.365234,-1.367188 L 13.806641,15 18,15 c 0.554,0 1,-0.446 1,-1 0,-0.554 -0.446,-1 -1,-1 z" opacity="1" transform="translate(0,26)"/><path id="rect4183" fill="#e74c3c" fill-opacity="1" stroke="none" stroke-dasharray="none" stroke-linecap="round" stroke-linejoin="miter" stroke-miterlimit="4" stroke-opacity=".299" stroke-width=".1" d="m 5,8 0,6 c 0,2.77 2.23,5 5,5 l 0,-7 2,0 0,7 c 2.77,0 5,-2.23 5,-5 L 17,8 5,8 Z" opacity="1" transform="translate(0,26)"/></g></svg>