<svg xmlns="http://www.w3.org/2000/svg" xmlns:svg="http://www.w3.org/2000/svg" id="svg4359" width="24" height="24" version="1.1"><metadata id="metadata4364"/><g id="layer1" transform="translate(1,-25)"><rect id="rect4147" width="2" height="2" x="-3" y="25" fill="#304050" fill-opacity="1" fill-rule="nonzero" stroke="none" stroke-dasharray="none" stroke-dashoffset="0" stroke-linecap="butt" stroke-linejoin="miter" stroke-miterlimit="4" stroke-opacity="1" stroke-width="1" clip-rule="nonzero" color="#000" color-interpolation="sRGB" color-interpolation-filters="linearRGB" color-rendering="auto" display="inline" enable-background="accumulate" image-rendering="auto" opacity="1" overflow="visible" shape-rendering="auto" text-rendering="auto" visibility="visible" style="isolation:auto;mix-blend-mode:normal;solid-color:#000;solid-opacity:1"/><path id="rect4154" fill="#304050" fill-opacity="1" stroke="none" stroke-dasharray="none" stroke-linecap="round" stroke-linejoin="miter" stroke-miterlimit="4" stroke-opacity=".299" stroke-width=".1" d="M 14,2.9003906 14,4 l -4,0 0,2 0,4 -2,0 0,-2 -6,0 0,6 6,0 0,-2 2,0 0,4 0,2 4,0 0,1 6,0 0,-6 -6,0 0,3 -2,0 0,-4 0,-2 0,-4 2,0 0,2.9003906 6,0 0,-6 -6,0 z m 2,2 2,0 0,2 -2,0 0,-2 z M 4,10 l 2,0 0,2 -2,0 0,-2 z" opacity="1" transform="translate(0,26)"/></g></svg>