<svg xmlns="http://www.w3.org/2000/svg" xmlns:svg="http://www.w3.org/2000/svg" id="svg4359" width="24" height="24" version="1.1"><metadata id="metadata4364"/><g id="layer1" transform="translate(1,-25)"><rect id="rect4147" width="2" height="2" x="-3" y="25" fill="#304050" fill-opacity="1" fill-rule="nonzero" stroke="none" stroke-dasharray="none" stroke-dashoffset="0" stroke-linecap="butt" stroke-linejoin="miter" stroke-miterlimit="4" stroke-opacity="1" stroke-width="1" clip-rule="nonzero" color="#000" color-interpolation="sRGB" color-interpolation-filters="linearRGB" color-rendering="auto" display="inline" enable-background="accumulate" image-rendering="auto" opacity="1" overflow="visible" shape-rendering="auto" text-rendering="auto" visibility="visible" style="isolation:auto;mix-blend-mode:normal;solid-color:#000;solid-opacity:1"/><path id="path4165" fill="#304050" fill-opacity="1" stroke="none" stroke-dasharray="none" stroke-linecap="round" stroke-linejoin="miter" stroke-miterlimit="4" stroke-opacity=".299" stroke-width=".1" d="m 17,3 -2,2 1,0 0,4 2,0 0,-4 1,0 -2,-2 z M 5.5,6 C 4.115,6 3,7.115 3,8.5 3,9.885 4.115,11 5.5,11 6.885,11 8,9.885 8,8.5 8,7.115 6.885,6 5.5,6 Z m 4.5,0 0,2 2,0 0,-2 -2,0 z m 0,3 0,2 4,0 0,-2 -4,0 z M 5.5,14 C 4.115,14 3,15.115 3,16.5 3,17.885 4.115,19 5.5,19 6.885,19 8,17.885 8,16.5 8,15.115 6.885,14 5.5,14 Z m 4.5,0 0,2 4,0 0,-2 -4,0 z m 0,3 0,2 9,0 0,-2 -9,0 z" opacity="1" transform="translate(0,26)"/></g></svg>