<svg xmlns="http://www.w3.org/2000/svg" xmlns:svg="http://www.w3.org/2000/svg" id="svg4359" width="24" height="24" version="1.1"><metadata id="metadata4364"/><g id="layer1" transform="translate(1,-25)"><rect id="rect4147" width="2" height="2" x="-3" y="25" fill="#304050" fill-opacity="1" fill-rule="nonzero" stroke="none" stroke-dasharray="none" stroke-dashoffset="0" stroke-linecap="butt" stroke-linejoin="miter" stroke-miterlimit="4" stroke-opacity="1" stroke-width="1" clip-rule="nonzero" color="#000" color-interpolation="sRGB" color-interpolation-filters="linearRGB" color-rendering="auto" display="inline" enable-background="accumulate" image-rendering="auto" opacity="1" overflow="visible" shape-rendering="auto" text-rendering="auto" visibility="visible" style="isolation:auto;mix-blend-mode:normal;solid-color:#000;solid-opacity:1"/><path id="rect4152" fill="#304050" fill-opacity="1" stroke="none" stroke-dasharray="none" stroke-linecap="round" stroke-linejoin="miter" stroke-miterlimit="4" stroke-opacity=".299" stroke-width=".1" d="M 5.5,3 C 4.115,3 3,4.115 3,5.5 3,6.885 4.115,8 5.5,8 6.885,8 8,6.885 8,5.5 8,4.115 6.885,3 5.5,3 Z m 4.5,0 0,2 9,0 0,-2 -9,0 z m 0,3 0,2 4,0 0,-2 -4,0 z M 5.5,11 C 4.115,11 3,12.115 3,13.5 3,14.885 4.115,16 5.5,16 6.885,16 8,14.885 8,13.5 8,12.115 6.885,11 5.5,11 Z m 4.5,0 0,2 4,0 0,-2 -4,0 z m 6,2 0,4 -1,0 2,2 2,-2 -1,0 0,-4 -2,0 z m -6,1 0,2 2,0 0,-2 -2,0 z" opacity="1" transform="translate(0,26)"/></g></svg>