<svg xmlns="http://www.w3.org/2000/svg" xmlns:svg="http://www.w3.org/2000/svg" id="svg4359" width="24" height="24" version="1.1"><metadata id="metadata4364"/><g id="layer1" transform="translate(1,-25)"><rect id="rect4147" width="2" height="2" x="-3" y="25" fill="#304050" fill-opacity="1" fill-rule="nonzero" stroke="none" stroke-dasharray="none" stroke-dashoffset="0" stroke-linecap="butt" stroke-linejoin="miter" stroke-miterlimit="4" stroke-opacity="1" stroke-width="1" clip-rule="nonzero" color="#000" color-interpolation="sRGB" color-interpolation-filters="linearRGB" color-rendering="auto" display="inline" enable-background="accumulate" image-rendering="auto" opacity="1" overflow="visible" shape-rendering="auto" text-rendering="auto" visibility="visible" style="isolation:auto;mix-blend-mode:normal;solid-color:#000;solid-opacity:1"/><path id="path4193" fill="#304050" fill-opacity="1" stroke="none" stroke-dasharray="none" stroke-linecap="round" stroke-linejoin="miter" stroke-miterlimit="4" stroke-opacity=".299" stroke-width=".1" d="M 9.5859375,3 8.171875,4.4140625 9.5859375,5.828125 11,7.2421875 13.828125,4.4140625 12.414062,3 11,4.4140625 9.5859375,3 Z M 4.4140625,8.171875 3,9.5859375 4.4140625,11 3,12.414062 4.4140625,13.828125 5.828125,12.414062 7.2421875,11 5.828125,9.5859375 4.4140625,8.171875 Z m 13.1718755,0 L 14.757812,11 16.171875,12.414062 17.585938,13.828125 19,12.414062 17.585938,11 19,9.5859375 17.585938,8.171875 Z M 11,14.757812 8.171875,17.585938 9.5859375,19 11,17.585938 12.414062,19 13.828125,17.585938 12.414062,16.171875 11,14.757812 Z" opacity="1" transform="translate(0,26)"/></g></svg>