<svg xmlns="http://www.w3.org/2000/svg" xmlns:svg="http://www.w3.org/2000/svg" xmlns:xlink="http://www.w3.org/1999/xlink" id="svg2" width="64" height="64" version="1.1" viewBox="0 0 64 64"><defs id="defs4"><linearGradient id="Shadow"><stop id="stop4186" offset="0" stop-color="#000" stop-opacity="1"/><stop id="stop4188" offset="1" stop-color="#000" stop-opacity="0"/></linearGradient><radialGradient id="radialGradient4259-4" cx="4" cy="42.5" r="1.5" fx="4" fy="42.5" gradientTransform="matrix(-2.0000003,-2.935184e-6,3.913579e-6,-2.6666677,14.99984,1228.853)" gradientUnits="userSpaceOnUse" xlink:href="#Shadow"/><linearGradient id="linearGradient4257-1" x1="24" x2="24" y1="42" y2="46" gradientTransform="translate(9.999999,1073.5196)" gradientUnits="userSpaceOnUse" xlink:href="#Shadow"/><radialGradient id="radialGradient4255-6" cx="44" cy="42.5" r="1.5" fx="44" fy="42.5" gradientTransform="matrix(-5.6193693e-6,2.666668,-2.0000002,-4.214526e-6,142.00027,998.1864)" gradientUnits="userSpaceOnUse" xlink:href="#Shadow"/><linearGradient id="linearGradient4228" x1="24" x2="24" y1="42" y2="46" gradientTransform="translate(9.999995,1073.5196)" gradientUnits="userSpaceOnUse" xlink:href="#Shadow"/><linearGradient id="linearGradient4402" x1="14" x2="22" y1="1086.52" y2="1091.52" gradientTransform="translate(5.74e-6,0)" gradientUnits="userSpaceOnUse" xlink:href="#Shadow"/><linearGradient id="linearGradient4410" x1="37" x2="32" y1="1101.52" y2="1092.52" gradientTransform="translate(5.74e-6,0)" gradientUnits="userSpaceOnUse" xlink:href="#Shadow"/><linearGradient id="linearGradient4418" x1="41" x2="40" y1="1111.52" y2="1104.52" gradientTransform="translate(5.74e-6,0)" gradientUnits="userSpaceOnUse" xlink:href="#Shadow"/><radialGradient id="radialGradient4314" cx="32" cy="1096.52" r="11" fx="32" fy="1096.52" gradientTransform="matrix(0.90909091,0,0,0.90909091,48.909088,83.683246)" gradientUnits="userSpaceOnUse" xlink:href="#Shadow"/></defs><metadata id="metadata7"/><g id="layer1" transform="translate(0,-1058.5196)"><path id="path4249-5" fill="url(#radialGradient4255-6)" fill-opacity="1" stroke="none" stroke-dasharray="none" stroke-linecap="butt" stroke-linejoin="round" stroke-miterlimit="4" stroke-opacity="1" stroke-width="2" d="m 56.999991,1115.5196 0,4 1,0 c 1.108,0 2,-0.892 2,-2 l 0,-2 -3,0 z" opacity=".7"/><path id="rect4649" fill="#eceff1" fill-opacity="1" stroke="none" stroke-dasharray="none" stroke-linecap="butt" stroke-linejoin="round" stroke-miterlimit="4" stroke-opacity="1" stroke-width="2" d="m 8.0000045,1075.5196 c -0.5539702,0 -0.9999997,0.446 -0.9999997,1 l 0,37 c 0,0.554 0.4460295,1 0.9999997,1 l 47.9999915,0 c 0.55397,0 1,-0.446 1,-1 l 0,-37 c 0,-0.554 -0.44603,-1 -1,-1 z" opacity="1"/><path id="path4251-7" fill="url(#linearGradient4257-1)" fill-opacity="1" stroke="none" stroke-dasharray="none" stroke-linecap="butt" stroke-linejoin="round" stroke-miterlimit="4" stroke-opacity="1" stroke-width="2" d="m 6.9999998,1115.5196 0,4 49.9999912,0 0,-4 z" opacity=".7"/><path id="path4253-6" fill="url(#radialGradient4259-4)" fill-opacity="1" stroke="none" stroke-dasharray="none" stroke-linecap="butt" stroke-linejoin="round" stroke-miterlimit="4" stroke-opacity="1" stroke-width="2" d="m 4,1115.5196 0,2 c 0,1.108 0.892,2 2,2 l 0.9999998,0 0,-4 -2.9999998,0 z" opacity=".7"/><rect id="rect4160" width="56" height="45" x="4" y="1072.52" fill="#37474f" fill-opacity="1" stroke="none" stroke-dasharray="none" stroke-linecap="butt" stroke-linejoin="round" stroke-miterlimit="4" stroke-opacity="1" stroke-width="2" opacity="1" ry="3"/><rect id="rect4162" width="54" height="43" x="5" y="1073.52" fill="#455a64" fill-opacity="1" stroke="none" stroke-dasharray="none" stroke-linecap="butt" stroke-linejoin="round" stroke-miterlimit="4" stroke-opacity="1" stroke-width="2" opacity="1" ry="2"/><rect id="rect4164" width="50" height="39" x="7" y="1075.52" fill="#eceff1" fill-opacity="1" stroke="none" stroke-dasharray="none" stroke-linecap="butt" stroke-linejoin="round" stroke-miterlimit="4" stroke-opacity="1" stroke-width="2" opacity="1" ry="1"/><path id="rect4273" fill="#ab47bc" fill-opacity="1" stroke="none" stroke-dasharray="none" stroke-linecap="butt" stroke-linejoin="round" stroke-miterlimit="4" stroke-opacity="1" stroke-width="2" d="m 8.0000045,1076.5196 0,37 47.9999915,0 0,-37 -47.9999915,0 z" opacity="1"/><path id="path4396" fill="#ec407a" fill-opacity="1" fill-rule="evenodd" stroke="none" stroke-linecap="butt" stroke-linejoin="miter" stroke-opacity="1" stroke-width="1" d="m 8.0000045,1076.5196 0,33.918 22.0000005,-33.918 -22.0000005,0 z"/><path id="path4400" fill="url(#linearGradient4402)" fill-rule="evenodd" stroke="none" stroke-linecap="butt" stroke-linejoin="miter" stroke-opacity="1" stroke-width="1" d="m 30.000005,1076.5196 -22.0000005,33.918 0,3.082 23.9999995,-37 -1.999999,0 z"/><path id="path4406" fill="#7e57c2" fill-opacity="1" fill-rule="evenodd" stroke="none" stroke-linecap="butt" stroke-linejoin="miter" stroke-opacity="1" stroke-width="1" d="m 55.999996,1081.5958 -47.9999915,25.8457 0,6.0781 47.9999915,0 0,-31.9238 z"/><path id="path4408" fill="url(#linearGradient4410)" fill-rule="evenodd" stroke="none" stroke-linecap="butt" stroke-linejoin="miter" stroke-opacity="1" stroke-width="1" d="m 55.999996,1079.5958 -47.9999915,25.8457 0,2 47.9999915,-25.8457 0,-2 z"/><path id="path4414" fill="#5c6bc0" fill-opacity="1" fill-rule="evenodd" stroke="none" stroke-linecap="butt" stroke-linejoin="miter" stroke-opacity="1" stroke-width="1" d="m 55.999996,1103.7891 -47.9999915,6.461 0,3.2695 47.9999915,0 0,-9.7305 z"/><path id="path4416" fill="url(#linearGradient4418)" fill-rule="evenodd" stroke="none" stroke-linecap="butt" stroke-linejoin="miter" stroke-opacity="1" stroke-width="1" d="m 55.999996,1101.7891 -47.9999915,6.461 0,2 47.9999915,-6.461 0,-2 z"/><path id="circle4518" fill="navy" fill-opacity="1" d="m 93.9707,1073.5196 0.97071,2 -2.94141,0 -1.99219,0 a 5,5 0 0 1 3.96289,-2 z m 1.08789,0.1152 a 5,5 0 0 1 2.85352,1.7735 l -0.9707,1.9961 -0.44141,-0.8848 -0.5,-1 -0.94141,-1.8848 z m 3.48047,2.8047 a 5,5 0 0 1 0.46094,2.0801 5,5 0 0 1 -0.41992,2 l -2.08008,0 1,-2 1.03906,-2.0801 z m -7.03906,0.08 -1,2 -1.03906,2.0801 a 5,5 0 0 1 -0.46094,-2.08 5,5 0 0 1 0.41992,-2 l 2.08008,0 z m -0.44141,3.1152 0.94141,1.8848 0.94336,1.8848 a 5,5 0 0 1 -2.85352,-1.7754 l 0.96875,-1.9942 z m 6.9336,1.8848 a 5,5 0 0 1 -3.96485,2 l -0.9707,-2 2.94336,0 1.99219,0 z"/><circle id="path4306" cx="78" cy="1080.52" r="10" fill="url(#radialGradient4314)" fill-opacity="1"/><circle id="circle4316" cx="78" cy="1079.519" r="9" fill="#4db6ac" fill-opacity="1"/><path id="path4618" fill="#fff" fill-opacity="1" fill-rule="evenodd" stroke="none" stroke-linecap="butt" stroke-linejoin="miter" stroke-opacity="1" stroke-width="1" d="m 74.000012,1074.5189 c -0.55397,0 -1,0.446 -1,1 l 0,8 c 0,0.554 0.44603,1 1,1 l 8,0 c 0.55397,0 1,-0.446 1,-1 l 0,-3 0,-5 c 0,-0.554 -0.44603,-1 -1,-1 l -8,0 z m 0,1 8,0 0,4 -1,-1 -3,3 -1,-1 -3,3 0,-8 z m 2.5,1 a 1.5,1.5 0 0 0 -1.5,1.5 1.5,1.5 0 0 0 1.5,1.5 1.5,1.5 0 0 0 1.5,-1.5 1.5,1.5 0 0 0 -1.5,-1.5 z"/></g></svg>