<svg xmlns="http://www.w3.org/2000/svg" xmlns:svg="http://www.w3.org/2000/svg" xmlns:xlink="http://www.w3.org/1999/xlink" id="svg2" width="64" height="64" version="1.1" viewBox="0 0 64 64"><defs id="defs4"><linearGradient id="Shadow"><stop id="stop4186" offset="0" stop-color="#000" stop-opacity="1"/><stop id="stop4188" offset="1" stop-color="#000" stop-opacity="0"/></linearGradient><radialGradient id="radialGradient4259-4" cx="4" cy="42.5" r="1.5" fx="4" fy="42.5" gradientTransform="matrix(-2.0000003,-2.935184e-6,3.9135795e-6,-2.6666677,26.99984,1228.853)" gradientUnits="userSpaceOnUse" xlink:href="#Shadow"/><linearGradient id="linearGradient4257-1" x1="24" x2="24" y1="42" y2="46" gradientTransform="translate(9.999995,1073.5196)" gradientUnits="userSpaceOnUse" xlink:href="#Shadow"/><radialGradient id="radialGradient4255-6" cx="44" cy="42.5" r="1.5" fx="44" fy="42.5" gradientTransform="matrix(-5.6193702e-6,2.666668,-2.0000002,-4.214526e-6,130.00027,998.1864)" gradientUnits="userSpaceOnUse" xlink:href="#Shadow"/><style id="current-color-scheme" type="text/css"/><linearGradient id="linearGradient4222" x1="39" x2="36" y1="1088.52" y2="1091.52" gradientUnits="userSpaceOnUse" xlink:href="#Shadow"/><radialGradient id="radialGradient4236" cx="28" cy="1085.52" r="1" fx="28" fy="1085.52" gradientUnits="userSpaceOnUse" xlink:href="#Shadow"/><radialGradient id="radialGradient4244" cx="25.5" cy="1092.02" r="1.5" fx="25.5" fy="1092.02" gradientUnits="userSpaceOnUse" xlink:href="#Shadow"/><radialGradient id="radialGradient4252" cx="30" cy="1098.52" r="2" fx="30" fy="1098.52" gradientUnits="userSpaceOnUse" xlink:href="#Shadow"/><linearGradient id="linearGradient4262" x1="39" x2="35" y1="1085.52" y2="1089.52" gradientTransform="translate(0,-1058.5196)" gradientUnits="userSpaceOnUse" xlink:href="#Shadow"/><linearGradient id="linearGradient4269" x1="34" x2="38" y1="1088.52" y2="1092.52" gradientTransform="translate(0,-1058.5196)" gradientUnits="userSpaceOnUse" xlink:href="#Shadow"/></defs><metadata id="metadata7"/><g id="layer1" transform="translate(0,-1058.5196)"><path id="path4249-5" fill="url(#radialGradient4255-6)" fill-opacity="1" stroke="none" stroke-dasharray="none" stroke-linecap="butt" stroke-linejoin="round" stroke-miterlimit="4" stroke-opacity="1" stroke-width="2" d="m 45,1115.5196 0,4 1,0 c 1.108,0 2,-0.892 2,-2 l 0,-2 -3,0 z" opacity=".7"/><path id="path4251-7" fill="url(#linearGradient4257-1)" fill-opacity="1" stroke="none" stroke-dasharray="none" stroke-linecap="butt" stroke-linejoin="round" stroke-miterlimit="4" stroke-opacity="1" stroke-width="2" d="m 19,1115.5196 0,4 26,0 0,-4 z" opacity=".7"/><path id="path4253-6" fill="url(#radialGradient4259-4)" fill-opacity="1" stroke="none" stroke-dasharray="none" stroke-linecap="butt" stroke-linejoin="round" stroke-miterlimit="4" stroke-opacity="1" stroke-width="2" d="m 16,1115.5196 0,2 c 0,1.108 0.892,2 2,2 l 1,0 0,-4 -3,0 z" opacity=".7"/><rect id="rect4159" width="32" height="53" x="16" y="1064.52" fill="#bdbdbd" fill-opacity="1" stroke="none" stroke-dasharray="none" stroke-linecap="round" stroke-linejoin="miter" stroke-miterlimit="4" stroke-opacity=".299" stroke-width="1" opacity="1" ry="3"/><rect id="rect4355" width="6" height="1" x="29" y="1067.52" fill="#4b4e54" fill-opacity="1" stroke="none" stroke-dasharray="none" stroke-linecap="round" stroke-linejoin="miter" stroke-miterlimit="4" stroke-opacity=".299" stroke-width="1" opacity="1" ry="0"/><rect id="rect4215" width="30" height="51" x="17" y="1065.52" fill="#f5f5f5" fill-opacity="1" stroke="none" stroke-dasharray="none" stroke-linecap="round" stroke-linejoin="round" stroke-miterlimit="4" stroke-opacity="1" stroke-width="2" opacity="1" ry="2"/><rect id="rect4204" width="28" height="42" x="18" y="1070.52" fill="#37474f" fill-opacity="1" stroke="none" stroke-dasharray="none" stroke-linecap="round" stroke-linejoin="round" stroke-miterlimit="4" stroke-opacity="1" stroke-width="2" opacity="1" ry="0"/><rect id="rect4209" width="4" height="2" x="30" y="1113.52" fill="#424242" fill-opacity="1" stroke="none" stroke-dasharray="none" stroke-linecap="round" stroke-linejoin="miter" stroke-miterlimit="4" stroke-opacity=".299" stroke-width="1" opacity="1" ry="1"/><circle id="path4211" cx="40" cy="1068.52" r="1" fill="#424242" fill-opacity="1" stroke="none" stroke-dasharray="none" stroke-linecap="round" stroke-linejoin="round" stroke-miterlimit="4" stroke-opacity="1" stroke-width="2" opacity="1"/><rect id="rect4213" width="2" height="1" x="22" y="1068.52" fill="#424242" fill-opacity="1" stroke="none" stroke-dasharray="none" stroke-linecap="round" stroke-linejoin="round" stroke-miterlimit="4" stroke-opacity="1" stroke-width="2" opacity="1"/><rect id="rect4217" width="6" height="2" x="29" y="1067.52" fill="#424242" fill-opacity="1" stroke="none" stroke-dasharray="none" stroke-linecap="round" stroke-linejoin="round" stroke-miterlimit="4" stroke-opacity="1" stroke-width="2" opacity="1" ry="1"/><path id="path4224" fill="url(#radialGradient4236)" fill-opacity="1" stroke="none" d="m 28,1084.5197 c -0.554,0 -1,0.446 -1,1 0,0.554 0.446,1 1,1 0.554,0 1,-0.446 1,-1 0,-0.554 -0.446,-1 -1,-1 z" color="#4d4d4d"/><path id="path4218" fill="#fa8865" fill-opacity="1" stroke="none" d="m 28,1083.5197 c -0.554,0 -1,0.446 -1,1 0,0.554 0.446,1 1,1 0.554,0 1,-0.446 1,-1 0,-0.554 -0.446,-1 -1,-1 z" color="#4d4d4d"/><path id="path4267" fill="url(#linearGradient4269)" fill-opacity="1" stroke="none" d="M 38 29 L 36 31 L 33 34 L 35 36 L 38 33 L 40 31 L 38 29 z" color="#4d4d4d" transform="translate(0,1058.5196)"/><path id="path4254" fill="url(#linearGradient4262)" fill-opacity="1" stroke="none" d="M 35 26 L 33 28 L 36 31 L 38 29 L 35 26 z" color="#4d4d4d" transform="translate(0,1058.5196)"/><path id="path4216" fill="#f5f5f5" fill-opacity="1" stroke="none" d="m 35,1083.5197 -2,2 3,3 -3,3 2,2 3,-3 2,-2 -5,-5 z" color="#4d4d4d"/><path id="path4226" fill="url(#radialGradient4244)" fill-opacity="1" stroke="none" d="m 25.5,1090.5197 c -0.831,0 -1.5,0.669 -1.5,1.5 0,0.831 0.669,1.5 1.5,1.5 0.831,0 1.5,-0.669 1.5,-1.5 0,-0.831 -0.669,-1.5 -1.5,-1.5 z" color="#4d4d4d"/><path id="path4214" fill="#63c605" fill-opacity="1" stroke="none" d="m 25.5,1089.5197 c -0.831,0 -1.5,0.669 -1.5,1.5 0,0.831 0.669,1.5 1.5,1.5 0.831,0 1.5,-0.669 1.5,-1.5 0,-0.831 -0.669,-1.5 -1.5,-1.5 z" color="#4d4d4d"/><path id="path4228" fill="url(#radialGradient4252)" fill-opacity="1" stroke="none" d="m 30,1096.5197 c -1.108,0 -2,0.892 -2,2 0,1.108 0.892,2 2,2 1.108,0 2,-0.892 2,-2 0,-1.108 -0.892,-2 -2,-2 z" color="#4d4d4d"/><path id="path4203" fill="#1b89f3" fill-opacity="1" stroke="none" d="m 30,1095.5197 c -1.108,0 -2,0.892 -2,2 0,1.108 0.892,2 2,2 1.108,0 2,-0.892 2,-2 0,-1.108 -0.892,-2 -2,-2 z" color="#4d4d4d"/><path id="path4220" fill="url(#linearGradient4222)" fill-rule="evenodd" stroke="none" stroke-linecap="butt" stroke-linejoin="miter" stroke-opacity="1" stroke-width="1" d="m 36,1088.5196 2,2 -3,3 c 0,0 -2,-2 -2,-2 z" opacity=".3"/></g></svg>