<svg xmlns="http://www.w3.org/2000/svg" xmlns:svg="http://www.w3.org/2000/svg" xmlns:xlink="http://www.w3.org/1999/xlink" id="svg2" width="64" height="64" version="1.1" viewBox="0 0 64 64"><defs id="defs4"><linearGradient id="Shadow"><stop id="stop4186" offset="0" stop-color="#000" stop-opacity="1"/><stop id="stop4188" offset="1" stop-color="#000" stop-opacity="0"/></linearGradient><radialGradient id="radialGradient4259-4" cx="4" cy="42.5" r="1.5" fx="4" fy="42.5" gradientTransform="matrix(-2.0000003,-2.935184e-6,3.9135795e-6,-2.6666677,22.999835,1228.853)" gradientUnits="userSpaceOnUse" xlink:href="#Shadow"/><linearGradient id="linearGradient4257-1" x1="24" x2="24" y1="42" y2="46" gradientTransform="translate(9.999995,1073.5196)" gradientUnits="userSpaceOnUse" xlink:href="#Shadow"/><radialGradient id="radialGradient4255-6" cx="44" cy="42.5" r="1.5" fx="44" fy="42.5" gradientTransform="matrix(-5.6193702e-6,2.666668,-2.0000002,-4.214526e-6,134.00027,998.1864)" gradientUnits="userSpaceOnUse" xlink:href="#Shadow"/><linearGradient id="linearGradient4250" x1="33" x2="33" y1="1070.52" y2="1074.52" gradientTransform="translate(0,-3.3555e-4)" gradientUnits="userSpaceOnUse" xlink:href="#Shadow"/></defs><metadata id="metadata7"/><g id="layer1" transform="translate(0,-1058.5196)"><path id="path4249-5" fill="url(#radialGradient4255-6)" fill-opacity="1" stroke="none" stroke-dasharray="none" stroke-linecap="butt" stroke-linejoin="round" stroke-miterlimit="4" stroke-opacity="1" stroke-width="2" d="m 48.999995,1115.5196 0,4 1,0 c 1.108,0 2,-0.892 2,-2 l 0,-2 -3,0 z" opacity=".7"/><path id="path4251-7" fill="url(#linearGradient4257-1)" fill-opacity="1" stroke="none" stroke-dasharray="none" stroke-linecap="butt" stroke-linejoin="round" stroke-miterlimit="4" stroke-opacity="1" stroke-width="2" d="m 15,1115.5196 0,4 34,0 0,-4 z" opacity=".7"/><path id="path4253-6" fill="url(#radialGradient4259-4)" fill-opacity="1" stroke="none" stroke-dasharray="none" stroke-linecap="butt" stroke-linejoin="round" stroke-miterlimit="4" stroke-opacity="1" stroke-width="2" d="m 11.999995,1115.5196 0,2 c 0,1.108 0.892,2 2,2 l 1,0 0,-4 -3,0 z" opacity=".7"/><rect id="rect3360" width="40" height="49" x="12" y="1068.52" fill="#e5a861" fill-opacity="1" ry="3"/><rect id="rect4229" width="38" height="47" x="13" y="1069.52" fill="#e9b578" fill-opacity="1" stroke="none" stroke-dasharray="none" stroke-linecap="round" stroke-linejoin="round" stroke-miterlimit="4" stroke-opacity="1" stroke-width="1" opacity="1" ry="2"/><rect id="rect4231" width="34" height="43" x="15" y="1071.52" fill="#e0e0e0" fill-opacity="1" stroke="none" stroke-dasharray="none" stroke-linecap="round" stroke-linejoin="round" stroke-miterlimit="4" stroke-opacity="1" stroke-width="1" opacity="1" ry="1"/><rect id="rect4263" width="32" height="41" x="16" y="1072.52" fill="#fafafa" fill-opacity="1" stroke="none" stroke-dasharray="none" stroke-linecap="round" stroke-linejoin="round" stroke-miterlimit="4" stroke-opacity="1" stroke-width="1" opacity="1" ry="0"/><rect id="rect4172" width="34" height="12" x="15" y="1087.52" fill="#29b6f6" fill-opacity="1" stroke="none" stroke-dasharray="none" stroke-linecap="round" stroke-linejoin="round" stroke-miterlimit="4" stroke-opacity="1" stroke-width="2" opacity="1" ry="1"/><rect id="rect4248" width="12" height="3" x="27" y="1071.52" fill="url(#linearGradient4250)" fill-opacity="1" stroke="none" stroke-dasharray="none" stroke-linecap="round" stroke-linejoin="round" stroke-miterlimit="4" stroke-opacity="1" stroke-width="1" opacity="1" ry="0"/><path id="rect4149-2" fill="#9e9e9e" fill-opacity="1" stroke="none" d="m 33,1064.5196 c -1.104543,0 -1.999962,0.8954 -2,2 l -4,2 0,5 12,0 0,-5 -4,-2 c -3.8e-5,-1.1046 -0.895457,-2 -2,-2 z m 0,1 c 0.552285,0 1,0.4477 1,1 0,0.5523 -0.447715,1 -1,1 -0.552285,0 -1,-0.4477 -1,-1 0,-0.5523 0.447715,-1 1,-1 z"/><rect id="rect4262" width="16" height="1" x="30" y="1077.52" fill="#b0bec5" fill-opacity="1" stroke="none" stroke-opacity="1" opacity="1"/><rect id="rect4264" width="16" height="1" x="30" y="1079.52" fill="#b0bec5" fill-opacity="1" stroke="none" stroke-opacity="1" opacity="1"/><rect id="rect4266" width="4" height="1" x="30" y="1084.52" fill="#b0bec5" fill-opacity="1" stroke="none" stroke-opacity="1" opacity="1"/><rect id="rect4174" width="32" height="10" x="16" y="1088.52" fill="#b3e5fc" fill-opacity="1" stroke="none" stroke-dasharray="none" stroke-linecap="round" stroke-linejoin="round" stroke-miterlimit="4" stroke-opacity="1" stroke-width="2" opacity="1" ry="0"/><path id="path4270" fill="#29b6f6" fill-opacity="1" stroke="none" stroke-dasharray="none" stroke-linecap="round" stroke-linejoin="round" stroke-miterlimit="4" stroke-opacity="1" stroke-width="1" d="m 19,1089.5196 c -0.553971,0 -1,0.446 -1,1 l 0,6 c 0,0.554 0.446029,1 1,1 l 6,0 c 0.553971,0 1,-0.446 1,-1 l 0,-6 c 0,-0.554 -0.446029,-1 -1,-1 l -6,0 z m 1,2 4,0 0,4 -4,0 0,-4 z" opacity="1"/><rect id="rect4270" width="16" height="1" x="30" y="1089.52" fill="#546e7a" fill-opacity="1" stroke="none" stroke-opacity="1" opacity="1"/><rect id="rect4272" width="16" height="1" x="30" y="1091.52" fill="#546e7a" fill-opacity="1" stroke="none" stroke-opacity="1" opacity="1"/><rect id="rect4274" width="4" height="1" x="30" y="1096.52" fill="#546e7a" fill-opacity="1" stroke="none" stroke-opacity="1" opacity="1"/><path id="path4272" fill="#b0bec5" fill-opacity="1" stroke="none" stroke-dasharray="none" stroke-linecap="round" stroke-linejoin="round" stroke-miterlimit="4" stroke-opacity="1" stroke-width="1" d="m 19,1101.5196 c -0.553971,0 -1,0.446 -1,1 l 0,6 c 0,0.554 0.446029,1 1,1 l 6,0 c 0.553971,0 1,-0.446 1,-1 l 0,-6 c 0,-0.554 -0.446029,-1 -1,-1 l -6,0 z m 1,2 4,0 0,4 -4,0 0,-4 z" opacity="1"/><rect id="rect4278" width="16" height="1" x="30" y="1101.52" fill="#b0bec5" fill-opacity="1" stroke="none" stroke-opacity="1" opacity="1"/><rect id="rect4280" width="16" height="1" x="30" y="1103.52" fill="#b0bec5" fill-opacity="1" stroke="none" stroke-opacity="1" opacity="1"/><rect id="rect4282" width="4" height="1" x="30" y="1108.52" fill="#b0bec5" fill-opacity="1" stroke="none" stroke-opacity="1" opacity="1"/><path id="rect4252" fill="#bdbdbd" fill-opacity="1" stroke="none" stroke-dasharray="none" stroke-linecap="round" stroke-linejoin="round" stroke-miterlimit="4" stroke-opacity="1" stroke-width="1" d="m 31,9.3 -3,1.7 0,3 10,0 0,-3 -3,-1.7 z" opacity="1" transform="translate(0,1058.5196)"/><path id="path4257" fill="#bdbdbd" fill-opacity="1" stroke="none" stroke-dasharray="none" stroke-linecap="round" stroke-linejoin="round" stroke-miterlimit="4" stroke-opacity="1" stroke-width="1" d="M 33 5 A 3 3 0 0 0 30 8 A 3 3 0 0 0 33 11 A 3 3 0 0 0 36 8 A 3 3 0 0 0 33 5 z M 33 6 A 2 2 0 0 1 35 8 A 2 2 0 0 1 33 10 A 2 2 0 0 1 31 8 A 2 2 0 0 1 33 6 z" opacity="1" transform="translate(0,1058.5196)"/><path id="rect4265" fill="#b0bec5" fill-opacity="1" stroke="none" stroke-dasharray="none" stroke-linecap="round" stroke-linejoin="round" stroke-miterlimit="4" stroke-opacity="1" stroke-width="1" d="M 19 19 C 18.446029 19 18 19.446029 18 20 L 18 26 C 18 26.553971 18.446029 27 19 27 L 25 27 C 25.553971 27 26 26.553971 26 26 L 26 20 C 26 19.446029 25.553971 19 25 19 L 19 19 z M 20 21 L 24 21 L 24 25 L 20 25 L 20 21 z" opacity="1" transform="translate(0,1058.5196)"/><rect id="rect4176" width="6" height="6" x="19" y="1090.52" fill="#e1f5fe" fill-opacity="1" stroke="none" stroke-dasharray="none" stroke-linecap="round" stroke-linejoin="round" stroke-miterlimit="4" stroke-opacity="1" stroke-width="2" opacity="1" ry="0"/><rect id="rect4178" width="4" height="4" x="20" y="1091.52" fill="#29b6f6" fill-opacity="1" stroke="none" stroke-dasharray="none" stroke-linecap="round" stroke-linejoin="round" stroke-miterlimit="4" stroke-opacity="1" stroke-width="2" opacity="1" ry="0"/><rect id="rect4180" width="6" height="6" x="19" y="1078.52" fill="#eceff1" fill-opacity="1" stroke="none" stroke-dasharray="none" stroke-linecap="round" stroke-linejoin="round" stroke-miterlimit="4" stroke-opacity="1" stroke-width="2" opacity="1" ry="0"/><rect id="rect4180-0" width="6" height="6" x="19" y="1102.52" fill="#eceff1" fill-opacity="1" stroke="none" stroke-dasharray="none" stroke-linecap="round" stroke-linejoin="round" stroke-miterlimit="4" stroke-opacity="1" stroke-width="2" opacity="1" ry="0"/></g></svg>