<svg xmlns="http://www.w3.org/2000/svg" xmlns:svg="http://www.w3.org/2000/svg" xmlns:xlink="http://www.w3.org/1999/xlink" id="svg2" width="64" height="64" version="1.1" viewBox="0 0 64 64"><defs id="defs4"><linearGradient id="Shadow"><stop id="stop4186" offset="0" stop-color="#000" stop-opacity="1"/><stop id="stop4188" offset="1" stop-color="#000" stop-opacity="0"/></linearGradient><radialGradient id="radialGradient4259-4" cx="4" cy="42.5" r="1.5" fx="4" fy="42.5" gradientTransform="matrix(-2.0000003,-2.935184e-6,3.9135795e-6,-2.6666677,14.999835,1228.853)" gradientUnits="userSpaceOnUse" xlink:href="#Shadow"/><linearGradient id="linearGradient4257-1" x1="24" x2="24" y1="42" y2="46" gradientTransform="translate(9.999995,1073.5196)" gradientUnits="userSpaceOnUse" xlink:href="#Shadow"/><radialGradient id="radialGradient4255-6" cx="44" cy="42.5" r="1.5" fx="44" fy="42.5" gradientTransform="matrix(-5.6193702e-6,2.666668,-2.0000002,-4.214526e-6,142.00027,998.1864)" gradientUnits="userSpaceOnUse" xlink:href="#Shadow"/><style id="current-color-scheme" type="text/css"/><linearGradient id="linearGradient4222" x1="39" x2="36" y1="1088.52" y2="1091.52" gradientTransform="translate(15,14.9999)" gradientUnits="userSpaceOnUse" xlink:href="#Shadow"/><radialGradient id="radialGradient4236" cx="28" cy="1085.52" r="1" fx="28" fy="1085.52" gradientTransform="translate(17,16.9999)" gradientUnits="userSpaceOnUse" xlink:href="#Shadow"/><linearGradient id="linearGradient4269" x1="34" x2="38" y1="1088.52" y2="1092.52" gradientTransform="translate(15,14.9999)" gradientUnits="userSpaceOnUse" xlink:href="#Shadow"/><radialGradient id="radialGradient4244" cx="25.5" cy="1092.02" r="1.5" fx="25.5" fy="1092.02" gradientTransform="translate(17,14.9999)" gradientUnits="userSpaceOnUse" xlink:href="#Shadow"/><radialGradient id="radialGradient4252" cx="30" cy="1098.52" r="2" fx="30" fy="1098.52" gradientTransform="translate(17,12.9999)" gradientUnits="userSpaceOnUse" xlink:href="#Shadow"/></defs><metadata id="metadata7"/><g id="layer1" transform="translate(0,-1058.5196)"><path id="path4249-5" fill="url(#radialGradient4255-6)" fill-opacity="1" stroke="none" stroke-dasharray="none" stroke-linecap="butt" stroke-linejoin="round" stroke-miterlimit="4" stroke-opacity="1" stroke-width="2" d="m 56.999995,1115.5196 0,4 1,0 c 1.108,0 2,-0.892 2,-2 l 0,-2 -3,0 z" opacity=".7"/><path id="path4251-7" fill="url(#linearGradient4257-1)" fill-opacity="1" stroke="none" stroke-dasharray="none" stroke-linecap="butt" stroke-linejoin="round" stroke-miterlimit="4" stroke-opacity="1" stroke-width="2" d="m 7,1115.5196 0,4 50,0 0,-4 z" opacity=".7"/><path id="path4253-6" fill="url(#radialGradient4259-4)" fill-opacity="1" stroke="none" stroke-dasharray="none" stroke-linecap="butt" stroke-linejoin="round" stroke-miterlimit="4" stroke-opacity="1" stroke-width="2" d="m 3.999995,1115.5196 0,2 c 0,1.108 0.892,2 2,2 l 1,0 0,-4 -3,0 z" opacity=".7"/><rect id="rect3360" width="56" height="44" x="4" y="1073.52" fill="#26a69a" fill-opacity="1" ry="3"/><rect id="rect3362" width="54" height="42" x="5" y="-1116.52" fill="#4db6ac" fill-opacity="1" ry="2" transform="scale(1,-1)"/><rect id="rect4163" width="56" height="6" x="4" y="1079.52" fill="#37474f" fill-opacity="1" stroke="none" stroke-dasharray="none" stroke-linecap="round" stroke-linejoin="round" stroke-miterlimit="4" stroke-opacity="1" stroke-width="2" opacity="1" ry="0"/><rect id="rect4167" width="1" height="6" x="4" y="1079.52" fill="#263238" fill-opacity="1" stroke="none" stroke-dasharray="none" stroke-linecap="round" stroke-linejoin="round" stroke-miterlimit="4" stroke-opacity="1" stroke-width="2" opacity="1"/><rect id="rect4167-9" width="1" height="6" x="59" y="1079.52" fill="#263238" fill-opacity="1" stroke="none" stroke-dasharray="none" stroke-linecap="round" stroke-linejoin="round" stroke-miterlimit="4" stroke-opacity="1" stroke-width="2" opacity="1"/><rect id="rect4184" width="35" height="7" x="9" y="1088.52" fill="#e0e0e0" fill-opacity="1" stroke="none" stroke-dasharray="none" stroke-linecap="round" stroke-linejoin="round" stroke-miterlimit="4" stroke-opacity="1" stroke-width="2" opacity="1" ry="1"/><rect id="rect4186" width="33" height="5" x="10" y="1089.52" fill="#eee" fill-opacity="1" stroke="none" stroke-dasharray="none" stroke-linecap="round" stroke-linejoin="round" stroke-miterlimit="4" stroke-opacity="1" stroke-width="2" opacity="1" ry="0"/><rect id="rect4188" width="7" height="5" x="46" y="1089.52" fill="#e0e0e0" fill-opacity="1" stroke="none" stroke-dasharray="none" stroke-linecap="round" stroke-linejoin="round" stroke-miterlimit="4" stroke-opacity="1" stroke-width="2" opacity="1" ry="1"/><rect id="rect4190" width="5" height="3" x="47" y="1090.52" fill="#eee" fill-opacity="1" stroke="none" stroke-dasharray="none" stroke-linecap="round" stroke-linejoin="round" stroke-miterlimit="4" stroke-opacity="1" stroke-width="2" opacity="1" ry="0"/><rect id="rect4192" width="3" height="1" x="48" y="1091.52" fill="#37474f" fill-opacity="1" stroke="none" stroke-dasharray="none" stroke-linecap="round" stroke-linejoin="round" stroke-miterlimit="4" stroke-opacity="1" stroke-width="2" opacity="1" ry="0"/><rect id="rect4196" width="9" height="1" x="11" y="1090.52" fill="#37474f" fill-opacity="1" stroke="none" stroke-dasharray="none" stroke-linecap="round" stroke-linejoin="round" stroke-miterlimit="4" stroke-opacity="1" stroke-width=".5" opacity="1"/><rect id="rect4198" width="17" height="1" x="11" y="1092.52" fill="#37474f" fill-opacity="1" stroke="none" stroke-dasharray="none" stroke-linecap="round" stroke-linejoin="round" stroke-miterlimit="4" stroke-opacity="1" stroke-width=".5" opacity="1"/><rect id="rect4230" width="5" height="1" x="9" y="1099.52" fill="#00796b" fill-opacity="1" stroke="none" stroke-dasharray="none" stroke-linecap="round" stroke-linejoin="round" stroke-miterlimit="4" stroke-opacity="1" stroke-width=".5" opacity="1"/><rect id="rect4232" width="17" height="1" x="15" y="1099.52" fill="#00796b" fill-opacity="1" stroke="none" stroke-dasharray="none" stroke-linecap="round" stroke-linejoin="round" stroke-miterlimit="4" stroke-opacity="1" stroke-width=".5" opacity="1"/><rect id="rect4240" width="3" height="1" x="9" y="1101.52" fill="#00796b" fill-opacity="1" stroke="none" stroke-dasharray="none" stroke-linecap="round" stroke-linejoin="round" stroke-miterlimit="4" stroke-opacity="1" stroke-width=".5" opacity="1"/><rect id="rect4244" width="8" height="1" x="13" y="1101.52" fill="#00796b" fill-opacity="1" stroke="none" stroke-dasharray="none" stroke-linecap="round" stroke-linejoin="round" stroke-miterlimit="4" stroke-opacity="1" stroke-width=".5" opacity="1"/><rect id="rect4252" width="2" height="1" x="9" y="1103.52" fill="#00796b" fill-opacity="1" stroke="none" stroke-dasharray="none" stroke-linecap="round" stroke-linejoin="round" stroke-miterlimit="4" stroke-opacity="1" stroke-width=".5" opacity="1"/><rect id="rect4254" width="4" height="1" x="12" y="1103.52" fill="#00796b" fill-opacity="1" stroke="none" stroke-dasharray="none" stroke-linecap="round" stroke-linejoin="round" stroke-miterlimit="4" stroke-opacity="1" stroke-width=".5" opacity="1"/><rect id="rect4256" width="7" height="1" x="17" y="1103.52" fill="#00796b" fill-opacity="1" stroke="none" stroke-dasharray="none" stroke-linecap="round" stroke-linejoin="round" stroke-miterlimit="4" stroke-opacity="1" stroke-width=".5" opacity="1"/><rect id="rect4258" width="10" height="1" x="22" y="1101.52" fill="#00796b" fill-opacity="1" stroke="none" stroke-dasharray="none" stroke-linecap="round" stroke-linejoin="round" stroke-miterlimit="4" stroke-opacity="1" stroke-width=".5" opacity="1"/><rect id="rect4264" width="5" height="1" x="9" y="1105.52" fill="#00796b" fill-opacity="1" stroke="none" stroke-dasharray="none" stroke-linecap="round" stroke-linejoin="round" stroke-miterlimit="4" stroke-opacity="1" stroke-width=".5" opacity="1"/><rect id="rect4266" width="6" height="1" x="15" y="1105.52" fill="#00796b" fill-opacity="1" stroke="none" stroke-dasharray="none" stroke-linecap="round" stroke-linejoin="round" stroke-miterlimit="4" stroke-opacity="1" stroke-width=".5" opacity="1"/><rect id="rect4268" width="10" height="1" x="22" y="1105.52" fill="#00796b" fill-opacity="1" stroke="none" stroke-dasharray="none" stroke-linecap="round" stroke-linejoin="round" stroke-miterlimit="4" stroke-opacity="1" stroke-width=".5" opacity="1"/><rect id="rect4270" width="10" height="1" x="9" y="1109.52" fill="#eee" fill-opacity="1" stroke="none" stroke-dasharray="none" stroke-linecap="round" stroke-linejoin="round" stroke-miterlimit="4" stroke-opacity="1" stroke-width=".5" opacity="1"/><rect id="rect4272" width="4" height="1" x="9" y="1111.52" fill="#eee" fill-opacity="1" stroke="none" stroke-dasharray="none" stroke-linecap="round" stroke-linejoin="round" stroke-miterlimit="4" stroke-opacity="1" stroke-width=".5" opacity="1"/><path id="path4224" fill="url(#radialGradient4236)" fill-opacity="1" stroke="none" d="m 45,1101.5196 c -0.554,0 -1,0.446 -1,1 0,0.554 0.446,1 1,1 0.554,0 1,-0.446 1,-1 0,-0.554 -0.446,-1 -1,-1 z" color="#4d4d4d"/><path id="path4226" fill="url(#radialGradient4244)" fill-opacity="1" stroke="none" d="m 42.5,1105.5196 c -0.831,0 -1.5,0.669 -1.5,1.5 0,0.831 0.669,1.5 1.5,1.5 0.831,0 1.5,-0.669 1.5,-1.5 0,-0.831 -0.669,-1.5 -1.5,-1.5 z" color="#4d4d4d"/><path id="path4228" fill="url(#radialGradient4252)" fill-opacity="1" stroke="none" d="m 47,1109.5196 c -1.108,0 -2,0.892 -2,2 0,1.108 0.892,2 2,2 1.108,0 2,-0.892 2,-2 0,-1.108 -0.892,-2 -2,-2 z" color="#4d4d4d"/><path id="path4267" fill="url(#linearGradient4269)" fill-opacity="1" stroke="none" d="m 53,1102.5195 -2,2 -3,3 2,2 3,-3 2,-2 -2,-2 z" color="#4d4d4d"/><path id="path4354" fill="#eee" fill-opacity="1" stroke="none" d="m 50,1098.5195 -2,2 3,3 -3,3 2,2 3,-3 2,-2 -5,-5 z m -5,2 c -0.554,0 -1,0.446 -1,1 0,0.554 0.446,1 1,1 0.554,0 1,-0.446 1,-1 0,-0.554 -0.446,-1 -1,-1 z m -2.5,4 c -0.831,0 -1.5,0.669 -1.5,1.5 0,0.831 0.669,1.5 1.5,1.5 0.831,0 1.5,-0.669 1.5,-1.5 0,-0.831 -0.669,-1.5 -1.5,-1.5 z m 4.5,4 c -1.108,0 -2,0.892 -2,2 0,1.108 0.892,2 2,2 1.108,0 2,-0.892 2,-2 0,-1.108 -0.892,-2 -2,-2 z" color="#4d4d4d"/><path id="path4220" fill="url(#linearGradient4222)" fill-rule="evenodd" stroke="none" stroke-linecap="butt" stroke-linejoin="miter" stroke-opacity="1" stroke-width="1" d="m 51,1103.5195 2,2 -3,3 c 0,0 -2,-2 -2,-2 z" opacity=".3"/></g></svg>