<svg xmlns="http://www.w3.org/2000/svg" xmlns:svg="http://www.w3.org/2000/svg" xmlns:xlink="http://www.w3.org/1999/xlink" id="svg2" width="64" height="64" version="1.1" viewBox="0 0 64 64"><defs id="defs4"><linearGradient id="Shadow"><stop id="stop4186" offset="0" stop-color="#000" stop-opacity="1"/><stop id="stop4188" offset="1" stop-color="#000" stop-opacity="0"/></linearGradient><radialGradient id="radialGradient4259-4" cx="4" cy="42.5" r="1.5" fx="4" fy="42.5" gradientTransform="matrix(-2.0000003,-2.935184e-6,3.9135795e-6,-2.6666677,21.999835,1228.853)" gradientUnits="userSpaceOnUse" xlink:href="#Shadow"/><linearGradient id="linearGradient4257-1" x1="24" x2="24" y1="42" y2="46" gradientTransform="translate(9.999995,1073.5196)" gradientUnits="userSpaceOnUse" xlink:href="#Shadow"/><radialGradient id="radialGradient4255-6" cx="44" cy="42.5" r="1.5" fx="44" fy="42.5" gradientTransform="matrix(-5.6193702e-6,2.666668,-2.0000002,-4.214526e-6,135.00027,998.1864)" gradientUnits="userSpaceOnUse" xlink:href="#Shadow"/><linearGradient id="linearGradient4170" x1="23" x2="25" y1="26" y2="29" gradientUnits="userSpaceOnUse" xlink:href="#Shadow"/><linearGradient id="linearGradient4180" x1="23" x2="25" y1="26" y2="29" gradientTransform="matrix(-1,0,0,1,52,1058.5196)" gradientUnits="userSpaceOnUse" xlink:href="#Shadow"/></defs><metadata id="metadata7"/><g id="layer1" transform="translate(0,-1058.5196)"><path id="path4249-5" fill="url(#radialGradient4255-6)" fill-opacity="1" stroke="none" stroke-dasharray="none" stroke-linecap="butt" stroke-linejoin="round" stroke-miterlimit="4" stroke-opacity="1" stroke-width="2" d="m 49.999995,1115.5196 0,4 1,0 c 1.108,0 2,-0.892 2,-2 l 0,-2 -3,0 z" opacity=".7"/><path id="path4251-7" fill="url(#linearGradient4257-1)" fill-opacity="1" stroke="none" stroke-dasharray="none" stroke-linecap="butt" stroke-linejoin="round" stroke-miterlimit="4" stroke-opacity="1" stroke-width="2" d="m 14,1115.5196 0,4 36,0 0,-4 z" opacity=".7"/><path id="path4253-6" fill="url(#radialGradient4259-4)" fill-opacity="1" stroke="none" stroke-dasharray="none" stroke-linecap="butt" stroke-linejoin="round" stroke-miterlimit="4" stroke-opacity="1" stroke-width="2" d="m 10.999995,1115.5196 0,2 c 0,1.108 0.892,2 2,2 l 1,0 0,-4 -3,0 z" opacity=".7"/><path id="path4194" fill="#37474f" fill-opacity="1" d="M 17 7 L 17 59 L 50 59 C 51.66197 59 53 57.66197 53 56 L 53 10 C 53 8.3380296 51.66197 7 50 7 L 17 7 z" transform="translate(0,1058.5196)"/><rect id="rect4237" width="40" height="50" x="12" y="1066.52" fill="#546e7a" fill-opacity="1" stroke="none" stroke-dasharray="none" stroke-linecap="round" stroke-linejoin="round" stroke-miterlimit="4" stroke-opacity="1" stroke-width="1" opacity="1" ry="2"/><path display="inline" style="line-height:normal;text-indent:0;text-align:start;text-decoration-line:none;text-decoration-style:solid;text-decoration-color:#000;text-transform:none;block-progression:tb;white-space:normal;isolation:auto;mix-blend-mode:normal;solid-color:#000;solid-opacity:1" id="path4178" fill="url(#linearGradient4180)" fill-opacity="1" fill-rule="evenodd" stroke="none" stroke-dasharray="none" stroke-dashoffset="0" stroke-linecap="round" stroke-linejoin="round" stroke-miterlimit="4" stroke-opacity="1" stroke-width="2" d="m 26,1067.5196 4,0 1,0 0,1 0,20 a 1.0001,1.0001 0 0 1 -1.707031,0.707 L 26,1085.9337 l 0,-18.4141 z" baseline-shift="baseline" clip-rule="nonzero" color="#000" color-interpolation="sRGB" color-interpolation-filters="linearRGB" color-rendering="auto" direction="ltr" enable-background="accumulate" font-family="sans-serif" font-size="medium" font-stretch="normal" font-style="normal" font-variant="normal" font-weight="normal" image-rendering="auto" letter-spacing="normal" opacity="1" overflow="visible" shape-rendering="auto" text-anchor="start" text-decoration="none" text-rendering="auto" visibility="visible" word-spacing="normal" writing-mode="lr-tb"/><path display="inline" style="line-height:normal;text-indent:0;text-align:start;text-decoration-line:none;text-decoration-style:solid;text-decoration-color:#000;text-transform:none;block-progression:tb;white-space:normal;isolation:auto;mix-blend-mode:normal;solid-color:#000;solid-opacity:1" id="path4168" fill="url(#linearGradient4170)" fill-opacity="1" fill-rule="evenodd" stroke="none" stroke-dasharray="none" stroke-dashoffset="0" stroke-linecap="round" stroke-linejoin="round" stroke-miterlimit="4" stroke-opacity="1" stroke-width="2" d="M 26 9 L 22 9 L 21 9 L 21 10 L 21 30 A 1.0001 1.0001 0 0 0 22.707031 30.707031 L 26 27.414062 L 26 9 z" baseline-shift="baseline" clip-rule="nonzero" color="#000" color-interpolation="sRGB" color-interpolation-filters="linearRGB" color-rendering="auto" direction="ltr" enable-background="accumulate" font-family="sans-serif" font-size="medium" font-stretch="normal" font-style="normal" font-variant="normal" font-weight="normal" image-rendering="auto" letter-spacing="normal" opacity="1" overflow="visible" shape-rendering="auto" text-anchor="start" text-decoration="none" text-rendering="auto" transform="translate(0,1058.5196)" visibility="visible" word-spacing="normal" writing-mode="lr-tb"/><path id="path4542" fill="#90a4ae" fill-opacity="1" stroke="none" stroke-linecap="butt" stroke-linejoin="miter" stroke-opacity="1" stroke-width="1" d="m 52.000469,1077.2266 c -1.096939,0.4532 -2.194079,1.0487 -3.291016,1.8281 -1.844633,1.3107 -3.59172,2.9609 -5.242187,4.9512 -1.60192,1.9417 -3.058481,4.1513 -4.369141,6.627 -1.26212,2.4271 -2.208783,4.9509 -2.839844,7.5722 -0.679599,2.6213 -0.970133,5.0246 -0.873046,7.209 0.145626,2.1359 0.606125,3.9324 1.382812,5.3887 0.776693,1.4563 1.843925,2.4998 3.203125,3.1308 1.359207,0.6311 2.962001,0.7517 4.806641,0.3633 1.796086,-0.3883 3.616297,-1.2362 5.460937,-2.5469 0.603814,-0.4335 1.187534,-0.9076 1.761719,-1.4004 l 0,-4.5703 c -0.362065,0.2822 -0.730533,0.5509 -1.105469,0.8008 -1.456293,0.9223 -2.865402,1.456 -4.224609,1.6016 -1.407747,0.1456 -2.595546,-0.098 -3.566406,-0.7285 -0.97086,-0.6311 -1.72384,-1.5778 -2.257813,-2.8399 -0.485433,-1.2621 -0.728515,-2.7661 -0.728515,-4.5137 -1e-6,-1.796 0.290526,-3.7388 0.873046,-5.8261 0.582514,-2.0874 1.408616,-4.0775 2.476563,-5.9707 1.067947,-1.9417 2.232021,-3.6414 3.494141,-5.0977 1.310666,-1.5048 2.670378,-2.7183 4.078124,-3.6406 0.321546,-0.2144 0.641759,-0.4001 0.960938,-0.5742 l 0,-1.7637 z" font-family="Impregnable Personal Use Only" font-size="medium" font-stretch="normal" font-style="normal" font-variant="normal" font-weight="normal" letter-spacing="0" word-spacing="0" style="line-height:125%;-inkscape-font-specification:'Impregnable Personal Use Only'"/><path id="rect3360" fill="#37474f" fill-opacity="1" d="M 14 7 C 12.33803 7 11 8.3380296 11 10 L 11 56 C 11 57.66197 12.33803 59 14 59 L 17 59 L 17 58 L 16 58 L 16 8 L 17 8 L 17 7 L 14 7 z" transform="translate(0,1058.5196)"/><path display="inline" style="line-height:normal;text-indent:0;text-align:start;text-decoration-line:none;text-decoration-style:solid;text-decoration-color:#000;text-transform:none;block-progression:tb;white-space:normal;isolation:auto;mix-blend-mode:normal;solid-color:#000;solid-opacity:1" id="path4209-0" fill="#039be5" fill-opacity="1" fill-rule="evenodd" stroke="none" stroke-dasharray="none" stroke-dashoffset="0" stroke-linecap="round" stroke-linejoin="round" stroke-miterlimit="4" stroke-opacity="1" stroke-width="2" d="m 21,1066.5199 0,1 0,20 a 1.0001,1.0001 0 0 0 1.707031,0.707 L 26,1084.934 l 3.292969,3.2929 A 1.0001,1.0001 0 0 0 31,1087.5199 l 0,-20 0,-1 -1,0 -8,0 -1,0 z" baseline-shift="baseline" clip-rule="nonzero" color="#000" color-interpolation="sRGB" color-interpolation-filters="linearRGB" color-rendering="auto" direction="ltr" enable-background="accumulate" font-family="sans-serif" font-size="medium" font-stretch="normal" font-style="normal" font-variant="normal" font-weight="normal" image-rendering="auto" letter-spacing="normal" opacity="1" overflow="visible" shape-rendering="auto" text-anchor="start" text-decoration="none" text-rendering="auto" visibility="visible" word-spacing="normal" writing-mode="lr-tb"/><path display="inline" style="line-height:normal;text-indent:0;text-align:start;text-decoration-line:none;text-decoration-style:solid;text-decoration-color:#000;text-transform:none;block-progression:tb;white-space:normal;isolation:auto;mix-blend-mode:normal;solid-color:#000;solid-opacity:1" id="path4199-9" fill="#03a9f4" fill-opacity="1" fill-rule="evenodd" stroke="none" stroke-dasharray="none" stroke-dashoffset="0" stroke-linecap="round" stroke-linejoin="round" stroke-miterlimit="4" stroke-opacity="1" stroke-width="2" d="m 22,1067.5199 0,20 1,-1 0,-0.014 2.292969,-2.2929 c 0.39053,-0.3904 1.023532,-0.3904 1.414062,0 L 29,1086.5062 l 0,0.014 1,1 0,-20 -1,0 -6,0 -1,0 z" baseline-shift="baseline" clip-rule="nonzero" color="#000" color-interpolation="sRGB" color-interpolation-filters="linearRGB" color-rendering="auto" direction="ltr" enable-background="accumulate" font-family="sans-serif" font-size="medium" font-stretch="normal" font-style="normal" font-variant="normal" font-weight="normal" image-rendering="auto" letter-spacing="normal" opacity="1" overflow="visible" shape-rendering="auto" text-anchor="start" text-decoration="none" text-rendering="auto" visibility="visible" word-spacing="normal" writing-mode="lr-tb"/><rect id="rect4161" width="1" height="50" x="16" y="1066.52" fill="#37474f" fill-opacity="1" stroke="none" stroke-dasharray="none" stroke-linecap="round" stroke-linejoin="round" stroke-miterlimit="4" stroke-opacity="1" stroke-width="1" opacity="1"/></g></svg>