<svg xmlns="http://www.w3.org/2000/svg" xmlns:svg="http://www.w3.org/2000/svg" xmlns:xlink="http://www.w3.org/1999/xlink" id="svg2" width="64" height="64" version="1.1" viewBox="0 0 64 64"><defs id="defs4"><linearGradient id="Shadow"><stop id="stop4186" offset="0" stop-color="#000" stop-opacity="1"/><stop id="stop4188" offset="1" stop-color="#000" stop-opacity="0"/></linearGradient><radialGradient id="radialGradient4259-4" cx="4" cy="42.5" r="1.5" fx="4" fy="42.5" gradientTransform="matrix(-2.0000003,-2.935184e-6,3.9135795e-6,-2.6666677,15.999835,1228.853)" gradientUnits="userSpaceOnUse" xlink:href="#Shadow"/><linearGradient id="linearGradient4257-1" x1="24" x2="24" y1="42" y2="46" gradientTransform="translate(9.999995,1073.5196)" gradientUnits="userSpaceOnUse" xlink:href="#Shadow"/><radialGradient id="radialGradient4255-6" cx="44" cy="42.5" r="1.5" fx="44" fy="42.5" gradientTransform="matrix(-5.6193702e-6,2.666668,-2.0000002,-4.214526e-6,141.00027,998.1864)" gradientUnits="userSpaceOnUse" xlink:href="#Shadow"/><radialGradient id="radialGradient4176" cx="42" cy="1090.52" r="7" fx="42" fy="1090.52" gradientTransform="matrix(1.4285713,0,0,1.4285713,-20,-465.36518)" gradientUnits="userSpaceOnUse" xlink:href="#Shadow"/></defs><metadata id="metadata7"/><g id="layer1" transform="translate(0,-1058.5196)"><path id="path4249-5" fill="url(#radialGradient4255-6)" fill-opacity="1" stroke="none" stroke-dasharray="none" stroke-linecap="butt" stroke-linejoin="round" stroke-miterlimit="4" stroke-opacity="1" stroke-width="2" d="m 55.999995,1115.5196 0,4 1,0 c 1.108,0 2,-0.892 2,-2 l 0,-2 -3,0 z" opacity=".7"/><path id="path4251-7" fill="url(#linearGradient4257-1)" fill-opacity="1" stroke="none" stroke-dasharray="none" stroke-linecap="butt" stroke-linejoin="round" stroke-miterlimit="4" stroke-opacity="1" stroke-width="2" d="m 8,1115.5196 0,4 48,0 0,-4 z" opacity=".7"/><path id="path4253-6" fill="url(#radialGradient4259-4)" fill-opacity="1" stroke="none" stroke-dasharray="none" stroke-linecap="butt" stroke-linejoin="round" stroke-miterlimit="4" stroke-opacity="1" stroke-width="2" d="m 4.999995,1115.5196 0,2 c 0,1.108 0.892,2 2,2 l 1,0 0,-4 -3,0 z" opacity=".7"/><rect id="rect3360" width="54" height="53" x="5" y="1064.52" fill="#37474f" fill-opacity="1" ry="3"/><rect id="rect3362" width="52" height="51" x="6" y="1065.52" fill="#455a64" fill-opacity="1" ry="2"/><rect id="rect3364" width="34" height="12" x="15" y="1085.519" fill="#4fc3f7" fill-opacity="1" ry="6"/><rect id="rect3366" width="32" height="10" x="16" y="1086.519" fill="#81d4fa" fill-opacity="1" ry="4.986"/><circle id="path3368" cx="40" cy="1092.519" r="10" fill="url(#radialGradient4176)" fill-opacity="1"/><circle id="circle4178" cx="40" cy="1091.519" r="9" fill="#03a9f4" fill-opacity="1"/></g></svg>