<svg xmlns="http://www.w3.org/2000/svg" xmlns:svg="http://www.w3.org/2000/svg" xmlns:xlink="http://www.w3.org/1999/xlink" id="svg2" width="64" height="64" version="1.1" viewBox="0 0 64 64"><defs id="defs4"><linearGradient id="linearGradient4434"><stop id="stop4436" offset="0" stop-color="#000" stop-opacity=".587"/><stop id="stop4438" offset="1" stop-color="#000" stop-opacity="0"/></linearGradient><radialGradient id="radialGradient4207" cx="21" cy="1092.686" r="1" fx="21" fy="1092.686" gradientTransform="matrix(-2,-1.522641e-6,1.5225279e-6,-1.9998514,62.998334,3270.73)" gradientUnits="userSpaceOnUse" xlink:href="#linearGradient4434"/><linearGradient id="linearGradient4217" x1="28" x2="28" y1="1093.52" y2="1095.52" gradientTransform="translate(0,-7.999992)" gradientUnits="userSpaceOnUse" xlink:href="#linearGradient4434"/><linearGradient id="linearGradient4229" x1="38.374" x2="40.054" y1="1093.622" y2="1095.873" gradientTransform="translate(0,-7)" gradientUnits="userSpaceOnUse" xlink:href="#linearGradient4434"/><radialGradient id="radialGradient4432" cx="33.738" cy="41.51" r=".5" fx="33.738" fy="41.51" gradientTransform="matrix(-3.9999921,9.163951e-6,-8.7899131e-6,-3.9999707,169.95091,1256.5586)" gradientUnits="userSpaceOnUse" xlink:href="#linearGradient4434"/><linearGradient id="linearGradient4278" x1="28" x2="28" y1="1093.52" y2="1095.52" gradientTransform="translate(-64.000001,7.000008)" gradientUnits="userSpaceOnUse" xlink:href="#linearGradient4434"/><radialGradient id="radialGradient4280" cx="21" cy="1092.686" r="1" fx="21" fy="1092.686" gradientTransform="matrix(-2,-1.522641e-6,1.5225279e-6,-1.9998514,-1.001667,3285.73)" gradientUnits="userSpaceOnUse" xlink:href="#linearGradient4434"/><radialGradient id="radialGradient4282" cx="33.738" cy="41.51" r=".5" fx="33.738" fy="41.51" gradientTransform="matrix(3.9999921,9.163951e-6,8.7899131e-6,-3.9999707,-105.95091,1271.5586)" gradientUnits="userSpaceOnUse" xlink:href="#linearGradient4434"/><linearGradient id="linearGradient4284" x1="38.374" x2="40.054" y1="1093.622" y2="1095.873" gradientTransform="matrix(-1,0,0,1,64.000001,8)" gradientUnits="userSpaceOnUse" xlink:href="#linearGradient4434"/><radialGradient id="radialGradient4170" cx="32" cy="1093.52" r="25" fx="32" fy="1093.52" gradientTransform="matrix(1.0399999,1.3243208e-5,-1.324321e-5,1.04,-1.2655137,-43.74154)" gradientUnits="userSpaceOnUse" xlink:href="#Shadow"/><linearGradient id="Shadow"><stop id="stop4166" offset="0" stop-color="#000" stop-opacity="1"/><stop id="stop4220" offset=".923" stop-color="#000" stop-opacity=".498"/><stop id="stop4168" offset="1" stop-color="#000" stop-opacity="0"/></linearGradient></defs><metadata id="metadata7"/><g id="layer1" transform="translate(0,-1058.5196)"><circle id="circle4162" cx="32" cy="1093.52" r="26" fill="url(#radialGradient4170)" fill-opacity="1" stroke="none" stroke-opacity="1" opacity="1"/><circle id="path4160" cx="32" cy="1091.519" r="26" fill="#66bb6a" fill-opacity="1" stroke="none" stroke-opacity="1" opacity="1"/><circle id="circle4251" cx="32" cy="-1091.52" r="25" fill="#81c784" fill-opacity="1" stroke="none" stroke-opacity="1" opacity="1" transform="scale(1,-1)"/><rect id="rect4209" width="13" height="3" x="21" y="1084.52" fill="url(#linearGradient4217)" fill-opacity="1" stroke="none" stroke-dasharray="none" stroke-linecap="round" stroke-linejoin="round" stroke-miterlimit="4" stroke-opacity="1" stroke-width="2" opacity="1"/><rect id="rect4193" width="2" height="3" x="19" y="1084.52" fill="url(#radialGradient4207)" fill-opacity="1" stroke="none" stroke-dasharray="none" stroke-linecap="round" stroke-linejoin="round" stroke-miterlimit="4" stroke-opacity="1" stroke-width="2" opacity="1" ry="0"/><path id="path4430" fill="url(#radialGradient4432)" fill-opacity="1" fill-rule="evenodd" stroke="none" stroke-dasharray="none" stroke-dashoffset="0" stroke-linecap="round" stroke-linejoin="round" stroke-miterlimit="4" stroke-opacity="1" stroke-width="2" d="m 34,1089.5196 0,1.998 0,0 c 0.0038,0.5073 0.387928,1.0022 1,1 l 0,-1 0,-1.2617 0,-0.7383 -1,0 z" baseline-shift="baseline" clip-rule="nonzero" color="#000" color-interpolation="sRGB" color-interpolation-filters="linearRGB" color-rendering="auto" direction="ltr" display="inline" enable-background="accumulate" font-family="sans-serif" font-size="medium" font-stretch="normal" font-style="normal" font-variant="normal" font-weight="normal" image-rendering="auto" letter-spacing="normal" opacity="1" overflow="visible" shape-rendering="auto" text-anchor="start" text-decoration="none" text-rendering="auto" visibility="visible" word-spacing="normal" writing-mode="lr-tb" style="line-height:normal;text-indent:0;text-align:start;text-decoration-line:none;text-decoration-style:solid;text-decoration-color:#000;text-transform:none;block-progression:tb;white-space:normal;isolation:auto;mix-blend-mode:normal;solid-color:#000;solid-opacity:1"/><path id="path4219" fill="url(#linearGradient4229)" fill-opacity="1" fill-rule="evenodd" stroke="none" stroke-dasharray="none" stroke-dashoffset="0" stroke-linecap="round" stroke-linejoin="round" stroke-miterlimit="4" stroke-opacity="1" stroke-width="2" d="m 44,1083.5196 a 0.99651976,0.99659913 0 0 0 -0.617188,0.2188 L 35,1090.2579 l 0,2.2617 a 0.99651976,0.99659913 0 0 0 0.638672,-0.2344 l 8.966797,-6.9746 A 0.99651976,0.99659913 0 0 0 44,1083.5196 Z" baseline-shift="baseline" clip-rule="nonzero" color="#000" color-interpolation="sRGB" color-interpolation-filters="linearRGB" color-rendering="auto" direction="ltr" display="inline" enable-background="accumulate" font-family="sans-serif" font-size="medium" font-stretch="normal" font-style="normal" font-variant="normal" font-weight="normal" image-rendering="auto" letter-spacing="normal" opacity="1" overflow="visible" shape-rendering="auto" text-anchor="start" text-decoration="none" text-rendering="auto" visibility="visible" word-spacing="normal" writing-mode="lr-tb" style="line-height:normal;text-indent:0;text-align:start;text-decoration-line:none;text-decoration-style:solid;text-decoration-color:#000;text-transform:none;block-progression:tb;white-space:normal;isolation:auto;mix-blend-mode:normal;solid-color:#000;solid-opacity:1"/><path id="rect4186" fill="#e8f5e9" fill-opacity="1" stroke="none" stroke-dasharray="none" stroke-linecap="round" stroke-linejoin="round" stroke-miterlimit="4" stroke-opacity="1" stroke-width="2" d="m 34.960498,1075.5197 c -0.537005,0.021 -0.961296,0.4626 -0.960938,1 l 0,4 -14,0 c -0.55397,0 -1,0.446 -1,1 l 0,4 c 0,0.5539 0.44603,1 1,1 l 14,0 0,4 c 8.05e-4,0.8312 0.956494,1.2987 1.613281,0.789 l 9.001953,-7 c 0.514196,-0.4003 0.514196,-1.1777 0,-1.5781 l -9.001953,-7 c -0.185814,-0.1449 -0.416802,-0.2196 -0.652343,-0.2109 z" opacity="1"/><rect id="rect4268" width="13" height="3" x="-43" y="1099.519" fill="url(#linearGradient4278)" fill-opacity="1" stroke="none" stroke-dasharray="none" stroke-linecap="round" stroke-linejoin="round" stroke-miterlimit="4" stroke-opacity="1" stroke-width="2" opacity="1" transform="scale(-1,1)"/><rect id="rect4270" width="2" height="3" x="-45" y="1099.519" fill="url(#radialGradient4280)" fill-opacity="1" stroke="none" stroke-dasharray="none" stroke-linecap="round" stroke-linejoin="round" stroke-miterlimit="4" stroke-opacity="1" stroke-width="2" opacity="1" ry="0" transform="scale(-1,1)"/><path display="inline" style="line-height:normal;text-indent:0;text-align:start;text-decoration-line:none;text-decoration-style:solid;text-decoration-color:#000;text-transform:none;block-progression:tb;white-space:normal;isolation:auto;mix-blend-mode:normal;solid-color:#000;solid-opacity:1" id="path4272" fill="url(#radialGradient4282)" fill-opacity="1" fill-rule="evenodd" stroke="none" stroke-dasharray="none" stroke-dashoffset="0" stroke-linecap="round" stroke-linejoin="round" stroke-miterlimit="4" stroke-opacity="1" stroke-width="2" d="m 30.000001,1104.5196 0,1.998 0,0 c -0.0038,0.5073 -0.387928,1.0022 -1,1 l 0,-1 0,-1.2617 0,-0.7383 1,0 z" baseline-shift="baseline" clip-rule="nonzero" color="#000" color-interpolation="sRGB" color-interpolation-filters="linearRGB" color-rendering="auto" direction="ltr" enable-background="accumulate" font-family="sans-serif" font-size="medium" font-stretch="normal" font-style="normal" font-variant="normal" font-weight="normal" image-rendering="auto" letter-spacing="normal" opacity="1" overflow="visible" shape-rendering="auto" text-anchor="start" text-decoration="none" text-rendering="auto" visibility="visible" word-spacing="normal" writing-mode="lr-tb"/><path display="inline" style="line-height:normal;text-indent:0;text-align:start;text-decoration-line:none;text-decoration-style:solid;text-decoration-color:#000;text-transform:none;block-progression:tb;white-space:normal;isolation:auto;mix-blend-mode:normal;solid-color:#000;solid-opacity:1" id="path4274" fill="url(#linearGradient4284)" fill-opacity="1" fill-rule="evenodd" stroke="none" stroke-dasharray="none" stroke-dashoffset="0" stroke-linecap="round" stroke-linejoin="round" stroke-miterlimit="4" stroke-opacity="1" stroke-width="2" d="m 20.000001,1098.5196 a 0.99651976,0.99659913 0 0 1 0.617188,0.2188 l 8.382812,6.5195 0,2.2617 a 0.99651976,0.99659913 0 0 1 -0.638672,-0.2344 l -8.966797,-6.9746 a 0.99651976,0.99659913 0 0 1 0.605469,-1.791 z" baseline-shift="baseline" clip-rule="nonzero" color="#000" color-interpolation="sRGB" color-interpolation-filters="linearRGB" color-rendering="auto" direction="ltr" enable-background="accumulate" font-family="sans-serif" font-size="medium" font-stretch="normal" font-style="normal" font-variant="normal" font-weight="normal" image-rendering="auto" letter-spacing="normal" opacity="1" overflow="visible" shape-rendering="auto" text-anchor="start" text-decoration="none" text-rendering="auto" visibility="visible" word-spacing="normal" writing-mode="lr-tb"/><path id="path4276" fill="#e8f5e9" fill-opacity="1" stroke="none" stroke-dasharray="none" stroke-linecap="round" stroke-linejoin="round" stroke-miterlimit="4" stroke-opacity="1" stroke-width="2" d="m 29.039503,1090.5197 c 0.537005,0.021 0.961296,0.4626 0.960938,1 l 0,4 14,0 c 0.55397,0 1,0.446 1,1 l 0,4 c 0,0.5539 -0.44603,1 -1,1 l -14,0 0,4 c -8.05e-4,0.8312 -0.956494,1.2987 -1.613281,0.789 l -9.001953,-7 c -0.514196,-0.4003 -0.514196,-1.1777 0,-1.5781 l 9.001953,-7 c 0.185814,-0.1449 0.416802,-0.2196 0.652343,-0.2109 z" opacity="1"/></g></svg>