<svg xmlns="http://www.w3.org/2000/svg" xmlns:svg="http://www.w3.org/2000/svg" xmlns:xlink="http://www.w3.org/1999/xlink" id="svg2" width="64" height="64" version="1.1" viewBox="0 0 64 64"><defs id="defs4"><linearGradient id="linearGradient4192"><stop id="stop4194" offset="0" stop-color="#000" stop-opacity="1"/><stop id="stop4196" offset="1" stop-color="#000" stop-opacity="0"/></linearGradient><linearGradient id="linearGradient4202" x1="33" x2="33" y1="34" y2="37" gradientUnits="userSpaceOnUse" xlink:href="#linearGradient4192"/><radialGradient id="radialGradient4204" cx="41.5" cy="35.167" r="1" fx="41.5" fy="35.167" gradientTransform="matrix(1.7293317e-6,2.999998,-1.9999951,1.1528856e-6,112.3331,-90.499957)" gradientUnits="userSpaceOnUse" xlink:href="#linearGradient4192"/><radialGradient id="radialGradient4206" cx="20" cy="36.5" r="1" fx="20" fy="36.5" gradientTransform="matrix(-2,0,0,-3,62,143.5)" gradientUnits="userSpaceOnUse" xlink:href="#linearGradient4192"/><radialGradient id="radialGradient4170" cx="32" cy="1093.52" r="25" fx="32" fy="1093.52" gradientTransform="matrix(1.0399999,1.3243208e-5,-1.324321e-5,1.04,-1.2655137,-43.7415)" gradientUnits="userSpaceOnUse" xlink:href="#Shadow"/><linearGradient id="Shadow"><stop id="stop4166" offset="0" stop-color="#000" stop-opacity="1"/><stop id="stop4220" offset=".923" stop-color="#000" stop-opacity=".498"/><stop id="stop4168" offset="1" stop-color="#000" stop-opacity="0"/></linearGradient></defs><metadata id="metadata7"/><g id="layer1" transform="translate(0,-1058.5196)"><circle id="circle4162" cx="32" cy="1093.52" r="26" fill="url(#radialGradient4170)" fill-opacity="1" stroke="none" stroke-opacity="1" opacity="1"/><circle id="path4160" cx="32" cy="1091.519" r="26" fill="#5c6bc0" fill-opacity="1" stroke="none" stroke-opacity="1" opacity="1"/><circle id="circle4251" cx="32" cy="1091.52" r="25" fill="#7986cb" fill-opacity="1" stroke="none" stroke-opacity="1" opacity="1"/><path id="path4184" fill="url(#radialGradient4204)" fill-opacity="1" stroke="none" stroke-dasharray="none" stroke-linecap="round" stroke-linejoin="round" stroke-miterlimit="4" stroke-opacity="1" stroke-width="2" d="M 42 34 L 42 37 L 43 37 C 43.55397 37 44 36.55397 44 36 L 44 34 L 42 34 z" opacity="1" transform="translate(0,1058.5196)"/><path id="path4182" fill="url(#radialGradient4206)" fill-opacity="1" stroke="none" stroke-dasharray="none" stroke-linecap="round" stroke-linejoin="round" stroke-miterlimit="4" stroke-opacity="1" stroke-width="2" d="M 22 34 L 20 34 L 20 36 C 20 36.55397 20.44603 37 21 37 L 22 37 L 22 34 z" opacity="1" transform="translate(0,1058.5196)"/><path id="rect4169" fill="url(#linearGradient4202)" fill-opacity="1" stroke="none" stroke-dasharray="none" stroke-linecap="round" stroke-linejoin="round" stroke-miterlimit="4" stroke-opacity="1" stroke-width="2" d="M 22 34 L 22 37 L 42 37 L 42 34 L 22 34 z" opacity="1" transform="translate(0,1058.5196)"/><rect id="rect4165" width="6" height="24" x="-1094.52" y="-44" fill="#e8eaf6" fill-opacity="1" stroke="none" stroke-dasharray="none" stroke-linecap="round" stroke-linejoin="round" stroke-miterlimit="4" stroke-opacity="1" stroke-width="2" opacity="1" ry="1" transform="matrix(0,-1,-1,0,0,0)"/></g></svg>