<svg xmlns="http://www.w3.org/2000/svg" xmlns:svg="http://www.w3.org/2000/svg" xmlns:xlink="http://www.w3.org/1999/xlink" id="svg2" width="64" height="64" version="1.1" viewBox="0 0 64 64"><defs id="defs4"><linearGradient id="linearGradient4291"><stop id="stop4293" offset="0" stop-color="#000" stop-opacity=".31"/><stop id="stop4297" offset="1" stop-color="#000" stop-opacity="0"/></linearGradient><linearGradient id="linearGradient4319"><stop id="stop4321" offset="0" stop-color="#000" stop-opacity="1"/><stop id="stop4323" offset="1" stop-color="#000" stop-opacity="0"/></linearGradient><linearGradient id="linearGradient4303"><stop id="stop4305" offset="0" stop-color="#000" stop-opacity="1"/><stop id="stop4307" offset=".25" stop-color="#000" stop-opacity=".498"/><stop id="stop4309" offset="1" stop-color="#000" stop-opacity="0"/></linearGradient><linearGradient id="Shadow"><stop id="stop4166" offset="0" stop-color="#000" stop-opacity="1"/><stop id="stop4220" offset=".833" stop-color="#000" stop-opacity=".498"/><stop id="stop4168" offset="1" stop-color="#000" stop-opacity="0"/></linearGradient><radialGradient id="radialGradient4285" cx="32" cy="1092.52" r="15" fx="32" fy="1092.52" gradientTransform="translate(60,0)" gradientUnits="userSpaceOnUse" xlink:href="#Shadow"/><radialGradient id="radialGradient4301" cx="26.714" cy="1103.52" r="15" fx="26.714" fy="1103.52" gradientTransform="matrix(1.9112776e-6,1.0666666,-1.0000032,1.7947916e-6,1180.523,1049.0223)" gradientUnits="userSpaceOnUse" xlink:href="#linearGradient4303"/><linearGradient id="linearGradient4325" x1="41.188" x2="40.75" y1="1083.645" y2="1087.051" gradientTransform="translate(60,0)" gradientUnits="userSpaceOnUse" xlink:href="#linearGradient4319"/><linearGradient id="linearGradient4289" x1="749.476" x2="751.871" y1="-781.788" y2="-781.871" gradientUnits="userSpaceOnUse" xlink:href="#linearGradient4291"/><linearGradient id="linearGradient4299" x1="1092.52" x2="1094.52" y1="-19" y2="-19" gradientUnits="userSpaceOnUse" xlink:href="#linearGradient4291"/><linearGradient id="linearGradient4301" x1="795.062" x2="797.156" y1="762.901" y2="762.901" gradientUnits="userSpaceOnUse" xlink:href="#linearGradient4291"/><linearGradient id="linearGradient4304" x1="32" x2="32" y1="1107.52" y2="1109.52" gradientUnits="userSpaceOnUse" xlink:href="#linearGradient4291"/><linearGradient id="linearGradient4314" x1="32" x2="32" y1="1107.52" y2="1109.52" gradientTransform="translate(-63.999998,-26)" gradientUnits="userSpaceOnUse" xlink:href="#linearGradient4291"/><linearGradient id="linearGradient4316" x1="1092.52" x2="1094.52" y1="-19" y2="-19" gradientTransform="translate(0,63.999998)" gradientUnits="userSpaceOnUse" xlink:href="#linearGradient4291"/><linearGradient id="linearGradient4318" x1="749.476" x2="751.871" y1="-781.788" y2="-781.871" gradientTransform="translate(45.254833,45.254833)" gradientUnits="userSpaceOnUse" xlink:href="#linearGradient4291"/><linearGradient id="linearGradient4320" x1="795.062" x2="797.156" y1="762.901" y2="762.901" gradientTransform="translate(-45.254833,45.254833)" gradientUnits="userSpaceOnUse" xlink:href="#linearGradient4291"/><radialGradient id="radialGradient4170-7" cx="32" cy="1093.52" r="25" fx="32" fy="1093.52" gradientTransform="matrix(1.0399999,1.3243208e-5,-1.324321e-5,1.04,-1.2655137,-43.741469)" gradientUnits="userSpaceOnUse" xlink:href="#Shadow-6"/><linearGradient id="Shadow-6"><stop id="stop4166-6" offset="0" stop-color="#000" stop-opacity="1"/><stop id="stop4220-4" offset=".923" stop-color="#000" stop-opacity=".498"/><stop id="stop4168-3" offset="1" stop-color="#000" stop-opacity="0"/></linearGradient></defs><metadata id="metadata7"/><g id="layer1" transform="translate(0,-1058.5196)"><circle id="circle4162-9" cx="32" cy="1093.52" r="26" fill="url(#radialGradient4170-7)" fill-opacity="1" stroke="none" stroke-opacity="1" opacity="1"/><path id="path4324" fill="#000" fill-opacity=".31" stroke="none" stroke-dasharray="none" stroke-linecap="round" stroke-linejoin="round" stroke-miterlimit="4" stroke-opacity="1" stroke-width="2" d="M 92 21 A 12 12 0 0 0 80 33 A 12 12 0 0 0 92 45 A 12 12 0 0 0 100.48047 41.480469 L 99.773438 40.773438 A 11 11 0 0 1 92 44 A 11 11 0 0 1 81 33 A 11 11 0 0 1 92 22 A 11 11 0 0 1 99.773438 25.226562 L 100.48047 24.519531 A 12 12 0 0 0 92 21 z" opacity="1" transform="translate(0,1058.5196)"/><circle id="path4160" cx="32" cy="1091.519" r="26" fill="#26c6da" fill-opacity="1" stroke="none" stroke-opacity="1" opacity="1"/><circle id="circle4251" cx="32" cy="-1091.52" r="25" fill="#4dd0e1" fill-opacity="1" stroke="none" stroke-opacity="1" opacity="1" transform="scale(1,-1)"/><path id="path4299" fill="url(#radialGradient4285)" fill-opacity="1" stroke="none" stroke-dasharray="none" stroke-linecap="butt" stroke-linejoin="round" stroke-miterlimit="4.1" stroke-opacity="1" stroke-width="2" d="m 80,1092.5196 -3,0 a 15,14.999825 0 0 0 15,15 15,14.999825 0 0 0 10.59961,-4.4004 l -0.082,-0.082 a 1.5,1.5 0 0 0 0.48242,-1.0977 1.5,1.5 0 0 0 -1.5,-1.5 1.5,1.5 0 0 0 -1.35937,0.8672 12,11.999859 0 0 1 -8.14063,3.2129 12,11.999859 0 0 1 -12,-12 z" opacity="1"/><path id="path4272" fill="url(#radialGradient4301)" fill-opacity="1" stroke="none" stroke-dasharray="none" stroke-linecap="butt" stroke-linejoin="round" stroke-miterlimit="4.1" stroke-opacity="1" stroke-width="2" d="m 92,1077.5196 a 15,14.999825 0 0 0 -15,15 l 3,0 a 12,11.999859 0 0 1 0.06055,-1.1973 A 12,11.999859 0 0 1 92,1080.5196 a 12,11.999859 0 0 1 8.48047,3.5195 l 2.11914,-2.1191 A 15,14.999825 0 0 0 92,1077.5196 Z" opacity="1"/><path id="path4317" fill="url(#linearGradient4325)" fill-opacity="1" fill-rule="evenodd" stroke="none" stroke-dasharray="none" stroke-dashoffset="0" stroke-linecap="butt" stroke-linejoin="round" stroke-miterlimit="4" stroke-opacity="1" stroke-width="2" d="m 102.95084,1076.5208 c -0.24789,0.012 -0.48248,0.1157 -0.65817,0.291 l -6.999374,8.0012 c -0.594934,0.5966 -0.230817,1.6167 0.607388,1.7015 l 7.999096,1.0001 c 0.67738,0.068 1.22308,-0.5464 1.07612,-1.2112 l -0.99973,-9.0013 c -0.106,-0.4754 -0.53895,-0.8053 -1.02533,-0.7813 z" baseline-shift="baseline" clip-rule="nonzero" color="#000" color-interpolation="sRGB" color-interpolation-filters="linearRGB" color-rendering="auto" direction="ltr" display="inline" enable-background="accumulate" font-family="sans-serif" font-size="medium" font-stretch="normal" font-style="normal" font-variant="normal" font-weight="normal" image-rendering="auto" letter-spacing="normal" opacity="1" overflow="visible" shape-rendering="auto" text-anchor="start" text-decoration="none" text-rendering="auto" visibility="visible" word-spacing="normal" writing-mode="lr-tb" style="line-height:normal;text-indent:0;text-align:start;text-decoration-line:none;text-decoration-style:solid;text-decoration-color:#000;text-transform:none;block-progression:tb;white-space:normal;isolation:auto;mix-blend-mode:normal;solid-color:#000;solid-opacity:1"/><path id="path4202" fill="#e0f7fa" fill-opacity="1" stroke="none" stroke-dasharray="none" stroke-linecap="round" stroke-linejoin="round" stroke-miterlimit="4" stroke-opacity="1" stroke-width="2" d="m 92,1106.52 a 15,14.999912 0 0 1 -15,-15 15,14.999912 0 0 1 15,-15 15,14.999912 0 0 1 7.753906,2.1894 l 2.494144,-2.8477 c 0.57245,-0.6535 1.64863,-0.3163 1.74609,0.5469 l 1,8.9981 c 0.0674,0.6006 -0.40933,1.1233 -1.01367,1.1113 l 0,0 c -0.0353,0 -0.0705,2e-4 -0.10547,-0.01 l -8,-1 c -0.794301,-0.1008 -1.153978,-1.0477 -0.626953,-1.6504 L 97.75,1081.0004 A 12,12 0 0 0 92,1079.52 a 12,12 0 0 0 -12,12 12,12 0 0 0 12,12 12,12 0 0 0 8.48047,-3.5196 l 0.002,0 A 1.5,1.5 0 0 1 101.5,1099.6 a 1.5,1.5 0 0 1 1.5,1.5 1.5,1.5 0 0 1 -0.40039,1.0196 15,14.999912 0 0 1 -0.006,0.01 1.5,1.5 0 0 1 -0.17773,0.1602 A 15,14.999912 0 0 1 92,1106.52 Z m 0,-2 A 13,13 0 0 1 90.904297,1104.465 13,12.999847 0 0 0 92,1104.52 Z m 1.197266,-0.061 a 13,12.999847 0 0 0 0.65625,-0.09 13,13 0 0 1 -0.65625,0.09 z m -2.962891,-0.076 a 13,13 0 0 1 -0.630859,-0.096 13,12.999847 0 0 0 0.630859,0.096 z m 4.253906,-0.1113 a 13,12.999847 0 0 0 0.603516,-0.1445 13,13 0 0 1 -0.603516,0.1445 z m -5.52539,-0.1269 a 13,13 0 0 1 -0.611329,-0.1563 13,12.999847 0 0 0 0.611329,0.1563 z m 6.791015,-0.1856 a 13,12.999847 0 0 0 0.666016,-0.2344 13,13 0 0 1 -0.666016,0.2344 z m -8.039062,-0.1816 a 13,13 0 0 1 -0.597656,-0.2168 13,12.999847 0 0 0 0.597656,0.2168 z m 9.236328,-0.2461 a 13,12.999847 0 0 0 0.626953,-0.291 13,13 0 0 1 -0.626953,0.291 z m -10.429688,-0.2383 a 13,13 0 0 1 -0.585937,-0.2852 13,12.999847 0 0 0 0.585937,0.2852 z m 11.634766,-0.334 a 13,12.999847 0 0 0 0.490234,-0.291 13,13 0 0 1 -0.490234,0.291 z m -12.761719,-0.2598 a 13,13 0 0 1 -0.582031,-0.3574 13,12.999847 0 0 0 0.582031,0.3574 z m 13.869141,-0.4082 a 13,12.999847 0 0 0 0.490234,-0.3632 13,13 0 0 1 -0.490234,0.3632 z m -14.960938,-0.3144 a 13,13 0 0 1 -0.521484,-0.3945 13,12.999847 0 0 0 0.521484,0.3945 z m -1.023437,-0.836 a 13,13 0 0 1 -0.466797,-0.4335 13,12.999847 0 0 0 0.466797,0.4335 z m -0.900391,-0.9003 a 13,13 0 0 1 -0.441406,-0.502 13,12.999847 0 0 0 0.441406,0.502 z m -0.835937,-1.0235 a 13,13 0 0 1 -0.365235,-0.5097 13,12.999847 0 0 0 0.365235,0.5097 z m -0.722657,-1.0918 a 13,13 0 0 1 -0.308593,-0.541 13,12.999847 0 0 0 0.308593,0.541 z m -0.59375,-1.1269 a 13,13 0 0 1 -0.267578,-0.5957 13,12.999847 0 0 0 0.267578,0.5957 z m -0.482421,-1.1875 a 13,13 0 0 1 -0.214844,-0.6504 13,12.999847 0 0 0 0.214844,0.6504 z m -0.367188,-1.2442 a 13,13 0 0 1 -0.146484,-0.6504 13,12.999847 0 0 0 0.146484,0.6504 z m -0.240234,-1.2812 a 13,13 0 0 1 -0.08203,-0.6699 13,12.999847 0 0 0 0.08203,0.6699 z M 79,1091.52 a 13,13 0 0 1 0.05469,-1.0958 A 13,12.999847 0 0 0 79,1091.52 Z m 0.136719,-1.7657 a 13,13 0 0 1 0.0957,-0.6308 13,12.999847 0 0 0 -0.0957,0.6308 z m 0.238281,-1.2715 a 13,13 0 0 1 0.15625,-0.6113 13,12.999847 0 0 0 -0.15625,0.6113 z m 0.367188,-1.248 a 13,13 0 0 1 0.216796,-0.5977 13,12.999847 0 0 0 -0.216796,0.5977 z m 0.484374,-1.1934 a 13,13 0 0 1 0.285157,-0.5859 13,12.999847 0 0 0 -0.285157,0.5859 z m 0.59375,-1.1269 a 13,13 0 0 1 0.357422,-0.582 13,12.999847 0 0 0 -0.357422,0.582 z m 0.722657,-1.0918 a 13,13 0 0 1 0.394531,-0.5215 13,12.999847 0 0 0 -0.394531,0.5215 z m 0.835937,-1.0235 a 13,13 0 0 1 0.433594,-0.4667 13,12.999847 0 0 0 -0.433594,0.4667 z m 0.900391,-0.9003 a 13,13 0 0 1 0.501953,-0.4414 13,12.999847 0 0 0 -0.501953,0.4414 z m 1.023437,-0.836 a 13,13 0 0 1 0.509766,-0.3652 13,12.999847 0 0 0 -0.509766,0.3652 z m 1.091797,-0.7226 a 13,13 0 0 1 0.541016,-0.3086 13,12.999847 0 0 0 -0.541016,0.3086 z m 12.761719,-0.2598 a 13,12.999847 0 0 0 -0.578125,-0.2813 13,13 0 0 1 0.578125,0.2813 z m -11.634766,-0.334 a 13,13 0 0 1 0.595704,-0.2676 13,12.999847 0 0 0 -0.595704,0.2676 z m 10.429688,-0.2383 a 13,12.999847 0 0 0 -0.53125,-0.1933 13,13 0 0 1 0.53125,0.1933 z m -9.242188,-0.2441 a 13,13 0 0 1 0.650391,-0.2149 13,12.999847 0 0 0 -0.650391,0.2149 z m 8.044922,-0.1836 a 13,12.999847 0 0 0 -0.662109,-0.168 13,13 0 0 1 0.662109,0.168 z m -6.800781,-0.1836 a 13,13 0 0 1 0.650391,-0.1465 13,12.999847 0 0 0 -0.650391,0.1465 z m 5.535156,-0.1289 a 13,12.999847 0 0 0 -0.634765,-0.098 13,13 0 0 1 0.634765,0.098 z m -4.253906,-0.1113 a 13,13 0 0 1 0.669922,-0.082 13,12.999847 0 0 0 -0.669922,0.082 z m 2.962891,-0.076 A 13,12.999847 0 0 0 92,1078.52 a 13,13 0 0 1 1.197266,0.061 z" opacity="1"/><rect id="rect4306" width="4" height="8" x="-34" y="1075.52" fill="url(#linearGradient4314)" fill-opacity="1" stroke="none" stroke-dasharray="none" stroke-linecap="round" stroke-linejoin="round" stroke-miterlimit="4" stroke-opacity="1" stroke-width="2" opacity="1" ry="2" transform="scale(-1,1)"/><rect id="rect4212" width="4" height="8" x="30" y="1074.52" fill="#e0f7fa" fill-opacity="1" stroke="none" stroke-dasharray="none" stroke-linecap="round" stroke-linejoin="round" stroke-miterlimit="4" stroke-opacity="1" stroke-width="2" opacity="1" ry="2"/><rect id="rect4253" width="4" height="8" x="30" y="1101.52" fill="url(#linearGradient4304)" fill-opacity="1" stroke="none" stroke-dasharray="none" stroke-linecap="round" stroke-linejoin="round" stroke-miterlimit="4" stroke-opacity="1" stroke-width="2" opacity="1" ry="2"/><rect id="rect4214" width="4" height="8" x="30" y="1100.52" fill="#e0f7fa" fill-opacity="1" stroke="none" stroke-dasharray="none" stroke-linecap="round" stroke-linejoin="round" stroke-miterlimit="4" stroke-opacity="1" stroke-width="2" opacity="1" ry="2"/><rect id="rect4308" width="4" height="8" x="1090.52" y="41" fill="url(#linearGradient4316)" fill-opacity="1" stroke="none" stroke-dasharray="none" stroke-linecap="round" stroke-linejoin="round" stroke-miterlimit="4" stroke-opacity="1" stroke-width="2" opacity="1" ry="2" transform="matrix(0,1,1,0,0,0)"/><rect id="rect4216" width="4" height="8" x="1089.52" y="-49" fill="#e0f7fa" fill-opacity="1" stroke="none" stroke-dasharray="none" stroke-linecap="round" stroke-linejoin="round" stroke-miterlimit="4" stroke-opacity="1" stroke-width="2" opacity="1" ry="2" transform="matrix(0,1,-1,0,0,0)"/><rect id="rect4257" width="4" height="8" x="1090.52" y="-23" fill="url(#linearGradient4299)" fill-opacity="1" stroke="none" stroke-dasharray="none" stroke-linecap="round" stroke-linejoin="round" stroke-miterlimit="4" stroke-opacity="1" stroke-width="2" opacity="1" ry="2" transform="matrix(0,1,-1,0,0,0)"/><rect id="rect4218" width="4" height="8" x="1089.52" y="-23" fill="#e0f7fa" fill-opacity="1" stroke="none" stroke-dasharray="none" stroke-linecap="round" stroke-linejoin="round" stroke-miterlimit="4" stroke-opacity="1" stroke-width="2" opacity="1" ry="2" transform="matrix(0,1,-1,0,0,0)"/><rect id="rect4312" width="4" height="8" x="747.901" y="804.155" fill="url(#linearGradient4320)" fill-opacity="1" stroke="none" stroke-dasharray="none" stroke-linecap="round" stroke-linejoin="round" stroke-miterlimit="4" stroke-opacity="1" stroke-width="2" opacity="1" ry="2" transform="matrix(-0.70710678,0.70710678,0.70710678,0.70710678,0,0)"/><rect id="rect4220" width="4" height="8" x="747.194" y="-811.448" fill="#e0f7fa" fill-opacity="1" stroke="none" stroke-dasharray="none" stroke-linecap="round" stroke-linejoin="round" stroke-miterlimit="4" stroke-opacity="1" stroke-width="2" opacity="1" ry="2" transform="matrix(-0.70710678,0.70710678,-0.70710678,-0.70710678,0,0)"/><rect id="rect4261" width="4" height="8" x="747.901" y="-786.156" fill="url(#linearGradient4289)" fill-opacity="1" stroke="none" stroke-dasharray="none" stroke-linecap="round" stroke-linejoin="round" stroke-miterlimit="4" stroke-opacity="1" stroke-width="2" opacity="1" ry="2" transform="matrix(-0.70710678,0.70710678,-0.70710678,-0.70710678,0,0)"/><rect id="rect4222" width="4" height="8" x="747.194" y="-785.448" fill="#e0f7fa" fill-opacity="1" stroke="none" stroke-dasharray="none" stroke-linecap="round" stroke-linejoin="round" stroke-miterlimit="4" stroke-opacity="1" stroke-width="2" opacity="1" ry="2" transform="matrix(-0.70710678,0.70710678,-0.70710678,-0.70710678,0,0)"/><rect id="rect4310" width="4" height="8" x="793.155" y="-740.901" fill="url(#linearGradient4318)" fill-opacity="1" stroke="none" stroke-dasharray="none" stroke-linecap="round" stroke-linejoin="round" stroke-miterlimit="4" stroke-opacity="1" stroke-width="2" opacity="1" ry="2" transform="matrix(0.70710678,0.70710678,0.70710678,-0.70710678,0,0)"/><rect id="rect4224" width="4" height="8" x="792.448" y="732.194" fill="#e0f7fa" fill-opacity="1" stroke="none" stroke-dasharray="none" stroke-linecap="round" stroke-linejoin="round" stroke-miterlimit="4" stroke-opacity="1" stroke-width="2" opacity="1" ry="2" transform="matrix(0.70710678,0.70710678,-0.70710678,0.70710678,0,0)"/><rect id="rect4265" width="4" height="8" x="793.156" y="758.901" fill="url(#linearGradient4301)" fill-opacity="1" stroke="none" stroke-dasharray="none" stroke-linecap="round" stroke-linejoin="round" stroke-miterlimit="4" stroke-opacity="1" stroke-width="2" opacity="1" ry="2" transform="matrix(0.70710678,0.70710678,-0.70710678,0.70710678,0,0)"/><rect id="rect4226" width="4" height="8" x="792.448" y="758.194" fill="#e0f7fa" fill-opacity="1" stroke="none" stroke-dasharray="none" stroke-linecap="round" stroke-linejoin="round" stroke-miterlimit="4" stroke-opacity="1" stroke-width="2" opacity="1" ry="2" transform="matrix(0.70710678,0.70710678,-0.70710678,0.70710678,0,0)"/></g></svg>