<svg xmlns="http://www.w3.org/2000/svg" xmlns:svg="http://www.w3.org/2000/svg" xmlns:xlink="http://www.w3.org/1999/xlink" id="svg2" width="64" height="64" version="1.1" viewBox="0 0 64 64"><defs id="defs4"><linearGradient id="Shadow"><stop id="stop4186" offset="0" stop-color="#000" stop-opacity="1"/><stop id="stop4188" offset="1" stop-color="#000" stop-opacity="0"/></linearGradient><radialGradient id="radialGradient4259-4" cx="4" cy="42.5" r="1.5" fx="4" fy="42.5" gradientTransform="matrix(-2.0000003,-2.935184e-6,3.9135795e-6,-2.6666677,12.999835,1228.853)" gradientUnits="userSpaceOnUse" xlink:href="#Shadow"/><linearGradient id="linearGradient4257-1" x1="24" x2="24" y1="42" y2="46" gradientTransform="translate(9.999995,1073.5196)" gradientUnits="userSpaceOnUse" xlink:href="#Shadow"/><radialGradient id="radialGradient4255-6" cx="44" cy="42.5" r="1.5" fx="44" fy="42.5" gradientTransform="matrix(-5.6193702e-6,2.666668,-2.0000002,-4.214526e-6,144.00027,998.1864)" gradientUnits="userSpaceOnUse" xlink:href="#Shadow"/></defs><metadata id="metadata7"/><g id="layer1" transform="translate(0,-1058.5196)"><path id="path4249-5" fill="url(#radialGradient4255-6)" fill-opacity="1" stroke="none" stroke-dasharray="none" stroke-linecap="butt" stroke-linejoin="round" stroke-miterlimit="4" stroke-opacity="1" stroke-width="2" d="m 58.999995,1115.5196 0,4 1,0 c 1.108,0 2,-0.892 2,-2 l 0,-2 -3,0 z" opacity=".7"/><path id="path4251-7" fill="url(#linearGradient4257-1)" fill-opacity="1" stroke="none" stroke-dasharray="none" stroke-linecap="butt" stroke-linejoin="round" stroke-miterlimit="4" stroke-opacity="1" stroke-width="2" d="m 4.999995,1115.5196 0,4 54,0 0,-4 z" opacity=".7"/><path id="path4253-6" fill="url(#radialGradient4259-4)" fill-opacity="1" stroke="none" stroke-dasharray="none" stroke-linecap="butt" stroke-linejoin="round" stroke-miterlimit="4" stroke-opacity="1" stroke-width="2" d="m 1.999995,1115.5196 0,2 c 0,1.108 0.892,2 2,2 l 1,0 0,-4 -3,0 z" opacity=".7"/><path id="rect4194-5" fill="#ebb10f" fill-opacity="1" stroke="none" stroke-dasharray="none" stroke-linecap="butt" stroke-linejoin="round" stroke-miterlimit="4" stroke-opacity="1" stroke-width="2" d="m 6.999945,1071.5197 52.00009,0 c 1.66196,0 2.99995,1.3379 2.99995,2.9999 l 0,36 c 0,1.662 -1.33799,2.9999 -2.99995,2.9999 l -52.00009,0 c -1.66197,0 -2.99995,-1.3379 -2.99995,-2.9999 l 0,-36 c 0,-1.662 1.33798,-2.9999 2.99995,-2.9999 z" opacity="1"/><path id="rect4207-2" fill="#e8e5dc" fill-opacity="1" stroke="none" stroke-dasharray="none" stroke-linecap="butt" stroke-linejoin="round" stroke-miterlimit="4" stroke-opacity="1" stroke-width="2" d="m 33.999985,1073.5196 24,0 c 1.108,0 2,0.892 2,2 l 0,3 c 0,1.108 -0.892,2 -2,2 l -24,0 c -1.108,0 -2,-0.892 -2,-2 l 0,-3 c 0,-1.108 0.892,-2 2,-2 z" opacity="1"/><path id="rect4209-1" fill="#fffbec" fill-opacity="1" stroke="none" stroke-dasharray="none" stroke-linecap="butt" stroke-linejoin="round" stroke-miterlimit="4" stroke-opacity="1" stroke-width="2" d="m 32.999985,1074.5196 25,0 c 0.55401,0 1,0.446 1,1 l 0,4 c 0,0.554 -0.44599,1 -1,1 l -25,0 c -0.55399,0 -1,-0.446 -1,-1 l 0,-4 c 0,-0.554 0.44601,-1 1,-1 z" opacity="1"/><path id="path4220-9" fill="#f3c749" fill-opacity="1" stroke="none" stroke-dasharray="none" stroke-linecap="butt" stroke-linejoin="round" stroke-miterlimit="4" stroke-opacity="1" stroke-width="2" d="m 31.999995,1077.5196 0,40 27.00001,0 c 1.66197,0 3,-1.338 3,-3 l 0,-34 c 0,-1.662 -1.33803,-3 -3,-3 z" opacity="1"/><path id="path4213-1" fill="#f3c749" fill-opacity="1" stroke="none" stroke-dasharray="none" stroke-linecap="butt" stroke-linejoin="round" stroke-miterlimit="4" stroke-opacity="1" stroke-width="2" d="m 4.999995,1068.5196 c -1.66197,0 -3,1.338 -3,3 l 0,43 c 0,1.662 1.33803,3 3,3 l 27,0 0,-49 z" opacity="1"/><path id="path4223-3" fill="#f6d87e" fill-opacity="1" stroke="none" stroke-dasharray="none" stroke-linecap="butt" stroke-linejoin="round" stroke-miterlimit="4" stroke-opacity="1" stroke-width="2" d="m 31.999995,1069.5196 -27,0 c -1.108,0 -2,0.892 -2,2 l 0,43 c 0,1.108 0.892,2 2,2 l 27,0 z" opacity="1"/><path id="path4225-1-2" fill="#f3c749" fill-opacity="1" stroke="none" stroke-dasharray="none" stroke-linecap="butt" stroke-linejoin="round" stroke-miterlimit="4" stroke-opacity="1" stroke-width="2" d="m 13.999995,1068.5196 18,0 c 0.554,0 0.86563,0.4625 1,1 l 2,8 c 0.13437,0.5375 -0.446,1 -1,1 l -20,0 c -0.554,0 -1,-0.446 -1,-1 l 0,-8 c 0,-0.554 0.446,-1 1,-1 z" opacity="1"/><path id="rect4211-0" fill="#f6d87e" fill-opacity="1" stroke="none" stroke-dasharray="none" stroke-linecap="butt" stroke-linejoin="round" stroke-miterlimit="4" stroke-opacity="1" stroke-width="2" d="m 31.999995,1078.5196 0,38 27.00001,0 c 1.108,0 2,-0.892 2,-2 l 0,-34 c 0,-1.108 -0.892,-2 -2,-2 z" opacity="1"/><path id="path4227-7-4" fill="#f6d87e" fill-opacity="1" stroke="none" stroke-dasharray="none" stroke-linecap="butt" stroke-linejoin="round" stroke-miterlimit="4" stroke-opacity="1" stroke-width="2" d="m 10.999995,1069.5196 20,0 c 0.554,0 0.86563,0.4625 1,1 l 2,8 c 0.13437,0.5375 -0.446,1 -1,1 l -22,0 c -0.554,0 -1,-0.446 -1,-1 l 0,-8 c 0,-0.554 0.446,-1 1,-1 z" opacity="1"/></g></svg>