<svg xmlns="http://www.w3.org/2000/svg" xmlns:svg="http://www.w3.org/2000/svg" xmlns:xlink="http://www.w3.org/1999/xlink" id="svg2" width="64" height="64" version="1.1" viewBox="0 0 64 64"><defs id="defs4"><linearGradient id="linearGradient4202" x1="24" x2="24" y1="34" y2="37" gradientTransform="translate(0,1064.5196)" gradientUnits="userSpaceOnUse" xlink:href="#linearGradient4192"/><linearGradient id="linearGradient4192"><stop id="stop4194" offset="0" stop-color="#000" stop-opacity="1"/><stop id="stop4196" offset="1" stop-color="#000" stop-opacity="0"/></linearGradient><radialGradient id="radialGradient4206" cx="20" cy="36.5" r="1" fx="20" fy="36.5" gradientTransform="matrix(-2,0,0,-3,62,1208.0196)" gradientUnits="userSpaceOnUse" xlink:href="#linearGradient4192"/><radialGradient id="radialGradient4204" cx="41.5" cy="35.167" r="1" fx="41.5" fy="35.167" gradientTransform="matrix(1.7293317e-6,2.999998,-1.9999951,1.1528856e-6,95.3331,974.01964)" gradientUnits="userSpaceOnUse" xlink:href="#linearGradient4192"/><radialGradient id="radialGradient4217" cx="41.5" cy="35.167" r="1" fx="41.5" fy="35.167" gradientTransform="matrix(1.7293317e-6,2.999998,-1.9999951,1.1528856e-6,112.3331,971.01964)" gradientUnits="userSpaceOnUse" xlink:href="#linearGradient4192"/><radialGradient id="radialGradient4219" cx="20" cy="36.5" r="1" fx="20" fy="36.5" gradientTransform="matrix(-2,0,0,-3,74,1205.0196)" gradientUnits="userSpaceOnUse" xlink:href="#linearGradient4192"/><linearGradient id="linearGradient4221" x1="24" x2="24" y1="34" y2="37" gradientTransform="translate(12,1061.5196)" gradientUnits="userSpaceOnUse" xlink:href="#linearGradient4192"/><radialGradient id="radialGradient4170" cx="32" cy="1093.52" r="25" fx="32" fy="1093.52" gradientTransform="matrix(1.0399999,1.3243208e-5,-1.324321e-5,1.04,-1.2655137,-43.741604)" gradientUnits="userSpaceOnUse" xlink:href="#Shadow"/><linearGradient id="Shadow"><stop id="stop4166" offset="0" stop-color="#000" stop-opacity="1"/><stop id="stop4220" offset=".923" stop-color="#000" stop-opacity=".498"/><stop id="stop4168" offset="1" stop-color="#000" stop-opacity="0"/></linearGradient></defs><metadata id="metadata7"/><g id="layer1" transform="translate(0,-1058.5196)"><circle id="circle4162" cx="32" cy="1093.52" r="26" fill="url(#radialGradient4170)" fill-opacity="1" stroke="none" stroke-opacity="1" opacity="1"/><circle id="path4160" cx="32" cy="1091.519" r="26" fill="#7e57c2" fill-opacity="1" stroke="none" stroke-opacity="1" opacity="1"/><circle id="circle4251" cx="32" cy="1091.52" r="25" fill="#9575cd" fill-opacity="1" stroke="none" stroke-opacity="1" opacity="1"/><path id="path4184" fill="url(#radialGradient4204)" fill-opacity="1" stroke="none" stroke-dasharray="none" stroke-linecap="round" stroke-linejoin="round" stroke-miterlimit="4" stroke-opacity="1" stroke-width="2" d="m 25,1098.5196 0,3 1,0 c 0.55397,0 1,-0.446 1,-1 l 0,-2 -2,0 z" opacity="1"/><path id="path4182" fill="url(#radialGradient4206)" fill-opacity="1" stroke="none" stroke-dasharray="none" stroke-linecap="round" stroke-linejoin="round" stroke-miterlimit="4" stroke-opacity="1" stroke-width="2" d="m 22,1098.5196 -2,0 0,2 c 0,0.554 0.44603,1 1,1 l 1,0 0,-3 z" opacity="1"/><path id="rect4169" fill="url(#linearGradient4202)" fill-opacity="1" stroke="none" stroke-dasharray="none" stroke-linecap="round" stroke-linejoin="round" stroke-miterlimit="4" stroke-opacity="1" stroke-width="2" d="m 22,1098.5196 0,3 3,0 0,-3 z" opacity="1"/><path id="path4211" fill="url(#radialGradient4217)" fill-opacity="1" stroke="none" stroke-dasharray="none" stroke-linecap="round" stroke-linejoin="round" stroke-miterlimit="4" stroke-opacity="1" stroke-width="2" d="m 42,1095.5196 0,3 1,0 c 0.55397,0 1,-0.446 1,-1 l 0,-2 -2,0 z" opacity="1"/><path id="path4213" fill="url(#radialGradient4219)" fill-opacity="1" stroke="none" stroke-dasharray="none" stroke-linecap="round" stroke-linejoin="round" stroke-miterlimit="4" stroke-opacity="1" stroke-width="2" d="m 34,1095.5196 -2,0 0,2 c 0,0.554 0.44603,1 1,1 l 1,0 0,-3 z" opacity="1"/><path id="path4215" fill="url(#linearGradient4221)" fill-opacity="1" stroke="none" stroke-dasharray="none" stroke-linecap="round" stroke-linejoin="round" stroke-miterlimit="4" stroke-opacity="1" stroke-width="2" d="m 34,1095.5196 0,3 8,0 0,-3 z" opacity="1"/><path id="rect4162" fill="#ede7f6" fill-opacity="1" stroke="none" stroke-dasharray="none" stroke-linecap="round" stroke-linejoin="round" stroke-miterlimit="4" stroke-opacity=".528" stroke-width="2" d="m 33,1082.5198 c -0.553971,0 -1,0.446 -1,1 l 0,3 c 0,0.554 0.446029,1 1,1 l 5,0 -6,5 0,1 0,3 c 0,0.554 0.446029,1 1,1 l 10,0 c 0.553971,0 1,-0.446 1,-1 l 0,-3 c 0,-0.554 -0.446029,-1 -1,-1 l -5,0 6,-5 0,-1 0,-3 c 0,-0.554 -0.446029,-1 -1,-1 z m -12,9 c -0.553971,0 -1,0.446 -1,1 l 0,1 c 0,0.554 0.44672,1.0277 1,1 l 2,0 -3,3 0,1 0,1 c 0,0.554 0.446029,1 1,1 l 5,0 c 0.553971,0 1,-0.446 1,-1 l 0,-1 c 0,-0.554 -0.446029,-1 -1,-1 l -2,0 3,-3 0,-1 0,-1 c 0,-0.554 -0.446029,-1 -1,-1 z" opacity="1"/></g></svg>