<svg xmlns="http://www.w3.org/2000/svg" xmlns:svg="http://www.w3.org/2000/svg" xmlns:xlink="http://www.w3.org/1999/xlink" id="svg2" width="64" height="64" version="1.1" viewBox="0 0 64 64"><defs id="defs4"><linearGradient id="Shadow"><stop id="stop4186" offset="0" stop-color="#000" stop-opacity="1"/><stop id="stop4188" offset="1" stop-color="#000" stop-opacity="0"/></linearGradient><radialGradient id="radialGradient4259-4" cx="4" cy="42.5" r="1.5" fx="4" fy="42.5" gradientTransform="matrix(-2.0000003,-2.935184e-6,3.9135795e-6,-2.6666677,14.999835,1228.853)" gradientUnits="userSpaceOnUse" xlink:href="#Shadow"/><linearGradient id="linearGradient4257-1" x1="24" x2="24" y1="42" y2="46" gradientTransform="translate(9.999995,1073.5196)" gradientUnits="userSpaceOnUse" xlink:href="#Shadow"/><linearGradient id="linearGradient4228"><stop id="stop4230" offset="0" stop-color="#000" stop-opacity=".196"/><stop id="stop4240" offset=".7" stop-color="#000" stop-opacity=".196"/><stop id="stop4238" offset=".8" stop-color="#000" stop-opacity=".118"/><stop id="stop4236" offset=".9" stop-color="#000" stop-opacity=".31"/><stop id="stop4232" offset="1" stop-color="#000" stop-opacity="0"/></linearGradient><linearGradient id="linearGradient4234-7" x1="20" x2="20" y1="1070.52" y2="1080.52" gradientTransform="translate(-6,11)" gradientUnits="userSpaceOnUse" xlink:href="#linearGradient4228"/><radialGradient id="radialGradient4166" cx="4" cy="42.5" r="1.5" fx="4" fy="42.5" gradientTransform="matrix(2.0000003,-2.935184e-6,-3.9135795e-6,-2.6666677,49.00016,1228.853)" gradientUnits="userSpaceOnUse" xlink:href="#Shadow"/></defs><metadata id="metadata7"/><g id="layer1" transform="translate(0,-1058.5196)"><path id="path4164" fill="url(#radialGradient4166)" fill-opacity="1" stroke="none" stroke-dasharray="none" stroke-linecap="butt" stroke-linejoin="round" stroke-miterlimit="4" stroke-opacity="1" stroke-width="2" d="m 60,1115.5196 0,2 c 0,1.108 -0.892,2 -2,2 l -1,0 0,-4 3,0 z" opacity=".7"/><path id="path4251-7" fill="url(#linearGradient4257-1)" fill-opacity="1" stroke="none" stroke-dasharray="none" stroke-linecap="butt" stroke-linejoin="round" stroke-miterlimit="4" stroke-opacity="1" stroke-width="2" d="m 6.999995,1115.5196 0,4 50,0 0,-4 z" opacity=".7"/><path id="path4253-6" fill="url(#radialGradient4259-4)" fill-opacity="1" stroke="none" stroke-dasharray="none" stroke-linecap="butt" stroke-linejoin="round" stroke-miterlimit="4" stroke-opacity="1" stroke-width="2" d="m 3.999995,1115.5196 0,2 c 0,1.108 0.892,2 2,2 l 1,0 0,-4 -3,0 z" opacity=".7"/><rect id="rect3362" width="56" height="48" x="4" y="1069.52" fill="#37474f" fill-opacity="1" ry="3"/><path id="path3376" fill="#455a64" fill-opacity="1" d="M 5 17 L 5 56 C 5 57.10797 5.8920295 58 7 58 L 10 58 L 57 58 C 58.10797 58 59 57.10797 59 56 L 59 17 L 10 17 L 5 17 z" transform="translate(0,1058.5196)"/><path id="rect3364" fill="#e0e0e0" fill-opacity="1" d="M 7 12 C 5.8920295 12 5 12.89203 5 14 L 5 17 L 59 17 L 59 14 C 59 12.89203 58.10797 12 57 12 L 7 12 z" transform="translate(0,1058.5196)"/><circle id="path3371" cx="55.5" cy="1073.02" r="1.5" fill="#ef5350" fill-opacity="1"/><path id="path4226-6" fill="url(#linearGradient4234-7)" fill-opacity="1" stroke="none" stroke-dasharray="none" stroke-linecap="round" stroke-linejoin="round" stroke-miterlimit="4" stroke-opacity="1" stroke-width="2" d="m 11,1081.5196 0,2 -2,0 0,2 2,0 0,2 -2,0 0,2 2,0 0,2 2,0 0,-2 2,0 0,2 2,0 0,-2 2,0 0,-2 -2,0 0,-2 2,0 0,-2 -2,0 0,-2 -2,0 0,2 -2,0 0,-2 -2,0 z m 10,0 0,7 2,0 0,-7 -2,0 z m -8,4 2,0 0,2 -2,0 0,-2 z m 8,4 0,2 2,0 0,-2 -2,0 z" opacity="1"/><path id="rect4183-1" fill="#b0bec5" fill-opacity="1" stroke="none" stroke-dasharray="none" stroke-linecap="round" stroke-linejoin="round" stroke-miterlimit="4" stroke-opacity="1" stroke-width="2" d="m 11,1080.5196 0,2 -2,0 0,2 2,0 0,2 -2,0 0,2 2,0 0,2 2,0 0,-2 2,0 0,2 2,0 0,-2 2,0 0,-2 -2,0 0,-2 2,0 0,-2 -2,0 0,-2 -2,0 0,2 -2,0 0,-2 -2,0 z m 10,0 0,7 2,0 0,-7 -2,0 z m -8,4 2,0 0,2 -2,0 0,-2 z m 8,4 0,2 2,0 0,-2 -2,0 z" opacity="1"/><circle id="circle3505" cx="55.5" cy="1073.02" r=".5" fill="#ef9a9a" fill-opacity="1"/><rect id="rect3507" width="54" height="1" x="5" y="1075.52" fill="#37474f" fill-opacity="1" ry="0"/></g></svg>