<svg xmlns="http://www.w3.org/2000/svg" xmlns:svg="http://www.w3.org/2000/svg" xmlns:xlink="http://www.w3.org/1999/xlink" id="svg2" width="64" height="64" version="1.1" viewBox="0 0 64 64"><defs id="defs4"><linearGradient id="Shadow"><stop id="stop4186" offset="0" stop-color="#000" stop-opacity="1"/><stop id="stop4188" offset="1" stop-color="#000" stop-opacity="0"/></linearGradient><radialGradient id="radialGradient4259-4" cx="4" cy="42.5" r="1.5" fx="4" fy="42.5" gradientTransform="matrix(-2.0000003,-2.935184e-6,3.9135795e-6,-2.6666677,14.999835,1228.853)" gradientUnits="userSpaceOnUse" xlink:href="#Shadow"/><linearGradient id="linearGradient4257-1" x1="24" x2="24" y1="42" y2="46" gradientTransform="translate(9.999995,1073.5196)" gradientUnits="userSpaceOnUse" xlink:href="#Shadow"/><radialGradient id="radialGradient4166" cx="4" cy="42.5" r="1.5" fx="4" fy="42.5" gradientTransform="matrix(2.0000003,-2.935184e-6,-3.9135795e-6,-2.6666677,49.00016,1228.853)" gradientUnits="userSpaceOnUse" xlink:href="#Shadow"/><linearGradient id="linearGradient4241" x1="20" x2="20" y1="1083.52" y2="1085.52" gradientTransform="translate(0,-1058.5196)" gradientUnits="userSpaceOnUse" xlink:href="#Shadow"/><linearGradient id="linearGradient4276" x1="32" x2="32" y1="1082.52" y2="1085.52" gradientTransform="translate(0,-1058.5196)" gradientUnits="userSpaceOnUse" xlink:href="#Shadow"/><radialGradient id="radialGradient4281" cx="28.037" cy="20.251" r="1.5" fx="28.037" fy="20.251" gradientTransform="matrix(-2.0000003,4.0350247e-7,-3.6402565e-7,-2.0000003,87.073776,64.502013)" gradientUnits="userSpaceOnUse" xlink:href="#Shadow"/><radialGradient id="radialGradient4293" cx="28.037" cy="20.251" r="1.5" fx="28.037" fy="20.251" gradientTransform="matrix(2.0000003,5.5236982e-7,5.1285266e-7,-1.9998927,-23.073779,1123.0196)" gradientUnits="userSpaceOnUse" xlink:href="#Shadow"/><radialGradient id="radialGradient4300" cx="24.5" cy="20" r="1.5" fx="24.5" fy="20" gradientTransform="matrix(-9.1111153e-7,1.3333335,-1.3333333,-9.111114e-7,50.666689,-11.666655)" gradientUnits="userSpaceOnUse" xlink:href="#Shadow"/><linearGradient id="linearGradient4317" x1="23" x2="23" y1="1079.52" y2="1081.52" gradientTransform="translate(0,-1058.5196)" gradientUnits="userSpaceOnUse" xlink:href="#Shadow"/><linearGradient id="linearGradient4327" x1="23" x2="23" y1="1075.52" y2="1077.52" gradientTransform="translate(0,-1058.5196)" gradientUnits="userSpaceOnUse" xlink:href="#Shadow"/><radialGradient id="radialGradient4334" cx="21.5" cy="20" r="1.5" fx="21.5" fy="20" gradientTransform="matrix(-9.1111153e-7,1.3333335,-1.3333333,-9.111114e-7,50.666689,-11.666655)" gradientUnits="userSpaceOnUse" xlink:href="#Shadow"/><linearGradient id="linearGradient4348" x1="14" x2="14" y1="1082.52" y2="1085.52" gradientTransform="translate(0,-1058.5196)" gradientUnits="userSpaceOnUse" xlink:href="#Shadow"/><radialGradient id="radialGradient4357" cx="15.075" cy="19.049" r="1.267" fx="15.075" fy="19.049" gradientTransform="matrix(-6.6324984e-7,1.579029,-1.5790292,-6.3113016e-7,45.079155,-6.8043076)" gradientUnits="userSpaceOnUse" xlink:href="#Shadow"/><linearGradient id="linearGradient4359" x1="14" x2="14" y1="1075.52" y2="1077.52" gradientTransform="translate(0,-1058.5196)" gradientUnits="userSpaceOnUse" xlink:href="#Shadow"/><radialGradient id="radialGradient4363" cx="12.333" cy="18.999" r="2" fx="12.333" fy="18.999" gradientTransform="matrix(-1.5,-8.8976801e-8,8.8976891e-8,-1.5,31.500005,52.498268)" gradientUnits="userSpaceOnUse" xlink:href="#Shadow"/><radialGradient id="radialGradient4365" cx="14.306" cy="25.768" r="1.267" fx="14.306" fy="25.768" gradientTransform="matrix(7.6628565e-7,2.3685427,-1.5790292,5.349947e-7,55.687847,-9.8841854)" gradientUnits="userSpaceOnUse" xlink:href="#Shadow"/><radialGradient id="radialGradient4373" cx="12.833" cy="23.666" r="2" fx="12.833" fy="23.666" gradientTransform="matrix(-2.0000002,2.2568749e-7,-1.1284378e-7,-1.000001,37.666682,40.665531)" gradientUnits="userSpaceOnUse" xlink:href="#Shadow"/></defs><metadata id="metadata7"/><g id="layer1" transform="translate(0,-1058.5196)"><path id="path4164" fill="url(#radialGradient4166)" fill-opacity="1" stroke="none" stroke-dasharray="none" stroke-linecap="butt" stroke-linejoin="round" stroke-miterlimit="4" stroke-opacity="1" stroke-width="2" d="m 60,1115.5196 0,2 c 0,1.108 -0.892,2 -2,2 l -1,0 0,-4 3,0 z" opacity=".7"/><path id="path4251-7" fill="url(#linearGradient4257-1)" fill-opacity="1" stroke="none" stroke-dasharray="none" stroke-linecap="butt" stroke-linejoin="round" stroke-miterlimit="4" stroke-opacity="1" stroke-width="2" d="m 6.999995,1115.5196 0,4 50,0 0,-4 z" opacity=".7"/><path id="path4253-6" fill="url(#radialGradient4259-4)" fill-opacity="1" stroke="none" stroke-dasharray="none" stroke-linecap="butt" stroke-linejoin="round" stroke-miterlimit="4" stroke-opacity="1" stroke-width="2" d="m 3.999995,1115.5196 0,2 c 0,1.108 0.892,2 2,2 l 1,0 0,-4 -3,0 z" opacity=".7"/><rect id="rect3362" width="56" height="48" x="4" y="1069.52" fill="#37474f" fill-opacity="1" ry="3"/><rect id="rect4166" width="54" height="46" x="5" y="1070.52" fill="#455a64" fill-opacity="1" stroke="none" stroke-dasharray="none" stroke-linecap="round" stroke-linejoin="round" stroke-miterlimit="4" stroke-opacity="1" stroke-width="1" opacity="1" ry="2"/><path id="path4355" fill="#26c6da" fill-opacity="1" fill-rule="evenodd" stroke="none" stroke-linecap="butt" stroke-linejoin="miter" stroke-opacity="1" stroke-width="1" d="m 53,30 -16,9 -2,-1 -3,-2 -4,-1 -13,7 -5,-2 -5,4 0,12 c 0,1.10797 0.8920295,2 2,2 l 50,0 c 1.10797,0 2,-0.89203 2,-2 l 0,-25 -4,1 z" transform="translate(0,1058.5196)"/><path id="path4360" fill="#4dd0e1" fill-opacity="1" fill-rule="evenodd" stroke="none" stroke-linecap="butt" stroke-linejoin="miter" stroke-opacity="1" stroke-width="1" d="m 28,1093.5196 0,23 9,0 0,-19 -5,-3 z"/><path id="path4362" fill="#4dd0e1" fill-opacity="1" fill-rule="evenodd" stroke="none" stroke-linecap="butt" stroke-linejoin="miter" stroke-opacity="1" stroke-width="1" d="m 53,30 0,28 4,0 c 1.10797,0 2,-0.89203 2,-2 l 0,-25 -4,1 z" transform="translate(0,1058.5196)"/><path id="path4367" fill="#00bcd4" fill-opacity="1" fill-rule="evenodd" stroke="none" stroke-linecap="butt" stroke-linejoin="miter" stroke-opacity="1" stroke-width="1" d="m 10,40 -5,4 0,12 c 0,1.10797 0.8920295,2 2,2 l 3,0 z" transform="translate(0,1058.5196)"/><path id="path4166" fill="#00acc1" fill-opacity="1" fill-rule="evenodd" stroke="none" stroke-linecap="butt" stroke-linejoin="miter" stroke-opacity="1" stroke-width="1" d="M 59 31 L 58 31.25 L 58 56 C 58 56.55397 57.55397 57 57 57 L 7 57 C 6.4460296 57 6 56.55397 6 56 L 6 43.199219 L 5 44 L 5 56 C 5 57.10797 5.8920295 58 7 58 L 57 58 C 58.10797 58 59 57.10797 59 56 L 59 31 z" transform="translate(0,1058.5196)"/><path id="path4346" fill="url(#radialGradient4365)" fill-opacity="1" stroke="none" stroke-dasharray="none" stroke-linecap="round" stroke-linejoin="round" stroke-miterlimit="4" stroke-opacity="1" stroke-width="2" d="M 15 24.822266 L 15 26.896484 A 4.999999 4.999999 0 0 0 17.533203 25.533203 L 16.119141 24.119141 A 2.999999 2.999999 0 0 1 15 24.822266 z" opacity="1" transform="translate(0,1058.5196)"/><path id="path4353" fill="url(#linearGradient4348)" fill-opacity="1" stroke="none" stroke-dasharray="none" stroke-linecap="round" stroke-linejoin="round" stroke-miterlimit="4" stroke-opacity="1" stroke-width="2" d="M 13 24.824219 L 13 26.894531 A 4.999999 4.999999 0 0 0 14 27 A 4.999999 4.999999 0 0 0 15 26.896484 L 15 24.822266 A 2.999999 2.999999 0 0 1 14 25 A 2.999999 2.999999 0 0 1 13 24.824219 z" opacity="1" transform="translate(0,1058.5196)"/><path id="path4371" fill="url(#radialGradient4363)" fill-opacity="1" stroke="none" stroke-dasharray="none" stroke-linecap="round" stroke-linejoin="round" stroke-miterlimit="4" stroke-opacity="1" stroke-width="2" d="M 11.175781 21 L 9.1074219 21 A 4.999999 4.999999 0 0 0 9 22 A 4.999999 4.999999 0 0 0 13 26.894531 L 13 24.824219 A 2.999999 2.999999 0 0 1 11 22 A 2.999999 2.999999 0 0 1 11.175781 21 z" opacity="1" transform="translate(0,1058.5196)"/><path id="path4351" fill="url(#radialGradient4373)" fill-opacity="1" stroke="none" stroke-dasharray="none" stroke-linecap="round" stroke-linejoin="round" stroke-miterlimit="4" stroke-opacity="1" stroke-width="2" d="M 13 17.101562 A 4.999999 4.999999 0 0 0 9.1074219 21 L 11.175781 21 A 2.999999 2.999999 0 0 1 13 19.173828 L 13 17.101562 z" opacity="1" transform="translate(0,1058.5196)"/><path id="path4344" fill="url(#linearGradient4359)" fill-opacity="1" stroke="none" stroke-dasharray="none" stroke-linecap="round" stroke-linejoin="round" stroke-miterlimit="4" stroke-opacity="1" stroke-width="2" d="M 13 17.101562 L 13 19.173828 A 2.999999 2.999999 0 0 1 14 19 A 2.999999 2.999999 0 0 1 15 19.175781 L 15 17.105469 A 4.999999 4.999999 0 0 0 14 17 A 4.999999 4.999999 0 0 0 13 17.101562 z" opacity="1" transform="translate(0,1058.5196)"/><path id="path4233" fill="url(#radialGradient4357)" fill-opacity="1" stroke="none" stroke-dasharray="none" stroke-linecap="round" stroke-linejoin="round" stroke-miterlimit="4" stroke-opacity="1" stroke-width="2" d="M 15 17.105469 L 15 19.175781 A 2.999999 2.999999 0 0 1 16.119141 19.880859 L 17.533203 18.466797 A 4.999999 4.999999 0 0 0 15 17.105469 z" opacity="1" transform="translate(0,1058.5196)"/><path id="path4200" fill="#b0bec5" fill-opacity="1" stroke="none" stroke-dasharray="none" stroke-linecap="round" stroke-linejoin="round" stroke-miterlimit="4" stroke-opacity="1" stroke-width="2" d="m 14,1074.5196 a 4.999999,4.999999 0 0 0 -5,5 4.999999,4.999999 0 0 0 5,5 4.999999,4.999999 0 0 0 3.533203,-1.4668 l -1.414062,-1.4141 A 2.999999,2.999999 0 0 1 14,1082.5196 a 2.999999,2.999999 0 0 1 -3,-3 2.999999,2.999999 0 0 1 3,-3 2.999999,2.999999 0 0 1 2.119141,0.8809 l 1.414062,-1.4141 A 4.999999,4.999999 0 0 0 14,1074.5196 Z" opacity="1"/><path id="path4315" fill="url(#linearGradient4317)" fill-opacity="1" stroke="none" stroke-dasharray="none" stroke-linecap="round" stroke-linejoin="round" stroke-miterlimit="4" stroke-opacity="1" stroke-width="2" d="M 21 21 L 21 23 L 22 23 L 24 23 L 24 21 L 22 21 L 21 21 z" opacity="1" transform="translate(0,1058.5196)"/><path id="path4313" fill="url(#linearGradient4241)" fill-opacity="1" stroke="none" stroke-dasharray="none" stroke-linecap="round" stroke-linejoin="round" stroke-miterlimit="4" stroke-opacity="1" stroke-width="2" d="M 21 17 L 19 17 L 19 20 L 19 27 L 21 27 L 21 23 L 21 21 L 21 20 L 21 19 L 21 17 z" opacity="1" transform="translate(0,1058.5196)"/><path id="path4298" fill="url(#linearGradient4327)" fill-opacity="1" stroke="none" stroke-dasharray="none" stroke-linecap="round" stroke-linejoin="round" stroke-miterlimit="4" stroke-opacity="1" stroke-width="2" d="M 21 17 L 21 19 L 22 19 L 24 19 L 24 17 L 22 17 L 21 17 z" opacity="1" transform="translate(0,1058.5196)"/><path id="path4332" fill="url(#radialGradient4300)" fill-opacity="1" stroke="none" stroke-dasharray="none" stroke-linecap="round" stroke-linejoin="round" stroke-miterlimit="4" stroke-opacity="1" stroke-width="2" d="M 25 20 C 25 20.554 24.553985 21 24 21 L 24 23 C 25.661985 23 27 21.662 27 20 L 25 20 z" opacity="1" transform="translate(0,1058.5196)"/><path id="path4235" fill="url(#radialGradient4334)" fill-opacity="1" stroke="none" stroke-dasharray="none" stroke-linecap="round" stroke-linejoin="round" stroke-miterlimit="4" stroke-opacity="1" stroke-width="2" d="M 24 17 L 24 19 L 26.587891 19 C 26.14917 17.888901 25.270702 17 24 17 z" opacity="1" transform="translate(0,1058.5196)"/><path id="rect4208" fill="#b0bec5" fill-opacity="1" stroke="none" stroke-dasharray="none" stroke-linecap="round" stroke-linejoin="round" stroke-miterlimit="4" stroke-opacity="1" stroke-width="2" d="m 19,1074.5196 0,3 0,7 2,0 0,-4 1,0 2,0 c 1.661985,0 3,-1.338 3,-3 0,-1.662 -1.338015,-3 -3,-3 l -2,0 -1,0 -2,0 z m 2,2 1,0 2,0 c 0.553985,0 1,0.446 1,1 0,0.554 -0.446015,1 -1,1 l -2,0 -1,0 0,-1 0,-1 z" opacity="1"/><path id="path4279" fill="url(#linearGradient4276)" fill-opacity="1" stroke="none" stroke-dasharray="none" stroke-linecap="round" stroke-linejoin="round" stroke-miterlimit="4" stroke-opacity="1" stroke-width="2" d="M 31 24.587891 L 31 26.798828 C 31.327324 26.884869 31.644933 27 32 27 C 32.355067 27 32.672676 26.884869 33 26.798828 L 33 24.587891 C 32.692406 24.780524 32.391197 25 32 25 C 31.608803 25 31.307594 24.780524 31 24.587891 z" opacity="1" transform="translate(0,1058.5196)"/><path id="path4237" fill="url(#radialGradient4281)" fill-opacity="1" stroke="none" stroke-dasharray="none" stroke-linecap="round" stroke-linejoin="round" stroke-miterlimit="4" stroke-opacity="1" stroke-width="2" d="M 28 17 L 28 21 L 28 23 C 28 24.860933 29.284471 26.347883 31 26.798828 L 31 24.587891 C 30.436385 24.234922 30 23.716803 30 23 L 30 22 L 30 18 L 30 17 L 28 17 z" opacity="1" transform="translate(0,1058.5196)"/><path id="path4291" fill="url(#radialGradient4293)" fill-opacity="1" stroke="none" stroke-dasharray="none" stroke-linecap="round" stroke-linejoin="round" stroke-miterlimit="4" stroke-opacity="1" stroke-width="2" d="m 36,1075.5196 0,4.0001 0,2 c 0,1.861 -1.284471,3.348 -3,3.7989 l 0,-2.2109 c 0.563615,-0.3531 1,-0.8712 1,-1.588 l 0,-1 0,-4.0001 0,-1 2,0 z" opacity="1"/><path id="rect4222" fill="#b0bec5" fill-opacity="1" stroke="none" stroke-dasharray="none" stroke-linecap="round" stroke-linejoin="round" stroke-miterlimit="4" stroke-opacity="1" stroke-width="2" d="m 28,1074.5196 0,4 0,2 c 0,2.216 1.784,4 4,4 2.216,0 4,-1.784 4,-4 l 0,-2 0,-4 -2,0 0,1 0,4 0,1 c 0,1.108 -0.892,2 -2,2 -1.108,0 -2,-0.892 -2,-2 l 0,-1 0,-4 0,-1 -2,0 z" opacity="1"/></g></svg>