<svg xmlns="http://www.w3.org/2000/svg" xmlns:svg="http://www.w3.org/2000/svg" xmlns:xlink="http://www.w3.org/1999/xlink" id="svg2" width="32" height="32" version="1.1" viewBox="0 0 32 32"><defs id="defs4"><linearGradient id="Shadow"><stop id="stop4181" offset="0" stop-color="#000" stop-opacity="1"/><stop id="stop4183" offset="1" stop-color="#000" stop-opacity="0"/></linearGradient><radialGradient id="radialGradient4576" cx="28" cy="28.5" r="1.5" fx="28" fy="28.5" gradientTransform="matrix(3.1111458e-7,2.6666673,-1.9999997,2.3333583e-7,84.99998,973.69551)" gradientUnits="userSpaceOnUse" xlink:href="#Shadow"/><radialGradient id="radialGradient4578" cx=".56" cy="31.147" r="1.5" fx=".56" fy="31.147" gradientTransform="matrix(-1.9999998,2.4329792e-6,-3.2319946e-6,-2.6666666,5.119531,1131.421)" gradientUnits="userSpaceOnUse" xlink:href="#Shadow"/><linearGradient id="linearGradient4580" x1="16" x2="16" y1="28" y2="32" gradientTransform="translate(0,1020.3622)" gradientUnits="userSpaceOnUse" xlink:href="#Shadow"/><linearGradient id="linearGradient4354-0" x1="420.571" x2="419.571" y1="502.298" y2="503.298" gradientTransform="matrix(-1,0,0,1,447.57144,-495.298)" gradientUnits="userSpaceOnUse" xlink:href="#Shadow"/><linearGradient id="linearGradient4341-9" x1="420.571" x2="419.571" y1="502.298" y2="503.298" gradientTransform="translate(-405.57142,-495.298)" gradientUnits="userSpaceOnUse" xlink:href="#Shadow"/><linearGradient id="linearGradient4401" x1="412.571" x2="411.571" y1="532.298" y2="531.298" gradientTransform="matrix(-1,0,0,1,431.57144,-507.298)" gradientUnits="userSpaceOnUse" xlink:href="#Shadow"/><linearGradient id="linearGradient4392" x1="412.571" x2="411.571" y1="532.298" y2="531.298" gradientTransform="translate(-399.57142,-507.298)" gradientUnits="userSpaceOnUse" xlink:href="#Shadow"/><linearGradient id="linearGradient4362" x1="420.571" x2="419.571" y1="502.298" y2="503.298" gradientTransform="matrix(-1,0,0,-1,437.57144,526.298)" gradientUnits="userSpaceOnUse" xlink:href="#Shadow"/><linearGradient id="linearGradient4360" x1="420.571" x2="419.571" y1="502.298" y2="503.298" gradientTransform="matrix(1,0,0,-1,-415.57142,526.298)" gradientUnits="userSpaceOnUse" xlink:href="#Shadow"/></defs><metadata id="metadata7"/><g id="layer1" transform="translate(0,-1020.3622)"><path id="path4570" fill="url(#radialGradient4576)" fill-opacity="1" stroke="none" stroke-dasharray="none" stroke-linecap="round" stroke-linejoin="round" stroke-miterlimit="4" stroke-opacity=".528" stroke-width="2" d="m 28,1048.3622 0,4 c 1.66201,0 3,-1.338 3,-3 l 0,-1 -3,0 z" opacity="1"/><path id="path4572" fill="url(#radialGradient4578)" fill-opacity="1" stroke="none" stroke-dasharray="none" stroke-linecap="round" stroke-linejoin="round" stroke-miterlimit="4" stroke-opacity=".528" stroke-width="2" d="m 4,1048.3622 -3,0 0,1 c 0,1.662 1.33799,3 3,3 l 0,-4 z" opacity="1"/><path id="path4574" fill="url(#linearGradient4580)" fill-opacity="1" stroke="none" stroke-dasharray="none" stroke-linecap="round" stroke-linejoin="round" stroke-miterlimit="4" stroke-opacity=".528" stroke-width="2" d="m 4,1048.3622 0,4 24,0 0,-4 z" opacity="1"/><rect id="rect4582" width="30" height="26" x="1" y="1024.362" fill="#263238" fill-opacity="1" stroke="none" stroke-dasharray="none" stroke-linecap="round" stroke-linejoin="round" stroke-miterlimit="4" stroke-opacity=".528" stroke-width="2" opacity="1" ry="2"/><rect id="rect4594" width="28" height="24" x="2" y="1025.362" fill="#37474f" fill-opacity="1" stroke="none" stroke-dasharray="none" stroke-linecap="round" stroke-linejoin="round" stroke-miterlimit="4" stroke-opacity=".528" stroke-width="2" opacity="1" ry="1"/><rect id="rect4602" width="24" height="20" x="4" y="1027.362" fill="#26c6da" fill-opacity="1" stroke="none" stroke-dasharray="none" stroke-linecap="round" stroke-linejoin="round" stroke-miterlimit="4" stroke-opacity=".528" stroke-width="2" opacity="1" ry="0"/><path id="path4330-7" fill="url(#linearGradient4341-9)" fill-opacity="1" fill-rule="evenodd" stroke="none" stroke-linecap="butt" stroke-linejoin="miter" stroke-opacity="1" stroke-width="1" d="M 12.5 7 L 21 15.5 L 21 7 L 12.5 7 z" transform="translate(0,1020.3622)"/><path id="path4352-6" fill="url(#linearGradient4354-0)" fill-opacity="1" fill-rule="evenodd" stroke="none" stroke-linecap="butt" stroke-linejoin="miter" stroke-opacity="1" stroke-width="1" d="M 21 7 L 21 15.5 L 28 8.5 L 28 7 L 21 7 z" transform="translate(0,1020.3622)"/><path id="path4312-0" fill="#fbc02d" fill-opacity="1" fill-rule="evenodd" stroke="none" stroke-linecap="butt" stroke-linejoin="miter" stroke-opacity="1" stroke-width="1" d="M 21 7 L 21 14 L 28 7 L 21 7 z" transform="translate(0,1020.3622)"/><path id="path4314-6" fill="#fdd835" fill-opacity="1" fill-rule="evenodd" stroke="none" stroke-linecap="butt" stroke-linejoin="miter" stroke-opacity="1" stroke-width="1" d="M 14 7 L 21 14 L 21 7 L 14 7 z" transform="translate(0,1020.3622)"/><path id="path4356" fill="url(#linearGradient4360)" fill-opacity="1" fill-rule="evenodd" stroke="none" stroke-linecap="butt" stroke-linejoin="miter" stroke-opacity="1" stroke-width="1" d="M 11 15.5 L 4 22.5 L 4 27 L 11 27 L 11 15.5 z" transform="translate(0,1020.3622)"/><path id="path4358" fill="url(#linearGradient4362)" fill-opacity="1" fill-rule="evenodd" stroke="none" stroke-linecap="butt" stroke-linejoin="miter" stroke-opacity="1" stroke-width="1" d="M 11 15.5 L 11 27 L 22.5 27 L 11 15.5 z" transform="translate(0,1020.3622)"/><path id="path4302" fill="#512da8" fill-opacity="1" fill-rule="evenodd" stroke="none" stroke-linecap="butt" stroke-linejoin="miter" stroke-opacity="1" stroke-width="1" d="M 11 17 L 11 27 L 21 27 L 11 17 z" transform="translate(0,1020.3622)"/><path id="path4304" fill="#5e35b1" fill-opacity="1" fill-rule="evenodd" stroke="none" stroke-linecap="butt" stroke-linejoin="miter" stroke-opacity="1" stroke-width="1" d="M 11 17 L 4 24 L 4 27 L 11 27 L 11 17 z" transform="translate(0,1020.3622)"/><path id="path4382" fill="url(#linearGradient4392)" fill-opacity="1" fill-rule="evenodd" stroke="none" stroke-linecap="butt" stroke-linejoin="miter" stroke-opacity="1" stroke-width="1" d="M 16 18.5 L 7.5 27 L 16 27 L 16 18.5 z" transform="translate(0,1020.3622)"/><path id="path4328" fill="#d81b60" fill-opacity="1" fill-rule="evenodd" stroke="none" stroke-linecap="butt" stroke-linejoin="miter" stroke-opacity="1" stroke-width="1" d="M 16 21 L 10 27 L 16 27 L 16 21 z" transform="translate(0,1020.3622)"/><path id="path4399" fill="url(#linearGradient4401)" fill-opacity="1" fill-rule="evenodd" stroke="none" stroke-linecap="butt" stroke-linejoin="miter" stroke-opacity="1" stroke-width="1" d="M 16 18.5 L 16 27 L 24.5 27 L 16 18.5 z" transform="translate(0,1020.3622)"/><path id="path4380" fill="#c2185b" fill-opacity="1" fill-rule="evenodd" stroke="none" stroke-linecap="butt" stroke-linejoin="miter" stroke-opacity="1" stroke-width="1" d="M 16 21 L 16 27 L 22 27 L 16 21 z" transform="translate(0,1020.3622)"/><rect id="rect4604" width="24" height="2" x="4" y="1045.362" fill="#f5f5f5" fill-opacity="1" stroke="none" stroke-dasharray="none" stroke-linecap="round" stroke-linejoin="round" stroke-miterlimit="4" stroke-opacity=".528" stroke-width="2" opacity="1"/></g></svg>