<svg xmlns="http://www.w3.org/2000/svg" xmlns:svg="http://www.w3.org/2000/svg" xmlns:xlink="http://www.w3.org/1999/xlink" id="svg5453" width="48" height="48" version="1.1" viewBox="0 0 48 48"><defs id="defs5455"><linearGradient id="linearGradient4236"><stop id="stop4238" offset="0" stop-color="#000" stop-opacity="1"/><stop id="stop4240" offset=".733" stop-color="#000" stop-opacity="1"/><stop id="stop4242" offset="1" stop-color="#000" stop-opacity="0"/></linearGradient><linearGradient id="Shadow"><stop id="stop4186" offset="0" stop-color="#000" stop-opacity="1"/><stop id="stop4188" offset="1" stop-color="#000" stop-opacity="0"/></linearGradient><linearGradient id="linearGradient4190" x1="24" x2="24" y1="42" y2="46" gradientTransform="translate(392.57144,490.798)" gradientUnits="userSpaceOnUse" xlink:href="#Shadow"/><radialGradient id="radialGradient4200" cx="44" cy="42.5" r="1.5" fx="44" fy="42.5" gradientTransform="matrix(-5.6193702e-6,2.666668,-2.0000002,-4.214526e-6,518.57171,415.46478)" gradientUnits="userSpaceOnUse" xlink:href="#Shadow"/><radialGradient id="radialGradient4208" cx="4" cy="42.5" r="1.5" fx="4" fy="42.5" gradientTransform="matrix(-2.0000003,-2.935184e-6,3.9135795e-6,-2.6666677,407.57128,646.13139)" gradientUnits="userSpaceOnUse" xlink:href="#Shadow"/><radialGradient id="radialGradient4234" cx="431.071" cy="503.298" r="7.5" fx="431.071" fy="503.298" gradientTransform="translate(0,0.99997754)" gradientUnits="userSpaceOnUse" xlink:href="#linearGradient4236"/></defs><metadata id="metadata5458"/><g id="layer1" transform="translate(-392.57144,-491.798)"><path id="path4174" fill="url(#radialGradient4200)" fill-opacity="1" stroke="none" stroke-dasharray="none" stroke-linecap="butt" stroke-linejoin="round" stroke-miterlimit="4" stroke-opacity="1" stroke-width="2" d="m 433.57144,532.798 0,4 1,0 c 1.108,0 2,-0.892 2,-2 l 0,-2 -3,0 z" opacity=".7"/><path id="path4169" fill="url(#linearGradient4190)" fill-opacity="1" stroke="none" stroke-dasharray="none" stroke-linecap="butt" stroke-linejoin="round" stroke-miterlimit="4" stroke-opacity="1" stroke-width="2" d="m 399.57144,532.798 0,4 34,0 0,-4 z" opacity=".7"/><path id="rect4157" fill="url(#radialGradient4208)" fill-opacity="1" stroke="none" stroke-dasharray="none" stroke-linecap="butt" stroke-linejoin="round" stroke-miterlimit="4" stroke-opacity="1" stroke-width="2" d="m 396.57144,532.798 0,2 c 0,1.108 0.892,2 2,2 l 1,0 0,-4 -3,0 z" opacity=".7"/><rect id="rect4160" width="40" height="35" x="396.571" y="499.798" fill="#90a4ae" fill-opacity="1" stroke="none" stroke-dasharray="none" stroke-linecap="round" stroke-linejoin="round" stroke-miterlimit="4" stroke-opacity="1" stroke-width="2" opacity="1" ry="3"/><path id="path4228" fill="#eceff1" fill-opacity="1" stroke="none" stroke-dasharray="none" stroke-linecap="round" stroke-linejoin="round" stroke-miterlimit="4" stroke-opacity="1" stroke-width="2" d="M 43 13 L 5 13 L 5 40 C 5 41.107993 5.8920069 42 7 42 L 41 42 C 42.107993 42 43 41.107993 43 40 L 43 13 z" opacity="1" transform="translate(392.57144,491.798)"/><path id="rect4219" fill="#e0e0e0" fill-opacity="1" stroke="none" stroke-dasharray="none" stroke-linecap="round" stroke-linejoin="round" stroke-miterlimit="4" stroke-opacity="1" stroke-width="2" d="M 7 9 C 5.8920069 9 5 9.8920069 5 11 L 5 13 L 43 13 L 43 11 C 43 9.8920069 42.107993 9 41 9 L 7 9 z" opacity="1" transform="translate(392.57144,491.798)"/><rect id="rect4221" width="36" height="26" x="398.571" y="506.798" fill="#fafafa" fill-opacity="1" stroke="none" stroke-dasharray="none" stroke-linecap="round" stroke-linejoin="round" stroke-miterlimit="4" stroke-opacity="1" stroke-width="2" opacity="1" ry="0"/><rect id="rect4223" width="38" height="1" x="397.571" y="504.798" fill="#90a4ae" fill-opacity="1" stroke="none" stroke-dasharray="none" stroke-linecap="round" stroke-linejoin="round" stroke-miterlimit="4" stroke-opacity="1" stroke-width="2" opacity="1"/><circle id="path4230" cx="431.071" cy="504.298" r="7.5" fill="url(#radialGradient4234)" fill-opacity="1" stroke="none" stroke-dasharray="none" stroke-linecap="round" stroke-linejoin="round" stroke-miterlimit="4" stroke-opacity="1" stroke-width="2" opacity="1"/><circle id="circle4244" cx="431.071" cy="503.298" r="7.5" fill="#8bc34a" fill-opacity="1" stroke="none" stroke-dasharray="none" stroke-linecap="round" stroke-linejoin="round" stroke-miterlimit="4" stroke-opacity="1" stroke-width="2" opacity="1"/><circle id="circle4248" cx="431.071" cy="503.298" r="6.5" fill="#9ccc65" fill-opacity="1" stroke="none" stroke-dasharray="none" stroke-linecap="round" stroke-linejoin="round" stroke-miterlimit="4" stroke-opacity="1" stroke-width="2" opacity="1"/><path id="path4250" fill="#fafafa" fill-opacity="1" fill-rule="evenodd" stroke="none" stroke-dasharray="none" stroke-dashoffset="0" stroke-linecap="round" stroke-linejoin="round" stroke-miterlimit="4" stroke-opacity="1" stroke-width="2" d="m 428.58207,498.79883 c -0.55607,-0.005 -1.00973,0.4439 -1.00976,1 l 0,7 c 0.002,0.80748 0.90998,1.28032 1.57226,0.81836 l 5.99996,-3.5 c 0.56881,-0.39814 0.56881,-1.24053 0,-1.63867 l -5.99996,-3.5 c -0.16514,-0.11515 -0.36119,-0.17777 -0.5625,-0.17969 z" baseline-shift="baseline" clip-rule="nonzero" color="#000" color-interpolation="sRGB" color-interpolation-filters="linearRGB" color-rendering="auto" direction="ltr" display="inline" enable-background="accumulate" font-family="sans-serif" font-size="medium" font-stretch="normal" font-style="normal" font-variant="normal" font-weight="normal" image-rendering="auto" letter-spacing="normal" opacity="1" overflow="visible" shape-rendering="auto" text-anchor="start" text-decoration="none" text-rendering="auto" visibility="visible" word-spacing="normal" writing-mode="lr-tb" style="line-height:normal;text-indent:0;text-align:start;text-decoration-line:none;text-decoration-style:solid;text-decoration-color:#000;text-transform:none;block-progression:tb;white-space:normal;isolation:auto;mix-blend-mode:normal;solid-color:#000;solid-opacity:1"/></g></svg>