<svg xmlns="http://www.w3.org/2000/svg" xmlns:svg="http://www.w3.org/2000/svg" id="svg7384" width="16" height="16" version="1.1"><title id="title9167">Gnome Symbolic Icon Theme</title><metadata id="metadata90"/><path id="rect3002" fill="#bebebe" fill-opacity="1" fill-rule="nonzero" stroke="none" stroke-width="1" d="M 4,1 C 3.446,1 3,1.446 3,2 L 3,4 2,4 C 0.892,4 0,4.892 0,6 l 0,5 c 0,1.108 0.892,2 2,2 l 1,0 0,3 10,0 0,-3 1,0 c 1.108,0 2,-0.892 2,-2 L 16,6 C 16,4.892 15.108,4 14,4 L 13,4 13,2 C 13,1.446 12.554,1 12,1 L 4,1 z m 0.5,1 7,0 C 11.777,2 12,2.223 12,2.5 L 12,4 4,4 4,2.5 C 4,2.223 4.223,2 4.5,2 z m -2,4 11,0 C 13.777,6 14,6.223 14,6.5 l 0,4 C 14,10.777 13.777,11 13.5,11 L 13,11 13,8 3,8 3,11 2.5,11 C 2.223,11 2,10.777 2,10.5 l 0,-4 C 2,6.223 2.223,6 2.5,6 z m 1.5,3 8,0 0,6 -8,0 0,-6 z" color="#bebebe" display="inline" enable-background="accumulate" overflow="visible" visibility="visible" style="marker:none"/><rect id="rect3830" width="6" height="1" x="5" y="9" fill="#bebebe" fill-opacity="1" fill-rule="nonzero" stroke="none" stroke-width="1" color="#bebebe" display="inline" enable-background="accumulate" opacity=".6" overflow="visible" visibility="visible" style="marker:none"/><rect id="rect3832" width="6" height="1" x="5" y="11" fill="#bebebe" fill-opacity="1" fill-rule="nonzero" stroke="none" stroke-width="1" color="#bebebe" display="inline" enable-background="accumulate" opacity=".6" overflow="visible" visibility="visible" style="marker:none"/><rect id="rect3834" width="6" height="1" x="5" y="13" fill="#bebebe" fill-opacity="1" fill-rule="nonzero" stroke="none" stroke-width="1" color="#bebebe" display="inline" enable-background="accumulate" opacity=".6" overflow="visible" visibility="visible" style="marker:none"/></svg>