<svg xmlns="http://www.w3.org/2000/svg" xmlns:svg="http://www.w3.org/2000/svg" id="svg7384" width="16" height="16" version="1.1"><title id="title9167">Gnome Symbolic Icon Theme</title><metadata id="metadata90"/><path style="marker:none" id="path3701-0-3-2-4-2-9-2-1" fill="#bebebe" fill-opacity="1" fill-rule="nonzero" stroke="none" stroke-width="1" d="m 10.000222,2.4998135 0,-2.44201997 6.074,4.51801997 -6.07389,4.499942 0,-2.575942 C 6.2339723,6.3547035 4.75273,8.6922235 8,10.999814 2.4739995,9.3330735 4.4074334,2.6809587 10.000222,2.4998135 z M 2,1 2,15 13,15 13,8.0625 12,8.8125 12,14 3,14 3,2 7.78125,2 C 8.1671756,1.8671234 8.5738448,1.7583878 9,1.6875 L 9,1 2,1 z M 12.90625,1 13,1.0625 13,1 12.90625,1 z" color="#bebebe" display="inline" enable-background="accumulate" overflow="visible" visibility="visible"/></svg>