<svg xmlns="http://www.w3.org/2000/svg" xmlns:svg="http://www.w3.org/2000/svg" id="svg7384" width="16" height="16" version="1.1"><title id="title9167">Gnome Symbolic Icon Theme</title><metadata id="metadata90"/><path id="path4463" fill="#bebebe" fill-opacity="1" fill-rule="nonzero" stroke="none" stroke-width="1" d="m 9.4226354,2.999999 a 0.51931882,0.52641945 0 0 1 0.25,0.15625 l 5.1874996,5.3125 a 0.51931882,0.52641945 0 0 1 -0.03125,0.75 L 9.7976354,13.84375 A 0.51931882,0.52641945 0 0 1 9.4538854,14 l -7.90625,0 a 0.51931882,0.52641945 0 0 1 -0.53125,-0.53125 l 0,-9.937501 a 0.51931882,0.52641945 0 0 1 0.53125,-0.53125 l 7.75,0 a 0.51931882,0.52641945 0 0 1 0.0625,0 0.51931882,0.52641945 0 0 1 0.0625,0 z m -1.34375,2.25 -1.8125,1.75 -1.78125,-1.75 -1.46875,1.46875 1.75,1.78125 -1.75,1.84375 1.46875,1.406251 1.78125,-1.750001 1.8125,1.750001 1.4375,-1.437501 -1.75,-1.8125 1.75,-1.78125 -1.4375,-1.46875 z" style="marker:none" color="#bebebe" display="inline" enable-background="accumulate" overflow="visible" visibility="visible"/></svg>