<svg xmlns="http://www.w3.org/2000/svg" xmlns:svg="http://www.w3.org/2000/svg" xmlns:xlink="http://www.w3.org/1999/xlink" id="svg7384" width="16" height="16" version="1.1"><title id="title9167">Gnome Symbolic Icon Theme</title><defs id="defs11"><linearGradient id="linearGradient3798"><stop id="stop3800" offset="0" stop-color="#bebebe" stop-opacity=".698"/><stop id="stop3802" offset="1" stop-color="#bebebe" stop-opacity="1"/></linearGradient><radialGradient id="radialGradient3804" cx="8" cy="13.706" r="5.489" fx="8" fy="13.706" gradientTransform="matrix(2.0028749,0,0,2.103321,-8.0229988,-14.848073)" gradientUnits="userSpaceOnUse" xlink:href="#linearGradient3798"/></defs><metadata id="metadata90"/><path id="path3883" fill="#bebebe" fill-opacity="1" fill-rule="nonzero" stroke="none" stroke-width="1" d="M 8 1.03125 L 0 9 L 3 9 L 3 15 L 13 15 L 13 9 L 16 9 L 13 5.96875 L 13 2 L 10 2 L 10 3.09375 L 8 1.03125 z M 8 2.46875 L 11 5.5 L 11 3 L 12 3 L 12 6.40625 L 13.5 8 L 12 8 L 12 14 L 4 14 L 4 8 L 2.5 8 L 8 2.46875 z" color="#bebebe" display="inline" enable-background="accumulate" overflow="visible" visibility="visible" style="marker:none"/><path id="path3883-5" fill="url(#radialGradient3804)" fill-opacity="1" fill-rule="nonzero" stroke="none" stroke-width="1" d="M 8,2.471888 2.5112119,8.0000001 4,8.0000001 4,14 l 8,0 0,-5.9999999 1.488788,0 L 12,6.4101402 l 0,-3.4101401 -1,0 0,2.5112119 z" color="#bebebe" display="inline" enable-background="accumulate" overflow="visible" visibility="visible" style="marker:none"/></svg>