<svg xmlns="http://www.w3.org/2000/svg" xmlns:svg="http://www.w3.org/2000/svg" id="svg7384" width="16" height="16" version="1.1"><title id="title9167">Gnome Symbolic Icon Theme</title><metadata id="metadata90"/><path id="rect2999" fill="#bebebe" fill-opacity="1" fill-rule="nonzero" stroke="none" stroke-width="1" d="M 2,2 2,6 6,6 6,2 z m 8,0 0,4 4,0 0,-4 z M 3,3 5,3 5,5 3,5 z m 8,0 2,0 0,2 -2,0 z m -9,7 0,4 4,0 0,-4 z m 8,0 0,4 4,0 0,-4 z m -7,1 2,0 0,2 -2,0 z m 8,0 2,0 0,2 -2,0 z" color="#bebebe" display="inline" enable-background="accumulate" overflow="visible" visibility="visible" style="marker:none"/></svg>