<svg xmlns="http://www.w3.org/2000/svg" xmlns:svg="http://www.w3.org/2000/svg" id="svg7384" width="16" height="16" version="1.1"><title id="title9167">Gnome Symbolic Icon Theme</title><metadata id="metadata90"/><path style="marker:none" id="rect3055" fill="#bebebe" fill-opacity="1" fill-rule="nonzero" stroke="none" stroke-width="1" d="m 10,9 0,4 4,0 0,-4 -4,0 z m 1,1 2,0 0,2 -2,0 0,-2 z m -1,-7 0,4 4,0 0,-4 -4,0 z m 1,1 2,0 0,2 -2,0 0,-2 z M 5,9 5,10 1,10 1,9 z m 0,3 0,1 -4,0 0,-1 z M 5,6 5,7 1,7 1,6 z M 5,3 5,4 1,4 1,3 z M 7,2 8,2 8,14 7,14 z" color="#bebebe" display="inline" enable-background="accumulate" overflow="visible" visibility="visible"/></svg>