<svg xmlns="http://www.w3.org/2000/svg" xmlns:svg="http://www.w3.org/2000/svg" id="svg7384" width="16" height="16" version="1.1"><title id="title9167">Gnome Symbolic Icon Theme</title><metadata id="metadata90"/><path d="m 6.9999998,1.9999999 c -1.1079996,0 -1.9999996,0.892 -1.9999996,2 l -3,0 C 0.89200019,3.9999999 1.95e-7,4.8920002 1.95e-7,6.0000002 L 1.95e-7,12 c 0,1.108 0.891999995,2 2.000000005,2 L 14,14 c 1.108,0 2,-0.892 2,-2 l 0,-5.9999998 c 0,-1.108 -0.892,-2.0000003 -2,-2.0000003 l -3,0 c 0,-1.108 -0.892,-2 -2.0000002,-2 l -2,0 z m 1,4.0000003 c 1.65685,0 3.0000002,1.34315 3.0000002,3 C 11,10.65685 9.6568498,12 7.9999998,12 6.3431498,12 5.0000002,10.65685 5.0000002,9.0000002 c 0,-1.65685 1.3431496,-3 2.9999996,-3 z m 0,2 c -0.55228,0 -1,0.44772 -1,1 0,0.55229 0.44772,0.9999998 1,0.9999998 0.55228,0 1,-0.4477098 1,-0.9999998 0,-0.55228 -0.44772,-1 -1,-1 z" style="marker:none" id="path9231-9" fill="#bebebe" fill-opacity="1" fill-rule="nonzero" stroke="none" stroke-width="1" color="#bebebe" display="inline" enable-background="accumulate" overflow="visible" visibility="visible"/></svg>