<svg xmlns="http://www.w3.org/2000/svg" xmlns:svg="http://www.w3.org/2000/svg" xmlns:xlink="http://www.w3.org/1999/xlink" id="svg4459" width="16" height="16" version="1.1"><defs id="defs4461"><linearGradient id="linearGradient4363-4" x1="100.777" x2="100.777" y1="17.859" y2="38.055" gradientTransform="matrix(-0.4100229,0,0,0.5447147,49.329265,-6.729116)" gradientUnits="userSpaceOnUse" xlink:href="#linearGradient3587-6-5-3-5"/><linearGradient id="linearGradient3587-6-5-3-5"><stop id="stop3589-9-2-2-6" offset="0" stop-color="#000" stop-opacity="1"/><stop id="stop3591-7-4-73-5" offset="1" stop-color="#363636" stop-opacity="1"/></linearGradient></defs><metadata id="metadata4464"/><g id="layer1"><path id="path4463-3" fill="#fff" fill-opacity="1" fill-rule="nonzero" stroke="none" stroke-width="1" d="m 6.59375,3.9998595 a 0.51931882,0.52641945 0 0 0 -0.25,0.15625 l -5.1875,5.3125 A 0.51931882,0.52641945 0 0 0 1.1875,10.21861 l 5.03125,4.625001 a 0.51931882,0.52641945 0 0 0 0.34375,0.15625 l 7.90625,0 A 0.51931882,0.52641945 0 0 0 15,14.468611 l 0,-9.9375015 a 0.51931882,0.52641945 0 0 0 -0.53125,-0.53125 l -7.75,0 a 0.51931882,0.52641945 0 0 0 -0.0625,0 0.51931882,0.52641945 0 0 0 -0.0625,0 z m 1.34375,2.25 1.8125,1.75 1.78125,-1.75 L 13,7.7186095 11.25,9.4998595 13,11.343611 11.53125,12.749861 9.75,10.99986 7.9375,12.749861 6.5,11.312361 8.25,9.4998595 6.5,7.7186095 7.9375,6.2498595 z" color="#000" display="inline" enable-background="accumulate" opacity=".6" overflow="visible" visibility="visible" style="marker:none"/><path id="path4463" fill="url(#linearGradient4363-4)" fill-opacity="1" fill-rule="nonzero" stroke="none" stroke-width="1" d="m 6.59375,2.999999 a 0.51931882,0.52641945 0 0 0 -0.25,0.15625 l -5.1875,5.3125 a 0.51931882,0.52641945 0 0 0 0.03125,0.75 L 6.21875,13.84375 A 0.51931882,0.52641945 0 0 0 6.5625,14 l 7.90625,0 A 0.51931882,0.52641945 0 0 0 15,13.46875 l 0,-9.937501 a 0.51931882,0.52641945 0 0 0 -0.53125,-0.53125 l -7.75,0 a 0.51931882,0.52641945 0 0 0 -0.0625,0 0.51931882,0.52641945 0 0 0 -0.0625,0 z m 1.34375,2.25 1.8125,1.75 1.78125,-1.75 L 13,6.718749 11.25,8.499999 13,10.343749 11.53125,11.75 9.75,9.999999 7.9375,11.75 6.5,10.312499 8.25,8.499999 6.5,6.718749 7.9375,5.249999 z" color="#000" display="inline" enable-background="accumulate" opacity=".7" overflow="visible" visibility="visible" style="marker:none"/></g></svg>