<svg xmlns="http://www.w3.org/2000/svg" xmlns:svg="http://www.w3.org/2000/svg" xmlns:xlink="http://www.w3.org/1999/xlink" id="svg4118" width="48" height="48" version="1.1"><defs id="defs4120"><linearGradient id="linearGradient3988" x1="24.744" x2="24.744" y1="35.527" y2=".094" gradientUnits="userSpaceOnUse" xlink:href="#linearGradient3707-319-631-407-324-84"/><linearGradient id="linearGradient3707-319-631-407-324-84"><stop id="stop3760-5" offset="0" stop-color="#134977" stop-opacity="1"/><stop id="stop3762-0" offset="1" stop-color="#3981ae" stop-opacity="1"/></linearGradient><linearGradient id="linearGradient4012" x1="24.744" x2="24.744" y1="35.527" y2=".094" gradientUnits="userSpaceOnUse" xlink:href="#linearGradient3707-319-631-407-324-84-9"/><linearGradient id="linearGradient3707-319-631-407-324-84-9"><stop id="stop3760-5-1" offset="0" stop-color="#134977" stop-opacity="1"/><stop id="stop3762-0-2" offset="1" stop-color="#3981ae" stop-opacity="1"/></linearGradient><linearGradient id="linearGradient4012-0" x1="24.744" x2="24.744" y1="35.527" y2=".094" gradientUnits="userSpaceOnUse" xlink:href="#linearGradient3707-319-631-407-324-84-7"/><linearGradient id="linearGradient3707-319-631-407-324-84-7"><stop id="stop3760-5-4" offset="0" stop-color="#134977" stop-opacity="1"/><stop id="stop3762-0-3" offset="1" stop-color="#3981ae" stop-opacity="1"/></linearGradient><linearGradient id="linearGradient3568" x1="16.626" x2="20.055" y1="15.298" y2="24.628" gradientTransform="matrix(0.82498024,0,0,1.3012336,4.1618797,-1.4329213)" gradientUnits="userSpaceOnUse" xlink:href="#linearGradient8265-821-176-38-919-66-249-7-7"/><linearGradient id="linearGradient8265-821-176-38-919-66-249-7-7"><stop id="stop2687-1-9" offset="0" stop-color="#fff" stop-opacity="1"/><stop id="stop2689-5-4" offset="1" stop-color="#fff" stop-opacity="0"/></linearGradient><linearGradient id="linearGradient2959" x1="24" x2="24" y1="5" y2="43" gradientTransform="translate(3.7e-6,1.0000099)" gradientUnits="userSpaceOnUse" xlink:href="#linearGradient3924"/><linearGradient id="linearGradient3924"><stop id="stop3926" offset="0" stop-color="#fff" stop-opacity="1"/><stop id="stop3928" offset=".063" stop-color="#fff" stop-opacity=".235"/><stop id="stop3930" offset=".951" stop-color="#fff" stop-opacity=".157"/><stop id="stop3932" offset="1" stop-color="#fff" stop-opacity=".392"/></linearGradient><radialGradient id="radialGradient3954" cx="7.496" cy="8.45" r="20" fx="7.496" fy="8.45" gradientTransform="matrix(1.9430725e-8,2.3372616,-2.472544,-4.3061278e-8,44.892538,-61.439028)" gradientUnits="userSpaceOnUse" xlink:href="#linearGradient2867-449-88-871-390-598-476-591-434-148-57-177-1"/><linearGradient id="linearGradient2867-449-88-871-390-598-476-591-434-148-57-177-1"><stop id="stop3752-9" offset="0" stop-color="#55c1ec" stop-opacity="1"/><stop id="stop3754-4" offset=".705" stop-color="#1559a6" stop-opacity="1"/><stop id="stop3756-7" offset="1" stop-color="#1f4773" stop-opacity="1"/></linearGradient><linearGradient id="linearGradient3956" x1="24" x2="24" y1="44" y2="3.899" gradientTransform="matrix(1.0001162,0,0,1.0001162,-0.00278,-49.002784)" gradientUnits="userSpaceOnUse" xlink:href="#linearGradient3707-319-631-407-324-84"/><radialGradient id="radialGradient3013" cx="4.993" cy="43.5" r="2.5" fx="4.993" fy="43.5" gradientTransform="matrix(2.003784,0,0,1.4,27.98813,-17.4)" gradientUnits="userSpaceOnUse" xlink:href="#linearGradient3688-166-749"/><linearGradient id="linearGradient3688-166-749"><stop id="stop2883" offset="0" stop-color="#181818" stop-opacity="1"/><stop id="stop2885" offset="1" stop-color="#181818" stop-opacity="0"/></linearGradient><radialGradient id="radialGradient3015" cx="4.993" cy="43.5" r="2.5" fx="4.993" fy="43.5" gradientTransform="matrix(2.003784,0,0,1.4,-20.01187,-104.4)" gradientUnits="userSpaceOnUse" xlink:href="#linearGradient3688-464-309"/><linearGradient id="linearGradient3688-464-309"><stop id="stop2889" offset="0" stop-color="#181818" stop-opacity="1"/><stop id="stop2891" offset="1" stop-color="#181818" stop-opacity="0"/></linearGradient><linearGradient id="linearGradient3702-501-757"><stop id="stop2895" offset="0" stop-color="#181818" stop-opacity="0"/><stop id="stop2897" offset=".5" stop-color="#181818" stop-opacity="1"/><stop id="stop2899" offset="1" stop-color="#181818" stop-opacity="0"/></linearGradient><linearGradient id="linearGradient4116" x1="25.058" x2="25.058" y1="47.028" y2="39.999" gradientUnits="userSpaceOnUse" xlink:href="#linearGradient3702-501-757"/></defs><metadata id="metadata4123"/><g id="layer1"><g id="g3712" opacity=".4" transform="matrix(1.1578952,0,0,0.57142859,-3.789484,19.142856)"><rect id="rect2801" width="5" height="7" x="38" y="40" fill="url(#radialGradient3013)" fill-opacity="1" stroke="none"/><rect id="rect3696" width="5" height="7" x="-10" y="-47" fill="url(#radialGradient3015)" fill-opacity="1" stroke="none" transform="scale(-1,-1)"/><rect id="rect3700" width="28" height="7" x="10" y="40" fill="url(#linearGradient4116)" fill-opacity="1" stroke="none"/></g><rect id="rect5505-21-6" width="39.005" height="39.005" x="4.498" y="-44.502" fill="url(#radialGradient3954)" fill-opacity="1" fill-rule="nonzero" stroke="url(#linearGradient3956)" stroke-dasharray="none" stroke-dashoffset="0" stroke-linecap="round" stroke-linejoin="round" stroke-miterlimit="4" stroke-opacity="1" stroke-width="1" color="#000" display="inline" enable-background="accumulate" overflow="visible" rx="2" ry="2" transform="scale(1,-1)" visibility="visible" style="marker:none"/><rect id="rect6741" width="37" height="37" x="5.5" y="6.5" fill="none" stroke="url(#linearGradient2959)" stroke-dasharray="none" stroke-dashoffset="0" stroke-linecap="round" stroke-linejoin="round" stroke-miterlimit="4" stroke-opacity="1" stroke-width="1" opacity=".4" rx="1" ry="1"/><path id="path3333" fill="url(#linearGradient3568)" fill-opacity="1" fill-rule="evenodd" stroke="none" d="M 6.2169167,5.9999999 C 5.5377266,5.9999999 5,6.9124651 5,7.7999999 L 5.0126445,30 C 6.1058123,29.975834 42.170261,21.153092 43,20.728709 L 43,7.7999999 c 0,-0.6784043 -0.531183,-1.8 -1.11929,-1.8 l -35.6637886,0 z" opacity=".2"/><path id="path3986-9" fill="url(#linearGradient4012-0)" fill-opacity="1" fill-rule="nonzero" stroke="none" stroke-width=".985" d="m 27.875,10.0625 c -0.35363,0.03148 -0.558107,0.145379 -0.71875,0.1875 -0.321287,0.08424 -0.477447,0.15077 -0.65625,0.21875 -0.210697,0.08011 -0.402623,0.250439 -0.5625,0.3125 -0.182151,0.017 -0.451691,-0.06463 -0.59375,-0.03125 -0.8817,0.207155 -1.203621,0.493581 -1.5,0.71875 -0.592757,0.450338 -0.940158,0.856546 -1.3125,1.3125 C 21.786567,13.693159 21.077496,14.782059 20.5,16 20.311132,16.398322 20.136719,16.952646 19.9375,17.4375 19.61608,17.296317 19.411853,17.11146 18.96875,17 18.476049,16.876064 17.721965,16.624924 16.5,17.21875 c -0.482483,0.234467 -0.81045,0.738275 -1.125,1.21875 -0.20088,0.114743 -0.396426,0.134025 -0.59375,0.3125 -0.332946,0.301143 -0.514473,0.695185 -0.6875,1.0625 -0.288366,-0.0185 -0.48277,-0.09216 -0.875,-0.03125 -0.841092,0.130607 -2.42486,0.921928 -2.9375,2.375 -0.05356,0.151682 0.0011,0.234219 -0.03125,0.375 C 10.120929,22.698134 9.9935047,22.772449 9.875,23 9.4380579,23.83901 9.5369446,24.748308 9.75,25.5 c 0.0047,1.391545 0.545231,1.875858 0.78125,2.15625 0.08194,0.09734 0.06151,0.05703 0.125,0.125 l -0.5,-0.25 A 3.2795499,3.2795499 0 0 0 6.5,32.90625 l 1.375,1.28125 a 3.2795499,3.2795499 0 0 0 0.03125,0 c 2.108942,1.953253 4.717872,3.396087 7.5,4.125 2.943839,0.771285 6.426366,0.810213 9.375,0.09375 1.290952,-0.313675 2.690012,-0.86038 3.96875,-1.46875 4.08604,-1.94397 7.358511,-5.492054 8.625,-9.71875 0.187571,-0.07904 0.491995,-0.102481 0.6875,-0.1875 0.769501,-0.334634 1.376477,-0.373841 2.4375,-1.65625 0.190248,-0.229947 0.763894,-0.478379 0.84375,-2.125 0.01282,-0.26444 -0.237506,-0.512603 -0.3125,-0.8125 0.03405,-0.07747 0.05953,-0.06473 0.09375,-0.15625 0.268758,-0.718796 0.237952,-2.574863 -0.8125,-3.59375 -1.035752,-1.004468 -1.442581,-0.854094 -1.71875,-0.90625 -0.276169,-0.05216 -0.426229,-0.05678 -0.5625,-0.0625 -0.272542,-0.01143 -0.458511,0.01814 -0.65625,0.03125 -0.237287,0.01573 -0.498792,0.05986 -0.75,0.09375 -0.468454,-0.877175 -1.018292,-1.607674 -1.65625,-2.28125 -0.546834,-0.577364 -1.285396,-0.992632 -1.9375,-1.46875 -0.02804,-0.827386 -0.418442,-1.838228 -1.0625,-2.46875 -0.667937,-0.653899 -1.401885,-0.89848 -1.96875,-1 -0.09713,-0.0174 -0.127234,0.04264 -0.21875,0.03125 -0.110785,-0.0713 -0.199899,-0.200593 -0.3125,-0.25 C 28.726361,10.080506 28.22863,10.031016 27.875,10.0625 z M 28,10.75 c 0.05287,-0.0043 0.187796,0.06086 0.25,0.0625 -0.243331,0.06438 -0.584867,0.0072 -0.8125,0.09375 C 27.520432,10.88441 27.682785,10.775951 28,10.75 z m -2.625,0.34375 c -0.224313,0.129507 -0.386338,0.104436 -0.75,0.40625 0.06475,-0.05374 0.328961,-0.241335 0.75,-0.40625 z m 2.5,0.25 c 0.622627,0.354498 1.062161,0.785259 1.15625,0.9375 -0.228699,-0.370043 -0.7195,-0.643237 -1.15625,-0.9375 z m 8.1875,16.1875 c -0.04125,0.01524 -0.0874,0.08279 -0.125,0.09375 -0.407296,0.118732 -0.583132,0.09366 -0.59375,0.09375 0.363691,-0.003 0.447635,-0.145856 0.71875,-0.1875 z" color="#000" display="inline" enable-background="accumulate" opacity=".05" overflow="visible" visibility="visible" style="marker:none"/><path id="path3986-4" fill="url(#linearGradient4012)" fill-opacity="1" fill-rule="nonzero" stroke="none" stroke-width=".985" d="m 27.9375,10.90625 c -0.270418,0.02395 -0.432478,0.122158 -0.5625,0.15625 -0.260043,0.06818 -0.424465,0.123138 -0.59375,0.1875 -0.233408,0.08874 -0.441491,0.263054 -0.625,0.34375 -0.204594,0.0061 -0.474957,-0.0665 -0.625,-0.03125 -0.675027,0.158597 -0.940544,0.406129 -1.1875,0.59375 -0.493911,0.375241 -0.808325,0.730196 -1.15625,1.15625 -0.695849,0.852108 -1.396945,1.922469 -1.9375,3.0625 -0.276228,0.582564 -0.550822,1.391091 -0.84375,2.15625 -0.439461,-0.307668 -0.920548,-0.54155 -1.625,-0.71875 -0.393744,-0.09904 -0.982194,-0.292804 -1.90625,0.15625 -0.462028,0.224527 -0.842132,0.675737 -1.09375,1.15625 -0.148238,0.08549 -0.292207,0.118586 -0.4375,0.25 -0.415725,0.376015 -0.609342,0.868902 -0.71875,1.3125 -0.377415,-0.06899 -0.741214,-0.146358 -1.28125,-0.0625 -0.671501,0.104272 -1.888602,0.699544 -2.28125,1.8125 -0.06224,0.176275 -0.0057,0.280491 -0.03125,0.4375 -0.142347,0.15584 -0.278251,0.254218 -0.40625,0.5 -0.364229,0.699387 -0.234364,1.489048 -0.03125,2.0625 -7.13e-4,0.02211 -0.03132,0.04078 -0.03125,0.0625 0.0035,1.039435 0.413993,1.380198 0.59375,1.59375 0.359514,0.427105 0.493609,0.466423 0.625,0.5625 0.221315,0.161836 0.435246,0.308902 0.6875,0.4375 0.252254,0.128598 0.279988,0.34375 1.375,0.34375 -0.624684,0 -0.564546,-0.08456 -0.59375,-0.09375 -0.0292,-0.0092 0.0066,0.0093 0.0625,0.03125 0.111793,0.04393 0.31865,0.14001 0.5625,0.25 0.375396,0.169325 0.855008,0.417508 1.34375,0.65625 -0.0043,0.0023 -0.02773,0.02953 -0.03125,0.03125 -1.281192,0.626829 -2.009632,0.623301 -3.71875,-0.21875 a 2.4419816,2.4419816 0 0 0 -0.03125,0 L 9.8125,28.3125 a 2.4419816,2.4419816 0 0 0 -2.71875,3.96875 l 1.375,1.28125 c 1.99543,1.848121 4.518568,3.246432 7.15625,3.9375 2.7219,0.713137 6.223221,0.753269 8.9375,0.09375 1.166591,-0.283458 2.625687,-0.826747 3.84375,-1.40625 3.97203,-1.889728 7.240113,-5.576597 8.3125,-9.65625 0.301874,-0.103088 0.702173,-0.120484 1,-0.25 0.707339,-0.307601 1.28463,-0.421784 2.125,-1.4375 0.157746,-0.190662 0.596184,-0.386438 0.65625,-1.625 0.01429,-0.294632 -0.22272,-0.576765 -0.34375,-0.90625 0.06652,-0.117583 0.120313,-0.132807 0.1875,-0.3125 0.204646,-0.547327 0.164385,-1.953085 -0.625,-2.71875 C 38.945565,18.531418 38.649202,18.664981 38.4375,18.625 38.225798,18.585019 38.11117,18.567164 38,18.5625 c -0.22234,-0.0093 -0.384145,-0.01182 -0.5625,0 -0.356711,0.02365 -0.737563,0.08346 -1.15625,0.15625 -0.199166,0.03462 -0.01914,0.05857 -0.125,0.0625 -0.438054,-1.062686 -1.076515,-1.879174 -1.8125,-2.65625 -0.63814,-0.673769 -1.399718,-1.18525 -2.1875,-1.6875 0.0083,-0.115775 0.0625,-0.112762 0.0625,-0.25 0,-0.651425 -0.299963,-1.466985 -0.8125,-1.96875 -0.512537,-0.501765 -1.081846,-0.700766 -1.53125,-0.78125 -0.195782,-0.03506 -0.296325,0.06846 -0.46875,0.0625 -0.124706,-0.09304 -0.151834,-0.286965 -0.28125,-0.34375 -0.556943,-0.244374 -0.917082,-0.273947 -1.1875,-0.25 z m 0.09375,0.6875 c 0.03146,-0.0026 0.120052,0.03095 0.15625,0.03125 -0.119908,0.03714 -0.28903,0.01865 -0.40625,0.0625 0.06417,-0.031 0.09527,-0.08101 0.25,-0.09375 z M 25.625,11.875 c -0.157532,0.102508 -0.256771,0.105323 -0.46875,0.28125 0.03015,-0.02503 0.197797,-0.166149 0.46875,-0.28125 z m 1.84375,0.15625 c 0.200799,0.110438 0.374483,0.161739 0.5,0.28125 0.168315,0.16026 0.309022,0.350058 0.34375,0.40625 -0.05556,-0.08989 -0.205137,-0.129464 -0.28125,-0.21875 -0.156382,-0.183447 -0.34661,-0.320857 -0.5625,-0.46875 z m 8.28125,14.75 c -0.01755,0.006 -0.0461,0.02647 -0.0625,0.03125 -0.282654,0.0824 -0.367909,0.0627 -0.34375,0.0625 0.189525,-0.0016 0.244397,-0.07732 0.40625,-0.09375 z" color="#000" display="inline" enable-background="accumulate" opacity=".1" overflow="visible" visibility="visible" style="marker:none"/><path id="path3986" fill="url(#linearGradient3988)" fill-opacity="1" fill-rule="nonzero" stroke="none" stroke-width=".985" d="m 27.65625,12.125 c -0.179307,0.04702 -0.312013,0.09666 -0.46875,0.15625 -0.269109,0.102315 -0.487962,0.280557 -0.71875,0.40625 -0.26387,-0.05624 -0.517134,-0.07128 -0.6875,-0.03125 C 25.378674,12.750835 25.181803,12.893128 25,13.03125 24.636395,13.307493 24.378236,13.613363 24.0625,14 23.431028,14.773275 22.741856,15.806426 22.25,16.84375 21.806362,17.779382 21.211243,19.278292 20.84375,20.4375 20.08369,19.663601 19.421607,19.106824 18.5,18.875 c -0.263293,-0.06623 -0.62492,-0.164455 -1.15625,0.09375 -0.355489,0.172753 -0.403821,0.598742 -0.53125,0.96875 -0.234033,0.03199 -0.487987,0.01301 -0.75,0.25 -0.373484,0.337809 -0.480841,0.860133 -0.46875,1.15625 0.0048,0.118447 0.04306,0.163028 0.0625,0.25 -0.02524,0.03884 -0.07383,0.05318 -0.09375,0.09375 -0.104597,0.213066 0.01239,0.249758 0,0.40625 -0.27346,-0.08913 -0.62352,-0.25921 -0.875,-0.3125 -0.386611,-0.08192 -0.739567,-0.132056 -1.1875,-0.0625 -0.447933,0.06956 -1.140534,0.429159 -1.375,1.09375 -0.102305,0.289748 0.02538,0.391375 0.0625,0.59375 -0.195126,0.09698 -0.409502,0.146209 -0.59375,0.5 -0.263093,0.505187 -0.113609,1.163696 0.0625,1.4375 0.02348,0.03651 0.03983,0.0315 0.0625,0.0625 -0.0027,0.03219 -0.03135,0.06283 -0.03125,0.09375 0.0019,0.575257 0.206912,0.780811 0.3125,0.90625 0.211176,0.250878 0.325828,0.293342 0.4375,0.375 0.170898,0.124969 0.341567,0.2158 0.53125,0.3125 0.189683,0.0967 0.248102,0.25 0.875,0.25 -0.18168,0 -0.13336,0.0094 -0.15625,0 0.141077,0.05543 0.37131,0.166821 0.625,0.28125 0.50738,0.228857 1.165518,0.522041 1.8125,0.84375 0.44054,0.219056 0.810217,0.426426 1.1875,0.625 -0.556501,0.50559 -1.325619,1.056988 -1.65625,1.21875 -1.556683,0.761614 -2.776436,0.722796 -4.6875,-0.21875 a 1.3378351,1.3378351 0 0 0 0,-0.03125 l -1.625,-0.78125 a 1.3378351,1.3378351 0 0 0 -1.5,2.1875 l 1.375,1.28125 c 1.84579,1.709528 4.240238,3.015071 6.6875,3.65625 2.429321,0.636481 6.000915,0.709452 8.40625,0.125 1.002649,-0.243623 2.455673,-0.802301 3.59375,-1.34375 3.835754,-1.824894 7.228859,-5.74596 7.96875,-9.5625 0.483776,-0.08657 0.959898,-0.180895 1.40625,-0.375 C 37.906642,24.978035 38.450511,24.789141 39,24.125 39.114898,23.986126 39.372272,23.856878 39.40625,23.15625 39.422803,22.814925 39.234383,22.375486 39,22.125 c -0.0062,-0.0066 0.0063,-0.02495 0,-0.03125 0.09805,-0.112894 0.21616,-0.211087 0.3125,-0.46875 0.120128,-0.321284 0.101477,-1.130651 -0.34375,-1.5625 -0.42705,-0.414151 -0.623283,-0.351069 -0.75,-0.375 -0.126717,-0.02393 -0.20317,-0.02797 -0.28125,-0.03125 -0.15616,-0.0066 -0.284698,0.02112 -0.4375,0.03125 -0.305605,0.02026 -0.648867,0.05852 -1.03125,0.125 -0.744812,0.129485 -1.090665,0.05035 -1.0625,0.0625 0.02817,0.01215 0.05644,0.146993 -0.0625,-0.25 -0.312591,-1.043335 -0.986545,-1.879675 -1.78125,-2.71875 -0.778511,-0.821976 -1.648127,-1.577416 -2.59375,-2.03125 0.08265,-0.148747 0.15625,-0.310467 0.15625,-0.6875 0,-0.400233 -0.192325,-0.886291 -0.5,-1.1875 -0.307675,-0.301209 -0.642942,-0.415997 -0.9375,-0.46875 -0.235089,-0.0421 -0.417986,0.04388 -0.625,0.0625 -0.135072,-0.151845 -0.211529,-0.334523 -0.375,-0.40625 -0.624948,-0.274213 -0.851943,-0.109515 -1.03125,-0.0625 z" color="#000" display="inline" enable-background="accumulate" opacity=".25" overflow="visible" visibility="visible" style="marker:none"/><path id="path3060" fill="#f7f7f7" fill-opacity="1" fill-rule="nonzero" stroke="#fff" stroke-dasharray="none" stroke-dashoffset="0" stroke-linecap="butt" stroke-linejoin="miter" stroke-miterlimit="4" stroke-opacity="1" stroke-width=".985" d="m 23.985774,35.213901 c 0.804009,-0.195358 2.313693,-0.760476 3.354855,-1.255817 3.415205,-1.624814 6.669318,-5.5268 7.246518,-8.689253 0.130267,-0.713713 0.237884,-0.835867 0.740094,-0.840047 0.709611,-0.0059 2.260109,-0.683345 2.654195,-1.159658 0.251928,-0.304498 0.114367,-0.345289 -1.189795,-0.352815 -0.811061,-0.0047 -1.525623,-0.05947 -1.587917,-0.121768 -0.06229,-0.06229 0.296131,-0.223499 0.796501,-0.358235 0.881493,-0.237361 2.256242,-1.194327 2.03041,-1.413373 -0.06125,-0.0594 -0.665097,-0.01174 -1.341886,0.105921 -1.678416,0.291792 -2.285998,0.03406 -2.630519,-1.115854 -0.369235,-1.232397 -2.32039,-3.317165 -3.71036,-3.964445 -0.61282,-0.285378 -1.515094,-0.52562 -2.005053,-0.533873 l -0.890834,-0.015 1.16922,-0.531337 c 0.64307,-0.292236 1.169219,-0.640374 1.169219,-0.77364 0,-0.383507 -0.537605,-0.489631 -1.201568,-0.237193 -0.555176,0.211077 -0.597484,0.191777 -0.468746,-0.21384 0.129169,-0.406971 0.08742,-0.425291 -0.478718,-0.210048 -0.341125,0.129696 -0.756423,0.348843 -0.922884,0.486994 -0.226703,0.188148 -0.34606,0.18096 -0.475598,-0.02864 -0.269039,-0.435315 -1.920232,1.587964 -2.785931,3.413725 -0.409857,0.864388 -1.018359,2.448528 -1.352228,3.520313 -0.333868,1.071784 -0.639658,1.948698 -0.679532,1.948698 -0.03987,0 -0.595961,-0.553484 -1.235749,-1.229965 -1.620538,-1.713476 -3.126198,-2.069436 -1.888248,-0.44641 0.69864,0.915966 0.655,0.948243 -0.42248,0.312515 -1.00487,-0.59289 -1.23683,-0.394813 -0.57923,0.494636 l 0.50589,0.684258 -0.48511,-0.259624 c -0.89323,-0.478042 -0.72861,-0.03648 0.45166,1.211473 0.6437,0.680622 1.11535,1.237493 1.0481,1.237493 -0.0673,0 -0.97778,-0.410503 -2.02341,-0.912229 -1.92402,-0.923211 -3.25035,-1.200403 -3.42157,-0.715082 -0.0516,0.146142 0.28853,0.470715 0.75575,0.721273 l 0.84949,0.455561 -1.05359,-0.03887 c -1.42626,-0.05261 -1.54216,0.168729 -0.3708,0.708155 l 0.97897,0.450829 -0.85785,-0.07004 c -0.7543,-0.06159 -0.80964,-0.0348 -0.45852,0.221949 0.21962,0.160597 0.49702,0.291993 0.61644,0.291993 0.39532,0 5.48817,2.518002 5.48817,2.713458 0,0.47042 -1.94386,2.232721 -3.07103,2.784191 -1.89048,0.924926 -3.71547,0.863055 -5.87122,-0.199043 l -1.6364,-0.806225 1.39289,1.290068 c 1.66448,1.541603 3.8993,2.763713 6.11584,3.344443 2.07482,0.543602 5.701561,0.587866 7.732564,0.09437 z" color="#000" display="inline" enable-background="accumulate" overflow="visible" visibility="visible" style="marker:none"/></g></svg>