<svg xmlns="http://www.w3.org/2000/svg" xmlns:svg="http://www.w3.org/2000/svg" xmlns:xlink="http://www.w3.org/1999/xlink" id="svg4247" width="128" height="128" version="1.1"><defs id="defs4249"><radialGradient id="radialGradient3338" cx="21.172" cy="25.536" r="16" fx="21.172" fy="25.536" gradientTransform="matrix(1.1563548,1.7750479e-8,-2.3661307e-8,1.5414157,-2.9825321,-12.701774)" gradientUnits="userSpaceOnUse" xlink:href="#linearGradient3827"/><linearGradient id="linearGradient3827"><stop id="stop3829" offset="0" stop-color="#fff" stop-opacity="1"/><stop id="stop3835" offset=".823" stop-color="#fff" stop-opacity="1"/><stop id="stop3831" offset="1" stop-color="#fff" stop-opacity="0"/></linearGradient><linearGradient id="linearGradient3988" x1="24" x2="24" y1="5.564" y2="43" gradientTransform="matrix(0.89189189,0,0,1.1351351,2.5945999,-4.7432315)" gradientUnits="userSpaceOnUse" xlink:href="#linearGradient3977"/><linearGradient id="linearGradient3977"><stop id="stop3979" offset="0" stop-color="#fff" stop-opacity="1"/><stop id="stop3981" offset=".036" stop-color="#fff" stop-opacity=".235"/><stop id="stop3983" offset=".951" stop-color="#fff" stop-opacity=".157"/><stop id="stop3985" offset="1" stop-color="#fff" stop-opacity=".392"/></linearGradient><radialGradient id="radialGradient3350-4" cx="15.951" cy="8.6" r="18" fx="15.951" fy="8.6" gradientTransform="matrix(-1.8296896e-8,2.5204536,-2.2447219,-1.6295259e-8,43.307494,-27.461211)" gradientUnits="userSpaceOnUse" xlink:href="#linearGradient2867-449-88-871-390-598-476-591-434-148-57-177-7"/><linearGradient id="linearGradient2867-449-88-871-390-598-476-591-434-148-57-177-7"><stop id="stop3750-6" offset="0" stop-color="#90dbec" stop-opacity="1"/><stop id="stop3752-3" offset=".262" stop-color="#55c1ec" stop-opacity="1"/><stop id="stop3754-1" offset=".705" stop-color="#3689e6" stop-opacity="1"/><stop id="stop3756-7" offset="1" stop-color="#2b63a0" stop-opacity="1"/></linearGradient><linearGradient id="linearGradient3352-5" x1="-51.786" x2="-51.786" y1="53.624" y2="2.906" gradientTransform="matrix(0.8074968,0,0,0.8948322,59.410231,-2.9833171)" gradientUnits="userSpaceOnUse" xlink:href="#linearGradient3707-319-631-407-324-9"/><linearGradient id="linearGradient3707-319-631-407-324-9"><stop id="stop3760-6" offset="0" stop-color="#185f9a" stop-opacity="1"/><stop id="stop3762-2" offset="1" stop-color="#599ec9" stop-opacity="1"/></linearGradient><radialGradient id="radialGradient3327" cx="605.714" cy="486.648" r="117.143" fx="605.714" fy="486.648" gradientTransform="matrix(0.02303995,0,0,0.01470022,26.360882,37.040176)" gradientUnits="userSpaceOnUse" xlink:href="#linearGradient5060"/><linearGradient id="linearGradient5060"><stop id="stop5062" offset="0" stop-color="#000" stop-opacity="1"/><stop id="stop5064" offset="1" stop-color="#000" stop-opacity="0"/></linearGradient><radialGradient id="radialGradient3330" cx="605.714" cy="486.648" r="117.143" fx="605.714" fy="486.648" gradientTransform="matrix(-0.02303994,0,0,0.01470022,21.62311,37.040176)" gradientUnits="userSpaceOnUse" xlink:href="#linearGradient5060"/><linearGradient id="linearGradient5048"><stop id="stop5050" offset="0" stop-color="#000" stop-opacity="0"/><stop id="stop5056" offset=".5" stop-color="#000" stop-opacity="1"/><stop id="stop5052" offset="1" stop-color="#000" stop-opacity="0"/></linearGradient><linearGradient id="linearGradient4245" x1="302.857" x2="302.857" y1="366.648" y2="609.505" gradientTransform="matrix(0.06732488,0,0,0.01470022,-0.3411391,37.040146)" gradientUnits="userSpaceOnUse" xlink:href="#linearGradient5048"/><linearGradient id="linearGradient3812" x1="302.857" x2="302.857" y1="366.648" y2="609.505" gradientTransform="matrix(0.06732488,0,0,0.01470022,-0.3411391,37.040146)" gradientUnits="userSpaceOnUse" xlink:href="#linearGradient5048"/><radialGradient id="radialGradient3814" cx="605.714" cy="486.648" r="117.143" fx="605.714" fy="486.648" gradientTransform="matrix(-0.02303994,0,0,0.01470022,21.62311,37.040176)" gradientUnits="userSpaceOnUse" xlink:href="#linearGradient5060"/><radialGradient id="radialGradient3816" cx="605.714" cy="486.648" r="117.143" fx="605.714" fy="486.648" gradientTransform="matrix(0.02303995,0,0,0.01470022,26.360882,37.040176)" gradientUnits="userSpaceOnUse" xlink:href="#linearGradient5060"/><radialGradient id="radialGradient3818" cx="15.951" cy="8.6" r="18" fx="15.951" fy="8.6" gradientTransform="matrix(-1.8296896e-8,2.5204536,-2.2447219,-1.6295259e-8,43.307494,-27.461211)" gradientUnits="userSpaceOnUse" xlink:href="#linearGradient2867-449-88-871-390-598-476-591-434-148-57-177-7"/><linearGradient id="linearGradient3820" x1="-51.786" x2="-51.786" y1="53.624" y2="2.906" gradientTransform="matrix(0.8074968,0,0,0.8948322,59.410231,-2.9833171)" gradientUnits="userSpaceOnUse" xlink:href="#linearGradient3707-319-631-407-324-9"/><linearGradient id="linearGradient3822" x1="24" x2="24" y1="5.564" y2="43" gradientTransform="matrix(0.89189189,0,0,1.1351351,2.5945999,-4.7432315)" gradientUnits="userSpaceOnUse" xlink:href="#linearGradient3977"/><radialGradient id="radialGradient3824" cx="21.172" cy="25.536" r="16" fx="21.172" fy="25.536" gradientTransform="matrix(1.1563548,1.7750479e-8,-2.3661307e-8,1.5414157,-2.9825321,-12.701774)" gradientUnits="userSpaceOnUse" xlink:href="#linearGradient3827"/></defs><metadata id="metadata4252"/><g id="g3796" transform="matrix(0.95833333,0,0,0.95833333,6.5000002,-1.1666664)"><g id="layer1" transform="matrix(2.5,0,0,2.5,0,8)"><rect id="rect2879" width="32.508" height="3.57" x="7.738" y="42.43" fill="url(#linearGradient3812)" fill-opacity="1" fill-rule="nonzero" stroke="none" stroke-width="1" display="inline" opacity=".3" overflow="visible" visibility="visible" style="marker:none"/><path id="path2881" fill="url(#radialGradient3814)" fill-opacity="1" fill-rule="nonzero" stroke="none" stroke-width="1" d="m 7.7378475,42.430102 c 0,0 0,3.569856 0,3.569856 -1.1865002,0.0067 -2.8683795,-0.799823 -2.8683795,-1.785158 0,-0.985333 1.3240446,-1.784697 2.8683795,-1.784698 z" display="inline" opacity=".3" overflow="visible" visibility="visible" style="marker:none"/><path id="path2883" fill="url(#radialGradient3816)" fill-opacity="1" fill-rule="nonzero" stroke="none" stroke-width="1" d="m 40.246148,42.430102 c 0,0 0,3.569856 0,3.569856 1.1865,0.0067 2.86838,-0.799823 2.86838,-1.785158 0,-0.985333 -1.324045,-1.784697 -2.86838,-1.784698 z" display="inline" opacity=".3" overflow="visible" visibility="visible" style="marker:none"/><path id="path4160" fill="url(#radialGradient3818)" fill-opacity="1" fill-rule="nonzero" stroke="url(#linearGradient3820)" stroke-dasharray="none" stroke-dashoffset="0" stroke-linecap="butt" stroke-linejoin="round" stroke-miterlimit="4" stroke-opacity="1" stroke-width="1" d="m 6.4999609,0.49996093 c 8.0202951,0 35.0000391,0.002801 35.0000391,0.002801 l 4.2e-5,43.99727707 c 0,0 -23.333387,0 -35.0000811,0 0,-14.666693 0,-29.333386 0,-44.00007779 z" color="#000" display="inline" enable-background="accumulate" overflow="visible" visibility="visible" style="marker:none"/><path id="rect6741-1" fill="none" stroke="url(#linearGradient3822)" stroke-dasharray="none" stroke-dashoffset="0" stroke-linecap="round" stroke-linejoin="round" stroke-miterlimit="4" stroke-opacity="1" stroke-width="1" d="m 40.5,43.5 -33,0 0,-41.9999999 33,0 z" opacity=".5"/><path id="path3318" fill="none" stroke="url(#radialGradient3824)" stroke-dasharray="none" stroke-linecap="square" stroke-linejoin="round" stroke-miterlimit="4" stroke-opacity="1" stroke-width=".963" d="m 33.518499,6.5157354 -25.0369991,-0.037 m 3.0369991,-3.9999994 -0.037,41.036998 m 25,2e-6 0.037,-36.6049992 m -20,-4.4320008 -0.037,41.036998 m 5.037,-41.036998 -0.037,41.036998 m 5.037,-41.036998 -0.037,41.036998 m 5.037,-41.036998 -0.037,41.036998 M 39.5185,11.515736 8.4815009,11.478736 m 31.0369991,5.037 -31.0369991,-0.037 m 31.0369991,5.037 -31.0369991,-0.037 m 31.0369991,5.037 -31.0369991,-0.037 m 31.0369991,5.037 -31.0369991,-0.037 m 31.0369991,5.037 -31.0369991,-0.037 m 31.0369991,5.037 -31.0369991,-0.037" opacity=".2"/><path id="path3962" fill="none" stroke="#fff" stroke-dasharray="none" stroke-linecap="square" stroke-linejoin="round" stroke-miterlimit="4" stroke-opacity="1" stroke-width=".963" d="m 20.481499,41.47874 17.037,0.037" opacity=".5"/><path id="path3960" fill="none" stroke="#fff" stroke-dasharray="none" stroke-linecap="square" stroke-linejoin="round" stroke-miterlimit="4" stroke-opacity="1" stroke-width=".963" d="m 36.481499,43.515736 0.037,-15.036999" opacity=".5"/><path id="path3554" fill="none" stroke="#fff" stroke-dasharray="none" stroke-linecap="square" stroke-linejoin="round" stroke-miterlimit="4" stroke-opacity="1" stroke-width=".963" d="m 23.518499,6.5157375 -13.037,-0.037 m 1.037,-1.9999994 -0.037,19.0369989" opacity=".5"/><path id="text34519" fill="#fff" fill-opacity="1" stroke="none" d="m 15.418138,14.485451 c -0.984178,0.655811 -0.867847,2.37835 0.205592,2.888211 2.446567,0.889629 4.03338,-0.373088 4.611805,-2.716069 0.01594,-0.345284 0.145762,-0.852771 -0.366912,-0.694374 -1.53566,-0.0742 -2.998979,0.03158 -4.450485,0.522232 z m 6.581859,-1.16849 c 1e-6,1.811225 1e-6,3.622449 1e-6,5.433674 -0.583509,0 -1.167019,0 -1.750528,0 -0.03443,-0.401185 0.06962,-1.254643 -0.05338,-1.366595 -0.685348,0.999506 -1.880735,1.541418 -3.071008,1.593509 -3.191549,0.153979 -4.589253,-1.776793 -3.656989,-4.706193 1.789679,-1.856738 4.352084,-1.533176 6.735433,-1.533988 -0.102484,-3.0989619 -4.019309,-2.394731 -6.105457,-1.780758 -0.553096,0.370674 -0.235482,-0.534077 -0.317946,-0.852318 -0.191423,-0.6987355 0.743586,-0.5876149 1.18473,-0.7923275 1.606758,-0.3878427 3.363654,-0.5006933 4.927038,0.120823 1.637293,0.8020095 1.980037,2.2409525 2.108103,3.8841735 z" font-family="Bitstream Vera Sans" font-size="18.421" font-style="normal" font-weight="normal" opacity=".7"/><path id="path3406" fill="#fff" fill-opacity="1" stroke="none" d="m 13,21.997237 2.345838,0 0,1 -2.345838,0 0,-1 z m 2.665379,0 2.213403,0 0,1 -2.213403,0 0,-1 z m 2.532944,0 1.948514,0 0,1 -1.948514,0 0,-1 z m 2.268056,0 0.855871,0 0,1 -0.855871,0 0,-1 z m 1.175422,0 1.915398,0 0,1 -1.915398,0 0,-1 z m 2.234949,0 4.961553,0 0,1 -4.961553,0 0,-1 z m 5.281094,0 3.769581,0 0,1 -3.769581,0 0,-1 z m 4.089133,0 1.153856,0 0,1 -1.153856,0 0,-1 z m -20.246977,6 3.691817,0 0,1 -3.691817,0 0,-1 z m 3.965761,0 1.776154,0 0,1 -1.776154,0 0,-1 z m 2.15092,0 0.835125,0 0,1 -0.835125,0 0,-1 z m 1.041852,0 1.608114,0 0,1 -1.608114,0 0,-1 z m 1.882048,0 1.608115,0 0,1 -1.608115,0 0,-1 z m 2.117317,0 2.582748,0 0,1 -2.582748,0 0,-1 z m 2.890296,0 3.389342,0 0,1 -3.389342,0 0,-1 z m 3.864929,0 2.280283,0 0,1 -2.280283,0 0,-1 z m 2.554218,0 0.532659,0 0,1 -0.532659,0 0,-1 z m -20.467341,-4 3.928045,0 0,1 -3.928045,0 0,-1 z m 4.235965,0 4.208949,0 0,1 -4.208949,0 0,-1 z m 4.516869,0 1.680758,0 0,1 -1.680758,0 0,-1 z m 1.988678,0 3.959254,0 0,1 -3.959254,0 0,-1 z m 7.285852,0 1.056505,0 0,1 -1.056505,0 0,-1 z m -3.018678,0 2.710758,0 0,1 -2.710758,0 0,-1 z m 4.383104,0 1,0 0,1 -1,0 0,-1 z m -19.39179,2 4.28514,0 0,1 -4.28514,0 0,-1 z m 4.621053,0 4.59158,0 0,1 -4.59158,0 0,-1 z m 4.927493,0 1.833555,0 0,1 -1.833555,0 0,-1 z m 2.169468,0 4.319185,0 0,1 -4.319185,0 0,-1 z m 7.948201,0 1.152552,0 0,1 -1.152552,0 0,-1 z m -3.293103,0 2.95719,0 0,1 -2.95719,0 0,-1 z M 13,33.997236 l 3.691817,0 0,1 -3.691817,0 0,-1 z m 3.965761,0 1.776154,0 0,1 -1.776154,0 0,-1 z m 2.15092,0 0.835125,0 0,1 -0.835125,0 0,-1 z m 1.041852,0 1.608114,0 0,1 -1.608114,0 0,-1 z m 1.882048,0 1.608115,0 0,1 -1.608115,0 0,-1 z m 2.117317,0 2.582748,0 0,1 -2.582748,0 0,-1 z m 2.890296,0 3.389342,0 0,1 -3.389342,0 0,-1 z m 3.864929,0 2.280283,0 0,1 -2.280283,0 0,-1 z m 2.554218,0 0.532659,0 0,1 -0.532659,0 0,-1 z m -20.467341,-2 3.061572,0 0,1 -3.061572,0 0,-1 z m 3.38681,0 5.083544,0 0,1 -5.083544,0 0,-1 z m 5.408782,0 2.454976,0 0,1 -2.454976,0 0,-1 z m 5.39193,0 1.949485,0 0,1 -1.949485,0 0,-1 z m 2.274723,0 3.128973,0 0,1 -3.128973,0 0,-1 z m -4.886439,0 2.286488,0 0,1 -2.286488,0 0,-1 z M 13,35.995516 l 3.868703,0 0,1 -3.868703,0 0,-1 z m 4.188155,0 1.218185,0 0,1 -1.218185,0 0,-1 0,0 z m 1.537637,0 2.781317,0 0,1 -2.781317,0 0,-1 z m 3.100769,0 1.89781,0 0,1 -1.89781,0 0,-1 z m 2.217262,0 1.8978,0 0,1 -1.8978,0 0,-1 z m 2.217263,0 2.747329,0 0,1 -2.747329,0 0,-1 z m 3.066771,0 0.572556,0 0,1 -0.572556,0 0,-1 z m 0.892008,0 3.562873,0 0,1 -3.562873,0 0,-1 z m -17.219865,2 3.796419,0 0,1 -3.796419,0 0,-1 z m 6.256706,0 2.438723,0 0,1 -2.438723,0 0,-1 z m 2.788936,0 2.235065,0 0,1 -2.235065,0 0,-1 z m 5.990819,0 1.963539,0 0,1 -1.963539,0 0,-1 0,0 z m -1.125747,0 0.775544,0 0,1 -0.775544,0 0,-1 z m -2.279794,0 1.929581,0 0,1 -1.929581,0 0,-1 z m -7.484298,0 1.759881,0 0,1 -1.759881,0 0,-1 0,0 z" display="inline" opacity=".7"/><path id="path3342" fill="none" stroke="#fff" stroke-dasharray="none" stroke-linecap="square" stroke-linejoin="round" stroke-miterlimit="4" stroke-opacity="1" stroke-width=".963" d="m 33.499999,18.497236 10e-4,0 m -1.501,0 0.001,0 m -3.001,0 1.5,0 m -6,0 3,0 m 4,-2 2.000915,0 m -5.500915,0 1.9997,0 m -5.4997,0 2.000693,0 m 5.499307,-2 1,0 m -4,0 1.5,0 m -6,0 3,0 m 4,-2 0.001,0 m -3.501,0 1.9997,0 m -5.4997,0 2.000693,0 m 4.999307,-2 2.000915,0 m -5.500915,0 1.9997,0 m -5.4997,0 2.000693,0" opacity=".7"/></g><rect id="rect3026" width="120" height="120" x="0" y="8" fill="#00f" fill-opacity="0" fill-rule="evenodd" stroke="none" opacity="0"/></g></svg>