<svg xmlns="http://www.w3.org/2000/svg" xmlns:svg="http://www.w3.org/2000/svg" xmlns:xlink="http://www.w3.org/1999/xlink" id="svg4359" width="22" height="22" version="1.1" viewBox="0 0 22 22"><defs id="defs4361"><radialGradient id="radialGradient4163" cx="11" cy="39" r="8" fx="11" fy="39" gradientTransform="translate(0,6.1e-6)" gradientUnits="userSpaceOnUse" xlink:href="#linearGradient4157"/><linearGradient id="linearGradient4157"><stop id="stop4159" offset="0" stop-color="#000" stop-opacity="1"/><stop id="stop4161" offset="1" stop-color="#000" stop-opacity="0"/></linearGradient></defs><metadata id="metadata4364"/><g id="layer1" transform="translate(0,-26)"><circle id="circle4155" cx="11" cy="39" r="8" fill="url(#radialGradient4163)" fill-opacity="1" stroke="none" stroke-dasharray="none" stroke-linecap="butt" stroke-linejoin="round" stroke-miterlimit="4" stroke-opacity="1" stroke-width="2" opacity="1"/><circle id="path4151" cx="11" cy="37" r="8" fill="#fbc02d" fill-opacity="1" stroke="none" stroke-dasharray="none" stroke-linecap="butt" stroke-linejoin="round" stroke-miterlimit="4" stroke-opacity="1" stroke-width="2" opacity="1"/><rect id="rect4147" width="2" height="2" x="-2" y="28" fill="#fbc02d" fill-opacity="1" fill-rule="nonzero" stroke="none" stroke-dasharray="none" stroke-dashoffset="0" stroke-linecap="butt" stroke-linejoin="miter" stroke-miterlimit="4" stroke-opacity="1" stroke-width="1" clip-rule="nonzero" color="#000" color-interpolation="sRGB" color-interpolation-filters="linearRGB" color-rendering="auto" display="inline" enable-background="accumulate" image-rendering="auto" opacity="1" overflow="visible" shape-rendering="auto" text-rendering="auto" visibility="visible" style="isolation:auto;mix-blend-mode:normal;solid-color:#000;solid-opacity:1"/><rect id="rect4147-8" width="2" height="2" x="-2" y="26" fill="#fff9c4" fill-opacity="1" fill-rule="nonzero" stroke="none" stroke-dasharray="none" stroke-dashoffset="0" stroke-linecap="butt" stroke-linejoin="miter" stroke-miterlimit="4" stroke-opacity="1" stroke-width="1" clip-rule="nonzero" color="#000" color-interpolation="sRGB" color-interpolation-filters="linearRGB" color-rendering="auto" display="inline" enable-background="accumulate" image-rendering="auto" opacity="1" overflow="visible" shape-rendering="auto" text-rendering="auto" visibility="visible" style="isolation:auto;mix-blend-mode:normal;solid-color:#000;solid-opacity:1"/><path id="path4168" fill="#fff9c4" fill-opacity="1" stroke="none" stroke-dasharray="none" stroke-dashoffset="0" stroke-linecap="square" stroke-linejoin="miter" stroke-miterlimit="4" stroke-opacity="1" stroke-width=".1" d="M 11,6 C 9.338,6 8,7.338 8,9 l 0,2 -1,0 0,1 0,3 c 0,0.554 0.446,1 1,1 l 6,0 c 0.554,0 0.988922,-0.446111 1,-1 l 0,-3 0,-1 -1,0 0,-2 C 14,7.338 12.662,6 11,6 Z m 0,1 c 1.108,0 2,0.892 2,2 l 0,2 -4,0 0,-2 C 9,7.892 9.892,7 11,7 Z m -3,5 6,0 0,0.5 0,0.5 0,1.5 c 0,0.277 -0.223,0.5 -0.5,0.5 l -5,0 C 8.223,15 8,14.777 8,14.5 L 8,13 8,12.5 Z" opacity="1" transform="translate(0,26)"/></g></svg>