<svg xmlns="http://www.w3.org/2000/svg" xmlns:svg="http://www.w3.org/2000/svg" xmlns:xlink="http://www.w3.org/1999/xlink" id="svg4359" width="22" height="22" version="1.1" viewBox="0 0 22 22"><defs id="defs4361"><linearGradient id="linearGradient4157"><stop id="stop4159" offset="0" stop-color="#000" stop-opacity="1"/><stop id="stop4161" offset="1" stop-color="#000" stop-opacity="0"/></linearGradient><radialGradient id="radialGradient4163" cx="11" cy="39" r="8" fx="11" fy="39" gradientUnits="userSpaceOnUse" xlink:href="#linearGradient4157"/></defs><metadata id="metadata4364"/><g id="layer1" transform="translate(0,-26)"><circle id="circle4155" cx="11" cy="39" r="8" fill="url(#radialGradient4163)" fill-opacity="1" stroke="none" stroke-dasharray="none" stroke-linecap="butt" stroke-linejoin="round" stroke-miterlimit="4" stroke-opacity="1" stroke-width="2" opacity="1"/><circle id="path4151" cx="11" cy="37" r="8" fill="#455a64" fill-opacity="1" stroke="none" stroke-dasharray="none" stroke-linecap="butt" stroke-linejoin="round" stroke-miterlimit="4" stroke-opacity="1" stroke-width="2" opacity="1"/><rect id="rect4147" width="2" height="2" x="-2" y="26" fill="#455a64" fill-opacity="1" fill-rule="nonzero" stroke="none" stroke-dasharray="none" stroke-dashoffset="0" stroke-linecap="butt" stroke-linejoin="miter" stroke-miterlimit="4" stroke-opacity="1" stroke-width="1" clip-rule="nonzero" color="#000" color-interpolation="sRGB" color-interpolation-filters="linearRGB" color-rendering="auto" display="inline" enable-background="accumulate" image-rendering="auto" opacity="1" overflow="visible" shape-rendering="auto" text-rendering="auto" visibility="visible" style="isolation:auto;mix-blend-mode:normal;solid-color:#000;solid-opacity:1"/><rect id="rect4147-5" width="2" height="2" x="-2" y="28" fill="#f5f5f5" fill-opacity="1" fill-rule="nonzero" stroke="none" stroke-dasharray="none" stroke-dashoffset="0" stroke-linecap="butt" stroke-linejoin="miter" stroke-miterlimit="4" stroke-opacity="1" stroke-width="1" clip-rule="nonzero" color="#000" color-interpolation="sRGB" color-interpolation-filters="linearRGB" color-rendering="auto" display="inline" enable-background="accumulate" image-rendering="auto" opacity="1" overflow="visible" shape-rendering="auto" text-rendering="auto" visibility="visible" style="isolation:auto;mix-blend-mode:normal;solid-color:#000;solid-opacity:1"/><path id="rect4165" fill="#f5f5f5" fill-opacity="1" stroke="none" stroke-dasharray="none" stroke-linecap="butt" stroke-linejoin="round" stroke-miterlimit="4" stroke-opacity="1" stroke-width="2" d="M 6 9 C 5.446 9 5 9.446 5 10 L 5 12 C 5 12.554 5.446 13 6 13 L 9 13 C 9.554 13 10 12.554 10 12 L 12 12 C 12 12.554 12.446 13 13 13 L 16 13 C 16.554 13 17 12.554 17 12 L 17 10 C 17 9.446 16.554 9 16 9 L 13 9 C 12.446 9 12 9.446 12 10 L 10 10 C 10 9.446 9.554 9 9 9 L 6 9 z M 6 10 L 9 10 L 9 12 L 6 12 L 6 10 z M 13 10 L 16 10 L 16 12 L 13 12 L 13 10 z" opacity="1" transform="translate(0,26)"/></g></svg>