<svg xmlns="http://www.w3.org/2000/svg" xmlns:svg="http://www.w3.org/2000/svg" id="svg2" width="16" height="16" version="1.1" viewBox="0 0 16 16"><metadata id="metadata7"/><g id="layer1" transform="translate(0,-1036.3622)"><path color="#000" style="isolation:auto;mix-blend-mode:normal;solid-color:#000;solid-opacity:1" id="path4142" fill="#34495d" fill-opacity="1" fill-rule="nonzero" stroke="none" stroke-dasharray="none" stroke-dashoffset="0" stroke-linecap="butt" stroke-linejoin="miter" stroke-miterlimit="4" stroke-opacity="1" stroke-width="1" d="M 6 2 L 3 5 L 3 6 L 3 7 L 3 14 L 7 14 L 7 13 L 4 13 L 4 7 L 4 6 L 7 6 L 7 3 L 8 3 L 12 3 L 12 6 L 13 6 L 13 2 L 8 2 L 7 2 L 6 2 z M 12 6 L 11 6 L 11 7 L 12 7 L 12 6 z M 12 7 L 12 8 L 13 8 L 13 7 L 12 7 z M 12 8 L 11 8 L 11 9 L 12 9 L 12 8 z M 12 9 L 12 10 L 13 10 L 13 9 L 12 9 z M 12 10 L 11 10 L 11 11 L 12 11 L 12 10 z M 12 11 L 12 12 L 13 12 L 13 11 L 12 11 z M 12 12 L 11 12 L 11 13 L 12 13 L 12 12 z M 12 13 L 12 14 L 13 14 L 13 13 L 12 13 z M 11 13 L 10 13 L 10 14 L 11 14 L 11 13 z M 10 13 L 10 12 L 9 12 L 9 13 L 10 13 z M 9 13 L 8 13 L 8 14 L 9 14 L 9 13 z M 8 13 L 8 12 L 7 12 L 7 13 L 8 13 z" clip-rule="nonzero" color-interpolation="sRGB" color-interpolation-filters="linearRGB" color-rendering="auto" display="inline" enable-background="accumulate" image-rendering="auto" opacity="1" overflow="visible" shape-rendering="auto" text-rendering="auto" transform="translate(0,1036.3622)" visibility="visible"/></g></svg>