<svg xmlns="http://www.w3.org/2000/svg" xmlns:svg="http://www.w3.org/2000/svg" id="svg4359" width="16" height="16" version="1.1" viewBox="0 0 16 16"><metadata id="metadata4364"/><g id="layer1" transform="translate(-3,-29)"><path id="path4151" fill="#34495d" fill-opacity="1" fill-rule="evenodd" stroke="none" stroke-linecap="butt" stroke-linejoin="miter" stroke-opacity="1" stroke-width="1" d="M 7 2 L 3 4 L 5 5 L 7 4 L 7 2 z M 9 2 L 9 4 L 11 5 L 13 4 L 9 2 z M 8 5 L 5 7 L 5 9 L 8 11 L 11 9 L 11 7 L 8 5 z M 2 6 L 2 10 L 4 9 L 4 7 L 2 6 z M 14 6 L 12 7 L 12 9 L 14 10 L 14 6 z M 5 11 L 3 12 L 7 14 L 7 12 L 5 11 z M 11 11 L 9 12 L 9 14 L 13 12 L 11 11 z" transform="translate(3,29)"/></g></svg>