<svg xmlns="http://www.w3.org/2000/svg" xmlns:svg="http://www.w3.org/2000/svg" id="svg2" width="100%" height="100%" enable-background="new" version="1.1" viewBox="0 0 16 16"><metadata id="metadata14"/><path id="path4163" fill="#34495d" fill-opacity="1" stroke="none" stroke-dasharray="none" stroke-dashoffset="0" stroke-linecap="square" stroke-linejoin="miter" stroke-miterlimit="4" stroke-opacity="1" stroke-width=".063" d="M 8 2 A 6 6 0 0 0 2 8 A 6 6 0 0 0 8 14 A 6 6 0 0 0 14 8 A 6 6 0 0 0 8 2 z M 4 5 L 5.8085938 5 L 8 7.3378906 L 10.191406 5 L 12 5 L 12 11 L 11.601562 11 L 11 11 L 10 11 L 10 8.0996094 L 8 10.099609 L 6 8.0996094 L 6 11 L 5 11 L 4 11 L 4 5 z" opacity="1"/></svg>