<svg xmlns="http://www.w3.org/2000/svg" xmlns:svg="http://www.w3.org/2000/svg" id="svg2" width="16" height="16" version="1.1" viewBox="0 0 16 16"><metadata id="metadata7"/><g id="layer1" transform="translate(0,-1036.3622)"><path color="#000" style="isolation:auto;mix-blend-mode:normal;solid-color:#000;solid-opacity:1" id="rect4206" fill="#bebebe" fill-opacity="1" fill-rule="nonzero" stroke="none" stroke-dasharray="none" stroke-dashoffset="0" stroke-linecap="butt" stroke-linejoin="miter" stroke-miterlimit="4" stroke-opacity="1" stroke-width="1" d="M 7 2 L 7 3 L 7 4 L 5 4 L 5 3 L 3 3 L 3 4 L 1 4 L 1 14 L 15 14 L 15 4 L 13 4 L 13 3 L 13 2 L 12 2 L 8 2 L 7 2 z M 8 3 L 12 3 L 12 4 L 8 4 L 8 3 z M 2 5 L 14 5 L 14 13 L 2 13 L 2 5 z M 8 6 C 6.338 6 5 7.338 5 9 C 5 10.662 6.338 12 8 12 C 9.662 12 11 10.662 11 9 C 11 7.338 9.662 6 8 6 z M 8 7 C 9.108 7 10 7.892 10 9 C 10 10.108 9.108 11 8 11 C 6.892 11 6 10.108 6 9 C 6 7.892 6.892 7 8 7 z" clip-rule="nonzero" color-interpolation="sRGB" color-interpolation-filters="linearRGB" color-rendering="auto" display="inline" enable-background="accumulate" image-rendering="auto" opacity="1" overflow="visible" shape-rendering="auto" text-rendering="auto" transform="translate(0,1036.3622)" visibility="visible"/></g></svg>