<svg xmlns="http://www.w3.org/2000/svg" xmlns:svg="http://www.w3.org/2000/svg" id="svg2" width="16" height="16" version="1.1" viewBox="0 0 16 16"><metadata id="metadata7"/><g id="layer1" transform="translate(0,-1036.3622)"><path color="#000" style="isolation:auto;mix-blend-mode:normal;solid-color:#000;solid-opacity:1" id="folderGlyph" fill="#bebebe" fill-opacity="1" fill-rule="nonzero" stroke="none" stroke-dasharray="none" stroke-dashoffset="0" stroke-linecap="butt" stroke-linejoin="miter" stroke-miterlimit="4" stroke-opacity="1" stroke-width="1" d="M 2,2 2,14 14,14 14,2 2,2 Z M 3,3 5,3 5,5 3,5 3,3 Z m 3,0 4,0 0,5 -4,0 0,-5 z m 5,0 2,0 0,2 -2,0 0,-2 z M 3,7 5,7 5,9 3,9 3,7 Z m 8,0 2,0 0,2 -2,0 0,-2 z m -5,2 4,0 0,4 -4,0 0,-4 z m -3,2 2,0 0,2 -2,0 0,-2 z m 8,0 2,0 0,2 -2,0 0,-2 z" clip-rule="nonzero" color-interpolation="sRGB" color-interpolation-filters="linearRGB" color-rendering="auto" display="inline" enable-background="accumulate" image-rendering="auto" opacity="1" overflow="visible" shape-rendering="auto" text-rendering="auto" transform="translate(0,1036.3622)" visibility="visible"/></g></svg>