<svg xmlns="http://www.w3.org/2000/svg" xmlns:svg="http://www.w3.org/2000/svg" id="svg2" width="16" height="16" version="1.1" viewBox="0 0 16 16"><metadata id="metadata7"/><g id="layer1" transform="translate(0,-1036.3622)"><path color="#000" style="isolation:auto;mix-blend-mode:normal;solid-color:#000;solid-opacity:1" id="folderGlyph" fill="#bebebe" fill-opacity="1" fill-rule="nonzero" stroke="none" stroke-dasharray="none" stroke-dashoffset="0" stroke-linecap="butt" stroke-linejoin="miter" stroke-miterlimit="4" stroke-opacity="1" stroke-width="1" d="M 6,2 6,3 6,7 4,7 4,7.9980469 4,8 4,8.0078125 7.9902344,12 8,12 8.0097656,12 12,8.0078125 12,8 12,7 10,7 10,3 10,2 Z M 7,3 9,3 9,8 10,8 10.59375,8 8,10.59375 5.40625,8 7,8 7,7 Z m -5,8 0,3 1,0 11,0 0,-1 0,-2 -1,0 0,2 -10,0 0,-2 z" clip-rule="nonzero" color-interpolation="sRGB" color-interpolation-filters="linearRGB" color-rendering="auto" display="inline" enable-background="accumulate" image-rendering="auto" opacity="1" overflow="visible" shape-rendering="auto" text-rendering="auto" transform="translate(0,1036.3622)" visibility="visible"/></g></svg>