<svg xmlns="http://www.w3.org/2000/svg" xmlns:svg="http://www.w3.org/2000/svg" id="svg2" width="16" height="16" version="1.1" viewBox="0 0 16 16"><metadata id="metadata7"/><g id="layer1" transform="translate(0,-1036.3622)"><path color="#000" style="isolation:auto;mix-blend-mode:normal;solid-color:#000;solid-opacity:1" id="folderGlyph" fill="#bebebe" fill-opacity="1" fill-rule="nonzero" stroke="none" stroke-dasharray="none" stroke-dashoffset="0" stroke-linecap="butt" stroke-linejoin="miter" stroke-miterlimit="4" stroke-opacity="1" stroke-width="1" d="M 7.9902344,2 4,5.9921875 4,6.0019531 4,7 l 2,0 0,2.999 0,1 4,0.002 0,-1 0,-2.9989999 2,0 0,-1 0,-0.00977 L 8.0097656,2 8,2 Z M 8,3.40625 10.59375,6 10,6 9,6 9,9.999 7,9.999 7,7 7,6 5.40625,6 Z M 3,9 l 0,1 0,4 1,0 9,0 0,-1 0,-4 -1,0 -1,0 0,1 1,0 0,3 -8,0 0,-3 1,0 0,-1 -1,0 z" clip-rule="nonzero" color-interpolation="sRGB" color-interpolation-filters="linearRGB" color-rendering="auto" display="inline" enable-background="accumulate" image-rendering="auto" opacity="1" overflow="visible" shape-rendering="auto" text-rendering="auto" transform="translate(0,1036.3622)" visibility="visible"/></g></svg>