<svg xmlns="http://www.w3.org/2000/svg" xmlns:svg="http://www.w3.org/2000/svg" id="svg2" width="16" height="16" version="1.1" viewBox="0 0 16 16"><metadata id="metadata7"/><g id="layer1" transform="translate(0,-1036.3622)"><path color="#000" style="isolation:auto;mix-blend-mode:normal;solid-color:#000;solid-opacity:1" id="rect4197" fill="#bebebe" fill-opacity="1" fill-rule="nonzero" stroke="none" stroke-dasharray="none" stroke-dashoffset="0" stroke-linecap="butt" stroke-linejoin="miter" stroke-miterlimit="4" stroke-opacity="1" stroke-width="1" d="M 2 2 L 2 5 L 2 6 L 2 9 L 2 11 L 3 11 L 6 11 L 6 12 L 2 12 L 2 13 L 6 13 L 6 14 L 10 14 L 10 13 L 14 13 L 14 12 L 10 12 L 10 11 L 13 11 L 14 11 L 14 10 L 14 5 L 14 2 L 2 2 z M 11.5 3 C 11.777 3 12 3.223 12 3.5 C 12 3.777 11.777 4 11.5 4 C 11.223 4 11 3.777 11 3.5 C 11 3.223 11.223 3 11.5 3 z M 3 5 L 7 5 L 9 5 L 13 5 L 13 6 L 3 6 L 3 5 z M 11.5 7 C 11.777 7 12 7.223 12 7.5 C 12 7.777 11.777 8 11.5 8 C 11.223 8 11 7.777 11 7.5 C 11 7.223 11.223 7 11.5 7 z M 3 9 L 13 9 L 13 10 L 3 10 L 3 9 z M 7 12 L 9 12 L 9 13 L 7 13 L 7 12 z" clip-rule="nonzero" color-interpolation="sRGB" color-interpolation-filters="linearRGB" color-rendering="auto" display="inline" enable-background="accumulate" image-rendering="auto" opacity="1" overflow="visible" shape-rendering="auto" text-rendering="auto" transform="translate(0,1036.3622)" visibility="visible"/></g></svg>