<svg xmlns="http://www.w3.org/2000/svg" xmlns:svg="http://www.w3.org/2000/svg" id="svg2" width="16" height="16" version="1.1" viewBox="0 0 16 16"><metadata id="metadata7"/><g id="layer1" transform="translate(0,-1036.3622)"><path id="rect4144" fill="#bebebe" fill-opacity="1" stroke="none" stroke-dasharray="none" stroke-linecap="round" stroke-linejoin="miter" stroke-miterlimit="4" stroke-opacity="1" stroke-width="1" d="M 1 2 L 1 14 L 15 14 L 15 2 L 1 2 z M 2 3 L 14 3 L 14 11 L 2 11 L 2 3 z M 3 4 L 3 7 L 7 7 L 7 5 L 6 5 C 6 5 6 4 5 4 L 3 4 z M 2 12 L 3 12 L 3 13 L 2 13 L 2 12 z M 4 12 L 10 12 L 10 13 L 4 13 L 4 12 z M 11 12 L 12 12 L 12 13 L 11 13 L 11 12 z M 13 12 L 14 12 L 14 13 L 13 13 L 13 12 z" opacity="1" transform="translate(0,1036.3622)"/></g></svg>