<svg xmlns="http://www.w3.org/2000/svg" xmlns:svg="http://www.w3.org/2000/svg" xmlns:xlink="http://www.w3.org/1999/xlink" id="svg2" width="32" height="32" version="1.1" viewBox="0 0 32 32"><defs id="defs4"><linearGradient id="Shadow"><stop id="stop4181" offset="0" stop-color="#000" stop-opacity="1"/><stop id="stop4183" offset="1" stop-color="#000" stop-opacity="0"/></linearGradient><radialGradient id="radialGradient4576" cx="28" cy="28.5" r="1.5" fx="28" fy="28.5" gradientTransform="matrix(3.1111458e-7,2.6666673,-1.9999997,2.3333583e-7,84.99998,973.69551)" gradientUnits="userSpaceOnUse" xlink:href="#Shadow"/><radialGradient id="radialGradient4578" cx=".56" cy="31.147" r="1.5" fx=".56" fy="31.147" gradientTransform="matrix(-1.9999998,2.4329792e-6,-3.2319946e-6,-2.6666666,5.119531,1131.421)" gradientUnits="userSpaceOnUse" xlink:href="#Shadow"/><linearGradient id="linearGradient4580" x1="16" x2="16" y1="28" y2="32" gradientTransform="translate(0,1020.3622)" gradientUnits="userSpaceOnUse" xlink:href="#Shadow"/><radialGradient id="radialGradient4205" cx="23" cy="1031.362" r="6" fx="23" fy="1031.362" gradientTransform="matrix(1,0,0,1.000006,2.9999942,-2.005414)" gradientUnits="userSpaceOnUse" xlink:href="#linearGradient4164"/><linearGradient id="linearGradient4164"><stop id="stop4166" offset="0" stop-color="#000" stop-opacity="1"/><stop id="stop4170" offset=".667" stop-color="#000" stop-opacity="1"/><stop id="stop4168" offset="1" stop-color="#000" stop-opacity="0"/></linearGradient></defs><metadata id="metadata7"/><g id="layer1" transform="translate(0,-1020.3622)"><path id="path4574" fill="url(#linearGradient4580)" fill-opacity="1" stroke="none" stroke-dasharray="none" stroke-linecap="round" stroke-linejoin="round" stroke-miterlimit="4" stroke-opacity=".528" stroke-width="2" d="m 4,1048.3622 0,4 24,0 0,-4 z" opacity="1"/><path id="path4572" fill="url(#radialGradient4578)" fill-opacity="1" stroke="none" stroke-dasharray="none" stroke-linecap="round" stroke-linejoin="round" stroke-miterlimit="4" stroke-opacity=".528" stroke-width="2" d="m 4,1048.3622 -3,0 0,1 c 0,1.662 1.33799,3 3,3 l 0,-4 z" opacity="1"/><path id="path4570" fill="url(#radialGradient4576)" fill-opacity="1" stroke="none" stroke-dasharray="none" stroke-linecap="round" stroke-linejoin="round" stroke-miterlimit="4" stroke-opacity=".528" stroke-width="2" d="m 28,1048.3622 0,4 c 1.66201,0 3,-1.338 3,-3 l 0,-1 -3,0 z" opacity="1"/><rect id="rect4163" width="30" height="26" x="1" y="1024.362" fill="#90a4ae" fill-opacity="1" stroke="none" stroke-dasharray="none" stroke-linecap="round" stroke-linejoin="round" stroke-miterlimit="4" stroke-opacity=".528" stroke-width="2" opacity="1" ry="2"/><path id="path4172" fill="#eceff1" fill-opacity="1" stroke="none" stroke-dasharray="none" stroke-linecap="round" stroke-linejoin="round" stroke-miterlimit="4" stroke-opacity=".528" stroke-width="2" d="m 30,1030.3622 -28,0 0,18 c 0,0.554 0.44599,1 1,1 l 26,0 c 0.55401,0 1,-0.446 1,-1 l 0,-18 z" opacity="1"/><path id="rect4165" fill="#e0e0e0" fill-opacity="1" stroke="none" stroke-dasharray="none" stroke-linecap="round" stroke-linejoin="round" stroke-miterlimit="4" stroke-opacity=".528" stroke-width="2" d="m 3,1025.3622 c -0.55401,0 -1,0.446 -1,1 l 0,4 28,0 0,-4 c 0,-0.554 -0.44599,-1 -1,-1 l -26,0 z" opacity="1"/><rect id="rect4167" width="28" height="1" x="2" y="1029.362" fill="#90a4ae" fill-opacity="1" stroke="none" stroke-dasharray="none" stroke-linecap="round" stroke-linejoin="round" stroke-miterlimit="4" stroke-opacity=".528" stroke-width="2" opacity="1" ry="0"/><rect id="rect4175" width="26" height="17" x="3" y="1031.362" fill="#fafafa" fill-opacity="1" stroke="none" stroke-dasharray="none" stroke-linecap="round" stroke-linejoin="round" stroke-miterlimit="4" stroke-opacity=".528" stroke-width="2" opacity="1" ry="0"/><circle id="path4243" cx="28" cy="1027.362" r="1" fill="#ef5350" fill-opacity="1" stroke="none" stroke-dasharray="none" stroke-linecap="round" stroke-linejoin="round" stroke-miterlimit="4" stroke-opacity=".528" stroke-width="2" opacity="1"/><ellipse id="circle4201" cx="26" cy="1029.362" fill="url(#radialGradient4205)" fill-opacity="1" stroke="none" stroke-dasharray="none" stroke-linecap="round" stroke-linejoin="round" stroke-miterlimit="4" stroke-opacity="1" stroke-width="2" opacity="1" rx="6" ry="6"/><ellipse id="path4174" cx="26" cy="1028.362" fill="#4caf50" fill-opacity="1" stroke="none" stroke-dasharray="none" stroke-linecap="round" stroke-linejoin="round" stroke-miterlimit="4" stroke-opacity="1" stroke-width="2" opacity="1" rx="6" ry="6"/><ellipse id="ellipse4277" cx="26" cy="1028.362" fill="#66bb6a" fill-opacity="1" stroke="none" stroke-dasharray="none" stroke-linecap="round" stroke-linejoin="round" stroke-miterlimit="4" stroke-opacity="1" stroke-width="2" opacity="1" rx="5" ry="5"/><path id="ellipse4175" fill="#fafafa" fill-opacity="1" stroke="none" stroke-dasharray="none" stroke-linecap="round" stroke-linejoin="round" stroke-miterlimit="4" stroke-opacity="1" stroke-width="2" d="M 26 4 A 4.00001 4.0000291 0 0 0 25.001953 4.1328125 L 25 4.1328125 L 24.685547 5.3066406 A 3 3 0 0 0 24.322266 5.5136719 L 23.148438 5.1992188 L 23.148438 5.203125 A 4.0000291 4.00001 30 0 0 22.535156 6 A 4.0000291 4.00001 30 0 0 22.148438 6.9316406 L 23.007812 7.7890625 A 3 3 0 0 0 23 8 A 3 3 0 0 0 23.011719 8.2070312 L 22.148438 9.0683594 A 4.00001 4.0000291 60 0 0 22.535156 10 A 4.00001 4.0000291 60 0 0 23.148438 10.796875 L 23.148438 10.800781 L 24.324219 10.484375 A 3 3 0 0 0 24.685547 10.695312 L 25 11.869141 A 4.00001 4.0000291 0 0 0 26 12 A 4.00001 4.0000291 0 0 0 26.998047 11.867188 L 27 11.869141 L 27 11.867188 L 27.314453 10.693359 A 3 3 0 0 0 27.677734 10.486328 L 28.851562 10.800781 L 28.851562 10.796875 A 4.0000291 4.00001 30 0 0 29.464844 10 A 4.0000291 4.00001 30 0 0 29.851562 9.0683594 L 28.992188 8.2109375 A 3 3 0 0 0 29 8 A 3 3 0 0 0 28.988281 7.7929688 L 29.851562 6.9316406 A 4.00001 4.0000291 60 0 0 29.464844 6 A 4.00001 4.0000291 60 0 0 28.851562 5.203125 L 28.851562 5.1992188 L 27.675781 5.515625 A 3 3 0 0 0 27.314453 5.3046875 L 27 4.1308594 A 4.00001 4.0000291 0 0 0 26 4 z M 26 5 A 3 3 0 0 0 25.779297 5.0117188 A 3.0000148 3.0000291 0 0 1 26 5 z M 26 6 A 2 2 0 0 1 28 8 A 2 2 0 0 1 26 10 A 2 2 0 0 1 24 8 A 2 2 0 0 1 26 6 z M 28.515625 6.3691406 A 3.0000148 3.0000291 60 0 1 28.597656 6.5 A 3.0000148 3.0000291 60 0 1 28.613281 6.5292969 A 3 3 0 0 0 28.515625 6.3691406 z M 23.464844 6.3984375 A 3 3 0 0 0 23.371094 6.5605469 A 3.0000291 3.0000148 30 0 1 23.402344 6.5 A 3.0000291 3.0000148 30 0 1 23.464844 6.3984375 z M 26 7 A 1 1 0 0 0 25 8 A 1 1 0 0 0 26 9 A 1 1 0 0 0 27 8 A 1 1 0 0 0 26 7 z M 28.628906 9.4394531 A 3.0000291 3.0000148 30 0 1 28.597656 9.5 A 3.0000291 3.0000148 30 0 1 28.535156 9.6015625 A 3 3 0 0 0 28.628906 9.4394531 z M 23.386719 9.4707031 A 3 3 0 0 0 23.484375 9.6308594 A 3.0000148 3.0000291 60 0 1 23.402344 9.5 A 3.0000148 3.0000291 60 0 1 23.386719 9.4707031 z M 26.220703 10.988281 A 3.0000148 3.0000291 0 0 1 26 11 A 3 3 0 0 0 26.220703 10.988281 z" opacity="1" transform="translate(0,1020.3622)"/></g></svg>