<svg xmlns="http://www.w3.org/2000/svg" xmlns:svg="http://www.w3.org/2000/svg" xmlns:xlink="http://www.w3.org/1999/xlink" id="svg2" width="32" height="32" version="1.1" viewBox="0 0 32 32"><defs id="defs4"><linearGradient id="Shadow"><stop id="stop4181" offset="0" stop-color="#000" stop-opacity="1"/><stop id="stop4183" offset="1" stop-color="#000" stop-opacity="0"/></linearGradient><radialGradient id="radialGradient4576" cx="28" cy="28.5" r="1.5" fx="28" fy="28.5" gradientTransform="matrix(3.1111458e-7,2.6666673,-1.9999997,2.3333583e-7,83.99998,973.69551)" gradientUnits="userSpaceOnUse" xlink:href="#Shadow"/><radialGradient id="radialGradient4578" cx=".56" cy="31.147" r="1.5" fx=".56" fy="31.147" gradientTransform="matrix(-1.9999998,2.4329792e-6,-3.2319946e-6,-2.6666666,6.119531,1131.421)" gradientUnits="userSpaceOnUse" xlink:href="#Shadow"/><linearGradient id="linearGradient4580" x1="16" x2="16" y1="28" y2="32" gradientTransform="translate(0,1020.3622)" gradientUnits="userSpaceOnUse" xlink:href="#Shadow"/><linearGradient id="linearGradient4210" x1="16" x2="16" y1="1039.362" y2="1043.362" gradientTransform="translate(0,-6)" gradientUnits="userSpaceOnUse" xlink:href="#Shadow"/></defs><metadata id="metadata7"/><g id="layer1" transform="translate(0,-1020.3622)"><rect id="rect4208" width="8" height="10" x="12" y="1033.362" fill="url(#linearGradient4210)" fill-opacity="1" stroke="none" stroke-dasharray="none" stroke-linecap="round" stroke-linejoin="round" stroke-miterlimit="4" stroke-opacity="1" stroke-width="2" opacity="1"/><path display="inline" style="line-height:normal;text-indent:0;text-align:start;text-decoration-line:none;text-decoration-style:solid;text-decoration-color:#000;text-transform:none;block-progression:tb;white-space:normal;isolation:auto;mix-blend-mode:normal;solid-color:#000;solid-opacity:1" id="path4204" fill="#607d8b" fill-opacity="1" fill-rule="evenodd" stroke="none" stroke-dasharray="none" stroke-dashoffset="0" stroke-linecap="butt" stroke-linejoin="round" stroke-miterlimit="4" stroke-opacity="1" stroke-width="1" d="m 16.515625,1028.3619 c 0.100638,0 0.197984,0.037 0.279297,0.096 l 3,4.1994 c 0.128943,0.094 0.205145,0.2444 0.205078,0.4041 l 0,2.7998 c -1.05e-4,0.3994 -0.445076,0.6376 -0.777344,0.4161 l -3,-2.0005 c -0.139114,-0.093 -0.222668,-0.249 -0.222656,-0.4162 l 0,-5.0006 c 0.001,-0.2817 0.234209,-0.5069 0.515625,-0.4981 z" baseline-shift="baseline" clip-rule="nonzero" color="#000" color-interpolation="sRGB" color-interpolation-filters="linearRGB" color-rendering="auto" direction="ltr" enable-background="accumulate" font-family="sans-serif" font-size="medium" font-stretch="normal" font-style="normal" font-variant="normal" font-weight="normal" image-rendering="auto" letter-spacing="normal" opacity="1" overflow="visible" shape-rendering="auto" text-anchor="start" text-decoration="none" text-rendering="auto" visibility="visible" word-spacing="normal" writing-mode="lr-tb"/><path display="inline" style="line-height:normal;text-indent:0;text-align:start;text-decoration-line:none;text-decoration-style:solid;text-decoration-color:#000;text-transform:none;block-progression:tb;white-space:normal;isolation:auto;mix-blend-mode:normal;solid-color:#000;solid-opacity:1" id="path4206" fill="#cfd8dc" fill-opacity="1" fill-rule="evenodd" stroke="none" stroke-dasharray="none" stroke-dashoffset="0" stroke-linecap="butt" stroke-linejoin="round" stroke-miterlimit="4" stroke-opacity="1" stroke-width="1" d="m 16.6,1029.8486 0.4,3.7445 2,1.3342 0,-1.612 z" baseline-shift="baseline" clip-rule="nonzero" color="#000" color-interpolation="sRGB" color-interpolation-filters="linearRGB" color-rendering="auto" direction="ltr" enable-background="accumulate" font-family="sans-serif" font-size="medium" font-stretch="normal" font-style="normal" font-variant="normal" font-weight="normal" image-rendering="auto" letter-spacing="normal" opacity="1" overflow="visible" shape-rendering="auto" text-anchor="start" text-decoration="none" text-rendering="auto" visibility="visible" word-spacing="normal" writing-mode="lr-tb"/><path id="path4202" fill="#607d8b" fill-opacity="1" fill-rule="evenodd" stroke="none" stroke-dasharray="none" stroke-dashoffset="0" stroke-linecap="butt" stroke-linejoin="round" stroke-miterlimit="4" stroke-opacity="1" stroke-width="1" d="m 15.484375,1028.3619 c -0.100638,0 -0.197984,0.037 -0.279297,0.096 l -3,4.1994 c -0.128943,0.094 -0.205145,0.2444 -0.205078,0.4041 l 0,2.7998 c 1.05e-4,0.3994 0.445076,0.6376 0.777344,0.4161 l 3,-2.0005 c 0.139114,-0.093 0.222668,-0.249 0.222656,-0.4162 l 0,-5.0006 c -10e-4,-0.2817 -0.234209,-0.5069 -0.515625,-0.4981 z" baseline-shift="baseline" clip-rule="nonzero" color="#000" color-interpolation="sRGB" color-interpolation-filters="linearRGB" color-rendering="auto" direction="ltr" display="inline" enable-background="accumulate" font-family="sans-serif" font-size="medium" font-stretch="normal" font-style="normal" font-variant="normal" font-weight="normal" image-rendering="auto" letter-spacing="normal" opacity="1" overflow="visible" shape-rendering="auto" text-anchor="start" text-decoration="none" text-rendering="auto" visibility="visible" word-spacing="normal" writing-mode="lr-tb" style="line-height:normal;text-indent:0;text-align:start;text-decoration-line:none;text-decoration-style:solid;text-decoration-color:#000;text-transform:none;block-progression:tb;white-space:normal;isolation:auto;mix-blend-mode:normal;solid-color:#000;solid-opacity:1"/><path id="path4196" fill="#cfd8dc" fill-opacity="1" fill-rule="evenodd" stroke="none" stroke-dasharray="none" stroke-dashoffset="0" stroke-linecap="butt" stroke-linejoin="round" stroke-miterlimit="4" stroke-opacity="1" stroke-width="1" d="m 15.4,1029.8486 -0.4,3.7445 -2,1.3342 0,-1.612 z" baseline-shift="baseline" clip-rule="nonzero" color="#000" color-interpolation="sRGB" color-interpolation-filters="linearRGB" color-rendering="auto" direction="ltr" display="inline" enable-background="accumulate" font-family="sans-serif" font-size="medium" font-stretch="normal" font-style="normal" font-variant="normal" font-weight="normal" image-rendering="auto" letter-spacing="normal" opacity="1" overflow="visible" shape-rendering="auto" text-anchor="start" text-decoration="none" text-rendering="auto" visibility="visible" word-spacing="normal" writing-mode="lr-tb" style="line-height:normal;text-indent:0;text-align:start;text-decoration-line:none;text-decoration-style:solid;text-decoration-color:#000;text-transform:none;block-progression:tb;white-space:normal;isolation:auto;mix-blend-mode:normal;solid-color:#000;solid-opacity:1"/><rect id="rect4150" width="4" height="12" x="14" y="1036.362" fill="#ffa726" fill-opacity="1" stroke="none" stroke-dasharray="none" stroke-linecap="round" stroke-linejoin="round" stroke-miterlimit="4" stroke-opacity="1" stroke-width="2" opacity="1"/><path id="path4574" fill="url(#linearGradient4580)" fill-opacity="1" stroke="none" stroke-dasharray="none" stroke-linecap="round" stroke-linejoin="round" stroke-miterlimit="4" stroke-opacity=".528" stroke-width="2" d="m 5,1048.3622 0,4 22,0 0,-4 z" opacity="1"/><path id="path4572" fill="url(#radialGradient4578)" fill-opacity="1" stroke="none" stroke-dasharray="none" stroke-linecap="round" stroke-linejoin="round" stroke-miterlimit="4" stroke-opacity=".528" stroke-width="2" d="m 5,1048.3622 -3,0 0,1 c 0,1.662 1.33799,3 3,3 l 0,-4 z" opacity="1"/><path id="path4570" fill="url(#radialGradient4576)" fill-opacity="1" stroke="none" stroke-dasharray="none" stroke-linecap="round" stroke-linejoin="round" stroke-miterlimit="4" stroke-opacity=".528" stroke-width="2" d="m 27,1048.3622 0,4 c 1.66201,0 3,-1.338 3,-3 l 0,-1 -3,0 z" opacity="1"/><rect id="rect4154" width="1" height="3" x="16" y="1041.362" fill="#ffe0b2" fill-opacity="1" stroke="none" stroke-dasharray="none" stroke-linecap="round" stroke-linejoin="round" stroke-miterlimit="4" stroke-opacity="1" stroke-width="2" opacity="1"/><path id="path4154" fill="#b0bec5" fill-opacity="1" stroke="none" stroke-dasharray="none" stroke-linecap="round" stroke-linejoin="round" stroke-miterlimit="4" stroke-opacity="1" stroke-width="2" d="M 11.5,1040.3622 A 5.5,5.5 0 0 0 7.2539062,1042.37 5.5,5.5 0 0 0 2,1047.8622 a 5.5,5.5 0 0 0 0.025391,0.5 l 27.947265,0 A 5.5,5.5 0 0 0 30,1047.8622 5.5,5.5 0 0 0 24.746094,1042.37 5.5,5.5 0 0 0 20.5,1040.3622 a 5.5,5.5 0 0 0 -4.5,2.3477 5.5,5.5 0 0 0 -4.5,-2.3477 z" opacity="1"/><path id="circle4176" fill="#eceff1" fill-opacity="1" stroke="none" stroke-dasharray="none" stroke-linecap="round" stroke-linejoin="round" stroke-miterlimit="4" stroke-opacity="1" stroke-width="2" d="M 11.5 21 A 4.5 4.5 0 0 0 7.7519531 23.013672 A 4.5 4.5 0 0 0 7.5 23 A 4.5 4.5 0 0 0 3 27.5 L 3 29 L 29 29 L 29 27.550781 A 4.5 4.5 0 0 0 29 27.5 A 4.5 4.5 0 0 0 24.5 23 A 4.5 4.5 0 0 0 24.248047 23.013672 A 4.5 4.5 0 0 0 20.5 21 A 4.5 4.5 0 0 0 16.478516 23.484375 A 4.5 4.5 0 0 0 16 23.759766 A 4.5 4.5 0 0 0 15.521484 23.484375 A 4.5 4.5 0 0 0 11.5 21 z" opacity="1" transform="translate(0,1020.3622)"/><path id="rect4198" fill="#b0bec5" fill-opacity="1" stroke="none" stroke-dasharray="none" stroke-linecap="round" stroke-linejoin="round" stroke-miterlimit="4" stroke-opacity="1" stroke-width="2" d="M 2 28 C 2 29.107995 2.8920048 30 4 30 L 28 30 C 29.107995 30 30 29.107995 30 28 L 29 28 C 29 28.554 28.554 29 28 29 L 4 29 C 3.446 29 3 28.554 3 28 L 2 28 z" opacity="1" transform="translate(0,1020.3622)"/><rect id="rect4152" width="1" height="3" x="15" y="1037.362" fill="#ffe0b2" fill-opacity="1" stroke="none" stroke-dasharray="none" stroke-linecap="round" stroke-linejoin="round" stroke-miterlimit="4" stroke-opacity="1" stroke-width="2" opacity="1"/><rect id="rect4156" width="6" height="1" x="13" y="1038.362" fill="#607d8b" fill-opacity="1" stroke="none" stroke-dasharray="none" stroke-linecap="round" stroke-linejoin="round" stroke-miterlimit="4" stroke-opacity="1" stroke-width="2" opacity="1"/><path id="path4158" fill="#607d8b" fill-opacity="1" fill-rule="evenodd" stroke="none" stroke-linecap="butt" stroke-linejoin="miter" stroke-opacity="1" stroke-width="1" d="m 13,1038.3622 1,-2 4,0 1,2 z"/><rect id="rect4160" width="4" height="1" x="14" y="1037.362" fill="#b0bec5" fill-opacity="1" stroke="none" stroke-dasharray="none" stroke-linecap="round" stroke-linejoin="round" stroke-miterlimit="4" stroke-opacity="1" stroke-width="2" opacity="1"/><path id="rect4162" fill="#607d8b" fill-opacity="1" stroke="none" stroke-dasharray="none" stroke-linecap="round" stroke-linejoin="round" stroke-miterlimit="4" stroke-opacity="1" stroke-width="2" d="M 15.964844 2.0019531 C 15.801631 2.0129531 15.654283 2.1037406 15.570312 2.2441406 L 14.070312 4.7441406 C 14.021066 4.8268781 13.999645 4.9140966 14 5 C 14.000003 5.00061 13.999995 5.0013433 14 5.0019531 L 14 16 L 18 16 L 18 5.0019531 C 18.000005 5.0013433 17.999997 5.00061 18 5 C 18.000355 4.9140966 17.978934 4.8268781 17.929688 4.7441406 L 16.429688 2.2441406 C 16.332857 2.0821406 16.153081 1.9885531 15.964844 2.0019531 z" opacity="1" transform="translate(0,1020.3622)"/><rect id="rect4169" width="2" height="2" x="14" y="1026.362" fill="#546e7a" fill-opacity="1" stroke="none" stroke-dasharray="none" stroke-linecap="round" stroke-linejoin="round" stroke-miterlimit="4" stroke-opacity="1" stroke-width="2" opacity="1"/><rect id="rect4171" width="2" height="2" x="16" y="1026.362" fill="#546e7a" fill-opacity="1" stroke="none" stroke-dasharray="none" stroke-linecap="round" stroke-linejoin="round" stroke-miterlimit="4" stroke-opacity="1" stroke-width="2" opacity="1"/><path id="rect4173" fill="#cfd8dc" fill-opacity="1" stroke="none" stroke-dasharray="none" stroke-linecap="round" stroke-linejoin="round" stroke-miterlimit="4" stroke-opacity="1" stroke-width="2" d="M 16.003906 3.5 A 0.50005 0.50005 0 0 0 15.552734 3.7773438 L 15.052734 4.7773438 A 0.50005 0.50005 0 0 0 15 5 A 0.50005 0.50005 0 0 0 15 5.0175781 L 15 15 L 17 15 L 17 5 A 0.50005 0.50005 0 0 0 16.947266 4.7773438 L 16.447266 3.7773438 A 0.50005 0.50005 0 0 0 16.003906 3.5 z" opacity="1" transform="translate(0,1020.3622)"/><circle id="path4180" cx="16" cy="1027.362" r="1" fill="#26c6da" fill-opacity="1" stroke="none" stroke-dasharray="none" stroke-linecap="round" stroke-linejoin="round" stroke-miterlimit="4" stroke-opacity="1" stroke-width="2" opacity="1"/></g></svg>