<svg xmlns="http://www.w3.org/2000/svg" xmlns:svg="http://www.w3.org/2000/svg" xmlns:xlink="http://www.w3.org/1999/xlink" id="svg2" width="32" height="32" version="1.1" viewBox="0 0 32 32"><defs id="defs4"><linearGradient id="Shadow"><stop id="stop4181" offset="0" stop-color="#000" stop-opacity="1"/><stop id="stop4183" offset="1" stop-color="#000" stop-opacity="0"/></linearGradient><radialGradient id="radialGradient4576" cx="28" cy="28.5" r="1.5" fx="28" fy="28.5" gradientTransform="matrix(3.1111458e-7,2.6666673,-1.9999997,2.3333583e-7,84.99998,973.69551)" gradientUnits="userSpaceOnUse" xlink:href="#Shadow"/><linearGradient id="linearGradient4580" x1="16" x2="16" y1="28" y2="32" gradientTransform="translate(2,1020.3622)" gradientUnits="userSpaceOnUse" xlink:href="#Shadow"/><radialGradient id="radialGradient4578" cx=".56" cy="31.147" r="1.5" fx=".56" fy="31.147" gradientTransform="matrix(-1.9999998,2.4329792e-6,-3.2319946e-6,-2.6666666,18.119531,1131.421)" gradientUnits="userSpaceOnUse" xlink:href="#Shadow"/><linearGradient id="linearGradient4380" x1="16" x2="16" y1="28" y2="32" gradientTransform="translate(-11,1018.3622)" gradientUnits="userSpaceOnUse" xlink:href="#Shadow"/><radialGradient id="radialGradient4382" cx=".56" cy="31.147" r="1.5" fx=".56" fy="31.147" gradientTransform="matrix(-1.9999998,2.4329792e-6,-3.2319946e-6,-2.6666666,5.119531,1129.421)" gradientUnits="userSpaceOnUse" xlink:href="#Shadow"/><radialGradient id="radialGradient4279" cx="408.571" cy="532.498" r="1" fx="408.571" fy="532.498" gradientTransform="matrix(3.0000158,-1.7994519e-5,1.7994657e-5,3.000037,-1223.7303,-548.14408)" gradientUnits="userSpaceOnUse" xlink:href="#Shadow"/><radialGradient id="radialGradient4414" cx="2" cy="1027.362" r="2" fx="2" fy="1027.362" gradientTransform="translate(0,-0.99986033)" gradientUnits="userSpaceOnUse" xlink:href="#Shadow"/></defs><metadata id="metadata7"/><g id="layer1" transform="translate(0,-1020.3622)"><rect id="rect4277" width="2" height="5" x="1" y="1047.362" fill="url(#radialGradient4279)" fill-opacity="1" stroke="none" stroke-dasharray="none" stroke-linecap="butt" stroke-linejoin="round" stroke-miterlimit="4" stroke-opacity="1" stroke-width="2" opacity="1" ry="1"/><path id="path4376" fill="url(#linearGradient4380)" fill-opacity="1" stroke="none" stroke-dasharray="none" stroke-linecap="round" stroke-linejoin="round" stroke-miterlimit="4" stroke-opacity=".528" stroke-width="2" d="m 4,1046.3622 0,4 11,0 0,-4 z" opacity="1"/><path id="path4378" fill="url(#radialGradient4382)" fill-opacity="1" stroke="none" stroke-dasharray="none" stroke-linecap="round" stroke-linejoin="round" stroke-miterlimit="4" stroke-opacity=".528" stroke-width="2" d="m 4,1046.3622 -3,0 0,1 c 0,1.662 1.33799,3 3,3 l 0,-4 z" opacity="1"/><path id="path4574" fill="url(#linearGradient4580)" fill-opacity="1" stroke="none" stroke-dasharray="none" stroke-linecap="round" stroke-linejoin="round" stroke-miterlimit="4" stroke-opacity=".528" stroke-width="2" d="m 17,1048.3622 0,4 11,0 0,-4 z" opacity="1"/><path id="path4572" fill="url(#radialGradient4578)" fill-opacity="1" stroke="none" stroke-dasharray="none" stroke-linecap="round" stroke-linejoin="round" stroke-miterlimit="4" stroke-opacity=".528" stroke-width="2" d="m 17,1048.3622 -3,0 0,1 c 0,1.662 1.33799,3 3,3 l 0,-4 z" opacity="1"/><path id="path4570" fill="url(#radialGradient4576)" fill-opacity="1" stroke="none" stroke-dasharray="none" stroke-linecap="round" stroke-linejoin="round" stroke-miterlimit="4" stroke-opacity=".528" stroke-width="2" d="m 28,1048.3622 0,4 c 1.66201,0 3,-1.338 3,-3 l 0,-1 -3,0 z" opacity="1"/><path id="rect4330" fill="#3f51b5" fill-opacity="1" stroke="none" stroke-dasharray="none" stroke-linecap="round" stroke-linejoin="round" stroke-miterlimit="4" stroke-opacity="1" stroke-width="2" d="m 16.000017,1028.3622 12.999966,0 c 1.108009,0 2.000017,0.892 2.000017,2 l -8,9 8,8.9999 c 0.736184,0.8282 -0.892008,2.0001 -2.000017,2.0001 l -12.999966,0 C 14.892008,1050.3622 14,1049.4702 14,1048.3621 l 0,-17.9999 c 0,-1.108 0.892008,-2 2.000017,-2 z" opacity="1"/><path id="rect4332" fill="#5c6bc0" fill-opacity="1" stroke="none" stroke-dasharray="none" stroke-linecap="round" stroke-linejoin="round" stroke-miterlimit="4" stroke-opacity="1" stroke-width="2" d="m 16.000017,1029.3622 12.999966,0 c 0.277004,0 0.527009,0.1115 0.707762,0.2923 0.180753,0.1807 0.292255,0.4307 0.292255,0.7077 l -8,9 8,9 c 0.368058,0.4141 -0.446008,1 -1.000017,1 l -12.999966,0 c -0.554009,0 -1.000017,-0.446 -1.000017,-1 l 0,-18 c 0,-0.554 0.446008,-1 1.000017,-1 z" opacity="1"/><path id="rect4324" fill="#3f51b5" fill-opacity="1" stroke="none" stroke-dasharray="none" stroke-linecap="round" stroke-linejoin="round" stroke-miterlimit="4" stroke-opacity="1" stroke-width="2" d="m 3.000017,1026.3622 9.999966,0 c 1.108009,0 1.649637,0.9489 2.000017,2 l 6,18 c 0.35038,1.0511 -0.892008,2 -2.000017,2 l -15.999966,0 c -1.108009,0 -2.000017,-0.892 -2.000017,-2 l 0,-18 c 0,-1.108 0.892008,-2 2.000017,-2 z" opacity="1"/><path id="rect4327" fill="#5c6bc0" fill-opacity="1" stroke="none" stroke-dasharray="none" stroke-linecap="round" stroke-linejoin="round" stroke-miterlimit="4" stroke-opacity="1" stroke-width="2" d="m 3.000017,1027.3622 9.999966,0 c 0.554009,0 0.824827,0.4744 1.000017,1 l 6,18 c 0.17519,0.5256 -0.446008,1 -1.000017,1 l -15.999966,0 c -0.554009,0 -1.000017,-0.446 -1.000017,-1 l 0,-18 c 0,-0.554 0.446008,-1 1.000017,-1 z" opacity="1"/><path id="rect4342" fill="#3949ab" fill-opacity="1" stroke="none" stroke-dasharray="none" stroke-linecap="round" stroke-linejoin="round" stroke-miterlimit="4" stroke-opacity="1" stroke-width="2" d="M 14 28 L 14 28.259766 C 14 29.223392 14.776608 30 15.740234 30 L 16 30 L 19 28 L 16 28 L 14 28 z" opacity="1" transform="translate(0,1020.3622)"/><rect id="rect4384" width="2" height="25" x="1" y="1025.362" fill="#455a64" fill-opacity="1" stroke="none" stroke-dasharray="none" stroke-linecap="round" stroke-linejoin="round" stroke-miterlimit="4" stroke-opacity="1" stroke-width="2" opacity="1" ry="1"/><circle id="circle4410" cx="2" cy="1026.362" r="2" fill="url(#radialGradient4414)" fill-opacity="1" stroke="none" stroke-dasharray="none" stroke-linecap="round" stroke-linejoin="round" stroke-miterlimit="4" stroke-opacity="1" stroke-width="2" opacity="1"/><circle id="path4406" cx="2" cy="1025.362" r="2" fill="#ffb74d" fill-opacity="1" stroke="none" stroke-dasharray="none" stroke-linecap="round" stroke-linejoin="round" stroke-miterlimit="4" stroke-opacity="1" stroke-width="2" opacity="1"/><circle id="circle4408" cx="2" cy="1025.362" r="1" fill="#ffcc80" fill-opacity="1" stroke="none" stroke-dasharray="none" stroke-linecap="round" stroke-linejoin="round" stroke-miterlimit="4" stroke-opacity="1" stroke-width="2" opacity="1"/></g></svg>