<svg xmlns="http://www.w3.org/2000/svg" xmlns:svg="http://www.w3.org/2000/svg" xmlns:xlink="http://www.w3.org/1999/xlink" id="svg2" width="32" height="32" version="1.1" viewBox="0 0 32 32"><defs id="defs4"><linearGradient id="Shadow"><stop id="stop4181" offset="0" stop-color="#000" stop-opacity="1"/><stop id="stop4183" offset="1" stop-color="#000" stop-opacity="0"/></linearGradient><radialGradient id="radialGradient4576-1" cx="28" cy="28.5" r="1.5" fx="28" fy="28.5" gradientTransform="matrix(3.1111458e-7,2.6666673,-1.9999997,2.3333583e-7,80.99998,973.69551)" gradientUnits="userSpaceOnUse" xlink:href="#Shadow"/><radialGradient id="radialGradient4578-6" cx=".56" cy="31.147" r="1.5" fx=".56" fy="31.147" gradientTransform="matrix(-1.9999998,2.4329792e-6,-3.2319946e-6,-2.6666666,9.1195311,1131.421)" gradientUnits="userSpaceOnUse" xlink:href="#Shadow"/><linearGradient id="linearGradient4255" x1="16" x2="16" y1="28" y2="32" gradientTransform="translate(1.3846069e-7,1020.3622)" gradientUnits="userSpaceOnUse" xlink:href="#Shadow"/><radialGradient id="radialGradient4205" cx="23" cy="1031.362" r="6" fx="23" fy="1031.362" gradientTransform="matrix(1,0,0,1.000006,1,-2.0053555)" gradientUnits="userSpaceOnUse" xlink:href="#linearGradient4164"/><linearGradient id="linearGradient4164"><stop id="stop4166" offset="0" stop-color="#000" stop-opacity="1"/><stop id="stop4170" offset=".667" stop-color="#000" stop-opacity="1"/><stop id="stop4168" offset="1" stop-color="#000" stop-opacity="0"/></linearGradient><linearGradient id="linearGradient4259"><stop id="stop4261" offset="0" stop-color="#000" stop-opacity=".196"/><stop id="stop4265" offset=".8" stop-color="#000" stop-opacity=".498"/><stop id="stop4263" offset="1" stop-color="#000" stop-opacity="0"/></linearGradient><linearGradient id="linearGradient4257" x1="16" x2="16" y1="1033.462" y2="1043.462" gradientTransform="translate(-6.2e-6,-1020.4622)" gradientUnits="userSpaceOnUse" xlink:href="#linearGradient4259"/><linearGradient id="linearGradient4337" x1="16" x2="16" y1="1033.462" y2="1043.462" gradientTransform="translate(-6.2e-6,-0.1)" gradientUnits="userSpaceOnUse" xlink:href="#linearGradient4259"/></defs><metadata id="metadata7"/><g id="layer1" transform="translate(0,-1020.3622)"><path id="path4574-2" fill="url(#linearGradient4255)" fill-opacity="1" stroke="none" stroke-dasharray="none" stroke-linecap="round" stroke-linejoin="round" stroke-miterlimit="4" stroke-opacity=".528" stroke-width="2" d="m 8.0000001,1048.3622 0,4 15.9999999,0 0,-4 z" opacity="1"/><path id="path4572-1" fill="url(#radialGradient4578-6)" fill-opacity="1" stroke="none" stroke-dasharray="none" stroke-linecap="round" stroke-linejoin="round" stroke-miterlimit="4" stroke-opacity=".528" stroke-width="2" d="m 8.0000001,1048.3622 -3,0 0,1 c 0,1.662 1.33799,3 3,3 l 0,-4 z" opacity="1"/><path id="path4570-2" fill="url(#radialGradient4576-1)" fill-opacity="1" stroke="none" stroke-dasharray="none" stroke-linecap="round" stroke-linejoin="round" stroke-miterlimit="4" stroke-opacity=".528" stroke-width="2" d="m 24,1048.3622 0,4 c 1.66201,0 3,-1.338 3,-3 l 0,-1 -3,0 z" opacity="1"/><rect id="rect4582" width="22" height="26" x="5" y="1024.362" fill="#bdbdbd" fill-opacity="1" stroke="none" stroke-dasharray="none" stroke-linecap="round" stroke-linejoin="round" stroke-miterlimit="4" stroke-opacity=".528" stroke-width="2" opacity="1" ry="2.167"/><rect id="rect4168" width="20" height="24" x="6" y="1025.362" fill="#f5f5f5" fill-opacity="1" stroke="none" stroke-dasharray="none" stroke-linecap="round" stroke-linejoin="round" stroke-miterlimit="4" stroke-opacity=".528" stroke-width="2" opacity="1" ry="1"/><path id="path4270" fill="url(#linearGradient4337)" fill-opacity="1" stroke="none" stroke-dasharray="none" stroke-linecap="round" stroke-linejoin="round" stroke-miterlimit="4" stroke-opacity=".528" stroke-width="2" d="m 14.999994,1040.3622 -2,0 0,1 -1,0 0,2 4,0 0,-2 -1,0 z" opacity="1"/><path id="path4255" fill="url(#linearGradient4257)" fill-opacity="1" stroke="none" stroke-dasharray="none" stroke-linecap="round" stroke-linejoin="round" stroke-miterlimit="4" stroke-opacity=".528" stroke-width="2" d="M 12 13 L 12 14 L 13 14 L 13 15 L 13 17 L 13 20 L 15 20 L 15 18 L 16 18 L 16 19 L 17 19 L 17 18 L 17 17 L 17 16 L 16 16 L 16 17 L 15 17 L 15 15 L 19 15 L 20 17 L 21 17 L 21 15 L 21 13 L 13 13 L 12 13 z" opacity=".5" transform="translate(0,1020.3622)"/><path id="rect4240" fill="#9e9e9e" fill-opacity="1" stroke="none" stroke-dasharray="none" stroke-linecap="round" stroke-linejoin="round" stroke-miterlimit="4" stroke-opacity=".528" stroke-width="2" d="M 12 12 L 12 13 L 13 13 L 13 14 L 13 17 L 13 20 L 12 20 L 12 22 L 16 22 L 16 20 L 15 20 L 15 17 L 16 17 L 16 18 L 17 18 L 17 17 L 17 16 L 17 15 L 16 15 L 16 16 L 15 16 L 15 14 L 19 14 L 20 16 L 21 16 L 21 14 L 21 12 L 13 12 L 12 12 z" opacity="1" transform="translate(0,1020.3622)"/><ellipse id="circle4201" cx="24" cy="1029.362" fill="url(#radialGradient4205)" fill-opacity="1" stroke="none" stroke-dasharray="none" stroke-linecap="round" stroke-linejoin="round" stroke-miterlimit="4" stroke-opacity="1" stroke-width="2" opacity="1" rx="6" ry="6"/><ellipse id="path4174" cx="24" cy="1028.362" fill="#4caf50" fill-opacity="1" stroke="none" stroke-dasharray="none" stroke-linecap="round" stroke-linejoin="round" stroke-miterlimit="4" stroke-opacity="1" stroke-width="2" opacity="1" rx="6" ry="6"/><ellipse id="ellipse4277" cx="24" cy="1028.362" fill="#66bb6a" fill-opacity="1" stroke="none" stroke-dasharray="none" stroke-linecap="round" stroke-linejoin="round" stroke-miterlimit="4" stroke-opacity="1" stroke-width="2" opacity="1" rx="5" ry="5"/><path id="path4279" fill="#fafafa" fill-opacity="1" fill-rule="evenodd" stroke="none" stroke-linecap="butt" stroke-linejoin="miter" stroke-opacity="1" stroke-width="1" d="m 22,1025.3622 4,0 0,4 2,0 -4,3 -4,-3 2,0 z"/></g></svg>