<svg xmlns="http://www.w3.org/2000/svg" xmlns:svg="http://www.w3.org/2000/svg" xmlns:xlink="http://www.w3.org/1999/xlink" id="svg2" width="32" height="32" version="1.1" viewBox="0 0 32 32"><defs id="defs4"><linearGradient id="Shadow"><stop id="stop4281" offset="0" stop-color="#000" stop-opacity="1"/><stop id="stop4283" offset="1" stop-color="#000" stop-opacity="0"/></linearGradient><radialGradient id="radialGradient4285" cx="17" cy="1048.251" r="3.5" fx="17" fy="1048.251" gradientTransform="matrix(8.0146476e-7,1.1428493,-1.7142926,1.2022102e-6,1814.0091,1028.9326)" gradientUnits="userSpaceOnUse" xlink:href="#Shadow"/><radialGradient id="radialGradient4287" cx="6.896" cy="1047.099" r="3.5" fx="6.896" fy="1047.099" gradientTransform="matrix(-1.7142858,-1.5047276e-5,1.0032934e-5,-1.1428705,26.811938,2245.0613)" gradientUnits="userSpaceOnUse" xlink:href="#Shadow"/><linearGradient id="linearGradient4291" x1="16" x2="16" y1="1048.362" y2="1052.362" gradientUnits="userSpaceOnUse" xlink:href="#Shadow"/></defs><metadata id="metadata7"/><g id="layer1" transform="translate(0,-1020.3622)"><rect id="rect4269" width="2" height="9" x="15" y="1043.362" fill="url(#linearGradient4291)" fill-opacity="1" stroke="none" stroke-dasharray="none" stroke-linecap="round" stroke-linejoin="round" stroke-miterlimit="4" stroke-opacity="1" stroke-width="2" opacity="1"/><path id="path4164" fill="url(#radialGradient4287)" fill-opacity="1" stroke="none" stroke-dasharray="none" stroke-linecap="round" stroke-linejoin="round" stroke-miterlimit="4" stroke-opacity="1" stroke-width="2" d="m 15,1043.3622 -7,0 0,2 c 0,3.878 3.122,7 7,7 l 0,-9 z" opacity="1"/><path id="path4174" fill="url(#radialGradient4285)" fill-opacity="1" stroke="none" stroke-dasharray="none" stroke-linecap="round" stroke-linejoin="round" stroke-miterlimit="4" stroke-opacity="1" stroke-width="2" d="m 17,1043.3622 7,0 0,2 c 0,3.878 -3.122,7 -7,7 l 0,-9 z" opacity="1"/><rect id="rect4154" width="16" height="26" x="8" y="1024.362" fill="#1565c0" fill-opacity="1" stroke="none" stroke-dasharray="none" stroke-linecap="round" stroke-linejoin="round" stroke-miterlimit="4" stroke-opacity="1" stroke-width="2" opacity="1" ry="7"/><rect id="rect4178" width="14" height="24" x="9" y="1025.362" fill="#1976d2" fill-opacity="1" stroke="none" stroke-dasharray="none" stroke-linecap="round" stroke-linejoin="round" stroke-miterlimit="4" stroke-opacity="1" stroke-width="2" opacity="1" ry="6"/><path id="rect4233" fill="#e3f2fd" fill-opacity="1" stroke="none" stroke-dasharray="none" stroke-linecap="round" stroke-linejoin="round" stroke-miterlimit="4" stroke-opacity="1" stroke-width="2" d="M 15 10 L 15 10.009766 L 15 10.417969 L 15 15.791016 L 12.804688 13.597656 L 12.097656 14.302734 L 14.792969 16.998047 L 12.097656 19.693359 L 12.804688 20.400391 L 15 18.208984 L 15 23.582031 L 15 23.990234 L 15 23.996094 L 15.599609 23.996094 L 16 24 L 19.599609 20.402344 L 16.212891 17 L 19.599609 13.597656 L 16 10 L 15 10 z M 16 11.412109 L 18.199219 13.595703 L 16 15.794922 L 16 11.412109 z M 16 18.201172 L 18.199219 20.400391 L 16 22.587891 L 16 18.201172 z" opacity="1" transform="translate(0,1020.3622)"/></g></svg>