<svg xmlns="http://www.w3.org/2000/svg" xmlns:svg="http://www.w3.org/2000/svg" xmlns:xlink="http://www.w3.org/1999/xlink" id="svg2" width="32" height="32" version="1.1" viewBox="0 0 32 32"><defs id="defs4"><linearGradient id="linearGradient4407"><stop id="stop4409" offset="0" stop-color="#000" stop-opacity="1"/><stop id="stop4411" offset="1" stop-color="#000" stop-opacity="0"/></linearGradient><style id="current-color-scheme" type="text/css"/><style id="current-color-scheme-10" type="text/css"/><style id="current-color-scheme-1" type="text/css"/><linearGradient id="linearGradient4301" x1="12" x2="4" y1="1031.362" y2="1035.981" gradientTransform="translate(2.0217383e-6,0)" gradientUnits="userSpaceOnUse" xlink:href="#Shadow"/><linearGradient id="Shadow"><stop id="stop4260" offset="0" stop-color="#000" stop-opacity="1"/><stop id="stop4262" offset=".308" stop-color="#000" stop-opacity=".309"/><stop id="stop4282" offset=".538" stop-color="#000" stop-opacity=".094"/><stop id="stop4284" offset=".692" stop-color="#000" stop-opacity=".133"/><stop id="stop4264" offset=".846" stop-color="#000" stop-opacity=".118"/><stop id="stop4266" offset="1" stop-color="#000" stop-opacity="0"/></linearGradient><radialGradient id="radialGradient4360" cx="6.799" cy="25.36" r="6.014" fx="6.799" fy="25.36" gradientTransform="matrix(1.3302942,2.0923983e-7,2.3791341e-7,-1.4965809,9.9281406,1081.3161)" gradientUnits="userSpaceOnUse" xlink:href="#Shadow"/><radialGradient id="radialGradient4328" cx="6.799" cy="25.36" r="6.014" fx="6.799" fy="25.36" gradientTransform="matrix(-1.3302942,2.0923983e-7,-2.3791341e-7,-1.4965809,22.044447,1081.3161)" gradientUnits="userSpaceOnUse" xlink:href="#Shadow"/><linearGradient id="linearGradient4385" x1="12" x2="4" y1="1031.362" y2="1035.981" gradientTransform="matrix(-1,0,0,1,31.972586,0)" gradientUnits="userSpaceOnUse" xlink:href="#Shadow"/><linearGradient id="linearGradient4413" x1="17" x2="20" y1="1043.362" y2="1046.362" gradientTransform="translate(-0.9999998,-4.2446442e-4)" gradientUnits="userSpaceOnUse" xlink:href="#linearGradient4407"/><linearGradient id="linearGradient4420" x1="17" x2="20" y1="1043.362" y2="1046.362" gradientTransform="matrix(-1,0,0,1,43,-4.2446442e-4)" gradientUnits="userSpaceOnUse" xlink:href="#linearGradient4407"/></defs><metadata id="metadata7"/><g id="layer1" transform="translate(0,-1020.3622)"><path id="path4356" fill="url(#radialGradient4360)" fill-opacity="1" fill-rule="evenodd" stroke="none" stroke-linecap="butt" stroke-linejoin="miter" stroke-opacity="1" stroke-width="1" d="m 15.972586,1037.3622 10.966796,0 -0.04687,0.7383 a 11,11 0 0 1 0.08008,1.2617 11,11 0 0 1 -0.08203,1.2246 l 0.107422,1.6777 c 0.959565,0.554 1.286427,1.7729 0.732422,2.7325 l -1,1.7304 c -0.554005,0.9596 -1.772857,1.2865 -2.732422,0.7325 l -1.501953,0.7421 a 11,11 0 0 1 -2.164062,1.254 l -1.359375,0.9062 c 0,1.108 -0.89199,2 -2,2 l -1,0 0,-15 z"/><path id="path4318" fill="url(#radialGradient4328)" fill-opacity="1" fill-rule="evenodd" stroke="none" stroke-linecap="butt" stroke-linejoin="miter" stroke-opacity="1" stroke-width="1" d="m 16.000002,1037.3622 -10.9667969,0 0.046875,0.7383 a 11,11 0 0 0 -0.080078,1.2617 11,11 0 0 0 0.082031,1.2246 l -0.1074218,1.6777 c -0.9595645,0.554 -1.2864267,1.7729 -0.7324219,2.7325 l 1,1.7304 c 0.5540048,0.9596 1.7728574,1.2865 2.7324219,0.7325 l 1.5019531,0.7421 a 11,11 0 0 0 2.1640626,1.254 l 1.359375,0.9062 c 0,1.108 0.89199,2 2,2 l 1,0 0,-15 z"/><path id="path4306" fill="url(#linearGradient4301)" fill-opacity="1" fill-rule="evenodd" stroke="none" stroke-linecap="butt" stroke-linejoin="miter" stroke-opacity="1" stroke-width="1" d="m 15.000002,1026.3622 c -1.10801,0 -2,0.892 -2,2 l -1.400391,0.9336 a 11,11 0 0 0 -2.1269528,1.2285 l -1.4980468,0.7402 c -0.9595645,-0.554 -2.1784171,-0.2271 -2.7324219,0.7325 l -1,1.7304 c -0.5540048,0.9596 -0.2271426,2.1785 0.7324219,2.7325 l 0.058594,0.9023 10.9667966,0 0,-11 -1,0 z"/><path id="path4383" fill="url(#linearGradient4385)" fill-opacity="1" fill-rule="evenodd" stroke="none" stroke-linecap="butt" stroke-linejoin="miter" stroke-opacity="1" stroke-width="1" d="m 16.972586,1026.3622 c 1.10801,0 2,0.892 2,2 l 1.400391,0.9336 a 11,11 0 0 1 2.126952,1.2285 l 1.498047,0.7402 c 0.959565,-0.554 2.178417,-0.2271 2.732422,0.7325 l 1,1.7304 c 0.554005,0.9596 0.227143,2.1785 -0.732422,2.7325 l -0.05859,0.9023 -10.966796,0 0,-11 1,0 z"/><path id="path4329" fill="#455a64" fill-opacity="1" fill-rule="evenodd" stroke="none" stroke-linecap="butt" stroke-linejoin="miter" stroke-opacity="1" stroke-width="1" d="m 4.9737438,1040.2641 0.23205,-3.5981 5.0000002,8.6603 1,1.7321 -3.2320502,-1.5981 z"/><path id="path4331" fill="#455a64" fill-opacity="1" fill-rule="evenodd" stroke="none" stroke-linecap="butt" stroke-linejoin="miter" stroke-opacity="1" stroke-width="1" d="m 24.026302,1029.2641 -3.23205,-1.5981 5,8.6603 1,1.7321 0.23205,-3.5981 z"/><path id="path4333" fill="#455a64" fill-opacity="1" fill-rule="evenodd" stroke="none" stroke-linecap="butt" stroke-linejoin="miter" stroke-opacity="1" stroke-width="1" d="m 4.9737438,1034.4603 0.23205,3.5981 5.0000002,-8.6603 1,-1.7321 -3.2320502,1.5981 z"/><path id="path4335" fill="#455a64" fill-opacity="1" fill-rule="evenodd" stroke="none" stroke-linecap="butt" stroke-linejoin="miter" stroke-opacity="1" stroke-width="1" d="m 24.026302,1045.4603 -3.23205,1.5981 5,-8.6603 1,-1.7321 0.23205,3.5981 z"/><rect id="rect4311" width="6" height="26" x="903.382" y="491.825" fill="#455a64" fill-opacity="1" stroke="none" stroke-dasharray="none" stroke-linecap="round" stroke-linejoin="round" stroke-miterlimit="4" stroke-opacity="1" stroke-width="2" opacity="1" ry="2" transform="matrix(0.5,0.8660254,-0.8660254,0.5,0,0)"/><rect id="rect4313" width="6" height="26" x="-893.382" y="-545.537" fill="#455a64" fill-opacity="1" stroke="none" stroke-dasharray="none" stroke-linecap="round" stroke-linejoin="round" stroke-miterlimit="4" stroke-opacity="1" stroke-width="2" opacity="1" ry="2" transform="matrix(0.5,-0.8660254,-0.8660254,-0.5,0,0)"/><rect id="rect4309" width="6" height="26" x="13" y="1024.362" fill="#455a64" fill-opacity="1" stroke="none" stroke-dasharray="none" stroke-linecap="round" stroke-linejoin="round" stroke-miterlimit="4" stroke-opacity="1" stroke-width="2" opacity="1" ry="2"/><circle id="circle4305" cx="16" cy="1037.362" r="11" fill="#455a64" fill-opacity="1" stroke="none" stroke-dasharray="none" stroke-linecap="round" stroke-linejoin="round" stroke-miterlimit="4" stroke-opacity="1" stroke-width="2" opacity="1"/><circle id="circle4317" cx="16" cy="1037.362" r="10" fill="#546e7a" fill-opacity="1" stroke="none" stroke-dasharray="none" stroke-linecap="round" stroke-linejoin="round" stroke-miterlimit="4" stroke-opacity="1" stroke-width="2" opacity="1"/><rect id="rect4321" width="4" height="24" x="904.382" y="492.825" fill="#546e7a" fill-opacity="1" stroke="none" stroke-dasharray="none" stroke-linecap="round" stroke-linejoin="round" stroke-miterlimit="4" stroke-opacity="1" stroke-width="2" opacity="1" ry="1" transform="matrix(0.5,0.8660254,-0.8660254,0.5,0,0)"/><rect id="rect4323" width="4" height="24" x="-892.382" y="-544.538" fill="#546e7a" fill-opacity="1" stroke="none" stroke-dasharray="none" stroke-linecap="round" stroke-linejoin="round" stroke-miterlimit="4" stroke-opacity="1" stroke-width="2" opacity="1" ry="1" transform="matrix(0.5,-0.8660254,-0.8660254,-0.5,0,0)"/><path id="path4341" fill="#546e7a" fill-opacity="1" fill-rule="evenodd" stroke="none" stroke-linecap="butt" stroke-linejoin="miter" stroke-opacity="1" stroke-width="1" d="m 24.526302,1030.1301 -2.73205,-0.732 4,6.9282 0.73205,-2.732 z"/><path id="path4343" fill="#546e7a" fill-opacity="1" fill-rule="evenodd" stroke="none" stroke-linecap="butt" stroke-linejoin="miter" stroke-opacity="1" stroke-width="1" d="m 5.4737438,1041.1301 0.73205,-2.732 4.0000002,6.9282 -2.7320502,-0.732 z"/><path id="path4345" fill="#546e7a" fill-opacity="1" fill-rule="evenodd" stroke="none" stroke-linecap="butt" stroke-linejoin="miter" stroke-opacity="1" stroke-width="1" d="m 24.526302,1044.5943 -2.73205,0.732 4,-6.9282 0.73205,2.732 z"/><path id="path4347" fill="#546e7a" fill-opacity="1" fill-rule="evenodd" stroke="none" stroke-linecap="butt" stroke-linejoin="miter" stroke-opacity="1" stroke-width="1" d="m 5.4737438,1033.5943 0.73205,2.732 4.0000002,-6.9282 -2.7320502,0.732 z"/><path id="path4327" fill="#455a64" fill-opacity="1" fill-rule="evenodd" stroke="none" stroke-linecap="butt" stroke-linejoin="miter" stroke-opacity="1" stroke-width="1" d="m 13.000023,1048.3622 -3,-2 10,0 2,0 -3,2 z"/><path id="path4325" fill="#455a64" fill-opacity="1" fill-rule="evenodd" stroke="none" stroke-linecap="butt" stroke-linejoin="miter" stroke-opacity="1" stroke-width="1" d="m 13.000023,1026.3622 -3,2 10,0 2,0 -3,-2 z"/><rect id="rect4319" width="4" height="24" x="14" y="1025.362" fill="#546e7a" fill-opacity="1" stroke="none" stroke-dasharray="none" stroke-linecap="round" stroke-linejoin="round" stroke-miterlimit="4" stroke-opacity="1" stroke-width="2" opacity="1" ry="1"/><path id="path4337" fill="#546e7a" fill-opacity="1" fill-rule="evenodd" stroke="none" stroke-linecap="butt" stroke-linejoin="miter" stroke-opacity="1" stroke-width="1" d="m 14.000023,1026.3622 -2,2 8,0 -2,-2 z"/><path id="path4339" fill="#546e7a" fill-opacity="1" fill-rule="evenodd" stroke="none" stroke-linecap="butt" stroke-linejoin="miter" stroke-opacity="1" stroke-width="1" d="m 14.000023,1048.3622 -2,-2 8,0 -2,2 z"/><circle id="circle4303" cx="16" cy="1037.362" r="7" fill="#78909c" fill-opacity="1" stroke="none" stroke-dasharray="none" stroke-linecap="round" stroke-linejoin="round" stroke-miterlimit="4" stroke-opacity="1" stroke-width="2" opacity="1"/><circle id="circle4301" cx="16" cy="1037.362" r="5" fill="#455a64" fill-opacity="1" stroke="none" stroke-dasharray="none" stroke-linecap="round" stroke-linejoin="round" stroke-miterlimit="4" stroke-opacity="1" stroke-width="2" opacity="1"/><circle id="circle4299" cx="16" cy="1037.362" r="3" fill="#37474f" fill-opacity="1" stroke="none" stroke-dasharray="none" stroke-linecap="round" stroke-linejoin="round" stroke-miterlimit="4" stroke-opacity="1" stroke-width="2" opacity="1"/><circle id="path4297" cx="16" cy="1037.362" r="2" fill="#4dd0e1" fill-opacity="1" stroke="none" stroke-dasharray="none" stroke-linecap="round" stroke-linejoin="round" stroke-miterlimit="4" stroke-opacity="1" stroke-width="2" opacity="1"/><path id="path4403" fill="url(#linearGradient4413)" fill-opacity="1" fill-rule="evenodd" stroke="none" stroke-dasharray="none" stroke-dashoffset="0" stroke-linecap="round" stroke-linejoin="round" stroke-miterlimit="4" stroke-opacity="1" stroke-width="2" d="m 16,1042.3618 0,4 a 1.0001,1.0001 0 0 0 1.599609,0.8008 L 21,1044.6118 l 0,-2.25 -5,0 z" baseline-shift="baseline" clip-rule="nonzero" color="#000" color-interpolation="sRGB" color-interpolation-filters="linearRGB" color-rendering="auto" direction="ltr" display="inline" enable-background="accumulate" font-family="sans-serif" font-size="medium" font-stretch="normal" font-style="normal" font-variant="normal" font-weight="normal" image-rendering="auto" letter-spacing="normal" opacity="1" overflow="visible" shape-rendering="auto" text-anchor="start" text-decoration="none" text-rendering="auto" visibility="visible" word-spacing="normal" writing-mode="lr-tb" style="line-height:normal;text-indent:0;text-align:start;text-decoration-line:none;text-decoration-style:solid;text-decoration-color:#000;text-transform:none;block-progression:tb;white-space:normal;isolation:auto;mix-blend-mode:normal;solid-color:#000;solid-opacity:1"/><path display="inline" style="line-height:normal;text-indent:0;text-align:start;text-decoration-line:none;text-decoration-style:solid;text-decoration-color:#000;text-transform:none;block-progression:tb;white-space:normal;isolation:auto;mix-blend-mode:normal;solid-color:#000;solid-opacity:1" id="path4418" fill="url(#linearGradient4420)" fill-opacity="1" fill-rule="evenodd" stroke="none" stroke-dasharray="none" stroke-dashoffset="0" stroke-linecap="round" stroke-linejoin="round" stroke-miterlimit="4" stroke-opacity="1" stroke-width="2" d="m 26,1042.3618 0,4 a 1.0001,1.0001 0 0 1 -1.599609,0.8008 L 21,1044.6118 l 0,-2.25 5,0 z" baseline-shift="baseline" clip-rule="nonzero" color="#000" color-interpolation="sRGB" color-interpolation-filters="linearRGB" color-rendering="auto" direction="ltr" enable-background="accumulate" font-family="sans-serif" font-size="medium" font-stretch="normal" font-style="normal" font-variant="normal" font-weight="normal" image-rendering="auto" letter-spacing="normal" opacity="1" overflow="visible" shape-rendering="auto" text-anchor="start" text-decoration="none" text-rendering="auto" visibility="visible" word-spacing="normal" writing-mode="lr-tb"/><path id="path4393" fill="#37474f" fill-opacity="1" fill-rule="evenodd" stroke="none" stroke-dasharray="none" stroke-dashoffset="0" stroke-linecap="round" stroke-linejoin="round" stroke-miterlimit="4" stroke-opacity="1" stroke-width="2" d="m 17,1024.3622 a 1.0001,1.0001 0 0 0 -1,1 l 0,20 a 1.0001,1.0001 0 0 0 1.599609,0.8008 L 21,1043.6122 l 3.400391,2.5508 A 1.0001,1.0001 0 0 0 26,1045.3622 l 0,-20 a 1.0001,1.0001 0 0 0 -1,-1 l -8,0 z" baseline-shift="baseline" clip-rule="nonzero" color="#000" color-interpolation="sRGB" color-interpolation-filters="linearRGB" color-rendering="auto" direction="ltr" display="inline" enable-background="accumulate" font-family="sans-serif" font-size="medium" font-stretch="normal" font-style="normal" font-variant="normal" font-weight="normal" image-rendering="auto" letter-spacing="normal" opacity="1" overflow="visible" shape-rendering="auto" text-anchor="start" text-decoration="none" text-rendering="auto" visibility="visible" word-spacing="normal" writing-mode="lr-tb" style="line-height:normal;text-indent:0;text-align:start;text-decoration-line:none;text-decoration-style:solid;text-decoration-color:#000;text-transform:none;block-progression:tb;white-space:normal;isolation:auto;mix-blend-mode:normal;solid-color:#000;solid-opacity:1"/><path id="path4395" fill="#f44336" fill-opacity="1" fill-rule="evenodd" stroke="none" stroke-dasharray="none" stroke-dashoffset="0" stroke-linecap="butt" stroke-linejoin="round" stroke-miterlimit="4" stroke-opacity="1" stroke-width="1" d="m 17,1025.3622 8,0 0,19.0002 -3.699219,-2.4004 c -0.178101,-0.1341 -0.423461,-0.1341 -0.601562,0 L 17,1044.3624 Z" baseline-shift="baseline" clip-rule="nonzero" color="#000" color-interpolation="sRGB" color-interpolation-filters="linearRGB" color-rendering="auto" direction="ltr" display="inline" enable-background="accumulate" font-family="sans-serif" font-size="medium" font-stretch="normal" font-style="normal" font-variant="normal" font-weight="normal" image-rendering="auto" letter-spacing="normal" opacity="1" overflow="visible" shape-rendering="auto" text-anchor="start" text-decoration="none" text-rendering="auto" visibility="visible" word-spacing="normal" writing-mode="lr-tb" style="line-height:normal;text-indent:0;text-align:start;text-decoration-line:none;text-decoration-style:solid;text-decoration-color:#000;text-transform:none;block-progression:tb;white-space:normal;isolation:auto;mix-blend-mode:normal;solid-color:#000;solid-opacity:1"/><path id="path4422" fill="#ffcc80" fill-opacity="1" fill-rule="evenodd" stroke="none" stroke-linecap="butt" stroke-linejoin="miter" stroke-opacity="1" stroke-width="1" d="m 21,1032.3622 -1,2 -2,0 1.5,2 -0.5,2 2,-1 2,1 -0.6,-2 1.6,-2 -2,0 z"/></g></svg>