<svg xmlns="http://www.w3.org/2000/svg" xmlns:svg="http://www.w3.org/2000/svg" xmlns:xlink="http://www.w3.org/1999/xlink" id="svg2" width="32" height="32" version="1.1" viewBox="0 0 32 32"><defs id="defs4"><linearGradient id="linearGradient4166"><stop id="stop4168" offset="0" stop-color="#000" stop-opacity="1"/><stop id="stop4172" offset=".667" stop-color="#000" stop-opacity="1"/><stop id="stop4170" offset="1" stop-color="#000" stop-opacity="0"/></linearGradient><linearGradient id="Shadow"><stop id="stop4181" offset="0" stop-color="#000" stop-opacity="1"/><stop id="stop4183" offset="1" stop-color="#000" stop-opacity="0"/></linearGradient><linearGradient id="linearGradient4498" x1="15" x2="18" y1="1032.362" y2="1036.362" gradientTransform="translate(2,0)" gradientUnits="userSpaceOnUse" xlink:href="#Shadow"/><linearGradient id="linearGradient4504" x1="10" x2="14" y1="1031.362" y2="1036.362" gradientTransform="matrix(1,0,0,-1,1,2075.7244)" gradientUnits="userSpaceOnUse" xlink:href="#Shadow"/><radialGradient id="radialGradient4576" cx="28" cy="28.5" r="1.5" fx="28" fy="28.5" gradientTransform="matrix(3.1111458e-7,2.6666673,-1.9999997,2.3333583e-7,85.99998,973.69551)" gradientUnits="userSpaceOnUse" xlink:href="#Shadow"/><radialGradient id="radialGradient4578" cx=".56" cy="31.147" r="1.5" fx=".56" fy="31.147" gradientTransform="matrix(-1.9999998,2.4329792e-6,-3.2319946e-6,-2.6666666,4.119531,1131.421)" gradientUnits="userSpaceOnUse" xlink:href="#Shadow"/><linearGradient id="linearGradient4580" x1="16" x2="16" y1="28" y2="32" gradientTransform="translate(0,1020.3622)" gradientUnits="userSpaceOnUse" xlink:href="#Shadow"/><radialGradient id="radialGradient4191" cx="2" cy="1026.462" r="6" fx="2" fy="1026.462" gradientTransform="matrix(0,1,-1,0,1028.4622,5.0001)" gradientUnits="userSpaceOnUse" xlink:href="#linearGradient4166"/></defs><metadata id="metadata7"/><g id="layer1" transform="translate(0,-1020.3622)"><path id="path4574" fill="url(#linearGradient4580)" fill-opacity="1" stroke="none" stroke-dasharray="none" stroke-linecap="round" stroke-linejoin="round" stroke-miterlimit="4" stroke-opacity=".528" stroke-width="2" d="m 3,1048.3622 0,4 26,0 0,-4 z" opacity="1"/><path id="path4572" fill="url(#radialGradient4578)" fill-opacity="1" stroke="none" stroke-dasharray="none" stroke-linecap="round" stroke-linejoin="round" stroke-miterlimit="4" stroke-opacity=".528" stroke-width="2" d="m 3,1048.3622 -3,0 0,1 c 0,1.662 1.33799,3 3,3 l 0,-4 z" opacity="1"/><path id="path4570" fill="url(#radialGradient4576)" fill-opacity="1" stroke="none" stroke-dasharray="none" stroke-linecap="round" stroke-linejoin="round" stroke-miterlimit="4" stroke-opacity=".528" stroke-width="2" d="m 29,1048.3622 0,4 c 1.66201,0 3,-1.338 3,-3 l 0,-1 -3,0 z" opacity="1"/><rect id="rect4582" width="32" height="26" x="0" y="1024.362" fill="#263238" fill-opacity="1" stroke="none" stroke-dasharray="none" stroke-linecap="round" stroke-linejoin="round" stroke-miterlimit="4" stroke-opacity=".528" stroke-width="2" opacity="1" ry="2"/><rect id="rect4594" width="30" height="24" x="1" y="1025.362" fill="#37474f" fill-opacity="1" stroke="none" stroke-dasharray="none" stroke-linecap="round" stroke-linejoin="round" stroke-miterlimit="4" stroke-opacity=".528" stroke-width="2" opacity="1" ry="1"/><path id="path4253" fill="#ffb74d" fill-opacity="1" fill-rule="evenodd" stroke="none" stroke-linecap="butt" stroke-linejoin="miter" stroke-opacity="1" stroke-width="1" d="M 29 6.6425781 L 3 15 L 23 27 L 29 27 L 29 6.6425781 z" transform="translate(0,1020.3622)"/><rect id="rect4602" width="27" height="22" x="3" y="1026.362" fill="#ffb74d" fill-opacity="1" stroke="none" stroke-dasharray="none" stroke-linecap="round" stroke-linejoin="round" stroke-miterlimit="4" stroke-opacity=".528" stroke-width="2" opacity="1" ry="0"/><path id="path4170" fill="#ffa726" fill-opacity="1" fill-rule="evenodd" stroke="none" stroke-linecap="butt" stroke-linejoin="miter" stroke-opacity="1" stroke-width="1" d="m 2,1047.3622 28,-15 0,-6 z"/><path id="path4502" fill="url(#linearGradient4504)" fill-opacity="1" fill-rule="evenodd" stroke="none" stroke-linecap="butt" stroke-linejoin="miter" stroke-opacity="1" stroke-width="1" d="m 10.394531,1032.9852 -3.175781,1.0215 14.746094,12.7344 1.035156,0.6211 2.666016,0 0.333984,-1 -15.605469,-13.377 z"/><path id="path4496" fill="url(#linearGradient4498)" fill-opacity="1" fill-rule="evenodd" stroke="none" stroke-linecap="butt" stroke-linejoin="miter" stroke-opacity="1" stroke-width="1" d="m 30,1027.8622 -17.111328,12.834 2.658203,1.5937 L 30,1031.5849 l 0,-3.7227 z"/><path id="path4249" fill="#424242" fill-opacity="1" fill-rule="evenodd" stroke="none" stroke-linecap="butt" stroke-linejoin="miter" stroke-opacity="1" stroke-width="1" d="m 23,1047.3622 -20,-17 0,17 z"/><path id="path4172" fill="#616161" fill-opacity="1" fill-rule="evenodd" stroke="none" stroke-linecap="butt" stroke-linejoin="miter" stroke-opacity="1" stroke-width="1" d="m 14,1038.3622 0,8 -12,0 z"/><path id="path4251" fill="#4db6ac" fill-opacity="1" fill-rule="evenodd" stroke="none" stroke-linecap="butt" stroke-linejoin="miter" stroke-opacity="1" stroke-width="1" d="M 2 6 L 2 27 L 3 27 L 4 27 L 30 7.5 L 30 6 L 4 6 L 3 6 L 2 6 z" transform="translate(0,1020.3622)"/><rect id="rect4604" width="28" height="2" x="2" y="1046.362" fill="#eee" fill-opacity="1" stroke="none" stroke-dasharray="none" stroke-linecap="round" stroke-linejoin="round" stroke-miterlimit="4" stroke-opacity=".528" stroke-width="2" opacity="1"/><path id="path4165" fill="#80cbc4" fill-opacity="1" fill-rule="evenodd" stroke="none" stroke-linecap="butt" stroke-linejoin="miter" stroke-opacity="1" stroke-width="1" d="M 6 6 C 5.4973549 6 11.56215 11.304364 17.720703 16.708984 L 30 7.5 L 30 6 L 6 6 z" transform="translate(0,1020.3622)"/><rect id="rect4179" width="28" height="22" x="2" y="1026.362" fill="#000" fill-opacity="1" stroke="none" stroke-dasharray="none" stroke-linecap="round" stroke-linejoin="round" stroke-miterlimit="4" stroke-opacity=".528" stroke-width="2" opacity=".5" ry="0"/><path id="path4187" fill="url(#radialGradient4191)" fill-opacity="1" stroke="none" stroke-dasharray="none" stroke-linecap="round" stroke-linejoin="round" stroke-miterlimit="4" stroke-opacity=".528" stroke-width="2" d="M 2 6 L 2 12.900391 A 6 6 0 0 0 8 6.9003906 A 6 6 0 0 0 7.921875 6 L 2 6 z" opacity="1" transform="translate(0,1020.3622)"/><path id="circle4177" fill="#4fc3f7" fill-opacity="1" stroke="none" stroke-dasharray="none" stroke-linecap="round" stroke-linejoin="round" stroke-miterlimit="4" stroke-opacity=".528" stroke-width="2" d="M 2 6 L 2 12 A 6 6 0 0 0 8 6 L 2 6 z" opacity="1" transform="translate(0,1020.3622)"/><path id="path4173" fill="#29b6f6" fill-opacity="1" stroke="none" stroke-dasharray="none" stroke-linecap="round" stroke-linejoin="round" stroke-miterlimit="4" stroke-opacity=".528" stroke-width="2" d="M 2 6 L 2 10 A 4 4 0 0 0 6 6 L 2 6 z" opacity="1" transform="translate(0,1020.3622)"/></g></svg>