<svg xmlns="http://www.w3.org/2000/svg" xmlns:svg="http://www.w3.org/2000/svg" xmlns:xlink="http://www.w3.org/1999/xlink" id="svg2" width="32" height="32" version="1.1" viewBox="0 0 32 32"><defs id="defs4"><linearGradient id="Shadow"><stop id="stop4181" offset="0" stop-color="#000" stop-opacity="1"/><stop id="stop4183" offset="1" stop-color="#000" stop-opacity="0"/></linearGradient><radialGradient id="radialGradient4576" cx="28" cy="28.5" r="1.5" fx="28" fy="28.5" gradientTransform="matrix(3.1111458e-7,2.6666673,-1.9999997,2.3333583e-7,84.99998,973.69551)" gradientUnits="userSpaceOnUse" xlink:href="#Shadow"/><radialGradient id="radialGradient4578" cx=".56" cy="31.147" r="1.5" fx=".56" fy="31.147" gradientTransform="matrix(-1.9999998,2.4329792e-6,-3.2319946e-6,-2.6666666,5.119531,1131.421)" gradientUnits="userSpaceOnUse" xlink:href="#Shadow"/><linearGradient id="linearGradient4580" x1="16" x2="16" y1="28" y2="32" gradientTransform="translate(0,1020.3622)" gradientUnits="userSpaceOnUse" xlink:href="#Shadow"/></defs><metadata id="metadata7"/><g id="layer1" transform="translate(0,-1020.3622)"><path id="path4574" fill="url(#linearGradient4580)" fill-opacity="1" stroke="none" stroke-dasharray="none" stroke-linecap="round" stroke-linejoin="round" stroke-miterlimit="4" stroke-opacity=".528" stroke-width="2" d="m 4,1048.3622 0,4 24,0 0,-4 z" opacity="1"/><path id="path4572" fill="url(#radialGradient4578)" fill-opacity="1" stroke="none" stroke-dasharray="none" stroke-linecap="round" stroke-linejoin="round" stroke-miterlimit="4" stroke-opacity=".528" stroke-width="2" d="m 4,1048.3622 -3,0 0,1 c 0,1.662 1.33799,3 3,3 l 0,-4 z" opacity="1"/><path id="path4570" fill="url(#radialGradient4576)" fill-opacity="1" stroke="none" stroke-dasharray="none" stroke-linecap="round" stroke-linejoin="round" stroke-miterlimit="4" stroke-opacity=".528" stroke-width="2" d="m 28,1048.3622 0,4 c 1.66201,0 3,-1.338 3,-3 l 0,-1 -3,0 z" opacity="1"/><path id="path4175" fill="#90a4ae" fill-opacity="1" stroke="none" stroke-dasharray="none" stroke-linecap="round" stroke-linejoin="round" stroke-miterlimit="4" stroke-opacity=".528" stroke-width="2" d="M 31 15 L 1 15 L 1 28.076172 C 1 29.141566 1.8584342 30 2.9238281 30 L 29.076172 30 C 30.141566 30 31 29.141566 31 28.076172 L 31 15 z" opacity="1" transform="translate(0,1020.3622)"/><path id="rect4582" fill="#03a9f4" fill-opacity="1" stroke="none" stroke-dasharray="none" stroke-linecap="round" stroke-linejoin="round" stroke-miterlimit="4" stroke-opacity=".528" stroke-width="2" d="M 2.9238281 9 C 1.8584342 9 1 9.8584342 1 10.923828 L 1 15 L 31 15 L 31 10.923828 C 31 9.8584342 30.141566 9 29.076172 9 L 2.9238281 9 z" opacity="1" transform="translate(0,1020.3622)"/><path id="path4170" fill="#eceff1" fill-opacity="1" stroke="none" stroke-dasharray="none" stroke-linecap="round" stroke-linejoin="round" stroke-miterlimit="4" stroke-opacity=".528" stroke-width="2" d="M 30 14 L 2 14 L 2 28 C 2 28.55401 2.4459904 29 3 29 L 29 29 C 29.55401 29 30 28.55401 30 28 L 30 14 z" opacity="1" transform="translate(0,1020.3622)"/><path id="rect4218" fill="#29b6f6" fill-opacity="1" stroke="none" stroke-dasharray="none" stroke-linecap="round" stroke-linejoin="round" stroke-miterlimit="4" stroke-opacity=".528" stroke-width="2" d="M 3 10 C 2.4459904 10 2 10.44599 2 11 L 2 14 L 30 14 L 30 11 C 30 10.44599 29.55401 10 29 10 L 3 10 z" opacity="1" transform="translate(0,1020.3622)"/><rect id="rect4154" width="26" height="12" x="3" y="1036.362" fill="#f5f5f5" fill-opacity="1" stroke="none" stroke-dasharray="none" stroke-linecap="round" stroke-linejoin="round" stroke-miterlimit="4" stroke-opacity="1" stroke-width="2" opacity="1" ry="0"/><rect id="rect4156" width="28" height="1" x="2" y="1034.362" fill="#03a9f4" fill-opacity="1" stroke="none" stroke-dasharray="none" stroke-linecap="round" stroke-linejoin="round" stroke-miterlimit="4" stroke-opacity="1" stroke-width="2" opacity="1"/><rect id="rect4158" width="6" height="2" x="13" y="1031.362" fill="#0277bd" fill-opacity="1" stroke="none" stroke-dasharray="none" stroke-linecap="round" stroke-linejoin="round" stroke-miterlimit="4" stroke-opacity="1" stroke-width="2" opacity="1" ry="1"/><rect id="rect4160" width="8" height="8" x="4" y="1037.362" fill="#cfd8dc" fill-opacity="1" stroke="none" stroke-dasharray="none" stroke-linecap="round" stroke-linejoin="round" stroke-miterlimit="4" stroke-opacity="1" stroke-width="2" opacity="1"/><rect id="rect4162" width="5" height="1" x="14" y="1037.362" fill="#455a64" fill-opacity="1" stroke="none" stroke-dasharray="none" stroke-linecap="round" stroke-linejoin="round" stroke-miterlimit="4" stroke-opacity="1" stroke-width="2" opacity="1"/><rect id="rect4164" width="8" height="1" x="14" y="1039.362" fill="#455a64" fill-opacity="1" stroke="none" stroke-dasharray="none" stroke-linecap="round" stroke-linejoin="round" stroke-miterlimit="4" stroke-opacity="1" stroke-width="2" opacity="1"/><rect id="rect4166" width="13" height="1" x="14" y="1042.362" fill="#455a64" fill-opacity="1" stroke="none" stroke-dasharray="none" stroke-linecap="round" stroke-linejoin="round" stroke-miterlimit="4" stroke-opacity="1" stroke-width="2" opacity="1"/><rect id="rect4168" width="3" height="1" x="24" y="1046.362" fill="#455a64" fill-opacity="1" stroke="none" stroke-dasharray="none" stroke-linecap="round" stroke-linejoin="round" stroke-miterlimit="4" stroke-opacity="1" stroke-width="2" opacity="1"/><rect id="rect4170" width="9" height="1" x="14" y="1044.362" fill="#455a64" fill-opacity="1" stroke="none" stroke-dasharray="none" stroke-linecap="round" stroke-linejoin="round" stroke-miterlimit="4" stroke-opacity="1" stroke-width="2" opacity="1"/><rect id="rect4172" width="4" height="7" x="14" y="1025.362" fill="#90a4ae" fill-opacity="1" stroke="none" stroke-dasharray="none" stroke-linecap="round" stroke-linejoin="round" stroke-miterlimit="4" stroke-opacity="1" stroke-width="2" opacity="1" ry="1"/><rect id="rect4174" width="2" height="5" x="15" y="1026.362" fill="#cfd8dc" fill-opacity="1" stroke="none" stroke-dasharray="none" stroke-linecap="round" stroke-linejoin="round" stroke-miterlimit="4" stroke-opacity="1" stroke-width="2" opacity="1" ry="0"/><circle id="path4176" cx="16" cy="1026.362" r="2" fill="#90a4ae" fill-opacity="1" stroke="none" stroke-dasharray="none" stroke-linecap="round" stroke-linejoin="round" stroke-miterlimit="4" stroke-opacity="1" stroke-width="2" opacity="1"/><circle id="circle4178" cx="16" cy="1026.362" r="1" fill="#cfd8dc" fill-opacity="1" stroke="none" stroke-dasharray="none" stroke-linecap="round" stroke-linejoin="round" stroke-miterlimit="4" stroke-opacity="1" stroke-width="2" opacity="1"/><path id="rect4180" fill="#90a4ae" fill-opacity="1" stroke="none" stroke-dasharray="none" stroke-linecap="round" stroke-linejoin="round" stroke-miterlimit="4" stroke-opacity="1" stroke-width="2" d="M 7 22 C 6.4459904 22 6 22.44599 6 23 L 6 25 L 10 25 L 10 23 C 10 22.44599 9.5540096 22 9 22 L 7 22 z" opacity="1" transform="translate(0,1020.3622)"/><path id="path4182" fill="#90a4ae" fill-opacity="1" fill-rule="evenodd" stroke="none" stroke-linecap="butt" stroke-linejoin="miter" stroke-opacity="1" stroke-width="1" d="m 6,1042.3622 -2,2 1,1 3,-3 z"/><path id="path4184" fill="#90a4ae" fill-opacity="1" fill-rule="evenodd" stroke="none" stroke-linecap="butt" stroke-linejoin="miter" stroke-opacity="1" stroke-width="1" d="m 10,1042.3622 2,2 -1,1 -3,-3 z"/><circle id="path4186" cx="8" cy="1040.362" r="2" fill="#90a4ae" fill-opacity="1" stroke="none" stroke-dasharray="none" stroke-linecap="round" stroke-linejoin="round" stroke-miterlimit="4" stroke-opacity="1" stroke-width="2" opacity="1"/><path id="path4188" fill="#90a4ae" fill-opacity="1" fill-rule="evenodd" stroke="none" stroke-linecap="butt" stroke-linejoin="miter" stroke-opacity="1" stroke-width="1" d="m 6,1040.3622 0,1 1,1 2,0 1,-1 0,-1 z"/></g></svg>