<svg xmlns="http://www.w3.org/2000/svg" xmlns:svg="http://www.w3.org/2000/svg" xmlns:xlink="http://www.w3.org/1999/xlink" id="svg2" width="32" height="32" version="1.1" viewBox="0 0 32 32"><defs id="defs4"><linearGradient id="Shadow"><stop id="stop4181" offset="0" stop-color="#000" stop-opacity="1"/><stop id="stop4183" offset="1" stop-color="#000" stop-opacity="0"/></linearGradient><radialGradient id="radialGradient4576" cx="28" cy="28.5" r="1.5" fx="28" fy="28.5" gradientTransform="matrix(3.1111458e-7,2.6666673,-1.9999997,2.3333583e-7,84.99998,973.69551)" gradientUnits="userSpaceOnUse" xlink:href="#Shadow"/><linearGradient id="linearGradient4580" x1="16" x2="16" y1="28" y2="32" gradientTransform="translate(2,1020.3622)" gradientUnits="userSpaceOnUse" xlink:href="#Shadow"/><radialGradient id="radialGradient4578" cx=".56" cy="31.147" r="1.5" fx=".56" fy="31.147" gradientTransform="matrix(-1.9999998,2.4329792e-6,-3.2319946e-6,-2.6666666,18.119531,1131.421)" gradientUnits="userSpaceOnUse" xlink:href="#Shadow"/><linearGradient id="linearGradient4380" x1="16" x2="16" y1="28" y2="32" gradientTransform="translate(-11,1018.3622)" gradientUnits="userSpaceOnUse" xlink:href="#Shadow"/><radialGradient id="radialGradient4382" cx=".56" cy="31.147" r="1.5" fx=".56" fy="31.147" gradientTransform="matrix(-1.9999998,2.4329792e-6,-3.2319946e-6,-2.6666666,5.119531,1129.421)" gradientUnits="userSpaceOnUse" xlink:href="#Shadow"/><radialGradient id="radialGradient4279" cx="408.571" cy="532.498" r="1" fx="408.571" fy="532.498" gradientTransform="matrix(3.0000158,-1.7994519e-5,1.7994657e-5,3.000037,-1223.7303,-548.14408)" gradientUnits="userSpaceOnUse" xlink:href="#Shadow"/><radialGradient id="radialGradient4414" cx="2" cy="1027.362" r="2" fx="2" fy="1027.362" gradientTransform="translate(0,-0.99986033)" gradientUnits="userSpaceOnUse" xlink:href="#Shadow"/></defs><metadata id="metadata7"/><g id="layer1" transform="translate(0,-1020.3622)"><rect id="rect4277" width="2" height="5" x="1" y="1047.362" fill="url(#radialGradient4279)" fill-opacity="1" stroke="none" stroke-dasharray="none" stroke-linecap="butt" stroke-linejoin="round" stroke-miterlimit="4" stroke-opacity="1" stroke-width="2" opacity="1" ry="1"/><path id="path4376" fill="url(#linearGradient4380)" fill-opacity="1" stroke="none" stroke-dasharray="none" stroke-linecap="round" stroke-linejoin="round" stroke-miterlimit="4" stroke-opacity=".528" stroke-width="2" d="m 4,1046.3622 0,4 11,0 0,-4 z" opacity="1"/><path id="path4378" fill="url(#radialGradient4382)" fill-opacity="1" stroke="none" stroke-dasharray="none" stroke-linecap="round" stroke-linejoin="round" stroke-miterlimit="4" stroke-opacity=".528" stroke-width="2" d="m 4,1046.3622 -3,0 0,1 c 0,1.662 1.33799,3 3,3 l 0,-4 z" opacity="1"/><path id="path4574" fill="url(#linearGradient4580)" fill-opacity="1" stroke="none" stroke-dasharray="none" stroke-linecap="round" stroke-linejoin="round" stroke-miterlimit="4" stroke-opacity=".528" stroke-width="2" d="m 17,1048.3622 0,4 11,0 0,-4 z" opacity="1"/><path id="path4572" fill="url(#radialGradient4578)" fill-opacity="1" stroke="none" stroke-dasharray="none" stroke-linecap="round" stroke-linejoin="round" stroke-miterlimit="4" stroke-opacity=".528" stroke-width="2" d="m 17,1048.3622 -3,0 0,1 c 0,1.662 1.33799,3 3,3 l 0,-4 z" opacity="1"/><path id="path4570" fill="url(#radialGradient4576)" fill-opacity="1" stroke="none" stroke-dasharray="none" stroke-linecap="round" stroke-linejoin="round" stroke-miterlimit="4" stroke-opacity=".528" stroke-width="2" d="m 28,1048.3622 0,4 c 1.66201,0 3,-1.338 3,-3 l 0,-1 -3,0 z" opacity="1"/><rect id="rect4330" width="17" height="22" x="14" y="1028.362" fill="#42a5f5" fill-opacity="1" stroke="none" stroke-dasharray="none" stroke-linecap="round" stroke-linejoin="round" stroke-miterlimit="4" stroke-opacity="1" stroke-width="2" opacity="1" ry="2"/><rect id="rect4332" width="15" height="20" x="15" y="1029.362" fill="#64b5f6" fill-opacity="1" stroke="none" stroke-dasharray="none" stroke-linecap="round" stroke-linejoin="round" stroke-miterlimit="4" stroke-opacity="1" stroke-width="2" opacity="1" ry="1"/><path id="path4435" fill="#e1f5fe" fill-opacity="1" fill-rule="evenodd" stroke="none" stroke-linecap="butt" stroke-linejoin="miter" stroke-opacity="1" stroke-width="1" d="m 16,1032.3622 2,1 1,1 1,0 0,1 1,0 0,-1 -2,-1 1,0 -2,-1 -2,0 z m 2,1 -2,0 2,1 0,-1 z m -2,2 0,1 a 3,3 0 0 1 3,3 3,3 0 0 1 -3,3 l 0,1 a 4,4 0 0 0 4,-4 4,4 0 0 0 -4,-4 z m 6,0 -1,1 -1,1 1,1 0,1 0,1 1,1 1,-2 -1,-1 0,-1 1,-1 -1,-1 z m -2,7 0,1 -1,0 -1,1 -2,1 2,0 2,-1 -1,0 2,-1 0,-1 -1,0 z m -2,2 0,-1 -2,1 2,0 z"/><path id="rect4324" fill="#42a5f5" fill-opacity="1" stroke="none" stroke-dasharray="none" stroke-linecap="round" stroke-linejoin="round" stroke-miterlimit="4" stroke-opacity="1" stroke-width="2" d="m 3.000017,1026.3622 9.999966,0 c 1.108009,0 1.649637,0.9489 2.000017,2 l 6,18 c 0.35038,1.0511 -0.892008,2 -2.000017,2 l -15.999966,0 c -1.108009,0 -2.000017,-0.892 -2.000017,-2 l 0,-18 c 0,-1.108 0.892008,-2 2.000017,-2 z" opacity="1"/><path id="rect4327" fill="#64b5f6" fill-opacity="1" stroke="none" stroke-dasharray="none" stroke-linecap="round" stroke-linejoin="round" stroke-miterlimit="4" stroke-opacity="1" stroke-width="2" d="m 3.000017,1027.3622 9.999966,0 c 0.554009,0 0.824827,0.4744 1.000017,1 l 6,18 c 0.17519,0.5256 -0.446008,1 -1.000017,1 l -15.999966,0 c -0.554009,0 -1.000017,-0.446 -1.000017,-1 l 0,-18 c 0,-0.554 0.446008,-1 1.000017,-1 z" opacity="1"/><path id="rect4342" fill="#1976d2" fill-opacity="1" stroke="none" stroke-dasharray="none" stroke-linecap="round" stroke-linejoin="round" stroke-miterlimit="4" stroke-opacity="1" stroke-width="2" d="M 14 28 L 14 28.259766 C 14 29.223392 14.776608 30 15.740234 30 L 16 30 L 19 28 L 16 28 L 14 28 z" opacity="1" transform="translate(0,1020.3622)"/><rect id="rect4384" width="2" height="25" x="1" y="1025.362" fill="#455a64" fill-opacity="1" stroke="none" stroke-dasharray="none" stroke-linecap="round" stroke-linejoin="round" stroke-miterlimit="4" stroke-opacity="1" stroke-width="2" opacity="1" ry="1"/><circle id="circle4410" cx="2" cy="1026.362" r="2" fill="url(#radialGradient4414)" fill-opacity="1" stroke="none" stroke-dasharray="none" stroke-linecap="round" stroke-linejoin="round" stroke-miterlimit="4" stroke-opacity="1" stroke-width="2" opacity="1"/><circle id="path4406" cx="2" cy="1025.362" r="2" fill="#ffb74d" fill-opacity="1" stroke="none" stroke-dasharray="none" stroke-linecap="round" stroke-linejoin="round" stroke-miterlimit="4" stroke-opacity="1" stroke-width="2" opacity="1"/><circle id="circle4408" cx="2" cy="1025.362" r="1" fill="#ffcc80" fill-opacity="1" stroke="none" stroke-dasharray="none" stroke-linecap="round" stroke-linejoin="round" stroke-miterlimit="4" stroke-opacity="1" stroke-width="2" opacity="1"/><path id="path4421" fill="#e1f5fe" fill-opacity="1" fill-rule="evenodd" stroke="none" stroke-linecap="butt" stroke-linejoin="miter" stroke-opacity="1" stroke-width="1" d="m 13,1043.3622 -2,-1 0,-1 1,0 0,1 1,0 1,1 z"/><path id="path4431" fill="#e1f5fe" fill-opacity="1" fill-rule="evenodd" stroke="none" stroke-linecap="butt" stroke-linejoin="miter" stroke-opacity="1" stroke-width="1" d="m 16,1044.3622 -2,0 -2,-1 1,0 1,0 2,1 z"/><path id="path4433" fill="#e1f5fe" fill-opacity="1" fill-rule="evenodd" stroke="none" stroke-linecap="butt" stroke-linejoin="miter" stroke-opacity="1" stroke-width="1" d="m 16,1043.3622 -2,-1 0,1 z"/><path id="path4453" fill="#e1f5fe" fill-opacity="1" stroke="none" stroke-dasharray="none" stroke-linecap="round" stroke-linejoin="round" stroke-miterlimit="4" stroke-opacity="1" stroke-width="2" d="m 16,1034.3622 a 4,4 0 0 0 -4,4 4,4 0 0 0 4,4 l 0,-1 a 3,3 0 0 1 -3,-3 3,3 0 0 1 3,-3 l 0,-1 z" opacity="1"/><path id="path4446" fill="#e1f5fe" fill-opacity="1" fill-rule="evenodd" stroke="none" stroke-linecap="butt" stroke-linejoin="miter" stroke-opacity="1" stroke-width="1" d="m 10,1040.3622 -1,-2 1,-1 0,-1 -1,-1 1,-1 1,1 1,1 -1,1 0,1 0,1 z"/><path id="path4455" fill="#e1f5fe" fill-opacity="1" fill-rule="evenodd" stroke="none" stroke-linecap="butt" stroke-linejoin="miter" stroke-opacity="1" stroke-width="1" d="m 13,1032.3622 -2,1 0,1 1,0 0,-1 1,0 1,-1 z"/><path id="path4457" fill="#e1f5fe" fill-opacity="1" fill-rule="evenodd" stroke="none" stroke-linecap="butt" stroke-linejoin="miter" stroke-opacity="1" stroke-width="1" d="m 16,1031.3622 -2,0 -2,1 1,0 1,0 2,-1 z"/><path id="path4459" fill="#e1f5fe" fill-opacity="1" fill-rule="evenodd" stroke="none" stroke-linecap="butt" stroke-linejoin="miter" stroke-opacity="1" stroke-width="1" d="m 16,1032.3622 -2,1 0,-1 z"/><path id="path4487" fill="#e1f5fe" fill-opacity="1" stroke="none" stroke-dasharray="none" stroke-linecap="round" stroke-linejoin="round" stroke-miterlimit="4" stroke-opacity="1" stroke-width="2" d="m 16,1036.3622 a 2,2 0 0 0 -2,2 2,2 0 0 0 2,2 l 0,-4 z" opacity="1"/><path id="path4180" fill="#e1f5fe" fill-opacity="1" fill-rule="evenodd" stroke="none" stroke-linecap="butt" stroke-linejoin="miter" stroke-opacity="1" stroke-width="1" d="M 16 14 L 16 15 A 3 3 0 0 1 16.341797 15.023438 L 16 14 z M 16 16 L 16 20 A 2 2 0 0 0 17.689453 19.066406 L 16.710938 16.132812 A 2 2 0 0 0 16 16 z M 18.058594 20.177734 A 3 3 0 0 1 16 21 L 16 22 A 4 4 0 0 0 18.396484 21.191406 L 18.058594 20.177734 z M 18 22 L 16 23 L 18 23 L 18 22 z M 18 23 L 16 24 L 18 24 L 19.142578 23.427734 L 19 23 L 18.75 22.25 L 18 23 z" transform="translate(0,1020.3622)"/></g></svg>