<svg xmlns="http://www.w3.org/2000/svg" xmlns:svg="http://www.w3.org/2000/svg" xmlns:xlink="http://www.w3.org/1999/xlink" id="svg2" width="32" height="32" version="1.1" viewBox="0 0 32 32"><defs id="defs4"><radialGradient id="radialGradient4169" cx="16" cy="1040.362" r="12" fx="16" fy="1040.362" gradientTransform="translate(0,-1020.3621)" gradientUnits="userSpaceOnUse" xlink:href="#linearGradient4163"/><linearGradient id="linearGradient4163"><stop id="stop4166" offset="0" stop-color="#000" stop-opacity="1"/><stop id="stop4170" offset=".667" stop-color="#000" stop-opacity="1"/><stop id="stop4168" offset="1" stop-color="#000" stop-opacity="0"/></linearGradient></defs><metadata id="metadata7"/><g id="layer1" transform="translate(0,-1020.3622)"><path id="path4153" fill="url(#radialGradient4169)" fill-opacity="1" stroke="none" stroke-dasharray="none" stroke-linecap="round" stroke-linejoin="round" stroke-miterlimit="4" stroke-opacity="1" stroke-width="2" d="M 13.179688 8.3496094 A 12 12 0 0 0 4 20 A 12 12 0 0 0 16 32 A 12 12 0 0 0 28 20 A 12 12 0 0 0 25.306641 12.433594 A 5 5 0 0 1 23 13 A 5 5 0 0 1 18.304688 9.6972656 A 5 5 0 0 1 16.769531 8.8144531 A 4.5 4.5 0 0 1 15.5 9 A 4.5 4.5 0 0 1 13.179688 8.3496094 z" opacity="1" transform="translate(0,1020.3622)"/><path id="circle4174" fill="#5f4536" fill-opacity="1" stroke="none" stroke-dasharray="none" stroke-linecap="round" stroke-linejoin="round" stroke-miterlimit="4" stroke-opacity="1" stroke-width="2" d="M 11.654297 6.828125 A 12 12 0 0 0 4 18 A 12 12 0 0 0 16 30 A 12 12 0 0 0 28 18 A 12 12 0 0 0 25.693359 10.951172 A 4 4 0 0 1 23 12 A 4 4 0 0 1 19.527344 9.9765625 A 5 5 0 0 1 16.765625 8.8125 A 4.5 4.5 0 0 1 15.5 9 A 4.5 4.5 0 0 1 11.654297 6.828125 z" opacity="1" transform="translate(0,1020.3622)"/><path id="circle4176" fill="#8f674c" fill-opacity="1" stroke="none" stroke-dasharray="none" stroke-linecap="round" stroke-linejoin="round" stroke-miterlimit="4" stroke-opacity="1" stroke-width="2" d="M 11.316406 8.0605469 A 11 11 0 0 0 5 18 A 11 11 0 0 0 16 29 A 11 11 0 0 0 27 18 A 11 11 0 0 0 25.431641 12.361328 A 5 5 0 0 1 23 13 A 5 5 0 0 1 18.9375 10.900391 A 6 6 0 0 1 16.537109 9.8945312 A 5.5 5.5 0 0 1 15.5 10 A 5.5 5.5 0 0 1 11.316406 8.0605469 z" opacity="1" transform="translate(0,1020.3622)"/><path id="circle4221" fill="#583f30" fill-opacity="1" stroke="none" stroke-dasharray="none" stroke-linecap="round" stroke-linejoin="round" stroke-miterlimit="4" stroke-opacity="1" stroke-width="2" d="M 19.396484 11.464844 A 3 3 0 0 0 18 14 A 3 3 0 0 0 21 17 A 3 3 0 0 0 24 14 A 3 3 0 0 0 23.804688 12.933594 A 5 5 0 0 1 23 13 A 5 5 0 0 1 19.396484 11.464844 z" opacity="1" transform="translate(0,1020.3622)"/><path id="circle4223" fill="#5f4536" fill-opacity="1" stroke="none" stroke-dasharray="none" stroke-linecap="round" stroke-linejoin="round" stroke-miterlimit="4" stroke-opacity="1" stroke-width="2" d="M 19.40625 12.794922 A 2 2 0 0 0 19 14 A 2 2 0 0 0 21 16 A 2 2 0 0 0 23 14 A 6 6 0 0 1 19.40625 12.794922 z" opacity="1" transform="translate(0,1020.3622)"/><circle id="path4231" cx="11" cy="1036.362" r="2" fill="#583f30" fill-opacity="1" stroke="none" stroke-dasharray="none" stroke-linecap="round" stroke-linejoin="round" stroke-miterlimit="4" stroke-opacity="1" stroke-width="2" opacity="1"/><circle id="circle4233" cx="11" cy="1036.362" r="1" fill="#5f4536" fill-opacity="1" stroke="none" stroke-dasharray="none" stroke-linecap="round" stroke-linejoin="round" stroke-miterlimit="4" stroke-opacity="1" stroke-width="2" opacity="1"/><circle id="path4231-1" cx="17" cy="1043.362" r="2" fill="#583f30" fill-opacity="1" stroke="none" stroke-dasharray="none" stroke-linecap="round" stroke-linejoin="round" stroke-miterlimit="4" stroke-opacity="1" stroke-width="2" opacity="1"/><circle id="circle4233-1" cx="17" cy="1043.362" r="1" fill="#5f4536" fill-opacity="1" stroke="none" stroke-dasharray="none" stroke-linecap="round" stroke-linejoin="round" stroke-miterlimit="4" stroke-opacity="1" stroke-width="2" opacity="1"/></g></svg>