<svg xmlns="http://www.w3.org/2000/svg" xmlns:svg="http://www.w3.org/2000/svg" xmlns:xlink="http://www.w3.org/1999/xlink" id="svg2" width="32" height="32" version="1.1" viewBox="0 0 32 32"><defs id="defs4"><linearGradient id="Shadow"><stop id="stop4281" offset="0" stop-color="#000" stop-opacity="1"/><stop id="stop4283" offset="1" stop-color="#000" stop-opacity="0"/></linearGradient><radialGradient id="radialGradient4287" cx="6.896" cy="1047.099" r="3.5" fx="6.896" fy="1047.099" gradientTransform="matrix(-1.7142858,-1.5047276e-5,1.0032934e-5,-1.1428705,25.811938,1224.6991)" gradientUnits="userSpaceOnUse" xlink:href="#Shadow"/><linearGradient id="linearGradient4291" x1="16" x2="16" y1="1048.362" y2="1052.362" gradientUnits="userSpaceOnUse" xlink:href="#Shadow"/><radialGradient id="radialGradient4155" cx="6.896" cy="1047.099" r="3.5" fx="6.896" fy="1047.099" gradientTransform="matrix(1.7142858,-1.5047276e-5,-1.0032934e-5,-1.1428705,6.188062,2245.0613)" gradientUnits="userSpaceOnUse" xlink:href="#Shadow"/></defs><metadata id="metadata7"/><g id="layer1" transform="translate(0,-1020.3622)"><path id="path4153" fill="url(#radialGradient4155)" fill-opacity="1" stroke="none" stroke-dasharray="none" stroke-linecap="round" stroke-linejoin="round" stroke-miterlimit="4" stroke-opacity="1" stroke-width="2" d="m 25,1041.3622 0,2 0,2 c 0,3.878 -3.122,7 -7,7 l 0,-9 0,-2 7,0 z" opacity="1"/><rect id="rect4269" width="4" height="9" x="14" y="1043.362" fill="url(#linearGradient4291)" fill-opacity="1" stroke="none" stroke-dasharray="none" stroke-linecap="round" stroke-linejoin="round" stroke-miterlimit="4" stroke-opacity="1" stroke-width="2" opacity="1"/><path id="path4164" fill="url(#radialGradient4287)" fill-opacity="1" stroke="none" stroke-dasharray="none" stroke-linecap="round" stroke-linejoin="round" stroke-miterlimit="4" stroke-opacity="1" stroke-width="2" d="M 7 21 L 7 23 L 7 25 C 7 28.878 10.122 32 14 32 L 14 23 L 14 21 L 7 21 z" opacity="1" transform="translate(0,1020.3622)"/><rect id="rect4154" width="18" height="27" x="7" y="1023.362" fill="#9e9e9e" fill-opacity="1" stroke="none" stroke-dasharray="none" stroke-linecap="round" stroke-linejoin="round" stroke-miterlimit="4" stroke-opacity="1" stroke-width="2" opacity="1" ry="7"/><rect id="rect4178" width="16" height="25" x="8" y="1024.362" fill="#eee" fill-opacity="1" stroke="none" stroke-dasharray="none" stroke-linecap="round" stroke-linejoin="round" stroke-miterlimit="4" stroke-opacity="1" stroke-width="2" opacity="1" ry="6"/><path id="rect4157" fill="#9e9e9e" fill-opacity="1" stroke="none" stroke-dasharray="none" stroke-linecap="round" stroke-linejoin="round" stroke-miterlimit="4" stroke-opacity="1" stroke-width="2" d="M 15 4 L 16 6 L 17 4 L 15 4 z M 16 6 C 14.892 6 14 6.892 14 8 L 14 10 C 14 11.108 14.892 12 16 12 C 17.108 12 18 11.108 18 10 L 18 8 C 18 6.892 17.108 6 16 6 z M 16 12 L 15 14 L 7 14 L 7 15 L 15 15 L 16 14 L 17 15 L 24 15 L 24 14 L 17 14 L 16 12 z" opacity="1" transform="translate(0,1020.3622)"/><rect id="rect4159" width="2" height="4" x="15" y="1027.362" fill="#eee" fill-opacity="1" stroke="none" stroke-dasharray="none" stroke-linecap="round" stroke-linejoin="round" stroke-miterlimit="4" stroke-opacity="1" stroke-width="2" opacity="1" ry="1"/></g></svg>