<svg xmlns="http://www.w3.org/2000/svg" xmlns:svg="http://www.w3.org/2000/svg" xmlns:xlink="http://www.w3.org/1999/xlink" id="svg2" width="32" height="32" version="1.1" viewBox="0 0 32 32"><defs id="defs4"><linearGradient id="Shadow"><stop id="stop4181" offset="0" stop-color="#000" stop-opacity="1"/><stop id="stop4183" offset="1" stop-color="#000" stop-opacity="0"/></linearGradient><radialGradient id="radialGradient4576" cx="28" cy="28.5" r="1.5" fx="28" fy="28.5" gradientTransform="matrix(3.111146e-7,2.6666673,-1.9999998,2.3333583e-7,85.999986,973.69551)" gradientUnits="userSpaceOnUse" xlink:href="#Shadow"/><radialGradient id="radialGradient4578" cx=".56" cy="31.147" r="1.5" fx=".56" fy="31.147" gradientTransform="matrix(-1.9999999,2.4329792e-6,-3.2319948e-6,-2.6666666,4.1195314,1131.421)" gradientUnits="userSpaceOnUse" xlink:href="#Shadow"/><linearGradient id="linearGradient4580" x1="16" x2="16" y1="28" y2="32" gradientTransform="translate(0,1020.3622)" gradientUnits="userSpaceOnUse" xlink:href="#Shadow"/></defs><metadata id="metadata7"/><g id="layer1" transform="translate(0,-1020.3622)"><path id="path4574" fill="url(#linearGradient4580)" fill-opacity="1" stroke="none" stroke-dasharray="none" stroke-linecap="round" stroke-linejoin="round" stroke-miterlimit="4" stroke-opacity=".528" stroke-width="2" d="m 3,1048.3622 0,4 26,0 0,-4 z" opacity="1"/><path id="path4572" fill="url(#radialGradient4578)" fill-opacity="1" stroke="none" stroke-dasharray="none" stroke-linecap="round" stroke-linejoin="round" stroke-miterlimit="4" stroke-opacity=".528" stroke-width="2" d="m 3.0000003,1048.3622 -3.0000003,0 0,1 c 0,1.662 1.3379901,3 3.0000003,3 l 0,-4 z" opacity="1"/><path id="path4570" fill="url(#radialGradient4576)" fill-opacity="1" stroke="none" stroke-dasharray="none" stroke-linecap="round" stroke-linejoin="round" stroke-miterlimit="4" stroke-opacity=".528" stroke-width="2" d="m 29.000002,1048.3622 0,4 c 1.66201,0 3,-1.338 3,-3 l 0,-1 -3,0 z" opacity="1"/><path id="rect4192" fill="#e91e63" fill-opacity="1" stroke="none" stroke-dasharray="none" stroke-linecap="round" stroke-linejoin="round" stroke-miterlimit="4" stroke-opacity=".528" stroke-width="2" d="m 2,1026.3622 c -1.1080111,0 -2,0.892 -2,2 l 0,20 c 0,1.108 0.8919889,2 2,2 l 4,0 2,0 0,-2 0,-20 0,-2 -2,0 z" opacity="1"/><path id="rect4194" fill="#ec407a" fill-opacity="1" stroke="none" stroke-dasharray="none" stroke-linecap="round" stroke-linejoin="round" stroke-miterlimit="4" stroke-opacity=".528" stroke-width="2" d="m 2,1027.3622 c -0.5540096,0 -1,0.446 -1,1 l 0,20 c 0,0.554 0.4459904,1 1,1 l 4,0 1,0 0,-1 0,-20 0,-1 -1,0 z" opacity="1"/><path id="rect4200" fill="#9c27b0" fill-opacity="1" stroke="none" stroke-dasharray="none" stroke-linecap="round" stroke-linejoin="round" stroke-miterlimit="4" stroke-opacity=".528" stroke-width="2" d="m 8,1026.3622 0,2 0,20 0,2 2,0 4,0 2,0 0,-2 0,-20 0,-2 -2,0 -4,0 z" opacity="1"/><path id="rect4202" fill="#ab47bc" fill-opacity="1" stroke="none" stroke-dasharray="none" stroke-linecap="round" stroke-linejoin="round" stroke-miterlimit="4" stroke-opacity=".528" stroke-width="2" d="m 9.000017,1027.3622 5.999966,0 1.7e-5,0 0,22 -1.7e-5,0 -5.999966,0 -1.7e-5,0 0,-22 z" opacity="1"/><path id="rect4204" fill="#03a9f4" fill-opacity="1" stroke="none" stroke-dasharray="none" stroke-linecap="round" stroke-linejoin="round" stroke-miterlimit="4" stroke-opacity=".528" stroke-width="2" d="m 16,1026.3622 0,2 0,20 0,2 1.77778,0 4.44444,0 1.77778,0 0,-2 0,-20 0,-2 -1.77778,0 -4.44444,0 z" opacity="1"/><path id="rect4206" fill="#29b6f6" fill-opacity="1" stroke="none" stroke-dasharray="none" stroke-linecap="round" stroke-linejoin="round" stroke-miterlimit="4" stroke-opacity=".528" stroke-width="2" d="m 17,1027.3622 0,1 0,20 0,1 0.85714,0 4.28572,0 0.85714,0 0,-1 0,-20 0,-1 -0.85714,0 -4.28572,0 z" opacity="1"/><path id="path4294" fill="#8bc34a" fill-opacity="1" stroke="none" stroke-dasharray="none" stroke-linecap="round" stroke-linejoin="round" stroke-miterlimit="4" stroke-opacity=".528" stroke-width="2" d="m 24,1026.3622 0,2 0,20 0,2 2,0 4,0 c 1.108011,0 2,-0.892 2,-2 l 0,-20 c 0,-1.108 -1.008965,-1.5045 -2,-2 l -4,0 z" opacity="1"/><path id="path4296" fill="#9ccc65" fill-opacity="1" stroke="none" stroke-dasharray="none" stroke-linecap="round" stroke-linejoin="round" stroke-miterlimit="4" stroke-opacity=".528" stroke-width="2" d="m 25,1027.3622 0,1 0,20 0,1 1,0 4,0 c 0.55401,0 1,-0.446 1,-1 l 0,-20 c 0,-0.554 -0.44599,-1 -1,-1 l -4,0 z" opacity="1"/></g></svg>