<svg xmlns="http://www.w3.org/2000/svg" xmlns:svg="http://www.w3.org/2000/svg" xmlns:xlink="http://www.w3.org/1999/xlink" id="svg2" width="32" height="32" version="1.1" viewBox="0 0 32 32"><defs id="defs4"><linearGradient id="Shadow"><stop id="stop4181" offset="0" stop-color="#000" stop-opacity="1"/><stop id="stop4183" offset="1" stop-color="#000" stop-opacity="0"/></linearGradient><radialGradient id="radialGradient4576" cx="28" cy="28.5" r="1.5" fx="28" fy="28.5" gradientTransform="matrix(3.1111458e-7,2.6666673,-1.9999997,2.3333583e-7,81.99998,973.69551)" gradientUnits="userSpaceOnUse" xlink:href="#Shadow"/><radialGradient id="radialGradient4578" cx=".56" cy="31.147" r="1.5" fx=".56" fy="31.147" gradientTransform="matrix(-1.9999998,2.4329792e-6,-3.2319946e-6,-2.6666666,8.119531,1131.421)" gradientUnits="userSpaceOnUse" xlink:href="#Shadow"/><linearGradient id="linearGradient4580" x1="16" x2="16" y1="28" y2="32" gradientTransform="translate(0,1020.3622)" gradientUnits="userSpaceOnUse" xlink:href="#Shadow"/><radialGradient id="radialGradient4236" cx="12" cy="1037.062" r="1" fx="12" fy="1037.062" gradientTransform="matrix(2.0615378,0,-1.7628586e-8,2.9999397,-12.738418,-2073.7618)" gradientUnits="userSpaceOnUse" xlink:href="#Shadow"/><radialGradient id="radialGradient4240" cx="12" cy="1037.062" r="1" fx="12" fy="1037.062" gradientTransform="matrix(2.0615378,0,-1.7628583e-8,2.9999397,-8.7384177,-2073.7618)" gradientUnits="userSpaceOnUse" xlink:href="#Shadow"/><radialGradient id="radialGradient4244" cx="12" cy="1037.062" r="1" fx="12" fy="1037.062" gradientTransform="matrix(2.0615378,0,-1.7628604e-8,2.9999397,-4.7384177,-2073.7618)" gradientUnits="userSpaceOnUse" xlink:href="#Shadow"/></defs><metadata id="metadata7"/><g id="layer1" transform="translate(0,-1020.3622)"><path id="path4574" fill="url(#linearGradient4580)" fill-opacity="1" stroke="none" stroke-dasharray="none" stroke-linecap="round" stroke-linejoin="round" stroke-miterlimit="4" stroke-opacity=".528" stroke-width="2" d="m 7,1048.3622 0,4 18,0 0,-4 z" opacity="1"/><path id="path4572" fill="url(#radialGradient4578)" fill-opacity="1" stroke="none" stroke-dasharray="none" stroke-linecap="round" stroke-linejoin="round" stroke-miterlimit="4" stroke-opacity=".528" stroke-width="2" d="m 7,1048.3622 -3,0 0,1 c 0,1.662 1.33799,3 3,3 l 0,-4 z" opacity="1"/><path id="path4570" fill="url(#radialGradient4576)" fill-opacity="1" stroke="none" stroke-dasharray="none" stroke-linecap="round" stroke-linejoin="round" stroke-miterlimit="4" stroke-opacity=".528" stroke-width="2" d="m 25,1048.3622 0,4 c 1.66201,0 3,-1.338 3,-3 l 0,-1 -3,0 z" opacity="1"/><rect id="rect4582" width="24" height="22" x="4" y="1028.362" fill="#90a4ae" fill-opacity="1" stroke="none" stroke-dasharray="none" stroke-linecap="round" stroke-linejoin="round" stroke-miterlimit="4" stroke-opacity=".528" stroke-width="2" opacity="1" ry="1.923"/><rect id="rect4162" width="22" height="20" x="5" y="1029.362" fill="#eceff1" fill-opacity="1" stroke="none" stroke-dasharray="none" stroke-linecap="round" stroke-linejoin="round" stroke-miterlimit="4" stroke-opacity="1" stroke-width="2" opacity="1" ry="1"/><path id="rect4175" fill="#212121" fill-opacity="1" stroke="none" stroke-dasharray="none" stroke-linecap="round" stroke-linejoin="round" stroke-miterlimit="4" stroke-opacity="1" stroke-width="2" d="M 7 11 L 7 14 L 6 14 L 6 16 L 7 16 L 7 19 L 6 19 L 6 21 L 7 21 L 7 24 L 10 24 L 10 26 L 12 26 L 12 28 L 14 28 L 14 29 L 18 29 L 18 28 L 20 28 L 20 26 L 22 26 L 22 24 L 25 24 L 25 21 L 26 21 L 26 19 L 25 19 L 25 16 L 26 16 L 26 14 L 25 14 L 25 11 L 7 11 z" opacity="1" transform="translate(0,1020.3622)"/><path id="rect4189" fill="#424242" fill-opacity="1" stroke="none" stroke-dasharray="none" stroke-linecap="round" stroke-linejoin="round" stroke-miterlimit="4" stroke-opacity="1" stroke-width="2" d="M 8 12 L 8 23 L 11 23 L 11 25 L 13 25 L 13 26 L 19 26 L 19 25 L 21 25 L 21 23 L 24 23 L 24 12 L 8 12 z" opacity="1" transform="translate(0,1020.3622)"/><path id="path4238" fill="url(#radialGradient4240)" fill-opacity="1" stroke="none" stroke-dasharray="none" stroke-linecap="round" stroke-linejoin="round" stroke-miterlimit="4" stroke-opacity="1" stroke-width="2" d="m 16,1040.3622 c -0.554,0 -1,-0.446 -1,-1 l 0,-5 0,-1 1,0 1,0 0,1 0,5 c 0,0.554 -0.446,1 -1,1 z" opacity="1"/><path id="rect4199" fill="#ffb74d" fill-opacity="1" stroke="none" stroke-dasharray="none" stroke-linecap="round" stroke-linejoin="round" stroke-miterlimit="4" stroke-opacity="1" stroke-width="2" d="m 16,1039.3622 c -0.554,0 -1,-0.446 -1,-1 l 0,-5 0,-1 1,0 1,0 0,1 0,5 c 0,0.554 -0.446,1 -1,1 z" opacity="1"/><path id="path4232" fill="url(#radialGradient4236)" fill-opacity="1" stroke="none" stroke-dasharray="none" stroke-linecap="round" stroke-linejoin="round" stroke-miterlimit="4" stroke-opacity="1" stroke-width="2" d="m 12,1040.3622 c -0.554,0 -1,-0.446 -1,-1 l 0,-5 0,-1 1,0 1,0 0,1 0,5 c 0,0.554 -0.446,1 -1,1 z" opacity="1"/><path id="path4205" fill="#ffb74d" fill-opacity="1" stroke="none" stroke-dasharray="none" stroke-linecap="round" stroke-linejoin="round" stroke-miterlimit="4" stroke-opacity="1" stroke-width="2" d="m 12,1039.3622 c -0.554,0 -1,-0.446 -1,-1 l 0,-5 0,-1 1,0 1,0 0,1 0,5 c 0,0.554 -0.446,1 -1,1 z" opacity="1"/><path id="path4242" fill="url(#radialGradient4244)" fill-opacity="1" stroke="none" stroke-dasharray="none" stroke-linecap="round" stroke-linejoin="round" stroke-miterlimit="4" stroke-opacity="1" stroke-width="2" d="m 20,1040.3622 c -0.554,0 -1,-0.446 -1,-1 l 0,-5 0,-1 1,0 1,0 0,1 0,5 c 0,0.554 -0.446,1 -1,1 z" opacity="1"/><path id="path4207" fill="#ffb74d" fill-opacity="1" stroke="none" stroke-dasharray="none" stroke-linecap="round" stroke-linejoin="round" stroke-miterlimit="4" stroke-opacity="1" stroke-width="2" d="m 20,1039.3622 c -0.554,0 -1,-0.446 -1,-1 l 0,-5 0,-1 1,0 1,0 0,1 0,5 c 0,0.554 -0.446,1 -1,1 z" opacity="1"/><rect id="rect4209" width="2" height="2" x="11" y="1032.362" fill="#ffcc80" fill-opacity="1" stroke="none" stroke-dasharray="none" stroke-linecap="round" stroke-linejoin="round" stroke-miterlimit="4" stroke-opacity="1" stroke-width="2" opacity="1"/><rect id="rect4209-0" width="2" height="2" x="15" y="1032.362" fill="#ffcc80" fill-opacity="1" stroke="none" stroke-dasharray="none" stroke-linecap="round" stroke-linejoin="round" stroke-miterlimit="4" stroke-opacity="1" stroke-width="2" opacity="1"/><rect id="rect4209-3" width="2" height="2" x="19" y="1032.362" fill="#ffcc80" fill-opacity="1" stroke="none" stroke-dasharray="none" stroke-linecap="round" stroke-linejoin="round" stroke-miterlimit="4" stroke-opacity="1" stroke-width="2" opacity="1"/></g></svg>