<svg xmlns="http://www.w3.org/2000/svg" xmlns:svg="http://www.w3.org/2000/svg" xmlns:xlink="http://www.w3.org/1999/xlink" id="svg2" width="32" height="32" version="1.1" viewBox="0 0 32 32"><defs id="defs4"><radialGradient id="radialGradient4169" cx="16" cy="1040.362" r="12" fx="16" fy="1040.362" gradientTransform="translate(0,1.1783313e-4)" gradientUnits="userSpaceOnUse" xlink:href="#linearGradient4163"/><linearGradient id="linearGradient4163"><stop id="stop4166" offset="0" stop-color="#000" stop-opacity="1"/><stop id="stop4170" offset=".667" stop-color="#000" stop-opacity="1"/><stop id="stop4168" offset="1" stop-color="#000" stop-opacity="0"/></linearGradient></defs><metadata id="metadata7"/><g id="layer1" transform="translate(0,-1020.3622)"><circle id="path4153" cx="16" cy="1040.362" r="12" fill="url(#radialGradient4169)" fill-opacity="1" stroke="none" stroke-dasharray="none" stroke-linecap="round" stroke-linejoin="round" stroke-miterlimit="4" stroke-opacity="1" stroke-width="2" opacity="1"/><circle id="circle4174" cx="16" cy="1038.362" r="12" fill="#2196f3" fill-opacity="1" stroke="none" stroke-dasharray="none" stroke-linecap="round" stroke-linejoin="round" stroke-miterlimit="4" stroke-opacity="1" stroke-width="2" opacity="1"/><circle id="circle4176" cx="16" cy="1038.362" r="11" fill="#42a5f5" fill-opacity="1" stroke="none" stroke-dasharray="none" stroke-linecap="round" stroke-linejoin="round" stroke-miterlimit="4" stroke-opacity="1" stroke-width="2" opacity="1"/><path id="path4180" fill="#e3f2fd" fill-opacity="1" stroke="none" stroke-dasharray="none" stroke-linecap="round" stroke-linejoin="round" stroke-miterlimit="4" stroke-opacity="1" stroke-width="2" d="M 16 9 A 2 2 0 0 0 14 11 A 2 2 0 0 0 16 13 A 2 2 0 0 0 18 11 A 2 2 0 0 0 16 9 z M 10 14 C 9.446 14 9 14.446 9 15 C 9 15.554 9.446 16 10 16 L 13 16 L 13 20 L 13 26 C 13 26.554 13.446 27 14 27 C 14.554 27 15 26.554 15 26 L 15 21 L 17 21 L 17 26 C 17 26.554 17.446 27 18 27 C 18.554 27 19 26.554 19 26 L 19 20 L 19 16 L 22 16 C 22.554 16 23 15.554 23 15 C 23 14.446 22.554 14 22 14 L 10 14 z" opacity="1" transform="translate(0,1020.3622)"/></g></svg>