<svg xmlns="http://www.w3.org/2000/svg" xmlns:svg="http://www.w3.org/2000/svg" xmlns:xlink="http://www.w3.org/1999/xlink" id="svg3882" width="22" height="22" version="1.1"><defs id="defs3884"><linearGradient id="linearGradient3587-6-5-3-5-7"><stop id="stop3589-9-2-2-6-2" offset="0" stop-color="#000" stop-opacity="1"/><stop id="stop3591-7-4-73-5-1" offset="1" stop-color="#363636" stop-opacity="1"/></linearGradient><linearGradient id="linearGradient3766" x1="46.396" x2="46.396" y1="12.708" y2="38.409" gradientTransform="matrix(-0.56378149,0,0,0.74898271,37.156927,-7.7679963)" gradientUnits="userSpaceOnUse" xlink:href="#linearGradient3587-6-5-3-5-7"/></defs><metadata id="metadata3887"/><path id="path3220-5" fill="#fff" fill-opacity="1" fill-rule="nonzero" stroke="none" stroke-width="1" d="m 6.875,2.7497133 c -3.7969576,0 -6.875,3.078042 -6.875,6.875 0,3.7969577 3.0780424,6.8749997 6.875,6.8749997 1.3540772,0 2.5881261,-0.398292 3.652344,-1.074218 l 6.144531,6.359375 c 0.131422,0.144742 0.311006,0.226213 0.515625,0.214843 0.204622,-0.01141 0.416756,-0.09789 0.558594,-0.257812 l 1.289062,-1.460938 c 0.263915,-0.303722 0.268794,-0.736895 0,-0.988281 L 12.71875,13.234088 C 13.375449,12.18036 13.75,10.957754 13.75,9.6247133 c 0,-3.796958 -3.078042,-6.875 -6.875,-6.875 z m 0,2.75 c 2.2781745,0 4.125,1.8468258 4.125,4.125 0,2.2781747 -1.8468255,4.1249997 -4.125,4.1249997 -2.2781745,0 -4.125,-1.846825 -4.125,-4.1249997 0,-2.2781742 1.8468255,-4.125 4.125,-4.125 z m 8.25,4.125 3.4375,5.4999997 L 22,9.6247133 z" color="#000" display="inline" enable-background="accumulate" opacity=".6" overflow="visible" visibility="visible" style="marker:none"/><path id="path3220" fill="url(#linearGradient3766)" fill-opacity="1" fill-rule="nonzero" stroke="none" stroke-width="1" d="m 6.875,1.7497133 c -3.7969576,0 -6.875,3.0780424 -6.875,6.875 0,3.7969577 3.0780424,6.8749997 6.875,6.8749997 1.3540772,0 2.5881261,-0.398292 3.652344,-1.074218 l 6.144531,6.359375 c 0.131422,0.144742 0.311006,0.226213 0.515625,0.214843 0.204622,-0.01141 0.416756,-0.09789 0.558594,-0.257812 l 1.289062,-1.460938 c 0.263915,-0.303722 0.268794,-0.736895 0,-0.988281 L 12.71875,12.234088 C 13.375449,11.18036 13.75,9.9577538 13.75,8.6247133 c 0,-3.7969576 -3.078042,-6.875 -6.875,-6.875 z m 0,2.75 c 2.2781745,0 4.125,1.8468258 4.125,4.125 0,2.2781747 -1.8468255,4.1249997 -4.125,4.1249997 -2.2781745,0 -4.125,-1.846825 -4.125,-4.1249997 0,-2.2781742 1.8468255,-4.125 4.125,-4.125 z m 8.25,4.125 3.4375,5.4999997 L 22,8.6247133 z" color="#000" display="inline" enable-background="accumulate" opacity=".7" overflow="visible" visibility="visible" style="marker:none"/></svg>