<svg xmlns="http://www.w3.org/2000/svg" xmlns:svg="http://www.w3.org/2000/svg" xmlns:xlink="http://www.w3.org/1999/xlink" id="svg5453" width="64" height="64" version="1.1" viewBox="0 0 64 64"><defs id="defs5455"><linearGradient id="Shadow"><stop id="stop4275" offset="0" stop-color="#000" stop-opacity="1"/><stop id="stop4277" offset="1" stop-color="#000" stop-opacity="0"/></linearGradient><linearGradient id="linearGradient4308"><stop id="stop4310" offset="0" stop-color="#000" stop-opacity=".196"/><stop id="stop4312" offset="1" stop-color="#000" stop-opacity="0"/></linearGradient><linearGradient id="linearGradient4256" x1="416.571" x2="416.571" y1="511.798" y2="527.798" gradientTransform="translate(0,2)" gradientUnits="userSpaceOnUse" xlink:href="#linearGradient4308"/><linearGradient id="linearGradient4279" x1="32" x2="32" y1="45" y2="49" gradientTransform="translate(384.57143,484.798)" gradientUnits="userSpaceOnUse" xlink:href="#Shadow"/><radialGradient id="radialGradient4259-2" cx="4" cy="42.5" r="1.5" fx="4" fy="42.5" gradientTransform="matrix(-2.0000003,-2.935184e-6,3.9135795e-6,-2.6666677,397.57127,654.1314)" gradientUnits="userSpaceOnUse" xlink:href="#Shadow"/><radialGradient id="radialGradient4255-2" cx="44" cy="42.5" r="1.5" fx="44" fy="42.5" gradientTransform="matrix(-5.6193702e-6,2.666668,-2.0000002,-4.214526e-6,528.5717,423.4648)" gradientUnits="userSpaceOnUse" xlink:href="#Shadow"/><linearGradient id="linearGradient4257-1" x1="24" x2="24" y1="42" y2="46" gradientTransform="translate(394.57143,498.798)" gradientUnits="userSpaceOnUse" xlink:href="#Shadow"/></defs><metadata id="metadata5458"/><g id="layer1" transform="translate(-384.57143,-483.798)"><path id="path4249-9" fill="url(#radialGradient4255-2)" fill-opacity="1" stroke="none" stroke-dasharray="none" stroke-linecap="butt" stroke-linejoin="round" stroke-miterlimit="4" stroke-opacity="1" stroke-width="2" d="m 443.57143,540.798 0,4 1,0 c 1.108,0 2,-0.892 2,-2 l 0,-2 -3,0 z" opacity=".7"/><path id="path4251-5" fill="url(#linearGradient4257-1)" fill-opacity="1" stroke="none" stroke-dasharray="none" stroke-linecap="butt" stroke-linejoin="round" stroke-miterlimit="4" stroke-opacity="1" stroke-width="2" d="m 389.57143,540.798 0,4 54,0 0,-4 z" opacity=".7"/><path id="path4253-9" fill="url(#radialGradient4259-2)" fill-opacity="1" stroke="none" stroke-dasharray="none" stroke-linecap="butt" stroke-linejoin="round" stroke-miterlimit="4" stroke-opacity="1" stroke-width="2" d="m 386.57143,540.798 0,2 c 0,1.108 0.892,2 2,2 l 1,0 0,-4 -3,0 z" opacity=".7"/><path id="rect4194" fill="#0288d1" fill-opacity="1" stroke="none" stroke-dasharray="none" stroke-linecap="butt" stroke-linejoin="round" stroke-miterlimit="4" stroke-opacity="1" stroke-width="2" d="m 417.57136,496.7981 26.00009,0 c 1.66196,0 2.99995,1.3379 2.99995,2.9999 l 0,6 c 0,1.662 -1.33799,2.9999 -2.99995,2.9999 l -26.00009,0 c -1.66197,0 -2.99995,-1.3379 -2.99995,-2.9999 l 0,-6 c 0,-1.662 1.33798,-2.9999 2.99995,-2.9999 z" opacity="1"/><path id="rect4207" fill="#e8e5dc" fill-opacity="1" stroke="none" stroke-dasharray="none" stroke-linecap="butt" stroke-linejoin="round" stroke-miterlimit="4" stroke-opacity="1" stroke-width="2" d="m 418.5714,498.798 24,0 c 1.108,0 2,0.892 2,2 l 0,3 c 0,1.108 -0.892,2 -2,2 l -24,0 c -1.108,0 -2,-0.892 -2,-2 l 0,-3 c 0,-1.108 0.892,-2 2,-2 z" opacity="1"/><path id="rect4209" fill="#fffbec" fill-opacity="1" stroke="none" stroke-dasharray="none" stroke-linecap="butt" stroke-linejoin="round" stroke-miterlimit="4" stroke-opacity="1" stroke-width="2" d="m 417.5714,499.798 25,0 c 0.55401,0 1,0.446 1,1 l 0,4 c 0,0.554 -0.44599,1 -1,1 l -25,0 c -0.55399,0 -1,-0.446 -1,-1 l 0,-4 c 0,-0.554 0.44601,-1 1,-1 z" opacity="1"/><path id="path4220" fill="#039be5" fill-opacity="1" stroke="none" stroke-dasharray="none" stroke-linecap="butt" stroke-linejoin="round" stroke-miterlimit="4" stroke-opacity="1" stroke-width="2" d="m 389.57141,493.798 c -1.66197,0 -3,1.338 -3,3 l 0,43 c 0,1.662 1.33803,3 3,3 l 27,0 27,0 c 1.66197,0 3,-1.338 3,-3 l 0,-34 c 0,-1.662 -1.33803,-3 -3,-3 l -24,0 -2,-8 c -0.13437,-0.5375 -0.446,-1 -1,-1 l -18,0 -9,0 z" opacity="1"/><path id="path4223" fill="#03a9f4" fill-opacity="1" stroke="none" stroke-dasharray="none" stroke-linecap="butt" stroke-linejoin="round" stroke-miterlimit="4" stroke-opacity="1" stroke-width="2" d="m 389.57141,494.798 c -1.108,0 -2,0.892 -2,2 l 0,43 c 0,1.108 0.892,2 2,2 l 27,0 27,0 c 1.108,0 2,-0.892 2,-2 l 0,-34 c 0,-1.108 -0.892,-2 -2,-2 l -25,0 -2,-8 c -0.13437,-0.5375 -0.446,-1 -1,-1 l -20,0 -6,0 z" opacity="1"/><rect id="rect4157-85" width="5" height="5" x="377.571" y="-504.798" fill="#039be5" fill-opacity="1" fill-rule="nonzero" stroke="none" stroke-dasharray="none" stroke-dashoffset="0" stroke-linecap="butt" stroke-linejoin="miter" stroke-miterlimit="4" stroke-opacity="1" stroke-width="1" clip-rule="nonzero" color="#000" color-interpolation="sRGB" color-interpolation-filters="linearRGB" color-rendering="auto" display="inline" enable-background="accumulate" image-rendering="auto" opacity="1" overflow="visible" shape-rendering="auto" text-rendering="auto" transform="scale(1,-1)" visibility="visible" style="isolation:auto;mix-blend-mode:normal;solid-color:#000;solid-opacity:1"/><rect id="rect4157-5-3" width="5" height="5" x="377.571" y="-496.798" fill="#03a9f4" fill-opacity="1" fill-rule="nonzero" stroke="none" stroke-dasharray="none" stroke-dashoffset="0" stroke-linecap="butt" stroke-linejoin="miter" stroke-miterlimit="4" stroke-opacity="1" stroke-width="1" clip-rule="nonzero" color="#000" color-interpolation="sRGB" color-interpolation-filters="linearRGB" color-rendering="auto" display="inline" enable-background="accumulate" image-rendering="auto" opacity="1" overflow="visible" shape-rendering="auto" text-rendering="auto" transform="scale(1,-1)" visibility="visible" style="isolation:auto;mix-blend-mode:normal;solid-color:#000;solid-opacity:1"/><rect id="rect4157-8-7" width="5" height="5" x="377.571" y="507.798" fill="#0288d1" fill-opacity="1" fill-rule="nonzero" stroke="none" stroke-dasharray="none" stroke-dashoffset="0" stroke-linecap="butt" stroke-linejoin="miter" stroke-miterlimit="4" stroke-opacity="1" stroke-width="1" clip-rule="nonzero" color="#000" color-interpolation="sRGB" color-interpolation-filters="linearRGB" color-rendering="auto" display="inline" enable-background="accumulate" image-rendering="auto" opacity="1" overflow="visible" shape-rendering="auto" text-rendering="auto" visibility="visible" style="isolation:auto;mix-blend-mode:normal;solid-color:#000;solid-opacity:1"/><rect id="rect4304" width="5" height="5" x="369.571" y="483.798" fill="#fffbec" fill-opacity="1" fill-rule="nonzero" stroke="none" stroke-dasharray="none" stroke-dashoffset="0" stroke-linecap="butt" stroke-linejoin="miter" stroke-miterlimit="4" stroke-opacity="1" stroke-width="1" clip-rule="nonzero" color="#000" color-interpolation="sRGB" color-interpolation-filters="linearRGB" color-rendering="auto" display="inline" enable-background="accumulate" image-rendering="auto" opacity="1" overflow="visible" shape-rendering="auto" text-rendering="auto" visibility="visible" style="isolation:auto;mix-blend-mode:normal;solid-color:#000;solid-opacity:1"/><rect id="rect4306" width="5" height="5" x="369.571" y="491.798" fill="#e8e5dc" fill-opacity="1" fill-rule="nonzero" stroke="none" stroke-dasharray="none" stroke-dashoffset="0" stroke-linecap="butt" stroke-linejoin="miter" stroke-miterlimit="4" stroke-opacity="1" stroke-width="1" clip-rule="nonzero" color="#000" color-interpolation="sRGB" color-interpolation-filters="linearRGB" color-rendering="auto" display="inline" enable-background="accumulate" image-rendering="auto" opacity="1" overflow="visible" shape-rendering="auto" text-rendering="auto" visibility="visible" style="isolation:auto;mix-blend-mode:normal;solid-color:#000;solid-opacity:1"/><rect id="rect4250" width="5" height="5" x="377.571" y="483.798" fill="#b3e5fc" fill-opacity="1" fill-rule="nonzero" stroke="none" stroke-dasharray="none" stroke-dashoffset="0" stroke-linecap="butt" stroke-linejoin="miter" stroke-miterlimit="4" stroke-opacity="1" stroke-width="1" clip-rule="nonzero" color="#000" color-interpolation="sRGB" color-interpolation-filters="linearRGB" color-rendering="auto" display="inline" enable-background="accumulate" image-rendering="auto" opacity="1" overflow="visible" shape-rendering="auto" text-rendering="auto" visibility="visible" style="isolation:auto;mix-blend-mode:normal;solid-color:#000;solid-opacity:1"/><path id="path4271" fill="url(#linearGradient4279)" fill-opacity="1" fill-rule="nonzero" stroke="none" stroke-dasharray="none" stroke-dashoffset="0" stroke-linecap="butt" stroke-linejoin="miter" stroke-miterlimit="4" stroke-opacity="1" stroke-width="1" d="m 424.57143,529.798 -2,0 0,2 -12,0 0,-2 -2,0 0,4 16,0 0,-4 z" clip-rule="nonzero" color="#000" color-interpolation="sRGB" color-interpolation-filters="linearRGB" color-rendering="auto" display="inline" enable-background="accumulate" image-rendering="auto" opacity="1" overflow="visible" shape-rendering="auto" text-rendering="auto" visibility="visible" style="isolation:auto;mix-blend-mode:normal;solid-color:#000;solid-opacity:1"/><path id="path4248" fill="url(#linearGradient4256)" fill-opacity="1" fill-rule="nonzero" stroke="none" stroke-dasharray="none" stroke-dashoffset="0" stroke-linecap="butt" stroke-linejoin="miter" stroke-miterlimit="4" stroke-opacity="1" stroke-width="1" d="m 413.57143,513.798 -5,5 0,1 0,2 0,8 2,0 0,-8 0,-2 4,0 0,-4 2,0 6,0 0,14 2,0 0,-16 -8,0 -2,0 -1,0 z" clip-rule="nonzero" color="#000" color-interpolation="sRGB" color-interpolation-filters="linearRGB" color-rendering="auto" display="inline" enable-background="accumulate" image-rendering="auto" opacity="1" overflow="visible" shape-rendering="auto" text-rendering="auto" visibility="visible" style="isolation:auto;mix-blend-mode:normal;solid-color:#000;solid-opacity:1"/><path id="folderGlyph" fill="#b3e5fc" fill-opacity="1" fill-rule="nonzero" stroke="none" stroke-dasharray="none" stroke-dashoffset="0" stroke-linecap="butt" stroke-linejoin="miter" stroke-miterlimit="4" stroke-opacity="1" stroke-width="1" d="m 424.57143,532.798 0,-20 -8,0 -2,0 -1,0 -5,5 0,1 0,2 0,12 16,0 z m -2,-2 -12,0 0,-10 0,-2 4,0 0,-4 2,0 6,0 0,16 z" clip-rule="nonzero" color="#000" color-interpolation="sRGB" color-interpolation-filters="linearRGB" color-rendering="auto" display="inline" enable-background="accumulate" image-rendering="auto" opacity="1" overflow="visible" shape-rendering="auto" text-rendering="auto" visibility="visible" style="isolation:auto;mix-blend-mode:normal;solid-color:#000;solid-opacity:1"/></g></svg>