<svg xmlns="http://www.w3.org/2000/svg" xmlns:svg="http://www.w3.org/2000/svg" xmlns:xlink="http://www.w3.org/1999/xlink" id="svg2" width="32" height="32" version="1.1" viewBox="0 0 32 32"><defs id="defs4"><linearGradient id="Shadow"><stop id="stop4181" offset="0" stop-color="#000" stop-opacity="1"/><stop id="stop4183" offset="1" stop-color="#000" stop-opacity="0"/></linearGradient><radialGradient id="radialGradient4576" cx="28" cy="28.5" r="1.5" fx="28" fy="28.5" gradientTransform="matrix(3.1111458e-7,2.6666673,-1.9999997,2.3333583e-7,83.99998,973.69551)" gradientUnits="userSpaceOnUse" xlink:href="#Shadow"/><radialGradient id="radialGradient4578" cx=".56" cy="31.147" r="1.5" fx=".56" fy="31.147" gradientTransform="matrix(-1.9999998,2.4329792e-6,-3.2319946e-6,-2.6666666,6.119531,1131.421)" gradientUnits="userSpaceOnUse" xlink:href="#Shadow"/><linearGradient id="linearGradient4580" x1="16" x2="16" y1="28" y2="32" gradientTransform="translate(0,1020.3622)" gradientUnits="userSpaceOnUse" xlink:href="#Shadow"/></defs><metadata id="metadata7"/><g id="layer1" transform="translate(0,-1020.3622)"><path id="path4574" fill="url(#linearGradient4580)" fill-opacity="1" stroke="none" stroke-dasharray="none" stroke-linecap="round" stroke-linejoin="round" stroke-miterlimit="4" stroke-opacity=".528" stroke-width="2" d="m 5,1048.3622 0,4 22,0 0,-4 z" opacity="1"/><path id="path4572" fill="url(#radialGradient4578)" fill-opacity="1" stroke="none" stroke-dasharray="none" stroke-linecap="round" stroke-linejoin="round" stroke-miterlimit="4" stroke-opacity=".528" stroke-width="2" d="m 5,1048.3622 -3,0 0,1 c 0,1.662 1.33799,3 3,3 l 0,-4 z" opacity="1"/><path id="path4570" fill="url(#radialGradient4576)" fill-opacity="1" stroke="none" stroke-dasharray="none" stroke-linecap="round" stroke-linejoin="round" stroke-miterlimit="4" stroke-opacity=".528" stroke-width="2" d="m 27,1048.3622 0,4 c 1.66201,0 3,-1.338 3,-3 l 0,-1 -3,0 z" opacity="1"/><rect id="rect4582" width="28" height="20" x="2" y="1030.362" fill="#455a64" fill-opacity="1" stroke="none" stroke-dasharray="none" stroke-linecap="round" stroke-linejoin="round" stroke-miterlimit="4" stroke-opacity=".528" stroke-width="2" opacity="1" ry="1.923"/><rect id="rect4218" width="26" height="18" x="3" y="1031.362" fill="#90a4ae" fill-opacity="1" stroke="none" stroke-dasharray="none" stroke-linecap="round" stroke-linejoin="round" stroke-miterlimit="4" stroke-opacity=".528" stroke-width="2" opacity="1" ry="1"/><rect id="rect4279" width="24" height="16" x="4" y="1032.362" fill="#eceff1" fill-opacity="1" stroke="none" stroke-dasharray="none" stroke-linecap="round" stroke-linejoin="round" stroke-miterlimit="4" stroke-opacity="1" stroke-width="2" opacity="1"/><rect id="rect4356" width="22" height="1" x="5" y="1046.362" fill="#cfd8dc" fill-opacity="1" stroke="none" stroke-dasharray="none" stroke-linecap="round" stroke-linejoin="round" stroke-miterlimit="4" stroke-opacity="1" stroke-width="2" opacity="1"/><rect id="rect4283" width="22" height="8" x="5" y="1036.362" fill="#5c6bc0" fill-opacity="1" stroke="none" stroke-dasharray="none" stroke-linecap="round" stroke-linejoin="round" stroke-miterlimit="4" stroke-opacity="1" stroke-width="2" opacity="1"/><path id="path4285" fill="#455a64" fill-opacity="1" fill-rule="evenodd" stroke="none" stroke-dasharray="none" stroke-dashoffset="0" stroke-linecap="round" stroke-linejoin="round" stroke-miterlimit="4" stroke-opacity="1" stroke-width="2" d="m 11,1045.3613 c -0.334342,0 -0.646557,0.1671 -0.832031,0.4453 l -2.0000002,3 c -0.4428577,0.6646 0.033434,1.5545 0.8320312,1.5547 l 14,0 c 0.798597,-2e-4 1.274889,-0.8901 0.832031,-1.5547 l -2,-3 C 21.646557,1045.5284 21.334342,1045.3613 21,1045.3613 Z" baseline-shift="baseline" clip-rule="nonzero" color="#000" color-interpolation="sRGB" color-interpolation-filters="linearRGB" color-rendering="auto" direction="ltr" display="inline" enable-background="accumulate" font-family="sans-serif" font-size="medium" font-stretch="normal" font-style="normal" font-variant="normal" font-weight="normal" image-rendering="auto" letter-spacing="normal" opacity="1" overflow="visible" shape-rendering="auto" text-anchor="start" text-decoration="none" text-rendering="auto" visibility="visible" word-spacing="normal" writing-mode="lr-tb" style="line-height:normal;text-indent:0;text-align:start;text-decoration-line:none;text-decoration-style:solid;text-decoration-color:#000;text-transform:none;block-progression:tb;white-space:normal;isolation:auto;mix-blend-mode:normal;solid-color:#000;solid-opacity:1"/><rect id="rect4289" width="16" height="6" x="8" y="1037.362" fill="#37474f" fill-opacity="1" stroke="none" stroke-dasharray="none" stroke-linecap="round" stroke-linejoin="round" stroke-miterlimit="4" stroke-opacity="1" stroke-width="2" opacity="1" ry="3"/><rect id="rect4293" width="6" height="4" x="13" y="1038.362" fill="#e3f2fd" fill-opacity="1" stroke="none" stroke-dasharray="none" stroke-linecap="round" stroke-linejoin="round" stroke-miterlimit="4" stroke-opacity="1" stroke-width="2" opacity="1" ry="0"/><path id="path4295" fill="#424242" fill-opacity="1" stroke="none" stroke-dasharray="none" stroke-linecap="round" stroke-linejoin="round" stroke-miterlimit="4" stroke-opacity="1" stroke-width="2" d="M 13 18 L 13 22 L 14.458984 22 A 4 4.0000005 0 0 0 15 20 A 4 4.0000005 0 0 0 14.458984 18 L 13 18 z" opacity="1" transform="translate(0,1020.3622)"/><path id="path4300" fill="#616161" fill-opacity="1" stroke="none" stroke-dasharray="none" stroke-linecap="round" stroke-linejoin="round" stroke-miterlimit="4" stroke-opacity="1" stroke-width="2" d="M 13 18 L 13 22 L 13.232422 22 A 3 3.0000005 0 0 0 14 20 A 3 3.0000005 0 0 0 13.230469 18 L 13 18 z" opacity="1" transform="translate(0,1020.3622)"/><path id="path4305" fill="#424242" fill-opacity="1" stroke="none" stroke-dasharray="none" stroke-linecap="round" stroke-linejoin="round" stroke-miterlimit="4" stroke-opacity="1" stroke-width="2" d="M 18.767578 18 A 3 3.0000005 0 0 0 18 20 A 3 3.0000005 0 0 0 18.769531 22 L 19 22 L 19 18 L 18.767578 18 z" opacity="1" transform="translate(0,1020.3622)"/><path id="path4316" fill="#e3f2fd" fill-opacity="1" fill-rule="evenodd" stroke="none" stroke-linecap="butt" stroke-linejoin="miter" stroke-opacity="1" stroke-width="1" d="m 10.292969,1038.6552 0.707031,0.707 0.707031,-0.707 0,1 1,0 -0.707031,0.707 0.707031,0.707 -1,0 0,1 -0.707031,-0.707 -0.707031,0.707 0,-1 -1.0000002,0 0.7070312,-0.707 -0.7070312,-0.707 1.0000002,0 0,-1 z"/><path id="path4344" fill="#e3f2fd" fill-opacity="1" fill-rule="evenodd" stroke="none" stroke-linecap="butt" stroke-linejoin="miter" stroke-opacity="1" stroke-width="1" d="m 20.292969,1038.6552 0.707031,0.707 0.707031,-0.707 0,1 1,0 -0.707031,0.707 0.707031,0.707 -1,0 0,1 -0.707031,-0.707 -0.707031,0.707 0,-1 -1,0 0.707031,-0.707 -0.707031,-0.707 1,0 0,-1 z"/><path id="path4346" fill="#263238" fill-opacity="1" stroke="none" stroke-dasharray="none" stroke-linecap="round" stroke-linejoin="round" stroke-miterlimit="4" stroke-opacity="1" stroke-width="2" d="M 12 26 L 12 27 L 14 27 L 14 26 L 12 26 z M 18 26 L 18 27 L 20 27 L 20 26 L 18 26 z M 11 27 A 1 1 0 0 0 10 28 A 1 1 0 0 0 11 29 A 1 1 0 0 0 12 28 A 1 1 0 0 0 11 27 z M 21 27 A 1 1 0 0 0 20 28 A 1 1 0 0 0 21 29 A 1 1 0 0 0 22 28 A 1 1 0 0 0 21 27 z" opacity="1" transform="translate(0,1020.3622)"/><rect id="rect4354" width="22" height="1" x="5" y="1033.362" fill="#cfd8dc" fill-opacity="1" stroke="none" stroke-dasharray="none" stroke-linecap="round" stroke-linejoin="round" stroke-miterlimit="4" stroke-opacity="1" stroke-width="2" opacity="1"/></g></svg>