<svg xmlns="http://www.w3.org/2000/svg" xmlns:svg="http://www.w3.org/2000/svg" xmlns:xlink="http://www.w3.org/1999/xlink" id="svg2" width="32" height="32" version="1.1" viewBox="0 0 32 32"><defs id="defs4"><linearGradient id="Shadow"><stop id="stop4165" offset="0" stop-color="#000" stop-opacity="1"/><stop id="stop4167" offset="1" stop-color="#000" stop-opacity="0"/></linearGradient><radialGradient id="radialGradient4204" cx="16" cy="1039.362" r="3" fx="16" fy="1039.362" gradientUnits="userSpaceOnUse" xlink:href="#Shadow"/><linearGradient id="linearGradient4261" x1="12" x2="18.788" y1="15" y2="13.038" gradientTransform="matrix(0.70710678,0.70710678,-0.70710678,0.70710678,17.414288,1014.3206)" gradientUnits="userSpaceOnUse" xlink:href="#Shadow"/><linearGradient id="linearGradient4263" x1="12" x2="19" y1="20" y2="22" gradientTransform="matrix(0.70710678,0.70710678,-0.70710678,0.70710678,17.414288,1014.3206)" gradientUnits="userSpaceOnUse" xlink:href="#Shadow"/><radialGradient id="radialGradient4169" cx="16" cy="1040.362" r="12" fx="16" fy="1040.362" gradientUnits="userSpaceOnUse" xlink:href="#linearGradient4163"/><linearGradient id="linearGradient4163"><stop id="stop4166" offset="0" stop-color="#000" stop-opacity="1"/><stop id="stop4170" offset=".667" stop-color="#000" stop-opacity="1"/><stop id="stop4168" offset="1" stop-color="#000" stop-opacity="0"/></linearGradient></defs><metadata id="metadata7"/><g id="layer1" transform="translate(0,-1020.3622)"><circle id="path4153" cx="16" cy="1040.362" r="12" fill="url(#radialGradient4169)" fill-opacity="1" stroke="none" stroke-dasharray="none" stroke-linecap="round" stroke-linejoin="round" stroke-miterlimit="4" stroke-opacity="1" stroke-width="2" opacity="1"/><circle id="circle4171" cx="745.547" cy="722.919" r="12" fill="#78909c" fill-opacity="1" stroke="none" stroke-dasharray="none" stroke-linecap="round" stroke-linejoin="round" stroke-miterlimit="4" stroke-opacity="1" stroke-width="2" opacity="1" transform="matrix(0.70710678,0.70710678,-0.70710678,0.70710678,0,0)"/><circle id="circle4175" cx="16" cy="1038.362" r="11" fill="#4fc3f7" fill-opacity="1" stroke="none" stroke-dasharray="none" stroke-linecap="round" stroke-linejoin="round" stroke-miterlimit="4" stroke-opacity="1" stroke-width="2" opacity="1"/><path id="path4210" fill="#b3e5fc" fill-opacity="1" fill-rule="evenodd" stroke="none" stroke-linecap="butt" stroke-linejoin="miter" stroke-opacity="1" stroke-width="1" d="M 8.4609375 10 A 11 11 0 0 0 5 18 A 11 11 0 0 0 16 29 A 11 11 0 0 0 25.394531 23.697266 L 24 23 L 23 23 L 21 24 L 22 25 L 21 26 L 20 27 L 17 27 L 14 26 L 13 25 L 12 23 L 12 22 L 15 20.5 L 15 21 L 16 22 L 16 23 L 16 24 L 17 24 L 18 24 L 18 23 L 17 22 L 16 20 L 18 18 L 17 16 L 16 13 L 13 12 L 11 10 L 8.4609375 10 z" transform="translate(0,1020.3622)"/><path id="path4218" fill="#b3e5fc" fill-opacity="1" fill-rule="evenodd" stroke="none" stroke-linecap="butt" stroke-linejoin="miter" stroke-opacity="1" stroke-width="1" d="M 22.037109 8.8164062 C 22.003354 8.9311226 22 9 22 9 L 20 10 L 20 12 L 22 13 L 22 14 L 22 15 L 22 17 L 22 18 L 23 19 L 24 19 L 25 19 L 26 19 L 27 18 A 11 11 0 0 0 22.037109 8.8164062 z" transform="translate(0,1020.3622)"/><rect id="rect4265" width="2" height="8" x="744.547" y="714.919" fill="#ec407a" fill-opacity="1" stroke="none" stroke-dasharray="none" stroke-linecap="round" stroke-linejoin="round" stroke-miterlimit="4" stroke-opacity="1" stroke-width="2" opacity="1" ry="0" transform="matrix(0.70710678,0.70710678,-0.70710678,0.70710678,0,0)"/><path id="path4242" fill="#ec407a" fill-opacity="1" fill-rule="evenodd" stroke="none" stroke-dasharray="none" stroke-dashoffset="0" stroke-linecap="round" stroke-linejoin="round" stroke-miterlimit="4" stroke-opacity="1" stroke-width="2" d="m 22.362654,1031.9997 a 1.0001,1.0001 0 0 0 -0.01795,-0.018 1.0001,1.0001 0 0 0 -0.03591,-0.033 1.0001,1.0001 0 0 0 -0.01243,-0.01 1.0001,1.0001 0 0 0 -0.05386,-0.043 1.0001,1.0001 0 0 0 -0.02624,-0.018 1.0001,1.0001 0 0 0 -0.06629,-0.041 1.0001,1.0001 0 0 0 -0.01105,-0.01 1.0001,1.0001 0 0 0 -0.06767,-0.035 1.0001,1.0001 0 0 0 -0.03453,-0.015 1.0001,1.0001 0 0 0 -0.05662,-0.021 1.0001,1.0001 0 0 0 -0.03038,-0.011 1.0001,1.0001 0 0 0 -0.08425,-0.021 1.0001,1.0001 0 0 0 -0.08977,-0.015 1.0001,1.0001 0 0 0 -0.02486,-0 1.0001,1.0001 0 0 0 -0.06767,-0 1.0001,1.0001 0 0 0 -0.03315,0 1.0001,1.0001 0 0 0 -0.05801,0 1.0001,1.0001 0 0 0 -0.04972,0 1.0001,1.0001 0 0 0 -0.05524,0.01 1.0001,1.0001 0 0 0 -0.03038,0.01 1.0001,1.0001 0 0 0 -0.08563,0.022 1.0001,1.0001 0 0 0 -0.09391,0.033 1.0001,1.0001 0 0 0 -0.0732,0.035 1.0001,1.0001 0 0 0 -0.03453,0.018 1.0001,1.0001 0 0 0 -0.02762,0.014 l -7.071067,4.2427 a 1.0001,1.0001 0 0 0 -0.191969,1.5647 l 1.414213,1.4142 7.069687,-7.0696 z" baseline-shift="baseline" clip-rule="nonzero" color="#000" color-interpolation="sRGB" color-interpolation-filters="linearRGB" color-rendering="auto" direction="ltr" display="inline" enable-background="accumulate" font-family="sans-serif" font-size="medium" font-stretch="normal" font-style="normal" font-variant="normal" font-weight="normal" image-rendering="auto" letter-spacing="normal" opacity="1" overflow="visible" shape-rendering="auto" text-anchor="start" text-decoration="none" text-rendering="auto" visibility="visible" word-spacing="normal" writing-mode="lr-tb" style="line-height:normal;text-indent:0;text-align:start;text-decoration-line:none;text-decoration-style:solid;text-decoration-color:#000;text-transform:none;block-progression:tb;white-space:normal;isolation:auto;mix-blend-mode:normal;solid-color:#000;solid-opacity:1"/><path id="path4247" fill="url(#linearGradient4261)" fill-opacity="1" fill-rule="evenodd" stroke="none" stroke-dasharray="none" stroke-dashoffset="0" stroke-linecap="round" stroke-linejoin="round" stroke-miterlimit="4" stroke-opacity="1" stroke-width="2" d="m 22.364035,1031.9983 -7.071068,7.071 0.707107,0.7071 1.414214,1.4143 a 1.0001,1.0001 0 0 0 1.434929,-0.021 1.0001,1.0001 0 0 0 0.129821,-0.1712 l 4.24264,-7.0711 a 1.0001,1.0001 0 0 0 0.01381,-0.028 1.0001,1.0001 0 0 0 0.02348,-0.043 1.0001,1.0001 0 0 0 0.0097,-0.018 1.0001,1.0001 0 0 0 0.0069,-0.015 1.0001,1.0001 0 0 0 0.02486,-0.063 1.0001,1.0001 0 0 0 0.0069,-0.015 1.0001,1.0001 0 0 0 0.01934,-0.066 1.0001,1.0001 0 0 0 0.01519,-0.062 1.0001,1.0001 0 0 0 0.0069,-0.034 1.0001,1.0001 0 0 0 0.0083,-0.055 1.0001,1.0001 0 0 0 0.0028,-0.05 1.0001,1.0001 0 0 0 0.0028,-0.075 1.0001,1.0001 0 0 0 -0.0055,-0.099 1.0001,1.0001 0 0 0 -0.01381,-0.088 1.0001,1.0001 0 0 0 -0.0028,-0.019 1.0001,1.0001 0 0 0 -0.0221,-0.075 1.0001,1.0001 0 0 0 -0.01243,-0.037 1.0001,1.0001 0 0 0 -0.01519,-0.043 1.0001,1.0001 0 0 0 -0.01795,-0.043 1.0001,1.0001 0 0 0 -0.03729,-0.073 1.0001,1.0001 0 0 0 -0.04419,-0.072 1.0001,1.0001 0 0 0 -0.01519,-0.029 1.0001,1.0001 0 0 0 -0.04143,-0.055 1.0001,1.0001 0 0 0 -0.01105,-0.011 1.0001,1.0001 0 0 0 -0.05248,-0.053 l -0.707107,-0.7071 z" baseline-shift="baseline" clip-rule="nonzero" color="#000" color-interpolation="sRGB" color-interpolation-filters="linearRGB" color-rendering="auto" direction="ltr" display="inline" enable-background="accumulate" font-family="sans-serif" font-size="medium" font-stretch="normal" font-style="normal" font-variant="normal" font-weight="normal" image-rendering="auto" letter-spacing="normal" opacity="1" overflow="visible" shape-rendering="auto" text-anchor="start" text-decoration="none" text-rendering="auto" visibility="visible" word-spacing="normal" writing-mode="lr-tb" style="line-height:normal;text-indent:0;text-align:start;text-decoration-line:none;text-decoration-style:solid;text-decoration-color:#000;text-transform:none;block-progression:tb;white-space:normal;isolation:auto;mix-blend-mode:normal;solid-color:#000;solid-opacity:1"/><path id="path4227" fill="#e91e63" fill-opacity="1" fill-rule="evenodd" stroke="none" stroke-dasharray="none" stroke-dashoffset="0" stroke-linecap="round" stroke-linejoin="round" stroke-miterlimit="4" stroke-opacity="1" stroke-width="2" d="m 22.362654,1031.9997 -7.069687,7.0696 1.414214,1.4143 a 1.0001,1.0001 0 0 0 1.434929,-0.021 1.0001,1.0001 0 0 0 0.129821,-0.1712 l 4.24264,-7.0711 a 1.0001,1.0001 0 0 0 0.01381,-0.028 1.0001,1.0001 0 0 0 0.02348,-0.043 1.0001,1.0001 0 0 0 0.0097,-0.018 1.0001,1.0001 0 0 0 0.0069,-0.015 1.0001,1.0001 0 0 0 0.02486,-0.063 1.0001,1.0001 0 0 0 0.0069,-0.015 1.0001,1.0001 0 0 0 0.01934,-0.066 1.0001,1.0001 0 0 0 0.01519,-0.062 1.0001,1.0001 0 0 0 0.0069,-0.035 1.0001,1.0001 0 0 0 0.0083,-0.055 1.0001,1.0001 0 0 0 0.0028,-0.05 1.0001,1.0001 0 0 0 0.0028,-0.075 1.0001,1.0001 0 0 0 -0.0055,-0.099 1.0001,1.0001 0 0 0 -0.01381,-0.088 1.0001,1.0001 0 0 0 -0.0028,-0.019 1.0001,1.0001 0 0 0 -0.0221,-0.074 1.0001,1.0001 0 0 0 -0.01243,-0.037 1.0001,1.0001 0 0 0 -0.01519,-0.043 1.0001,1.0001 0 0 0 -0.01795,-0.043 1.0001,1.0001 0 0 0 -0.03729,-0.073 1.0001,1.0001 0 0 0 -0.04419,-0.072 1.0001,1.0001 0 0 0 -0.01795,-0.026 1.0001,1.0001 0 0 0 -0.04281,-0.054 1.0001,1.0001 0 0 0 -0.0097,-0.012 1.0001,1.0001 0 0 0 -0.0511,-0.054 z" baseline-shift="baseline" clip-rule="nonzero" color="#000" color-interpolation="sRGB" color-interpolation-filters="linearRGB" color-rendering="auto" direction="ltr" display="inline" enable-background="accumulate" font-family="sans-serif" font-size="medium" font-stretch="normal" font-style="normal" font-variant="normal" font-weight="normal" image-rendering="auto" letter-spacing="normal" opacity="1" overflow="visible" shape-rendering="auto" text-anchor="start" text-decoration="none" text-rendering="auto" visibility="visible" word-spacing="normal" writing-mode="lr-tb" style="line-height:normal;text-indent:0;text-align:start;text-decoration-line:none;text-decoration-style:solid;text-decoration-color:#000;text-transform:none;block-progression:tb;white-space:normal;isolation:auto;mix-blend-mode:normal;solid-color:#000;solid-opacity:1"/><path id="path4249" fill="url(#linearGradient4263)" fill-opacity="1" fill-rule="evenodd" stroke="none" stroke-dasharray="none" stroke-dashoffset="0" stroke-linecap="round" stroke-linejoin="round" stroke-miterlimit="4" stroke-opacity="1" stroke-width="2" d="m 16.707181,1037.6551 -7.071068,7.0711 0.707107,0.7071 -0.0014,0 a 1.0001,1.0001 0 0 0 0.05248,0.053 1.0001,1.0001 0 0 0 0.01105,0.011 1.0001,1.0001 0 0 0 0.05524,0.041 1.0001,1.0001 0 0 0 0.029,0.015 1.0001,1.0001 0 0 0 0.07181,0.044 1.0001,1.0001 0 0 0 0.0732,0.037 1.0001,1.0001 0 0 0 0.04281,0.018 1.0001,1.0001 0 0 0 0.04281,0.015 1.0001,1.0001 0 0 0 0.03729,0.012 1.0001,1.0001 0 0 0 0.0732,0.024 1.0001,1.0001 0 0 0 0.02072,0 1.0001,1.0001 0 0 0 0.08839,0.014 1.0001,1.0001 0 0 0 0.09944,0.01 1.0001,1.0001 0 0 0 0.07458,-0 1.0001,1.0001 0 0 0 0.04972,-0 1.0001,1.0001 0 0 0 0.05524,-0.01 1.0001,1.0001 0 0 0 0.03453,-0.01 1.0001,1.0001 0 0 0 0.06215,-0.015 1.0001,1.0001 0 0 0 0.06629,-0.019 1.0001,1.0001 0 0 0 0.01519,-0.01 1.0001,1.0001 0 0 0 0.06353,-0.025 1.0001,1.0001 0 0 0 0.01519,-0.01 1.0001,1.0001 0 0 0 0.01796,-0.01 1.0001,1.0001 0 0 0 0.04281,-0.024 1.0001,1.0001 0 0 0 0.02762,-0.014 l 7.071068,-4.2426 a 1.0001,1.0001 0 0 0 0.171253,-0.1298 1.0001,1.0001 0 0 0 0.02072,-1.435 l -1.414213,-1.4142 0.0014,-0 -0.707107,-0.7071 z" baseline-shift="baseline" clip-rule="nonzero" color="#000" color-interpolation="sRGB" color-interpolation-filters="linearRGB" color-rendering="auto" direction="ltr" display="inline" enable-background="accumulate" font-family="sans-serif" font-size="medium" font-stretch="normal" font-style="normal" font-variant="normal" font-weight="normal" image-rendering="auto" letter-spacing="normal" opacity="1" overflow="visible" shape-rendering="auto" text-anchor="start" text-decoration="none" text-rendering="auto" visibility="visible" word-spacing="normal" writing-mode="lr-tb" style="line-height:normal;text-indent:0;text-align:start;text-decoration-line:none;text-decoration-style:solid;text-decoration-color:#000;text-transform:none;block-progression:tb;white-space:normal;isolation:auto;mix-blend-mode:normal;solid-color:#000;solid-opacity:1"/><rect id="rect4267" width="2" height="8" x="744.547" y="722.919" fill="#e0e0e0" fill-opacity="1" stroke="none" stroke-dasharray="none" stroke-linecap="round" stroke-linejoin="round" stroke-miterlimit="4" stroke-opacity="1" stroke-width="2" opacity="1" ry="0" transform="matrix(0.70710678,0.70710678,-0.70710678,0.70710678,0,0)"/><path id="path4245" fill="#bdbdbd" fill-opacity="1" fill-rule="evenodd" stroke="none" stroke-dasharray="none" stroke-dashoffset="0" stroke-linecap="round" stroke-linejoin="round" stroke-miterlimit="4" stroke-opacity="1" stroke-width="2" d="m 16.7058,1037.6565 -1.414214,-1.4142 a 1.0001,1.0001 0 0 0 -1.56475,0.192 l -4.2426407,7.071 a 1.0001,1.0001 0 0 0 -0.013811,0.028 1.0001,1.0001 0 0 0 -0.017953,0.035 1.0001,1.0001 0 0 0 -0.034527,0.073 1.0001,1.0001 0 0 0 -0.033145,0.094 1.0001,1.0001 0 0 0 -0.022097,0.086 1.0001,1.0001 0 0 0 -0.00552,0.03 1.0001,1.0001 0 0 0 -0.00829,0.055 1.0001,1.0001 0 0 0 -0.00276,0.05 1.0001,1.0001 0 0 0 -0.00276,0.058 1.0001,1.0001 0 0 0 0.00138,0.032 1.0001,1.0001 0 0 0 0.00414,0.068 1.0001,1.0001 0 0 0 0.00138,0.026 1.0001,1.0001 0 0 0 0.015192,0.09 1.0001,1.0001 0 0 0 0.020716,0.084 1.0001,1.0001 0 0 0 0.011049,0.03 1.0001,1.0001 0 0 0 0.020716,0.057 1.0001,1.0001 0 0 0 0.015192,0.034 1.0001,1.0001 0 0 0 0.034526,0.068 1.0001,1.0001 0 0 0 0.00829,0.01 1.0001,1.0001 0 0 0 0.040051,0.068 1.0001,1.0001 0 0 0 0.015192,0.029 1.0001,1.0001 0 0 0 0.041431,0.055 1.0001,1.0001 0 0 0 0.011049,0.011 1.0001,1.0001 0 0 0 0.034527,0.034 l -0.00138,0 a 1.0001,1.0001 0 0 0 0.017954,0.018 l 7.071068,-7.0711 z" baseline-shift="baseline" clip-rule="nonzero" color="#000" color-interpolation="sRGB" color-interpolation-filters="linearRGB" color-rendering="auto" direction="ltr" display="inline" enable-background="accumulate" font-family="sans-serif" font-size="medium" font-stretch="normal" font-style="normal" font-variant="normal" font-weight="normal" image-rendering="auto" letter-spacing="normal" opacity="1" overflow="visible" shape-rendering="auto" text-anchor="start" text-decoration="none" text-rendering="auto" visibility="visible" word-spacing="normal" writing-mode="lr-tb" style="line-height:normal;text-indent:0;text-align:start;text-decoration-line:none;text-decoration-style:solid;text-decoration-color:#000;text-transform:none;block-progression:tb;white-space:normal;isolation:auto;mix-blend-mode:normal;solid-color:#000;solid-opacity:1"/><path id="path4234" fill="#9e9e9e" fill-opacity="1" fill-rule="evenodd" stroke="none" stroke-dasharray="none" stroke-dashoffset="0" stroke-linecap="round" stroke-linejoin="round" stroke-miterlimit="4" stroke-opacity="1" stroke-width="2" d="m 16.7058,1037.6565 -7.071068,7.0711 a 1.0001,1.0001 0 0 0 0.052481,0.053 1.0001,1.0001 0 0 0 0.011049,0.011 1.0001,1.0001 0 0 0 0.055242,0.041 1.0001,1.0001 0 0 0 0.029003,0.015 1.0001,1.0001 0 0 0 0.071815,0.044 1.0001,1.0001 0 0 0 0.073197,0.037 1.0001,1.0001 0 0 0 0.042813,0.018 1.0001,1.0001 0 0 0 0.042813,0.015 1.0001,1.0001 0 0 0 0.03729,0.012 1.0001,1.0001 0 0 0 0.0732,0.024 1.0001,1.0001 0 0 0 0.02072,0 1.0001,1.0001 0 0 0 0.08839,0.014 1.0001,1.0001 0 0 0 0.09944,0.01 1.0001,1.0001 0 0 0 0.07458,-0 1.0001,1.0001 0 0 0 0.04972,-0 1.0001,1.0001 0 0 0 0.05524,-0.01 1.0001,1.0001 0 0 0 0.03453,-0.01 1.0001,1.0001 0 0 0 0.06215,-0.015 1.0001,1.0001 0 0 0 0.06629,-0.019 1.0001,1.0001 0 0 0 0.01519,-0.01 1.0001,1.0001 0 0 0 0.06353,-0.025 1.0001,1.0001 0 0 0 0.01519,-0.01 1.0001,1.0001 0 0 0 0.01796,-0.01 1.0001,1.0001 0 0 0 0.04281,-0.024 1.0001,1.0001 0 0 0 0.02762,-0.014 l 7.071068,-4.2426 a 1.0001,1.0001 0 0 0 0.171252,-0.1299 1.0001,1.0001 0 0 0 0.02072,-1.4349 l -1.414213,-1.4142 z" baseline-shift="baseline" clip-rule="nonzero" color="#000" color-interpolation="sRGB" color-interpolation-filters="linearRGB" color-rendering="auto" direction="ltr" display="inline" enable-background="accumulate" font-family="sans-serif" font-size="medium" font-stretch="normal" font-style="normal" font-variant="normal" font-weight="normal" image-rendering="auto" letter-spacing="normal" opacity="1" overflow="visible" shape-rendering="auto" text-anchor="start" text-decoration="none" text-rendering="auto" visibility="visible" word-spacing="normal" writing-mode="lr-tb" style="line-height:normal;text-indent:0;text-align:start;text-decoration-line:none;text-decoration-style:solid;text-decoration-color:#000;text-transform:none;block-progression:tb;white-space:normal;isolation:auto;mix-blend-mode:normal;solid-color:#000;solid-opacity:1"/><circle id="circle4200" cx="16" cy="1039.362" r="3" fill="url(#radialGradient4204)" fill-opacity="1" stroke="none" stroke-dasharray="none" stroke-linecap="round" stroke-linejoin="round" stroke-miterlimit="4" stroke-opacity="1" stroke-width="2" opacity="1"/><circle id="circle4188" cx="16" cy="1038.362" r="3" fill="#e1f5fe" fill-opacity="1" stroke="none" stroke-dasharray="none" stroke-linecap="round" stroke-linejoin="round" stroke-miterlimit="4" stroke-opacity="1" stroke-width="2" opacity="1"/><path id="path4206" fill="#e1f5fe" fill-opacity="1" fill-rule="evenodd" stroke="none" stroke-linecap="butt" stroke-linejoin="miter" stroke-opacity="1" stroke-width="1" d="m 12,1034.3622 1,4 2,0 1,-3 z"/><path id="path4208" fill="#e1f5fe" fill-opacity="1" fill-rule="evenodd" stroke="none" stroke-linecap="butt" stroke-linejoin="miter" stroke-opacity="1" stroke-width="1" d="m 20,1042.3622 -1,-4 -2,0 -1,3 z"/><circle id="circle4190" cx="16" cy="1038.362" r="2" fill="#b3e5fc" fill-opacity="1" stroke="none" stroke-dasharray="none" stroke-linecap="round" stroke-linejoin="round" stroke-miterlimit="4" stroke-opacity="1" stroke-width="2" opacity="1"/></g></svg>