<svg xmlns="http://www.w3.org/2000/svg" xmlns:svg="http://www.w3.org/2000/svg" xmlns:xlink="http://www.w3.org/1999/xlink" id="svg2" width="64" height="64" version="1.1" viewBox="0 0 64 64"><defs id="defs4"><linearGradient id="linearGradient4226"><stop id="stop4228" offset="0" stop-color="#000" stop-opacity=".196"/><stop id="stop4232" offset=".8" stop-color="#000" stop-opacity=".31"/><stop id="stop4230" offset="1" stop-color="#000" stop-opacity="0"/></linearGradient><radialGradient id="radialGradient4259" cx="4" cy="42.5" r="1.5" fx="4" fy="42.5" gradientTransform="matrix(-2.0000003,-2.935184e-6,3.9135795e-6,-2.6666677,21.99984,1228.853)" gradientUnits="userSpaceOnUse" xlink:href="#Shadow"/><linearGradient id="Shadow"><stop id="stop4186" offset="0" stop-color="#000" stop-opacity="1"/><stop id="stop4188" offset="1" stop-color="#000" stop-opacity="0"/></linearGradient><linearGradient id="linearGradient4257" x1="24" x2="24" y1="42" y2="46" gradientTransform="translate(9,1073.5196)" gradientUnits="userSpaceOnUse" xlink:href="#Shadow"/><radialGradient id="radialGradient4255" cx="44" cy="42.5" r="1.5" fx="44" fy="42.5" gradientTransform="matrix(-5.6193702e-6,2.666668,-2.0000002,-4.214526e-6,135.00027,998.1864)" gradientUnits="userSpaceOnUse" xlink:href="#Shadow"/><linearGradient id="linearGradient4224" x1="32" x2="32" y1="1099.52" y2="1109.52" gradientTransform="translate(0,-4)" gradientUnits="userSpaceOnUse" xlink:href="#linearGradient4226"/></defs><metadata id="metadata7"/><g id="layer1" transform="translate(0,-1058.5196)"><path id="path4249" fill="url(#radialGradient4255)" fill-opacity="1" stroke="none" stroke-dasharray="none" stroke-linecap="butt" stroke-linejoin="round" stroke-miterlimit="4" stroke-opacity="1" stroke-width="2" d="m 50,1115.5196 0,4 1,0 c 1.108,0 2,-0.892 2,-2 l 0,-2 -3,0 z" opacity=".7"/><path id="path4251" fill="url(#linearGradient4257)" fill-opacity="1" stroke="none" stroke-dasharray="none" stroke-linecap="butt" stroke-linejoin="round" stroke-miterlimit="4" stroke-opacity="1" stroke-width="2" d="m 14,1115.5196 0,4 36,0 0,-4 z" opacity=".7"/><path id="path4253" fill="url(#radialGradient4259)" fill-opacity="1" stroke="none" stroke-dasharray="none" stroke-linecap="butt" stroke-linejoin="round" stroke-miterlimit="4" stroke-opacity="1" stroke-width="2" d="m 11,1115.5196 0,2 c 0,1.108 0.892,2 2,2 l 1,0 0,-4 -3,0 z" opacity=".7"/><rect id="rect4182" width="42" height="40" x="11" y="1077.52" fill="#ffc107" fill-opacity="1" stroke="none" stroke-dasharray="none" stroke-linecap="butt" stroke-linejoin="round" stroke-miterlimit="4" stroke-opacity="1" stroke-width="2" opacity="1" ry="3"/><rect id="rect4258" width="40" height="38" x="12" y="1078.52" fill="#ffca28" fill-opacity="1" stroke="none" stroke-dasharray="none" stroke-linecap="butt" stroke-linejoin="round" stroke-miterlimit="4" stroke-opacity="1" stroke-width="2" opacity="1" ry="2"/><path id="rect4211" fill="#ffa000" fill-opacity="1" stroke="none" stroke-dasharray="none" stroke-linecap="round" stroke-linejoin="round" stroke-miterlimit="4" stroke-opacity="1" stroke-width="2" d="m 29,1078.5196 0,3 0,13 c 0,1.662 1.338028,3 3,3 1.661972,0 3,-1.338 3,-3 l 0,-13 0,-3 -3,0 z" opacity="1"/><rect id="rect4164" width="5" height="5" x="-7" y="1058.52" fill="#ffd54f" fill-opacity="1" fill-rule="nonzero" stroke="none" stroke-dasharray="none" stroke-dashoffset="0" stroke-linecap="butt" stroke-linejoin="miter" stroke-miterlimit="4" stroke-opacity="1" stroke-width="1" clip-rule="nonzero" color="#000" color-interpolation="sRGB" color-interpolation-filters="linearRGB" color-rendering="auto" display="inline" enable-background="accumulate" image-rendering="auto" opacity="1" overflow="visible" shape-rendering="auto" text-rendering="auto" visibility="visible" style="isolation:auto;mix-blend-mode:normal;solid-color:#000;solid-opacity:1"/><path id="rect4168" fill="#ffd54f" fill-opacity="1" stroke="none" stroke-dasharray="none" stroke-linecap="round" stroke-linejoin="round" stroke-miterlimit="4" stroke-opacity="1" stroke-width="2" d="m 30,1078.5196 0,2 0,14 c 0,1.108 0.892,2 2,2 1.108,0 2,-0.892 2,-2 l 0,-14 0,-2 -2,0 z" opacity="1"/><rect id="rect4175" width="5" height="5" x="-15" y="1058.52" fill="#eee" fill-opacity="1" fill-rule="nonzero" stroke="none" stroke-dasharray="none" stroke-dashoffset="0" stroke-linecap="butt" stroke-linejoin="miter" stroke-miterlimit="4" stroke-opacity="1" stroke-width="1" clip-rule="nonzero" color="#000" color-interpolation="sRGB" color-interpolation-filters="linearRGB" color-rendering="auto" display="inline" enable-background="accumulate" image-rendering="auto" opacity="1" overflow="visible" shape-rendering="auto" text-rendering="auto" visibility="visible" style="isolation:auto;mix-blend-mode:normal;solid-color:#000;solid-opacity:1"/><path id="path4216" fill="url(#linearGradient4224)" fill-opacity="1" stroke="none" stroke-dasharray="none" stroke-linecap="round" stroke-linejoin="round" stroke-miterlimit="4" stroke-opacity="1" stroke-width="2" d="m 32,1095.5196 a 2,2 0 0 0 -2,2 l 0,6 a 2,2 0 0 0 2,2 2,2 0 0 0 2,-2 l 0,-6 a 2,2 0 0 0 -2,-2 z m 0,7 a 1,1 0 0 1 1,1 1,1 0 0 1 -1,1 1,1 0 0 1 -1,-1 1,1 0 0 1 1,-1 z" opacity="1"/><path id="path4185" fill="#eee" fill-opacity="1" stroke="none" stroke-dasharray="none" stroke-linecap="round" stroke-linejoin="round" stroke-miterlimit="4" stroke-opacity="1" stroke-width="2" d="m 32,1094.5196 a 2,2 0 0 0 -2,2 l 0,6 a 2,2 0 0 0 2,2 2,2 0 0 0 2,-2 l 0,-6 a 2,2 0 0 0 -2,-2 z m 0,7 a 1,1 0 0 1 1,1 1,1 0 0 1 -1,1 1,1 0 0 1 -1,-1 1,1 0 0 1 1,-1 z" opacity="1"/><rect id="rect4195" width="2" height="2" x="32" y="1078.52" fill="#eee" fill-opacity="1" stroke="none" stroke-dasharray="none" stroke-linecap="round" stroke-linejoin="round" stroke-miterlimit="4" stroke-opacity="1" stroke-width="2" opacity="1"/><rect id="rect4197" width="2" height="2" x="30" y="1080.52" fill="#eee" fill-opacity="1" stroke="none" stroke-dasharray="none" stroke-linecap="round" stroke-linejoin="round" stroke-miterlimit="4" stroke-opacity="1" stroke-width="2" opacity="1"/><rect id="rect4199" width="2" height="2" x="32" y="1082.52" fill="#eee" fill-opacity="1" stroke="none" stroke-dasharray="none" stroke-linecap="round" stroke-linejoin="round" stroke-miterlimit="4" stroke-opacity="1" stroke-width="2" opacity="1"/><rect id="rect4201" width="2" height="2" x="30" y="1084.52" fill="#eee" fill-opacity="1" stroke="none" stroke-dasharray="none" stroke-linecap="round" stroke-linejoin="round" stroke-miterlimit="4" stroke-opacity="1" stroke-width="2" opacity="1"/><rect id="rect4203" width="2" height="2" x="32" y="1086.52" fill="#eee" fill-opacity="1" stroke="none" stroke-dasharray="none" stroke-linecap="round" stroke-linejoin="round" stroke-miterlimit="4" stroke-opacity="1" stroke-width="2" opacity="1"/><rect id="rect4205" width="2" height="2" x="30" y="1088.52" fill="#eee" fill-opacity="1" stroke="none" stroke-dasharray="none" stroke-linecap="round" stroke-linejoin="round" stroke-miterlimit="4" stroke-opacity="1" stroke-width="2" opacity="1"/><rect id="rect4207" width="2" height="2" x="32" y="1090.52" fill="#eee" fill-opacity="1" stroke="none" stroke-dasharray="none" stroke-linecap="round" stroke-linejoin="round" stroke-miterlimit="4" stroke-opacity="1" stroke-width="2" opacity="1"/><rect id="rect4209" width="2" height="2" x="30" y="1092.52" fill="#eee" fill-opacity="1" stroke="none" stroke-dasharray="none" stroke-linecap="round" stroke-linejoin="round" stroke-miterlimit="4" stroke-opacity="1" stroke-width="2" opacity="1"/><rect id="rect4176" width="5" height="5" x="-7" y="1066.52" fill="#ffca28" fill-opacity="1" fill-rule="nonzero" stroke="none" stroke-dasharray="none" stroke-dashoffset="0" stroke-linecap="butt" stroke-linejoin="miter" stroke-miterlimit="4" stroke-opacity="1" stroke-width="1" clip-rule="nonzero" color="#000" color-interpolation="sRGB" color-interpolation-filters="linearRGB" color-rendering="auto" display="inline" enable-background="accumulate" image-rendering="auto" opacity="1" overflow="visible" shape-rendering="auto" text-rendering="auto" visibility="visible" style="isolation:auto;mix-blend-mode:normal;solid-color:#000;solid-opacity:1"/><rect id="rect4180" width="5" height="5" x="-7" y="1074.52" fill="#ffc107" fill-opacity="1" fill-rule="nonzero" stroke="none" stroke-dasharray="none" stroke-dashoffset="0" stroke-linecap="butt" stroke-linejoin="miter" stroke-miterlimit="4" stroke-opacity="1" stroke-width="1" clip-rule="nonzero" color="#000" color-interpolation="sRGB" color-interpolation-filters="linearRGB" color-rendering="auto" display="inline" enable-background="accumulate" image-rendering="auto" opacity="1" overflow="visible" shape-rendering="auto" text-rendering="auto" visibility="visible" style="isolation:auto;mix-blend-mode:normal;solid-color:#000;solid-opacity:1"/><rect id="rect4183" width="5" height="5" x="-7" y="1082.52" fill="#ffa000" fill-opacity="1" fill-rule="nonzero" stroke="none" stroke-dasharray="none" stroke-dashoffset="0" stroke-linecap="butt" stroke-linejoin="miter" stroke-miterlimit="4" stroke-opacity="1" stroke-width="1" clip-rule="nonzero" color="#000" color-interpolation="sRGB" color-interpolation-filters="linearRGB" color-rendering="auto" display="inline" enable-background="accumulate" image-rendering="auto" opacity="1" overflow="visible" shape-rendering="auto" text-rendering="auto" visibility="visible" style="isolation:auto;mix-blend-mode:normal;solid-color:#000;solid-opacity:1"/><rect id="rect4222" width="5" height="5" x="-23" y="1058.52" fill="#9d7800" fill-opacity="1" fill-rule="nonzero" stroke="none" stroke-dasharray="none" stroke-dashoffset="0" stroke-linecap="butt" stroke-linejoin="miter" stroke-miterlimit="4" stroke-opacity="1" stroke-width="1" clip-rule="nonzero" color="#000" color-interpolation="sRGB" color-interpolation-filters="linearRGB" color-rendering="auto" display="inline" enable-background="accumulate" image-rendering="auto" opacity="1" overflow="visible" shape-rendering="auto" text-rendering="auto" visibility="visible" style="isolation:auto;mix-blend-mode:normal;solid-color:#000;solid-opacity:1"/><path id="rect4178" fill="#9d7800" fill-opacity="1" stroke="none" stroke-dasharray="none" stroke-linecap="round" stroke-linejoin="round" stroke-miterlimit="4" stroke-opacity="1" stroke-width="2" d="M 30 49 L 30 51 L 32 51 L 32 56 L 34 56 L 34 51 L 36 51 L 36 49 L 30 49 z M 40 49 C 38.338 49 37 50.338 37 52 L 37 53 L 37 56 L 39 56 L 39 55.818359 L 39 54 L 41 54 L 41 55.818359 L 41 56 L 43 56 L 43 53 L 43 52 C 43 50.338 41.662 49 40 49 z M 44 49 L 44 56 L 46 56 L 46 54 L 46.367188 54 L 47.523438 56 L 49.832031 56 L 48.617188 53.894531 C 49.419262 53.634395 50 52.890973 50 52 L 50 51 C 50 49.892 49.108 49 48 49 L 46 49 L 44 49 z M 40 51 C 40.554 51 41 51.446 41 52 L 39 52 C 39 51.446 39.446 51 40 51 z M 46 51 L 48 51 L 48 52 L 46 52 L 46 51 z" opacity="1" transform="translate(0,1058.5196)"/></g></svg>