<svg xmlns="http://www.w3.org/2000/svg" xmlns:svg="http://www.w3.org/2000/svg" xmlns:xlink="http://www.w3.org/1999/xlink" id="svg2" width="64" height="64" version="1.1" viewBox="0 0 64 64"><defs id="defs4"><linearGradient id="linearGradient4159"><stop id="stop4161" offset="0" stop-color="#000" stop-opacity=".196"/><stop id="stop4163" offset="1" stop-color="#000" stop-opacity="0"/></linearGradient><radialGradient id="radialGradient4259" cx="4" cy="42.5" r="1.5" fx="4" fy="42.5" gradientTransform="matrix(-2.0000003,-2.935184e-6,3.9135795e-6,-2.6666677,21.99984,1228.853)" gradientUnits="userSpaceOnUse" xlink:href="#Shadow"/><linearGradient id="Shadow"><stop id="stop4186" offset="0" stop-color="#000" stop-opacity="1"/><stop id="stop4188" offset="1" stop-color="#000" stop-opacity="0"/></linearGradient><linearGradient id="linearGradient4257" x1="24" x2="24" y1="42" y2="46" gradientTransform="translate(9,1073.5196)" gradientUnits="userSpaceOnUse" xlink:href="#Shadow"/><radialGradient id="radialGradient4255" cx="44" cy="42.5" r="1.5" fx="44" fy="42.5" gradientTransform="matrix(-5.6193702e-6,2.666668,-2.0000002,-4.214526e-6,135.00027,998.1864)" gradientUnits="userSpaceOnUse" xlink:href="#Shadow"/><linearGradient id="linearGradient4165" x1="32" x2="32" y1="1082.52" y2="1100.52" gradientUnits="userSpaceOnUse" xlink:href="#linearGradient4159"/></defs><metadata id="metadata7"/><g id="layer1" transform="translate(0,-1058.5196)"><rect id="rect4304" width="5" height="5" x="-7" y="1066.52" fill="#43a047" fill-opacity="1" fill-rule="nonzero" stroke="none" stroke-dasharray="none" stroke-dashoffset="0" stroke-linecap="butt" stroke-linejoin="miter" stroke-miterlimit="4" stroke-opacity="1" stroke-width="1" clip-rule="nonzero" color="#000" color-interpolation="sRGB" color-interpolation-filters="linearRGB" color-rendering="auto" display="inline" enable-background="accumulate" image-rendering="auto" opacity="1" overflow="visible" shape-rendering="auto" text-rendering="auto" visibility="visible" style="isolation:auto;mix-blend-mode:normal;solid-color:#000;solid-opacity:1"/><rect id="rect4306" width="5" height="5" x="-7" y="1074.52" fill="#388e3c" fill-opacity="1" fill-rule="nonzero" stroke="none" stroke-dasharray="none" stroke-dashoffset="0" stroke-linecap="butt" stroke-linejoin="miter" stroke-miterlimit="4" stroke-opacity="1" stroke-width="1" clip-rule="nonzero" color="#000" color-interpolation="sRGB" color-interpolation-filters="linearRGB" color-rendering="auto" display="inline" enable-background="accumulate" image-rendering="auto" opacity="1" overflow="visible" shape-rendering="auto" text-rendering="auto" visibility="visible" style="isolation:auto;mix-blend-mode:normal;solid-color:#000;solid-opacity:1"/><path id="path4249" fill="url(#radialGradient4255)" fill-opacity="1" stroke="none" stroke-dasharray="none" stroke-linecap="butt" stroke-linejoin="round" stroke-miterlimit="4" stroke-opacity="1" stroke-width="2" d="m 50,1115.5196 0,4 1,0 c 1.108,0 2,-0.892 2,-2 l 0,-2 -3,0 z" opacity=".7"/><path id="path4251" fill="url(#linearGradient4257)" fill-opacity="1" stroke="none" stroke-dasharray="none" stroke-linecap="butt" stroke-linejoin="round" stroke-miterlimit="4" stroke-opacity="1" stroke-width="2" d="m 14,1115.5196 0,4 36,0 0,-4 z" opacity=".7"/><path id="path4253" fill="url(#radialGradient4259)" fill-opacity="1" stroke="none" stroke-dasharray="none" stroke-linecap="butt" stroke-linejoin="round" stroke-miterlimit="4" stroke-opacity="1" stroke-width="2" d="m 11,1115.5196 0,2 c 0,1.108 0.892,2 2,2 l 1,0 0,-4 -3,0 z" opacity=".7"/><rect id="rect4182" width="42" height="53" x="11" y="1064.52" fill="#388e3c" fill-opacity="1" stroke="none" stroke-dasharray="none" stroke-linecap="butt" stroke-linejoin="round" stroke-miterlimit="4" stroke-opacity="1" stroke-width="2" opacity="1" ry="3"/><rect id="rect4258" width="40" height="51" x="12" y="1065.52" fill="#43a047" fill-opacity="1" stroke="none" stroke-dasharray="none" stroke-linecap="butt" stroke-linejoin="round" stroke-miterlimit="4" stroke-opacity="1" stroke-width="2" opacity="1" ry="2"/><rect id="rect4156" width="5" height="5" x="-7" y="1058.52" fill="#c8e6c9" fill-opacity="1" fill-rule="nonzero" stroke="none" stroke-dasharray="none" stroke-dashoffset="0" stroke-linecap="butt" stroke-linejoin="miter" stroke-miterlimit="4" stroke-opacity="1" stroke-width="1" clip-rule="nonzero" color="#000" color-interpolation="sRGB" color-interpolation-filters="linearRGB" color-rendering="auto" display="inline" enable-background="accumulate" image-rendering="auto" opacity="1" overflow="visible" shape-rendering="auto" text-rendering="auto" visibility="visible" style="isolation:auto;mix-blend-mode:normal;solid-color:#000;solid-opacity:1"/><path id="path4157" fill="url(#linearGradient4165)" fill-opacity="1" stroke="none" stroke-dasharray="none" stroke-linecap="butt" stroke-linejoin="round" stroke-miterlimit="4" stroke-opacity="1" stroke-width="2" d="m 26.9375,1082.5196 c -2.735375,0 -4.9375,2.2021 -4.9375,4.9375 l 0,0.125 c 0,2.7354 2.202125,4.9375 4.9375,4.9375 l 5.0625,0 5,0 c 1.661985,0 3,1.338 3,3 0,1.662 -1.338015,3 -3,3 l -5,0 -1,0 -8,0 c -0.554,0 -1,0.446 -1,1 0,0.554 0.446,1 1,1 l 8,0 1,0 5.0625,0 c 2.735375,0 4.9375,-2.2021 4.9375,-4.9375 l 0,-0.125 c 0,-1.6199 -0.784456,-3.0382 -1.982422,-3.9375 -0.824949,-0.6193 -1.839586,-1 -2.955078,-1 l -5.0625,0 -5,0 c -1.661985,0 -3,-1.338 -3,-3 0,-1.662 1.338015,-3 3,-3 l 4,0 1,0 1,0 8,0 c 0.554,0 1,-0.446 1,-1 0,-0.554 -0.446,-1 -1,-1 l -8,0 -1,0 -1,0 -4.0625,0 z" opacity="1"/><path id="rect4167" fill="#c8e6c9" fill-opacity="1" stroke="none" stroke-dasharray="none" stroke-linecap="butt" stroke-linejoin="round" stroke-miterlimit="4" stroke-opacity="1" stroke-width="2" d="M 26.9375 23 C 24.202125 23 22 25.202125 22 27.9375 L 22 28.0625 C 22 30.797875 24.202125 33 26.9375 33 L 32 33 L 37 33 C 38.661985 33 40 34.338 40 36 C 40 37.662 38.661985 39 37 39 L 32 39 L 31 39 L 23 39 C 22.446 39 22 39.446 22 40 C 22 40.554 22.446 41 23 41 L 31 41 L 32 41 L 37.0625 41 C 39.797875 41 42 38.7979 42 36.0625 L 42 35.9375 C 42 34.317602 41.215544 32.899262 40.017578 32 C 39.192629 31.380745 38.177992 31 37.0625 31 L 32 31 L 27 31 C 25.338015 31 24 29.661985 24 28 C 24 26.338015 25.338015 25 27 25 L 31 25 L 32 25 L 33 25 L 41 25 C 41.554 25 42 24.554 42 24 C 42 23.446 41.554 23 41 23 L 33 23 L 32 23 L 31 23 L 26.9375 23 z" opacity="1" transform="translate(0,1058.5196)"/></g></svg>