<svg xmlns="http://www.w3.org/2000/svg" xmlns:svg="http://www.w3.org/2000/svg" xmlns:xlink="http://www.w3.org/1999/xlink" id="svg2" width="64" height="64" version="1.1" viewBox="0 0 64 64"><defs id="defs4"><linearGradient id="linearGradient4228"><stop id="stop4230" offset="0" stop-color="#000" stop-opacity=".196"/><stop id="stop4240" offset=".7" stop-color="#000" stop-opacity=".196"/><stop id="stop4238" offset=".8" stop-color="#000" stop-opacity=".118"/><stop id="stop4236" offset=".9" stop-color="#000" stop-opacity=".31"/><stop id="stop4232" offset="1" stop-color="#000" stop-opacity="0"/></linearGradient><radialGradient id="radialGradient4259" cx="4" cy="42.5" r="1.5" fx="4" fy="42.5" gradientTransform="matrix(-2.0000003,-2.935184e-6,3.9135795e-6,-2.6666677,21.99984,1228.853)" gradientUnits="userSpaceOnUse" xlink:href="#Shadow"/><linearGradient id="Shadow"><stop id="stop4186" offset="0" stop-color="#000" stop-opacity="1"/><stop id="stop4188" offset="1" stop-color="#000" stop-opacity="0"/></linearGradient><linearGradient id="linearGradient4257" x1="24" x2="24" y1="42" y2="46" gradientTransform="translate(9,1073.5196)" gradientUnits="userSpaceOnUse" xlink:href="#Shadow"/><radialGradient id="radialGradient4255" cx="44" cy="42.5" r="1.5" fx="44" fy="42.5" gradientTransform="matrix(-5.6193702e-6,2.666668,-2.0000002,-4.214526e-6,135.00027,998.1864)" gradientUnits="userSpaceOnUse" xlink:href="#Shadow"/><linearGradient id="linearGradient4234" x1="20" x2="20" y1="1070.52" y2="1080.52" gradientUnits="userSpaceOnUse" xlink:href="#linearGradient4228"/></defs><metadata id="metadata7"/><g id="layer1" transform="translate(0,-1058.5196)"><rect id="rect4304" width="5" height="5" x="-7" y="1066.52" fill="#455a64" fill-opacity="1" fill-rule="nonzero" stroke="none" stroke-dasharray="none" stroke-dashoffset="0" stroke-linecap="butt" stroke-linejoin="miter" stroke-miterlimit="4" stroke-opacity="1" stroke-width="1" clip-rule="nonzero" color="#000" color-interpolation="sRGB" color-interpolation-filters="linearRGB" color-rendering="auto" display="inline" enable-background="accumulate" image-rendering="auto" opacity="1" overflow="visible" shape-rendering="auto" text-rendering="auto" visibility="visible" style="isolation:auto;mix-blend-mode:normal;solid-color:#000;solid-opacity:1"/><rect id="rect4306" width="5" height="5" x="-7" y="1074.52" fill="#37474f" fill-opacity="1" fill-rule="nonzero" stroke="none" stroke-dasharray="none" stroke-dashoffset="0" stroke-linecap="butt" stroke-linejoin="miter" stroke-miterlimit="4" stroke-opacity="1" stroke-width="1" clip-rule="nonzero" color="#000" color-interpolation="sRGB" color-interpolation-filters="linearRGB" color-rendering="auto" display="inline" enable-background="accumulate" image-rendering="auto" opacity="1" overflow="visible" shape-rendering="auto" text-rendering="auto" visibility="visible" style="isolation:auto;mix-blend-mode:normal;solid-color:#000;solid-opacity:1"/><path id="path4249" fill="url(#radialGradient4255)" fill-opacity="1" stroke="none" stroke-dasharray="none" stroke-linecap="butt" stroke-linejoin="round" stroke-miterlimit="4" stroke-opacity="1" stroke-width="2" d="m 50,1115.5196 0,4 1,0 c 1.108,0 2,-0.892 2,-2 l 0,-2 -3,0 z" opacity=".7"/><path id="path4251" fill="url(#linearGradient4257)" fill-opacity="1" stroke="none" stroke-dasharray="none" stroke-linecap="butt" stroke-linejoin="round" stroke-miterlimit="4" stroke-opacity="1" stroke-width="2" d="m 14,1115.5196 0,4 36,0 0,-4 z" opacity=".7"/><path id="path4253" fill="url(#radialGradient4259)" fill-opacity="1" stroke="none" stroke-dasharray="none" stroke-linecap="butt" stroke-linejoin="round" stroke-miterlimit="4" stroke-opacity="1" stroke-width="2" d="m 11,1115.5196 0,2 c 0,1.108 0.892,2 2,2 l 1,0 0,-4 -3,0 z" opacity=".7"/><rect id="rect4182" width="42" height="53" x="11" y="1064.52" fill="#37474f" fill-opacity="1" stroke="none" stroke-dasharray="none" stroke-linecap="butt" stroke-linejoin="round" stroke-miterlimit="4" stroke-opacity="1" stroke-width="2" opacity="1" ry="3"/><rect id="rect4258" width="40" height="51" x="12" y="1065.52" fill="#455a64" fill-opacity="1" stroke="none" stroke-dasharray="none" stroke-linecap="butt" stroke-linejoin="round" stroke-miterlimit="4" stroke-opacity="1" stroke-width="2" opacity="1" ry="2"/><rect id="rect4156" width="5" height="5" x="-7" y="1058.52" fill="#b0bec5" fill-opacity="1" fill-rule="nonzero" stroke="none" stroke-dasharray="none" stroke-dashoffset="0" stroke-linecap="butt" stroke-linejoin="miter" stroke-miterlimit="4" stroke-opacity="1" stroke-width="1" clip-rule="nonzero" color="#000" color-interpolation="sRGB" color-interpolation-filters="linearRGB" color-rendering="auto" display="inline" enable-background="accumulate" image-rendering="auto" opacity="1" overflow="visible" shape-rendering="auto" text-rendering="auto" visibility="visible" style="isolation:auto;mix-blend-mode:normal;solid-color:#000;solid-opacity:1"/><path id="path4226" fill="url(#linearGradient4234)" fill-opacity="1" stroke="none" stroke-dasharray="none" stroke-linecap="round" stroke-linejoin="round" stroke-miterlimit="4" stroke-opacity="1" stroke-width="2" d="m 17,1070.5196 0,2 -2,0 0,2 2,0 0,2 -2,0 0,2 2,0 0,2 2,0 0,-2 2,0 0,2 2,0 0,-2 2,0 0,-2 -2,0 0,-2 2,0 0,-2 -2,0 0,-2 -2,0 0,2 -2,0 0,-2 -2,0 z m 10,0 0,7 2,0 0,-7 -2,0 z m -8,4 2,0 0,2 -2,0 0,-2 z m 8,4 0,2 2,0 0,-2 -2,0 z" opacity="1"/><path id="rect4183" fill="#b0bec5" fill-opacity="1" stroke="none" stroke-dasharray="none" stroke-linecap="round" stroke-linejoin="round" stroke-miterlimit="4" stroke-opacity="1" stroke-width="2" d="m 17,1069.5196 0,2 -2,0 0,2 2,0 0,2 -2,0 0,2 2,0 0,2 2,0 0,-2 2,0 0,2 2,0 0,-2 2,0 0,-2 -2,0 0,-2 2,0 0,-2 -2,0 0,-2 -2,0 0,2 -2,0 0,-2 -2,0 z m 10,0 0,7 2,0 0,-7 -2,0 z m -8,4 2,0 0,2 -2,0 0,-2 z m 8,4 0,2 2,0 0,-2 -2,0 z" opacity="1"/></g></svg>