<svg xmlns="http://www.w3.org/2000/svg" xmlns:svg="http://www.w3.org/2000/svg" xmlns:xlink="http://www.w3.org/1999/xlink" id="svg2" width="64" height="64" version="1.1" viewBox="0 0 64 64"><defs id="defs4"><linearGradient id="linearGradient4349"><stop id="stop4351" offset="0" stop-color="#000" stop-opacity=".196"/><stop id="stop4353" offset=".867" stop-color="#000" stop-opacity=".196"/><stop id="stop4355" offset="1" stop-color="#000" stop-opacity="0"/></linearGradient><linearGradient id="linearGradient4269"><stop id="stop4271" offset="0" stop-color="#000" stop-opacity=".196"/><stop id="stop4277" offset=".941" stop-color="#000" stop-opacity=".196"/><stop id="stop4273" offset="1" stop-color="#000" stop-opacity="0"/></linearGradient><radialGradient id="radialGradient4259" cx="4" cy="42.5" r="1.5" fx="4" fy="42.5" gradientTransform="matrix(-2.0000003,-2.935184e-6,3.9135795e-6,-2.6666677,21.99984,1228.853)" gradientUnits="userSpaceOnUse" xlink:href="#Shadow"/><linearGradient id="Shadow"><stop id="stop4186" offset="0" stop-color="#000" stop-opacity="1"/><stop id="stop4188" offset="1" stop-color="#000" stop-opacity="0"/></linearGradient><linearGradient id="linearGradient4257" x1="24" x2="24" y1="42" y2="46" gradientTransform="translate(9,1073.5196)" gradientUnits="userSpaceOnUse" xlink:href="#Shadow"/><radialGradient id="radialGradient4255" cx="44" cy="42.5" r="1.5" fx="44" fy="42.5" gradientTransform="matrix(-5.6193702e-6,2.666668,-2.0000002,-4.214526e-6,135.00027,998.1864)" gradientUnits="userSpaceOnUse" xlink:href="#Shadow"/><linearGradient id="linearGradient4275" x1="43" x2="43" y1="1096.52" y2="1113.52" gradientTransform="translate(40,0)" gradientUnits="userSpaceOnUse" xlink:href="#linearGradient4269"/><linearGradient id="linearGradient4202" x1="42" x2="42" y1="1098.52" y2="1113.52" gradientUnits="userSpaceOnUse" xlink:href="#linearGradient4349"/></defs><metadata id="metadata7"/><g id="layer1" transform="translate(0,-1058.5196)"><rect id="rect4304" width="5" height="5" x="-7" y="1058.52" fill="#78909c" fill-opacity="1" fill-rule="nonzero" stroke="none" stroke-dasharray="none" stroke-dashoffset="0" stroke-linecap="butt" stroke-linejoin="miter" stroke-miterlimit="4" stroke-opacity="1" stroke-width="1" clip-rule="nonzero" color="#000" color-interpolation="sRGB" color-interpolation-filters="linearRGB" color-rendering="auto" display="inline" enable-background="accumulate" image-rendering="auto" opacity="1" overflow="visible" shape-rendering="auto" text-rendering="auto" visibility="visible" style="isolation:auto;mix-blend-mode:normal;solid-color:#000;solid-opacity:1"/><rect id="rect4306" width="5" height="5" x="-7" y="1074.52" fill="#263238" fill-opacity="1" fill-rule="nonzero" stroke="none" stroke-dasharray="none" stroke-dashoffset="0" stroke-linecap="butt" stroke-linejoin="miter" stroke-miterlimit="4" stroke-opacity="1" stroke-width="1" clip-rule="nonzero" color="#000" color-interpolation="sRGB" color-interpolation-filters="linearRGB" color-rendering="auto" display="inline" enable-background="accumulate" image-rendering="auto" opacity="1" overflow="visible" shape-rendering="auto" text-rendering="auto" visibility="visible" style="isolation:auto;mix-blend-mode:normal;solid-color:#000;solid-opacity:1"/><path id="path4249" fill="url(#radialGradient4255)" fill-opacity="1" stroke="none" stroke-dasharray="none" stroke-linecap="butt" stroke-linejoin="round" stroke-miterlimit="4" stroke-opacity="1" stroke-width="2" d="m 50,1115.5196 0,4 1,0 c 1.108,0 2,-0.892 2,-2 l 0,-2 -3,0 z" opacity=".7"/><path id="path4251" fill="url(#linearGradient4257)" fill-opacity="1" stroke="none" stroke-dasharray="none" stroke-linecap="butt" stroke-linejoin="round" stroke-miterlimit="4" stroke-opacity="1" stroke-width="2" d="m 14,1115.5196 0,4 36,0 0,-4 z" opacity=".7"/><path id="path4253" fill="url(#radialGradient4259)" fill-opacity="1" stroke="none" stroke-dasharray="none" stroke-linecap="butt" stroke-linejoin="round" stroke-miterlimit="4" stroke-opacity="1" stroke-width="2" d="m 11,1115.5196 0,2 c 0,1.108 0.892,2 2,2 l 1,0 0,-4 -3,0 z" opacity=".7"/><rect id="rect4182" width="42" height="53" x="11" y="1064.52" fill="#263238" fill-opacity="1" stroke="none" stroke-dasharray="none" stroke-linecap="butt" stroke-linejoin="round" stroke-miterlimit="4" stroke-opacity="1" stroke-width="2" opacity="1" ry="3"/><rect id="rect4258" width="40" height="51" x="12" y="1065.52" fill="#37474f" fill-opacity="1" stroke="none" stroke-dasharray="none" stroke-linecap="butt" stroke-linejoin="round" stroke-miterlimit="4" stroke-opacity="1" stroke-width="2" opacity="1" ry="2"/><rect id="rect4160" width="5" height="5" x="-15" y="1058.52" fill="#ec407a" fill-opacity="1" fill-rule="nonzero" stroke="none" stroke-dasharray="none" stroke-dashoffset="0" stroke-linecap="butt" stroke-linejoin="miter" stroke-miterlimit="4" stroke-opacity="1" stroke-width="1" clip-rule="nonzero" color="#000" color-interpolation="sRGB" color-interpolation-filters="linearRGB" color-rendering="auto" display="inline" enable-background="accumulate" image-rendering="auto" opacity="1" overflow="visible" shape-rendering="auto" text-rendering="auto" visibility="visible" style="isolation:auto;mix-blend-mode:normal;solid-color:#000;solid-opacity:1"/><rect id="rect4162" width="5" height="5" x="-23" y="1058.52" fill="#42a5f5" fill-opacity="1" fill-rule="nonzero" stroke="none" stroke-dasharray="none" stroke-dashoffset="0" stroke-linecap="butt" stroke-linejoin="miter" stroke-miterlimit="4" stroke-opacity="1" stroke-width="1" clip-rule="nonzero" color="#000" color-interpolation="sRGB" color-interpolation-filters="linearRGB" color-rendering="auto" display="inline" enable-background="accumulate" image-rendering="auto" opacity="1" overflow="visible" shape-rendering="auto" text-rendering="auto" visibility="visible" style="isolation:auto;mix-blend-mode:normal;solid-color:#000;solid-opacity:1"/><rect id="rect4164" width="9" height="2" x="16" y="1070.52" fill="#78909c" fill-opacity="1" stroke="none" stroke-dasharray="none" stroke-linecap="round" stroke-linejoin="round" stroke-miterlimit="4" stroke-opacity="1" stroke-width="2" opacity="1"/><rect id="rect4166" width="14" height="2" x="16" y="1075.52" fill="#78909c" fill-opacity="1" stroke="none" stroke-dasharray="none" stroke-linecap="round" stroke-linejoin="round" stroke-miterlimit="4" stroke-opacity="1" stroke-width="2" opacity="1"/><rect id="rect4168" width="4" height="2" x="32" y="1075.519" fill="#ec407a" fill-opacity="1" stroke="none" stroke-dasharray="none" stroke-linecap="round" stroke-linejoin="round" stroke-miterlimit="4" stroke-opacity="1" stroke-width="2" opacity="1"/><rect id="rect4170" width="5" height="2" x="19" y="1079.519" fill="#42a5f5" fill-opacity="1" stroke="none" stroke-dasharray="none" stroke-linecap="round" stroke-linejoin="round" stroke-miterlimit="4" stroke-opacity="1" stroke-width="2" opacity="1"/><rect id="rect4172" width="19" height="2" x="27" y="1079.519" fill="#26a69a" fill-opacity="1" stroke="none" stroke-dasharray="none" stroke-linecap="round" stroke-linejoin="round" stroke-miterlimit="4" stroke-opacity="1" stroke-width="2" opacity="1"/><rect id="rect4174" width="13" height="2" x="23" y="1083.519" fill="#26a69a" fill-opacity="1" stroke="none" stroke-dasharray="none" stroke-linecap="round" stroke-linejoin="round" stroke-miterlimit="4" stroke-opacity="1" stroke-width="2" opacity="1"/><rect id="rect4176" width="5" height="2" x="19" y="1087.519" fill="#42a5f5" fill-opacity="1" stroke="none" stroke-dasharray="none" stroke-linecap="round" stroke-linejoin="round" stroke-miterlimit="4" stroke-opacity="1" stroke-width="2" opacity="1"/><rect id="rect4178" width="5" height="2" x="19" y="1093.519" fill="#42a5f5" fill-opacity="1" stroke="none" stroke-dasharray="none" stroke-linecap="round" stroke-linejoin="round" stroke-miterlimit="4" stroke-opacity="1" stroke-width="2" opacity="1"/><rect id="rect4180" width="5" height="2" x="23" y="1097.519" fill="#ec407a" fill-opacity="1" stroke="none" stroke-dasharray="none" stroke-linecap="round" stroke-linejoin="round" stroke-miterlimit="4" stroke-opacity="1" stroke-width="2" opacity="1"/><rect id="rect4184" width="5" height="2" x="27" y="1101.519" fill="#26a69a" fill-opacity="1" stroke="none" stroke-dasharray="none" stroke-linecap="round" stroke-linejoin="round" stroke-miterlimit="4" stroke-opacity="1" stroke-width="2" opacity="1"/><rect id="rect4186" width="5" height="2" x="23" y="1106.519" fill="#ec407a" fill-opacity="1" stroke="none" stroke-dasharray="none" stroke-linecap="round" stroke-linejoin="round" stroke-miterlimit="4" stroke-opacity="1" stroke-width="2" opacity="1"/><rect id="rect4188" width="5" height="2" x="19" y="1109.519" fill="#42a5f5" fill-opacity="1" stroke="none" stroke-dasharray="none" stroke-linecap="round" stroke-linejoin="round" stroke-miterlimit="4" stroke-opacity="1" stroke-width="2" opacity="1"/><rect id="rect4194" width="5" height="5" x="-31" y="1058.52" fill="#26a69a" fill-opacity="1" fill-rule="nonzero" stroke="none" stroke-dasharray="none" stroke-dashoffset="0" stroke-linecap="butt" stroke-linejoin="miter" stroke-miterlimit="4" stroke-opacity="1" stroke-width="1" clip-rule="nonzero" color="#000" color-interpolation="sRGB" color-interpolation-filters="linearRGB" color-rendering="auto" display="inline" enable-background="accumulate" image-rendering="auto" opacity="1" overflow="visible" shape-rendering="auto" text-rendering="auto" visibility="visible" style="isolation:auto;mix-blend-mode:normal;solid-color:#000;solid-opacity:1"/><path id="path4267" fill="url(#linearGradient4275)" fill-opacity="1" stroke="none" stroke-dasharray="none" stroke-linecap="round" stroke-linejoin="round" stroke-miterlimit="4" stroke-opacity="1" stroke-width="2" d="m 80,1096.5196 c -1.108,0 -2,0.892 -2,2 l 0,3 0,2 c 0,0.554 -0.446,1 -1,1 l 0,1 c 0.554,0 1,0.446 1,1 l 0,2 0,3 c 0,1.108 0.892,2 2,2 l 1,0 0,-1 -1,0 c -0.554,0 -1,-0.446 -1,-1 l 0,-3 0,-2 c 0,-0.6015 -0.267955,-1.134 -0.685547,-1.5 0.417592,-0.366 0.685547,-0.8985 0.685547,-1.5 l 0,-2 0,-3 c 0,-0.554 0.446,-1 1,-1 l 1,0 0,-1 -1,0 z m 5,0 0,1 1,0 c 0.554,0 1,0.446 1,1 l 0,3 0,2 c 0,0.6015 0.267955,1.134 0.685547,1.5 -0.417592,0.366 -0.685547,0.8985 -0.685547,1.5 l 0,2 0,3 c 0,0.554 -0.446,1 -1,1 l -1,0 0,1 1,0 c 1.108,0 2,-0.892 2,-2 l 0,-3 0,-2 c 0,-0.554 0.446,-1 1,-1 l 0,-1 c -0.554,0 -1,-0.446 -1,-1 l 0,-2 0,-3 c 0,-1.108 -0.892,-2 -2,-2 l -1,0 z m -3,4 0,2 2,0 0,-2 -2,0 z m 0,7 0,2 1,0 -1,2 1,0 1,-2 0,-2 -2,0 z" opacity="1"/><path id="rect4202" fill="#78909c" fill-opacity="1" stroke="none" stroke-dasharray="none" stroke-linecap="round" stroke-linejoin="round" stroke-miterlimit="4" stroke-opacity="1" stroke-width="2" d="m 80,1095.5196 c -1.108,0 -2,0.892 -2,2 l 0,3 0,2 c 0,0.554 -0.446,1 -1,1 l 0,1 c 0.554,0 1,0.446 1,1 l 0,2 0,3 c 0,1.108 0.892,2 2,2 l 1,0 0,-1 -1,0 c -0.554,0 -1,-0.446 -1,-1 l 0,-3 0,-2 c 0,-0.6015 -0.267955,-1.134 -0.685547,-1.5 0.417592,-0.366 0.685547,-0.8985 0.685547,-1.5 l 0,-2 0,-3 c 0,-0.554 0.446,-1 1,-1 l 1,0 0,-1 -1,0 z m 5,0 0,1 1,0 c 0.554,0 1,0.446 1,1 l 0,3 0,2 c 0,0.6015 0.267955,1.134 0.685547,1.5 -0.417592,0.366 -0.685547,0.8985 -0.685547,1.5 l 0,2 0,3 c 0,0.554 -0.446,1 -1,1 l -1,0 0,1 1,0 c 1.108,0 2,-0.892 2,-2 l 0,-3 0,-2 c 0,-0.554 0.446,-1 1,-1 l 0,-1 c -0.554,0 -1,-0.446 -1,-1 l 0,-2 0,-3 c 0,-1.108 -0.892,-2 -2,-2 l -1,0 z m -3,4 0,2 2,0 0,-2 -2,0 z m 0,7 0,2 1,0 -1,2 1,0 1,-2 0,-2 -2,0 z" opacity="1"/><rect id="rect4179" width="5" height="5" x="-7" y="1066.52" fill="#37474f" fill-opacity="1" fill-rule="nonzero" stroke="none" stroke-dasharray="none" stroke-dashoffset="0" stroke-linecap="butt" stroke-linejoin="miter" stroke-miterlimit="4" stroke-opacity="1" stroke-width="1" clip-rule="nonzero" color="#000" color-interpolation="sRGB" color-interpolation-filters="linearRGB" color-rendering="auto" display="inline" enable-background="accumulate" image-rendering="auto" opacity="1" overflow="visible" shape-rendering="auto" text-rendering="auto" visibility="visible" style="isolation:auto;mix-blend-mode:normal;solid-color:#000;solid-opacity:1"/><path id="path4194" fill="url(#linearGradient4202)" fill-opacity="1" fill-rule="evenodd" stroke="none" stroke-linecap="butt" stroke-linejoin="miter" stroke-opacity="1" stroke-width="1" d="m 35,1098.5196 1.000391,13 5.999609,2 6,-2 1,-13 -7,0 z m 3.5,2 1.699219,0 1.800781,0 2.300586,0 0.699219,0 1,0 0.449219,3 -1.699219,0 -0.150391,-1 -2.599414,0 -2.050781,0 -0.25,2 2.300781,0 4.650196,0 -0.201172,2 -0.5,4 -1.949024,0.5 -2,0.5 0,0 -2,-0.5 -1.550781,-0.5 -0.449219,-3 1.699219,0 0.250781,1.4 2.05,0.8 2.4,-0.8 0.349805,-2.4 -2.749805,0 -4.199219,0 0.199219,-2 z"/><path id="path4379" fill="#ffb74d" fill-opacity="1" fill-rule="evenodd" stroke="none" stroke-linecap="butt" stroke-linejoin="miter" stroke-opacity="1" stroke-width="1" d="M 35,39 36.000391,52 42,54 l 6,-2 1,-13 -7,0 z m 3.5,2 1.699219,0 L 42,41 l 2.300586,0 0.699219,0 1,0 0.449219,3 -1.699219,0 L 44.599414,43 42,43 l -2.050781,0 -0.25,2 L 42,45 l 4.650196,0 -0.201172,2 -0.5,4 L 44,51.5 42,52 42,52 40,51.5 38.449219,51 38,48 39.699219,48 39.95,49.4 42,50.2 44.4,49.4 44.749805,47 42,47 37.800781,47 38,45 Z" transform="translate(0,1058.5196)"/><rect id="rect4194-8" width="5" height="5" x="-39" y="1058.52" fill="#ffb74d" fill-opacity="1" fill-rule="nonzero" stroke="none" stroke-dasharray="none" stroke-dashoffset="0" stroke-linecap="butt" stroke-linejoin="miter" stroke-miterlimit="4" stroke-opacity="1" stroke-width="1" clip-rule="nonzero" color="#000" color-interpolation="sRGB" color-interpolation-filters="linearRGB" color-rendering="auto" display="inline" enable-background="accumulate" image-rendering="auto" opacity="1" overflow="visible" shape-rendering="auto" text-rendering="auto" visibility="visible" style="isolation:auto;mix-blend-mode:normal;solid-color:#000;solid-opacity:1"/></g></svg>