<svg xmlns="http://www.w3.org/2000/svg" xmlns:svg="http://www.w3.org/2000/svg" xmlns:xlink="http://www.w3.org/1999/xlink" id="svg2" width="64" height="64" version="1.1" viewBox="0 0 64 64"><defs id="defs4"><radialGradient id="radialGradient4259" cx="4" cy="42.5" r="1.5" fx="4" fy="42.5" gradientTransform="matrix(-2.0000003,-2.935184e-6,3.9135795e-6,-2.6666677,21.99984,1228.853)" gradientUnits="userSpaceOnUse" xlink:href="#Shadow"/><linearGradient id="Shadow"><stop id="stop4186" offset="0" stop-color="#000" stop-opacity="1"/><stop id="stop4188" offset="1" stop-color="#000" stop-opacity="0"/></linearGradient><linearGradient id="linearGradient4257" x1="24" x2="24" y1="42" y2="46" gradientTransform="translate(9,1073.5196)" gradientUnits="userSpaceOnUse" xlink:href="#Shadow"/><radialGradient id="radialGradient4255" cx="44" cy="42.5" r="1.5" fx="44" fy="42.5" gradientTransform="matrix(-5.6193702e-6,2.666668,-2.0000002,-4.214526e-6,135.00027,998.1864)" gradientUnits="userSpaceOnUse" xlink:href="#Shadow"/><linearGradient id="linearGradient4233" x1="32" x2="32" y1="1086.52" y2="1096.52" gradientUnits="userSpaceOnUse" xlink:href="#linearGradient4226"/><linearGradient id="linearGradient4226"><stop id="stop4228" offset="0" stop-color="#000" stop-opacity=".196"/><stop id="stop4232" offset=".8" stop-color="#000" stop-opacity=".31"/><stop id="stop4230" offset="1" stop-color="#000" stop-opacity="0"/></linearGradient></defs><metadata id="metadata7"/><g id="layer1" transform="translate(0,-1058.5196)"><rect id="rect4304" width="5" height="5" x="-7" y="1066.52" fill="#e53935" fill-opacity="1" fill-rule="nonzero" stroke="none" stroke-dasharray="none" stroke-dashoffset="0" stroke-linecap="butt" stroke-linejoin="miter" stroke-miterlimit="4" stroke-opacity="1" stroke-width="1" clip-rule="nonzero" color="#000" color-interpolation="sRGB" color-interpolation-filters="linearRGB" color-rendering="auto" display="inline" enable-background="accumulate" image-rendering="auto" opacity="1" overflow="visible" shape-rendering="auto" text-rendering="auto" visibility="visible" style="isolation:auto;mix-blend-mode:normal;solid-color:#000;solid-opacity:1"/><rect id="rect4306" width="5" height="5" x="-7" y="1074.52" fill="#d32f2f" fill-opacity="1" fill-rule="nonzero" stroke="none" stroke-dasharray="none" stroke-dashoffset="0" stroke-linecap="butt" stroke-linejoin="miter" stroke-miterlimit="4" stroke-opacity="1" stroke-width="1" clip-rule="nonzero" color="#000" color-interpolation="sRGB" color-interpolation-filters="linearRGB" color-rendering="auto" display="inline" enable-background="accumulate" image-rendering="auto" opacity="1" overflow="visible" shape-rendering="auto" text-rendering="auto" visibility="visible" style="isolation:auto;mix-blend-mode:normal;solid-color:#000;solid-opacity:1"/><path id="path4249" fill="url(#radialGradient4255)" fill-opacity="1" stroke="none" stroke-dasharray="none" stroke-linecap="butt" stroke-linejoin="round" stroke-miterlimit="4" stroke-opacity="1" stroke-width="2" d="m 50,1115.5196 0,4 1,0 c 1.108,0 2,-0.892 2,-2 l 0,-2 -3,0 z" opacity=".7"/><path id="path4251" fill="url(#linearGradient4257)" fill-opacity="1" stroke="none" stroke-dasharray="none" stroke-linecap="butt" stroke-linejoin="round" stroke-miterlimit="4" stroke-opacity="1" stroke-width="2" d="m 14,1115.5196 0,4 36,0 0,-4 z" opacity=".7"/><path id="path4253" fill="url(#radialGradient4259)" fill-opacity="1" stroke="none" stroke-dasharray="none" stroke-linecap="butt" stroke-linejoin="round" stroke-miterlimit="4" stroke-opacity="1" stroke-width="2" d="m 11,1115.5196 0,2 c 0,1.108 0.892,2 2,2 l 1,0 0,-4 -3,0 z" opacity=".7"/><rect id="rect4182" width="42" height="53" x="11" y="1064.52" fill="#d32f2f" fill-opacity="1" stroke="none" stroke-dasharray="none" stroke-linecap="butt" stroke-linejoin="round" stroke-miterlimit="4" stroke-opacity="1" stroke-width="2" opacity="1" ry="3"/><rect id="rect4258" width="40" height="51" x="12" y="1065.52" fill="#e53935" fill-opacity="1" stroke="none" stroke-dasharray="none" stroke-linecap="butt" stroke-linejoin="round" stroke-miterlimit="4" stroke-opacity="1" stroke-width="2" opacity="1" ry="2"/><path id="path4220" fill="url(#linearGradient4233)" fill-opacity="1" stroke="none" stroke-dasharray="none" stroke-linecap="round" stroke-linejoin="round" stroke-miterlimit="4" stroke-opacity="1" stroke-width="2" d="m 21,1086.5196 0,3 0,3 0,4 2,0 0,-4 1,0 c 1.66197,0 3,-1.338 3,-3 0,-1.662 -1.33803,-3 -3,-3 l -1,0 -2,0 z m 8,0 0,3 0,4 0,3 2,0 1,0 c 1.66197,0 3,-1.338 3,-3 l 0,-4 c 0,-1.662 -1.33803,-3 -3,-3 l -1,0 -2,0 z m 8,0 0,2 0,2 0,2 0,4 2,0 0,-4 2,0 0,-2 -2,0 0,-2 4,0 0,-2 -4,0 -2,0 z m -14,2 1,0 c 0.55397,0 1,0.446 1,1 0,0.554 -0.44603,1 -1,1 l -1,0 0,-1 0,-1 z m 8,0 1,0 c 0.55397,0 1,0.446 1,1 l 0,4 c 0,0.554 -0.44603,1 -1,1 l -1,0 0,-1 0,-5 z" opacity="1"/><rect id="rect4156" width="5" height="5" x="-7" y="1058.52" fill="#ffcdd2" fill-opacity="1" fill-rule="nonzero" stroke="none" stroke-dasharray="none" stroke-dashoffset="0" stroke-linecap="butt" stroke-linejoin="miter" stroke-miterlimit="4" stroke-opacity="1" stroke-width="1" clip-rule="nonzero" color="#000" color-interpolation="sRGB" color-interpolation-filters="linearRGB" color-rendering="auto" display="inline" enable-background="accumulate" image-rendering="auto" opacity="1" overflow="visible" shape-rendering="auto" text-rendering="auto" visibility="visible" style="isolation:auto;mix-blend-mode:normal;solid-color:#000;solid-opacity:1"/><path id="rect4158" fill="#ffcdd2" fill-opacity="1" stroke="none" stroke-dasharray="none" stroke-linecap="round" stroke-linejoin="round" stroke-miterlimit="4" stroke-opacity="1" stroke-width="2" d="M 21 27 L 21 30 L 21 33 L 21 37 L 23 37 L 23 33 L 24 33 C 25.66197 33 27 31.662 27 30 C 27 28.338 25.66197 27 24 27 L 23 27 L 21 27 z M 29 27 L 29 30 L 29 34 L 29 37 L 31 37 L 32 37 C 33.66197 37 35 35.662 35 34 L 35 30 C 35 28.338 33.66197 27 32 27 L 31 27 L 29 27 z M 37 27 L 37 29 L 37 31 L 37 33 L 37 37 L 39 37 L 39 33 L 41 33 L 41 31 L 39 31 L 39 29 L 43 29 L 43 27 L 39 27 L 37 27 z M 23 29 L 24 29 C 24.55397 29 25 29.446 25 30 C 25 30.554 24.55397 31 24 31 L 23 31 L 23 30 L 23 29 z M 31 29 L 32 29 C 32.55397 29 33 29.446 33 30 L 33 34 C 33 34.554 32.55397 35 32 35 L 31 35 L 31 34 L 31 29 z" opacity="1" transform="translate(0,1058.5196)"/></g></svg>