<svg xmlns="http://www.w3.org/2000/svg" xmlns:svg="http://www.w3.org/2000/svg" xmlns:xlink="http://www.w3.org/1999/xlink" id="svg2" width="64" height="64" version="1.1" viewBox="0 0 64 64"><defs id="defs4"><linearGradient id="linearGradient4281"><stop id="stop4283" offset="0" stop-color="#000" stop-opacity=".31"/><stop id="stop4285" offset="1" stop-color="#000" stop-opacity="0"/></linearGradient><radialGradient id="radialGradient4259" cx="4" cy="42.5" r="1.5" fx="4" fy="42.5" gradientTransform="matrix(-2.0000003,-2.935184e-6,3.9135795e-6,-2.6666677,15.99984,1228.853)" gradientUnits="userSpaceOnUse" xlink:href="#Shadow"/><linearGradient id="Shadow"><stop id="stop4186" offset="0" stop-color="#000" stop-opacity="1"/><stop id="stop4188" offset="1" stop-color="#000" stop-opacity="0"/></linearGradient><linearGradient id="linearGradient4257" x1="24" x2="24" y1="42" y2="46" gradientTransform="translate(9,1073.5196)" gradientUnits="userSpaceOnUse" xlink:href="#Shadow"/><radialGradient id="radialGradient4255" cx="44" cy="42.5" r="1.5" fx="44" fy="42.5" gradientTransform="matrix(-5.6193702e-6,2.666668,-2.0000002,-4.214526e-6,142.00027,998.1864)" gradientUnits="userSpaceOnUse" xlink:href="#Shadow"/><radialGradient id="radialGradient4329-1" cx="16" cy="1081.52" r="5" fx="16" fy="1081.52" gradientTransform="translate(33,0.9998997)" gradientUnits="userSpaceOnUse" xlink:href="#Shadow"/><linearGradient id="linearGradient4279" x1="27" x2="27" y1="29" y2="31" gradientTransform="matrix(1,0,0,0.99991667,18,-1.9974)" gradientUnits="userSpaceOnUse" xlink:href="#linearGradient4281"/></defs><metadata id="metadata7"/><g id="layer1" transform="translate(0,-1058.5196)"><path id="path4249" fill="url(#radialGradient4255)" fill-opacity="1" stroke="none" stroke-dasharray="none" stroke-linecap="butt" stroke-linejoin="round" stroke-miterlimit="4" stroke-opacity="1" stroke-width="2" d="m 57,1115.5196 0,4 1,0 c 1.108,0 2,-0.892 2,-2 l 0,-2 -3,0 z" opacity=".7"/><path id="path4251" fill="url(#linearGradient4257)" fill-opacity="1" stroke="none" stroke-dasharray="none" stroke-linecap="butt" stroke-linejoin="round" stroke-miterlimit="4" stroke-opacity="1" stroke-width="2" d="m 8,1115.5196 0,4 49,0 0,-4 z" opacity=".7"/><path id="path4253" fill="url(#radialGradient4259)" fill-opacity="1" stroke="none" stroke-dasharray="none" stroke-linecap="butt" stroke-linejoin="round" stroke-miterlimit="4" stroke-opacity="1" stroke-width="2" d="m 5,1115.5196 0,2 c 0,1.108 0.892,2 2,2 l 1,0 0,-4 -3,0 z" opacity=".7"/><rect id="rect4174" width="5" height="5" x="-7" y="1058.52" fill="#f5f5f5" fill-opacity="1" stroke="none" stroke-dasharray="none" stroke-linecap="butt" stroke-linejoin="round" stroke-miterlimit="4" stroke-opacity="1" stroke-width="2" opacity="1"/><rect id="rect4176" width="5" height="5" x="-7" y="1066.52" fill="#e0e0e0" fill-opacity="1" stroke="none" stroke-dasharray="none" stroke-linecap="butt" stroke-linejoin="round" stroke-miterlimit="4" stroke-opacity="1" stroke-width="2" opacity="1"/><rect id="rect4182" width="55" height="47" x="5" y="1070.52" fill="#e0e0e0" fill-opacity="1" stroke="none" stroke-dasharray="none" stroke-linecap="butt" stroke-linejoin="round" stroke-miterlimit="4" stroke-opacity="1" stroke-width="2" opacity="1" ry="3"/><rect id="rect4258" width="53" height="45" x="6" y="1071.52" fill="#f5f5f5" fill-opacity="1" stroke="none" stroke-dasharray="none" stroke-linecap="butt" stroke-linejoin="round" stroke-miterlimit="4" stroke-opacity="1" stroke-width="2" opacity="1" ry="2"/><rect id="rect4271" width="49" height="41" x="8" y="1073.52" fill="#81d4fa" fill-opacity="1" stroke="none" stroke-dasharray="none" stroke-linecap="butt" stroke-linejoin="round" stroke-miterlimit="4" stroke-opacity="1" stroke-width="2" opacity="1" ry="1"/><path id="path4352" fill="#2196f3" fill-opacity="1" stroke="none" stroke-dasharray="none" stroke-linecap="round" stroke-linejoin="round" stroke-miterlimit="4" stroke-opacity="1" stroke-width="2" d="M 33 42 C 28.220247 42.002054 18.273096 42.588322 8 43.613281 L 8 55 C 8.5482873 55.07914 8.4460296 56 9 56 L 56 56 C 56.06645 56 56.124741 55.975141 56.1875 55.962891 C 56.54673 55.80499 56.556014 55.187059 57 55 L 57 44.384766 C 48.709006 42.873994 38.849296 42.002302 33 42 z" opacity="1" transform="translate(0,1058.5196)"/><path id="path4346" fill="#1e88e5" fill-opacity="1" stroke="none" stroke-dasharray="none" stroke-linecap="round" stroke-linejoin="round" stroke-miterlimit="4" stroke-opacity="1" stroke-width="2" d="M 31 43 C 27.179981 43.000749 17.88981 43.411268 8 44.138672 L 8 55 C 8.5445538 55.101705 8.4460296 56 9 56 L 56 56 C 56.069246 56 56.128191 55.987117 56.179688 55.962891 C 56.540166 55.793304 56.527329 55.107419 57 55 L 57 46.099609 C 48.219035 44.138914 37.529237 43.00135 31 43 z" opacity="1" transform="translate(0,1058.5196)"/><path id="path4341" fill="#1976d2" fill-opacity="1" stroke="none" stroke-dasharray="none" stroke-linecap="round" stroke-linejoin="round" stroke-miterlimit="4" stroke-opacity="1" stroke-width="2" d="M 36 45 C 30.950285 45.001455 19.754613 45.761147 8 47.044922 L 8 55 C 8 55.55397 8.4460296 56 9 56 L 56 56 C 56.06925 56 56.127989 55.986331 56.179688 55.962891 C 56.541578 55.79879 56.534288 55.134424 57 55 L 57 46.882812 C 49.396675 45.680732 40.744204 45.002879 36 45 z" opacity="1" transform="translate(0,1058.5196)"/><path id="path4326" fill="#1565c0" fill-opacity="1" stroke="none" stroke-dasharray="none" stroke-linecap="round" stroke-linejoin="round" stroke-miterlimit="4" stroke-opacity="1" stroke-width="2" d="M 34.5 46 C 29.497014 46.001965 18.86331 46.508541 8 47.375 L 8 55 C 8.5524999 55.04033 8.4460296 56 9 56 L 56 56 C 56.063653 56 56.119399 55.976107 56.179688 55.964844 C 56.180534 55.964474 56.180798 55.963265 56.181641 55.962891 C 56.542738 55.802348 56.543937 55.160843 57 55 L 57 47.392578 C 48.849582 46.50162 39.50867 46.000988 34.5 46 z" opacity="1" transform="translate(0,1058.5196)"/><ellipse id="circle4321-3" cx="49" cy="1082.52" r="5" fill="url(#radialGradient4329-1)" fill-opacity="1" stroke="none" stroke-dasharray="none" stroke-linecap="round" stroke-linejoin="round" stroke-miterlimit="4" stroke-opacity="1" stroke-width="2" opacity="1"/><circle id="path4319-5" cx="49" cy="1081.52" r="5" fill="#ffee58" fill-opacity="1" stroke="none" stroke-dasharray="none" stroke-linecap="round" stroke-linejoin="round" stroke-miterlimit="4" stroke-opacity="1" stroke-width="2" opacity="1"/><path id="path4275" fill="url(#linearGradient4279)" fill-opacity="1" stroke="none" stroke-dasharray="none" stroke-linecap="round" stroke-linejoin="round" stroke-miterlimit="4" stroke-opacity="1" stroke-width="2" d="M 48.5 23 C 46.738285 23 45.25247 24.312947 45.03125 26.060547 C 44.856857 26.021547 38.678755 26.001 38.5 26 C 37.290553 26 36.282451 26.859065 36.050781 28 L 36 28 L 36 28.5 L 36 29 L 36.050781 29 L 53 29 L 53 28 L 52.720703 28 C 52.52962 27.675811 52.255544 27.40709 51.919922 27.232422 C 51.972272 26.992022 51.99911 26.7461 52 26.5 C 52 24.5672 50.432997 23 48.5 23 z" opacity="1" transform="translate(0,1058.5196)"/><path id="path4277" fill="#f5f5f5" fill-opacity="1" stroke="none" stroke-dasharray="none" stroke-linecap="round" stroke-linejoin="round" stroke-miterlimit="4" stroke-opacity="1" stroke-width="2" d="m 44.5,1078.5191 a 3.5,3.5 0 0 0 -3.46875,3.0605 2.5,2.5 0 0 0 -0.53125,-0.06 2.5,2.5 0 0 0 -2.455078,2.0469 C 36.882182,1083.78 36,1084.7943 36,1086.0191 c 0,0.1713 0.01798,0.3384 0.05078,0.5 l 16.949219,0 c 0,-0.7737 -0.440416,-1.4347 -1.080078,-1.7676 0.05242,-0.2408 0.07926,-0.486 0.08008,-0.7324 0,-1.933 -1.567003,-3.5 -3.5,-3.5 -0.274776,0 -0.539274,0.043 -0.796875,0.1035 A 3.5,3.5 0 0 0 44.5,1078.5191 Z" opacity="1"/><rect id="rect4332" width="5" height="5" x="-15" y="1058.52" fill="#81d4fa" fill-opacity="1" stroke="none" stroke-dasharray="none" stroke-linecap="butt" stroke-linejoin="round" stroke-miterlimit="4" stroke-opacity="1" stroke-width="2" opacity="1"/><rect id="rect4334" width="5" height="5" x="-23" y="1058.52" fill="#2196f3" fill-opacity="1" stroke="none" stroke-dasharray="none" stroke-linecap="butt" stroke-linejoin="round" stroke-miterlimit="4" stroke-opacity="1" stroke-width="2" opacity="1"/><rect id="rect4336" width="5" height="5" x="-23" y="1066.52" fill="#1e88e5" fill-opacity="1" stroke="none" stroke-dasharray="none" stroke-linecap="butt" stroke-linejoin="round" stroke-miterlimit="4" stroke-opacity="1" stroke-width="2" opacity="1"/><rect id="rect4338" width="5" height="5" x="-23" y="1074.52" fill="#1976d2" fill-opacity="1" stroke="none" stroke-dasharray="none" stroke-linecap="butt" stroke-linejoin="round" stroke-miterlimit="4" stroke-opacity="1" stroke-width="2" opacity="1"/><rect id="rect4342" width="5" height="5" x="-31" y="1058.52" fill="#ffe082" fill-opacity="1" stroke="none" stroke-dasharray="none" stroke-linecap="butt" stroke-linejoin="round" stroke-miterlimit="4" stroke-opacity="1" stroke-width="2" opacity="1"/><rect id="rect4344" width="5" height="5" x="-31" y="1066.52" fill="#ffd54f" fill-opacity="1" stroke="none" stroke-dasharray="none" stroke-linecap="butt" stroke-linejoin="round" stroke-miterlimit="4" stroke-opacity="1" stroke-width="2" opacity="1"/><rect id="rect4346" width="5" height="5" x="-39" y="1058.52" fill="#ffee58" fill-opacity="1" stroke="none" stroke-dasharray="none" stroke-linecap="butt" stroke-linejoin="round" stroke-miterlimit="4" stroke-opacity="1" stroke-width="2" opacity="1"/><rect id="rect4348" width="5" height="5" x="-7" y="1058.52" fill="#f5f5f5" fill-opacity="1" stroke="none" stroke-dasharray="none" stroke-linecap="butt" stroke-linejoin="round" stroke-miterlimit="4" stroke-opacity="1" stroke-width="2" opacity="1"/><rect id="rect4217" width="5" height="5" x="-23" y="1082.52" fill="#1565c0" fill-opacity="1" stroke="none" stroke-dasharray="none" stroke-linecap="butt" stroke-linejoin="round" stroke-miterlimit="4" stroke-opacity="1" stroke-width="2" opacity="1"/><path id="path4286" fill="#ffe082" fill-opacity="1" stroke="none" stroke-dasharray="none" stroke-linecap="round" stroke-linejoin="round" stroke-miterlimit="4" stroke-opacity="1" stroke-width="2" d="M 31 48 C 26.56971 48.000628 17.148603 48.36332 8 49.019531 L 8 55 C 8 55.55397 8.4460296 56 9 56 L 56 56 C 56.55397 56 57 55.55397 57 55 L 57 50.552734 C 48.983921 48.947214 38.234109 48.001066 31 48 z" opacity="1" transform="translate(0,1058.5196)"/><path id="path4288" fill="#ffd54f" fill-opacity="1" stroke="none" stroke-dasharray="none" stroke-linecap="round" stroke-linejoin="round" stroke-miterlimit="4" stroke-opacity="1" stroke-width="2" d="M 8 52.527344 L 8 55 C 8 55.55397 8.4460296 56 9 56 L 56 56 C 56.442511 56 56.805075 55.711321 56.9375 55.314453 C 46.790713 54.020932 17.057145 53.070743 8 52.527344 z" opacity="1" transform="translate(0,1058.5196)"/></g></svg>