<svg xmlns="http://www.w3.org/2000/svg" xmlns:svg="http://www.w3.org/2000/svg" xmlns:xlink="http://www.w3.org/1999/xlink" id="svg2" width="64" height="64" version="1.1" viewBox="0 0 64 64"><defs id="defs4"><linearGradient id="linearGradient4262"><stop id="stop4264" offset="0" stop-color="#000" stop-opacity=".31"/><stop id="stop4266" offset="1" stop-color="#000" stop-opacity="0"/></linearGradient><radialGradient id="radialGradient4259" cx="4" cy="42.5" r="1.5" fx="4" fy="42.5" gradientTransform="matrix(-2.0000003,-2.935184e-6,3.9135795e-6,-2.6666677,15.99984,1228.853)" gradientUnits="userSpaceOnUse" xlink:href="#Shadow"/><linearGradient id="Shadow"><stop id="stop4186" offset="0" stop-color="#000" stop-opacity="1"/><stop id="stop4188" offset="1" stop-color="#000" stop-opacity="0"/></linearGradient><linearGradient id="linearGradient4257" x1="24" x2="24" y1="42" y2="46" gradientTransform="translate(9,1073.5196)" gradientUnits="userSpaceOnUse" xlink:href="#Shadow"/><radialGradient id="radialGradient4255" cx="44" cy="42.5" r="1.5" fx="44" fy="42.5" gradientTransform="matrix(-5.6193702e-6,2.666668,-2.0000002,-4.214526e-6,142.00027,998.1864)" gradientUnits="userSpaceOnUse" xlink:href="#Shadow"/><linearGradient id="linearGradient4279" x1="27" x2="27" y1="29" y2="31" gradientTransform="matrix(1,0,0,0.99991667,-6,1057.5227)" gradientUnits="userSpaceOnUse" xlink:href="#linearGradient4262"/></defs><metadata id="metadata7"/><g id="layer1" transform="translate(0,-1058.5196)"><path id="path4249" fill="url(#radialGradient4255)" fill-opacity="1" stroke="none" stroke-dasharray="none" stroke-linecap="butt" stroke-linejoin="round" stroke-miterlimit="4" stroke-opacity="1" stroke-width="2" d="m 57,1115.5196 0,4 1,0 c 1.108,0 2,-0.892 2,-2 l 0,-2 -3,0 z" opacity=".7"/><path id="path4251" fill="url(#linearGradient4257)" fill-opacity="1" stroke="none" stroke-dasharray="none" stroke-linecap="butt" stroke-linejoin="round" stroke-miterlimit="4" stroke-opacity="1" stroke-width="2" d="m 8,1115.5196 0,4 49,0 0,-4 z" opacity=".7"/><path id="path4253" fill="url(#radialGradient4259)" fill-opacity="1" stroke="none" stroke-dasharray="none" stroke-linecap="butt" stroke-linejoin="round" stroke-miterlimit="4" stroke-opacity="1" stroke-width="2" d="m 5,1115.5196 0,2 c 0,1.108 0.892,2 2,2 l 1,0 0,-4 -3,0 z" opacity=".7"/><rect id="rect4174" width="5" height="5" x="-7" y="1058.52" fill="#f5f5f5" fill-opacity="1" stroke="none" stroke-dasharray="none" stroke-linecap="butt" stroke-linejoin="round" stroke-miterlimit="4" stroke-opacity="1" stroke-width="2" opacity="1"/><rect id="rect4176" width="5" height="5" x="-7" y="1066.52" fill="#e0e0e0" fill-opacity="1" stroke="none" stroke-dasharray="none" stroke-linecap="butt" stroke-linejoin="round" stroke-miterlimit="4" stroke-opacity="1" stroke-width="2" opacity="1"/><rect id="rect4182" width="55" height="47" x="5" y="1070.52" fill="#e0e0e0" fill-opacity="1" stroke="none" stroke-dasharray="none" stroke-linecap="butt" stroke-linejoin="round" stroke-miterlimit="4" stroke-opacity="1" stroke-width="2" opacity="1" ry="3"/><rect id="rect4258" width="53" height="45" x="6" y="1071.52" fill="#f5f5f5" fill-opacity="1" stroke="none" stroke-dasharray="none" stroke-linecap="butt" stroke-linejoin="round" stroke-miterlimit="4" stroke-opacity="1" stroke-width="2" opacity="1" ry="2"/><rect id="rect4265" width="5" height="5" x="-15" y="1058.52" fill="#81d4fa" fill-opacity="1" stroke="none" stroke-dasharray="none" stroke-linecap="butt" stroke-linejoin="round" stroke-miterlimit="4" stroke-opacity="1" stroke-width="2" opacity="1"/><rect id="rect4271" width="49" height="41" x="8" y="1073.52" fill="#81d4fa" fill-opacity="1" stroke="none" stroke-dasharray="none" stroke-linecap="butt" stroke-linejoin="round" stroke-miterlimit="4" stroke-opacity="1" stroke-width="2" opacity="1" ry="1"/><path id="path4172" fill="#4db6ac" fill-opacity="1" fill-rule="evenodd" stroke="none" stroke-linecap="butt" stroke-linejoin="miter" stroke-opacity="1" stroke-width="1" d="m 8,1104.5196 9,-9 2,1 1,3 2,2 7,6 -21,0 z"/><path id="path4174" fill="#4db6ac" fill-opacity="1" fill-rule="evenodd" stroke="none" stroke-linecap="butt" stroke-linejoin="miter" stroke-opacity="1" stroke-width="1" d="M 46 27 L 39 28 L 34 35 L 28 39 L 27 43 L 22 50 L 57 50 L 57 44 L 54 41 L 52 34 L 46 27 z" transform="translate(0,1058.5196)"/><path id="path4178" fill="#26a69a" fill-opacity="1" fill-rule="evenodd" stroke="none" stroke-linecap="butt" stroke-linejoin="miter" stroke-opacity="1" stroke-width="1" d="M 8 40 L 8 52 L 23 52 L 23 47 L 11 43 L 8 40 z" transform="translate(0,1058.5196)"/><path id="path4180" fill="#009688" fill-opacity="1" fill-rule="evenodd" stroke="none" stroke-linecap="butt" stroke-linejoin="miter" stroke-opacity="1" stroke-width="1" d="M 24 43 L 22 45 L 20 46 L 21 47 L 22 47 C 22 47 16 50 15 51 L 15 52 L 40 52 L 37 48 L 32 45 L 24 43 z" transform="translate(0,1058.5196)"/><path id="path4221" fill="#80cbc4" fill-opacity="1" fill-rule="evenodd" stroke="none" stroke-linecap="butt" stroke-linejoin="miter" stroke-opacity="1" stroke-width="1" d="M 46 27 L 44 28 L 43 31 L 45 32 L 46 34 L 46 37 L 48 39 L 51 39 L 53 43 L 54 43 L 56 44 L 57 44 L 54 41 L 52 34 L 46 27 z" transform="translate(0,1058.5196)"/><path id="path4182" fill="#26a69a" fill-opacity="1" fill-rule="evenodd" stroke="none" stroke-linecap="butt" stroke-linejoin="miter" stroke-opacity="1" stroke-width="1" d="m 57,43 -4,3 -2,3 -4,1 -2,-2 -4,-2 -4,-3 -2,1 -1,1 -1,1 0.923828,0.460938 L 29,52 57,52 Z" transform="translate(0,1058.5196)"/><path id="path4184" fill="#009688" fill-opacity="1" fill-rule="evenodd" stroke="none" stroke-linecap="butt" stroke-linejoin="miter" stroke-opacity="1" stroke-width="1" d="M 12 47 C 11.533413 47 9.7585206 48.311567 8 49.705078 L 8 55 L 26 55 L 26 53 L 25 51 L 21 50 C 21 50 13 47 12 47 z" transform="translate(0,1058.5196)"/><path id="path4195" fill="#00897b" fill-opacity="1" fill-rule="evenodd" stroke="none" stroke-linecap="butt" stroke-linejoin="miter" stroke-opacity="1" stroke-width="1" d="m 22,1111.5196 8,-5 6,-1 6,3 3,3 3,1 1,1 -27,0 z"/><path id="path4197" fill="#009688" fill-opacity="1" fill-rule="evenodd" stroke="none" stroke-linecap="butt" stroke-linejoin="miter" stroke-opacity="1" stroke-width="1" d="M 51 45 L 48 47 C 48 47 46 50 45 51 C 44 52 41 53 41 53 L 42 55 L 57 55 L 57 46 C 57 46 55 45 54 45 L 51 45 z" transform="translate(0,1058.5196)"/><path id="path4201" fill="#00695c" fill-opacity="1" fill-rule="evenodd" stroke="none" stroke-linecap="butt" stroke-linejoin="miter" stroke-opacity="1" stroke-width="1" d="M 43 40 L 40 45 L 34 49 L 28 55 L 26 53 L 20 49 L 12 51 L 8 55 C 8 55.55397 8.4460296 56 9 56 L 56 56 C 56.55397 56 57 55.55397 57 55 L 57 49 L 55 48 L 49 41 L 43 40 z" transform="translate(0,1058.5196)"/><path id="path4226" fill="#80cbc4" fill-opacity="1" fill-rule="evenodd" stroke="none" stroke-linecap="butt" stroke-linejoin="miter" stroke-opacity="1" stroke-width="1" d="M 17 37 L 17 38 L 18 39 L 18 40 L 19 40 L 20 42 L 22 43 L 20 41 L 19 38 L 17 37 z" transform="translate(0,1058.5196)"/><path id="path4237" fill="#26a69a" fill-opacity="1" fill-rule="evenodd" stroke="none" stroke-linecap="butt" stroke-linejoin="miter" stroke-opacity="1" stroke-width="1" d="M 24 43 L 26 45 L 26 46 L 28 47 L 31 47 L 33 47 L 33.539062 45.923828 L 32 45 L 24 43 z" transform="translate(0,1058.5196)"/><path id="path4244" fill="#00796b" fill-opacity="1" fill-rule="evenodd" stroke="none" stroke-linecap="butt" stroke-linejoin="miter" stroke-opacity="1" stroke-width="1" d="M 49 41 L 47 44 L 48 46 L 50 48 L 50 49 L 51 51 L 53 52 L 55 53 L 56.755859 55.634766 C 56.901526 55.461118 57 55.245403 57 55 L 57 49 L 55 48 L 49 41 z" transform="translate(0,1058.5196)"/><path id="path4275" fill="url(#linearGradient4279)" fill-opacity="1" stroke="none" stroke-dasharray="none" stroke-linecap="round" stroke-linejoin="round" stroke-miterlimit="4" stroke-opacity="1" stroke-width="2" d="m 24.5,1082.5201 c -1.761715,0 -3.24753,1.3129 -3.46875,3.0605 -0.174393,-0.039 -6.352495,-0.06 -6.53125,-0.061 -1.209447,0 -2.217549,0.8591 -2.449219,2 l -0.05078,0 0,0.5 0,0.5 0.05078,0 16.94922,0 0,-1 -0.279297,0 c -0.191083,-0.3242 -0.465159,-0.5929 -0.800781,-0.7676 0.05235,-0.2404 0.07919,-0.4863 0.08008,-0.7324 0,-1.9328 -1.567003,-3.5 -3.5,-3.5 z" opacity="1"/><path id="path4277" fill="#f5f5f5" fill-opacity="1" stroke="none" stroke-dasharray="none" stroke-linecap="round" stroke-linejoin="round" stroke-miterlimit="4" stroke-opacity="1" stroke-width="2" d="m 20.5,1079.5196 a 3.5,3.5 0 0 0 -3.46875,3.0605 2.5,2.5 0 0 0 -0.53125,-0.06 2.5,2.5 0 0 0 -2.455078,2.0469 C 12.882182,1084.7805 12,1085.7948 12,1087.0196 c 0,0.1713 0.01798,0.3384 0.05078,0.5 l 16.949219,0 c 0,-0.7737 -0.440416,-1.4347 -1.080078,-1.7676 0.05242,-0.2408 0.07926,-0.486 0.08008,-0.7324 0,-1.933 -1.567003,-3.5 -3.5,-3.5 -0.274776,0 -0.539274,0.043 -0.796875,0.1035 A 3.5,3.5 0 0 0 20.5,1079.5196 Z" opacity="1"/><rect id="rect4177" width="5" height="5" x="-23" y="1058.52" fill="#80cbc4" fill-opacity="1" stroke="none" stroke-dasharray="none" stroke-linecap="butt" stroke-linejoin="round" stroke-miterlimit="4" stroke-opacity="1" stroke-width="2" opacity="1"/><rect id="rect4179" width="5" height="5" x="-23" y="1066.52" fill="#4db6ac" fill-opacity="1" stroke="none" stroke-dasharray="none" stroke-linecap="butt" stroke-linejoin="round" stroke-miterlimit="4" stroke-opacity="1" stroke-width="2" opacity="1"/><rect id="rect4181" width="5" height="5" x="-23" y="1074.52" fill="#26a69a" fill-opacity="1" stroke="none" stroke-dasharray="none" stroke-linecap="butt" stroke-linejoin="round" stroke-miterlimit="4" stroke-opacity="1" stroke-width="2" opacity="1"/><rect id="rect4183" width="5" height="5" x="-23" y="1082.52" fill="#26a69a" fill-opacity="1" stroke="none" stroke-dasharray="none" stroke-linecap="butt" stroke-linejoin="round" stroke-miterlimit="4" stroke-opacity="1" stroke-width="2" opacity="1"/><rect id="rect4185" width="5" height="5" x="-23" y="1082.52" fill="#009688" fill-opacity="1" stroke="none" stroke-dasharray="none" stroke-linecap="butt" stroke-linejoin="round" stroke-miterlimit="4" stroke-opacity="1" stroke-width="2" opacity="1"/><rect id="rect4187" width="5" height="5" x="-23" y="1090.52" fill="#00897b" fill-opacity="1" stroke="none" stroke-dasharray="none" stroke-linecap="butt" stroke-linejoin="round" stroke-miterlimit="4" stroke-opacity="1" stroke-width="2" opacity="1"/><rect id="rect4189" width="5" height="5" x="-23" y="-1111.52" fill="#00695c" fill-opacity="1" stroke="none" stroke-dasharray="none" stroke-linecap="butt" stroke-linejoin="round" stroke-miterlimit="4" stroke-opacity="1" stroke-width="2" opacity="1" transform="scale(1,-1)"/><rect id="rect4191" width="5" height="5" x="-23" y="-1103.52" fill="#00796b" fill-opacity="1" stroke="none" stroke-dasharray="none" stroke-linecap="butt" stroke-linejoin="round" stroke-miterlimit="4" stroke-opacity="1" stroke-width="2" opacity="1" transform="scale(1,-1)"/></g></svg>