<svg xmlns="http://www.w3.org/2000/svg" xmlns:svg="http://www.w3.org/2000/svg" xmlns:xlink="http://www.w3.org/1999/xlink" id="svg2" width="64" height="64" version="1.1" viewBox="0 0 64 64"><defs id="defs4"><linearGradient id="linearGradient4195"><stop id="stop4197" offset="0" stop-color="#000" stop-opacity=".04"/><stop id="stop4203" offset=".133" stop-color="#000" stop-opacity=".04"/><stop id="stop4201" offset=".5" stop-color="#000" stop-opacity=".098"/><stop id="stop4199" offset="1" stop-color="#000" stop-opacity="0"/></linearGradient><linearGradient id="linearGradient4200"><stop id="stop4202" offset="0" stop-color="#000" stop-opacity=".196"/><stop id="stop4204" offset="1" stop-color="#000" stop-opacity="0"/></linearGradient><radialGradient id="radialGradient4259" cx="4" cy="42.5" r="1.5" fx="4" fy="42.5" gradientTransform="matrix(-2.0000003,-2.935184e-6,3.9135795e-6,-2.6666677,21.99984,1228.853)" gradientUnits="userSpaceOnUse" xlink:href="#Shadow"/><linearGradient id="Shadow"><stop id="stop4186" offset="0" stop-color="#000" stop-opacity="1"/><stop id="stop4188" offset="1" stop-color="#000" stop-opacity="0"/></linearGradient><linearGradient id="linearGradient4257" x1="24" x2="24" y1="42" y2="46" gradientTransform="translate(9,1073.5196)" gradientUnits="userSpaceOnUse" xlink:href="#Shadow"/><radialGradient id="radialGradient4255" cx="44" cy="42.5" r="1.5" fx="44" fy="42.5" gradientTransform="matrix(-5.6193702e-6,2.666668,-2.0000002,-4.214526e-6,135.00027,998.1864)" gradientUnits="userSpaceOnUse" xlink:href="#Shadow"/><radialGradient id="radialGradient4285" cx="44" cy="42.5" r="1.5" fx="44" fy="42.5" gradientTransform="matrix(-5.6193702e-6,2.666668,-2.0000002,-4.214526e-6,132.00027,980.1864)" gradientUnits="userSpaceOnUse" xlink:href="#Shadow"/><linearGradient id="linearGradient4287" x1="24" x2="24" y1="42" y2="46" gradientTransform="translate(9,1055.5196)" gradientUnits="userSpaceOnUse" xlink:href="#Shadow"/><radialGradient id="radialGradient4289" cx="4" cy="42.5" r="1.5" fx="4" fy="42.5" gradientTransform="matrix(-2.0000003,-2.935184e-6,3.9135795e-6,-2.6666677,24.99984,1210.853)" gradientUnits="userSpaceOnUse" xlink:href="#Shadow"/><linearGradient id="linearGradient4291" x1="32" x2="32" y1="1113.52" y2="1114.52" gradientTransform="translate(8,-1058.5196)" gradientUnits="userSpaceOnUse" xlink:href="#linearGradient4200"/><radialGradient id="radialGradient4298" cx="43.25" cy="54.333" r=".5" fx="43.25" fy="54.333" gradientTransform="matrix(-5.6719936e-6,1.9999981,-1.9999924,-5.6719775e-6,151.66649,-31.499607)" gradientUnits="userSpaceOnUse" xlink:href="#linearGradient4200"/><radialGradient id="radialGradient4302" cx="43.25" cy="54.333" r=".5" fx="43.25" fy="54.333" gradientTransform="matrix(5.6719936e-6,1.9999981,1.9999924,-5.6719775e-6,-71.66649,1027.02)" gradientUnits="userSpaceOnUse" xlink:href="#linearGradient4200"/><radialGradient id="radialGradient4302-3" cx="43.25" cy="54.333" r=".5" fx="43.25" fy="54.333" gradientTransform="matrix(5.6719936e-6,1.9999981,1.9999924,-5.6719775e-6,-86.66649,1007.0199)" gradientUnits="userSpaceOnUse" xlink:href="#linearGradient4200"/><radialGradient id="radialGradient4298-4" cx="43.25" cy="54.333" r=".5" fx="43.25" fy="54.333" gradientTransform="matrix(-5.6719936e-6,1.9999981,-1.9999924,-5.6719775e-6,136.66649,1007.0199)" gradientUnits="userSpaceOnUse" xlink:href="#linearGradient4200"/><linearGradient id="linearGradient4291-4" x1="32" x2="32" y1="1113.52" y2="1114.52" gradientTransform="translate(-7,-20.0001)" gradientUnits="userSpaceOnUse" xlink:href="#linearGradient4200"/><linearGradient id="linearGradient4209" x1="40" x2="40" y1="1081.52" y2="1096.52" gradientUnits="userSpaceOnUse" xlink:href="#linearGradient4195"/></defs><metadata id="metadata7"/><g id="layer1" transform="translate(0,-1058.5196)"><path id="path4249" fill="url(#radialGradient4255)" fill-opacity="1" stroke="none" stroke-dasharray="none" stroke-linecap="butt" stroke-linejoin="round" stroke-miterlimit="4" stroke-opacity="1" stroke-width="2" d="m 50,1115.5196 0,4 1,0 c 1.108,0 2,-0.892 2,-2 l 0,-2 -3,0 z" opacity=".7"/><path id="path4251" fill="url(#linearGradient4257)" fill-opacity="1" stroke="none" stroke-dasharray="none" stroke-linecap="butt" stroke-linejoin="round" stroke-miterlimit="4" stroke-opacity="1" stroke-width="2" d="m 14,1115.5196 0,4 36,0 0,-4 z" opacity=".7"/><path id="path4253" fill="url(#radialGradient4259)" fill-opacity="1" stroke="none" stroke-dasharray="none" stroke-linecap="butt" stroke-linejoin="round" stroke-miterlimit="4" stroke-opacity="1" stroke-width="2" d="m 11,1115.5196 0,2 c 0,1.108 0.892,2 2,2 l 1,0 0,-4 -3,0 z" opacity=".7"/><rect id="rect4304" width="5" height="5" x="-7" y="1066.52" fill="#fafafa" fill-opacity="1" fill-rule="nonzero" stroke="none" stroke-dasharray="none" stroke-dashoffset="0" stroke-linecap="butt" stroke-linejoin="miter" stroke-miterlimit="4" stroke-opacity="1" stroke-width="1" clip-rule="nonzero" color="#000" color-interpolation="sRGB" color-interpolation-filters="linearRGB" color-rendering="auto" display="inline" enable-background="accumulate" image-rendering="auto" opacity="1" overflow="visible" shape-rendering="auto" text-rendering="auto" visibility="visible" style="isolation:auto;mix-blend-mode:normal;solid-color:#000;solid-opacity:1"/><rect id="rect4306" width="5" height="5" x="-7" y="1074.52" fill="#e0e0e0" fill-opacity="1" fill-rule="nonzero" stroke="none" stroke-dasharray="none" stroke-dashoffset="0" stroke-linecap="butt" stroke-linejoin="miter" stroke-miterlimit="4" stroke-opacity="1" stroke-width="1" clip-rule="nonzero" color="#000" color-interpolation="sRGB" color-interpolation-filters="linearRGB" color-rendering="auto" display="inline" enable-background="accumulate" image-rendering="auto" opacity="1" overflow="visible" shape-rendering="auto" text-rendering="auto" visibility="visible" style="isolation:auto;mix-blend-mode:normal;solid-color:#000;solid-opacity:1"/><rect id="rect4182" width="42" height="53" x="11" y="1064.52" fill="#bdbdbd" fill-opacity="1" stroke="none" stroke-dasharray="none" stroke-linecap="butt" stroke-linejoin="round" stroke-miterlimit="4" stroke-opacity="1" stroke-width="2" opacity="1" ry="3"/><path id="path4318" fill="#e0e0e0" fill-opacity="1" stroke="none" stroke-dasharray="none" stroke-linecap="butt" stroke-linejoin="round" stroke-miterlimit="4" stroke-opacity="1" stroke-width="2" d="M 52 50 L 12 50 L 12 56 C 12 57.10797 12.89203 58 14 58 L 50 58 C 51.10797 58 52 57.10797 52 56 L 52 50 z" opacity="1" transform="translate(0,1058.5196)"/><path id="rect4258" fill="#e0e0e0" fill-opacity="1" stroke="none" stroke-dasharray="none" stroke-linecap="butt" stroke-linejoin="round" stroke-miterlimit="4" stroke-opacity="1" stroke-width="2" d="M 14 7 C 12.89203 7 12 7.8920295 12 9 L 12 50 L 52 50 L 52 9 C 52 7.8920295 51.10797 7 50 7 L 14 7 z" opacity="1" transform="translate(0,1058.5196)"/><path id="path4279" fill="url(#radialGradient4285)" fill-opacity="1" stroke="none" stroke-dasharray="none" stroke-linecap="butt" stroke-linejoin="round" stroke-miterlimit="4" stroke-opacity="1" stroke-width="2" d="m 47,1097.5196 0,4 1,0 c 1.108,0 2,-0.892 2,-2 l 0,-2 -3,0 z" opacity=".7"/><path id="path4281" fill="url(#linearGradient4287)" fill-opacity="1" stroke="none" stroke-dasharray="none" stroke-linecap="butt" stroke-linejoin="round" stroke-miterlimit="4" stroke-opacity="1" stroke-width="2" d="m 17,1097.5196 0,4 30,0 0,-4 z" opacity=".7"/><path id="path4283" fill="url(#radialGradient4289)" fill-opacity="1" stroke="none" stroke-dasharray="none" stroke-linecap="butt" stroke-linejoin="round" stroke-miterlimit="4" stroke-opacity="1" stroke-width="2" d="m 14,1097.5196 0,2 c 0,1.108 0.892,2 2,2 l 1,0 0,-4 -3,0 z" opacity=".7"/><path id="path4296" fill="#fafafa" fill-opacity="1" stroke="none" stroke-dasharray="none" stroke-linecap="round" stroke-linejoin="round" stroke-miterlimit="4" stroke-opacity="1" stroke-width="2" d="m 50,1073.5196 -36,0 0,24 c 0,1.108 0.89203,2 2,2 l 32,0 c 1.10797,0 2,-0.892 2,-2 z" opacity="1"/><path id="rect4275" fill="#4caf50" fill-opacity="1" stroke="none" stroke-dasharray="none" stroke-linecap="round" stroke-linejoin="round" stroke-miterlimit="4" stroke-opacity="1" stroke-width="2" d="m 16,1068.5196 c -1.10797,0 -2,0.892 -2,2 l 0,3 36,0 0,-3 c 0,-1.108 -0.89203,-2 -2,-2 z" opacity="1"/><rect id="rect4253" width="5" height="5" x="-7" y="1082.52" fill="#bdbdbd" fill-opacity="1" fill-rule="nonzero" stroke="none" stroke-dasharray="none" stroke-dashoffset="0" stroke-linecap="butt" stroke-linejoin="miter" stroke-miterlimit="4" stroke-opacity="1" stroke-width="1" clip-rule="nonzero" color="#000" color-interpolation="sRGB" color-interpolation-filters="linearRGB" color-rendering="auto" display="inline" enable-background="accumulate" image-rendering="auto" opacity="1" overflow="visible" shape-rendering="auto" text-rendering="auto" visibility="visible" style="isolation:auto;mix-blend-mode:normal;solid-color:#000;solid-opacity:1"/><rect id="rect4255" width="32" height="2" x="16" y="1075.519" fill="#9e9e9e" fill-opacity="1" stroke="none" stroke-dasharray="none" stroke-linecap="round" stroke-linejoin="round" stroke-miterlimit="4" stroke-opacity="1" stroke-width="2" opacity="1"/><rect id="rect4257" width="12" height="2" x="18" y="1081.519" fill="#bdbdbd" fill-opacity="1" stroke="none" stroke-dasharray="none" stroke-linecap="round" stroke-linejoin="round" stroke-miterlimit="4" stroke-opacity="1" stroke-width="2" opacity="1"/><rect id="rect4259" width="5" height="2" x="18" y="1085.519" fill="#bdbdbd" fill-opacity="1" stroke="none" stroke-dasharray="none" stroke-linecap="round" stroke-linejoin="round" stroke-miterlimit="4" stroke-opacity="1" stroke-width="2" opacity="1"/><rect id="rect4277" width="5" height="5" x="-7" y="1090.52" fill="#9e9e9e" fill-opacity="1" fill-rule="nonzero" stroke="none" stroke-dasharray="none" stroke-dashoffset="0" stroke-linecap="butt" stroke-linejoin="miter" stroke-miterlimit="4" stroke-opacity="1" stroke-width="1" clip-rule="nonzero" color="#000" color-interpolation="sRGB" color-interpolation-filters="linearRGB" color-rendering="auto" display="inline" enable-background="accumulate" image-rendering="auto" opacity="1" overflow="visible" shape-rendering="auto" text-rendering="auto" visibility="visible" style="isolation:auto;mix-blend-mode:normal;solid-color:#000;solid-opacity:1"/><rect id="rect4305" width="5" height="5" x="-7" y="1058.52" fill="#fff" fill-opacity="1" fill-rule="nonzero" stroke="#000" stroke-dasharray="none" stroke-dashoffset="0" stroke-linecap="butt" stroke-linejoin="miter" stroke-miterlimit="4" stroke-opacity="1" stroke-width="1" clip-rule="nonzero" color="#000" color-interpolation="sRGB" color-interpolation-filters="linearRGB" color-rendering="auto" display="inline" enable-background="accumulate" image-rendering="auto" opacity="1" overflow="visible" shape-rendering="auto" text-rendering="auto" visibility="visible" style="isolation:auto;mix-blend-mode:normal;solid-color:#000;solid-opacity:1"/><rect id="rect4320" width="5" height="5" x="-15" y="1058.52" fill="#4caf50" fill-opacity="1" fill-rule="nonzero" stroke="none" stroke-dasharray="none" stroke-dashoffset="0" stroke-linecap="butt" stroke-linejoin="miter" stroke-miterlimit="4" stroke-opacity="1" stroke-width="1" clip-rule="nonzero" color="#000" color-interpolation="sRGB" color-interpolation-filters="linearRGB" color-rendering="auto" display="inline" enable-background="accumulate" image-rendering="auto" opacity="1" overflow="visible" shape-rendering="auto" text-rendering="auto" visibility="visible" style="isolation:auto;mix-blend-mode:normal;solid-color:#000;solid-opacity:1"/><rect id="rect4181" width="36" height="6" x="14" y="1102.52" fill="#66bb6a" fill-opacity="1" stroke="none" stroke-dasharray="none" stroke-linecap="round" stroke-linejoin="round" stroke-miterlimit="4" stroke-opacity="1" stroke-width="2" opacity="1"/><rect id="rect4186" width="16" height="2" x="24" y="1104.52" fill="#fafafa" fill-opacity="1" stroke="none" stroke-dasharray="none" stroke-linecap="round" stroke-linejoin="round" stroke-miterlimit="4" stroke-opacity="1" stroke-width="2" opacity="1"/><path id="rect4188" fill="#bdbdbd" fill-opacity="1" stroke="none" stroke-dasharray="none" stroke-linecap="round" stroke-linejoin="round" stroke-miterlimit="4" stroke-opacity="1" stroke-width="2" d="M 21 52 C 20.44603 52 20 52.44603 20 53 L 20 54 C 20 54.55397 20.44603 55 21 55 L 27 55 C 27.55397 55 28 54.55397 28 54 L 28 53 C 28 52.44603 27.55397 52 27 52 L 21 52 z M 21 53 L 27 53 L 27 54 L 21 54 L 21 53 z" opacity="1" transform="translate(0,1058.5196)"/><path id="path4294" fill="url(#linearGradient4291)" fill-opacity="1" stroke="none" stroke-dasharray="none" stroke-linecap="round" stroke-linejoin="round" stroke-miterlimit="4" stroke-opacity="1" stroke-width="2" d="M 43 53 L 37 53 L 37 56 L 43 56 L 43 53 z" opacity="1" transform="translate(0,1058.5196)"/><path id="path4287" fill="url(#radialGradient4298)" fill-opacity="1" stroke="none" stroke-dasharray="none" stroke-linecap="round" stroke-linejoin="round" stroke-miterlimit="4" stroke-opacity="1" stroke-width="2" d="M 43 53 L 43 56 C 43.55397 56 44 55.55397 44 55 L 44 54 C 44 53.44603 43.55397 53 43 53 z" opacity="1" transform="translate(0,1058.5196)"/><path id="path4300" fill="url(#radialGradient4302)" fill-opacity="1" stroke="none" stroke-dasharray="none" stroke-linecap="round" stroke-linejoin="round" stroke-miterlimit="4" stroke-opacity="1" stroke-width="2" d="m 37,1111.5196 0,3 c -0.55397,0 -1,-0.446 -1,-1 l 0,-1 c 0,-0.554 0.44603,-1 1,-1 z" opacity="1"/><rect id="rect4208" width="8" height="3" x="36" y="1110.52" fill="#66bb6a" fill-opacity="1" stroke="none" stroke-dasharray="none" stroke-linecap="round" stroke-linejoin="round" stroke-miterlimit="4" stroke-opacity="1" stroke-width="2" opacity="1" ry="1"/><path id="rect4256" fill="#9e9e9e" fill-opacity="1" stroke="none" stroke-dasharray="none" stroke-linecap="round" stroke-linejoin="round" stroke-miterlimit="4" stroke-opacity="1" stroke-width="2" d="m 79,1081.5196 c -0.55397,0 -1,0.446 -1,1 l 0,12 c 0,0.554 0.44603,1 1,1 l 6,0 c 0.55397,0 1,-0.446 1,-1 l 0,-12 c 0,-0.554 -0.44603,-1 -1,-1 l -6,0 z m 0,1 6,0 0,1 -6,0 0,-1 z m 0,2 6,0 0,8 -6,0 0,-8 z m 1.5,1 a 0.5,0.5 0 0 0 -0.5,0.5 0.5,0.5 0 0 0 0.5,0.5 0.5,0.5 0 0 0 0.5,-0.5 0.5,0.5 0 0 0 -0.5,-0.5 z m 3.5,1 -1.412109,1.8828 L 82,1087.5196 l -2,3 1,0 3,0 0,-3 0,-1 z m -5,7 2,0 0,1 -2,0 0,-1 z m 4,0 2,0 0,1 -2,0 0,-1 z" opacity="1"/><path id="path4294-3" fill="url(#linearGradient4291-4)" fill-opacity="1" stroke="none" stroke-dasharray="none" stroke-linecap="round" stroke-linejoin="round" stroke-miterlimit="4" stroke-opacity="1" stroke-width="2" d="m 28,1091.5195 -6,0 0,3 6,0 0,-3 z" opacity="1"/><path id="path4287-8" fill="url(#radialGradient4298-4)" fill-opacity="1" stroke="none" stroke-dasharray="none" stroke-linecap="round" stroke-linejoin="round" stroke-miterlimit="4" stroke-opacity="1" stroke-width="2" d="m 28,1091.5195 0,3 c 0.55397,0 1,-0.446 1,-1 l 0,-1 c 0,-0.5539 -0.44603,-1 -1,-1 z" opacity="1"/><path id="path4300-3" fill="url(#radialGradient4302-3)" fill-opacity="1" stroke="none" stroke-dasharray="none" stroke-linecap="round" stroke-linejoin="round" stroke-miterlimit="4" stroke-opacity="1" stroke-width="2" d="m 22,1091.5195 0,3 c -0.55397,0 -1,-0.446 -1,-1 l 0,-1 c 0,-0.554 0.44603,-1 1,-1 z" opacity="1"/><rect id="rect4208-6" width="8" height="3" x="21" y="1090.52" fill="#66bb6a" fill-opacity="1" stroke="none" stroke-dasharray="none" stroke-linecap="round" stroke-linejoin="round" stroke-miterlimit="4" stroke-opacity="1" stroke-width="2" opacity="1" ry="1"/><path id="path4201" fill="url(#linearGradient4209)" fill-opacity="1" fill-rule="evenodd" stroke="none" stroke-linecap="butt" stroke-linejoin="miter" stroke-opacity="1" stroke-width="1" d="m 33,1081.5196 1,13 6,2 6,-2 1,-13 -7,0 -7,0 z m 1.900391,2 1.699218,0 3.400391,0 2,0 1.398438,0 1.699218,0 -0.298828,2 -1,0 -1.498047,0 -2.300781,0 -3.050781,0 0.25,2 2.800781,0 4.650391,0 -0.201172,2 -0.5,4 -1.949219,0.5 -2,0.5 -2,-0.5 -1.550781,-0.5 -0.449219,-3 1.699219,0 0.15039,1.4004 2.150391,0.7988 2.5,-0.7988 0.25,-2.4004 -2.75,0 -4.199219,0 -0.300781,-2 -0.599609,-4 z"/><path id="path4181-6" fill="#ff7043" fill-opacity="1" fill-rule="evenodd" stroke="none" stroke-linecap="butt" stroke-linejoin="miter" stroke-opacity="1" stroke-width="1" d="m 33,1080.5196 1,13 6,2 6,-2 1,-13 -7,0 -7,0 z m 1.900391,2 1.699218,0 3.400391,0 2,0 1.398438,0 1.699218,0 -0.298828,2 -1,0 -1.498047,0 -2.300781,0 -3.050781,0 0.25,2 2.800781,0 4.650391,0 -0.201172,2 -0.5,4 -1.949219,0.5 -2,0.5 -2,-0.5 -1.550781,-0.5 -0.449219,-3 1.699219,0 0.15039,1.4004 2.150391,0.7988 2.5,-0.7988 0.25,-2.4004 -2.75,0 -4.199219,0 -0.300781,-2 -0.599609,-4 z"/><rect id="rect4320-9" width="5" height="5" x="-23" y="1058.52" fill="#ff7043" fill-opacity="1" fill-rule="nonzero" stroke="none" stroke-dasharray="none" stroke-dashoffset="0" stroke-linecap="butt" stroke-linejoin="miter" stroke-miterlimit="4" stroke-opacity="1" stroke-width="1" clip-rule="nonzero" color="#000" color-interpolation="sRGB" color-interpolation-filters="linearRGB" color-rendering="auto" display="inline" enable-background="accumulate" image-rendering="auto" opacity="1" overflow="visible" shape-rendering="auto" text-rendering="auto" visibility="visible" style="isolation:auto;mix-blend-mode:normal;solid-color:#000;solid-opacity:1"/></g></svg>