<svg xmlns="http://www.w3.org/2000/svg" xmlns:svg="http://www.w3.org/2000/svg" xmlns:xlink="http://www.w3.org/1999/xlink" id="svg2" width="64" height="64" version="1.1" viewBox="0 0 64 64"><defs id="defs4"><radialGradient id="radialGradient4259" cx="4" cy="42.5" r="1.5" fx="4" fy="42.5" gradientTransform="matrix(-2.0000003,-2.935184e-6,3.9135795e-6,-2.6666677,21.99984,1228.853)" gradientUnits="userSpaceOnUse" xlink:href="#Shadow"/><linearGradient id="Shadow"><stop id="stop4186" offset="0" stop-color="#000" stop-opacity="1"/><stop id="stop4188" offset="1" stop-color="#000" stop-opacity="0"/></linearGradient><linearGradient id="linearGradient4257" x1="24" x2="24" y1="42" y2="46" gradientTransform="translate(9,1073.5196)" gradientUnits="userSpaceOnUse" xlink:href="#Shadow"/><radialGradient id="radialGradient4255" cx="44" cy="42.5" r="1.5" fx="44" fy="42.5" gradientTransform="matrix(-5.6193702e-6,2.666668,-2.0000002,-4.214526e-6,135.00027,998.1864)" gradientUnits="userSpaceOnUse" xlink:href="#Shadow"/><linearGradient id="linearGradient4349"><stop id="stop4351" offset="0" stop-color="#000" stop-opacity=".196"/><stop id="stop4353" offset=".867" stop-color="#000" stop-opacity=".196"/><stop id="stop4355" offset="1" stop-color="#000" stop-opacity="0"/></linearGradient><linearGradient id="linearGradient4266" x1="42" x2="42" y1="1070.52" y2="1085.52" gradientUnits="userSpaceOnUse" xlink:href="#linearGradient4349"/></defs><metadata id="metadata7"/><g id="layer1" transform="translate(0,-1058.5196)"><rect id="rect4304" width="5" height="5" x="-7" y="1066.52" fill="#546e7a" fill-opacity="1" fill-rule="nonzero" stroke="none" stroke-dasharray="none" stroke-dashoffset="0" stroke-linecap="butt" stroke-linejoin="miter" stroke-miterlimit="4" stroke-opacity="1" stroke-width="1" clip-rule="nonzero" color="#000" color-interpolation="sRGB" color-interpolation-filters="linearRGB" color-rendering="auto" display="inline" enable-background="accumulate" image-rendering="auto" opacity="1" overflow="visible" shape-rendering="auto" text-rendering="auto" visibility="visible" style="isolation:auto;mix-blend-mode:normal;solid-color:#000;solid-opacity:1"/><rect id="rect4306" width="5" height="5" x="-7" y="1074.52" fill="#455a64" fill-opacity="1" fill-rule="nonzero" stroke="none" stroke-dasharray="none" stroke-dashoffset="0" stroke-linecap="butt" stroke-linejoin="miter" stroke-miterlimit="4" stroke-opacity="1" stroke-width="1" clip-rule="nonzero" color="#000" color-interpolation="sRGB" color-interpolation-filters="linearRGB" color-rendering="auto" display="inline" enable-background="accumulate" image-rendering="auto" opacity="1" overflow="visible" shape-rendering="auto" text-rendering="auto" visibility="visible" style="isolation:auto;mix-blend-mode:normal;solid-color:#000;solid-opacity:1"/><path id="path4249" fill="url(#radialGradient4255)" fill-opacity="1" stroke="none" stroke-dasharray="none" stroke-linecap="butt" stroke-linejoin="round" stroke-miterlimit="4" stroke-opacity="1" stroke-width="2" d="m 50,1115.5196 0,4 1,0 c 1.108,0 2,-0.892 2,-2 l 0,-2 -3,0 z" opacity=".7"/><path id="path4251" fill="url(#linearGradient4257)" fill-opacity="1" stroke="none" stroke-dasharray="none" stroke-linecap="butt" stroke-linejoin="round" stroke-miterlimit="4" stroke-opacity="1" stroke-width="2" d="m 14,1115.5196 0,4 36,0 0,-4 z" opacity=".7"/><path id="path4253" fill="url(#radialGradient4259)" fill-opacity="1" stroke="none" stroke-dasharray="none" stroke-linecap="butt" stroke-linejoin="round" stroke-miterlimit="4" stroke-opacity="1" stroke-width="2" d="m 11,1115.5196 0,2 c 0,1.108 0.892,2 2,2 l 1,0 0,-4 -3,0 z" opacity=".7"/><rect id="rect4182" width="42" height="53" x="11" y="1064.52" fill="#455a64" fill-opacity="1" stroke="none" stroke-dasharray="none" stroke-linecap="butt" stroke-linejoin="round" stroke-miterlimit="4" stroke-opacity="1" stroke-width="2" opacity="1" ry="3"/><rect id="rect4258" width="40" height="51" x="12" y="1065.52" fill="#546e7a" fill-opacity="1" stroke="none" stroke-dasharray="none" stroke-linecap="butt" stroke-linejoin="round" stroke-miterlimit="4" stroke-opacity="1" stroke-width="2" opacity="1" ry="2"/><rect id="rect4156" width="5" height="5" x="-7" y="1058.52" fill="#90a4ae" fill-opacity="1" fill-rule="nonzero" stroke="none" stroke-dasharray="none" stroke-dashoffset="0" stroke-linecap="butt" stroke-linejoin="miter" stroke-miterlimit="4" stroke-opacity="1" stroke-width="1" clip-rule="nonzero" color="#000" color-interpolation="sRGB" color-interpolation-filters="linearRGB" color-rendering="auto" display="inline" enable-background="accumulate" image-rendering="auto" opacity="1" overflow="visible" shape-rendering="auto" text-rendering="auto" visibility="visible" style="isolation:auto;mix-blend-mode:normal;solid-color:#000;solid-opacity:1"/><rect id="rect4218" width="3" height="2" x="15" y="1070.52" fill="#ce93d8" fill-opacity="1" stroke="none" stroke-dasharray="none" stroke-linecap="round" stroke-linejoin="round" stroke-miterlimit="4" stroke-opacity="1" stroke-width="2" opacity="1"/><path id="path4206" fill="#90a4ae" fill-opacity="1" stroke="none" stroke-dasharray="none" stroke-linecap="round" stroke-linejoin="round" stroke-miterlimit="4" stroke-opacity="1" stroke-width="2" d="m 20,1070.5196 0,2 6,0 0,-2 -6,0 z" opacity="1"/><path id="path4204" fill="#90a4ae" fill-opacity="1" stroke="none" stroke-dasharray="none" stroke-linecap="round" stroke-linejoin="round" stroke-miterlimit="4" stroke-opacity="1" stroke-width="2" d="m 24,1074.5196 0,2 6,0 0,-2 -6,0 z" opacity="1"/><path id="path4202" fill="#90a4ae" fill-opacity="1" stroke="none" stroke-dasharray="none" stroke-linecap="round" stroke-linejoin="round" stroke-miterlimit="4" stroke-opacity="1" stroke-width="2" d="m 20,1078.5196 0,2 10,0 0,-2 -10,0 z" opacity="1"/><path id="path4200" fill="#80cbc4" fill-opacity="1" stroke="none" stroke-dasharray="none" stroke-linecap="round" stroke-linejoin="round" stroke-miterlimit="4" stroke-opacity="1" stroke-width="2" d="m 22,1082.5196 0,2 6,0 0,-2 -6,0 z" opacity="1"/><rect id="rect4220" width="7" height="2" x="15" y="1088.52" fill="#ce93d8" fill-opacity="1" stroke="none" stroke-dasharray="none" stroke-linecap="round" stroke-linejoin="round" stroke-miterlimit="4" stroke-opacity="1" stroke-width="2" opacity="1"/><path id="path4196" fill="#90a4ae" fill-opacity="1" stroke="none" stroke-dasharray="none" stroke-linecap="round" stroke-linejoin="round" stroke-miterlimit="4" stroke-opacity="1" stroke-width="2" d="m 24,1088.5196 0,2 15,0 0,-2 -15,0 z" opacity="1"/><rect id="rect4222" width="11" height="2" x="21" y="1092.52" fill="#fff59d" fill-opacity="1" stroke="none" stroke-dasharray="none" stroke-linecap="round" stroke-linejoin="round" stroke-miterlimit="4" stroke-opacity="1" stroke-width="2" opacity="1"/><path id="path4192" fill="#90a4ae" fill-opacity="1" stroke="none" stroke-dasharray="none" stroke-linecap="round" stroke-linejoin="round" stroke-miterlimit="4" stroke-opacity="1" stroke-width="2" d="m 24,1096.5196 0,2 21,0 0,-2 -21,0 z" opacity="1"/><path id="path4190" fill="#80cbc4" fill-opacity="1" stroke="none" stroke-dasharray="none" stroke-linecap="round" stroke-linejoin="round" stroke-miterlimit="4" stroke-opacity="1" stroke-width="2" d="m 24,1100.5196 0,2 15,0 0,-2 -15,0 z" opacity="1"/><path id="path4188" fill="#90a4ae" fill-opacity="1" stroke="none" stroke-dasharray="none" stroke-linecap="round" stroke-linejoin="round" stroke-miterlimit="4" stroke-opacity="1" stroke-width="2" d="m 21,1104.5196 0,2 11,0 0,-2 -11,0 z" opacity="1"/><rect id="rect4224" width="8" height="2" x="21" y="1108.52" fill="#fff59d" fill-opacity="1" stroke="none" stroke-dasharray="none" stroke-linecap="round" stroke-linejoin="round" stroke-miterlimit="4" stroke-opacity="1" stroke-width="2" opacity="1"/><rect id="rect4210" width="5" height="5" x="-15" y="1058.52" fill="#ce93d8" fill-opacity="1" fill-rule="nonzero" stroke="none" stroke-dasharray="none" stroke-dashoffset="0" stroke-linecap="butt" stroke-linejoin="miter" stroke-miterlimit="4" stroke-opacity="1" stroke-width="1" clip-rule="nonzero" color="#000" color-interpolation="sRGB" color-interpolation-filters="linearRGB" color-rendering="auto" display="inline" enable-background="accumulate" image-rendering="auto" opacity="1" overflow="visible" shape-rendering="auto" text-rendering="auto" visibility="visible" style="isolation:auto;mix-blend-mode:normal;solid-color:#000;solid-opacity:1"/><rect id="rect4212" width="5" height="2" x="15" y="1104.52" fill="#ce93d8" fill-opacity="1" stroke="none" stroke-dasharray="none" stroke-linecap="round" stroke-linejoin="round" stroke-miterlimit="4" stroke-opacity="1" stroke-width="2" opacity="1"/><rect id="rect4216" width="5" height="5" x="-23" y="1058.52" fill="#fff59d" fill-opacity="1" fill-rule="nonzero" stroke="none" stroke-dasharray="none" stroke-dashoffset="0" stroke-linecap="butt" stroke-linejoin="miter" stroke-miterlimit="4" stroke-opacity="1" stroke-width="1" clip-rule="nonzero" color="#000" color-interpolation="sRGB" color-interpolation-filters="linearRGB" color-rendering="auto" display="inline" enable-background="accumulate" image-rendering="auto" opacity="1" overflow="visible" shape-rendering="auto" text-rendering="auto" visibility="visible" style="isolation:auto;mix-blend-mode:normal;solid-color:#000;solid-opacity:1"/><rect id="rect4226" width="5" height="5" x="-31" y="1058.52" fill="#80cbc4" fill-opacity="1" fill-rule="nonzero" stroke="none" stroke-dasharray="none" stroke-dashoffset="0" stroke-linecap="butt" stroke-linejoin="miter" stroke-miterlimit="4" stroke-opacity="1" stroke-width="1" clip-rule="nonzero" color="#000" color-interpolation="sRGB" color-interpolation-filters="linearRGB" color-rendering="auto" display="inline" enable-background="accumulate" image-rendering="auto" opacity="1" overflow="visible" shape-rendering="auto" text-rendering="auto" visibility="visible" style="isolation:auto;mix-blend-mode:normal;solid-color:#000;solid-opacity:1"/><path id="path4252" fill="#90a4ae" fill-opacity="1" stroke="none" stroke-dasharray="none" stroke-linecap="round" stroke-linejoin="round" stroke-miterlimit="4" stroke-opacity="1" stroke-width="2" d="m 82,1068.5196 c -1.108,0 -2,0.892 -2,2 l 0,2 0,3 c 0,0 0,0.062 -0.03125,0.1563 C 79.875,1075.9571 79.5,1076.5196 78,1076.5196 l 0,1 c 1.5,0 1.875,0.5625 1.96875,0.8438 C 80,1078.4576 80,1078.5196 80,1078.5196 l 0,3 0,2 c 0,1.108 0.892,2 2,2 l 0,-1 c -0.554,0 -1,-0.446 -1,-1 l 0,-2 0,-3 c 0,-0.6015 -0.267955,-1.134 -0.685547,-1.5 0.417592,-0.366 0.685547,-0.8985 0.685547,-1.5 l 0,-3 0,-2 c 0,-0.554 0.446,-1 1,-1 l 0,-1 z m 3,0 0,1 c 0.554,0 1,0.446 1,1 l 0,2 0,3 c 0,0.6015 0.267955,1.134 0.685547,1.5 -0.417592,0.366 -0.685547,0.8985 -0.685547,1.5 l 0,3 0,2 c 0,0.554 -0.446,1 -1,1 l 0,1 c 1.108,0 2,-0.892 2,-2 l 0,-2 0,-3 c 0,0 0,-0.062 0.03125,-0.1562 C 87.125,1078.0821 87.5,1077.5196 89,1077.5196 l 0,-1 c -1.5,0 -1.875,-0.5625 -1.96875,-0.8437 C 87,1075.5816 87,1075.5196 87,1075.5196 l 0,-3 0,-2 c 0,-1.108 -0.892,-2 -2,-2 z" opacity="1"/><path id="path4248" fill="url(#linearGradient4266)" fill-opacity="1" fill-rule="evenodd" stroke="none" stroke-linecap="butt" stroke-linejoin="miter" stroke-opacity="1" stroke-width="1" d="m 35,1070.5196 1,13 6,2 6,-2 1,-13 -7,0 -7,0 z m 1.902344,2 1.699218,0 1.398438,0 2,0 3.400391,0 1.699218,0 -0.599609,4 -0.300781,2 -0.648438,4 -1.550781,0.5 -2,0.5 -2,-0.5 -1.949219,-0.5 -0.25,-2 1.658203,0 0.04102,0.4004 2.5,0.7988 2.150391,-0.7988 0.15039,-1.4004 0.107422,-1 -2.408203,0 -1,0 -1.75,0 -1.699219,0 -0.201172,-2 4.650391,0 2.800781,0 0.25,-2 -3.050781,0 -2.300781,0 -1.498047,0 -1,0 -0.298828,-2 z"/><path id="path4181" fill="#81d4fa" fill-opacity="1" fill-rule="evenodd" stroke="none" stroke-linecap="butt" stroke-linejoin="miter" stroke-opacity="1" stroke-width="1" d="M 35 11 L 36 24 L 42 26 L 48 24 L 49 11 L 42 11 L 35 11 z M 36.902344 13 L 38.601562 13 L 40 13 L 42 13 L 45.400391 13 L 47.099609 13 L 46.5 17 L 46.199219 19 L 45.550781 23 L 44 23.5 L 42 24 L 40 23.5 L 38.050781 23 L 37.800781 21 L 39.458984 21 L 39.5 21.400391 L 42 22.199219 L 44.150391 21.400391 L 44.300781 20 L 44.408203 19 L 42 19 L 41 19 L 39.25 19 L 37.550781 19 L 37.349609 17 L 42 17 L 44.800781 17 L 45.050781 15 L 42 15 L 39.699219 15 L 38.201172 15 L 37.201172 15 L 36.902344 13 z" transform="translate(0,1058.5196)"/><rect id="rect4181" width="5" height="5" x="-39" y="1058.52" fill="#81d4fa" fill-opacity="1" fill-rule="nonzero" stroke="none" stroke-dasharray="none" stroke-dashoffset="0" stroke-linecap="butt" stroke-linejoin="miter" stroke-miterlimit="4" stroke-opacity="1" stroke-width="1" clip-rule="nonzero" color="#000" color-interpolation="sRGB" color-interpolation-filters="linearRGB" color-rendering="auto" display="inline" enable-background="accumulate" image-rendering="auto" opacity="1" overflow="visible" shape-rendering="auto" text-rendering="auto" visibility="visible" style="isolation:auto;mix-blend-mode:normal;solid-color:#000;solid-opacity:1"/></g></svg>