<svg xmlns="http://www.w3.org/2000/svg" xmlns:svg="http://www.w3.org/2000/svg" xmlns:xlink="http://www.w3.org/1999/xlink" id="svg2" width="48" height="48" version="1.1"><metadata id="metadata12"/><defs id="defs4"><linearGradient id="Shadow"><stop id="stop4186" offset="0" stop-color="#000" stop-opacity="1"/><stop id="stop4188" offset="1" stop-color="#000" stop-opacity="0"/></linearGradient><linearGradient id="linearGradient4190" x1="24" x2="24" y1="42" y2="46" gradientUnits="userSpaceOnUse" xlink:href="#Shadow"/><radialGradient id="radialGradient4200" cx="44" cy="42.5" r="1.5" fx="44" fy="42.5" gradientTransform="matrix(-5.6193702e-6,2.666668,-2.0000002,-4.214526e-6,129.00027,-75.333217)" gradientUnits="userSpaceOnUse" xlink:href="#Shadow"/><radialGradient id="radialGradient4208" cx="4" cy="42.5" r="1.5" fx="4" fy="42.5" gradientTransform="matrix(-2.0000003,-2.935184e-6,3.9135795e-6,-2.6666677,11.999835,155.33339)" gradientUnits="userSpaceOnUse" xlink:href="#Shadow"/></defs><g id="layer1"><path id="path4174" fill="url(#radialGradient4200)" fill-opacity="1" stroke="none" stroke-dasharray="none" stroke-linecap="butt" stroke-linejoin="round" stroke-miterlimit="4" stroke-opacity="1" stroke-width="2" d="M 44 42 L 44 46 L 45 46 C 46.108 46 47 45.108 47 44 L 47 42 L 44 42 z" opacity=".7"/><path id="path4169" fill="url(#linearGradient4190)" fill-opacity="1" stroke="none" stroke-dasharray="none" stroke-linecap="butt" stroke-linejoin="round" stroke-miterlimit="4" stroke-opacity="1" stroke-width="2" d="M 4 42 L 4 46 L 44 46 L 44 42 L 4 42 z" opacity=".7"/><path id="rect4157" fill="url(#radialGradient4208)" fill-opacity="1" stroke="none" stroke-dasharray="none" stroke-linecap="butt" stroke-linejoin="round" stroke-miterlimit="4" stroke-opacity="1" stroke-width="2" d="M 1 42 L 1 44 C 1 45.108 1.892 46 3 46 L 4 46 L 4 42 L 1 42 z" opacity=".7"/><path id="rect4161-7" fill="#ebb10f" fill-opacity="1" stroke="none" stroke-dasharray="none" stroke-linecap="round" stroke-linejoin="round" stroke-miterlimit="4" stroke-opacity=".528" stroke-width="2" d="m 15,8.99997 0,3 0,10 0,4.00003 32,0 0,-5.00003 0,-9 c 0,-1.66199 -1.33803,-3.0075498 -3,-3 l -22,0 -4,0 z" opacity="1"/><path id="rect4188" fill="#e8e5dc" fill-opacity="1" stroke="none" stroke-dasharray="none" stroke-linecap="butt" stroke-linejoin="round" stroke-miterlimit="4" stroke-opacity="1" stroke-width="2" d="m 21,11 22,0 c 1.108,0 2,0.892 2,2 l 0,3 c 0,1.108 -0.892,2 -2,2 l -22,0 c -1.108,0 -2,-0.892 -2,-2 l 0,-3 c 0,-1.108 0.892,-2 2,-2 z" opacity="1"/><path id="rect4190" fill="#fffbec" fill-opacity="1" stroke="none" stroke-dasharray="none" stroke-linecap="butt" stroke-linejoin="round" stroke-miterlimit="4" stroke-opacity="1" stroke-width="2" d="m 21,12 22,0 c 0.554,0 1,0.446 1,1 l 0,4 c 0,0.554 -0.446,1 -1,1 l -22,0 c -0.554,0 -1,-0.446 -1,-1 l 0,-4 c 0,-0.554 0.446,-1 1,-1 z" opacity="1"/><path id="path4221" fill="#f5d169" fill-opacity="1" stroke="none" stroke-dasharray="none" stroke-linecap="round" stroke-linejoin="round" stroke-miterlimit="4" stroke-opacity=".528" stroke-width="2" d="m 4,6.0000102 c -1.66199,10e-6 -3,1.33797 -3,2.99991 L 1,41.00009 C 1,42.66203 2.33801,44 4,44 l 15,0 6,0 19,0 c 1.66199,0 3,-1.33797 3,-2.99991 l 0,-24.00017 c 0,-1.66194 -1.33801,-2.99998 -3,-2.99991 l -19,0 -2,-7.0000499 C 22.84781,6.4672901 22.554,5.9996702 22,5.9999802 l -2,0 -1,0 z" opacity="1"/><path id="path4183-7" fill="#f6d87e" fill-opacity="1" stroke="none" stroke-dasharray="none" stroke-linecap="round" stroke-linejoin="round" stroke-miterlimit="4" stroke-opacity=".528" stroke-width="2" d="m 4,7.0011102 c -1.10799,0 -2,0.89198 -2,1.9999298 L 2,41.00006 C 2,42.10802 2.89201,43 4,43 l 15,0 5,0 20,0 c 1.108,0 2,-0.89198 2,-1.99994 l 0,-23.99927 c 0,-1.10795 -0.89201,-2.00547 -2,-1.99994 l -20,0 -2,-6.9997698 c -0.15219,-0.53267 -0.44669,-1.0276401 -1,-0.99997 l -2,0 z" opacity="1"/></g></svg>