<svg xmlns="http://www.w3.org/2000/svg" xmlns:svg="http://www.w3.org/2000/svg" id="svg2" version="1.1" viewBox="0 0 16 16"><metadata id="metadata14"/><path id="path4194" fill="#bebebe" fill-opacity="1" stroke="none" stroke-dasharray="none" stroke-linecap="round" stroke-linejoin="miter" stroke-miterlimit="4" stroke-opacity=".299" stroke-width=".1" d="M 3 2 L 3 4 L 3 14 L 3.0058594 14 L 3.8378906 13.498047 L 5 12.800781 L 5 12.794922 L 7 11.587891 L 7 11.601562 L 7.5 11.300781 L 7.5 11.289062 L 8 10.988281 L 8 8.6484375 L 7.5 8.9511719 L 7 9.2539062 L 5 10.460938 L 5 4 L 7.5 4 L 8.5820312 4 L 11 4 L 11 7 L 13 7 L 13 4 L 13 2 L 8.5820312 2 L 7.5 2 L 3 2 z" opacity="1"/><rect id="rect4189" width="2" height="6" x="11" y="8" fill="#bebebe" fill-opacity="1" stroke="none" stroke-opacity="1" stroke-width="1.095" opacity="1"/><rect id="rect4193" width="2" height="6" x="10" y="-15" fill="#bebebe" fill-opacity="1" stroke="none" stroke-opacity="1" stroke-width="1.095" opacity="1" transform="rotate(90)"/></svg>