<svg xmlns="http://www.w3.org/2000/svg" xmlns:svg="http://www.w3.org/2000/svg" xmlns:xlink="http://www.w3.org/1999/xlink" id="svg4017" width="128" height="128" version="1.1"><defs id="defs4019"><linearGradient id="linearGradient3221" x1="16.626" x2="20.055" y1="15.298" y2="24.628" gradientTransform="matrix(2.2144204,0,0,3.4699564,10.750311,-99.821123)" gradientUnits="userSpaceOnUse" xlink:href="#linearGradient8265-821-176-38-919-66-249-7-7"/><linearGradient id="linearGradient8265-821-176-38-919-66-249-7-7"><stop id="stop2687-1-9" offset="0" stop-color="#fff" stop-opacity="1"/><stop id="stop2689-5-4" offset="1" stop-color="#fff" stop-opacity="0"/></linearGradient><linearGradient id="linearGradient3224" x1="24" x2="24" y1="5" y2="43" gradientTransform="matrix(2.7297298,0,0,2.7297298,-1.5135113,-94.513486)" gradientUnits="userSpaceOnUse" xlink:href="#linearGradient3924"/><linearGradient id="linearGradient3924"><stop id="stop3926" offset="0" stop-color="#fff" stop-opacity="1"/><stop id="stop3928" offset=".063" stop-color="#fff" stop-opacity=".235"/><stop id="stop3930" offset=".951" stop-color="#fff" stop-opacity=".157"/><stop id="stop3932" offset="1" stop-color="#fff" stop-opacity=".392"/></linearGradient><radialGradient id="radialGradient3227" cx="24.051" cy="8.45" r="20" fx="24.051" fy="8.45" gradientTransform="matrix(6.1720513,-1.2738284e-7,0,5.2374606,-84.445906,-21.034358)" gradientUnits="userSpaceOnUse" xlink:href="#linearGradient3700-8"/><linearGradient id="linearGradient3700-8"><stop id="stop3702-1" offset="0" stop-color="#2e4f84" stop-opacity="1"/><stop id="stop3704-8" offset="1" stop-color="#4c77c5" stop-opacity="1"/></linearGradient><linearGradient id="linearGradient3229" x1="24" x2="24" y1="44" y2="3.899" gradientTransform="matrix(2.641026,0,0,2.641026,0.6153901,-92.384616)" gradientUnits="userSpaceOnUse" xlink:href="#linearGradient3976"/><linearGradient id="linearGradient3976"><stop id="stop3978" offset="0" stop-color="#2a497a" stop-opacity="1"/><stop id="stop3980" offset="1" stop-color="#517bc7" stop-opacity="1"/></linearGradient><radialGradient id="radialGradient3190" cx="4.993" cy="43.5" r="2.5" fx="4.993" fy="43.5" gradientTransform="matrix(2.003784,0,0,1.4,27.98813,-17.4)" gradientUnits="userSpaceOnUse" xlink:href="#linearGradient3688-166-749"/><linearGradient id="linearGradient3688-166-749"><stop id="stop2883" offset="0" stop-color="#181818" stop-opacity="1"/><stop id="stop2885" offset="1" stop-color="#181818" stop-opacity="0"/></linearGradient><radialGradient id="radialGradient3192" cx="4.993" cy="43.5" r="2.5" fx="4.993" fy="43.5" gradientTransform="matrix(2.003784,0,0,1.4,-20.01187,-104.4)" gradientUnits="userSpaceOnUse" xlink:href="#linearGradient3688-464-309"/><linearGradient id="linearGradient3688-464-309"><stop id="stop2889" offset="0" stop-color="#181818" stop-opacity="1"/><stop id="stop2891" offset="1" stop-color="#181818" stop-opacity="0"/></linearGradient><linearGradient id="linearGradient3194" x1="25.058" x2="25.058" y1="47.028" y2="39.999" gradientUnits="userSpaceOnUse" xlink:href="#linearGradient3702-501-757"/><linearGradient id="linearGradient3702-501-757"><stop id="stop2895" offset="0" stop-color="#181818" stop-opacity="0"/><stop id="stop2897" offset=".5" stop-color="#181818" stop-opacity="1"/><stop id="stop2899" offset="1" stop-color="#181818" stop-opacity="0"/></linearGradient></defs><metadata id="metadata4022"/><g id="layer1" transform="translate(0,96)"><g id="g2036" display="inline" transform="matrix(2.9499988,0,0,1.2222234,-6.8000012,-30.444463)"><g id="g3712" opacity=".4" transform="matrix(1.052632,0,0,1.285713,-1.263158,-13.42854)"><rect id="rect2801" width="5" height="7" x="38" y="40" fill="url(#radialGradient3190)" fill-opacity="1" stroke="none"/><rect id="rect3696" width="5" height="7" x="-10" y="-47" fill="url(#radialGradient3192)" fill-opacity="1" stroke="none" transform="scale(-1,-1)"/><rect id="rect3700" width="28" height="7" x="10" y="40" fill="url(#linearGradient3194)" fill-opacity="1" stroke="none"/></g></g><rect id="rect5505-21" width="103" height="103" x="12.5" y="-80.5" fill="url(#radialGradient3227)" fill-opacity="1" fill-rule="nonzero" stroke="url(#linearGradient3229)" stroke-dasharray="none" stroke-dashoffset="0" stroke-linecap="round" stroke-linejoin="round" stroke-miterlimit="4" stroke-opacity="1" stroke-width="1" color="#000" display="inline" enable-background="accumulate" overflow="visible" rx="6" ry="6" visibility="visible" style="marker:none"/><rect id="rect6741-7" width="101" height="101" x="13.5" y="-79.5" fill="none" stroke="url(#linearGradient3224)" stroke-dasharray="none" stroke-dashoffset="0" stroke-linecap="round" stroke-linejoin="round" stroke-miterlimit="4" stroke-opacity="1" stroke-width="1" opacity=".5" rx="5" ry="5"/><path id="path3333" fill="url(#linearGradient3221)" fill-opacity="1" fill-rule="evenodd" stroke="none" d="M 17.680826,-80 C 15.857736,-80 13,-77.566759 13,-75.2 L 13.03394,-16 C 15.968234,-16.064449 112.7728,-39.591754 115,-40.723443 L 115,-75.2 c 0,-1.809077 -2.133,-4.8 -3.71161,-4.8 z" opacity=".2"/><path id="rect5505-21-9" fill="#fff" fill-opacity="1" fill-rule="nonzero" stroke="none" stroke-width="1" d="m 13,1 0,15 c 0,3.324 2.650019,6 5.941748,6 l 90.116502,0 C 112.34998,22 115,19.324 115,16 l 0,-15 z" color="#000" display="inline" enable-background="accumulate" opacity=".2" overflow="visible" visibility="visible" style="marker:none"/><path id="path4037-0-2" fill="#2c4775" fill-opacity=".976" fill-rule="nonzero" stroke-dasharray="none" stroke-dashoffset="0" stroke-linecap="butt" stroke-linejoin="miter" stroke-miterlimit="4" stroke-opacity="1" stroke-width=".994" d="m 81.84375,-68.53125 c -7.762135,0 -13.489001,1.979285 -17.125,5.9375 C 61.082751,-58.635535 59.75,-53.047837 59.75,-46.5 l 0,6.4375 -7.90625,0 a 2.0544251,2.0448406 0 0 0 -2.0625,2.03125 l 0,16.125 a 2.0544251,2.0448406 0 0 0 2.0625,2.03125 l 7.90625,0 0,41.875 c 0.08205,-0.003 0.167107,0 0.25,0 l 19,0 c 1.236316,0 2.359814,0.35447 3.3125,0.9375 a 2.0544251,2.0448406 0 0 0 0.03125,-0.28125 l 0,-42.53125 10.3125,0 a 2.0544251,2.0448406 0 0 0 2.03125,-1.8125 l 1.65625,-16.125 a 2.0544251,2.0448406 0 0 0 -2.0625,-2.25 l -11.9375,0 0.03125,-4.90625 c 0,-1.940909 0.21053,-2.98152 0.46875,-3.3125 0.25822,-0.33098 0.996523,-0.8125 3.625,-0.8125 l 7.71875,0 A 2.0544251,2.0448406 0 0 0 96.25,-51.125 l 0,-15.375 a 2.0544251,2.0448406 0 0 0 -2.0625,-2.03125 l -12.34375,0 z" color="#000" display="inline" enable-background="accumulate" opacity=".15" overflow="visible" visibility="visible" style="marker:none"/><path id="path4037-0" fill="#2c4775" fill-opacity=".976" fill-rule="nonzero" stroke-dasharray="none" stroke-dashoffset="0" stroke-linecap="butt" stroke-linejoin="miter" stroke-miterlimit="4" stroke-opacity="1" stroke-width=".994" d="m 81.84375,-67.4375 c -7.575969,0 -12.90302,1.947397 -16.28125,5.625 -3.37823,3.677603 -4.71875,8.916001 -4.71875,15.3125 l 0,7.53125 -9,0 a 0.9515594,0.94712011 0 0 0 -0.9375,0.9375 l 0,16.125 a 0.9515594,0.94712011 0 0 0 0.9375,0.9375 l 9,0 0,42.96875 L 79,22 c 0.796375,0 1.555905,0.15021 2.25,0.40625 l 0,-43.375 11.40625,0 a 0.9515594,0.94712011 0 0 0 0.9375,-0.84375 l 1.625,-16.125 a 0.9515594,0.94712011 0 0 0 -0.9375,-1.03125 l -13.03125,0 0.03125,-6 c 0,-1.974504 0.162068,-3.286456 0.71875,-4 0.556682,-0.713544 1.701421,-1.21875 4.46875,-1.21875 l 7.71875,0 a 0.9515594,0.94712011 0 0 0 0.9375,-0.9375 l 0,-15.375 a 0.9515594,0.94712011 0 0 0 -0.9375,-0.9375 l -12.34375,0 z" color="#000" display="inline" enable-background="accumulate" opacity=".4" overflow="visible" visibility="visible" style="marker:none"/><path id="path3962" fill="#f7f7f7" fill-opacity="1" fill-rule="nonzero" stroke="#fff" stroke-dasharray="none" stroke-dashoffset="0" stroke-linecap="butt" stroke-linejoin="miter" stroke-miterlimit="4" stroke-opacity="1" stroke-width=".985" d="m 81.84375,-33.84375 c -7.301996,0 -12.093331,1.858689 -15.09375,5.125 -3.000207,3.26608 -4.28125,8.044542 -4.28125,14.21875 l 0,8.46875 a 0.50276181,0.50276181 0 0 1 -0.1875,0.375 0.50276181,0.50276181 0 0 1 -0.0625,0.0625 0.50276181,0.50276181 0 0 1 -0.40625,0.21875 l -9.3125,0 0,14.8125 9.3125,0 a 0.50276181,0.50276181 0 0 1 0.375,0.1875 0.50276181,0.50276181 0 0 1 0.03125,0 0.50276181,0.50276181 0 0 1 0,0.03125 0.50276181,0.50276181 0 0 1 0.03125,0 0.50276181,0.50276181 0 0 1 0,0.03125 0.50276181,0.50276181 0 0 1 0.21875,0.40625 l 0,43.40625 L 79,53.5 c 0.22466,0 0.418246,0.03624 0.625,0.0625 l 0,-43.46875 a 0.50276181,0.50276181 0 0 1 0.1875,-0.375 0.50276181,0.50276181 0 0 1 0,-0.03125 0.50276181,0.50276181 0 0 1 0.03125,0 A 0.50276181,0.50276181 0 0 1 79.875,9.65625 0.50276181,0.50276181 0 0 1 80.28125,9.4375 l 11.75,0 1.5,-14.8125 -13.25,0 a 0.50276181,0.50276181 0 0 1 -0.375,-0.1875 0.50276181,0.50276181 0 0 1 -0.03125,0 A 0.50276181,0.50276181 0 0 1 79.84375,-5.625 0.50276181,0.50276181 0 0 1 79.625,-6.03125 l 0.03125,-6.9375 c 0,-2.026867 0.0733,-3.732061 1.0625,-5 0.994658,-1.274932 2.781752,-1.8125 5.75,-1.8125 l 7.0625,0 0,-14.0625 -11.6875,0 z" color="#000" display="inline" enable-background="accumulate" overflow="visible" transform="translate(-9.9997601e-8,-32)" visibility="visible" style="marker:none"/></g></svg>