<svg xmlns="http://www.w3.org/2000/svg" xmlns:svg="http://www.w3.org/2000/svg" xmlns:xlink="http://www.w3.org/1999/xlink" id="svg3402" width="128" height="128" version="1.0"><metadata id="metadata54"/><defs id="defs3404"><radialGradient id="radialGradient3258" cx="-8.312" cy="44.75" r="2.5" fx="-8.312" fy="44.75" gradientTransform="matrix(4.8090817,0,0,2.2000014,62.971512,21.049933)" gradientUnits="userSpaceOnUse" xlink:href="#linearGradient3688"/><radialGradient id="radialGradient3361" cx="4.993" cy="43.5" r="2.5" fx="4.993" fy="43.5" gradientTransform="matrix(2.4045408,0,0,0.8,27.985756,10.199998)" gradientUnits="userSpaceOnUse" xlink:href="#linearGradient3688"/><radialGradient id="radialGradient3359" cx="4.993" cy="43.5" r="2.5" fx="4.993" fy="43.5" gradientTransform="matrix(2.4045408,0,0,0.8,-52.014245,-79.800002)" gradientUnits="userSpaceOnUse" xlink:href="#linearGradient3688"/><radialGradient id="radialGradient3365" cx="4.993" cy="43.5" r="2.5" fx="4.993" fy="43.5" gradientTransform="matrix(2.4045408,0,0,0.8,27.985756,10.199998)" gradientUnits="userSpaceOnUse" xlink:href="#linearGradient3688"/><linearGradient id="linearGradient3688"><stop id="stop3690" offset="0" stop-color="#000" stop-opacity="1"/><stop id="stop3692" offset="1" stop-color="#000" stop-opacity="0"/></linearGradient><radialGradient id="radialGradient3363" cx="4.993" cy="43.5" r="2.5" fx="4.993" fy="43.5" gradientTransform="matrix(2.4045408,0,0,0.8,-52.014245,-79.800002)" gradientUnits="userSpaceOnUse" xlink:href="#linearGradient3688"/><linearGradient id="linearGradient3400" x1="24" x2="24" y1="44" y2="-2.167" gradientTransform="matrix(2.6007969,0,0,2.6007565,2.0865058,6.0019493)" gradientUnits="userSpaceOnUse" xlink:href="#linearGradient2490-113-765"/><radialGradient id="radialGradient3398" cx="12.011" cy="10.291" r="20" fx="12.011" fy="10.291" gradientTransform="matrix(1.5673792e-7,5.3581385,-7.7292768,0,132.44186,-23.803056)" gradientUnits="userSpaceOnUse" xlink:href="#linearGradient3839"/><linearGradient id="linearGradient3317" x1="24" x2="24" y1="44" y2="3.899" gradientTransform="matrix(2.6050181,0,0,2.6039164,2.0704665,5.8551055)" gradientUnits="userSpaceOnUse" xlink:href="#linearGradient2490-113-765"/><radialGradient id="radialGradient3315" cx="12.011" cy="10.291" r="20" fx="12.011" fy="10.291" gradientTransform="matrix(1.5699232e-7,5.3646487,-7.7418222,0,132.63739,-23.986114)" gradientUnits="userSpaceOnUse" xlink:href="#linearGradient3839"/><linearGradient id="linearGradient2490-113-765"><stop id="stop3686" offset="0" stop-color="#862013" stop-opacity="1"/><stop id="stop3688" offset="1" stop-color="#ff6900" stop-opacity="1"/></linearGradient><linearGradient id="linearGradient3347" x1="24" x2="24" y1="44" y2="3.899" gradientTransform="matrix(2.7156506,0,0,2.7156783,0.9469955,1.16)" gradientUnits="userSpaceOnUse" xlink:href="#linearGradient2490-113-765"/><linearGradient id="linearGradient3839"><stop id="stop3841" offset="0" stop-color="#e2ca4a" stop-opacity="1"/><stop id="stop3843" offset=".262" stop-color="#fe7319" stop-opacity="1"/><stop id="stop3845" offset=".661" stop-color="#ff5300" stop-opacity="1"/><stop id="stop3847" offset="1" stop-color="#d23d00" stop-opacity="1"/></linearGradient><radialGradient id="radialGradient3345" cx="22.139" cy="17.654" r="20" fx="22.139" fy="17.654" gradientTransform="matrix(0,2.5664793,-3.702129,-1.0829304e-7,76.877754,27.712078)" gradientUnits="userSpaceOnUse" xlink:href="#linearGradient3839"/><linearGradient id="linearGradient3327" x1="16.626" x2="20.055" y1="15.298" y2="24.628" gradientTransform="matrix(2.5577352,0,0,2.7191843,12.072073,16.81629)" gradientUnits="userSpaceOnUse" xlink:href="#linearGradient8265-821-176-38-919-66-249-7-7"/><linearGradient id="linearGradient8265-821-176-38-919-66-249-7-7"><stop id="stop2687-1-9" offset="0" stop-color="#fff" stop-opacity="1"/><stop id="stop2689-5-4" offset="1" stop-color="#fff" stop-opacity="0"/></linearGradient><linearGradient id="linearGradient3333" x1="16.626" x2="20.055" y1="15.298" y2="24.628" gradientTransform="matrix(2.5577352,0,0,2.7191843,12.072073,16.81629)" gradientUnits="userSpaceOnUse" xlink:href="#linearGradient8265-821-176-38-919-66-249-7-7"/><linearGradient id="linearGradient3357" x1="9.65" x2="9.65" y1="36.845" y2="42.995" gradientTransform="matrix(2.3574028,0,0,2.3701198,3.8908853,15.149766)" gradientUnits="userSpaceOnUse" xlink:href="#linearGradient3308-4-6"/><linearGradient id="linearGradient3383" x1="30.15" x2="30.15" y1="5.07" y2="44.02" gradientTransform="matrix(2.6052323,0,0,2.6052323,1.8819792,5.7971589)" gradientUnits="userSpaceOnUse" xlink:href="#linearGradient3308-4-6"/><linearGradient id="linearGradient3308-4-6"><stop id="stop3310-1-4" offset="0" stop-color="#fff" stop-opacity="1"/><stop id="stop3312-5-3" offset="1" stop-color="#fff" stop-opacity="0"/></linearGradient><linearGradient id="linearGradient3396" x1="15.8" x2="15.8" y1="20.445" y2="44.109" gradientTransform="matrix(2.6052323,0,0,2.6052323,1.8819792,5.7971589)" gradientUnits="userSpaceOnUse" xlink:href="#linearGradient3308-4-6"/><linearGradient id="linearGradient2430" x1="15.8" x2="15.8" y1="20.445" y2="44.109" gradientTransform="matrix(2.6988923,0,0,2.6977509,1.7486831,1.633688)" gradientUnits="userSpaceOnUse" xlink:href="#linearGradient3308-4-6"/><linearGradient id="linearGradient2433" x1="30.15" x2="30.15" y1="5.07" y2="44.02" gradientTransform="matrix(2.6945186,0,0,2.6944771,1.7653002,1.7858237)" gradientUnits="userSpaceOnUse" xlink:href="#linearGradient3308-4-6"/><linearGradient id="linearGradient2436" x1="9.65" x2="9.65" y1="36.845" y2="42.995" gradientTransform="matrix(2.4423539,0,0,2.4555292,3.6347023,11.26329)" gradientUnits="userSpaceOnUse" xlink:href="#linearGradient3308-4-6"/><linearGradient id="linearGradient2439" x1="16.626" x2="20.055" y1="15.298" y2="24.628" gradientTransform="matrix(2.6496876,0,0,2.8157495,12.305118,13.044137)" gradientUnits="userSpaceOnUse" xlink:href="#linearGradient8265-821-176-38-919-66-249-7-7"/><linearGradient id="linearGradient2442" x1="16.626" x2="20.055" y1="15.298" y2="24.628" gradientTransform="matrix(2.6453937,0,0,2.8123325,12.304628,13.182426)" gradientUnits="userSpaceOnUse" xlink:href="#linearGradient8265-821-176-38-919-66-249-7-7"/><radialGradient id="radialGradient2445" cx="22.139" cy="17.654" r="20" fx="22.139" fy="17.654" gradientTransform="matrix(0,2.6589647,-3.8355386,-1.1219548e-7,79.251719,24.278296)" gradientUnits="userSpaceOnUse" xlink:href="#linearGradient3839"/><linearGradient id="linearGradient2447" x1="24" x2="24" y1="44" y2="3.899" gradientTransform="matrix(2.8135115,0,0,2.8135402,0.58472681,-3.2306099)" gradientUnits="userSpaceOnUse" xlink:href="#linearGradient2490-113-765"/><radialGradient id="radialGradient2450" cx="12.011" cy="10.291" r="20" fx="12.011" fy="10.291" gradientTransform="matrix(1.6264968e-7,5.5579686,-8.0208057,0,137.0207,-29.282887)" gradientUnits="userSpaceOnUse" xlink:href="#linearGradient3839"/><linearGradient id="linearGradient2452" x1="24" x2="24" y1="44" y2="3.899" gradientTransform="matrix(2.6988923,0,0,2.6977509,1.7486831,1.633688)" gradientUnits="userSpaceOnUse" xlink:href="#linearGradient2490-113-765"/><radialGradient id="radialGradient2455" cx="12.011" cy="10.291" r="20" fx="12.011" fy="10.291" gradientTransform="matrix(1.6238611e-7,5.5512238,-8.0078082,0,136.81813,-29.093232)" gradientUnits="userSpaceOnUse" xlink:href="#linearGradient3839"/><linearGradient id="linearGradient2457" x1="24" x2="24" y1="44" y2="-2.167" gradientTransform="matrix(2.694519,0,0,2.6944771,1.7653004,1.7858234)" gradientUnits="userSpaceOnUse" xlink:href="#linearGradient2490-113-765"/><radialGradient id="radialGradient2466" cx="-8.312" cy="44.75" r="2.5" fx="-8.312" fy="44.75" gradientTransform="matrix(4.9823811,0,0,1.6576584,64.84435,44.675638)" gradientUnits="userSpaceOnUse" xlink:href="#linearGradient3688"/><radialGradient id="radialGradient2468" cx="4.993" cy="43.5" r="2.5" fx="4.993" fy="43.5" gradientTransform="matrix(2.4045408,0,0,0.8,-52.014245,-79.800002)" gradientUnits="userSpaceOnUse" xlink:href="#linearGradient3688"/><radialGradient id="radialGradient2470" cx="4.993" cy="43.5" r="2.5" fx="4.993" fy="43.5" gradientTransform="matrix(2.4045408,0,0,0.8,27.985756,10.199998)" gradientUnits="userSpaceOnUse" xlink:href="#linearGradient3688"/><radialGradient id="radialGradient2472" cx="4.993" cy="43.5" r="2.5" fx="4.993" fy="43.5" gradientTransform="matrix(2.4045408,0,0,0.8,-52.014245,-79.800002)" gradientUnits="userSpaceOnUse" xlink:href="#linearGradient3688"/><radialGradient id="radialGradient2474" cx="4.993" cy="43.5" r="2.5" fx="4.993" fy="43.5" gradientTransform="matrix(2.4045408,0,0,0.8,27.985756,10.199998)" gradientUnits="userSpaceOnUse" xlink:href="#linearGradient3688"/><radialGradient id="radialGradient3831" cx="-8.312" cy="44.75" r="2.5" fx="-8.312" fy="44.75" gradientTransform="matrix(4.9823811,0,0,1.6576584,64.84435,44.675638)" gradientUnits="userSpaceOnUse" xlink:href="#linearGradient3688"/><radialGradient id="radialGradient3833" cx="4.993" cy="43.5" r="2.5" fx="4.993" fy="43.5" gradientTransform="matrix(2.4045408,0,0,0.8,-52.014245,-79.800002)" gradientUnits="userSpaceOnUse" xlink:href="#linearGradient3688"/><radialGradient id="radialGradient3835" cx="4.993" cy="43.5" r="2.5" fx="4.993" fy="43.5" gradientTransform="matrix(2.4045408,0,0,0.8,27.985756,10.199998)" gradientUnits="userSpaceOnUse" xlink:href="#linearGradient3688"/><radialGradient id="radialGradient3837" cx="4.993" cy="43.5" r="2.5" fx="4.993" fy="43.5" gradientTransform="matrix(2.4045408,0,0,0.8,-52.014245,-79.800002)" gradientUnits="userSpaceOnUse" xlink:href="#linearGradient3688"/><radialGradient id="radialGradient3839" cx="4.993" cy="43.5" r="2.5" fx="4.993" fy="43.5" gradientTransform="matrix(2.4045408,0,0,0.8,27.985756,10.199998)" gradientUnits="userSpaceOnUse" xlink:href="#linearGradient3688"/><radialGradient id="radialGradient3841" cx="12.011" cy="10.291" r="20" fx="12.011" fy="10.291" gradientTransform="matrix(1.6238611e-7,5.5512238,-8.0078082,0,136.81813,-29.093232)" gradientUnits="userSpaceOnUse" xlink:href="#linearGradient3839"/><linearGradient id="linearGradient3843" x1="24" x2="24" y1="44" y2="-2.167" gradientTransform="matrix(2.694519,0,0,2.6944771,1.7653004,1.7858234)" gradientUnits="userSpaceOnUse" xlink:href="#linearGradient2490-113-765"/><radialGradient id="radialGradient3845" cx="12.011" cy="10.291" r="20" fx="12.011" fy="10.291" gradientTransform="matrix(1.6264968e-7,5.5579686,-8.0208057,0,137.0207,-29.282887)" gradientUnits="userSpaceOnUse" xlink:href="#linearGradient3839"/><linearGradient id="linearGradient3847" x1="24" x2="24" y1="44" y2="3.899" gradientTransform="matrix(2.6988923,0,0,2.6977509,1.7486831,1.633688)" gradientUnits="userSpaceOnUse" xlink:href="#linearGradient2490-113-765"/><radialGradient id="radialGradient3849" cx="22.139" cy="17.654" r="20" fx="22.139" fy="17.654" gradientTransform="matrix(0,2.6589647,-3.8355386,-1.1219548e-7,79.251719,24.278296)" gradientUnits="userSpaceOnUse" xlink:href="#linearGradient3839"/><linearGradient id="linearGradient3851" x1="24" x2="24" y1="44" y2="3.899" gradientTransform="matrix(2.8135115,0,0,2.8135402,0.58472681,-3.2306099)" gradientUnits="userSpaceOnUse" xlink:href="#linearGradient2490-113-765"/><linearGradient id="linearGradient3853" x1="16.626" x2="20.055" y1="15.298" y2="24.628" gradientTransform="matrix(2.6453937,0,0,2.8123325,12.304628,13.182426)" gradientUnits="userSpaceOnUse" xlink:href="#linearGradient8265-821-176-38-919-66-249-7-7"/><linearGradient id="linearGradient3855" x1="16.626" x2="20.055" y1="15.298" y2="24.628" gradientTransform="matrix(2.6496876,0,0,2.8157495,12.305118,13.044137)" gradientUnits="userSpaceOnUse" xlink:href="#linearGradient8265-821-176-38-919-66-249-7-7"/><linearGradient id="linearGradient3857" x1="9.65" x2="9.65" y1="36.845" y2="42.995" gradientTransform="matrix(2.4423539,0,0,2.4555292,3.6347023,11.26329)" gradientUnits="userSpaceOnUse" xlink:href="#linearGradient3308-4-6"/><linearGradient id="linearGradient3859" x1="30.15" x2="30.15" y1="5.07" y2="44.02" gradientTransform="matrix(2.6945186,0,0,2.6944771,1.7653002,1.7858237)" gradientUnits="userSpaceOnUse" xlink:href="#linearGradient3308-4-6"/><linearGradient id="linearGradient3861" x1="15.8" x2="15.8" y1="20.445" y2="44.109" gradientTransform="matrix(2.6988923,0,0,2.6977509,1.7486831,1.633688)" gradientUnits="userSpaceOnUse" xlink:href="#linearGradient3308-4-6"/></defs><g id="g3814" transform="translate(-4.5000004,0)"><path id="path3629" fill="url(#radialGradient3831)" fill-opacity="1" fill-rule="nonzero" stroke="none" stroke-width="1" d="M 35.864861,118.85586 C 35.864861,121.1446 30.298671,123 23.43243,123 16.566189,123 11,121.1446 11,118.85586 c 0,-2.28875 5.566189,-4.14415 12.43243,-4.14415 6.866241,0 12.432431,1.8554 12.432431,4.14415 z" display="inline" enable-background="accumulate" opacity=".3" overflow="visible" visibility="visible" style="marker:none"/><g id="g3619" transform="matrix(2.5900897,0,0,2.0720717,-35.621614,25.612629)"><rect id="rect3621" width="6" height="4" x="-40" y="-47" fill="url(#radialGradient3833)" fill-opacity="1" stroke="none" opacity=".3" transform="scale(-1,-1)"/><rect id="rect3623" width="6" height="4" x="40" y="43" fill="url(#radialGradient3835)" fill-opacity="1" stroke="none" opacity=".3"/></g><g id="g3615" transform="matrix(2.5856799,0,0,2.0685119,7.0587254,25.77994)"><rect id="rect3611" width="6" height="4" x="-40" y="-47" fill="url(#radialGradient3837)" fill-opacity="1" stroke="none" opacity=".3" transform="scale(-1,-1)"/><rect id="rect2801" width="6" height="4" x="40" y="43" fill="url(#radialGradient3839)" fill-opacity="1" stroke="none" opacity=".3"/></g><path display="inline" style="text-align:start;line-height:125%;marker:none" id="path3343" fill="url(#radialGradient3841)" fill-opacity="1" fill-rule="nonzero" stroke="url(#linearGradient3843)" stroke-dasharray="none" stroke-dashoffset="0" stroke-linecap="round" stroke-linejoin="round" stroke-miterlimit="4" stroke-opacity="1" stroke-width="1.011" d="m 12.543374,12.651465 0,18.953863 c 48.579322,0.905225 87.821516,40.199847 88.714436,88.825212 l 19.06631,0 C 119.42274,61.283112 71.636241,13.551778 12.543374,12.651465 z" enable-background="accumulate" font-family="Bitstream Vera Serif" font-size="13.59" font-stretch="normal" font-style="normal" font-variant="normal" font-weight="bold" overflow="visible" text-anchor="start" visibility="visible" writing-mode="lr-tb"/><path display="inline" style="text-align:start;line-height:125%;marker:none" id="path3341" fill="url(#radialGradient3845)" fill-opacity="1" fill-rule="nonzero" stroke="url(#linearGradient3847)" stroke-dasharray="none" stroke-dashoffset="0" stroke-linecap="round" stroke-linejoin="round" stroke-miterlimit="4" stroke-opacity="1" stroke-width="1.011" d="m 12.544252,56.193071 0,17.067974 c 25.683035,0.893287 46.286794,21.467159 47.181465,47.161505 l 17.075196,0 C 75.89903,85.254145 47.695083,57.093503 12.544252,56.193071 z" enable-background="accumulate" font-family="Bitstream Vera Serif" font-size="13.59" font-stretch="normal" font-style="normal" font-variant="normal" font-weight="bold" overflow="visible" text-anchor="start" visibility="visible" writing-mode="lr-tb"/><path display="inline" style="text-align:start;line-height:125%;marker:none" id="path8636" fill="url(#radialGradient3849)" fill-opacity="1" fill-rule="nonzero" stroke="url(#linearGradient3851)" stroke-dasharray="none" stroke-dashoffset="0" stroke-linecap="round" stroke-linejoin="round" stroke-miterlimit="4" stroke-opacity="1" stroke-width="1.011" d="m 23.549537,98.757405 c -3.13973,9.6e-5 -5.554517,1.102454 -7.729106,3.279055 -2.177526,2.14083 -3.279011,4.46942 -3.279012,7.61207 0,3.09354 1.109154,5.47896 3.279012,7.61208 2.163351,2.12685 4.565315,3.162 7.729106,3.16194 3.065673,6e-5 5.36452,-1.02943 7.494891,-3.16194 2.18148,-2.18353 3.278978,-4.56795 3.279012,-7.61208 -3.4e-5,-3.14267 -1.101488,-5.47125 -3.279012,-7.61207 -2.141575,-2.182517 -4.45389,-3.278959 -7.494891,-3.279055 z" enable-background="accumulate" font-family="Bitstream Vera Serif" font-size="13.59" font-stretch="normal" font-style="normal" font-variant="normal" font-weight="bold" overflow="visible" text-anchor="start" visibility="visible" writing-mode="lr-tb"/><path id="path3325" fill="url(#linearGradient3853)" fill-opacity="1" fill-rule="evenodd" stroke="none" stroke-width="1" d="m 12.520974,12.144249 c -0.277535,0.0121 -0.490792,0.231304 -0.484815,0.517128 2.05e-4,0.01077 2.05e-4,0.02155 0,0.03232 l 0,18.90749 c 2.05e-4,0.01077 2.05e-4,0.02155 0,0.03232 -0.0031,0.151621 0.05876,0.220364 0.161605,0.323204 0.07807,0.07807 0.204914,0.164639 0.35553,0.161602 0.01077,-2.05e-4 0.02155,-2.05e-4 0.03232,0 29.514952,0.549981 55.425925,15.355544 71.429403,37.814984 0.115414,0.156297 0.320862,0.204918 0.517137,0.161603 0.02154,-8.22e-4 0.0431,-8.22e-4 0.06464,0 l 20.523836,-3.45829 c 0.008,-0.0026 0.0249,0.0029 0.0323,0 0.11338,-0.04365 0.19622,-0.115127 0.25857,-0.258563 0.0661,-0.152022 0.0509,-0.305834 -0.0323,-0.452488 C 86.464296,34.147106 52.081024,12.745983 12.585616,12.144249 c -0.01077,2.07e-4 -0.02155,2.07e-4 -0.03232,0 -0.0041,-1.3e-4 -0.02823,-1.3e-4 -0.03232,0 z" display="inline" enable-background="accumulate" opacity=".2" overflow="visible" visibility="visible" style="marker:none"/><path id="path3331" fill="url(#linearGradient3855)" fill-opacity="1" fill-rule="evenodd" stroke="none" stroke-width="1" d="m 12.521814,55.658026 c -0.300771,0.01311 -0.491555,0.200801 -0.485601,0.485396 2.05e-4,0.01079 2.05e-4,0.02157 0,0.03236 l 0,17.118317 c 2.05e-4,0.01079 2.05e-4,0.02157 0,0.03236 -0.0059,0.284074 0.209749,0.50573 0.485601,0.517756 7.132872,0.248087 13.881012,1.981236 19.909679,4.983404 0.133978,0.06073 0.1611,0.0549 0.258987,0.03236 0.02157,-8.19e-4 0.04317,-8.19e-4 0.06475,0 l 23.632626,-4.077331 c 0.198209,-0.04494 0.339246,-0.163649 0.388481,-0.323597 0.04678,-0.151956 0.0038,-0.342646 -0.129494,-0.485396 C 45.119882,63.032684 29.645414,56.095838 12.554188,55.658026 c -0.0039,-1.25e-4 -0.02837,-1.27e-4 -0.03237,0 z" display="inline" enable-background="accumulate" opacity=".2" overflow="visible" visibility="visible" style="marker:none"/><path enable-background="accumulate" style="text-align:start;line-height:125%;marker:none" id="path3351" fill="none" stroke="url(#linearGradient3857)" stroke-dasharray="none" stroke-dashoffset="0" stroke-linecap="round" stroke-linejoin="round" stroke-miterlimit="4" stroke-opacity="1" stroke-width="1.011" d="m 23.538396,99.676564 c -2.841055,9.3e-5 -5.026129,1.002966 -6.993854,2.983126 -1.970384,1.94765 -2.967087,4.06609 -2.967088,6.92514 0,2.81435 1.003643,4.98449 2.967088,6.92511 1.957556,1.9349 4.131028,2.87664 6.993854,2.87657 2.774043,7e-5 4.854206,-0.93651 6.781921,-2.87657 1.97396,-1.98649 2.967056,-4.15573 2.967088,-6.92511 -3.2e-5,-2.85907 -0.996707,-4.9775 -2.967088,-6.92514 -1.937852,-1.98555 -4.030202,-2.983033 -6.781921,-2.983126 z" display="inline" font-family="Bitstream Vera Serif" font-size="13.59" font-stretch="normal" font-style="normal" font-variant="normal" font-weight="bold" opacity=".4" overflow="visible" text-anchor="start" visibility="visible" writing-mode="lr-tb"/><path enable-background="accumulate" style="text-align:start;line-height:125%;marker:none" id="path3381" fill="none" stroke="url(#linearGradient3859)" stroke-dasharray="none" stroke-dashoffset="0" stroke-linecap="round" stroke-linejoin="round" stroke-miterlimit="4" stroke-opacity="1" stroke-width="1.011" d="m 13.555246,13.727954 0,16.935941 c 48.321185,1.412321 87.224794,40.386474 88.624174,88.752095 l 17.06548,0 C 117.8321,61.60154 71.317119,15.139091 13.555246,13.727954 z" display="inline" font-family="Bitstream Vera Serif" font-size="13.59" font-stretch="normal" font-style="normal" font-variant="normal" font-weight="bold" opacity=".4" overflow="visible" text-anchor="start" visibility="visible" writing-mode="lr-tb"/><path enable-background="accumulate" style="text-align:start;line-height:125%;marker:none" id="path3394" fill="none" stroke="url(#linearGradient3861)" stroke-dasharray="none" stroke-dashoffset="0" stroke-linecap="round" stroke-linejoin="round" stroke-miterlimit="4" stroke-opacity="1" stroke-width="1.011" d="m 13.557765,57.276014 0,15.112012 c 25.402556,1.383404 45.653166,21.606272 47.038637,47.018744 l 15.15078,0 C 74.347125,85.599134 47.350502,58.673241 13.557765,57.276014 z" display="inline" font-family="Bitstream Vera Serif" font-size="13.59" font-stretch="normal" font-style="normal" font-variant="normal" font-weight="bold" opacity=".4" overflow="visible" text-anchor="start" visibility="visible" writing-mode="lr-tb"/></g></svg>