<svg xmlns="http://www.w3.org/2000/svg" xmlns:svg="http://www.w3.org/2000/svg" xmlns:xlink="http://www.w3.org/1999/xlink" id="svg5496" width="128" height="128" version="1.0"><metadata id="metadata5594"/><defs id="defs5498"><linearGradient id="linearGradient3224" x1="24" x2="24" y1="5" y2="43" gradientTransform="matrix(2.7297298,0,0,2.7297298,-1.5135114,1.48652)" gradientUnits="userSpaceOnUse" xlink:href="#linearGradient3924"/><linearGradient id="linearGradient3924"><stop id="stop3926" offset="0" stop-color="#fff" stop-opacity="1"/><stop id="stop3928" offset=".063" stop-color="#fff" stop-opacity=".235"/><stop id="stop3930" offset=".951" stop-color="#fff" stop-opacity=".157"/><stop id="stop3932" offset="1" stop-color="#fff" stop-opacity=".392"/></linearGradient><linearGradient id="linearGradient3907" x1="29.044" x2="29.044" y1="46.392" y2="2.092" gradientTransform="matrix(2.909632,0,0,1.5966276,-5.8237802,13.12763)" gradientUnits="userSpaceOnUse" xlink:href="#linearGradient3909"/><linearGradient id="linearGradient3909"><stop id="stop3911" offset="0" stop-color="#fff0bf" stop-opacity="1"/><stop id="stop3913" offset="1" stop-color="#fdde76" stop-opacity="1"/></linearGradient><linearGradient id="linearGradient4021" x1="24" x2="24" y1="5" y2="43" gradientTransform="matrix(2.2432433,0,0,1.3783785,10.162169,20.91894)" gradientUnits="userSpaceOnUse" xlink:href="#linearGradient3924-803-0"/><linearGradient id="linearGradient3924-803-0"><stop id="stop3252-06" offset="0" stop-color="#fff" stop-opacity="1"/><stop id="stop3254-1" offset=".063" stop-color="#fff" stop-opacity=".235"/><stop id="stop3256-0" offset=".951" stop-color="#fff" stop-opacity=".157"/><stop id="stop3258-2" offset="1" stop-color="#fff" stop-opacity=".392"/></linearGradient><linearGradient id="linearGradient4024" x1="16.626" x2="20.055" y1="15.298" y2="24.628" gradientTransform="matrix(1.8236406,0,0,1.8434142,20.147314,17.47003)" gradientUnits="userSpaceOnUse" xlink:href="#linearGradient8265-821-176-38-919-66-249-7-7-6"/><linearGradient id="linearGradient8265-821-176-38-919-66-249-7-7-6"><stop id="stop2687-1-9-9" offset="0" stop-color="#fff" stop-opacity="1"/><stop id="stop2689-5-4-3" offset="1" stop-color="#fff" stop-opacity="0"/></linearGradient><linearGradient id="linearGradient4027" x1="25.525" x2="25.525" y1="30.189" y2="15.738" gradientTransform="matrix(1.9289072,0,0,1.6548366,17.706642,3.33073)" gradientUnits="userSpaceOnUse" spreadMethod="reflect" xlink:href="#linearGradient3333-4-4"/><linearGradient id="linearGradient3333-4-4"><stop id="stop3335-4-6" offset="0" stop-color="#fff" stop-opacity="1"/><stop id="stop3337-7-2" offset="1" stop-color="#fff" stop-opacity="0"/></linearGradient><linearGradient id="linearGradient4030" x1="23.904" x2="23.904" y1="35.75" y2="20.443" gradientTransform="matrix(1.9250708,0,0,1.7660544,17.983934,3.26767)" gradientUnits="userSpaceOnUse" xlink:href="#linearGradient3495"/><linearGradient id="linearGradient3495"><stop id="stop3497" offset="0" stop-color="#000" stop-opacity="1"/><stop id="stop3874" offset=".5" stop-color="#000" stop-opacity=".498"/><stop id="stop3499" offset="1" stop-color="#000" stop-opacity="0"/></linearGradient><linearGradient id="linearGradient4033" x1="25.525" x2="25.525" y1="30.189" y2="15.738" gradientTransform="matrix(1.9289072,0,0,1.6548366,17.706642,6.66696)" gradientUnits="userSpaceOnUse" spreadMethod="reflect" xlink:href="#linearGradient3333-4"/><linearGradient id="linearGradient3333-4"><stop id="stop3335-4" offset="0" stop-color="#fff" stop-opacity="1"/><stop id="stop3337-7" offset="1" stop-color="#fff" stop-opacity="0"/></linearGradient><linearGradient id="linearGradient6722" x1="25.525" x2="25.525" y1="30.189" y2="15.738" gradientTransform="matrix(1.9289072,0,0,1.6548366,17.706642,4.95831)" gradientUnits="userSpaceOnUse" spreadMethod="reflect" xlink:href="#linearGradient3866"/><linearGradient id="linearGradient3866"><stop id="stop3868" offset="0" stop-color="#a0a0a0" stop-opacity="1"/><stop id="stop3872" offset=".5" stop-color="#8f8f8f" stop-opacity=".635"/><stop id="stop3870" offset="1" stop-color="#9d9d9d" stop-opacity="0"/></linearGradient><linearGradient id="linearGradient6725" x1="20.053" x2="20.053" y1="10.637" y2="45.244" gradientTransform="matrix(1.8666667,0,0,1.5757573,19.200003,9.8788)" gradientUnits="userSpaceOnUse" xlink:href="#linearGradient3600"/><linearGradient id="linearGradient3600"><stop id="stop3602" offset="0" stop-color="#f4f4f4" stop-opacity="1"/><stop id="stop3604" offset="1" stop-color="#dbdbdb" stop-opacity="1"/></linearGradient><radialGradient id="radialGradient3227" cx="19.74" cy="8.45" r="20" fx="19.74" fy="8.45" gradientTransform="matrix(1.0070068e-7,4.0565072,-2.9744146,0,89.133414,6.43806)" gradientUnits="userSpaceOnUse" xlink:href="#linearGradient3846"/><linearGradient id="linearGradient3846"><stop id="stop3848" offset="0" stop-color="#fff3cb" stop-opacity="1"/><stop id="stop3850" offset=".262" stop-color="#fdde76" stop-opacity="1"/><stop id="stop3852" offset=".661" stop-color="#f9c440" stop-opacity="1"/><stop id="stop3854" offset="1" stop-color="#e48b20" stop-opacity="1"/></linearGradient><linearGradient id="linearGradient3229" x1="24" x2="24" y1="44" y2="3.899" gradientTransform="matrix(2.641026,0,0,2.641026,0.61539,3.61539)" gradientUnits="userSpaceOnUse" xlink:href="#linearGradient3856"/><linearGradient id="linearGradient3856"><stop id="stop3858" offset="0" stop-color="#b67926" stop-opacity="1"/><stop id="stop3860" offset="1" stop-color="#eab41a" stop-opacity="1"/></linearGradient><radialGradient id="radialGradient3190" cx="4.993" cy="43.5" r="2.5" fx="4.993" fy="43.5" gradientTransform="matrix(2.003784,0,0,1.4,27.98813,-17.4)" gradientUnits="userSpaceOnUse" xlink:href="#linearGradient3688-166-749"/><linearGradient id="linearGradient3688-166-749"><stop id="stop2883" offset="0" stop-color="#181818" stop-opacity="1"/><stop id="stop2885" offset="1" stop-color="#181818" stop-opacity="0"/></linearGradient><radialGradient id="radialGradient3192" cx="4.993" cy="43.5" r="2.5" fx="4.993" fy="43.5" gradientTransform="matrix(2.003784,0,0,1.4,-20.01187,-104.4)" gradientUnits="userSpaceOnUse" xlink:href="#linearGradient3688-464-309"/><linearGradient id="linearGradient3688-464-309"><stop id="stop2889" offset="0" stop-color="#181818" stop-opacity="1"/><stop id="stop2891" offset="1" stop-color="#181818" stop-opacity="0"/></linearGradient><linearGradient id="linearGradient3194" x1="25.058" x2="25.058" y1="47.028" y2="39.999" gradientUnits="userSpaceOnUse" xlink:href="#linearGradient3702-501-757"/><linearGradient id="linearGradient3702-501-757"><stop id="stop2895" offset="0" stop-color="#181818" stop-opacity="0"/><stop id="stop2897" offset=".5" stop-color="#181818" stop-opacity="1"/><stop id="stop2899" offset="1" stop-color="#181818" stop-opacity="0"/></linearGradient></defs><g id="g2036" display="inline" transform="matrix(2.9499988,0,0,1.2222234,-6.8000012,65.55554)"><g id="g3712" opacity=".4" transform="matrix(1.052632,0,0,1.285713,-1.263158,-13.42854)"><rect id="rect2801" width="5" height="7" x="38" y="40" fill="url(#radialGradient3190)" fill-opacity="1" stroke="none"/><rect id="rect3696" width="5" height="7" x="-10" y="-47" fill="url(#radialGradient3192)" fill-opacity="1" stroke="none" transform="scale(-1,-1)"/><rect id="rect3700" width="28" height="7" x="10" y="40" fill="url(#linearGradient3194)" fill-opacity="1" stroke="none"/></g></g><rect stroke-linejoin="round" style="marker:none" id="rect5505-21" width="103" height="103" x="12.5" y="15.5" fill="url(#radialGradient3227)" fill-opacity="1" fill-rule="nonzero" stroke="url(#linearGradient3229)" stroke-dasharray="none" stroke-dashoffset="0" stroke-linecap="round" stroke-miterlimit="4" stroke-opacity="1" stroke-width="1" color="#000" display="inline" enable-background="accumulate" overflow="visible" rx="6" ry="6" visibility="visible"/><rect id="rect4813" width="48" height="13" x="40" y="80" fill="#b3b3b3" fill-opacity="1" fill-rule="nonzero" stroke="none" stroke-width="1" color="#000" display="inline" enable-background="accumulate" overflow="visible" rx="0" ry="0" visibility="visible" style="marker:none"/><path id="path4088" fill="none" stroke="#ab7a16" stroke-opacity="1" stroke-width="1" d="m 21.71875,23.43751 c -2.432683,1.1089 -0.882356,4.5946 -1.28125,6.82455 0,15.72515 0,33.4503 0,49.17545 2.499369,2.70548 7.776447,0.50099 11.312591,1.24995 3.403253,0.14685 9.179675,-3.18855 9.792804,1.68432 0.254594,3.0545 -0.05749,6.12792 -0.07415,9.19073 15.020833,0 30.041667,0 45.0625,0 -0.03968,-3.36925 -0.343685,-6.77802 0.0625,-10.125 1.233384,-3.64267 5.560424,-0.61199 8.516238,-0.75 3.723754,0 7.447517,0 11.171267,0 2.4274,-1.10146 0.88409,-4.57314 1.28125,-6.7933 0,-15.72515 0,-33.4503 0,-49.17545 -1.10921,-2.43285 -4.59455,-0.88249 -6.82456,-1.28125 -26.339729,0 -52.679462,0 -79.01919,0 z" color="#000" display="inline" enable-background="accumulate" opacity=".07" overflow="visible" visibility="visible" style="marker:none"/><path id="path4815" fill="none" stroke="#000" stroke-linecap="butt" stroke-linejoin="miter" stroke-opacity="1" stroke-width="1" d="m 40.230845,82.50001 47.5385,0" opacity=".2"/><path id="path4815-2" fill="none" stroke="#000" stroke-linecap="butt" stroke-linejoin="miter" stroke-opacity="1" stroke-width="1" d="m 40.230845,84.50001 47.5385,0" opacity=".17"/><rect id="rect2396-9-0" width="84.513" height="52.611" x="21.744" y="28.389" fill="#8f8f8f" fill-opacity="1" fill-rule="evenodd" stroke="none" stroke-width="1" display="inline" enable-background="accumulate" overflow="visible" rx="2" ry="2" visibility="visible" style="marker:none"/><rect id="rect2396-9" width="84" height="52" x="22" y="28" fill="url(#linearGradient6725)" fill-opacity="1" fill-rule="evenodd" stroke="none" stroke-width="1" display="inline" enable-background="accumulate" overflow="visible" rx="2" ry="2" visibility="visible" style="marker:none"/><path id="path3341-2" fill="none" stroke="url(#linearGradient6722)" stroke-dasharray="none" stroke-dashoffset="0" stroke-linecap="butt" stroke-linejoin="miter" stroke-miterlimit="4" stroke-opacity="1" stroke-width="1" d="M 23.949946,32.03641 64.000413,62.87759 104.65616,31.82902 M 53.692816,55.43083 27.699715,77.99032 53.692816,55.43083 z M 74.368291,55.53425 100.54223,77.57553 74.368291,55.53425 z" display="inline" enable-background="accumulate" overflow="visible" visibility="visible" style="marker:none"/><path id="path3341-2-6" fill="none" stroke="url(#linearGradient4033)" stroke-dasharray="none" stroke-dashoffset="0" stroke-linecap="butt" stroke-linejoin="miter" stroke-miterlimit="4" stroke-opacity="1" stroke-width="1" d="M 23.949946,33.74505 64.000413,64.58624 104.65616,33.53766 M 53.692816,57.13947 29.875,77.50001 z m 20.675475,0.10342 23.756706,20.25712 z" display="inline" enable-background="accumulate" opacity=".7" overflow="visible" visibility="visible" style="marker:none"/><path id="path3493" fill="none" stroke="url(#linearGradient4030)" stroke-dasharray="none" stroke-linecap="butt" stroke-linejoin="miter" stroke-miterlimit="4" stroke-opacity="1" stroke-width="1" d="M 34.029647,41.0823 64.185631,64.25001 93.971179,41.0823" opacity=".2"/><path id="path3926" fill="none" stroke="url(#linearGradient4027)" stroke-dasharray="none" stroke-dashoffset="0" stroke-linecap="butt" stroke-linejoin="miter" stroke-miterlimit="4" stroke-opacity="1" stroke-width="1" d="M 23.949946,30.40882 64.000413,61.25001 104.65616,30.20143" display="inline" enable-background="accumulate" opacity=".7" overflow="visible" visibility="visible" style="marker:none"/><path id="path3333-7" fill="url(#linearGradient4024)" fill-opacity="1" fill-rule="evenodd" stroke="none" d="M 24.690028,28.00001 C 23.188658,28.00001 22,29.29267 22,30.55001 l 0.02794,31.45 C 24.444415,61.96577 104.16582,49.46689 106,48.86568 l 0,-18.31567 c 0,-0.96108 -1.17419,-2.55 -2.47421,-2.55 l -78.835765,0 z" opacity=".2"/><rect id="rect6741-1-5" width="83" height="51" x="22.5" y="28.5" fill="none" stroke="url(#linearGradient4021)" stroke-dasharray="none" stroke-dashoffset="0" stroke-linecap="round" stroke-linejoin="round" stroke-miterlimit="4" stroke-opacity="1" stroke-width="1" rx="1" ry="1"/><path id="rect5505-21-4-0" fill="url(#linearGradient3907)" fill-opacity="1" fill-rule="nonzero" stroke="none" stroke-width="1" d="m 64.28125,16 c -15.287221,0.0104 -30.566022,0.0405 -45.84375,0.0312 -2.678427,-0.0569 -5.126618,2.11038 -5.34375,4.78125 -0.06433,19.26834 0.01847,38.73051 0,58 -0.492671,3.16507 1.246973,6.89132 4.75,7.125 6.397369,0.0137 12.883638,0 19.28125,0 2.222084,0 2.782893,1.49567 2.875,2.25 l 0,-5.125 C 40,80.48777 37.1875,80 37.1875,80 L 21.40625,80 C 19.921579,80 19,78.95417 19,77.46875 L 19,24.8125 C 19,23.32708 20.171579,22 21.65625,22 l 85.21875,0 c 1.48468,0 2.125,0.57708 2.125,2.0625 L 109,77 c 0,1.48542 -0.64032,3 -2.125,3 L 90.8125,80 C 90.8125,80 88,80.24947 88,82.8125 L 88,88 c 0.08554,-0.7551 0.601894,-1.99982 2.625,-2 5.719935,-5.1e-4 11.46767,-0.004 17.1875,0 3.1635,0.49292 6.86017,-1.52649 7.09375,-5.03125 0.0643,-19.26834 -0.0183,-38.543 0,-57.8125 0.49267,-3.16507 -1.24698,-6.89129 -4.75,-7.125 -15.27715,-0.0322 -30.587779,-0.0416 -45.875,-0.0312 z m -24.25,77 0,4.46875 c -0.240025,1.55309 0.692966,3.29229 2.40625,3.40625 14.033077,0.0319 28.028837,0.0847 42.0625,0.0937 1.559069,0.23911 3.385607,-0.69967 3.5,-2.40625 L 88,93 40.03125,93 z" color="#000" display="inline" enable-background="accumulate" overflow="visible" visibility="visible" style="marker:none"/><path id="path4037" fill="none" stroke="#b77a26" stroke-opacity="1" stroke-width="1" d="m 21.657757,22.50927 c -2.988306,0.39465 -1.970719,3.78074 -2.150192,5.87108 0,16.3709 0,32.7418 0,49.1127 0.395328,2.98319 3.787215,1.96735 5.881145,2.14651 4.208945,0.0328 8.424523,-0.0654 12.629343,0.0488 3.066092,0.43851 2.698426,3.82566 2.660633,6.11464 L 40.5,92.50001 l 47,0 c 0,0 -0.354266,-8.16271 -0.02794,-10.76306 1.04657,-3.01767 4.540782,-1.87182 6.955981,-2.09737 3.971401,0 7.942799,0 11.914199,0 2.98831,-0.39466 1.97072,-3.78074 2.1502,-5.87109 0,-16.3709 0,-32.7418 0,-49.11269 -0.39533,-2.9832 -3.78722,-1.96735 -5.88115,-2.14652 -26.984512,0 -53.969023,0 -80.953533,0 z" color="#000" display="inline" enable-background="accumulate" opacity=".3" overflow="visible" visibility="visible" style="marker:none"/><rect id="rect6741-7" width="101" height="101" x="13.5" y="16.5" fill="none" stroke="url(#linearGradient3224)" stroke-dasharray="none" stroke-dashoffset="0" stroke-linecap="round" stroke-linejoin="round" stroke-miterlimit="4" stroke-opacity="1" stroke-width="1" opacity=".8" rx="5" ry="5"/><path id="path4815-3" fill="none" stroke="#000" stroke-linecap="butt" stroke-linejoin="miter" stroke-opacity="1" stroke-width="1" d="m 40.230845,86.50001 47.5385,0" opacity=".2"/><path id="path4815-2-6" fill="none" stroke="#000" stroke-linecap="butt" stroke-linejoin="miter" stroke-opacity="1" stroke-width="1" d="m 40.230845,88.50001 47.5385,0" opacity=".17"/><path id="path4815-7" fill="none" stroke="#000" stroke-linecap="butt" stroke-linejoin="miter" stroke-opacity="1" stroke-width="1" d="m 40.230845,90.50001 47.5385,0" opacity=".2"/><path id="path4815-2-69" fill="none" stroke="#000" stroke-linecap="butt" stroke-linejoin="miter" stroke-opacity="1" stroke-width="1" d="m 40.230845,92.50001 47.5385,0" opacity=".17"/></svg>