<svg xmlns="http://www.w3.org/2000/svg" xmlns:svg="http://www.w3.org/2000/svg" xmlns:xlink="http://www.w3.org/1999/xlink" id="svg4050" width="128" height="128" version="1.1"><defs id="defs4052"><linearGradient id="linearGradient3929" x1="56.245" x2="56.245" y1="53.716" y2="-63.821" gradientUnits="userSpaceOnUse" xlink:href="#linearGradient3707-319-631-407-324-8"/><linearGradient id="linearGradient3707-319-631-407-324-8"><stop id="stop3760-0" offset="0" stop-color="#175a92" stop-opacity="1"/><stop id="stop3762-9" offset="1" stop-color="#3981ae" stop-opacity="1"/></linearGradient><linearGradient id="linearGradient3948" x1="56.245" x2="56.245" y1="53.716" y2="-63.821" gradientUnits="userSpaceOnUse" xlink:href="#linearGradient3707-319-631-407-324-8-4"/><linearGradient id="linearGradient3707-319-631-407-324-8-4"><stop id="stop3760-0-0" offset="0" stop-color="#175a92" stop-opacity="1"/><stop id="stop3762-9-8" offset="1" stop-color="#3981ae" stop-opacity="1"/></linearGradient><linearGradient id="linearGradient3948-9" x1="56.245" x2="56.245" y1="53.716" y2="-63.821" gradientUnits="userSpaceOnUse" xlink:href="#linearGradient3707-319-631-407-324-8-46"/><linearGradient id="linearGradient3707-319-631-407-324-8-46"><stop id="stop3760-0-02" offset="0" stop-color="#175a92" stop-opacity="1"/><stop id="stop3762-9-3" offset="1" stop-color="#3981ae" stop-opacity="1"/></linearGradient><linearGradient id="linearGradient3221" x1="16.626" x2="20.055" y1="15.298" y2="24.628" gradientTransform="matrix(2.2144204,0,0,3.4699564,10.750311,-99.821123)" gradientUnits="userSpaceOnUse" xlink:href="#linearGradient8265-821-176-38-919-66-249-7-7"/><linearGradient id="linearGradient8265-821-176-38-919-66-249-7-7"><stop id="stop2687-1-9" offset="0" stop-color="#fff" stop-opacity="1"/><stop id="stop2689-5-4" offset="1" stop-color="#fff" stop-opacity="0"/></linearGradient><linearGradient id="linearGradient3224" x1="24" x2="24" y1="5" y2="43" gradientTransform="matrix(2.7297298,0,0,2.7297298,-1.5135113,-94.513486)" gradientUnits="userSpaceOnUse" xlink:href="#linearGradient3924"/><linearGradient id="linearGradient3924"><stop id="stop3926" offset="0" stop-color="#fff" stop-opacity="1"/><stop id="stop3928" offset=".063" stop-color="#fff" stop-opacity=".235"/><stop id="stop3930" offset=".951" stop-color="#fff" stop-opacity=".157"/><stop id="stop3932" offset="1" stop-color="#fff" stop-opacity=".392"/></linearGradient><radialGradient id="radialGradient3227" cx="7.496" cy="8.45" r="20" fx="7.496" fy="8.45" gradientTransform="matrix(5.1311087e-8,6.1720513,-6.5292943,-1.1371274e-7,119.17132,-67.22525)" gradientUnits="userSpaceOnUse" xlink:href="#linearGradient2867-449-88-871-390-598-476-591-434-148-57-177"/><linearGradient id="linearGradient2867-449-88-871-390-598-476-591-434-148-57-177"><stop id="stop3752" offset="0" stop-color="#55c1ec" stop-opacity="1"/><stop id="stop3754" offset=".705" stop-color="#1559a6" stop-opacity="1"/><stop id="stop3756" offset="1" stop-color="#1f4773" stop-opacity="1"/></linearGradient><linearGradient id="linearGradient3229" x1="24" x2="24" y1="44" y2="3.899" gradientTransform="matrix(2.641026,0,0,2.641026,0.6153901,-34.38462)" gradientUnits="userSpaceOnUse" xlink:href="#linearGradient3707-319-631-407-324"/><linearGradient id="linearGradient3707-319-631-407-324"><stop id="stop3760" offset="0" stop-color="#175a92" stop-opacity="1"/><stop id="stop3762" offset="1" stop-color="#3981ae" stop-opacity="1"/></linearGradient><radialGradient id="radialGradient3190" cx="4.993" cy="43.5" r="2.5" fx="4.993" fy="43.5" gradientTransform="matrix(2.003784,0,0,1.4,27.98813,-17.4)" gradientUnits="userSpaceOnUse" xlink:href="#linearGradient3688-166-749"/><linearGradient id="linearGradient3688-166-749"><stop id="stop2883" offset="0" stop-color="#181818" stop-opacity="1"/><stop id="stop2885" offset="1" stop-color="#181818" stop-opacity="0"/></linearGradient><radialGradient id="radialGradient3192" cx="4.993" cy="43.5" r="2.5" fx="4.993" fy="43.5" gradientTransform="matrix(2.003784,0,0,1.4,-20.01187,-104.4)" gradientUnits="userSpaceOnUse" xlink:href="#linearGradient3688-464-309"/><linearGradient id="linearGradient3688-464-309"><stop id="stop2889" offset="0" stop-color="#181818" stop-opacity="1"/><stop id="stop2891" offset="1" stop-color="#181818" stop-opacity="0"/></linearGradient><linearGradient id="linearGradient3194" x1="25.058" x2="25.058" y1="47.028" y2="39.999" gradientUnits="userSpaceOnUse" xlink:href="#linearGradient3702-501-757"/><linearGradient id="linearGradient3702-501-757"><stop id="stop2895" offset="0" stop-color="#181818" stop-opacity="0"/><stop id="stop2897" offset=".5" stop-color="#181818" stop-opacity="1"/><stop id="stop2899" offset="1" stop-color="#181818" stop-opacity="0"/></linearGradient></defs><metadata id="metadata4055"/><g id="layer1" transform="translate(0,96)"><g id="g2036" display="inline" transform="matrix(2.9499988,0,0,1.2222234,-6.8000012,-30.444463)"><g id="g3712" opacity=".4" transform="matrix(1.052632,0,0,1.285713,-1.263158,-13.42854)"><rect id="rect2801" width="5" height="7" x="38" y="40" fill="url(#radialGradient3190)" fill-opacity="1" stroke="none"/><rect id="rect3696" width="5" height="7" x="-10" y="-47" fill="url(#radialGradient3192)" fill-opacity="1" stroke="none" transform="scale(-1,-1)"/><rect id="rect3700" width="28" height="7" x="10" y="40" fill="url(#linearGradient3194)" fill-opacity="1" stroke="none"/></g></g><rect id="rect5505-21" width="103" height="103" x="12.5" y="-22.5" fill="url(#radialGradient3227)" fill-opacity="1" fill-rule="nonzero" stroke="url(#linearGradient3229)" stroke-dasharray="none" stroke-dashoffset="0" stroke-linecap="round" stroke-linejoin="round" stroke-miterlimit="4" stroke-opacity="1" stroke-width="1" color="#000" display="inline" enable-background="accumulate" overflow="visible" rx="6" ry="6" transform="scale(1,-1)" visibility="visible" style="marker:none"/><rect id="rect6741-7" width="101" height="101" x="13.5" y="-79.5" fill="none" stroke="url(#linearGradient3224)" stroke-dasharray="none" stroke-dashoffset="0" stroke-linecap="round" stroke-linejoin="round" stroke-miterlimit="4" stroke-opacity="1" stroke-width="1" opacity=".4" rx="5" ry="5"/><path id="path3333" fill="url(#linearGradient3221)" fill-opacity="1" fill-rule="evenodd" stroke="none" d="M 17.680826,-80 C 15.857736,-80 13,-77.566759 13,-75.2 L 13.03394,-16 C 15.968234,-16.064449 112.7728,-39.591754 115,-40.723443 L 115,-75.2 c 0,-1.809077 -2.133,-4.8 -3.71161,-4.8 z" opacity=".2"/><path id="path3927-8" fill="url(#linearGradient3948-9)" fill-opacity="1" fill-rule="nonzero" stroke="none" stroke-width=".985" d="m 74.5,-30.9375 c -0.403105,0.04186 -0.656632,0.157468 -0.875,0.21875 -0.436735,0.122564 -0.765341,0.257627 -1.15625,0.40625 -0.688092,0.261612 -1.291718,0.697147 -1.90625,1.03125 -0.699302,-0.176301 -1.334561,-0.167315 -1.78125,-0.0625 -0.987314,0.231672 -1.473761,0.586624 -1.9375,0.9375 -0.927479,0.701752 -1.670589,1.551396 -2.5,2.5625 -1.658822,2.022207 -3.43078,4.689919 -4.71875,7.40625 -1.212157,2.556437 -2.777105,6.695885 -3.71875,9.71875 -0.02648,0.085005 -0.03613,0.1347639 -0.0625,0.21875 -2.191004,-2.272154 -3.981507,-3.825311 -6.5,-4.40625 -0.673322,-0.155315 -1.581001,-0.361097 -2.84375,0.28125 -0.905145,0.460437 -1.439998,1.468015 -1.71875,2.40625 -0.465138,0.112258 -0.976901,0.2964946 -1.46875,0.71875 -0.910711,0.7818499 -1.232359,2.0362382 -1.21875,2.78125 0.0068,0.3710555 0.09111,0.5546692 0.15625,0.8125 -0.04873,0.071828 -0.146053,0.081021 -0.1875,0.15625 -0.312299,0.5668484 -0.315537,0.9843893 -0.34375,1.40625 -0.740123,-0.243287 -1.670958,-0.7323739 -2.34375,-0.875 -1.003788,-0.2127944 -1.909092,-0.3586538 -3.03125,-0.1875 -1.122158,0.1711538 -2.887206,1.0703631 -3.46875,2.71875 -0.217368,0.6161268 -0.178927,1.0780473 -0.125,1.53125 -0.424657,0.24367309 -0.855206,0.61047933 -1.25,1.34375 -0.660869,1.2274651 -0.279342,2.8883356 0.15625,3.5625 0.09291,0.1437962 0.161991,0.1394293 0.25,0.25 -0.02492,0.1524614 -0.161622,0.2856923 -0.15625,0.4375 0.04731,1.3370933 0.588922,1.7928692 0.84375,2.09375 0.509655,0.6017616 0.740998,0.7252617 1.03125,0.9375 0.462551,0.3382289 0.913921,0.6057265 1.40625,0.84375 0.382683,0.1850139 0.765944,0.3744858 1.5,0.46875 0.0028,8.887e-4 0.02736,-0.00127 0.03125,0 0.05089,0.016583 0.166012,0.086889 0.34375,0.15625 0.382647,0.1493245 0.949493,0.3850398 1.625,0.6875 1.351014,0.60492 3.125192,1.433139 4.84375,2.28125 1.27973,0.631549 2.373156,1.221454 3.4375,1.78125 -0.112648,0.105475 -0.163237,0.174658 -0.28125,0.28125 -1.494825,1.350169 -3.507693,2.795089 -4.4375,3.25 -4.211266,2.060382 -7.543485,2.003566 -12.625,-0.5 l -4.3125,-2.125 a 3.2362357,3.2362357 0 0 0 -3.625,5.28125 l 3.6875,3.40625 c 4.828527,4.472063 11.090124,7.883119 17.5,9.5625 6.333084,1.659262 15.732814,1.804043 22,0.28125 2.611353,-0.634506 6.487792,-2.113035 9.46875,-3.53125 10.02634,-4.770119 18.977039,-15.099929 20.90625,-25.03125 1.394212,-0.1965188 2.665803,-0.5996853 3.9375,-1.15625 1.6261,-0.7116714 3.00923,-1.255513 4.375,-2.90625 0.27807,-0.33609336 0.89753,-0.59600309 1,-2.34375 0.0512,-0.8738735 -0.44007,-2.0918909 -1.0625,-2.6875 -0.0488,-0.046664 -0.0774,-0.020938 -0.125,-0.0625 0.29721,-0.3302371 0.61056,-0.6820923 0.90625,-1.46875 0.29569,-0.7866577 0.27344,-2.6966995 -0.8125,-3.75 -1.0639,-1.031846 -1.49623,-0.851501 -1.8125,-0.90625 -0.31627,-0.05475 -0.52156,-0.08862 -0.71875,-0.09375 -0.39438,-0.01027 -0.76271,0.03143 -1.15625,0.0625 -0.787076,0.06214 -1.705539,0.173043 -2.6875,0.34375 -1.995291,0.346881 -2.948349,0.164879 -2.96875,0.15625 -0.0204,-0.0086 0.01195,0.239184 -0.3125,-0.84375 -0.794566,-2.652028 -2.548853,-4.879784 -4.625,-7.09375 -2.076147,-2.213966 -4.392569,-4.204432 -6.90625,-5.375 -0.02095,-0.0098 -0.04152,-0.02154 -0.0625,-0.03125 0.247725,-0.363025 0.46875,-0.899384 0.46875,-1.9375 0,-1.000286 -0.479381,-2.170481 -1.21875,-2.90625 -0.739369,-0.735769 -1.574945,-1.072525 -2.3125,-1.21875 -0.572577,-0.113517 -1.10413,-0.09848 -1.625,-0.0625 -0.331133,-0.372502 -0.716036,-0.695558 -1.125,-0.875 -0.784094,-0.344039 -1.346895,-0.385614 -1.75,-0.34375 z m -4.96875,2.21875 c -0.138507,0.102997 -0.261617,0.09871 -0.40625,0.21875 -0.0482,0.04 0.08867,-0.09452 0.40625,-0.21875 z m 2.28125,0.28125 c 0.487086,0.295526 0.842047,0.634181 0.875,0.6875 -0.174248,-0.281941 -0.580091,-0.435876 -0.875,-0.6875 z" color="#000" display="inline" enable-background="accumulate" opacity=".05" overflow="visible" transform="translate(-9.9997601e-8,-32)" visibility="visible" style="marker:none"/><path id="path3927-0" fill="url(#linearGradient3948)" fill-opacity="1" fill-rule="nonzero" stroke="none" stroke-width=".985" d="m 74.5625,-30.3125 c -0.339469,0.03505 -0.584408,0.163509 -0.78125,0.21875 -0.393684,0.110483 -0.706146,0.227633 -1.09375,0.375 -0.73721,0.280287 -1.369971,0.707776 -2.03125,1.09375 -0.03605,-0.01352 -0.05747,-0.05088 -0.09375,-0.0625 -0.654045,-0.209432 -1.239165,-0.160369 -1.65625,-0.0625 -0.83417,0.195737 -1.260487,0.520662 -1.6875,0.84375 -0.854026,0.646176 -1.595101,1.448659 -2.40625,2.4375 -1.622297,1.977681 -3.364945,4.623792 -4.625,7.28125 -1.18715,2.503696 -2.757409,6.670477 -3.6875,9.65625 -0.141187,0.4532382 -0.239703,0.7390098 -0.375,1.15625 -0.104772,-0.1101727 -0.174275,-0.1681397 -0.28125,-0.28125 -2.357636,-2.492854 -4.265267,-4.104723 -6.65625,-4.65625 -0.597746,-0.137882 -1.35794,-0.283264 -2.40625,0.25 -0.890808,0.453144 -1.396763,1.540621 -1.53125,2.40625 -0.469599,0.057113 -1.000555,0.2006454 -1.53125,0.65625 -0.748218,0.6423495 -1.011403,1.656967 -1,2.28125 0.008,0.4396964 0.123598,0.6872131 0.21875,0.96875 -0.103326,0.1229999 -0.267605,0.143041 -0.34375,0.28125 -0.502144,0.9114326 -0.391835,1.5265668 -0.25,2 C 41.331447,-3.8356114 40.118907,-4.4407992 39.25,-4.625 38.288717,-4.8287836 37.434231,-4.9332734 36.4375,-4.78125 35.440769,-4.6292266 33.960058,-3.8926132 33.46875,-2.5 c -0.25223,0.7149422 -0.197481,1.2622666 -0.0625,1.71875 -0.430756,0.17993494 -0.94591,0.48427935 -1.375,1.28125 -0.54157,1.0058853 -0.208095,2.3423532 0.15625,2.90625 0.140186,0.2169655 0.244137,0.2677725 0.375,0.40625 -0.05661,0.2036727 -0.194749,0.3888805 -0.1875,0.59375 0.03844,1.0862759 0.473584,1.4661749 0.6875,1.71875 0.427831,0.5051501 0.658505,0.6084935 0.9375,0.8125 0.429315,0.3139257 0.858305,0.5929129 1.3125,0.8125 0.454195,0.2195871 0.699698,0.5 1.84375,0.5 -0.627173,0 -0.499839,-0.081997 -0.4375,-0.0625 0.06234,0.019497 0.206722,0.078386 0.40625,0.15625 0.399057,0.1557284 0.975225,0.4138193 1.65625,0.71875 1.36205,0.6098615 3.150915,1.430411 4.875,2.28125 1.571517,0.775546 3.027369,1.547858 4.21875,2.1875 -0.308247,0.311314 -0.534277,0.570273 -0.90625,0.90625 -1.526481,1.378761 -3.556383,2.836215 -4.59375,3.34375 -4.36168,2.133973 -7.988262,2.061566 -13.1875,-0.5 l -4.3125,-2.125 a 2.6129284,2.6129284 0 0 0 -2.9375,4.25 l 3.6875,3.40625 c 4.745112,4.394806 10.947332,7.786207 17.25,9.4375 6.168591,1.616165 15.625653,1.730493 21.71875,0.25 2.517326,-0.611659 6.407388,-2.103002 9.34375,-3.5 9.899988,-4.710007 18.825467,-15.124166 20.59375,-24.8125 0.01601,-0.087721 0.04545,-0.082923 0.0625,-0.15625 1.468618,-0.1353874 2.816947,-0.6189207 4.1875,-1.21875 1.5798,-0.6914055 2.92206,-1.2648206 4.125,-2.71875 0.25654,-0.31007855 0.79086,-0.56498514 0.875,-2 0.0421,-0.7175074 -0.33189,-1.6976962 -0.84375,-2.1875 -0.30249,-0.2894497 -0.50554,-0.3281277 -0.75,-0.4375 0.1788,-0.1630774 0.39379,-0.281289 0.5625,-0.46875 0.26829,-0.2981017 0.53344,-0.6219694 0.78125,-1.28125 0.24781,-0.6592806 0.23489,-2.2293919 -0.65625,-3.09375 -0.86288,-0.836886 -1.2325,-0.703692 -1.5,-0.75 -0.2675,-0.04631 -0.44634,-0.05785 -0.625,-0.0625 -0.35732,-0.0093 -0.68245,0.03249 -1.0625,0.0625 -0.760098,0.06001 -1.660056,0.1760011 -2.625,0.34375 -2.037822,0.3542752 -3.121843,0.2188532 -3.34375,0.125 -0.221907,-0.093853 -0.306673,-0.083213 -0.65625,-1.25 -0.735429,-2.454645 -2.46309,-4.671625 -4.5,-6.84375 -2.03691,-2.172125 -4.335735,-4.14028 -6.71875,-5.25 -0.298096,-0.138817 -0.628571,-0.215398 -0.9375,-0.34375 0.351552,-0.290021 1,-0.501922 1,-2.1875 0,-0.856392 -0.403678,-1.844233 -1.03125,-2.46875 -0.627572,-0.624517 -1.349619,-0.902307 -2,-1.03125 -0.694938,-0.137776 -1.355508,-0.134366 -2,-0.03125 -0.289725,-0.363107 -0.488403,-0.799122 -0.875,-0.96875 -0.641348,-0.281406 -1.098031,-0.316301 -1.4375,-0.28125 z m -3,2.40625 c 0.358468,0.222204 0.586832,0.457557 0.59375,0.46875 -0.119804,-0.193847 -0.40329,-0.289545 -0.59375,-0.46875 z" color="#000" display="inline" enable-background="accumulate" opacity=".1" overflow="visible" transform="translate(-9.9997601e-8,-32)" visibility="visible" style="marker:none"/><path id="path3927" fill="url(#linearGradient3929)" fill-opacity="1" fill-rule="nonzero" stroke="none" stroke-width=".985" d="m 74.09375,-29 c -0.314968,0.08839 -0.618438,0.198681 -1,0.34375 -0.914305,0.347618 -1.762488,0.808245 -2.5,1.34375 -0.13794,-0.09425 -0.221965,-0.232247 -0.375,-0.28125 -0.400026,-0.128092 -0.754172,-0.09627 -1.03125,-0.03125 -0.554156,0.130032 -0.921388,0.35272 -1.28125,0.625 -0.719723,0.54456 -1.440993,1.301865 -2.21875,2.25 -1.555515,1.896269 -3.259736,4.512686 -4.46875,7.0625 -1.141425,2.407263 -2.716036,6.582047 -3.625,9.5 -0.363398,1.1665779 -0.706318,2.1204394 -1,2.96875 C 56.100502,-5.7223684 55.613551,-6.2262603 55,-6.875 c -2.262574,-2.3923401 -4.224258,-3.888474 -6.0625,-4.3125 -0.459561,-0.106007 -1.000026,-0.208814 -1.65625,0.125 -0.656224,0.333814 -1.024789,1.2560748 -1,1.84375 0.01269,0.3009263 0.142069,0.5216226 0.21875,0.78125 -0.222708,-0.064161 -0.446798,-0.1479062 -0.71875,-0.15625 -0.353537,-0.010847 -0.861386,0.050216 -1.3125,0.4375 -0.451114,0.3872837 -0.601121,1.0027103 -0.59375,1.40625 0.0074,0.4035397 0.104159,0.7193878 0.21875,1 0.03861,0.094538 0.142396,0.18771 0.1875,0.28125 -0.248083,0.1417501 -0.539171,0.293271 -0.6875,0.5625 -0.392863,0.7130793 -0.178511,1.2197489 -0.0625,1.53125 0.232021,0.6230023 0.580816,1.0231175 1.0625,1.625 0.10381,0.1297148 0.288239,0.3285302 0.40625,0.46875 -2.305096,-1.0689524 -4.361347,-1.8779946 -5.96875,-2.21875 -0.883564,-0.187308 -1.670102,-0.273295 -2.4375,-0.15625 -0.767398,0.117045 -1.704931,0.6062995 -2.03125,1.53125 -0.260914,0.739556 -0.0059,1.29370691 0.1875,1.625 0.10924,0.18709047 0.248699,0.29327866 0.375,0.4375 -0.01696,0.0018105 -0.04571,-0.0019016 -0.0625,0 -0.32326,0.03661097 -0.617199,0.10501788 -0.9375,0.21875 -0.320301,0.11373212 -0.770309,0.27425637 -1.09375,0.875 -0.323441,0.6007436 -0.140327,1.3877191 0.09375,1.75 0.219037,0.3390031 0.453311,0.5139349 0.6875,0.6875 0.0054,0.00403 -0.0054,0.027229 0,0.03125 -0.173805,0.260764 -0.323263,0.5708342 -0.3125,0.875 0.02221,0.6276755 0.298389,0.8669983 0.4375,1.03125 0.278222,0.3285034 0.460339,0.4360446 0.71875,0.625 0.368545,0.2694893 0.77178,0.5016224 1.15625,0.6875 0.38447,0.1858776 0.629924,0.375 1.34375,0.375 -0.325163,0 -0.196897,-0.03226 -0.09375,0 0.103147,0.03226 0.254219,0.1037814 0.46875,0.1875 C 37.960311,7.4486873 38.558887,7.6905521 39.25,8 c 1.382227,0.6188959 3.17206,1.4879244 4.90625,2.34375 1.73419,0.855826 3.437974,1.726547 4.6875,2.40625 0.381302,0.207417 0.594264,0.337229 0.875,0.5 -0.01885,0.02305 -0.0115,0.03888 -0.03125,0.0625 -0.461407,0.551877 -1.176569,1.25323 -1.96875,1.96875 -1.584361,1.43104 -3.609716,2.927495 -4.84375,3.53125 -4.636701,2.268528 -8.773014,2.167614 -14.1875,-0.5 l -4.3125,-2.125 a 1.4732587,1.4732587 0 0 0 -1.65625,2.40625 L 26.40625,22 c 4.592594,4.253547 10.643354,7.556315 16.75,9.15625 5.867828,1.537366 15.381462,1.653151 21.15625,0.25 C 66.657905,30.836364 70.582677,29.358205 73.4375,28 82.953056,23.472891 91.744417,13.07385 93.40625,3.96875 93.550269,3.1796878 93.688397,2.9895973 93.65625,3 c 0.06911,-0.00848 0.08189,-0.029851 0.25,-0.03125 1.396808,-0.011621 2.911121,-0.5331491 4.40625,-1.1875 1.495129,-0.6543509 2.81354,-1.31216815 3.71875,-2.40625 0.21719,-0.26251248 0.57439,-0.4805417 0.625,-1.34375 0.0253,-0.4316041 -0.22156,-1.016153 -0.53125,-1.3125 -0.30969,-0.296347 -0.57824,-0.3978236 -0.8125,-0.46875 -0.56376,-0.1706925 -1.412799,-0.111847 -2.125,-0.125 0.364919,-0.2171618 0.793974,-0.3337455 1.125,-0.5625 0.62345,-0.430836 1.16294,-0.8650607 1.59375,-1.34375 0.21541,-0.2393447 0.40223,-0.4798685 0.5625,-0.90625 0.16027,-0.4263815 0.15997,-1.3561085 -0.375,-1.875 -0.49534,-0.4804177 -0.7279,-0.4066263 -0.90625,-0.4375 -0.17835,-0.030874 -0.32398,-0.02748 -0.46875,-0.03125 -0.28955,-0.00754 -0.58211,0.00319 -0.9375,0.03125 -0.710771,0.056119 -1.597421,0.1814101 -2.53125,0.34375 -2.115586,0.3677945 -3.378407,0.2809299 -3.96875,0.03125 -0.590343,-0.2496799 -0.916988,-0.648646 -1.3125,-1.96875 -0.6273,-2.093745 -2.253581,-4.279379 -4.21875,-6.375 -1.965169,-2.095621 -4.230896,-4.001536 -6.375,-5 -0.888912,-0.413948 -1.906833,-0.780166 -2.90625,-1.0625 0.229849,-0.13405 0.519676,-0.274089 0.71875,-0.40625 0.322063,-0.21381 0.619311,-0.413481 0.875,-0.65625 0.255689,-0.242769 0.6875,-0.397686 0.6875,-1.4375 0,-0.593293 -0.264338,-1.235148 -0.6875,-1.65625 -0.423162,-0.421102 -0.915258,-0.621408 -1.40625,-0.71875 -0.711807,-0.141121 -1.470744,0.08719 -2.21875,0.28125 -0.0092,-0.124016 0.02397,-0.209466 -0.03125,-0.375 -0.120093,-0.359971 -0.47925,-0.795106 -0.875,-0.96875 -0.760695,-0.333772 -1.122532,-0.119642 -1.4375,-0.03125 z" color="#000" display="inline" enable-background="accumulate" opacity=".25" overflow="visible" transform="translate(-9.9997601e-8,-32)" visibility="visible" style="marker:none"/><path id="path3060" fill="#f7f7f7" fill-opacity="1" fill-rule="nonzero" stroke="#fff" stroke-dasharray="none" stroke-dashoffset="0" stroke-linecap="butt" stroke-linejoin="miter" stroke-miterlimit="4" stroke-opacity="1" stroke-width=".985" d="m 63.962426,-2.027946 c 2.123161,-0.515885 6.109814,-2.008203 8.85923,-3.31626 9.018597,-4.290677 17.611795,-14.594725 19.136019,-22.945875 0.343997,-1.884717 0.628184,-2.20729 1.954379,-2.218329 1.873884,-0.01559 5.968314,-1.804522 7.008986,-3.062331 0.66527,-0.804095 0.30201,-0.911813 -3.141914,-0.931685 -2.141786,-0.01235 -4.028744,-0.157055 -4.193244,-0.321555 -0.164501,-0.164501 0.781998,-0.590199 2.103335,-0.945999 2.327777,-0.626803 5.958103,-3.153883 5.361743,-3.73232 -0.16174,-0.156866 -1.756332,-0.03099 -3.543546,0.279706 -4.432224,0.770542 -6.036677,0.08994 -6.946461,-2.946657 -0.975045,-3.254414 -6.127498,-8.759701 -9.798019,-10.468985 -1.618285,-0.753602 -4.000938,-1.388015 -5.294781,-1.409808 l -2.352442,-0.03962 3.08758,-1.403111 c 1.698169,-0.771712 3.087579,-1.691047 3.087579,-2.042966 0,-1.012733 -1.419663,-1.292978 -3.173002,-0.62636 -1.466065,0.557395 -1.577789,0.506429 -1.237826,-0.564692 0.341099,-1.074696 0.23084,-1.123074 -1.264161,-0.554676 -0.900814,0.342489 -1.997499,0.921195 -2.437076,1.286013 -0.598661,0.496845 -0.913847,0.477866 -1.255922,-0.07562 -0.710455,-1.149544 -5.070793,4.193368 -7.356861,9.01469 -1.082317,2.282604 -2.689199,6.465874 -3.570853,9.296156 -0.881654,2.830281 -1.689159,5.145966 -1.794454,5.145966 -0.105296,0 -1.573766,-1.461596 -3.263266,-3.247993 -4.279374,-4.52481 -8.255405,-5.4648 -4.986346,-1.178844 1.844913,2.41881 1.729684,2.504045 -1.115634,0.825266 -2.653593,-1.565656 -3.266116,-1.04259 -1.529584,1.306193 l 1.335922,1.806934 -1.281039,-0.685595 c -2.358771,-1.262373 -1.924057,-0.09634 1.192696,3.199161 1.699839,1.797331 2.945321,3.267871 2.767729,3.267871 -0.177586,0 -2.582047,-1.084023 -5.343249,-2.408941 -5.080799,-2.437941 -8.583259,-3.169927 -9.035402,-1.888329 -0.136151,0.385918 0.761923,1.243025 1.99572,1.904678 l 2.243267,1.203009 -2.782232,-0.102631 c -3.766362,-0.138929 -4.072414,0.445565 -0.979185,1.870038 l 2.585196,1.190512 -2.265342,-0.18496 c -1.991893,-0.162636 -2.138054,-0.09189 -1.210844,0.586105 0.579975,0.424092 1.312504,0.771071 1.627843,0.771071 1.043947,0 14.492717,6.649335 14.492717,7.165479 0,1.242247 -5.133183,5.895989 -8.109717,7.352268 -4.992223,2.442469 -9.811507,2.279086 -15.504245,-0.525618 l -4.32128,-2.129013 3.678245,3.406706 c 4.395432,4.070941 10.296958,7.298191 16.150205,8.831736 5.47903,1.435501 15.056228,1.552388 20.419536,0.249218 z" color="#000" display="inline" enable-background="accumulate" overflow="visible" visibility="visible" style="marker:none"/></g></svg>