<svg xmlns="http://www.w3.org/2000/svg" xmlns:svg="http://www.w3.org/2000/svg" xmlns:xlink="http://www.w3.org/1999/xlink" id="svg2408" width="128" height="128" version="1.0"><defs id="defs2410"><linearGradient id="ButtonShadow" x1="45.448" x2="45.448" y1="92.54" y2="7.017" gradientTransform="scale(1.0058652,0.994169)" gradientUnits="userSpaceOnUse"><stop id="stop3750" offset="0" stop-color="#000" stop-opacity="1"/><stop id="stop3752" offset="1" stop-color="#000" stop-opacity=".588"/></linearGradient><linearGradient id="linearGradient3737"><stop id="stop3739" offset="0" stop-color="#fffac8" stop-opacity="1"/><stop id="stop3741" offset="1" stop-color="#feff67" stop-opacity="0"/></linearGradient><linearGradient id="linearGradient3700"><stop id="stop3702" offset="0" stop-color="#da4714" stop-opacity="1"/><stop id="stop3704" offset="1" stop-color="#ee743e" stop-opacity="1"/></linearGradient><filter id="filter3174" color-interpolation-filters="sRGB"><feGaussianBlur id="feGaussianBlur3176" stdDeviation="1.71"/></filter><linearGradient id="linearGradient3188" x1="36.357" x2="36.357" y1="6" y2="63.893" gradientUnits="userSpaceOnUse" xlink:href="#linearGradient3737"/><filter id="filter3794" width="1.384" height="1.384" x="-.192" y="-.192" color-interpolation-filters="sRGB"><feGaussianBlur id="feGaussianBlur3796" stdDeviation="5.28"/></filter><linearGradient id="linearGradient3613" x1="48" x2="48" y1="20.221" y2="138.661" gradientUnits="userSpaceOnUse" xlink:href="#linearGradient3737"/><radialGradient id="radialGradient3619" cx="48" cy="90.172" r="42" fx="48" fy="90.172" gradientTransform="matrix(1.1573129,0,0,0.99590774,-7.5510206,0.19713193)" gradientUnits="userSpaceOnUse" xlink:href="#linearGradient3737"/><clipPath id="clipPath3613"><rect id="rect3615" width="84" height="84" x="6" y="6" fill="#fff" fill-opacity="1" fill-rule="nonzero" stroke="none" rx="6" ry="6"/></clipPath><linearGradient id="linearGradient3617" x1="48" x2="48" y1="90" y2="5.988" gradientUnits="userSpaceOnUse" xlink:href="#linearGradient3700"/><linearGradient id="ButtonShadow-0" x1="45.448" x2="45.448" y1="92.54" y2="7.017" gradientTransform="matrix(1.0058652,0,0,0.994169,100,0)" gradientUnits="userSpaceOnUse"><stop id="stop3750-8" offset="0" stop-color="#000" stop-opacity="1"/><stop id="stop3752-5" offset="1" stop-color="#000" stop-opacity=".588"/></linearGradient><linearGradient id="linearGradient3780" x1="32.251" x2="32.251" y1="6.132" y2="90.239" gradientTransform="matrix(1.0238095,0,0,1.0119048,-1.1428571,-98.071429)" gradientUnits="userSpaceOnUse" xlink:href="#ButtonShadow-0"/><linearGradient id="linearGradient3772" x1="32.251" x2="32.251" y1="6.132" y2="90.239" gradientTransform="matrix(1.0238095,0,0,1.0119048,-1.1428571,-98.071429)" gradientUnits="userSpaceOnUse" xlink:href="#ButtonShadow-0"/><linearGradient id="linearGradient3725" x1="32.251" x2="32.251" y1="6.132" y2="90.239" gradientTransform="matrix(1.0238095,0,0,1.0119048,-1.1428571,-98.071429)" gradientUnits="userSpaceOnUse" xlink:href="#ButtonShadow-0"/><linearGradient id="linearGradient3721" x1="32.251" x2="32.251" y1="6.132" y2="90.239" gradientTransform="translate(0,-97)" gradientUnits="userSpaceOnUse" xlink:href="#ButtonShadow-0"/><linearGradient id="linearGradient3026" x1="32.251" x2="32.251" y1="6.132" y2="90.239" gradientTransform="matrix(1.0238095,0,0,1.0119048,-1.1428571,-98.071429)" gradientUnits="userSpaceOnUse" xlink:href="#ButtonShadow-0"/><linearGradient id="linearGradient3993" x1="32.251" x2="32.251" y1="6.132" y2="90.239" gradientTransform="matrix(1.0238095,0,0,1.0119048,-1.1428571,-98.071429)" gradientUnits="userSpaceOnUse" xlink:href="#ButtonShadow-0"/><linearGradient id="linearGradient3995" x1="32.251" x2="32.251" y1="6.132" y2="90.239" gradientTransform="matrix(1.0238095,0,0,1.0119048,-1.1428571,-98.071429)" gradientUnits="userSpaceOnUse" xlink:href="#ButtonShadow-0"/><linearGradient id="linearGradient3997" x1="32.251" x2="32.251" y1="6.132" y2="90.239" gradientTransform="matrix(1.0238095,0,0,1.0119048,-1.1428571,-98.071429)" gradientUnits="userSpaceOnUse" xlink:href="#ButtonShadow-0"/><linearGradient id="linearGradient3999" x1="32.251" x2="32.251" y1="6.132" y2="90.239" gradientTransform="matrix(1.0238095,0,0,1.0119048,-1.1428571,-98.071429)" gradientUnits="userSpaceOnUse" xlink:href="#ButtonShadow-0"/><linearGradient id="linearGradient4001" x1="32.251" x2="32.251" y1="6.132" y2="90.239" gradientTransform="translate(0,-97)" gradientUnits="userSpaceOnUse" xlink:href="#ButtonShadow-0"/><linearGradient id="linearGradient4003" x1="48" x2="48" y1="20.221" y2="138.661" gradientUnits="userSpaceOnUse" xlink:href="#linearGradient3737"/><radialGradient id="radialGradient4013" cx="48" cy="90.172" r="42" fx="48" fy="90.172" gradientTransform="matrix(1.5430839,0,0,1.327877,-10.068027,0.26284267)" gradientUnits="userSpaceOnUse" xlink:href="#linearGradient3737"/><linearGradient id="linearGradient4016" x1="36.357" x2="36.357" y1="6" y2="63.893" gradientTransform="scale(1.3333333,1.3333333)" gradientUnits="userSpaceOnUse" xlink:href="#linearGradient3737"/><linearGradient id="linearGradient4019" x1="48" x2="48" y1="90" y2="5.988" gradientTransform="scale(1.3333333,1.3333333)" gradientUnits="userSpaceOnUse" xlink:href="#linearGradient3700"/><linearGradient id="linearGradient4022" x1="32.251" x2="32.251" y1="6.132" y2="90.239" gradientTransform="matrix(1.3333333,0,0,1.3333333,0,-129.33333)" gradientUnits="userSpaceOnUse" xlink:href="#ButtonShadow-0"/><linearGradient id="linearGradient4025" x1="32.251" x2="32.251" y1="6.132" y2="90.239" gradientTransform="matrix(1.3650793,0,0,1.3492064,-1.5238095,-130.76191)" gradientUnits="userSpaceOnUse" xlink:href="#ButtonShadow-0"/><linearGradient id="linearGradient4028" x1="32.251" x2="32.251" y1="6.132" y2="90.239" gradientTransform="matrix(1.3650793,0,0,-1.3492064,-1.5238095,130.76191)" gradientUnits="userSpaceOnUse" xlink:href="#ButtonShadow-0"/><linearGradient id="linearGradient4031" x1="32.251" x2="32.251" y1="6.132" y2="90.239" gradientTransform="matrix(1.3650793,0,0,-1.3492064,-1.5238095,130.76191)" gradientUnits="userSpaceOnUse" xlink:href="#ButtonShadow-0"/><linearGradient id="linearGradient4034" x1="32.251" x2="32.251" y1="6.132" y2="90.239" gradientTransform="matrix(1.3650793,0,0,-1.3492064,-1.5238095,130.76191)" gradientUnits="userSpaceOnUse" xlink:href="#ButtonShadow-0"/><linearGradient id="linearGradient4036" x1="48" x2="48" y1="20.221" y2="138.661" gradientUnits="userSpaceOnUse" xlink:href="#linearGradient3737"/></defs><metadata id="metadata2413"/><g id="layer2" display="none" transform="translate(0,32)"><rect id="rect3745" width="86" height="85" x="5" y="7" fill="url(#ButtonShadow)" fill-opacity="1" fill-rule="nonzero" stroke="none" filter="url(#filter3174)" opacity=".9" rx="6" ry="6"/></g><path id="path3786" fill="url(#linearGradient4034)" fill-opacity="1" fill-rule="nonzero" stroke="none" d="m 16,126.70833 c -7.3481204,0 -13.375,-6.02688 -13.375,-13.375 l 0,-94.666663 C 2.625,11.318547 8.6518797,5.2916667 16,5.2916667 l 96,0 c 7.34812,0 13.375,6.0268803 13.375,13.3750003 l 0,94.666663 c 0,7.34812 -6.02688,13.375 -13.375,13.375 l -96,0 z" display="inline" opacity=".08"/><path id="path3778" fill="url(#linearGradient4031)" fill-opacity="1" fill-rule="nonzero" stroke="none" d="m 16,125.375 c -6.628844,0 -12.0416667,-5.41283 -12.0416667,-12.04167 l 0,-94.666663 C 3.9583333,12.037823 9.3711561,6.625 16,6.625 l 96,0 c 6.62884,0 12.04167,5.412823 12.04167,12.041667 l 0,94.666663 c 0,6.62884 -5.41283,12.04167 -12.04167,12.04167 l -96,0 z" display="inline" opacity=".1"/><path id="path3770" fill="url(#linearGradient4028)" fill-opacity="1" fill-rule="nonzero" stroke="none" d="M 16,124 C 10.121156,124 5.3333333,119.21217 5.3333333,113.33333 l 0,-94.666663 C 5.3333333,12.787823 10.121156,8 16,8 l 96,0 c 5.87884,0 10.66667,4.787823 10.66667,10.666667 l 0,94.666663 C 122.66667,119.21217 117.87884,124 112,124 l -96,0 z" display="inline" opacity=".2"/><rect id="rect3723" width="114.667" height="113.333" x="6.667" y="-122.667" fill="url(#linearGradient4025)" fill-opacity="1" fill-rule="nonzero" stroke="none" display="inline" opacity=".2" rx="9.333" ry="9.333" transform="scale(1,-1)"/><rect id="rect3716" width="112" height="112" x="8" y="-121.333" fill="url(#linearGradient4022)" fill-opacity="1" fill-rule="nonzero" stroke="none" display="inline" opacity=".3" rx="8" ry="8" transform="scale(1,-1)"/><rect id="rect2419" width="112" height="112" x="8" y="8" fill="url(#linearGradient4019)" fill-opacity="1" fill-rule="nonzero" stroke="none" rx="8" ry="8"/><path id="rect3728" fill="url(#linearGradient4016)" fill-opacity="1" fill-rule="nonzero" stroke="none" d="M 16,8 C 11.568,8 8,11.568 8,16 L 8,18.666667 8,109.33333 8,112 c 0,0.44629 0.055133,0.8676 0.125,1.29167 0.064933,0.39413 0.1293867,0.79588 0.25,1.16666 0.013173,0.0405 0.027856,0.0848 0.041667,0.12494 0.13182,0.38369 0.3131736,0.72993 0.5,1.08333 0.192789,0.36468 0.4208214,0.71416 0.6666666,1.04167 0.2458452,0.3275 0.4983687,0.63129 0.7916667,0.91666 0.586596,0.57075 1.257213,1.08604 2,1.45834 0.371393,0.18614 0.764631,0.32926 1.166667,0.45833 -0.341603,-0.13363 -0.648948,-0.31503 -0.958334,-0.5 -0.0099,-0.005 -0.03182,0.005 -0.04167,0 -0.04258,-0.0257 -0.08306,-0.0567 -0.125,-0.0833 -0.160527,-0.10227 -0.30803,-0.21802 -0.458334,-0.33334 -0.141563,-0.10773 -0.284374,-0.21481 -0.416666,-0.33333 -0.23724,-0.21524 -0.46328,-0.46052 -0.666667,-0.70833 -0.143439,-0.17368 -0.291192,-0.35372 -0.416667,-0.54167 -0.03345,-0.0512 -0.05126,-0.11453 -0.08333,-0.16667 -0.08635,-0.13737 -0.173637,-0.27269 -0.25,-0.41666 -0.1346777,-0.25962 -0.2742331,-0.55427 -0.375,-0.83334 -0.010613,-0.0291 -0.031452,-0.054 -0.041667,-0.0833 C 9.6659,115.41907 9.6605933,115.29249 9.625,115.1666 9.5845569,115.02451 9.5311475,114.89596 9.5,114.75 9.4028285,114.29465 9.3333333,113.81907 9.3333333,113.33333 l 0,-2.66666 0,-90.66667 0,-2.666667 c 0,-3.70913 2.9575357,-6.666666 6.6666667,-6.666666 l 2.666667,0 90.666663,0 2.66667,0 c 3.70913,0 6.66667,2.957536 6.66667,6.666666 l 0,2.666667 0,90.66667 0,2.66666 c 0,0.48574 -0.0695,0.96132 -0.16667,1.41667 -0.0589,0.27585 -0.11784,0.53021 -0.20833,0.79167 -0.0103,0.0293 -0.0311,0.0543 -0.0417,0.0833 -0.0837,0.23165 -0.18451,0.48993 -0.29167,0.70833 -0.0554,0.1104 -0.10538,0.2266 -0.16666,0.33334 -0.0728,0.1296 -0.16904,0.25113 -0.25,0.375 -0.12548,0.18794 -0.27323,0.36798 -0.41667,0.54166 -0.1909,0.2326 -0.40419,0.46267 -0.625,0.66667 -0.0149,0.0136 -0.0266,0.0283 -0.0417,0.0416 -0.18451,0.16741 -0.38012,0.31259 -0.58333,0.45833 -0.13676,0.0975 -0.27242,0.20448 -0.41667,0.29167 -0.01,0.005 -0.0318,-0.005 -0.0417,0 -0.30939,0.18497 -0.61673,0.36637 -0.95834,0.5 0.40204,-0.12907 0.79528,-0.27219 1.16667,-0.45833 0.74279,-0.3723 1.4134,-0.88759 2,-1.45834 0.2933,-0.28537 0.54582,-0.58916 0.79167,-0.91666 0.24584,-0.32751 0.47387,-0.67699 0.66666,-1.04167 0.18683,-0.3534 0.36818,-0.69964 0.5,-1.08333 0.0139,-0.0411 0.0284,-0.0836 0.0417,-0.12494 0.12061,-0.37078 0.18507,-0.77253 0.25,-1.16666 C 119.94487,112.8676 120,112.44629 120,112 l 0,-2.66667 0,-90.666663 L 120,16 c 0,-4.432 -3.568,-8 -8,-8 L 16,8 z" opacity=".35"/><path id="path3615" fill="url(#radialGradient4013)" fill-opacity="1" fill-rule="nonzero" stroke="none" d="m 16,120 c -4.432,0 -8,-3.568 -8,-8 L 8,109.33333 8,18.666667 8,16 c 0,-0.446295 0.055133,-0.8676 0.125,-1.291667 0.064933,-0.394128 0.1293867,-0.795886 0.25,-1.166666 0.013173,-0.04051 0.027856,-0.0848 0.041667,-0.125 0.13182,-0.383695 0.3131736,-0.729936 0.5,-1.083334 C 9.1094557,11.968657 9.3374881,11.61918 9.5833333,11.291667 9.8291785,10.964153 10.081702,10.660371 10.375,10.375 c 0.586596,-0.5707413 1.257213,-1.0860347 2,-1.4583333 0.371393,-0.1861494 0.764631,-0.3292627 1.166667,-0.4583334 -0.341603,0.1336294 -0.648948,0.3150294 -0.958334,0.5 -0.0099,0.00587 -0.03182,-0.006 -0.04167,0 -0.04258,0.025733 -0.08306,0.05668 -0.125,0.083333 C 12.25614,9.1439333 12.108637,9.259684 11.958333,9.375 11.81677,9.4827333 11.673959,9.589816 11.541667,9.7083333 c -0.23724,0.215244 -0.46328,0.4605177 -0.666667,0.7083337 -0.143439,0.173673 -0.291192,0.353713 -0.416667,0.541666 -0.03345,0.05117 -0.05126,0.114494 -0.08333,0.166667 -0.08635,0.137376 -0.173637,0.272689 -0.25,0.416667 -0.1346777,0.259608 -0.2742331,0.554268 -0.375,0.833333 -0.010613,0.02908 -0.031452,0.05407 -0.041667,0.08333 -0.042433,0.1226 -0.047739,0.249108 -0.083333,0.375 C 9.5845569,12.975491 9.5311475,13.104041 9.5,13.25 9.4028285,13.705349 9.3333333,14.18094 9.3333333,14.666667 l 0,2.666666 0,90.666667 0,2.66667 c 0,3.70913 2.9575357,6.66666 6.6666667,6.66666 l 2.666667,0 90.666663,0 2.66667,0 c 3.70913,0 6.66667,-2.95753 6.66667,-6.66666 l 0,-2.66667 0,-90.666667 0,-2.666666 c 0,-0.485727 -0.0695,-0.961318 -0.16667,-1.416667 -0.0589,-0.275857 -0.11784,-0.530211 -0.20833,-0.791667 -0.0103,-0.02927 -0.0311,-0.05425 -0.0417,-0.08333 -0.0837,-0.231652 -0.18451,-0.489932 -0.29167,-0.708333 -0.0554,-0.1104 -0.10538,-0.226606 -0.16666,-0.333334 -0.0728,-0.129613 -0.16904,-0.251133 -0.25,-0.375 C 117.41619,10.77038 117.26844,10.59034 117.125,10.416667 116.9341,10.184067 116.72081,9.9540027 116.5,9.75 116.48511,9.7364 116.47336,9.7218 116.45833,9.7083333 116.27382,9.5409253 116.07821,9.395752 115.875,9.25 c -0.13676,-0.097533 -0.27242,-0.2044853 -0.41667,-0.2916667 -0.01,-0.006 -0.0318,0.00587 -0.0417,0 -0.30939,-0.1849706 -0.61673,-0.3663706 -0.95834,-0.5 0.40204,0.1290667 0.79528,0.272184 1.16667,0.4583334 0.74279,0.3722986 1.4134,0.887592 2,1.4583333 0.2933,0.285371 0.54582,0.589153 0.79167,0.916667 0.24584,0.327513 0.47387,0.67699 0.66666,1.041666 0.18683,0.353398 0.36818,0.699639 0.5,1.083334 0.0139,0.04104 0.0284,0.08365 0.0417,0.125 0.12061,0.37078 0.18507,0.772538 0.25,1.166666 C 119.94487,15.1324 120,15.553705 120,16 l 0,2.666667 0,90.666663 0,2.66667 c 0,4.432 -3.568,8 -8,8 l -96,0 z" opacity=".2"/><rect id="rect3171" width="66" height="66" x="15" y="15" fill="url(#linearGradient4036)" fill-opacity="1" fill-rule="nonzero" stroke="#fff" stroke-dasharray="none" stroke-dashoffset="0" stroke-linecap="round" stroke-linejoin="miter" stroke-miterlimit="4" stroke-opacity="1" stroke-width=".5" clip-path="url(#clipPath3613)" filter="url(#filter3794)" opacity=".1" rx="12" ry="12" transform="scale(1.3333333,1.3333333)"/><path id="path3884" fill="#932d00" fill-opacity="1" d="M 56,24.041667 C 47.846225,24.082933 39.678896,24.01544 31.5,24.125 a 1.324022,1.324022 0 0 0 -0.25,0.04167 c -1.595103,0.299712 -2.605725,1.584281 -2.958333,2.791666 -0.343843,1.17737 -0.313319,2.317536 -0.25,3.25 0.0016,0.02377 -0.0016,0.05988 0,0.08333 0.116106,15.35983 -0.384724,30.792042 0.583333,46.25 0.565099,11.189469 6.021364,22.744373 16.375,28.250003 10.609179,5.9226 22.954492,4.75036 34.083333,3.625 a 1.324022,1.324022 0 0 0 0.04167,0 c 6.189728,-0.76656 12.446063,-1.71294 18.541667,-3.33334 a 1.324022,1.324022 0 0 0 0.375,-0.16666 c 1.451497,-0.9556 1.916006,-2.58512 1.958333,-3.875 0.0423,-1.289883 -0.127933,-2.46559 -0.04167,-3.208337 a 1.324022,1.324022 0 0 0 0,-0.166666 c -0.02774,-23.367934 0.05554,-46.751803 -0.04167,-70.125 a 1.324022,1.324022 0 0 0 -0.04167,-0.25 c -0.318493,-1.651492 -1.671053,-2.675239 -2.916667,-3 C 95.72804,23.9709 94.543899,24.040197 93.625,24.083333 c -0.01385,3.4e-5 -0.02781,-3.2e-5 -0.04167,0 -6.456609,0.01473 -12.924477,-0.08643 -19.416666,0 a 1.324022,1.324022 0 0 0 -0.25,0.04167 c -1.595103,0.299712 -2.605726,1.584281 -2.958334,2.791667 -0.343842,1.177369 -0.313318,2.317536 -0.25,3.25 0.0016,0.02377 -0.0016,0.05988 0,0.08333 l 0,52.458333 -13.416666,0 c -0.01981,-12.617876 0.05228,-25.244877 -0.04167,-37.875 a 1.324022,1.324022 0 0 0 -0.04167,-0.25 C 56.908621,42.988231 55.624052,41.977608 54.416667,41.625 c -0.754898,-0.220463 -1.393979,-0.170796 -2.083334,-0.166667 0.08913,-0.135014 0.168596,-0.288776 0.25,-0.458333 0.03143,-0.0524 0.05183,-0.114267 0.08333,-0.166667 0.0084,-0.02043 0.03349,-0.02057 0.04167,-0.04167 2.26521,-3.76277 4.76592,-7.463095 6.958334,-11.375 a 1.324022,1.324022 0 0 0 0.125,-0.291667 C 60.493356,26.66128 58.632145,24.024075 56,24.041667 z" opacity=".05"/><path id="path3878" fill="#932d00" fill-opacity="1" d="m 56,25.375 c -8.165521,0.04133 -16.340224,-0.02597 -24.5,0.08333 -2.249904,0.422746 -2.249515,2.936731 -2.125,4.738992 0.118827,15.422748 -0.364301,30.866423 0.600273,46.268766 0.545707,10.805493 5.799704,21.931042 15.639658,27.163509 10.15689,5.67011 22.231274,4.57749 33.349808,3.45317 6.166774,-0.7637 12.368234,-1.69602 18.368594,-3.2911 2.055463,-1.35323 1.054316,-4.086737 1.291667,-6.13019 -0.02775,-23.372124 0.05551,-46.753435 -0.04167,-70.119813 -0.453542,-2.351764 -3.099846,-2.215091 -4.954553,-2.129631 -6.486259,0.01531 -12.981588,-0.0816 -19.462113,0.0047 -2.249904,0.422745 -2.249515,2.93673 -2.125,4.738992 0,17.962002 0,35.924005 0,53.886008 -5.361111,0 -10.722223,0 -16.083334,0 -0.02773,-13.068299 0.05549,-26.145782 -0.04167,-39.208334 -0.422746,-2.249904 -2.936731,-2.249514 -4.738992,-2.125 -2.203696,0.489974 -0.07499,-1.440486 0.291449,-2.386393 C 53.788959,36.453776 56.300941,32.673763 58.5,28.75 58.963276,27.12338 57.730276,25.363436 56,25.375 z" opacity=".1"/><path id="path3874" fill="#932d00" fill-opacity="1" d="M 56,26.708333 32,26.75 a 1.2856012,1.2856012 0 0 0 -1.291667,1.291667 l 0,25.291666 c 0,21.050096 0.73481,26.237791 1.583334,29.791667 3.186294,13.345173 12.123781,21.32304 25.916666,23.16667 7.611087,1.01733 22.179438,-0.19591 33.833334,-2.625 l 4.208333,-0.875 a 1.2856012,1.2856012 0 0 0 1.041667,-1.25 l 0,-73.500003 A 1.2856012,1.2856012 0 0 0 96,26.75 L 74.666667,26.708333 A 1.2856012,1.2856012 0 0 0 73.375,28 l 0,57.375 -18.75,0 0,-40.041667 a 1.2856012,1.2856012 0 0 0 -1.291667,-1.291666 l -5.708333,0 9.458333,-15.375 A 1.2856012,1.2856012 0 0 0 56,26.708333 z" opacity=".15"/><path id="path3870" fill="#932d00" fill-opacity="1" d="m 32,28.052909 0,25.280424 c 0,21.020762 0.738412,26.053259 1.560533,29.496554 3.09075,12.944993 11.405654,20.365343 24.805216,22.156393 7.253446,0.96953 21.903171,-0.15839 33.42444,-2.55983 L 96,101.56164 96,28.052907 74.666667,28 l 0,58.666667 -21.333334,0 0,-41.333334 -8,0 L 56,28 z" opacity=".3"/><path id="path3865" fill="#fff" fill-opacity="1" d="M 32,26.719576 32,52 c 0,21.020761 0.738412,26.053259 1.560533,29.496553 3.09075,12.944994 11.405654,20.365337 24.805216,22.156397 7.253446,0.96953 21.903171,-0.15839 33.42444,-2.55983 L 96,100.22831 l 0,-73.508737 -21.333333,-0.05291 0,58.666666 -21.333334,0 0,-41.333333 -8,0 L 56,26.666667 z"/><rect id="rect3189" width="128" height="128" x="0" y="0" fill="none" stroke="none" opacity=".4" rx="10.957" ry="30.987"/></svg>