<svg xmlns="http://www.w3.org/2000/svg" xmlns:svg="http://www.w3.org/2000/svg" xmlns:xlink="http://www.w3.org/1999/xlink" id="svg3886" width="128" height="128" version="1.1"><defs id="defs3888"><linearGradient id="linearGradient2984" x1="24" x2="24" y1="5" y2="43" gradientTransform="matrix(2.7297298,0,0,2.7297298,-1.5135108,-62.513486)" gradientUnits="userSpaceOnUse" xlink:href="#linearGradient3924"/><linearGradient id="linearGradient3924"><stop id="stop3926" offset="0" stop-color="#fff" stop-opacity="1"/><stop id="stop3928" offset=".063" stop-color="#fff" stop-opacity=".235"/><stop id="stop3930" offset=".951" stop-color="#fff" stop-opacity=".157"/><stop id="stop3932" offset="1" stop-color="#fff" stop-opacity=".392"/></linearGradient><radialGradient id="radialGradient2990" cx="7.496" cy="8.45" r="20" fx="7.496" fy="8.45" gradientTransform="matrix(5.131108e-8,6.1720507,-6.5292935,-1.1371273e-7,119.1713,-93.225241)" gradientUnits="userSpaceOnUse" xlink:href="#linearGradient7012-661-145-733-759-865-745-661-970-94-8"/><linearGradient id="linearGradient7012-661-145-733-759-865-745-661-970-94-8"><stop id="stop3618-1" offset="0" stop-color="#f0c178" stop-opacity="1"/><stop id="stop3270-2" offset=".5" stop-color="#e18941" stop-opacity="1"/><stop id="stop3620-8" offset="1" stop-color="#ec4f18" stop-opacity="1"/></linearGradient><linearGradient id="linearGradient2992" x1="24" x2="24" y1="44" y2="3.899" gradientTransform="matrix(2.6410257,0,0,2.6410257,0.6153792,-60.384617)" gradientUnits="userSpaceOnUse" xlink:href="#linearGradient3390-178-986-453-3"/><linearGradient id="linearGradient3390-178-986-453-3"><stop id="stop3624-6" offset="0" stop-color="#ba4712" stop-opacity="1"/><stop id="stop3856-8" offset=".5" stop-color="#cf671c" stop-opacity="1"/><stop id="stop3626-0" offset="1" stop-color="#e27f39" stop-opacity="1"/></linearGradient><radialGradient id="radialGradient2455" cx="4.993" cy="43.5" r="2.5" fx="4.993" fy="43.5" gradientTransform="matrix(2.003784,0,0,1.4,27.98813,-17.4)" gradientUnits="userSpaceOnUse" xlink:href="#linearGradient3688-166-749"/><linearGradient id="linearGradient3688-166-749"><stop id="stop2883" offset="0" stop-color="#181818" stop-opacity="1"/><stop id="stop2885" offset="1" stop-color="#181818" stop-opacity="0"/></linearGradient><radialGradient id="radialGradient2457" cx="4.993" cy="43.5" r="2.5" fx="4.993" fy="43.5" gradientTransform="matrix(2.003784,0,0,1.4,-20.01187,-104.4)" gradientUnits="userSpaceOnUse" xlink:href="#linearGradient3688-464-309"/><linearGradient id="linearGradient3688-464-309"><stop id="stop2889" offset="0" stop-color="#181818" stop-opacity="1"/><stop id="stop2891" offset="1" stop-color="#181818" stop-opacity="0"/></linearGradient><linearGradient id="linearGradient2459" x1="25.058" x2="25.058" y1="47.028" y2="39.999" gradientUnits="userSpaceOnUse" xlink:href="#linearGradient3702-501-757"/><linearGradient id="linearGradient3702-501-757"><stop id="stop2895" offset="0" stop-color="#181818" stop-opacity="0"/><stop id="stop2897" offset=".5" stop-color="#181818" stop-opacity="1"/><stop id="stop2899" offset="1" stop-color="#181818" stop-opacity="0"/></linearGradient></defs><metadata id="metadata3891"/><g id="layer1" transform="translate(0,64)"><g id="g2036" display="inline" transform="matrix(2.9499988,0,0,1.2222234,-6.8000012,1.555537)"><g id="g3712" opacity=".4" transform="matrix(1.052632,0,0,1.285713,-1.263158,-13.42854)"><rect id="rect2801" width="5" height="7" x="38" y="40" fill="url(#radialGradient2455)" fill-opacity="1" stroke="none"/><rect id="rect3696" width="5" height="7" x="-10" y="-47" fill="url(#radialGradient2457)" fill-opacity="1" stroke="none" transform="scale(-1,-1)"/><rect id="rect3700" width="28" height="7" x="10" y="40" fill="url(#linearGradient2459)" fill-opacity="1" stroke="none"/></g></g><rect stroke-linejoin="round" style="marker:none" id="rect5505-21" width="103" height="103" x="12.5" y="-48.5" fill="url(#radialGradient2990)" fill-opacity="1" fill-rule="nonzero" stroke="url(#linearGradient2992)" stroke-dasharray="none" stroke-dashoffset="0" stroke-linecap="round" stroke-miterlimit="4" stroke-opacity="1" stroke-width="1" color="#000" display="inline" enable-background="accumulate" overflow="visible" rx="6" ry="6" visibility="visible"/><path id="path3807-7" fill="#ba4812" fill-opacity="1" fill-rule="nonzero" stroke="none" stroke-width=".985" d="m 64,-41.875 a 4.6739297,4.6739297 0 0 0 -3.9375,2.15625 l -8.46875,13.1875 -15.375,-3.4375 A 4.6739297,4.6739297 0 0 0 30.625,-24.375 L 34.03125,-9.28125 20.75,-0.96875 a 4.6739297,4.6739297 0 0 0 0,7.9375 L 34.03125,15.28125 30.625,30.375 a 4.6739297,4.6739297 0 0 0 5.59375,5.59375 l 15.375,-3.4375 8.46875,13.1875 a 4.6739297,4.6739297 0 0 0 7.875,0 l 8.46875,-13.1875 15.375,3.4375 A 4.6739297,4.6739297 0 0 0 97.375,30.375 L 93.96875,15.28125 107.25,6.96875 a 4.6739297,4.6739297 0 0 0 0,-7.9375 L 93.96875,-9.28125 97.375,-24.375 a 4.6739297,4.6739297 0 0 0 -5.59375,-5.59375 l -15.375,3.4375 -8.46875,-13.1875 A 4.6739297,4.6739297 0 0 0 64,-41.875 z m 0,27.0625 c 3.253901,3.875673 6.498323,7.7549435 9.75,11.625 l -0.25,0 A 4.6739297,4.6739297 0 0 0 68.8125,1.5 l 0,16.3125 -9.625,0 0,-16.3125 A 4.6739297,4.6739297 0 0 0 54.5,-3.1875 l -0.25,0 c 3.251677,-3.8700566 6.496099,-7.749327 9.75,-11.625 z" color="#000" display="inline" enable-background="accumulate" opacity=".08" overflow="visible" visibility="visible" style="marker:none"/><path id="path3807" fill="#ba4812" fill-opacity="1" fill-rule="nonzero" stroke="none" stroke-width=".985" d="m 63.75,-39.71875 a 2.5437266,2.5437266 0 0 0 -1.90625,1.15625 l -9.25,14.4375 -16.84375,-3.75 a 2.5437266,2.5437266 0 0 0 -3.03125,3.03125 l 3.71875,16.5625 -14.5625,9.125 a 2.5437266,2.5437266 0 0 0 0,4.3125 l 14.5625,9.125 -3.71875,16.5625 A 2.5437266,2.5437266 0 0 0 35.75,33.875 l 16.84375,-3.75 9.25,14.4375 a 2.5437266,2.5437266 0 0 0 4.3125,0 l 9.25,-14.4375 16.84375,3.75 a 2.5437266,2.5437266 0 0 0 3.03125,-3.03125 l -3.71875,-16.5625 14.5625,-9.125 a 2.5437266,2.5437266 0 0 0 0,-4.3125 l -14.5625,-9.125 3.71875,-16.5625 A 2.5437266,2.5437266 0 0 0 92.25,-27.875 l -16.84375,3.75 -9.25,-14.4375 A 2.5437266,2.5437266 0 0 0 63.75,-39.71875 z m 0.25,21.5625 c 4.793865,5.713586 9.583765,11.4180413 14.375,17.125 l -4.875,0 A 2.5437266,2.5437266 0 0 0 70.96875,1.5 l 0,18.46875 -13.9375,0 0,-18.46875 A 2.5437266,2.5437266 0 0 0 54.5,-1.03125 l -4.875,0 c 4.791236,-5.7069588 9.581135,-11.411414 14.375,-17.125 z" color="#000" display="inline" enable-background="accumulate" opacity=".15" overflow="visible" visibility="visible" style="marker:none"/><rect id="rect6741-7" width="101" height="101" x="13.5" y="-47.5" fill="none" stroke="url(#linearGradient2984)" stroke-dasharray="none" stroke-dashoffset="0" stroke-linecap="round" stroke-linejoin="round" stroke-miterlimit="4" stroke-opacity="1" stroke-width="1" opacity=".5" rx="5" ry="5"/><path id="path4547-4" fill="#f7f7f7" fill-opacity="1" fill-rule="nonzero" stroke="#fff" stroke-dasharray="none" stroke-dashoffset="0" stroke-linecap="butt" stroke-linejoin="miter" stroke-miterlimit="4" stroke-opacity="1" stroke-width=".985" d="m 64.000002,-37.19311 -10.233975,15.928686 -18.569708,-4.126603 4.1266,18.322115 L 23.229169,3 39.322919,13.06891 35.196319,31.391027 53.766027,27.264424 64.000002,43.19311 74.233977,27.264424 92.803688,31.391027 88.677086,13.06891 104.77084,3 88.677086,-7.068912 92.803688,-25.391027 74.233977,-21.264424 64.000002,-37.19311 z m 0,15.103365 C 70.602566,-14.213001 77.205131,-6.376741 83.807695,1.5 L 73.5,1.5 l 0,21 -19,0 0,-21 -10.307691,0 c 6.602565,-7.876741 13.205129,-15.713001 19.807693,-23.589745 z" color="#000" display="inline" enable-background="accumulate" overflow="visible" visibility="visible" style="marker:none"/></g></svg>