<svg xmlns="http://www.w3.org/2000/svg" xmlns:svg="http://www.w3.org/2000/svg" id="svg2" width="16" height="16" version="1.1" viewBox="0 0 16 16"><metadata id="metadata7"/><g id="layer1" transform="translate(0,-1036.3622)"><path color="#000" style="isolation:auto;mix-blend-mode:normal;solid-color:#000;solid-opacity:1" id="rect4179" fill="#304050" fill-opacity="1" fill-rule="nonzero" stroke="none" stroke-dasharray="none" stroke-dashoffset="0" stroke-linecap="butt" stroke-linejoin="miter" stroke-miterlimit="4" stroke-opacity="1" stroke-width="1" d="M 6 2 C 3.7839952 2 2 3.7839952 2 6 C 2 8.2160048 3.7839952 10 6 10 C 6.926351 10 7.7667544 9.675125 8.4433594 9.1503906 L 13.292969 14 L 14 13.292969 L 9.1503906 8.4433594 C 9.675125 7.7667544 10 6.926351 10 6 C 10 3.7839952 8.2160048 2 6 2 z M 6 3 C 7.6620073 3 9 4.3379927 9 6 C 9 6.6493939 8.7914132 7.246354 8.4433594 7.7363281 C 8.4243114 7.763143 8.3988056 7.7844006 8.3789062 7.8105469 C 8.2155621 8.0252113 8.0252113 8.2155621 7.8105469 8.3789062 C 7.7843927 8.3988077 7.7631759 8.424288 7.7363281 8.4433594 C 7.246354 8.7914132 6.6493939 9 6 9 C 4.3379927 9 3 7.6620073 3 6 C 3 4.3379927 4.3379927 3 6 3 z" clip-rule="nonzero" color-interpolation="sRGB" color-interpolation-filters="linearRGB" color-rendering="auto" display="inline" enable-background="accumulate" image-rendering="auto" opacity="1" overflow="visible" shape-rendering="auto" text-rendering="auto" transform="translate(0,1036.3622)" visibility="visible"/></g></svg>